<svg height="96.59" viewBox="0 0 161.26 96.59" width="161.26" xmlns="http://www.w3.org/2000/svg"><g fill="#fafafa"><path d="m68.25 3.64c3.38 0 7.93.13 7.93 4.94a14.41 14.41 0 0 1 -1 4.55l-26.18 79.04c-1 3.38-1.17 4.42-7.54 4.42-14.17 0-20.28-5.2-20.28-7.28a8.36 8.36 0 0 1 1.3-3.12l23.4-44.72c1-2.08 3.51-6.5 3.51-8.84 0-5.07-11.44-4.29-15.34-4.29-25.87 0-13.65 8.06-24.31 8.06-7.74 0-9.74-8.19-9.74-14.4 0-12.38 5.59-22 11.7-22 5.33 0 4 3.64 16.77 3.64z"/><path d="m121.22 96.46c-3.64 0-16.9-5.33-16.9-9.1 0-1.3 1.82-2.73 2.86-3.25 6.11-3.25 12.87-12.61 12.87-17.81 0-1.69-1.17-2.47-2.73-2.47-2.08 0-4.16.39-6.24.39-18.85 0-27.56-16.38-27.56-31.2 0-20.8 20.15-30.29 38.48-30.29 19.5 0 39.26 9.62 39.26 31.59 0 15-6.5 28.21-15.21 40-3.9 5.37-17.94 22.14-24.83 22.14zm.13-74.62c-4.29 0-6.63 4.55-6.63 8.45 0 6.5 3.64 16.77 11.31 16.77 4 0 6.11-3.64 6.11-7.28 0-5.46-3.25-17.94-10.79-17.94z"/></g></svg>