<svg height="93.73" viewBox="0 0 148.4 93.73" width="148.4" xmlns="http://www.w3.org/2000/svg"><g fill="#fafafa"><path d="m19.76 28.34c0-5.85-.52-8.19-6.89-8.19-1.69 0-3.25.26-4.81.26-2.73 0-5.2-1.43-5.2-4.29 0-8.97 29.25-16.12 48.49-16.12 4 0 10.79.26 10.79 5.85 0 6.5-9.49 1.82-9.75 14-.13 6.89-.26 11.31-.26 15.6 0 5.72.13 16.77 1.17 22.23 2.34 11.57 17 2.47 17 11.7 0 4.55-4 5.72-7.8 6.63-6.76 1.43-19.24 2.34-26.26 2.34-4.52.04-36.24-.61-36.24-9.58 0-3.12 2.86-5.2 5.85-5.2 2.21 0 4.55.78 6.76.78 4.94 0 7.15-3.38 7.15-18.33z"/><path d="m108.36 93.73c-3.64 0-16.9-5.33-16.9-9.1 0-1.3 1.82-2.73 2.86-3.25 6.11-3.25 12.87-12.61 12.87-17.81 0-1.69-1.17-2.47-2.73-2.47-2.08 0-4.16.39-6.24.39-18.85 0-27.56-16.38-27.56-31.2 0-20.8 20.15-30.29 38.48-30.29 19.5 0 39.26 9.62 39.26 31.59 0 15-6.5 28.21-15.21 40-3.9 5.41-17.94 22.14-24.83 22.14zm.13-74.62c-4.29 0-6.63 4.55-6.63 8.45 0 6.5 3.64 16.77 11.31 16.77 4 0 6.11-3.64 6.11-7.28 0-5.46-3.28-17.94-10.79-17.94z"/></g></svg>