<svg height="84" viewBox="0 0 123.88 84" width="123.88" xmlns="http://www.w3.org/2000/svg"><g fill="#fafafa"><path d="m66.24 72a1.76 1.76 0 0 1 -.12.66q-.12.3-.24.54a.49.49 0 0 1 -.12.36 1.33 1.33 0 0 1 -.06.42 3.29 3.29 0 0 1 -.18.42h-65.52a4.21 4.21 0 0 1 .12-1.2 2.78 2.78 0 0 1 .06-.54 3.37 3.37 0 0 0 .06-.66l1.08-4.8h66zm-1.92 4.8q-4.56 7.2-12.6 7.2h-42q-8 0-9.48-7.2zm-62.52-12 1.56-7.2h18l-1.56 7.2zm2-9.6 1.08-4.8a1.76 1.76 0 0 1 .12-.66 1.47 1.47 0 0 0 .12-.54q.12-.24.24-.54t.28-.66h17.76l-1.56 7.2zm3-9.6q4.8-7.2 12.6-7.2h42q8 0 9.48 7.2zm3.4-19.2a3.37 3.37 0 0 1 .06-.66 2.78 2.78 0 0 0 .06-.54 2.78 2.78 0 0 1 .06-.54 3.37 3.37 0 0 0 .06-.66l1.08-4.8h18l-1.52 7.2zm64.32 2.4q-4.52 7.2-12.6 7.2h-42q-8 0-9.48-7.2zm-62.52-12 1.08-4.8a1.76 1.76 0 0 1 .12-.66 1.47 1.47 0 0 0 .12-.54q.12-.24.24-.54t.24-.66h65.52a3.37 3.37 0 0 1 -.06.66 2.78 2.78 0 0 0 -.06.54 2.78 2.78 0 0 1 -.06.54 3.37 3.37 0 0 0 -.06.66l-1.08 4.8zm3-9.6q4.8-7.2 12.6-7.2h42q8 0 9.48 7.2zm34.8 57.6 1.56-7.2h18l-1.56 7.2zm2-9.6 1.6-7.2h17.76a3.37 3.37 0 0 1 -.06.66 2.78 2.78 0 0 0 -.06.54 2.78 2.78 0 0 1 -.06.54 3.37 3.37 0 0 0 -.06.66l-1.08 4.8zm24.64-31.2a4 4 0 0 1 -.24 1.2q-.12.24-.24.54t-.24.66h-17.72l1.56-7.2h18z"/><path d="m88 84 1.56-7.2h18l-1.56 7.2zm2-9.6 1.56-7.2h18l-1.56 7.2zm.24-57.6 1.56-7.2h30l-1.56 7.2zm1.8 48 1.56-7.2h18l-1.56 7.2zm.24-57.6 1.6-7.2h30l-1.56 7.2zm1.8 48 1.6-7.2h18l-1.56 7.2zm2-9.6 1.56-7.2h18l-1.56 7.2zm2-9.6 1.56-7.2h18l-1.44 7.2zm2-9.6 1.56-7.2h18l-1.56 7.2z"/></g></svg>