<svg height="84" viewBox="0 0 116.36 84" width="116.36" xmlns="http://www.w3.org/2000/svg"><g fill="#fafafa"><path d="m0 84 1.56-7.2h18l-1.56 7.2zm2-9.6 1.6-7.2h18l-1.6 7.2zm.24-57.6 1.6-7.2h30l-1.56 7.2zm1.8 48 1.56-7.2h18l-1.56 7.2zm.28-57.6 1.56-7.2h30l-1.56 7.2zm1.8 48 1.56-7.2h18l-1.56 7.2zm2-9.6 1.56-7.2h18l-1.56 7.2zm2-9.6 1.56-7.2h18l-1.48 7.2zm2-9.6 1.56-7.2h18l-1.56 7.2z"/><path d="m101.36 76.8q-4.56 7.2-12.6 7.2h-48l1.56-7.2zm1.92-4.8a1.76 1.76 0 0 1 -.12.66q-.12.3-.24.54a.49.49 0 0 1 -.12.36 1.33 1.33 0 0 1 -.06.42 3.29 3.29 0 0 1 -.18.42h-59.76l1.56-7.2h60zm-60.12-26.4a3.37 3.37 0 0 1 .06-.66 2.78 2.78 0 0 0 .06-.54 2.78 2.78 0 0 1 .06-.54 3.37 3.37 0 0 0 .06-.66l1.08-4.8h66l-1.56 7.2zm9.72 9.6q-8 0-9.48-7.2h65l-1.56 7.2zm-7.88-19.2 1.56-7.2h18l-1.56 7.2zm2-9.6 1.56-7.2h18l-1.56 7.2zm2-9.6 1.12-4.8a1.76 1.76 0 0 1 .12-.66 1.47 1.47 0 0 0 .12-.54q.12-.24.24-.54t.24-.66h65.52a3.37 3.37 0 0 1 -.06.66 2.78 2.78 0 0 0 -.06.54 2.78 2.78 0 0 1 -.06.54 3.37 3.37 0 0 0 -.06.66l-1.12 4.8zm3-9.6q4.84-7.2 12.64-7.2h42q8 0 9.48 7.2zm34.8 57.6 1.56-7.2h18l-1.56 7.2zm6.2-28.8 1.56-7.2h18l-1.56 7.2zm2-9.6 1.56-7.2h18l-1.56 7.2z"/></g></svg>