<svg height="87.89" viewBox="0 0 162.13 87.89" width="162.13" xmlns="http://www.w3.org/2000/svg"><g fill="#fafafa"><path d="m58.12.23h6.45q6.86 0 9.73 6.45 11.54 10.32 11.54 13.83h-.47l.47.47v1.4q0 8-12.48 17.05l-3.69 1.88 1.81 1.81.47-.46 1.41 2.81.47-.47h.94q.69 6.51 3.69 8.73 1.11 0 2.28 4.63v.47q0 9.66-30.94 24-8.67 3.69-22.14 5.1-14.37 0-22.56-9.67l.41-.47a13.08 13.08 0 0 1 -5.51-11.11v-1.88q0-9.36 19.39-22.14l2.29-.88a15.26 15.26 0 0 1 -4.16-10.2q4.86-16.51 17.11-23.49 13.65-7.86 23.49-7.86zm-20.27 49.77-4.16-.47q-15.69 7.78-20.33 18.47l-.47 2.81q0 1.81 5.57 1.82h1.81q20.22 0 42.48-17.52 2.76-3.28 2.76-5.1-.24-1.17-7.39-4.16-11.29 4.15-20.27 4.15zm27.66-40.1q-.06.65-12.51 5.1l.47.47v.47q-14.16 6.06-21.18 18.45h.93q11.37 0 28.13-8.32 5.75-2.87 9.72-11.54v-1.41c-.5-2.12-2.36-3.22-5.56-3.22zm8.32 36v.94h.47v-.94z"/><path d="m149.12 0 7 .94h.88a2 2 0 0 0 2.35 2.28l-.47 2.35v.93q3.28 3.69 3.28 7v2.34q-9.22 7.16-20.48 21.84-.88 0-12.6 13a211.84 211.84 0 0 0 -27.42 36.32l-2.81.94q-11.31-9-12.54-11.6v-1.93q10.36-18.27 34.86-44.18l8.38-9.31v-.47q-21.33 1.41-30.23 2.81-5.34 0-13-11.19v-1.41l.47-.46-.47-.41v-.47q1.11-6.1 6-6.1h.94v-.47l2.34.47h3.7l38.14-1.81h4.63c3.22 0 5.57-.47 7.05-1.41z"/></g></svg>