<svg height="87.83" viewBox="0 0 146.27 87.83" width="146.27" xmlns="http://www.w3.org/2000/svg"><g fill="#fafafa"><path d="m44.59 0h2.81a25.56 25.56 0 0 1 14 7.44l.47 2.35q-8.51 13.53-35.34 65l-6.08 11.21c-2 1.25-3.54 1.87-4.63 1.87a5.87 5.87 0 0 1 -3.75-1.87l-2.28.47-.47-.47v-.47l-.47.47h-.47c-.63 0-.94-.47-.94-1.41h-.94l-.5.41h-.43l-5.57-5.08v-.47q0-1.82 19-34.86l1-2.75h-.47q-2.34 0-2.34-1.41l.47-.47q-1.93 0-3.23-3.22c-.93 0-1.4-.31-1.4-.94l-.47.47h-.47c-1.84 0-2.75-.78-2.75-2.34-1.59-.39-2.34-.86-2.34-1.41q4.25-9.52 33-31.58z"/><path d="m122.25 0q5.27 0 7.38 4.16h.47a11.36 11.36 0 0 0 4.16-2.75l-.47-.47.47-.47h2.74c.94 1.33 2.79 2.71 5.57 4.16q3.69 3.75 3.69 6v1.87l-5.57 7.85.47 1.41q0 .87-7.85 8.32c-.24 1.8-1.93 4.26-5.1 7.38l.47.47v.47a21.68 21.68 0 0 0 -4.63 8.79q-2 .77-6.44 12.95-.65.06-5.1 11.54c-.7.2-2.09 2-4.16 5.57-1.14 0-1.9 1.23-2.29 3.69l-4.63 6.91h-.43l-1.41-.94-.47.47h-.47c-2.26-3.4-3.94-5.09-5-5.09l-.47.46-3.34-3.75v-.47l16.23-36h-.47q-15.1 4.65-23.6 4.64-10.36 0-15.7-10.2l-.47-.47h-.47l.47-.46v-.88l-.94-.94-.41.47a11.31 11.31 0 0 1 -1.87-5.57v-.47q-.01-9.84 30.05-22.65l1.34.45q17.88-6.45 28.25-6.45zm-38.38 29.59v.47h.46q15.89-1.69 38.38-14.83v-.46h-.46q-9.25.59-33.25 11.6a12.38 12.38 0 0 1 -5.13 3.22z"/></g></svg>