<svg height="87.96" viewBox="0 0 134.16 87.96" width="134.16" xmlns="http://www.w3.org/2000/svg"><g fill="#fafafa"><path d="m16 82.32q0 3.48-2 4.56a13.17 13.17 0 0 1 -6 1.08 12.84 12.84 0 0 1 -6-1.08q-2-1.08-2-4.56v-76.68q0-3.48 2-4.56a12.84 12.84 0 0 1 5.92-1.08 13.17 13.17 0 0 1 6 1.08q2 1.08 2 4.56z"/><path d="m98.64.48q35.52 0 35.52 22.32v42.36q0 22.32-35.52 22.32h-17q-2.88 0-3.78-1.62a10.29 10.29 0 0 1 -.9-4.86 10.29 10.29 0 0 1 .9-4.86q.9-1.62 3.78-1.62h16.52q10.56 0 15.36-2.7t4.8-6.66v-7.08h-57.72q-35.52 0-35.52-22.32v-13q0-22.28 35.52-22.28zm-37.56 13q-10.56 0-15.36 2.76t-4.8 6.6v13q0 4 4.8 6.66t15.36 2.7h57.24v-22.4q0-3.84-4.8-6.6t-15.36-2.76z"/></g></svg>