<svg height="87" viewBox="0 0 230.64 87" width="230.64" xmlns="http://www.w3.org/2000/svg"><g fill="#fafafa"><path d="m73.56 0q35.52 0 35.52 22.32v42.36q0 22.32-35.52 22.32h-17q-2.88 0-3.78-1.62a10.29 10.29 0 0 1 -.9-4.86 10.29 10.29 0 0 1 .9-4.86q.86-1.66 3.74-1.66h16.56q10.56 0 15.36-2.7t4.8-6.66v-7.04h-57.72q-35.52 0-35.52-22.32v-13q0-22.28 35.52-22.28zm-37.56 13q-10.56 0-15.36 2.76t-4.8 6.6v13q0 4 4.8 6.66t15.36 2.62h57.24v-22.32q0-3.84-4.8-6.6t-15.36-2.72z"/><path d="m214.32 62.64a21.35 21.35 0 0 0 -.72-5.94 7.15 7.15 0 0 0 -2.88-4 15.64 15.64 0 0 0 -6.06-2.22 57.83 57.83 0 0 0 -10.14-.72h-71.28q-2.88 0-3.78-1.62a10.29 10.29 0 0 1 -.9-4.86 10.29 10.29 0 0 1 .9-4.86q.9-1.62 3.78-1.62h72.12a70 70 0 0 0 9-.48 16.16 16.16 0 0 0 5.82-1.74 6.87 6.87 0 0 0 3.12-3.58 17.55 17.55 0 0 0 .9-6.18 18 18 0 0 0 -.72-5.4 7.17 7.17 0 0 0 -2.7-3.72 13.68 13.68 0 0 0 -5.58-2.1 52.88 52.88 0 0 0 -9.2-.6h-18.16q-2.88 0-3.78-1.62a10.29 10.29 0 0 1 -.9-4.86 10.29 10.29 0 0 1 .9-4.86q.94-1.66 3.78-1.66h16.44a87.15 87.15 0 0 1 14.28 1.08 31.46 31.46 0 0 1 11.16 3.92 19.55 19.55 0 0 1 7.28 7.6q2.58 4.8 2.58 12.36a24.41 24.41 0 0 1 -2.34 11q-2.34 4.68-8.7 7.8a19.73 19.73 0 0 1 8.8 6.24q3.3 4.14 3.3 12.18 0 7.68-3.06 12.54a21.57 21.57 0 0 1 -8 7.56 34.72 34.72 0 0 1 -11.32 3.72 82.85 82.85 0 0 1 -13 1h-72.14q-2.88 0-3.78-1.62a10.29 10.29 0 0 1 -.9-4.86 10.29 10.29 0 0 1 .9-4.86q.9-1.62 3.78-1.62h73.08a54.63 54.63 0 0 0 9.48-.66 13.75 13.75 0 0 0 5.52-2 6.37 6.37 0 0 0 2.52-3.54 19.45 19.45 0 0 0 .6-5.2z"/></g></svg>