<svg height="96.97" viewBox="0 0 142.15 96.97" width="142.15" xmlns="http://www.w3.org/2000/svg"><g fill="#fafafa"><path d="m43.18 59.65a54 54 0 0 1 -6.53 1.84 26.36 26.36 0 0 1 -5.3.62 34.28 34.28 0 0 1 -20.57-6.33q-10.78-7.78-10.78-22.09 0-16.63 11-25.14 9.28-7.14 24.1-7.14 11.77 0 21 9.08a31.19 31.19 0 0 1 9.73 23 72.36 72.36 0 0 1 -5.68 28.42q-6.21 14.94-17 22.55a94.18 94.18 0 0 1 -14.15 7.54q-11 5-15.58 5a7.49 7.49 0 0 1 -5.74-2.46 7.59 7.59 0 0 1 -2.11-5.33q0-4.68 5.62-7.15 4.8-1.52 9.61-3.1a46.12 46.12 0 0 0 13.45-7.47 40.06 40.06 0 0 0 8.93-11.84zm-9.78-44.24q-8.67 0-13 4.31t-4.4 12.98a13 13 0 0 0 5.09 10.95q4.64 3.52 12 3.52a17.41 17.41 0 0 0 6.91-1.82 55.16 55.16 0 0 0 9.1-5.45 48.59 48.59 0 0 0 .59-6.44q-.06-6.15-5.57-12.19-5.44-5.86-10.72-5.86z"/><path d="m112.79 67.21h-23.38q-18.8 0-18.8-7.68 0-3.22 3.28-7.21 2.69-3 5.45-6.15 9.42-13.47 28.77-40.08a14.19 14.19 0 0 1 11.89-6.09 10.22 10.22 0 0 1 6 1.76 6.82 6.82 0 0 1 3 5.92v44.06c5.12.16 8.54.68 10.26 1.58q2.86 1.59 2.87 6.21a6.56 6.56 0 0 1 -4.45 6.68 22.16 22.16 0 0 1 -8.68 1q.18 8.43-.06 18.28a7.53 7.53 0 0 1 -2.1 5.33 7.41 7.41 0 0 1 -5.57 2.11q-8.91 0-8.5-11.72zm0-41.78q-5.69 9-17.52 26.31h17.52z"/></g></svg>