<svg height="96.91" viewBox="0 0 123.32 96.91" width="123.32" xmlns="http://www.w3.org/2000/svg"><g fill="#fafafa"><path d="m34.34 91.41-23.27-.06q-11.07 0-11.07-6.97 0-7.86 12.36-7.86 1.17 0 2.58.06v-52c-3.4 2.34-5.6 3.51-6.62 3.51a8 8 0 0 1 -5.71-2.34 7.35 7.35 0 0 1 -2.43-5.42c0-2.15 1.3-4.35 3.92-6.62l6.62-4.8 7.15-5.75a14.62 14.62 0 0 1 8.5-3.16q5.26 0 5.27 6.33 0 7-.59 19.63t-.58 36.15v14.18h3.87a8 8 0 0 1 5.71 2.17 7.44 7.44 0 0 1 0 10.78 8.08 8.08 0 0 1 -5.71 2.17z"/><path d="m100.7 59.59a54.19 54.19 0 0 1 -6.53 1.85 26.28 26.28 0 0 1 -5.3.61 34.28 34.28 0 0 1 -20.57-6.33q-10.78-7.72-10.78-22.09 0-16.64 11-25.13 9.25-7.15 24.08-7.15 11.77 0 21 9.08a31.21 31.21 0 0 1 9.73 23 72.51 72.51 0 0 1 -5.68 28.42q-6.21 14.94-17 22.56a95.26 95.26 0 0 1 -14.12 7.55q-11 5-15.58 5a7.49 7.49 0 0 1 -5.74-2.46 7.59 7.59 0 0 1 -2.11-5.33q0-4.68 5.62-7.15 4.8-1.52 9.61-3.1a46.12 46.12 0 0 0 13.44-7.52 40.06 40.06 0 0 0 8.93-11.81zm-9.78-44.24q-8.67 0-13 4.31t-4.39 13c0 4.68 1.69 8.34 5.09 11q4.64 3.52 12 3.52a17.41 17.41 0 0 0 6.94-1.82 55.58 55.58 0 0 0 9.11-5.45 48.59 48.59 0 0 0 .59-6.44q-.06-6.15-5.57-12.19-5.49-5.92-10.77-5.93z"/></g></svg>