<svg height="81.24" viewBox="0 0 210.59 81.24" width="210.59" xmlns="http://www.w3.org/2000/svg"><g fill="#fafafa"><path d="m91.2 6.24c6.24 5 8.28 13.44 8.28 34 0 21-1.68 29-7.2 34.2-5.76 5.4-14.16 6.84-40.8 6.84-34 0-39.48-.84-45.12-7.08-4.92-5.56-6.36-13.12-6.36-33.76s2.28-29.44 9.12-34.44c5.88-4.44 16.88-6 41.4-6 25.32 0 34.8 1.44 40.68 6.24zm-68.28 35.16c0 19.68 1.56 20.88 27.48 20.88 13.32 0 19.44-1 22.44-3.48s3.72-5.88 3.72-19.08c0-19.92-1.44-21.12-26.88-21.12-25.08 0-26.76 1.4-26.76 22.8z"/><path d="m187.08 23c-.6-5.64-3.48-6.36-24-6.36-11.16 0-16.56.72-19.68 2.88-2.88 1.8-3.84 5.76-3.84 16.08v3.84c2.64-5.16 5.52-7.2 11.88-8.4 2.88-.6 6.6-.72 16.68-.72 17.28 0 27.12.72 31.43 2.28 8.28 2.88 11 8.28 11 21.72 0 12.84-2.16 18.72-8.28 22.32-4.27 2.44-7.39 3.16-16.27 3.76-5.16.24-16.32.6-21.6.6-13.2 0-23.76-.6-30.12-1.8-8.76-1.68-15-7.8-16.32-15.84-.6-4.08-1-13.56-1-26.28 0-19.44 1.68-26.16 7.8-30.6 6.52-4.56 17.24-6.36 37.36-6.36 8.4 0 22.44.6 27.6 1.08 15.28 1.56 19.55 6.36 19.43 21.8zm-43.92 25c-2.4 1.08-3.6 3.6-3.6 7.44 0 3.24 1 5.64 2.64 7.08 2 1.56 5 2 13.8 2 20.76 0 24.12-.12 27.36-1.2 3.6-1.08 5-3.36 5-7.92 0-4.2-1.32-6.72-4-7.8s-5.4-1.2-19.32-1.2c-15.28.04-19.04.28-21.88 1.6z"/></g></svg>