<svg height="81.24" viewBox="0 0 210.49 81.24" width="210.49" xmlns="http://www.w3.org/2000/svg"><g fill="#fafafa"><path d="m93.61 80.64h-93.61v-23.28c-.24-8.16 2.52-13.44 8.64-16.8 4.44-2.16 6.12-2.4 18.36-3.48l30.49-2.28c5.64-.48 7.92-.84 9.72-1.56 2.64-1 4-3.48 4-7.68 0-4-1.2-6.6-3.24-7.56-2.52-1.2-4.56-1.32-21-1.32-13.56 0-17 .24-19.92 1.44-3.6 1.32-4.92 4-4.92 9.48v2.16h-22.13v-6.6c0-6.72.13-7.8 1.33-11.16q3.24-9 16.56-10.44c7.2-.84 17.28-1.2 30.11-1.2 23.28 0 31.56.84 37.2 3.72 6.12 3.12 8.52 9 8.52 21.36 0 12.72-2.28 18.36-9 22.08-3.84 2.16-9 3.24-19.2 3.84l-30.24 2c-8.4.72-9 .84-10.44 1.68-1.91 1.36-2.84 3.4-2.84 6.4a28.26 28.26 0 0 0 .12 3h71.49z"/><path d="m202.21 6.24c6.24 5 8.28 13.44 8.28 34 0 21-1.68 29-7.2 34.2-5.76 5.4-14.16 6.84-40.8 6.84-34 0-39.48-.84-45.12-7.08-4.92-5.56-6.37-13.12-6.37-33.76s2.29-29.44 9.13-34.44c5.88-4.44 16.92-6 41.4-6 25.32 0 34.8 1.44 40.68 6.24zm-68.28 35.16c0 19.68 1.56 20.88 27.48 20.88 13.32 0 19.44-1 22.44-3.48s3.72-5.88 3.72-19.08c0-19.92-1.44-21.12-26.88-21.12-25.08 0-26.76 1.4-26.76 22.8z"/></g></svg>