<svg height="65.4" viewBox="0 0 137.4 65.4" width="137.4" xmlns="http://www.w3.org/2000/svg"><g fill="#fafafa"><path d="m60 65.4h-1.44q0-1.32-1.14-1.44a23.57 23.57 0 0 0 -2.42-.12h-50.56a10.62 10.62 0 0 0 -2.16.16q-.84.18-.84 1.26h-1.44v-4.26a18.61 18.61 0 0 1 3.18-11 33.81 33.81 0 0 1 8-8 66.18 66.18 0 0 1 10.32-6.12q5.5-2.64 10.3-5.22a43.83 43.83 0 0 0 8-5.34 8.35 8.35 0 0 0 3.2-6.48 7 7 0 0 0 -1.14-4.14 8.91 8.91 0 0 0 -2.94-2.64 12 12 0 0 0 -4-1.38 25.53 25.53 0 0 0 -4.2-.36 22.29 22.29 0 0 0 -5 .72 25 25 0 0 0 -5.76 2.16 19.2 19.2 0 0 0 -4.74 3.42 6.2 6.2 0 0 0 -2 4.5 5.5 5.5 0 0 0 .3 1.56 2.56 2.56 0 0 0 .76 1.32l-1.2.84-12.36-13.2 1.2-.84 1 .48a2.38 2.38 0 0 0 1.08.24q.72 0 2.64-1.8a37.48 37.48 0 0 1 5.28-4 41.29 41.29 0 0 1 8.4-4 35.75 35.75 0 0 1 12-1.8 37.2 37.2 0 0 1 8.94 1.08 23.74 23.74 0 0 1 7.74 3.5 18.05 18.05 0 0 1 5.52 6 17.7 17.7 0 0 1 2.1 8.94 18.42 18.42 0 0 1 -2.16 9.36 20.41 20.41 0 0 1 -5.7 6.3 37.22 37.22 0 0 1 -8 4.38q-4.44 1.8-9.06 3.54t-8.88 3.66a27.68 27.68 0 0 0 -7.5 4.92v1.2h39.68a6.27 6.27 0 0 0 2.46-.48q1.14-.48 1.14-2.88h1.4z"/><path d="m104.16 0a35 35 0 0 1 13 2.4 32.18 32.18 0 0 1 10.56 6.72 31.55 31.55 0 0 1 7.08 10.2 31.91 31.91 0 0 1 2.58 13 31.91 31.91 0 0 1 -2.58 13 30.68 30.68 0 0 1 -17.64 16.68 38.32 38.32 0 0 1 -26 0 30.68 30.68 0 0 1 -17.66-16.76 31.91 31.91 0 0 1 -2.58-13 31.91 31.91 0 0 1 2.58-13 31.55 31.55 0 0 1 7.08-10.2 32.18 32.18 0 0 1 10.56-6.64 35 35 0 0 1 13.02-2.4zm0 10.32a18.21 18.21 0 0 0 -7.8 1.68 18.58 18.58 0 0 0 -6.18 4.62 22.19 22.19 0 0 0 -4.08 7 24.69 24.69 0 0 0 -1.5 8.7 24.69 24.69 0 0 0 1.5 8.68 22.19 22.19 0 0 0 4.08 7 18.58 18.58 0 0 0 6.18 4.62 18.95 18.95 0 0 0 15.6 0 18.58 18.58 0 0 0 6.18-4.62 22.19 22.19 0 0 0 4.08-7 24.69 24.69 0 0 0 1.5-8.7 24.69 24.69 0 0 0 -1.5-8.7 22.19 22.19 0 0 0 -4.08-7 18.58 18.58 0 0 0 -6.14-4.6 18.21 18.21 0 0 0 -7.84-1.68z"/></g></svg>