<svg height="64.2" viewBox="0 0 136.92 64.2" width="136.92" xmlns="http://www.w3.org/2000/svg"><g fill="#fafafa"><path d="m33.24 0a35 35 0 0 1 13 2.4 32.18 32.18 0 0 1 10.58 6.72 31.55 31.55 0 0 1 7.08 10.2 31.91 31.91 0 0 1 2.58 13 31.91 31.91 0 0 1 -2.58 13 30.68 30.68 0 0 1 -17.64 16.6 36.67 36.67 0 0 1 -13 2.28 36.67 36.67 0 0 1 -13-2.28 30.68 30.68 0 0 1 -17.68-16.68 31.91 31.91 0 0 1 -2.58-12.96 31.91 31.91 0 0 1 2.58-13 31.55 31.55 0 0 1 7.08-10.16 32.18 32.18 0 0 1 10.56-6.72 35 35 0 0 1 13.02-2.4zm0 10.32a18.21 18.21 0 0 0 -7.8 1.68 18.58 18.58 0 0 0 -6.18 4.62 22.19 22.19 0 0 0 -4.08 7 24.69 24.69 0 0 0 -1.5 8.7 24.69 24.69 0 0 0 1.5 8.7 22.19 22.19 0 0 0 4.08 7 18.58 18.58 0 0 0 6.18 4.62 18.95 18.95 0 0 0 15.6 0 18.58 18.58 0 0 0 6.18-4.62 22.19 22.19 0 0 0 4.08-7 24.69 24.69 0 0 0 1.5-8.7 24.69 24.69 0 0 0 -1.5-8.7 22.19 22.19 0 0 0 -4.08-7 18.58 18.58 0 0 0 -6.22-4.62 18.21 18.21 0 0 0 -7.76-1.68z"/><path d="m122.88 30.24a22 22 0 0 1 10.12 4.76q3.9 3.42 3.9 10.26a14.51 14.51 0 0 1 -3.3 9.9 22.63 22.63 0 0 1 -8.1 5.88 33.7 33.7 0 0 1 -10.26 2.64q-5.46.54-9.9.54a70 70 0 0 1 -9.78-.72 31.46 31.46 0 0 1 -9.42-2.82 20.66 20.66 0 0 1 -7.14-5.6 13.46 13.46 0 0 1 -2.82-8.76 17.56 17.56 0 0 1 1-6.42 11.92 11.92 0 0 1 2.94-4.38 17.52 17.52 0 0 1 4.62-3.06 42.79 42.79 0 0 1 5.94-2.22v-.24a17.33 17.33 0 0 1 -8.34-4.14 11 11 0 0 1 -3.54-8.58q0-5.64 2.64-9a17.76 17.76 0 0 1 6.76-5.22 30.35 30.35 0 0 1 8.88-2.46 73.65 73.65 0 0 1 9.12-.6 75.68 75.68 0 0 1 9.12.6 34.06 34.06 0 0 1 9.18 2.4 19 19 0 0 1 7.14 5.16 13 13 0 0 1 2.88 8.76q0 5.76-3.24 8.76a20.06 20.06 0 0 1 -8.4 4.44zm-16.32 4.56q-17.16 0-17.16 10t17.16 10q17.16 0 17.16-10t-17.16-10zm.12-25.44q-7.92 0-11.28 1.8a6.27 6.27 0 0 0 -3.36 6 6.27 6.27 0 0 0 3.36 6q3.36 1.84 11.28 1.84t11.32-1.84a6.27 6.27 0 0 0 3.36-6 6.27 6.27 0 0 0 -3.36-6q-3.4-1.8-11.32-1.8z"/></g></svg>