<svg height="94.8" viewBox="0 0 167.76 94.8" width="167.76" xmlns="http://www.w3.org/2000/svg"><g fill="#fafafa"><path d="m9.48 88.08-6.72-.24-1.44-.12-.84-.48-.24-.72-.12-1.32.24-7.2v-1.92l-.36-7.32.12-1.92.36-3.6.72-3.6.36-1.92.6-2 .6-1.92.36-1 .88-1.92 1-1.56 2-2.16 1.28-1.16 2.16-1.68 1.44-1 2.4-1.56 1.56-.84 2.52-1.2 1.8-.6 3-1 2-.48 2-.36 1.92-.24 6.12-.36 1.08-.12 2.16-.12 3-.12 2.16-.48 1-.48 1.8-1.08.84-.84 1.08-1.56.72-2.52v-2.6l-.24-1-.6-1.92-.44-.84-1.2-1.44-1.56-.68-2.64-.72-1.68-.24-1.8-.12h-1.8l-1.68.12-1.68.36-2.52.84-1.56.88-.72.48-1.2 1.32-.6.72-.84 1.8-.6 1.68-1.08.72-1.8.48h-1.08l-2 .12-5-.24h-5l-2-.12-3.12-.36-1.56-.24-1.04-.52-.36-.6v-2l.24-1.8.24-1.08.36-1.92.24-.84.6-1.8 1.2-2.28 1-1.68 1.08-1.6 1.32-1.56 1.44-1.32 1.44-1.2 2.28-1.56 1.68-1 3.6-1.92 2-.84 1.92-.6 2.72-.56 1.92-.36 1.76-.32 1.68-.28 2.64-.12 1.92-.12h4l2.72-.12h1.92l1.8.12 1.8.36 2.52.6 1.8.6 3.84 1.2 1.8.6 1.8.72 2.52 1.2 1.68 1 1.56 1.24 1.56 1.6 1.32 1.56 1.2 1.56 1.56 2.16.84 1.68.84 1.8.6 1.8.6 1.68.36 1.8.36 2.88v1.8l-.12 2.68-.24 1.68-.56 2.72-.48 1.8-.72 2-.88 1.8-1.32 2.32-1.08 1.56-1.56 2-1.32 1.32-1.92 1.8-1.56 1-2.52 1.32-1.8.72-2 .6-1.92.6-2 .36-2 .4-2.76.24-1.92.24-2 .36-1.92.36-2.88.24-2 .12h-1l-2.16.12h-1l-2 .36-1 .36-1.8.84-.72.6-1.32 1.32-1 1.44-.72 1.68-.24 1-.36 1.56-.12 1 .12.6 1.2.24 1.68.12 4.56-.12h9.72l6.12.12h1.92l14-.24 1.92-.12 4-.36h2l1.56.36.72 1.08.24 1.68.12 1.8.12 1.92v4.92l.24 3-.12 1.92-.12 1.68-.24 1.2-.48.72-.72.36-3.84.6-1.68.12-2.64-.12-1.8-.12-8.76-.48h-6.64l-10.56.6h-17.4zm70.32-4.92v1.92l-.12 6.6-.24 1.56-.84.84-1.6.24-2.76.36-1.92.12-2.76-.12-10.68-.6h-6.68l-10.56.6h-17.4l-6.84-.12h-1.92l-3.12.24-1.8-.12-1.8-.24-1.68-.6-.84-.84-.24-1.32.84-1 4.68-.12h1.92l8.76.12h15.48l10.56-.6h6.76l10.68.6 7.44-.48 1.56-.12.84-.84.24-1.56.12-6.6v-1.88l-.12-4.92 1.2-.84 1.56.24.6.6.36 1v1.32zm-71.16-15.16 1.56-3.6-.36-.84-.72 2.76h-1l-.12-.44-.84-.12-.72 1.8.84.24.36-.24zm-.36-33.6-.6-.72v-1.4l1.08-1 6 .24h10.24l1.68-.48.6-.6 1.08-1.56.72-1.8.36-.6 1.32-1.32.84-.72 1.68-.84 1.52-.6 1.68-.36 2.64-.24h2.64l1.68.48.84.36 1.44 1.08.84 1.44.12.6-.6-.24-1.44-.36h-2.52l-1.92.12-1.92.36-1.8.6-1.8.84-1.32 1.2-.6.72-1.32 2.64-.6 1.76-.84.8-1.56.48-2.64.12-2 .12h-5l-8.28-.6-1.4-.12zm.36 38.2-.24-.12-.12.12v.24l.24.24.12-.08zm.6-2.6.36.36.24-.12v-.24l-.24-.12-.12-.12-.24.12zm1.08-2.88-.24.12.24.48.84.24.12-.24-.12-.36-.48-.12zm0-7.56.48-.12.48-.36-.48-.12-.12.12h-.24zm.84 11.44-.16-.32h-.2l-.12.12.12.36zm0-18.12.24.48.6.24.36-.12.12-.24-.24-.48zm2.28 11.92h.36l.48-.72-.36-.48v.72zm.12-3h.36l.12-.48.6-.48h.24l-.88-.48zm1.44-10.56.48.12v-.6l-.36.24-.12.12zm0 10.68.48.12.24-.24v-.12l-.12-.12zm2.76-6.6.84 1.32h.24l-.12-1.08zm.6-3.36.64 1.04.36-.36v-.36l.6-.36h.72v-.12l1.8.24.24-.12v-.24l-1.12-.68-1.68-.84-.6.12v.84l.36-.24h.12v.36l-.6.6-.72-.24zm4-6.48.72.36.36 1.08.24.12.24-.24-.28-.8 1-.24.84-1.92-.36-.72-.36.6v.6l-1 1zm3.64 9.72-1.2-.12-.12-.48-.36.24 1 .72zm.24-6.6-1-.36-.12.48.24.72h1.08v-.44l.6-.24.48 1.08 1 .12.24-.36-.12-.24-.6-.36.12-.36 1.44-.72v-.52l.72-.48-1.08-1.68.12 1.32-1.36 1.68zm48.16-29.52-.24-.84.84 1.08 1.2 1.68.72 1.8.24 1 .6 1.92.24 1 .36 1.8.24.84.24 1.92v2.88l-.12 2-.36 2.16-.6 2-.12 1.08-.48 1.8-.36.72-.6 1.68-.72 1.56-.84 1.56-.48.84-1.08 1.56-1.32 1.56-1.2 1.32-1.44 1.44-.72.6-1.68 1.08-2.28 1.2-1.68.6-2.52 1-1.92.48-2 .36-1.92.36-2.76.24-1.68.24-1.8.36-1.68.24-3.6.36-1.68.12h-2.68l-3.24.24-1.56.48-1.56.84-.6.48-1.68.48-3 .24-.6-.84 1.72-2.6 1.56-1.44 1.68-.72.72-.24 1.92-.48 2-.12h2.64l1.92-.12 4.92-.6 1.92-.28 1.92-.24 2.88-.24 3.84-.72 4.92-1.56 1.8-.84 1.56-.84 1.56-1 1.92-1.8 1.32-1.32 1.56-2 1.08-1.56 1.44-2.4.84-1.8 1.2-3.84.12-1.08.36-1.92.6-2.84.12-1.8-.12-2.76-.12-1.68-.36-1.76-.36-1.92-.72-2zm-46.92-4.92-.12-.16h-.24l-.24.24.24.24h.24l.12-.12zm1.2-.12.12-.36-.36-.12-.12.12.12.36zm.6 2.64-.36-.12-.12.12v.12l.12.12.24.12.12-.12zm.84-8.88-.12-.6-1 1.08.6.12zm1.08 3.2-.12-.24-.24-.12-.12-.12-.24.24.24.36h.36zm.24 1.08-.24.12v.36l.12.12v.12l.12-.12zm1.8-.72.24-.24-.36-.48-.72.36-.12.24.36.24zm-.84-1.64.48.24.24-.12.12-.24-.12-.12zm.6 5.16.24-1.2-.48.36-.24 1.32.36.12.24-.24zm0 29.28.36.24 1-.24.24-.6-.12-.24-.84.6-.36-.12zm3.12-31.08-.36-.48-.6-.12-.72.36-.44-.36h-.48l-.12.12v.12l.36.36h.72l.72.6.72-.12zm-1.44 31.92.36.24h.36l.36-.24v-.36l-.24-.24h-.36l-.36.24zm1.44-33.6-.48-.72-.24.72zm2.88-5.88-.48-.52-.6.84-1-.24v-.08l-.36.12-.6 1v.72l.84-1 1.92.72-.36-.72zm-1.44 8.4-.12-.12v-.24l-.24-.24h-.12l-.48.36.72.6v.24l.12-.12zm0 34.44.12.36.12-.12v-.48h-.24zm1.44-33.96-.36-.12-.24.24-.12.6.12.24h.36zm-.48 32.88.36.24.12-.12v-.48h-.24l-.24.12zm1.48-42.72-.4-.36-.6.24.6.24h.24zm-.24 7.2-.24-.48-.24.36v.48zm-.24 27.72.12.72.36.24.72-.6h.48l-.24-.36-.6-.72-.48.12zm.84-1.32.24.24.6-.12.36-.6h-1.2zm3.84-23.64-3-1.08-.6.24 2.64.6v1l-.36.12-.24.36.12.36h.6v.36h.12zm-2 1.2-.24-.24h-1.4l.36 1.08-.36.24 1.08.48.12-.36-.12-.36.36-.24zm-1.44-3.6.6.24 1-.48-.84-.48-.6.12zm.24 31.88 1 .24.6-.36-.24-.6h-.6zm1.08-38.4.24.6.24-.6v-.44l-.08-.16-.24.12zm1.92 5.2.72-1.56-.24-.36-1.56 2-.48.12v.6l1-.12.24.84-.12.36h-.12v.32l.24.12.84-.24v-.28l-.24-.24h-.12l.12-1.44h-.12zm-1.2 29 .36.36h.6l.12-.36-.24-.36.12-.24-.08-.2-.72.24zm1.2 3.76-.12-1-.24.36v.12h-.12v.24zm1.2-33.24h.24l.12-.24v-.08l-.12-.12h-.24l-.12.12v.24zm4.08 3.36h1.12l1.08 1.68-.12.72-.6.24-.36.48.24.36h.48l.24-.84h.48l.6-.36-.24-1.08-.48.12-.24-.36 1.08.24.36-.24.08-1.56-.48.12-.12.12h-.2l-.12-.32-.48-.12-.24.84-1.56-.72-.36.24-.72-.36-.48.72-1.08-.84.12.48.36.36.12.6-1.08 1.08h-.12l-.12-.12v-.16l-.36-.24h-.48l-.12.12v.12l.24.24h.36l.12.12h.12l.48.36v-.12l.36-.12.84.72h.36l.12-.48-.6-.6.6-.72v-.12zm-3.84 32.4.36.24.72-.36.12-.24-.36-.36-.6.24-.24.12zm.16-39.84.12.12v.24l.36.6.72-1.44-.36-.12zm.24-1.68.12.36h.36l-.32-.72zm.6 8.76-.48.12-.12.48.48.12.24-.12.12-.36zm0 26.88.24.48.72.36.72-.48-.84-.72-.36-.12-.36.12zm.56-30.84-.24.36.24.12.24-.24v-.24zm.24-1.56.72.48.36.48.48.12.2-.36-1.2-1.44zm1.2 33.6.36.48 1.44-.24.24.24v.12h.12v.12h.4l-.12-.6 1-1.92-.28-.6-.72-.24-.36.24.12 2.4h-.36l-.72-.72-.84.12zm0 1.8.36.72.36-.84zm.36-36.48.2.48.36.36.12-.36-.24-.48-.24-.12zm.48 10.2-.24-.48-.24.36v.2l.12.12zm.6-.84v-.6h.12v-.12l.24-.24-.12-.24-.48-.24-.6.24v.48l.36.36v.36zm-.36 24h-.24l-.12.36.36.12.12-.24zm1.8-30.36v.12l-1.44.6 1.56 1 .76-.44-1-.24.24-.72.24.12 1.32-.16.84-.72-.48-.6-.6-.12.12 1.08-2.16-.12zm-.48-.84 1.16.36.12-.48-.48-.24zm.72-1.2h-.24l-.12.12.24.36.56-1.08-.24-.24v-.12h-.16v-.12l-.36-.24zm.48 37.44-.48-.24-.24.12v.36zm1.56-7-.6-.72-1.2.24.36.36.24-.36zm-1.8 1.56.24.36h.48v-.24l-.36-.24zm1 2.16v-.36l-.12-.12h-.12l-.6 1 1.08.36.6-1-.24-.24zm1.56-25.84-.6-.24-.36.24-.24.24-.48.12-.48 1.2h-.12l.72 1.08 1.2-.48-.24.84.72-.6.12-.84-.36-.24-.12-.36.84-.6.12-.6 1.32-.48 1.44 1v.12h.24l.72-.48-.12-1-1.32-1-1.32.6-.48-.52h-.24l-.24.24.12.24-.24.36v.36zm-1-5-.24-.24-.32.24-.24.6zm.6 32.4-.84-.24-.12.04v.12l.6.36zm.12-30.48-.36-.72-.48.36.24 1h.36zm6.64 25.08.6-.48-.12-.52.12-2.4-.6-.12v-.12h-.12v-.76l.48-.6-.08-.48.48-.12.24.24.72-.12.12-.12h.24l.2-.4.6.12.24.48.36.12.12-.12h.12l-.12-.48-1.2-.48v-.84l1.44.24.24.24.24-.48-1-1.08v-.24l.72-.12.36-.72 1-.48-.12-1.64h-.24v-.12l-.76-.6-.36.24-.12.36.72.72-.36.6h-.08l-.36-.48h-1.32l-.84-1.44-.12 1.32h.24l-.12.6-.6.36v.12l-.36.12.36.48h1.44l.24.6.48.36-1.56 1.32-2.4.24.84.48-1.2.24-.12.6-.48.36v.48l.48.24.36-.12.24.4v.48l-1 .72.24.24v.56l-1.2-.6-.12.12.6 2.64-.84.84-.48-.12-1.04-2.28-1.56.48-.84-.84.36.72h-.12l.48 1v-.36h.24l.24.24.48-.12.72 1-.12.6h.24l.24-.24h.12l.12.12h.24l.6.36h-.12l-.12.12v.24l.12.12.36-.12.16-.32-.12-.12 1.12-1.08.6.12.24-.36h.48l.12-.12zm-6.36 4 .36.12.36-.24-.36-.24h-.48zm4.64-23-.24.6-1.68-.24-.08-.16-1 .24-1.4 3.72.36 1 .36.24h.12l.12-.12-.12-.12 1.56-1.72.36.6-.48.6v.12h-.12v.12l-.48.36h.12l.12.12.12-.12.48.24v.52l.36.12.24-.12-.12-.24.4-.76v.36l1 1.2-1 1 .12.48-.12.12v.24l.12-.12 2.64-.36.24.08h.36l.12-.12v-.12l-.12-.12-.36.12-.48-.12-.48.24-.6-.36-.24-.72 1.56-.24 1 .6h.24v-1l-3.6-1.32-.12-.24 1.32-.48v-.12l1.6-1.4.12-.36-.32-.36-.48-.12-.48 1-.48.24-.12-.12h-.12l-.12-.24.12-.48-.32-.52 1.2-1-.2-1.64.12-1.92-.6-.24-.72.36-.36.6v.12l-1.56-.24-.24.12v.36h.24l.12.12v.24l-.36.24v.24l-.12.12zm-4.4 16.52v.12l.36.24.24-.24-.2-.24zm1.08 10.48-.48-.12-.36.36-.12.48.36.36zm-.48-37.72.48.72v.36l.36.48-.6 2.16.24.72h.12l1.2 1 .48-.24.24-.48-1-1.08v-1l1-.36.36.24.48-.24-.84-1.56-.48-.12-.48-1-1.08-.24zm1.68 34.08-.48-.6-.72-1.56-.36-.12v-.08l-.12.12.12.24-.12.84h.72l.08.8zm-.72-1.92h.24v-.36l-.12-.08-.36.12zm.72-30.6h-.6l.24-.48.12-.36h.36l.84.84-.12.6-.12-.12h-.24zm-.12 24.24h-.24l.6.12zm.84 6.72-.36-.48-.48-.32-.12.36.24.36v.12l.36.24h.24zm-.12-12.72-.48.72.6.84.12-1.56.24-.24-.36-.12-.24.24zm.52-4.68.12-.12v.24l-.84.12.36-.24zm-.72 10.92 1 .24-.6-.84zm1.28-22.92-.36-.24h-.36l-.24.36.36.6h.48l.24-.24zm-.12 11.16.48-.36-.12.36v.36l-.48.12-.12-.12h.12zm.84 4.92v-.12h.12l-.12-.12h-.28l-.12.12h-.08l.12.12zm0 14.16.24-.24.36-.6v-.24h-.48l-.6.6v.24zm-.36-29.76.84 1.12.12-.12-.24-.88zm.08-1.88.24.12h.24l.12-.12v-.28l-.48-.12-.12.12zm1.08 20.16.24-.48 1.08.12v-.24l-.24-.12-.12-.72-1-.48h-.64l-.24 1.56.48 1.08h.24v-.12l.36-.36zm0 14.16-.24-.12-.24.12h-.12l-.36.24v.24l.36.12.48-.12.12-.12zm.4-7.32h.24l-.12.12-.12.36h-.48v-.12l-.12-.12.12-.12h.24v-.12l.12-.12zm-.48-22.48.36.72h-.12l.84 1.2.84.24.36.48-.72.6-.12.36.12.24-.12.48h.56l.48.84-.6.48-.44-.16.12 1.68-1.2 1.08v.24l1-.36.12.12h.12l.12.12.48.12.36-.72-.24-.24h-.12l-.2-.04h.12l.36-.36h.12v.12l.36.36.72-.12.12-.12 1 2.16h-.72l-.6-.36.12 1.2 1.08-.24v-.12l2.4.6.24-.72-.12-.12 1-1.2-.72.24-.48-.52-.12-.6-.48-.48v2l-.72.24-.12-.12v-1.8l-.24-.36v-.24l-.36-.6v-.84l.6-.84-1.24-.16-.24-.24v-.16h-.08v-.12l.48-.6v-.36h-.48l-.16-.52.72-.84.72.72.12-.36-.48-1.08h-.84l-.36-.24h-.48v-.2l-.24-.24 1-.36.12-1.2-1.32-1.44-.24.36.48.6-.12 1.44-1.92-.24zm.36 13.08h.24v-.36l-.36.24zm.48 8.4h.24l-.12.12h-.12l-.12.24-.36-.48.12-.12h.12zm-.24-24.84.12.24h.28l.2-.4-.48-.12zm0 1.2h.4v-.12l-.12-.12v-.12l-.12-.12-.16.12zm.48 28.44.6-.24.12-.36-.12-.2-.36-.12-.24.12-.12.48zm1.44-16.44.48-.6h-1.32l-.6-.48v.84zm0 17.76-.24.12-.12.24h-.48l-.24.36.36.36.72-.6zm-.6-10.2h-.24v-.6l.12.12zm0-22.32.24.6 1.08 1h.24l-.36-1-.48-.36h-.12v-.12h-.12v-.12l-.12-.12zm1.56 23.28-.6.36v.12l-.48.36h-.24l-.16.28.48.6h.24zm-.6 4.32-.48.24v.24l.72.36.12-.48-.24-.12zm.48 4.32-.36-.24-.12.12v.36h.24zm.36-6.36.36.24.6.36.72-.6-.12-.84-.48-.12-1.56.6-.12.24.24.24zm-.24-9.16h.12l.12-.12v-.08l-.12-.12h-.24l-.12.12zm2.16 14-.84.24-.12.48-.6.48.92-.2zm-.48 4h-.24l-.24.12.12.36.36-.24zm2.16-15.12-.32-.44-.6.36-.88 1.2.6.24 1-.24zm-1.32 2.32-.24 1.08v.36l-.24.36v.6h.48l1.32-1.68h.36l-1.8-1v.12zm.12 5.16.12-.24-.12-.24-.12-.36-.36.24v.36zm.12-19.68.6-.36.16-.32v-.12l-.12-.12-.48.36zm1.76 20.4-.24-.72h-.6l-.36 1-.6.48 1.08.12zm.6-2.64-.36-.24-.84.24-.12-.24-.24-.12-.36.24v.48l1.2.48.72-.6zm-1.52-15.44.12.36h.6l-.12-.36zm1.32 7.8-.24-.24-1.08.44.12.6.36.36v.12l.72.12.48-.36-.12-1zm.12-4.44.24.24h.36l.12-.12-.12-.24-.12-.16h-.24z"/><path d="m104.16 85.68-2.64-1.2-1.8-1.08-1.72-1.08-1.56-1.08-2.24-1.68-1.32-1.2-1.8-2-1.08-1.36-1.68-2.28-.84-1.56-1.32-2.28-.6-1.68-.84-2.76-.36-1.68-.6-2.64-.24-1.8-.36-2-.24-1.92-.12-3.12-.12-1.8.12-4.56v-4.92l.2-3.88.36-1.92.48-3.12.48-1.92.48-2.64.48-1.8.72-2.52.6-1.8.72-1.8.84-1.8 1.44-2.64 1.2-1.68 1.92-2.16 1.6-1.32 1.68-1.32 1.56-1.08 2.44-1.32 1.56-.84 4.2-1.8 3.24-1.2 1.8-.6 1.8-.48 1.92-.24 3.08-.12h1.92l6.12.24 1.92.12 2.88.48 1.92.24 4.64 1.08 2 .6 1.92.72 1.8.72 1.68.84 2.76 1.56 1.56 1.08 1.4 1.32 1.32 1.56 1.92 2.4 1.08 1.68 1.68 2.64.88 1.72.72 1.8.72 1.68.84 2.76.6 1.8.48 2 .36 1.92.28 2.64.24 1.8.16 2.6.12 1.92-.12 4.08v7.08l-.12 2.64-.12 1.8-.16 2.68-.36 1.8-.48 2.76-1.16 3.84-.84 1.8-1.16 2.4-1.08 1.68-1.2 1.8-1.24 1.72-1.32 1.68-1.44 1.44-1.92 2-1.44 1.08-2.36 1.2-1.56.84-2.44 1.08-1.68.72-2.52 1-1.68.6-2.64.6-1.8.36-2 .24-2 .12-2.88.24-2-.2-3.12-.24-1.92-.24-6.48-1.08-1.8-.36-2.48-.68zm-12.36-46.32 1.08-3.48.12-.72-.48-.84-.48 3h-1.2l-.12-.48h-1.08l.12.36-.72 2 1.08.12.36-.24zm.12-15.48 1.2.6.24-.12-.12-.24-.6-.36zm1 20.4-.12-.12-.28-.16-.12.12v.24l.36.24.12-.12zm0-15v.24l1-.24zm.84 12.12-.36-.24-.52-.16.36.48zm.72-2.64.48-.24v-.12l-.28-.4-1.08-.12-.24.12.24.48zm-.24-17 .12.12.48-.24-.12-.84-.48.6zm1.32 20.4-.12-.24-.24-.12-.12.12h-.28v.24l.48.12zm2.88-11-1-.36-.36.6-.24.36v.24h.48l.12-.48.36-.36zm-1 35.52-.24.12-.12.12-.12.6.36.48zm.48-32-.48-.48v.72l-.36.24v.24h.36zm1.56-2.68-.12-.12-.48.12-.24.24.48.12.36-.24zm4.08-12.84-3.24-.48-.48-.48-.72.36.36.84.36-.6h.16l-.12.36.12.36-.36.72-.72-.12-.12.12 1.2 1.36.24-.36-.24-.48 1.32-.6v-.24l.84-.12 1.2-.12v-.12h.24zm-2.16 6.36-.48-.6-.36-.36-1.2.24 1.8 1zm2.16 45.72-.6-.36-.12-.6h-.36l-.6.48v.12l-.12.12-.12.48.48.36.72-.12.72.36zm.48-57.6.36-.12.12-.24-.24-1.2 1.44-.12.36-.36.12-.6-.36-1.68-.12 1.08-.48.6-2.88 1 1 .24.36 1.32zm63.72 28.68v12.88l-.12 1.8-.12 1.92-.12 2-.72 4.08-.48 2-.36 1.68-.6 1.92-1.08 2.88-1.68 3.36-1 1.68-.6.72-1.08 1.56-1.08 1.32-1.2 1.32-1.32 1.2-2.64 2.16-1.56 1.04-.72.6-1.8 1-.84.6-1.8.84-1.8.6-1.68.72-1.8.6-1.8.48-1.68.36-1.8.24-1.92.36-6 .36h-3.6l-1.92-.12-2.64-.24-2-.36-1-.12-1.92-.48-1.68-.36-2.52-.72-1.8-.6-1.92-1-1.68-1.08-.84-.6-1.44-1-.6-.6.24-.12 1.92 1 2 .72 1 .36 2.16.6 1.08.36 4.08.72 1.92.24 5.76.36h2l4-.24 2.64-.24 1.8-.24 1.92-.36 1.92-.48 1.8-.6 1.92-.6 3.6-1.56 2.4-1.32 1.44-1 3-2.16 1.44-1.32.84-.72 1.32-1.4 1.2-1.44 1.8-2.52 1-1.8 1.68-3.12.72-1.68.6-1.68.48-1.8 1-4.56.36-1.92.36-6.48.12-1.92v-11.16l-.12-1.92-.12-2-.12-1-.24-2-.72-3.6-.36-1.92-.24-1.08-.6-1.92-.36-.84-.84-2-.12-.72 1 1.32 2 2.64 1.04 1.8.6 1 .72 1.8.48 1.8.36 1.8.24 1.08.24 1.8.24 2.64.12 1.68zm-61.44-27.2.12 1.44h1.2l.12.12v-.6l.6-.12.6 1.2 1.08.36.24-.36-.12-.36-.48-.12-.24-.24 1.32-1.44-.12-.48.72-.72-.6-1-1-.84v.84l.36.6-.36 1.92-.48.24-1-.36-1 .36zm0 7.44 1.2.84.48-.24-1.32-.6v-.12zm3.48 47.16-1-.12-1.2 1-.84-.24-.24.12-.12.48.12.36.24.12 1.56-1.08.72.12.6-.36zm1.68-44.16-1.32 1.8-1.08 1.8-.72 2.16-.48 2-.24 2-.12 2.76v1.92l-.12 3.6v1.92l-.12 3.84v1.92l.24 3 .24 1.92.48 2 .6 1.68.24.84.84 1.56.36.72 1.2 1.56 1.32 1.44 1.56 1 .72.48 1.92.52 2.16.36 2 .12h2.16l3-.24 1.92-.48 1.8-.72 1.72-1.04.6-.6 1.32-1.56 1.08-1.92.84-1.8 1.2-4.12.36-1.92.12-2.88.36-5.76v-1.88l.12-3.6-.12-1.8-.24-2.88-.48-1.92-.6-2-.72-1.8-1.32-2.64-1-1.56-1.44-1.44-1.56-1.2-1.68-.84-.84-.24-1.76-.64-1.8-.12-.84-.12h-1.92l-2 .36-.84.12-1.8.6-1.8 1-2.16 1.44zm-3.84 42.84v-.4l-.24.12-.12.36zm1.32 12-.84-.48-.24.36.12.72.72-.12zm1.04-43.68.4-1.72.36-1.8.6-1.68.64-1.52 1.44-2.16 1.92-1.92 1.64-1.08 1.08-.36 2.16-.84 1.92-.24.72-.12 1.8.12h1.08l1.8.36 1.56.6 1.68.84.84.72-.12.36-1.92-.28h-1.92l-.84.12-1.68.12-1.92.6-1 .48-2 1-1.68 1.32-1.56 1.56-1.08 1.68-.48.72-.72 1.56-.6 2-.24 1.08-.36 1.92-.12 1.68-.12 1.92-.12 2.24v12.08l.12 1.8.24 1.92.36 2v.84l-.72-1-.6-1-1-1.56-.24-.84-.6-1.56-.12-.72-.36-1.8-.24-1.8-.12-2-.12-1.92v-9.16l.12-1.8zm5.92 48.28-.36-.6-.6-.12-.12.12h-.12l-.36-.24-.36.48.24.36.48-.12.12.12h.24l.24.48h.48zm-1.56-74.52.36.36.24-.24.72-.12.24-.72-.12-.12h-.36l-.48.6-.48-.12zm2.76 63.72-.36-1.08h-.36l-1.68 1.32v.36l.28.2.36-.24.72.12.36.36.48-.36zm-1-62.52.24.24.48.12.24-.24-.24-.84h-.36l-.24.24zm2.76 67.44-.36-.24-.6.48.12.72.48.36.12-.24.24-.12zm.24-63.36.24.48v-.72h-.12zm1-1.2.24.36.24-.24v-.48l-.24-.12-.24.12zm.6 57.72h-.24l-.24.24h.12l.12.12zm2.4 12-.48-1.44-.24-.12-1.32-.12.84 2.4h.72l.12.12zm-1.12-78.28.36.24.48-.24 1-.24-.72-1.44h-.48zm2.64 4.2-.84-.12-.84.84 1.08.48.48-.12.24-.24zm-1.44-6.6.24.36 1.44-.36.12-.24-.12-.12-.48-.12-.2-.12-.84.12zm2.76 7 .36.48.12-1.2zm.24-4.32.24.6.36.12.24-1.2-.04-.28-.48.12zm2.28 79-.12-.48-.36-.2-.6-.12-.36.84.72-.36.36.36zm-1.2-71.4.12.6.12.12h.24l.12-.12.48-.12.12-.24-.36-.48-.48.12zm3.12 66.72-.36-.48h-.6l-.36.12.48.84.6.12zm-1-73.08.12.48.6.6.88-.6-1-1.2-.36.12zm1.8 3.36-.24.48.12.84.12.12.6-.84-.12-.48zm.24-1.68.6 1.2 1.32-.24.84.72.24-.24-.24-.6-.48-.24h-.24l-.48-1.08h-1zm2.4 5-.36.12-.12.12v.24l.36.12.36-.12zm1.16 4.4h.6l.6-.48-.24-.48h-.48zm.12-9.12.72-.24.72-1 .12-.6-.36-.36-.36.24zm1.56 4.08-.24.12.12.72.48.12v-.72zm.12-1.32h.48l.36-.36v-.24l-.48.12zm1.2 9.84-.36.12v.72l1.08.6.36-.36v-.6zm2.64 4.56h-1.44l-.72 1.08 1.32-.12zm-1.92-6.84.48.6.24-.84-.24-.6-.48.24zm9.12 3.2-2.64-1-.48-.72-.84.12-.6.72.12.36-2.88.72v.24l.12.12-.12.84-1.8.72v.12l.12.12 2.88.12.48 1.2-1.32 2.32.48.48 3.6-1.2.12.6-1.92 2.16.48.48.12.84 1.56-.12-.12.48.36.6 1.08-.6-.12-1.08 1.08-.12.72.48-.32 1.12.84-.36.24-1 1.08.24.24 1-.24.12-.12.24-.72.36-.24.72-1 .12-.24.72.6.12.72-.36 1.84 1.56-.72.6.36.72.84-1.32-.24-.6-.6-.24-.12-.36.12-.36h-1.44v-.6l.72-.36.12-.72.48 1 1.44.84.48-.12.12-.48-1-.84 1-.24-.12-.6-.6-.12.36-.6 1.2.48-.12.36.6 1.08-.6 1.44.24.84.6-1.2 1.56-.12.84-1.2-.24-.6.36-.48.12.24h.24l.36-.36-1.44-1.92v-.24l-.72.48v.12h-.2v.12l-.48.12-1.32-.84h-1.4l-.12-.12v-.12l-.6.24-1.8-3.24-.84-.12-.24.6.36.72-.6.24-.6-.12v-.72l-.72-.24-1 .36-1.44-1.32.24-.6-.24-.36.36-.6-.12-.72-.12-.12.48-.48h.6l.72.6.12-.48.84-.24 2 1.92-.24-1.92.24-.48 2.88-1 .48-1.08.48-.24.12-1.08h-.72zm-8.84-8 .6.12.6-.24-.48-.36-.6.12zm1 8.4.12-.24-.12-.16h-.36l-.24.36zm.36-5.64-.48.36.12.24.24.24.36-.12.12-.36-.12-.24zm.48 4.8 2-.6.12-.6-1.8-.24-.6 1.2zm0-3.24.16.68 1.32.12.36-.48-.68-.44zm.24-5.52.12.12.24-.12.12-.12h.24l.12-.36-.24-.48h-.36l-.12.48-.12.12zm.6 18-.24 1.44 1.36-.24v-.12l-.72-1.32 1.32-1.8-2 .6-.12.84zm.36-23 .48.72.12.12-.2 1.36 1 .84.84-.24.84-1.2-2-1.08v-.8l-.48-.72-.36.12zm0 7.2.24.6h.36l.24-.24v-.6l-.6-.48zm.24 2 .84.48.48 1.44h1.4l-.6-.6h-.12l-.48-.36.12-.36 1.2-.48zm.72-3.48-.12-.48h-.24l-.24.12.48.48zm1 24.24 4.56-1.2.48.12.48-.24v-.36l-4.08-.84-.48-.48-1.08.24.12 1.2.72-.72v-.12h.12l-.12 1-1 .84-.72.12-.2-.32-.24.12-.12.48 1.08 1.2.48-.48zm.12-4.68.6-.72-1.56.24zm1.08-17.16.48-.24.36-.6-.24-1.08-1.2-.48v2.16zm-.6 23.76.36.84.6-.12.44-.4-.24-.84-.84-.48zm.6 2.88.8-.56-.48-.24-.48.12-.04.12h-.12l-.12.12v.12zm1.08 7.32-.12-.6-.48-.12-.48.12-.24.48.72 1zm-.72-38.52-.48.6.12.36 2 1.08-.12-1zm.72 23.64.36-1.56-.6-.84-1 .36v1zm1-19.08-.12.6-.24.72-1.56-.12 3.36.84-.48-1.44zm-.28 8.64v1.08l1.08-.24.6-.12-.24-.6-3.12-1.2.36 1.2zm-.36-4.2.84-.12.48-.6-.12-.72h-.6l-.48.48h-.36l-.24.36zm.24 18.12.6-.12.12-.24-.24-.24-.6.12-.12.24zm1.92 5 1.68.24.24-1.44-.12-4.28-1-.72.84 4-.6.48-.84.12v-.28l-.36-.24-1.32.24.24.24-.6 2h1.44zm.24-4h-.48v.36l.44.16.48-.36zm.24 6.12h.36l.24-.36-.36-.24-.48.36zm1.32 5.88-.24-.12-.12.24v.24l-.6.24-.12.36.36.36.6-.24zm.72-23.48v.24l.84-1 1.44-.12.24.12.24-.36v-.48l-.12-.12h-1.44l.24-1.2-.24-.36-1.8-.36-.6.72h.72l.6.48-.24 2.28zm-1-4.68.12.24.36-.12.24-.48-.24-.48-.6.24zm.48 23.88.48-.24.24-.48-.24-.48h-1v1zm-.36-29.52 1-.12.6-.72-.36-.84-.84.24zm1.36 31.32-.36-.24-.24.12-.12.6.24.12.48-.36zm.72-10 .6-.6-1.44.12v1l-.12.6.36.48.6-.12zm.72-17-.84.36-.36.72.36.48h.72l.72.6.24-.84-.48-.6v-.6zm1.32 14.88.12-.36-1.56-.48-1.12 1.12zm-.48 7.2-.72-.6.24 1-.48.36v.36h.48zm.84-4.92-.12-.12h-.24l-.36.36-.12.48.6-.24zm2.52 10.44-1.2-.72-.84.24v.72zm-1.8-13.56.6-.24.36-.6-.72.12-.36.36v.32zm1 6.72-.6-.48v.24l-.12.12-.12.48 1.92-.36.24-2.16-.12.48zm.84 8.64h-.48l-.36.24.72.24z"/></g></svg>