<svg height="95.16" viewBox="0 0 142.44 95.16" width="142.44" xmlns="http://www.w3.org/2000/svg"><g fill="#fafafa"><path d="m6.48 88.2-4-.24-1.28-.36-.48-.36-.24-.72-.12-1.2v-2.76l.24-3.56-.12-2-.48-3.56v-1.8l.12-.84.48-1.32 1.32-.24 4.8.36h1.92l2.76-.12 1.44-.24.72-.36.36-.84v-8.52l.08-1.92.48-7.2v-1.8l-.08-2.6-.24-1.8-.12-3-.12-1.92.24-3.12.24-4.16v-1.28l-.4-.72-.72-.48-1.08-.12-4.28 1.44-1.8.48-1.8.24h-1.56l-1.08-.48-.48-.84-.36-1.24-.12-1v-1.84l.24-3v-2l-.24-3.76v-2l.28-1.6.48-.72.52-.48 1.2-.6 1.08-.36 1.8-.72 3.52-1.08 1.68-.6 6.36-2.4 1.8-.6 6.36-2 1.8-.72 2.76-1.32 2-.84 1.84-.52 1.44-.12 1.2.36.6.84.36 1.44.2 1.44-.12 1.44-.24 4.68-.12 1.92v18.72l-.36 7.32v1.92l.48 7.44-.12 1.92-.48 7.32-.04 1.92.48 7.44.12 1.2.36.72.72.48 1.44.12 8.64.12.72.24.48 1.08.12.84.12 1.8-.28 3.56v2l.24 4v2l-.36 1.56-.84.72-.84.6-.84.36h-3.48l-5.16-.24h-1.92l-16.2-.24h-1.92zm-1.56-66.84-.48-.36h-.72l-.12.36.36.36zm.08-4.08-.72.36-.28-.12-.24.12.12.24h1zm52 69.36.36 5.4-.12 1.44-.6.84-1 .6-1.52.08-7.2-.36h-1.92l-16.56.48h-1.92l-7.2-.24h-1.92l-7.32.24-1.56-.24-1-.72-.48-.84-.04-1.4 1-1.08h40.48l1.68-.12 1.2-.6.84-.72.6-1.2.12-1.8v-8.88l1.08-1.08 1.68.12 1 .6.6.72.12 1.44-.4 5.4zm-48.12-48.72-.48-.92-.12-1.44v-1.12l1-1.32 1.8-.6.84.6-.24 4.56-.6 1h-1.08zm1.8-19.92-.84-1.08-.12-.48h-.6l-.24.84.72.84zm2.88 1.44-.36-.36-.48-.08-.12.6.24.36h.48zm1.08-4.68.12-.36-.36-.24-.36.36-.72-.12-.48.24.16.36.6.24zm-1.08 10.24h-.36l-.24.36zm2.28 2.52h.16l.12.12.24-.12v-.24l-.12-.12v-.16zm.48-5.76.12.48.72.6 1.2-1.8-.48-.24-.12.36-.72.24-.48-.12zm1.2 44.52-.24-.12-.48.48-.24 1 .36.24zm.12-5h.48l.48-.48-.6-.2-.48.24v.24zm.84-25.32-.24-.24-.12.24-.12.04.24.24.24-.12zm-.24 30.36h.36l.24-.48.24-.36.84-.36.84 1.08 1.44.36.48-1.92-.6-.84v-.8l1.32-.36v-.24l.36-.48-.36-.36v-1.08h.84l.36.36 1.2-1.92 1.08-.36.12-.56-.36.24h-.36l-1-1-.48.6.24.6-.12.12h-.24l-.12.12h-.12l-.2-.68-1-.12-.12-2.64 1.2.84.12-1.32-1.04-.16v.12l-1-.36-.4-.72-.72-.24-.36.36-.12.6v-.12l-1.12.76.72.12.48 2.16.36-1.92h.12l.12-.48.84.12-.72 4-.84.24.84.72v.6h-.12l-.36.24h-.36l-.24.36.36.36-.12.48-.36.24h-.72l-.12-1.2-.36.24-.2 1.6 1.2 1.32-.12.36-1-.12-.84.48.12.48-.24.48zm.36-11-.24.12v.24l.12.24h.52l-.12-.48zm0 15.12.12.12.28-.36v-.36l-.12-.12h-.28l-.12.12zm.24-2.88-.24.12v.36l.24.12.24-.12v-.48zm1.44 5.64.24-.36 1.56-.36.6-.24.48-2.52-.36-.24-.6.24-.36.6v1l-.84.48-.84-.48v-.6l-.48-.24-.36.36v.6h-.12l-.24.6.12.24-.48.6.12.84.72.24.48-.6zm-1-14.4-.6-.12v.12l.12.12.48.12zm.12-16.08.36.48.6-.24.48-1.8-1.08.24zm.6 28.44.36 1.32h-.48l-.48-.6.12-.48zm-.48-56.4.12.24h.24l.36-.24-.24-.48-.24-.12zm.24 52.08-.12.24-.12.12v.12l.12.12.24-.12.12-.24zm1.12-22.44-.12-.12h-.6l-.48.36v.36l.48.12.36-.24h.24l.12-.12.36.24.36-.36-.24-.36zm.24 6.36-.72-.12-.4.36.12.72.48.36h.48l.6-.36-.12-.48zm-.6-12.76.6-.6-1 .12.36 1.68.48-.6zm.12 31 .36-1.44-.36.12-.36.6zm-.36.72.36 1 .6-.36.12-.6-.24-.36h-.48zm2.72 7.8.6-1.08-.6-.72v1.2h-.12l-.08.08-.48-.12-.6-1.68-1.08-.84-.24 1.44 1-.36 1.8 2.88zm-1.8-.84-.12-.12-.24.12-.12.6.48.6zm-.08-41.68.36.84.36-1.44h-.48zm1.32 10.08-.84 1.56-.48.12 1.68.48.36-1.68-.24-.6zm-.72-8-.12-.48-.12-.12-.24.6zm-.12 5.28-.12.12-.12.24.48.48.24-.36-.08-.36zm.24 8 .6-.36.84-1.32-.48-.36-1.08.36-.24 1.08zm-.12-18.36.12.72.24-.12.12-.6-.2-.08zm.72 11.4.48.36.12.48 1.68-1.44v-.2l-.24-.12-.36.24-1.2-.24-.36.36zm0 31v.36l.36.36h.6zm5.88-41.52-.24 1-.36.36-1 .24-.24 2-.48.24.12.6-.6.72 1.08 4.44.72-.12.24.84-.24.72.36.48-2.28 1.68-1-.6-.12.12.24.6 1.2.36v1.08l-.84.12-1-.6-.24.48 1.2 1.36-.12.12v.12l-.72.12-.36.84-1 .6.12 1.56.72.84.52-.2.12-.36-.6-.72.36-.72h.12l.36.48 1.32.24.48.72-.16 1.48.72-1.68-.36-.24.84-1.44.24-.12-.36-.6h-1.28l-.24-.72-.56-.32 1.68-1.68.6.48 1.72-1.36-1-.72 1.2-1.2-.12-.72.24-.6-.12-.6h-.4l-.36.36-.36-.36-.08-.48.6-1.68-.6-.84.12-.36.84-.12.48-.48-.12-.48-2.16-1.8.12-1.44.36-.24h1l1.36 1.2.72-1.8 1.44-.6-.48-.36-.48.36v-1.92l-.36-.24-.6.36v.32h.48l-.12.72-.72.84v.6l-1.2-.36v-.48zm-5.16 3.72.12.36.36.24.36-.48-.12-.48-.36-.24zm1.56 32.64v-1.92l.24-.24-.24-.24-.84-.24-.72.6v2l1.2.84.12.48-.12.24.12.24h.24l.28-.2h.48l.24-.24 1 .12.12.72.72.24.36.48 1.68-.84v-1.28h-.2v-.12l-.12.12-.72-.36.84-.48-.84-.24-.72.48v.48l-.36.36-1-.36-.48.24-.84-.84zm7.28-8.16-.08-.08-.12.12v.12l.12.12-2.28.36-.12-.36.12-.48h.6l1.08-1.2-.12-1-.48-.48v-1.08l-.24-.36h-.24v.36l-.6.6-.48-2 1.2-.84v-.48l.36-.36-1-.24-.36-.48-1.36-.16-.48-.36-.24.12.12.48h.36l.36.24h.6l.28 1.68-1.4-.32-1-1.2-.32 1.2 3.24 3-.24.48-.6.24-.68-.16v-.12h-.12l-.84.72h-1.12l-.6.6.12.72.36.36 1-.48.48.12.12.48-1 1.2-1.08-.16-.84 1.8v-.12l-.36.84-.6.36-.24.48.24.6 1.56.12 1 1.8.24-.24-.12-.48.12-.12.48.12.36-.24-1.36-3.32.6-.36 2 2.88 3-3h.12v-.12l.48-.36zm-7.88 12.84.84-.6-.12-.48-.72.12-.48.72zm.36-34.32h-.72v.48l.48.12.36-.36zm-.24-5.76.12.84v.24l.24.24.24-.24.16-.92-.12-.24zm1 20v-.36l-.24-.2-.24.24v.24zm-.48 2.28 1.32.48.36.72.36-.84-1.32-.84zm.12-35.76.12.24 1.4-1.6h.24l.36-.6h-.12l-.12-.12h-.36zm1.08 54.84.72-.72v-.84l-.48-.24-1.32.84.6 1zm1.2-45.12-.36.84-.84-.36-.72.72 2.52-.12.36-.24zm-1.6 14.32.36-.6.24-.12v-.24l-.72-.6-.24.24v2zm.6-11.28.36.12.84-.36-.84-.6-.48.48zm.12 6.12v-.36l-.12-.36.36-.48.24.24v.36l-.12.12v.24zm2.52 40.56.36-1.2-.16-.36h-.36l-.48 1-1.16-.52-.84 1.08v1l1.08-1.08 1.92.84zm-2.16-39.8.6.24v.12l-.36.36-.48-.12zm.48-11h-.36l-.24.24v.48zm0-8.64h-.24l-.12.12v.36l.12-.12v.12zm.36 5.88-.72 1 .36.84.24.24.24-.12zm-.48 19.76h.12v1l-.12-.56-.12-.6zm1.56 30.6-1.08-.12-.24.24v.6l.36.48.48-.12.24-.48.36-.12zm.24-28.08-.24.6h-.48l-.36-.24h-.24l-.12.36.24.12.12.72 1.08.72h.6l.36-.6-.36-2.28-.4-.28-.36.6zm0 11.28v.36l-.36.6-.6-.12.6-1zm.24 16 .36-.36-.24-.48-.6-.12-.48.12zm-.72-24-.12.36v.36h.36v-.36zm.48-26.6 1.32 2.28.6.12.6-.48-.12-.6zm.12-8.88.24.84.6 1h.24l.36-.48v-.88l-.36-.36-.48.24zm1 60.8-.36-.36-.36.48.6.12zm-.36-49.68-.24.36.12.24h.12l.36-.24.12-.36zm.56 32.56-.84-.36v-.48l.12-.16zm-.6-19 .84.84.24-1.44 1.08-.72.24-.24v-.24l-.48-.12zm.36 11.28-.36.48v.24l.12.12.36-.24.12-.36zm.36-7.44.36-.24-.84-.12-.12.12.12.24zm0-20.28.48.36.12-.12-.24-.48zm1.32 4.56-1.08 1 1-.12.36-1.44-.48.12zm.12 16 .12-.12v-.24l-.24-.36h-.56zm-.24 5.76.48-.84-.6-1-.24 3 .48-.84zm0-15h.24l.24-.36v-.12l-.24-.12-.24.12-.12.24zm.56 10.32-.12-.36-.48-.12.12.48.48.12zm2.52-23.64.36-.12v-.6l-.36-.48zm5.68 44.28-.12-1.08v-56.16l.84-1.2 1.44-.4 1 .24.44.76.12 1.44.48 7.44v1.92l-.4 7.32v11.28l-.24 7.32v1.92l.12 7.44v1.92l-.24 5.16v3.84l-.84 1h-1.64z"/><path d="m78.84 85.68-2.64-1.2-1.8-1.08-1.68-1.08-1.56-1.08-2.28-1.68-1.32-1.2-1.8-2-1.08-1.36-1.68-2.28-.84-1.56-1.32-2.28-.6-1.68-.84-2.76-.4-1.68-.6-2.64-.24-1.8-.36-2-.24-1.92-.12-3.12-.12-1.8.12-4.56v-4.92l.24-3.84.36-1.92.48-3.12.48-1.96.48-2.64.48-1.8.72-2.52.6-1.8.72-1.8.84-1.8 1.44-2.64 1.2-1.68 1.92-2.16 1.6-1.32 1.68-1.32 1.56-1.08 2.4-1.32 1.56-.84 4.2-1.8 3.24-1.2 1.8-.6 1.8-.48 1.92-.24 3.12-.12h1.92l6.12.24 1.92.12 2.88.48 1.92.24 4.68 1.08 2 .6 1.92.72 1.8.72 1.68.84 2.76 1.56 1.56 1.08 1.36 1.32 1.32 1.56 1.88 2.44 1.08 1.68 1.68 2.64.84 1.68.72 1.8.72 1.68.84 2.76.6 1.8.48 2 .36 1.92.36 2.64.24 1.8.12 2.64.16 1.96-.12 4v7.08l-.08 2.68-.12 1.8-.12 2.64-.36 1.8-.48 2.76-1.2 3.84-.84 1.8-1.2 2.4-1.08 1.68-1.2 1.8-1.24 1.72-1.32 1.68-1.44 1.44-1.92 2-1.48 1.08-2.4 1.2-1.56.84-2.4 1.08-1.64.68-2.52 1-1.68.6-2.64.6-1.8.36-2 .24-2 .12-2.88.24-2-.16-3.12-.24-1.92-.24-6.44-1.04-1.8-.36-2.52-.72zm-12.36-46.32 1.08-3.48.12-.72-.48-.84-.48 3h-1.2l-.12-.48h-1.08l.12.36-.72 2 1.08.12.36-.24zm.12-15.48 1.2.6.24-.12-.12-.24-.6-.36zm1 20.4-.12-.12-.28-.16-.12.12v.24l.36.24.12-.12zm0-15v.24l1-.24zm.8 12.12-.4-.24-.44-.16.36.48zm.72-2.64.48-.24v-.12l-.24-.4-1.08-.12-.28.12.24.48zm-.24-17 .12.12.48-.24-.12-.84-.48.6zm1.32 20.4-.12-.24-.24-.12-.12.12h-.24v.24l.48.12zm2.88-11-1-.36-.36.6-.24.36v.24h.52l.12-.48.36-.36zm-1 35.52-.24.12-.12.12-.12.6.36.48zm.48-32-.48-.48v.72l-.36.24v.24h.36zm1.6-2.68-.16-.08-.48.12-.24.24.48.12.36-.24zm4.08-12.8-3.24-.48-.48-.48-.72.36.36.84.36-.6h.12l-.12.36.12.36-.36.72-.72-.12-.12.12 1.2 1.32.24-.36-.24-.48 1.32-.6v-.24l.84-.12 1.2-.12v-.12h.24zm-2.16 6.36-.48-.56-.36-.36-1.2.24 1.8 1zm2.16 45.72-.6-.36-.12-.6h-.36l-.6.48v.12l-.12.12-.12.48.48.36.72-.12.72.36zm.48-57.6.36-.12.12-.24-.2-1.2 1.4-.12.36-.36.12-.6-.36-1.68-.12 1.08-.48.6-2.92.96 1 .24.36 1.32zm63.72 28.68v12.84l-.12 1.8-.12 1.92-.12 2-.72 4.08-.48 2-.36 1.68-.6 1.92-1.08 2.88-1.68 3.36-1 1.68-.6.72-1.08 1.56-1.08 1.32-1.2 1.32-1.32 1.2-2.64 2.16-1.56 1.08-.72.6-1.8 1-.84.6-1.8.84-1.8.6-1.68.72-1.8.6-1.8.48-1.68.36-1.8.24-1.92.36-6 .36h-3.6l-1.92-.12-2.64-.24-2-.36-1-.12-1.88-.56-1.68-.36-2.52-.72-1.8-.6-1.92-1-1.68-1.04-.84-.6-1.44-1-.6-.6.24-.12 1.92 1 2 .72 1 .36 2.16.6 1.08.36 4.08.76 1.92.24 5.76.36h2l4-.24 2.64-.24 1.8-.24 1.92-.36 1.96-.52 1.8-.6 1.92-.6 3.6-1.56 2.4-1.32 1.44-1 3-2.16 1.44-1.32.84-.72 1.32-1.44 1.2-1.44 1.8-2.52 1-1.8 1.68-3.12.72-1.68.6-1.68.48-1.8 1-4.56.36-1.92.36-6.48.04-1.88v-11.16l-.12-1.92-.12-2-.12-1-.24-2-.72-3.6-.36-1.92-.32-1.12-.6-1.92-.36-.84-.84-2-.12-.72 1 1.32 2 2.64 1.12 1.84.6 1 .72 1.8.48 1.8.36 1.8.24 1.08.24 1.8.24 2.64.12 1.68zm-61.44-27.24.12 1.44h1.2l.12.12v-.6l.56-.08.6 1.2 1.08.36.24-.36-.12-.36-.48-.12-.24-.24 1.36-1.48-.12-.48.68-.72-.6-1-1-.84v.84l.36.6-.36 1.92-.4.28-1-.36-1 .36zm0 7.44 1.2.84.48-.24-1.32-.6v-.12zm3.48 47.16-1-.12-1.2 1-.84-.24-.24.12-.12.48.12.36.24.12 1.56-1.12.72.12.6-.36zm1.68-44.16-1.32 1.8-1.08 1.8-.76 2.16-.48 2-.24 2-.12 2.76v1.92l-.12 3.6v1.92l-.04 3.8v1.92l.24 3 .24 1.92.48 2 .6 1.68.24.84.84 1.56.36.76 1.2 1.56 1.28 1.44 1.52 1 .72.48 1.92.6 2.16.36 2 .12h2.2l3-.24 2-.52 1.8-.72 1.64-1.08.6-.6 1.32-1.56 1.08-1.92.84-1.8 1.2-4.08.36-1.92.12-2.88.36-5.76v-1.92l.12-3.6-.12-1.8-.24-2.88-.48-1.92-.6-2-.72-1.8-1.28-2.68-1-1.56-1.44-1.44-1.56-1.2-1.68-.84-.84-.24-1.8-.6-1.8-.12-.88-.12h-1.88l-2 .36-.84.12-1.8.6-1.8 1-2.16 1.44zm-3.84 42.84v-.4l-.24.12-.12.36zm1.32 12-.84-.48-.24.36.12.72.72-.12zm1.08-43.68.36-1.72.36-1.8.6-1.68.6-1.56 1.44-2.16 1.92-1.88 1.68-1.08 1.08-.36 2.16-.84 1.92-.24.72-.12 1.8.12h1.08l1.8.36 1.56.6 1.68.84.84.72-.12.36-1.92-.28h-1.92l-.84.12-1.68.12-1.92.6-1 .48-2 1-1.68 1.32-1.56 1.56-1.08 1.68-.48.72-.72 1.56-.6 2-.24 1.08-.36 1.96-.12 1.68-.08 1.92-.16 2.2v12.08l.12 1.8.24 1.92.36 2v.84l-.72-1-.6-1-1-1.56-.24-.72-.6-1.56-.12-.72-.28-1.8-.24-1.8-.12-2-.12-1.92v-9.28l.12-1.8zm5.88 48.28-.36-.6-.6-.12-.12.12h-.12l-.4-.28-.36.48.24.36.48-.12.12.12h.24l.24.48h.48zm-1.6-74.56.36.36.24-.24.72-.12.24-.72-.12-.12h-.36l-.48.6-.48-.12zm2.8 63.72-.36-1.08h-.36l-1.68 1.32v.36l.24.24.36-.24.72.12.36.36.48-.36zm-1-62.52.24.24.48.12.24-.24-.24-.84h-.32l-.24.24zm2.8 67.44-.36-.24-.6.48.12.72.48.36.12-.24.24-.16zm.24-63.36.24.48v-.72h-.08zm1-1.2.24.36.24-.24v-.48l-.32-.16-.24.12zm.6 57.72h-.24l-.24.24h.04l.12.12zm2.4 12-.48-1.44-.24-.12-1.32-.12.8 2.44h.72l.12.12zm-1.12-78.24.36.24.48-.24 1-.24-.76-1.44h-.48zm2.64 4.2-.84-.12-.84.84 1.08.48.48-.12.24-.24zm-1.44-6.6.24.36 1.44-.36.12-.24-.12-.12-.48-.12-.24-.12-.88.12zm2.76 7 .32.4.12-1.2zm.24-4.32.24.6.36.12.24-1.2-.12-.24-.48.12zm2.28 79-.12-.48-.36-.12-.6-.12-.36.84.72-.36.36.36zm-1.2-71.48.12.6.12.12h.24l.12-.12.48-.12.12-.24-.36-.48-.48.12zm3.12 66.72-.36-.48h-.6l-.36.12.48.84.6.12zm-1-73.08.12.48.6.6.84-.48-1-1.2-.28.16zm1.88 3.36-.24.48.12.84.12.12.6-.84-.12-.48zm.24-1.68.6 1.2 1.32-.24.84.72.24-.24-.24-.56-.48-.24h-.24l-.48-1.08h-1zm2.4 5-.36.12-.12.12v.24l.36.12.36-.12zm1.08 4.44h.6l.6-.48-.24-.48h-.48zm.12-9.12.72-.24.72-1 .12-.6-.4-.28-.36.24zm1.56 4.08-.24.12.12.72.48.12v-.68zm.12-1.32h.48l.36-.36v-.24l-.48.12zm1.2 9.84-.36.12v.72l1.08.6.36-.36v-.6zm2.64 4.56h-1.44l-.72 1.08 1.32-.12zm-1.96-6.8.48.6.24-.84-.24-.6-.48.24zm9.12 3.2-2.64-1-.48-.72-.84.12-.6.72.12.36-2.88.72v.24l.12.12-.12.84-1.8.72v.12l.12.12 2.88.12.48 1.2-1.32 2.32.48.48 3.6-1.2.12.6-1.92 2.16.48.48.12.84 1.56-.12-.12.48.36.6 1.08-.6-.12-1.08 1.08-.12.72.48-.36 1.08.84-.36.24-1 1.08.24.24 1-.24.12-.12.24-.72.36-.24.72-1 .12-.24.72.6.12.72-.36 1.8 1.56-.72.6.36.72.84-1.32-.24-.6-.6-.24-.12-.36.12-.36h-1.44v-.6l.72-.36.12-.72.48 1 1.44.84.48-.12.12-.48-1-.84 1-.24-.12-.6-.6-.12.36-.6 1.2.48-.12.36.6 1.08-.6 1.44.24.84.6-1.2 1.56-.12.84-1.2-.24-.6.36-.48.12.24h.24l.36-.36-1.44-1.92v-.24l-.72.48v.12h-.12v.12l-.48.12-1.32-.84h-1.44l-.12-.12v-.12l-.6.24-1.72-3.24-.84-.12-.24.6.36.72-.6.24-.6-.12v-.72l-.72-.24-1 .36-1.44-1.32.24-.6-.24-.36.36-.6-.12-.72-.12-.12.48-.48h.6l.72.6.12-.48.84-.24 2 1.92-.24-1.92.24-.48 2.88-1 .48-1.08.48-.24.12-1.08h-.72zm-8.88-8 .6.12.6-.24-.48-.36-.6.12zm1.08 8.4.12-.24-.12-.12h-.36l-.24.36zm.36-5.64-.48.36.12.24.24.24.36-.12.12-.36-.12-.24zm.48 4.8 2-.6.12-.6-1.8-.24-.6 1.2zm0-3.24.12.72 1.32.12.36-.48-.72-.48zm.24-5.52.12.12.24-.12.12-.12h.24l.12-.36-.24-.48h-.4l-.12.48-.12.12zm.6 18-.24 1.44 1.32-.24v-.12l-.72-1.32 1.32-1.8-2 .6-.12.84zm.36-23 .48.72.12.12-.24 1.36 1 .84.84-.24.84-1.2-2-1.08v-.8l-.48-.72-.36.12zm0 7.2.24.6h.36l.24-.24v-.6l-.6-.48zm.24 2 .84.48.48 1.44h1.32l-.6-.6h-.12l-.48-.36.12-.36 1.2-.48zm.72-3.48-.12-.52h-.24l-.24.12.48.48zm1 24.24 4.56-1.2.48.12.48-.24v-.36l-4.08-.84-.48-.48-1.08.24.12 1.2.72-.72v-.12h.12l-.12 1-1 .84-.72.12-.24-.24-.24.12-.12.48 1.08 1.2.48-.48zm.12-4.68.6-.72-1.56.24zm1.08-17.16.48-.24.36-.6-.28-1.08-1.2-.48v2.16zm-.6 23.76.36.84.6-.12.48-.36-.24-.84-.84-.48zm.6 2.88.84-.6-.48-.24-.48.12-.12.12h-.12l-.12.12v.12zm1.08 7.32-.12-.6-.48-.12-.48.12-.24.48.72 1zm-.72-38.52-.48.6.12.36 2 1.08-.12-1zm.72 23.64.36-1.56-.6-.84-1 .36v1zm1-19.08-.12.6-.24.72-1.64-.12 3.36.84-.48-1.44zm-.24 8.64v1.08l1.08-.24.6-.12-.24-.6-3.2-1.2.36 1.2zm-.36-4.2.84-.12.48-.6-.12-.72h-.6l-.48.48h-.36l-.24.36zm.24 18.12.6-.12.12-.24-.24-.24-.6.12-.12.24zm1.92 5 1.68.24.24-1.44-.2-4.28-1-.72.84 4-.6.48-.84.12v-.28l-.36-.24-1.32.24.24.24-.6 2h1.44zm.24-4h-.48v.36l.48.12.48-.36zm.24 6.12h.36l.24-.36-.36-.24-.48.36zm1.32 5.88-.24-.12-.12.24v.24l-.6.24-.12.36.36.36.6-.24zm.64-23.48v.24l.84-1 1.44-.12.24.12.24-.36v-.48l-.12-.12h-1.44l.24-1.2-.24-.36-1.8-.36-.6.72h.72l.6.48-.24 2.28zm-1-4.68.12.24.36-.12.24-.48-.24-.48-.6.24zm.48 23.88.52-.2.24-.48-.24-.52h-1v1zm-.36-29.52 1-.12.6-.72-.36-.84-.84.24zm1.36 31.32-.36-.24-.24.12-.12.6.24.12.48-.36zm.72-10 .6-.6-1.44.12v1l-.12.6.36.48.6-.12zm.72-17-.84.36-.36.72.36.48h.72l.72.6.24-.84-.48-.6v-.6zm1.32 14.88.12-.36-1.56-.48-1.08 1.08zm-.48 7.2-.72-.6.24 1-.48.36v.36h.48zm.84-4.92-.12-.12h-.24l-.36.36-.12.48.6-.24zm2.52 10.44-1.2-.72-.84.24v.72zm-1.8-13.56.6-.24.36-.6-.72.12-.36.36v.32zm1 6.72-.6-.48v.24l-.12.12-.12.48 1.92-.36.24-2.16-.12.48zm.84 8.64h-.48l-.36.24.72.24z"/></g></svg>