<svg height="86.13" viewBox="0 0 77.64 86.13" width="77.64" xmlns="http://www.w3.org/2000/svg"><g fill="#fafafa"><path d="m34.57 72.36q0 7-2.4 10.37t-7.44 3.4c-3.32 0-5.8-1.13-7.42-3.4s-2.43-5.73-2.43-10.37v-54.36h-1.76q-6.43 0-9.78-2.3a7.63 7.63 0 0 1 -3.34-6.7 7.47 7.47 0 0 1 3.43-6.77q3.42-2.23 10.4-2.23h9.72q5.93 0 8.45 3.16t2.55 10.61z"/><path d="m77.64 72.36q0 7-2.41 10.37t-7.44 3.4q-5 0-7.41-3.4t-2.38-10.37v-54.36h-1.81q-6.45 0-9.78-2.29a7.63 7.63 0 0 1 -3.34-6.71 7.48 7.48 0 0 1 3.42-6.73q3.44-2.27 10.4-2.27h9.73q5.92 0 8.47 3.16t2.55 10.61z"/></g></svg>