<svg height="90.23" viewBox="0 0 136.82 90.23" width="136.82" xmlns="http://www.w3.org/2000/svg"><g fill="#fafafa"><path d="m46.11 69.73q7 0 10.37 2.22a7.51 7.51 0 0 1 3.4 6.74 7.57 7.57 0 0 1 -3.4 6.8q-3.39 2.22-10.37 2.22h-34.45q-5.93 0-8.79-2.22c-1.87-1.49-2.87-3.75-2.87-6.8q0-4.09 11.78-16.93 2.4-2.58 3.69-4 12.95-14.29 17.28-20.82t4.34-10.69a8.35 8.35 0 0 0 -2.09-5.86 6.79 6.79 0 0 0 -5.24-2.28 7.53 7.53 0 0 0 -5.31 2.25 17 17 0 0 0 -3.95 6.53q-2.11 5.92-4.13 7.89a7.34 7.34 0 0 1 -5.31 2 9.22 9.22 0 0 1 -6.93-2.78 9.89 9.89 0 0 1 -2.67-7.2 22.82 22.82 0 0 1 1.65-8 28.27 28.27 0 0 1 4.33-7.8 29.83 29.83 0 0 1 10.2-8.18 28.77 28.77 0 0 1 12.71-2.82q12.14 0 19.75 7.12a23.83 23.83 0 0 1 7.61 18.19q0 8.32-5.77 17.46t-23.76 27z"/><path d="m65.62 45.12q0-20.8 9.64-33t25.93-12.12q16.29 0 26 12.16t9.67 33q0 20.81-9.67 33t-26 12.15q-16.29 0-25.93-12.15t-9.64-33.04zm35.69-27.25q-7.16 0-11.28 7.24t-4.13 19.89q0 12.78 4.13 20t11.28 7.24q7.14 0 11.25-7.24t4.1-20q0-12.66-4.13-19.89t-11.22-7.24z"/></g></svg>