<svg height="299.3" viewBox="0 0 402.86 299.3" width="402.86" xmlns="http://www.w3.org/2000/svg"><g fill="none" stroke="#fafafa" stroke-miterlimit="10" stroke-width="6"><path d="m13.18 181.35 120-172.24h66.82l-31.6 178h25.21l-8.61 47.7h-25.2l-9.55 54.62h-60.74l9.55-54.62h-95.47zm94.53 5.73 16.62-92.81h-.77l-63.21 92.81z"/><path d="m228.61 84c10.22-57.28 44.91-81 99.52-81 68.75 0 79.84 33.23 67.18 97.39l-18.16 103.11c-11.18 62.63-36.48 92.8-101.79 92.8-53.47 0-80.26-23.68-70.36-79.05zm105.79 0c1-4.2 8.38-33.22-14.53-33.22-20.62 0-24.61 17.18-27.48 33.22l-22.62 128.7c-3.24 16.81-6.39 35.9 15 35.9 21.74-.76 25.06-26 27-35.9z"/></g></svg>