<svg height="299.3" viewBox="0 0 330.53 299.3" width="330.53" xmlns="http://www.w3.org/2000/svg"><g fill="none" stroke="#fafafa" stroke-miterlimit="10" stroke-width="6"><path d="m62 96.18h-58.43l7.63-43.91c31 .38 70.71-9.17 83.66-43.16h43.14l-49.78 280.32h-60.72z"/><path d="m156.28 84c10.22-57.32 44.91-81 99.52-81 68.75 0 79.84 33.23 67.18 97.38l-18.16 103.12c-11.18 62.63-36.48 92.8-101.79 92.8-53.46 0-80.26-23.68-70.35-79.05zm105.79 0c1-4.2 8.39-33.22-14.53-33.22-20.62 0-24.6 17.18-27.48 33.22l-22.62 128.7c-3.23 16.81-6.39 35.9 15 35.9 21.74-.76 25.06-26 27-35.9z"/></g></svg>