<svg height="900" viewBox="0 0 1211.62 900" width="1211.62" xmlns="http://www.w3.org/2000/svg"><g fill="#fafafa"><path d="m319.93 534.71-3.46 19.29h-119l13.16-19.32h-20.87l-24.9 36.55h166l6.54-36.55zm46.92-260-37.46 55h20.85l8.68-12.71-2.28 12.74h17.51l9.85-55zm149.88 279.29 3.43-19.32h-17.5l-6.49 36.55h75.83l-22.9 126.48h-75.91l-28.74 164.37h-165.27l28.74-164.37h-287.31l26.71-148.93 9.8-14.07h-21l-4 5.77-1.12 1.52-31 172.94h287.41l-28.74 164.37h200.26l28.74-164.37h75.82l29.14-160.94zm-120.84-535.61-216.89 311.32h21l204.89-294.08h186.37l-52.21 294.08h17.51l55.27-311.32zm-76 516.32-3.42 19.29h-119l13.16-19.32h-20.87l-24.9 36.55h166l6.54-36.55zm46.92-260-37.46 55h20.85l8.72-12.71-2.28 12.74h17.51l9.85-55zm-46.92 260-3.42 19.29h-119l13.16-19.32h-20.87l-24.9 36.55h166l6.54-36.55zm46.92-260-37.46 55h20.85l8.72-12.71-2.28 12.74h17.51l9.85-55z"/><path d="m947.58 534.71-18.17 103.37c-.35 1.81-.72 3.79-1.12 5.91-6.08 32.53-17.4 93.07-71.85 95.1-16.48 0-27.79-4-34.58-12.25-14.93-18.09-7.43-57.08-2-85.55l18.73-106.58h-17.5l-18.09 103.38c-6.47 33.6-14.49 75.4 5.6 99.72 10.14 12.29 26.3 18.51 48 18.51h.3c29.75-1.05 52.66-15.86 68.09-44 12.24-22.35 17.06-48.11 20.24-65.15.4-2.09.76-4 1.11-5.84l18.74-106.6zm59.47-371.89c-10-12.7-25.08-19.14-44.81-19.14-30.69 0-53.8 12.1-68.7 35.95-12.61 20.21-18 46.23-22.5 71.18l-13.87 78.9h17.5l13.33-75.89c4.17-23.27 9.16-47.45 20.16-65.06 11.85-19 29-27.84 54.07-27.84 14.38 0 24.61 4.11 31.28 12.57 11.12 14.1 12.63 41.11 4.25 76l-.25 1-13.91 79.16h17.5l13.3-75.66.12-.5c9.79-40.7 7.2-72.07-7.47-90.67zm132.46 371.89-13.37 75.85c-17.51 98.11-46 163.46-89.59 205.66-23.31 22.56-51.08 38.86-84.87 49.83-34.65 11.25-75 16.71-123.4 16.71-41.75 0-77.72-5-106.91-14.74-29.39-9.85-52.7-24.88-69.26-44.68-15.32-18.34-25.43-41.34-30.06-68.47-4.83-28.34-3.83-62 3-99.91l21.3-120.25h-17.55l-20.8 117.22c-7.14 39.92-8.15 75.53-3 105.83s16.52 56 33.83 76.65c18.64 22.27 44.55 39.08 77 50 31 10.38 68.77 15.64 112.39 15.64 50.22 0 92.32-5.74 128.72-17.55s66.29-29.41 91.54-53.84c46.34-44.84 76.39-113.17 94.58-215l13.94-78.95zm71.49-372.33c-2.79-42.28-14.14-75-34.72-100-17.53-21.32-41.29-36.71-72.65-47s-69.42-15.38-116.52-15.38c-177.11 0-277.91 82-308.03 250.78l-14 78.93h17.52l13.44-75.91c7.42-41.57 19.46-78 35.77-108.23 15.84-29.36 36.27-53.92 60.72-73 23.9-18.57 52.53-32.68 85.09-41.82 31.92-9 68.76-13.51 109.49-13.51 45.24 0 81.57 4.72 111.08 14.44 28.16 9.28 49.33 22.89 64.72 41.62 34.95 42.51 40.49 112.45 17.94 226.76v.08l-5.21 29.57h17.5l4.65-26.4c11.31-57.43 15.62-103.52 13.21-140.93zm-263.42 372.33-18.17 103.37c-.35 1.81-.72 3.79-1.12 5.91-6.08 32.53-17.4 93.07-71.85 95.1-16.48 0-27.79-4-34.58-12.25-14.93-18.09-7.43-57.08-2-85.55l18.73-106.58h-17.5l-18.09 103.38c-6.47 33.6-14.49 75.4 5.6 99.72 10.14 12.29 26.3 18.51 48 18.51h.3c29.75-1.05 52.66-15.86 68.09-44 12.24-22.35 17.06-48.11 20.24-65.15.4-2.09.76-4 1.11-5.84l18.74-106.6zm59.47-371.89c-10-12.7-25.08-19.14-44.81-19.14-30.69 0-53.8 12.1-68.7 35.95-12.61 20.21-18 46.23-22.5 71.18l-13.87 78.9h17.5l13.33-75.89c4.17-23.27 9.16-47.45 20.16-65.06 11.85-19 29-27.84 54.07-27.84 14.38 0 24.61 4.11 31.28 12.57 11.12 14.1 12.63 41.11 4.25 76l-.25 1-13.91 79.16h17.5l13.3-75.66.12-.5c9.79-40.7 7.2-72.07-7.47-90.67zm-59.47 371.89-18.17 103.37c-.35 1.81-.72 3.79-1.12 5.91-6.08 32.53-17.4 93.07-71.85 95.1-16.48 0-27.79-4-34.58-12.25-14.93-18.09-7.43-57.08-2-85.55l18.73-106.58h-17.5l-18.09 103.38c-6.47 33.6-14.49 75.4 5.6 99.72 10.14 12.29 26.3 18.51 48 18.51h.3c29.75-1.05 52.66-15.86 68.09-44 12.24-22.35 17.06-48.11 20.24-65.15.4-2.09.76-4 1.11-5.84l18.74-106.6zm59.47-371.89c-10-12.7-25.08-19.14-44.81-19.14-30.69 0-53.8 12.1-68.7 35.95-12.61 20.21-18 46.23-22.5 71.18l-13.87 78.9h17.5l13.33-75.89c4.17-23.27 9.16-47.45 20.16-65.06 11.85-19 29-27.84 54.07-27.84 14.38 0 24.61 4.11 31.28 12.57 11.12 14.1 12.63 41.11 4.25 76l-.25 1-13.91 79.16h17.5l13.3-75.66.12-.5c9.79-40.7 7.2-72.07-7.47-90.67z"/><path d="m5.81 515.44h1200v10h-1200z"/><path d="m5.81 341.45h1200v10h-1200z"/></g></svg>