<svg height="241.24" viewBox="0 0 290.87 241.24" width="290.87" xmlns="http://www.w3.org/2000/svg" xmlns:xlink="http://www.w3.org/1999/xlink"><radialGradient id="a" cx="28.5" cy="28.65" gradientUnits="userSpaceOnUse" r="28.5"><stop offset=".96" stop-color="#fff"/><stop offset=".98" stop-color="#e3e3e5"/><stop offset="1" stop-color="#cfced1"/></radialGradient><radialGradient id="b" cx="28.5" cy="28.65" r="28.65" xlink:href="#a"/><radialGradient id="c" cx="27.06" cy="17.05" gradientUnits="userSpaceOnUse" r="39.66"><stop offset="0" stop-color="#ecebec"/><stop offset=".46" stop-color="#eae9ea"/><stop offset=".63" stop-color="#e3e2e3"/><stop offset=".7" stop-color="#dddcdd"/><stop offset=".86" stop-color="#cfced1"/></radialGradient><radialGradient id="d" cx="28.74" cy="8.81" gradientUnits="userSpaceOnUse" r="48.47"><stop offset="0" stop-color="#fff"/><stop offset=".52" stop-color="#fdfdfd"/><stop offset=".71" stop-color="#f7f6f7"/><stop offset=".84" stop-color="#ebebeb"/><stop offset=".94" stop-color="#dddcdd"/></radialGradient><radialGradient id="e" cx="30.91" cy="34.28" fx="15.66042" fy="27.922244" gradientUnits="userSpaceOnUse" r="28.62"><stop offset=".02" stop-color="#ecebec"/><stop offset=".24" stop-color="#e6e5e6"/><stop offset=".53" stop-color="#d5d4d7"/><stop offset=".61" stop-color="#cfced1"/><stop offset=".65" stop-color="#cac8cb"/><stop offset=".7" stop-color="#bab8bc"/><stop offset=".77" stop-color="#a09da2"/><stop offset=".83" stop-color="#7d787d"/><stop offset=".9" stop-color="#4f484f"/><stop offset=".97" stop-color="#170f17"/><stop offset=".99" stop-color="#0b020a"/></radialGradient><linearGradient id="f" gradientUnits="userSpaceOnUse" x1="45.56" x2="47.92" y1="5.53" y2="5.53"><stop offset=".02" stop-color="#dddcdd"/><stop offset=".21" stop-color="#d8d7d9"/><stop offset=".41" stop-color="#cbcacc"/><stop offset=".63" stop-color="#b5b4b6"/><stop offset=".85" stop-color="#979599"/><stop offset="1" stop-color="#7d7b80"/></linearGradient><radialGradient id="g" cx="28.5" cy="28.65" gradientUnits="userSpaceOnUse" r="21.65"><stop offset=".92" stop-color="#a9a8ac"/><stop offset=".94" stop-color="#bdbcbf"/><stop offset=".96" stop-color="#d7d6d8"/><stop offset=".98" stop-color="#e7e6e7"/><stop offset="1" stop-color="#ecebec"/></radialGradient><clipPath id="h"><path d="m48.18 33.46a20.26 20.26 0 0 1 -34 9.51 20.06 20.06 0 0 1 -5.36-9.51l-1.65-.56-.17-.1v.12a21.85 21.85 0 0 0 37 11.18 21.68 21.68 0 0 0 6-11.18v-.12l-.13.1z"/></clipPath><radialGradient id="i" cx="28.4" cy="26.42" fy="2.396866" gradientTransform="matrix(.99999328 .00366518 -.00337197 .91999382 .09 2.04)" gradientUnits="userSpaceOnUse" r="25.55"><stop offset=".83" stop-color="#fff"/><stop offset=".83" stop-color="#ebebeb"/><stop offset=".83" stop-color="#c6c5c6"/><stop offset=".84" stop-color="#a4a3a5"/><stop offset=".84" stop-color="#88878a"/><stop offset=".85" stop-color="#727073"/><stop offset=".85" stop-color="#605f62"/><stop offset=".86" stop-color="#545256"/><stop offset=".86" stop-color="#4d4b4f"/><stop offset=".88" stop-color="#4b494d"/><stop offset=".89" stop-color="#514f53" stop-opacity=".96"/><stop offset=".9" stop-color="#666468" stop-opacity=".85"/><stop offset=".91" stop-color="#8a888b" stop-opacity=".65"/><stop offset=".91" stop-color="#bbbabc" stop-opacity=".38"/><stop offset=".92" stop-color="#fbfbfb" stop-opacity=".02"/><stop offset=".92" stop-color="#fff" stop-opacity="0"/><stop offset=".93" stop-color="#fff" stop-opacity=".15"/><stop offset=".96" stop-color="#fff" stop-opacity=".6"/><stop offset=".99" stop-color="#fff" stop-opacity=".89"/><stop offset="1" stop-color="#fff"/></radialGradient><linearGradient id="j" gradientUnits="userSpaceOnUse" x1="34.3" x2="23.18" y1="33.77" y2="15.98"><stop offset="0" stop-color="#cfced1"/><stop offset=".31" stop-color="#cccbce"/><stop offset=".54" stop-color="#c3c2c5"/><stop offset=".74" stop-color="#b3b2b5"/><stop offset=".93" stop-color="#9d9ba0"/><stop offset="1" stop-color="#929095"/></linearGradient><linearGradient id="k" gradientUnits="userSpaceOnUse" x1="34.26" x2="23.59" y1="42.2" y2="24.8"><stop offset="0" stop-color="#b5b4b8"/><stop offset=".34" stop-color="#b2b1b5"/><stop offset=".6" stop-color="#a9a8ac"/><stop offset=".82" stop-color="#99989c"/><stop offset="1" stop-color="#878589"/></linearGradient><linearGradient id="l" gradientUnits="userSpaceOnUse" x1="47.11" x2="46.29" y1="5.81" y2="5.13"><stop offset=".02" stop-color="#fff"/><stop offset=".17" stop-color="#fafafa"/><stop offset=".35" stop-color="#ebebeb"/><stop offset=".55" stop-color="#d2d2d3"/><stop offset=".77" stop-color="#afafb1"/><stop offset=".99" stop-color="#838286"/><stop offset="1" stop-color="#818084"/></linearGradient><linearGradient id="m" gradientUnits="userSpaceOnUse" x1="51.64" x2="51.65" y1="11.65" y2="9.13"><stop offset=".03" stop-color="#cfced1"/><stop offset=".21" stop-color="#cac9cc"/><stop offset=".43" stop-color="#bbbabd"/><stop offset=".67" stop-color="#a2a1a5"/><stop offset=".92" stop-color="#807e83"/><stop offset="1" stop-color="#737176"/></linearGradient><linearGradient id="n" gradientUnits="userSpaceOnUse" x1="56.28" x2="56.3" y1="14.59" y2=".36"><stop offset="0" stop-color="#cfced1"/><stop offset=".39" stop-color="#cac9cc"/><stop offset=".86" stop-color="#bbbabd"/><stop offset="1" stop-color="#b5b4b8"/></linearGradient><linearGradient id="o" gradientUnits="userSpaceOnUse" x1="42.99" x2="56.62" y1=".87" y2=".87"><stop offset="0" stop-color="#e8e7e8"/><stop offset="1" stop-color="#c0bec2"/></linearGradient><linearGradient id="p" gradientUnits="userSpaceOnUse" x1="28.5" x2="28.5" y1="24.49" y2="23.93"><stop offset="0" stop-color="#dddcdd"/><stop offset="1" stop-color="#c2c1c4"/></linearGradient><linearGradient id="q" x1="28.5" x2="28.5" xlink:href="#p" y1="33.4" y2="32.88"/><linearGradient id="r" gradientUnits="userSpaceOnUse" x1="7.04" x2="49.89" y1="33.13" y2="33.13"><stop offset=".01" stop-color="#929095"/><stop offset=".1" stop-color="#d5d4d6"/><stop offset=".17" stop-color="#fff"/><stop offset=".83" stop-color="#fff"/><stop offset=".93" stop-color="#c3c2c5"/><stop offset="1" stop-color="#929095"/></linearGradient><radialGradient id="s" cx="27.24" cy="27.04" fx="-1.86145" gradientTransform="matrix(.28 .96 -1.07 .31 48.49 -7.61)" gradientUnits="userSpaceOnUse" r="29.1"><stop offset=".4" stop-color="#dddcdd"/><stop offset=".57" stop-color="#dbdadb"/><stop offset=".64" stop-color="#d4d2d4"/><stop offset=".7" stop-color="#c7c6c7"/><stop offset=".75" stop-color="#b5b4b5"/><stop offset=".79" stop-color="#9d9c9e"/><stop offset=".83" stop-color="#807f82"/><stop offset=".87" stop-color="#5f5d61"/><stop offset=".88" stop-color="#4b494d"/></radialGradient><linearGradient id="t" gradientUnits="userSpaceOnUse" x1="46.94" x2="46.44" y1="6" y2="4.65"><stop offset=".38" stop-color="#fff"/><stop offset=".46" stop-color="#e5e5e6"/><stop offset=".64" stop-color="#b0afb2"/><stop offset=".8" stop-color="#89888c"/><stop offset=".92" stop-color="#727075"/><stop offset="1" stop-color="#69676c"/></linearGradient><linearGradient id="u" gradientUnits="userSpaceOnUse" x1="51.6" x2="52.29" y1="10.35" y2="11.13"><stop offset=".01" stop-color="#69676c"/><stop offset=".31" stop-color="#57555a"/><stop offset=".71" stop-color="#47444a"/><stop offset="1" stop-color="#413e44"/></linearGradient><radialGradient id="v" cx="28.36" cy="29.71" gradientUnits="userSpaceOnUse" r="32.56"><stop offset=".96" stop-color="#363338"/><stop offset=".98" stop-color="#514e53"/><stop offset=".98" stop-color="#565358"/></radialGradient><linearGradient id="w" gradientUnits="userSpaceOnUse" x1="55.95" x2="55.89" y1="14.2" y2="13.22"><stop offset="0" stop-color="#363338"/><stop offset=".89" stop-color="#4f4c51"/><stop offset="1" stop-color="#524f54"/></linearGradient><linearGradient id="x" gradientUnits="userSpaceOnUse" x1="55.96" x2="56.62" y1="7.35" y2="7.35"><stop offset=".01" stop-color="#737176"/><stop offset=".36" stop-color="#6e6c71"/><stop offset=".8" stop-color="#5f5d62"/><stop offset="1" stop-color="#565358"/></linearGradient><linearGradient id="y" gradientUnits="userSpaceOnUse" x1="49.8" x2="49.8" y1=".36" y2="1.17"><stop offset="0" stop-color="#c0bec2"/><stop offset="1" stop-color="#fff"/></linearGradient><linearGradient id="z" gradientUnits="userSpaceOnUse" x1="42.68" x2="43.52" y1="1.9" y2=".73"><stop offset="0" stop-color="#7d7b80"/><stop offset=".13" stop-color="#838186"/><stop offset=".31" stop-color="#949397"/><stop offset=".52" stop-color="#b1afb2"/><stop offset=".75" stop-color="#d8d7d9"/><stop offset=".95" stop-color="#fff"/></linearGradient><radialGradient id="A" cx="28.26" cy="29.71" gradientUnits="userSpaceOnUse" r="32.84"><stop offset=".95" stop-color="#363338"/><stop offset=".96" stop-color="#423f44"/><stop offset=".97" stop-color="#565358"/></radialGradient><linearGradient id="B" gradientUnits="userSpaceOnUse" x1="21.31" x2="52.61" y1=".74" y2="22.98"><stop offset="0" stop-color="#fff" stop-opacity="0"/><stop offset=".41" stop-color="#fff" stop-opacity="0"/><stop offset=".48" stop-color="#fdfdfd" stop-opacity=".03"/><stop offset=".56" stop-color="#f8f7f8" stop-opacity=".1"/><stop offset=".64" stop-color="#eeeeef" stop-opacity=".22"/><stop offset=".73" stop-color="#e2e1e3" stop-opacity=".4"/><stop offset=".82" stop-color="#d1d0d3" stop-opacity=".62"/><stop offset=".91" stop-color="#bdbcc0" stop-opacity=".89"/><stop offset=".94" stop-color="#b5b4b8"/><stop offset=".96" stop-color="#b6b5b9" stop-opacity=".99"/><stop offset=".97" stop-color="#b9b8bb" stop-opacity=".95"/><stop offset=".98" stop-color="#bdbcc0" stop-opacity=".89"/><stop offset=".98" stop-color="#c4c3c7" stop-opacity=".8"/><stop offset=".99" stop-color="#cdcccf" stop-opacity=".67"/><stop offset=".99" stop-color="#d8d8da" stop-opacity=".53"/><stop offset=".99" stop-color="#e5e5e6" stop-opacity=".35"/><stop offset="1" stop-color="#f4f4f4" stop-opacity=".15"/><stop offset="1" stop-color="#fff" stop-opacity="0"/></linearGradient><linearGradient id="C" gradientUnits="userSpaceOnUse" x1="38.31" x2="39.98" y1="6.25" y2="24.87"><stop offset=".42" stop-color="#fff" stop-opacity="0"/><stop offset=".65" stop-color="#fefefe" stop-opacity=".01"/><stop offset=".73" stop-color="#fcfbfc" stop-opacity=".05"/><stop offset=".79" stop-color="#f7f7f7" stop-opacity=".11"/><stop offset=".84" stop-color="#f0f0f1" stop-opacity=".2"/><stop offset=".88" stop-color="#e7e7e8" stop-opacity=".32"/><stop offset=".92" stop-color="#dcdcde" stop-opacity=".47"/><stop offset=".95" stop-color="#cfcfd1" stop-opacity=".65"/><stop offset=".98" stop-color="#c1c0c3" stop-opacity=".84"/><stop offset="1" stop-color="#b5b4b8"/></linearGradient><linearGradient id="D" gradientUnits="userSpaceOnUse" x1="47.22" x2="46.38" y1="6.49" y2="4.47"><stop offset="0" stop-color="#fff"/><stop offset=".37" stop-color="#c5c4c7"/><stop offset=".75" stop-color="#919094"/><stop offset=".93" stop-color="#7d7b80"/></linearGradient><linearGradient id="E" gradientUnits="userSpaceOnUse" x1="51.44" x2="51.88" y1="10.22" y2="10.57"><stop offset=".03" stop-color="#69676c"/><stop offset=".99" stop-color="#4b494d"/></linearGradient><radialGradient id="F" cx="28.52" cy="28.95" gradientUnits="userSpaceOnUse" r="32.02"><stop offset=".96" stop-color="#716f74"/><stop offset=".97" stop-color="#605d62"/><stop offset=".99" stop-color="#a9a8ac"/></radialGradient><linearGradient id="G" gradientUnits="userSpaceOnUse" x1="55.84" x2="55.83" y1="13.39" y2="13.65"><stop offset="0" stop-color="#9e9ca1"/><stop offset="1" stop-color="#605d62"/></linearGradient><linearGradient id="H" gradientUnits="userSpaceOnUse" x1="55.86" x2="56.06" y1="7.35" y2="7.35"><stop offset="0" stop-color="#a9a8ac"/><stop offset=".51" stop-color="#9b999e"/><stop offset="1" stop-color="#929095"/></linearGradient><linearGradient id="I" gradientUnits="userSpaceOnUse" x1="49.8" x2="49.8" y1=".79" y2="1.37"><stop offset=".28" stop-color="#cfced1"/><stop offset=".39" stop-color="#dad9db"/><stop offset=".59" stop-color="#f6f6f6"/><stop offset=".64" stop-color="#fff"/></linearGradient><linearGradient id="J" gradientUnits="userSpaceOnUse" x1="43.64" x2="43.65" y1="1.13" y2="1.7"><stop offset="0" stop-color="#dddcdd"/><stop offset=".26" stop-color="#dad9da"/><stop offset=".48" stop-color="#cfced0"/><stop offset=".68" stop-color="#bebdbf"/><stop offset=".87" stop-color="#a6a4a8"/><stop offset="1" stop-color="#929095"/></linearGradient><radialGradient id="K" cx="28.11" cy="29.15" gradientUnits="userSpaceOnUse" r="32.02"><stop offset=".77" stop-color="#737176"/><stop offset=".97" stop-color="#afaeb2"/><stop offset=".99" stop-color="#b5b4b8"/></radialGradient><radialGradient id="L" cx="35.43" cy="52.15" fx="-13.865481" gradientUnits="userSpaceOnUse" r="49.31"><stop offset=".45" stop-color="#fff"/><stop offset=".55" stop-color="#fcfcfc"/><stop offset=".63" stop-color="#f3f3f3"/><stop offset=".7" stop-color="#e3e3e3"/><stop offset=".76" stop-color="#cdcccd"/><stop offset=".82" stop-color="#b0afb1"/><stop offset=".88" stop-color="#8d8b8e"/><stop offset=".93" stop-color="#646266"/><stop offset=".98" stop-color="#363338"/></radialGradient><linearGradient id="M" gradientUnits="userSpaceOnUse" x1="28.5" x2="28.5" y1="32.9" y2="32.7"><stop offset="0" stop-color="#4b494d"/><stop offset=".48" stop-color="#8b8a8d"/><stop offset=".82" stop-color="#b3b2b5"/><stop offset="1" stop-color="#c2c1c4"/></linearGradient><linearGradient id="N" gradientUnits="userSpaceOnUse" x1="28.5" x2="28.5" y1="24.39" y2="24.59"><stop offset=".28" stop-color="#9e9ca1"/><stop offset=".4" stop-color="#b6b4b8"/><stop offset=".65" stop-color="#dddcdd"/><stop offset=".77" stop-color="#ecebec"/></linearGradient><radialGradient id="O" cx="27.29" cy="28.35" fx="17.853597" fy="-3.763795" gradientTransform="matrix(.9999897 .00453784 -.00422019 .92999042 .12 1.75)" gradientUnits="userSpaceOnUse" r="33.47"><stop offset=".51" stop-color="#fff"/><stop offset=".59" stop-color="#fcfcfc"/><stop offset=".65" stop-color="#f2f2f2"/><stop offset=".7" stop-color="#e2e1e2"/><stop offset=".76" stop-color="#cac9cb"/><stop offset=".81" stop-color="#acabae"/><stop offset=".85" stop-color="#878589"/><stop offset=".9" stop-color="#5c5a5f"/><stop offset=".92" stop-color="#413e44"/></radialGradient><linearGradient id="P" gradientUnits="userSpaceOnUse" x1="26.5" x2="30.95" y1="20.54" y2="36.83"><stop offset="0" stop-color="#fff"/><stop offset=".23" stop-color="#fafbfb"/><stop offset=".48" stop-color="#edeeee"/><stop offset=".75" stop-color="#d7d8d9"/><stop offset="1" stop-color="#bbbdbf"/></linearGradient><clipPath id="Q"><path d="m108.42 6.5h169.92v40h-169.92z"/></clipPath><path d="m50.49 11.56.06.07a27.85 27.85 0 0 1 -2.36 36.71 27.85 27.85 0 1 1 -39.38-39.34 27.84 27.84 0 0 1 36.73-2.38l.07.06v-.87a28.5 28.5 0 1 0 5.8 5.81z" fill="url(#a)"/><path d="m50.49 11.56.06.07a27.85 27.85 0 0 1 -2.36 36.71 27.85 27.85 0 1 1 -39.38-39.34 27.84 27.84 0 0 1 36.73-2.38l.07.06v-.87a28.5 28.5 0 1 0 5.8 5.81z" fill="url(#b)"/><path d="m7.51 24.11a21.47 21.47 0 0 1 36.17-10.64 21.27 21.27 0 0 1 5.81 10.64zm21 26a21.49 21.49 0 0 1 -21-16.94h42a21.49 21.49 0 0 1 -21 16.94zm22.12-38.54 2.16-2.16a31.45 31.45 0 0 1 2.82 4.2h.45v-12.52h-12.52v.46a31.18 31.18 0 0 1 4.23 2.83l-2.16 2.16a28 28 0 0 0 -36.87 2.35 27.94 27.94 0 1 0 39.52 39.52 28 28 0 0 0 2.37-36.84z" fill="url(#c)"/><path d="m7.51 24.11a21.47 21.47 0 0 1 36.17-10.64 21.27 21.27 0 0 1 5.81 10.64zm21 26a21.49 21.49 0 0 1 -21-16.94h42a21.49 21.49 0 0 1 -21 16.94zm22.12-38.54 2.16-2.16a31.45 31.45 0 0 1 2.82 4.2h.45v-12.52h-12.52v.46a31.18 31.18 0 0 1 4.23 2.83l-2.16 2.16a28 28 0 0 0 -36.87 2.35 27.94 27.94 0 1 0 39.52 39.52 28 28 0 0 0 2.37-36.84z" fill="url(#d)"/><path d="m48.18 23.84a20.29 20.29 0 0 0 -19.68-15.45 20.29 20.29 0 0 0 -19.68 15.45l-1.65.55-.13.1v-.12a21.85 21.85 0 0 1 36.96-11.17 21.65 21.65 0 0 1 6 11.17v.12l-.13-.1zm0 9.62a20.26 20.26 0 0 1 -34 9.51 20.06 20.06 0 0 1 -5.36-9.51l-1.65-.56-.17-.1v.12a21.85 21.85 0 0 0 37 11.18 21.68 21.68 0 0 0 6-11.18v-.12l-.13.1z" fill="url(#e)"/><path d="m46.93 4.44-1.38 1.37.07.87 2.3-2.31z" fill="url(#f)"/><path d="m48.18 23.84a20.29 20.29 0 0 0 -19.68-15.45 20.29 20.29 0 0 0 -19.68 15.45l-1.65.55-.13.1v-.12a21.85 21.85 0 0 1 36.96-11.17 21.65 21.65 0 0 1 6 11.17v.12l-.13-.1zm0 9.62a20.26 20.26 0 0 1 -34 9.51 20.06 20.06 0 0 1 -5.36-9.51l-1.65-.56-.17-.1v.12a21.85 21.85 0 0 0 37 11.18 21.68 21.68 0 0 0 6-11.18v-.12l-.13.1z" fill="url(#g)"/><g clip-path="url(#h)"><path d="m28.5 50.39a21.73 21.73 0 1 1 15.38-6.39 21.6 21.6 0 0 1 -15.38 6.39zm14.32-7.39a20.25 20.25 0 1 0 -28.64-28.67 20.25 20.25 0 0 0 28.64 28.67z" fill="url(#i)"/></g><path d="m8.82 23.84h39.36l1.65.55.13.1h-42.92l.13-.1z" fill="url(#j)"/><path d="m8.82 33.46h39.36l1.65-.55.13-.11h-42.92l.13.11z" fill="url(#k)"/><path d="m46.93 4.44-1.38 1.37.07.87 2.3-2.31z" fill="url(#l)"/><path d="m52.8 9.26-2.31 2.3.87.06 1.37-1.37z" fill="url(#m)"/><path d="m55.96 1.2v12.31l.66.66v-13.63z" fill="url(#n)"/><path d="m56.62.54h-13.63l.66.66h12.31z" fill="url(#o)"/><path d="m8.82 23.84h39.36l1.65.55.13.1h-42.92l.13-.1z" fill="url(#p)"/><path d="m7.04 32.8h42.92l-.13.11-1.65.55h-39.36l-1.65-.55z" fill="url(#q)"/><path d="m7.04 32.8h42.92l-.13.11-1.65.55h-39.36l-1.65-.55z" fill="url(#r)"/><path d="m50.49 11.56.06.07a27.85 27.85 0 0 1 -2.36 36.71 27.85 27.85 0 1 1 -39.38-39.34 27.84 27.84 0 0 1 36.73-2.38l.07.06v-.87a28.5 28.5 0 1 0 5.8 5.81z" fill="url(#s)"/><path d="m46.93 4.44-1.38 1.37.07.87 2.3-2.31z" fill="url(#t)"/><path d="m52.8 9.26-2.31 2.3.87.06 1.37-1.37z" fill="url(#u)"/><path d="m55.67 13.51a32.2 32.2 0 0 0 -2.8-4.16l-.07-.09-.06 1a32.06 32.06 0 0 1 2.53 3.92z" fill="url(#v)"/><path d="m55.96 13.51h-.3l-.39.66h1.35z" fill="url(#w)"/><path d="m55.96 1.2v12.31l.66.66v-13.63z" fill="url(#x)"/><path d="m56.62.54h-13.63l.66.66h12.31z" fill="url(#y)"/><path d="m42.99.54v1.34l.66-.39v-.29z" fill="url(#z)"/><path d="m43 1.88a30.21 30.21 0 0 1 3.94 2.56l1-.07-.09-.07a31.17 31.17 0 0 0 -4.18-2.81z" fill="url(#A)"/><path d="m28.5 6.8a21.86 21.86 0 0 1 21.43 17.57v.12l-.12-.1-1.65-.55a20.29 20.29 0 0 0 -19.66-15.45z" fill="url(#B)"/><path d="m28.5 6.8a21.86 21.86 0 0 1 21.43 17.57v.12l-.12-.1-1.65-.55a20.29 20.29 0 0 0 -19.66-15.45z" fill="url(#C)"/><path d="m48.07 4.37-2.45 2.44-.02-.27 2.17-2.16z" fill="url(#D)"/><path d="m52.79 9.41-2.16 2.16-.27-.02 2.45-2.44z" fill="url(#E)"/><path d="m55.6 13.61a30.44 30.44 0 0 0 -2.81-4.2v-.3a31.53 31.53 0 0 1 2.91 4.3z" fill="url(#F)"/><path d="m56.06 13.61h-.46l.12-.2h.14z" fill="url(#G)"/><path d="m56.06 1.09v12.52l-.2-.2v-12.11z" fill="url(#H)"/><path d="m55.86 1.3h-12.11l-.21-.21h12.52z" fill="url(#I)"/><path d="m43.75 1.3v.13l-.21.12v-.46z" fill="url(#J)"/><path d="m43.75 1.43a31.87 31.87 0 0 1 4.32 2.93h-.3a31.18 31.18 0 0 0 -4.23-2.83z" fill="url(#K)"/><path d="m6.92 24.59a22 22 0 0 1 21.58-17.89 22 22 0 0 1 21.57 17.89l-.24-.2a21.75 21.75 0 0 0 -42.66 0zm42.91 8.31a21.75 21.75 0 0 1 -42.66 0l-.25-.2a22 22 0 0 0 37.08 11.47 21.78 21.78 0 0 0 6-11.47z" fill="url(#L)"/><path d="m6.92 32.7h43.16l-.25.21h-42.66z" fill="url(#M)"/><path d="m50.08 24.59h-43.16l.25-.2h42.66z" fill="url(#N)"/><path d="m50.36 11.55a27.75 27.75 0 0 1 -41.48 36.72 27.75 27.75 0 0 1 19.62-47.37 27.52 27.52 0 0 1 17.12 5.91v-.27a27.94 27.94 0 0 0 -36.88 2.35 27.94 27.94 0 1 0 39.52 39.52 28 28 0 0 0 2.37-36.84z" fill="url(#O)"/><path d="m45.13 25.81c-2.33 0-3.84 1.12-3.84 2.84s1.48 2.85 3.86 2.85 3.85-1.07 3.85-2.85-1.52-2.84-3.87-2.84zm0 4.76c-.86 0-1.24-1-1.22-1.95 0-1.14.51-1.86 1.28-1.86.74 0 1.24.8 1.22 1.91-.03.87-.41 1.9-1.28 1.9z" fill="#0b020a"/><path d="m47.83 26.51a2.45 2.45 0 0 1 1.05 2c0 1.76-1.47 2.86-3.83 2.86a4 4 0 0 1 -3.36-1.33 3.93 3.93 0 0 0 3.46 1.44c2.37 0 3.84-1.1 3.84-2.88a2.49 2.49 0 0 0 -1.16-2.09z" fill="#fff"/><path d="m43.88 28.62c0-1.09.54-1.85 1.28-1.85.73 0 1.22.77 1.22 1.85 0-1.14-.5-1.95-1.27-2-.77 0-1.32.79-1.33 1.91 0 .87.28 1.75 1 2a1.91 1.91 0 0 1 -.9-1.91z" fill="#fff"/><path d="m41.45 26.37h-2.87l-.44.45a.1.1 0 0 0 .08 0h.91l-1.69 3.18-1.7-3.11h1.14a.11.11 0 0 0 .11-.12v-.77a.11.11 0 0 0 .01 0l-.51.51h-2.49l2.24 3.91-.94.95a.25.25 0 0 0 .12 0h2.68a.21.21 0 0 0 .16-.1l2.39-4.42h1.14a.11.11 0 0 0 .11-.12v-.73a.11.11 0 0 0 0-.08z" fill="#fff"/><path d="m31.92 26.47-.35.35a.08.08 0 0 0 .08 0h1.13l.23-.39z" fill="#fff"/><path d="m39.13 26.86.18-.12.6-.36h.3l-2.44 4.43-.33-.6v-.24z" fill="#0b020a"/><path d="m41.45 26.37.42-.41a.11.11 0 0 0 -.08 0h-3.57a.11.11 0 0 0 -.12.11v.7a.09.09 0 0 0 0 .08l.44-.45z" fill="#0b020a"/><path d="m34 26.47h2.49l.51-.47a.11.11 0 0 0 -.08 0h-5.27a.11.11 0 0 0 -.12.11v.7a.08.08 0 0 0 0 .08l.35-.35h1.12l-.23.39 2.43 4.41v.06l.07-.07.87-.88z" fill="#0b020a"/><path d="m8.22 26.47-.36.35a.09.09 0 0 0 .08 0h1.14l.23-.39z" fill="#fff"/><path d="m15.43 26.86.18-.12.59-.36h.31l-2.44 4.43-.33-.6v-.24z" fill="#0b020a"/><path d="m10.26 26.47h2.49l.51-.51a.12.12 0 0 0 -.09 0h-5.23a.11.11 0 0 0 -.11.11v.7a.1.1 0 0 0 0 .08l.36-.35h1.12l-.23.39 2.42 4.41a.34.34 0 0 0 .06.06l.94-.95z" fill="#0b020a"/><path d="m33 28.82-.42.41v1.52h-3.58l.33-.32v-3.57h1.11c.09 0 .11-.06.11-.12v-.74a.11.11 0 0 0 0-.08l-.42.41h-2.13v4.52h-2l-.44.45a.1.1 0 0 0 .08 0h7.28a.11.11 0 0 0 .11-.12v-2.28a.11.11 0 0 0 -.03-.08z" fill="#fff"/><path d="m26 26.37-.44.45a.1.1 0 0 0 .08 0h1.12l.48-.49z" fill="#fff"/><path d="m32.55 30.75v-1.52l.42-.41a.11.11 0 0 0 -.08 0h-.7a.11.11 0 0 0 -.11.11 1.52 1.52 0 0 1 -1.62 1.53h-1.15l-.33.32z" fill="#0b020a"/><path d="m28 30.89v-4.52h2.08l.42-.37a.11.11 0 0 0 -.08 0h-4.81a.11.11 0 0 0 -.12.11v.7a.12.12 0 0 0 0 .08l.44-.45h1.24l-.48.49v3.57h-1.08a.11.11 0 0 0 -.12.11v.72a.09.09 0 0 0 0 .08l.44-.45z" fill="#0b020a"/><path d="m21.44 25.81c-2.34 0-3.85 1.12-3.85 2.84s1.48 2.85 3.86 2.85 3.82-1.07 3.82-2.85-1.49-2.84-3.83-2.84zm0 4.76c-.87 0-1.24-1-1.23-1.95 0-1.14.51-1.86 1.28-1.86.74 0 1.24.8 1.22 1.91-.02.87-.37 1.9-1.28 1.9z" fill="#0b020a"/><path d="m24.14 26.51a2.47 2.47 0 0 1 1 2c0 1.76-1.46 2.86-3.82 2.86a4 4 0 0 1 -3.32-1.28 4 4 0 0 0 3.46 1.44c2.37 0 3.85-1.1 3.85-2.88a2.49 2.49 0 0 0 -1.17-2.14z" fill="#fff"/><path d="m20.18 28.62c0-1.09.55-1.85 1.28-1.85.73 0 1.23.77 1.22 1.85 0-1.14-.5-1.95-1.27-2-.76 0-1.31.79-1.33 1.91 0 .87.28 1.75 1 2a1.9 1.9 0 0 1 -.9-1.91z" fill="#fff"/><path d="m17.75 26.37h-2.87l-.45.45a.12.12 0 0 0 .08 0h.92l-1.69 3.18-1.74-3.14h1.14a.11.11 0 0 0 .11-.12v-.74a.11.11 0 0 0 0-.08l-.51.51h-2.48l2.24 3.91-.94.95a.21.21 0 0 0 .11 0h2.72a.22.22 0 0 0 .17-.1l2.44-4.33h1.13a.12.12 0 0 0 .12-.12v-.74a.12.12 0 0 0 0-.08z" fill="#fff"/><path d="m17.75 26.37.41-.41a.11.11 0 0 0 -.08 0h-3.57a.11.11 0 0 0 -.11.11v.7a.11.11 0 0 0 0 .08l.45-.45z" fill="#0b020a"/><path d="m45.15 31.42c-2.31 0-3.75-1.06-3.75-2.77s1.47-2.72 3.73-2.72 3.75 1.07 3.75 2.72-1.43 2.77-3.73 2.77zm0-.74c1 0 1.37-1.08 1.38-2 0-1.17-.53-2-1.33-2-.8 0-1.37.81-1.39 2 0 1 .38 2 1.33 2.06zm-23.68.74c-2.31 0-3.74-1.06-3.74-2.77s1.46-2.72 3.73-2.72 3.74 1.07 3.74 2.72-1.45 2.77-3.75 2.77zm0-.74c1 0 1.37-1.08 1.38-2a2.6 2.6 0 0 0 -.32-1.39 1.19 1.19 0 0 0 -1-.63c-.8 0-1.37.81-1.39 2 0 1 .39 2 1.34 2.06zm16.5.58h-2.6l-2.48-4.52h-1.2v-.74h5.23v.7h-1.38l1.9 3.47 1.83-3.38v-.09h-1.05v-.7h3.57v.7h-1.21l-2.44 4.52zm-23.71 0h-2.6l-2.52-4.52h-1.2v-.74h5.23v.7h-1.33l1.9 3.47 1.87-3.47h-1.1v-.7h3.57v.7h-1.2l-2.44 4.52zm11.39-.72h1.24v-3.8h-1.28v-.74h4.81v.7h-1.23v3.8h1.27a1.62 1.62 0 0 0 1.73-1.64h.7v2.35h-7.28z" fill="#133c8a"/><path d="m45.15 31.42c-2.31 0-3.75-1.06-3.75-2.77s1.47-2.72 3.73-2.72 3.75 1.07 3.75 2.72-1.43 2.77-3.73 2.77zm0-.74c1 0 1.37-1.08 1.38-2 0-1.17-.53-2-1.33-2-.8 0-1.37.81-1.39 2 0 1 .38 2 1.33 2.06zm-23.68.74c-2.31 0-3.74-1.06-3.74-2.77s1.46-2.72 3.73-2.72 3.74 1.07 3.74 2.72-1.45 2.77-3.75 2.77zm0-.74c1 0 1.37-1.08 1.38-2a2.6 2.6 0 0 0 -.32-1.39 1.19 1.19 0 0 0 -1-.63c-.8 0-1.37.81-1.39 2 0 1 .39 2 1.34 2.06zm16.5.58h-2.6l-2.48-4.52h-1.2v-.74h5.23v.7h-1.38l1.9 3.47 1.83-3.38v-.09h-1.05v-.7h3.57v.7h-1.21l-2.44 4.52zm-23.71 0h-2.6l-2.52-4.52h-1.2v-.74h5.23v.7h-1.33l1.9 3.47 1.87-3.47h-1.1v-.7h3.57v.7h-1.2l-2.44 4.52zm11.39-.72h1.24v-3.8h-1.28v-.74h4.81v.7h-1.23v3.8h1.27a1.62 1.62 0 0 0 1.73-1.64h.7v2.35h-7.28z" fill="url(#P)"/><path d="m33.39 231.1a4.84 4.84 0 0 1 -3.52 8.18 4.57 4.57 0 0 1 -3.3-1.32l-1.79 1.77-1.78-1.79a4.72 4.72 0 0 1 -3.36 1.34 4.65 4.65 0 0 1 -3.43-1.42 4.87 4.87 0 0 1 -.09-6.76c-.24-.26-.83-.84-1.75-1.75l1.77-1.77a4.61 4.61 0 0 1 -1.32-3.28 4.73 4.73 0 0 1 1.4-3.44 4.87 4.87 0 0 1 6.78-.07c.27-.25.87-.83 1.79-1.75q.59.56 1.77 1.74a4.86 4.86 0 0 1 6.76.08 4.87 4.87 0 0 1 .11 6.72l1.74 1.75-1.77 1.77zm-3.52-9.78a2.65 2.65 0 0 0 -1.95.79l4.19 4.17a2.75 2.75 0 0 0 .77-1.94 2.91 2.91 0 0 0 -.88-2.14 2.87 2.87 0 0 0 -2.13-.88zm-2.87 2.26a2.54 2.54 0 0 0 -.1.76 2.81 2.81 0 0 0 .88 2.09 2.92 2.92 0 0 0 2.1.86 4 4 0 0 0 .76-.07zm5 5a4.35 4.35 0 0 1 -2.16.53 4.81 4.81 0 0 1 -4.81-4.81 4.51 4.51 0 0 1 .49-2.07l-.77-.86c-.09.11-.36.38-.79.83a4.81 4.81 0 0 1 -4.36 6.91 5 5 0 0 1 -2.07-.46l-.69.68.7.7a5.31 5.31 0 0 1 2.06-.47 4.66 4.66 0 0 1 3.47 1.44 4.71 4.71 0 0 1 1.42 3.44 4.89 4.89 0 0 1 -.49 2.06l.75.78.72-.75a5.1 5.1 0 0 1 -.47-2.11 4.71 4.71 0 0 1 1.45-3.42 4.75 4.75 0 0 1 5.56-.91l.77-.75-.75-.75zm-2.16 2.86a2.94 2.94 0 0 0 -2.94 2.94 3.84 3.84 0 0 0 .06.71l3.58-3.59a4.23 4.23 0 0 0 -.7-.06zm2.2 1c-.79.82-2.17 2.22-4.16 4.23a2.88 2.88 0 0 0 4.06-.14 3 3 0 0 0 .87-2.14 2.79 2.79 0 0 0 -.77-1.95zm-12.41-11.12a2.87 2.87 0 0 0 -2.13.89 2.93 2.93 0 0 0 -.87 2.13 2.71 2.71 0 0 0 .77 2l4.29-4.17a3 3 0 0 0 -2.06-.81zm2.93 2.32c-.69.69-1.89 1.89-3.6 3.58a4.36 4.36 0 0 0 .67.07 3 3 0 0 0 2.14-.85 2.81 2.81 0 0 0 .89-2.1 2.52 2.52 0 0 0 -.1-.7zm-2.93 7.8a5.41 5.41 0 0 0 -.59 0l3.49 3.56a3.13 3.13 0 0 0 .06-.6 2.8 2.8 0 0 0 -.86-2.09 2.85 2.85 0 0 0 -2.1-.85zm-2.2 1a2.88 2.88 0 0 0 -.74 2 3 3 0 0 0 .87 2.13 2.73 2.73 0 0 0 2.07.92 2.64 2.64 0 0 0 2-.84l-4.2-4.19z" fill="#00529b" fill-rule="evenodd"/><path d="m40.52 238.6h3.88v-6.6h4.24a5.93 5.93 0 1 0 0-11.84h-8.12zm3.88-15.33h3a4.51 4.51 0 0 1 2.39.49 2.43 2.43 0 0 1 1 2.26 2.49 2.49 0 0 1 -1 2.23 4.45 4.45 0 0 1 -2.45.54h-3v-5.52z" fill="#00529b" fill-rule="evenodd"/><path d="m68.14 232.8a9.4 9.4 0 0 0 -1.57-5.69 5.82 5.82 0 0 0 -5-2.4 6.52 6.52 0 0 0 -5.06 2.13 7.25 7.25 0 0 0 -1.8 5.07 7 7 0 0 0 1.75 4.93 6.57 6.57 0 0 0 5.11 2.07 6.09 6.09 0 0 0 6.3-4.47h-3.27a2.13 2.13 0 0 1 -1.15 1.25 3.64 3.64 0 0 1 -1.71.45c-2.16 0-3.25-1.11-3.25-3.34zm-9.65-2.32a2.7 2.7 0 0 1 .66-1.8 2.91 2.91 0 0 1 2.37-1c1.56 0 2.52 1 2.87 2.84z" fill="#00529b" fill-rule="evenodd"/><path d="m69.24 238.58h3.56v-6q0-4.46 3.9-4.45a4.62 4.62 0 0 1 1.23.13v-3.41a2 2 0 0 0 -.75-.12 5.74 5.74 0 0 0 -2.75.53 5.45 5.45 0 0 0 -1.76 2v-2.26h-3.43z" fill="#00529b"/><path d="m92 238.61c-.34 0-1.78 0-4.32 0l-4.15-6.21-1.17 1.16v5h-3.45v-18.45h3.47v9.62l4.62-4.79h4.32l-5.09 5.06 5.79 8.6z" fill="#00529b"/><path d="m93 238.6h3.7v-13.67h-3.7zm-.15-16.85a2 2 0 0 1 3.47-1.44 2 2 0 0 1 -2.88 2.88 2 2 0 0 1 -.59-1.44z" fill="#00529b" fill-rule="evenodd"/><path d="m98.37 238.58h3.63v-7a5.6 5.6 0 0 1 .47-2.6 2.3 2.3 0 0 1 2.18-1.2 2.18 2.18 0 0 1 2.15 1.06 5.07 5.07 0 0 1 .38 2.21v7.48h3.64v-8.16a6.9 6.9 0 0 0 -1-4.16c-.76-1-2.11-1.51-4.06-1.51a4.41 4.41 0 0 0 -2.16.6 4.85 4.85 0 0 0 -1.71 1.81h-.09v-2.11h-3.43v13.63z" fill="#00529b"/><path d="m112 234.21a4.08 4.08 0 0 0 1.91 3.68 8 8 0 0 0 4.34 1 7.64 7.64 0 0 0 4.24-1 4.05 4.05 0 0 0 1.83-3.64 3.21 3.21 0 0 0 -2.1-3.08 10.29 10.29 0 0 0 -2-.63l-2.12-.44c-1.39-.32-2.08-.84-2.08-1.54s.65-1.24 2-1.24c1.75 0 2.62.6 2.62 1.79h3.36a3.63 3.63 0 0 0 -1.75-3.3 7.78 7.78 0 0 0 -4.15-.93c-2.4 0-4.06.55-5 1.64a3.93 3.93 0 0 0 -.85 2.62 3.1 3.1 0 0 0 2.13 2.94 13 13 0 0 0 2.16.61c1 .22 1.71.4 2.17.54 1.37.41 2 .92 2 1.52a1.49 1.49 0 0 1 -.73 1.32 3.44 3.44 0 0 1 -1.8.39 3.18 3.18 0 0 1 -1.93-.55 2.14 2.14 0 0 1 -1-1.71z" fill="#00529b"/><path d="m128.1 224.7a2.31 2.31 0 0 1 1.09.29 2.06 2.06 0 0 1 .82.81 2.19 2.19 0 0 1 0 2.21 2 2 0 0 1 -.81.81 2.23 2.23 0 0 1 -2.2 0 2 2 0 0 1 -.81-.81 2.19 2.19 0 0 1 0-2.21 2.06 2.06 0 0 1 .81-.8 2.31 2.31 0 0 1 1.09-.29zm0 .37a1.94 1.94 0 0 0 -.9.23 1.64 1.64 0 0 0 -.69.69 1.79 1.79 0 0 0 -.25.92 1.85 1.85 0 0 0 .24.91 1.67 1.67 0 0 0 .69.68 1.76 1.76 0 0 0 .91.25 1.82 1.82 0 0 0 .92-.25 1.71 1.71 0 0 0 .68-.68 1.85 1.85 0 0 0 .24-.91 1.79 1.79 0 0 0 -.25-.92 1.64 1.64 0 0 0 -.69-.69 1.94 1.94 0 0 0 -.9-.23zm-1 3.06v-2.38h.9a2 2 0 0 1 .6.07.53.53 0 0 1 .3.23.56.56 0 0 1 .11.35.64.64 0 0 1 -.18.45.77.77 0 0 1 -.5.22.61.61 0 0 1 .21.12 3 3 0 0 1 .35.47l.29.47h-.47l-.21-.38a2 2 0 0 0 -.4-.55.52.52 0 0 0 -.31-.08h-.23v1zm.38-1.34h.52a.76.76 0 0 0 .46-.1.31.31 0 0 0 .12-.26.33.33 0 0 0 -.06-.19.4.4 0 0 0 -.16-.12 1.17 1.17 0 0 0 -.39 0h-.44v.71z" fill="#00529b" fill-rule="evenodd"/><g fill="#fff"><path d="m55.67 95.55c0-1.67 0-3.35 0-5 0-.52.15-.71.7-.71h8.58a3.8 3.8 0 0 1 3.8 2.54c.55 1.66-.25 4.19-2.37 4.72-.66.17-.43.36-.18.69.84 1.1 1.67 2.22 2.51 3.32.24.33.23.51-.23.5h-.12a9.45 9.45 0 0 1 -2.92-.08c-.91-.3-1.25-1.44-1.9-2.16a2.8 2.8 0 0 1 -.51-.69c-.72-1.77-2.23-1.58-3.7-1.53-.4 0-.46.22-.45.55v3.07c0 .83 0 .83-.89.84-.37 0-.73 0-1.1 0-1.37 0-1.2.09-1.21-1.15zm6.21-3.27h-1.34c-1.81 0-1.79 0-1.68 1.78 0 .5.23.6.67.6h4.63a1.81 1.81 0 0 0 .83-.16 1.1 1.1 0 0 0 .68-.94 1.12 1.12 0 0 0 -.67-1.1 1.78 1.78 0 0 0 -.94-.18c-.71.01-1.44 0-2.18 0z"/><path d="m42.17 95.67c0-1.72 0-3.44 0-5.16 0-.53.17-.7.7-.7q5 0 10.06 0c.49 0 .62.19.65.65.15 2 .16 2-1.81 2h-5.65c-1 0-.84 0-.84.89 0 1.53-.12 1.27 1.33 1.28h6.13c.52 0 .69.14.7.68 0 1.63.06 1.63-1.58 1.63-1.93 0-3.85 0-5.77 0-.78 0-.78 0-.81.81v.13c0 1.57-.16 1.32 1.27 1.33h6.14c.85 0 .88 0 .87.9 0 1.76.23 1.48-1.48 1.49-3 0-6 0-9 0-.94 0-.95 0-.95-.91.03-1.69.04-3.35.04-5.02z"/><path d="m70.57 95.68c0-1.72 0-3.43 0-5.15 0-.49.11-.72.68-.72q5 0 10.05 0c.51 0 .61.19.63.64.1 2 .11 2-1.9 2h-5.52c-1 0-.92 0-.91 1 0 1.33-.12 1.21 1.15 1.21h6.26c.51 0 .7.12.71.68 0 1.63.06 1.63-1.59 1.63-1.92 0-3.84 0-5.76 0-.57 0-.8.13-.78.74.06 1.82-.21 1.56 1.56 1.57q3.07 0 6.13 0c.46 0 .62.13.64.62.07 1.75.1 1.75-1.7 1.75-2.94 0-5.88 0-8.82 0-.81 0-.82 0-.83-.78z"/><path d="m85.68 89.82c1.21-.37 2.19.28 3 1.4.38.53.85 1 1.28 1.48.2.22.36.26.58 0 .66-.78 1.36-1.52 2-2.3a1.43 1.43 0 0 1 1.25-.58h2.82c.15 0 .35-.06.43.11s-.09.3-.2.42c-1.16 1.31-2.32 2.63-3.49 3.94a3.21 3.21 0 0 1 -.48.55c-.54.42-.39.75 0 1.19 1.48 1.63 2.92 3.3 4.37 5 .13.15.38.29.29.5s-.35.12-.54.12c-.9 0-1.8 0-2.69 0a1.4 1.4 0 0 1 -1.26-.56c-.79-.94-1.64-1.82-2.42-2.76-.32-.39-.5-.41-.83 0-.79.93-1.63 1.82-2.41 2.77a1.41 1.41 0 0 1 -1.26.57c-.93 0-1.88 0-2.82 0-.15 0-.35 0-.42-.12s.08-.3.19-.42l4.14-4.68c.87-1 .87-1 0-2q-1.78-2-3.56-4c-.11-.12-.27-.24-.21-.41s.27-.12.41-.12z"/><path d="m124.88 95.69c0-1.63 0-3.27 0-4.9 0-1 0-.9.89-1a2 2 0 0 1 1.94.92c1.91 2.45 3.88 4.84 5.84 7.25a9.06 9.06 0 0 0 .64.75c.15.16.28.09.29-.12s0-.57 0-.86q0-3.56 0-7.11c0-.27-.13-.67.2-.76a2.18 2.18 0 0 1 1.45 0c.26.12.16.51.16.8v7.84 2.21s0 .79-.77.86a2.2 2.2 0 0 1 -2.17-1c-1.87-2.42-3.83-4.78-5.75-7.16-.18-.23-.37-.44-.55-.67a.4.4 0 0 0 -.4-.2s0 .23 0 .35v5.89 2.08s-.18.74-.7.67a1.53 1.53 0 0 0 -.37 0c-.64.12-.72-.23-.71-.77 0-1.31 0-2.62 0-3.92z"/><path d="m34.46 89.82h5.52c.54 0 .68.18.69.7 0 1.87.07 1.85-1.84 1.88-.84 0-1.91-.37-2.45.19s-.13 1.55-.14 2.36v6c0 .55-.19.71-.7.67s-1.06 0-1.59 0c-1.36 0-1.2.16-1.2-1.14 0-2.25 0-4.5 0-6.74 0-1.49.19-1.34-1.4-1.35h-2.68c-.42 0-.61-.14-.58-.57a1.92 1.92 0 0 0 0-.24c-.05-1.75-.05-1.75 1.72-1.75z"/><path d="m13.89 103.67c-2.61 0-5.23 0-7.85 0-1.19 0-1.47-.26-1.47-1.42q0-6.57 0-13.13c0-1.12.33-1.43 1.49-1.44q7.84 0 15.7 0c1.08 0 1.41.32 1.42 1.38q0 6.63 0 13.25c0 1.06-.32 1.34-1.43 1.35-2.62.02-5.24.01-7.86.01zm.11-15.15c-2.54 0-5.07 0-7.6 0-1 0-1 0-1 .91q0 6.31 0 12.63c0 .53.06.8.71.8h15.45c.61 0 .77-.21.77-.78 0-4.25 0-8.5 0-12.75 0-.78 0-.8-.84-.8z"/><path d="m159.59 101.61c-.71.21-1.09-.19-1.34-.91s-.55-1.26-.81-1.91a.84.84 0 0 0 -.9-.63c-1.47 0-2.94 0-4.41 0a.85.85 0 0 0 -.9.61l-.78 1.8c-.47 1.07-.47 1.07-1.58 1-.79 0-.81 0-.5-.71 1.56-3.49 3.15-7 4.71-10.46.19-.43.41-.68.9-.62a2.49 2.49 0 0 0 .61 0c.63-.1.94.18 1.19.75 1 2.39 2.13 4.75 3.2 7.12.49 1.08 1 2.15 1.46 3.23.29.66.28.66-.38.69-.13.05-.25.04-.47.04zm-5.37-5h1.57s.69-.12.47-.61c-.56-1.27-1.11-2.54-1.66-3.81-.07-.16-.13-.33-.31-.31s-.21.23-.27.37c-.34.78-.71 1.56-1 2.36a4.39 4.39 0 0 0 -.65 1.92 9.89 9.89 0 0 0 1.85.13z"/><path d="m109.76 95.67c0-1.72 0-3.44 0-5.16 0-.53.17-.7.7-.7h7.86c.68 0 .67.32.69.82s-.11.79-.74.78c-2 0-4 0-6 0-.46 0-.66.12-.64.62a20.18 20.18 0 0 1 0 2.2c0 .52.23.6.66.6h5.4c1 0 1 0 1 1 0 .53-.24.6-.67.6h-5.4c-1.1 0-1-.06-1 1s0 2.45 0 3.68c0 .42-.14.6-.57.56a3.11 3.11 0 0 0 -.61 0c-.55.06-.71-.2-.7-.72 0-1.18 0-2.37 0-3.55z"/><path d="m165.26 99.11a4.64 4.64 0 0 0 -1.34-4.11c-1.23-1.48-2.32-3.06-3.45-4.61-.34-.46-.3-.52.24-.56a.48.48 0 0 0 .12 0 2.14 2.14 0 0 1 2.42 1.17c.69 1.2 1.59 2.27 2.4 3.4.56.78.55.76 1.06 0q1.39-1.93 2.82-3.85a2.32 2.32 0 0 1 2.37-.72c.26.09.14.26.08.37s-.33.47-.5.7c-1.31 1.72-2.6 3.46-3.94 5.16a2.15 2.15 0 0 0 -.47 1.46v3.31c0 .57-.13.86-.74.77a2.09 2.09 0 0 0 -.25 0c-.82 0-.83 0-.84-.78.01-.56.02-1.14.02-1.71z"/><path d="m138.63 95.66c0-1.68 0-3.35 0-5 0-.8 0-.8.81-.81h.61s.44.16.44.46v.86 8c0 .93 0 .94.95.94h5.15c1 0 1.15.13 1 1.1 0 .3-.16.45-.45.45h-8.1c-.54 0-.44-.36-.44-.67z"/><path d="m120.66 95.67c0-1.67 0-3.34 0-5 0-.83 0-.83.9-.83s.85 0 .85.88v10.16c0 .25.15.66-.22.72a2.16 2.16 0 0 1 -1.42-.08c-.24-.14-.11-.46-.11-.69 0-1.73 0-3.45 0-5.16z"/><path d="m103.52 95.68v6.86a8.17 8.17 0 0 1 0 .86c0 .19-.18.24-.36.24s-.35-.06-.37-.24a4.46 4.46 0 0 1 0-.73v-14a2.09 2.09 0 0 1 0-.25c0-.29-.14-.71.4-.72s.37.45.37.72c-.04 2.43-.04 4.85-.04 7.26z"/></g><path d="m13.84 101.6c-2 0-4.08 0-6.13 0-.55 0-.79-.11-.79-.73 0-3.43 0-6.87 0-10.3 0-.15 0-.4.09-.45s.35.13.49.26c.75.75 1.49 1.51 2.25 2.25.55.53.65.53 1.21 0 .82-.8 1.63-1.6 2.42-2.43.35-.38.6-.42 1 0 .75.81 1.55 1.58 2.33 2.35s.72.67 1.38 0 1.51-1.5 2.26-2.25c.11-.12.26-.29.4-.21s.1.3.1.45v4.54 5.76c0 .59-.19.76-.77.76-2.08-.01-4.16 0-6.24 0zm3.55-4.42h2.08c.29 0 .57 0 .71-.34s-.07-.47-.23-.63c-.71-.73-1.43-1.45-2.15-2.16a.53.53 0 0 0 -.8-.05q-1 1-2.07 2.07a.7.7 0 0 0 -.27.75c.11.35.43.32.71.32zm-7 0h2.09c.28 0 .6 0 .71-.33a.74.74 0 0 0 -.28-.75c-.64-.64-1.28-1.27-1.91-1.91a.71.71 0 0 0 -1.16 0l-2 2c-.17.17-.37.35-.26.63s.42.35.72.35z" fill="#bf272e"/><path d="m264 228.9c0 .31-.16.44-.47.46l.42.73h-.42l-.38-.73h-.27v.73h-.38v-1.72h.83c.4 0 .67.07.67.53m-.66.2c.19 0 .3 0 .3-.25s-.22-.18-.39-.18h-.37v.43zm-.18-1.51a1.66 1.66 0 1 1 -1.65 1.66 1.65 1.65 0 0 1 1.65-1.66m0 2.92a1.27 1.27 0 1 0 -1.26-1.26 1.22 1.22 0 0 0 1.26 1.26m-10.46-18.73c5.52 0 9 6.92 3 11l5.2 7.32h-5.46l-4.08-5.62v5.62h-4.9v-18.32h6.27m0 7.77a1.77 1.77 0 0 0 0-3.53h-1.42v3.53zm-12.5 3.45h4.63v-4.1h-4.64v-2.89h5v-4.22h-10.11v18.31h10.2v-4.3h-5.07v-2.8zm-43.34-11.76a9.54 9.54 0 1 1 -9.44 9.54 9.49 9.49 0 0 1 9.44-9.54m0 14.24a4.72 4.72 0 1 0 -4.25-4.7 4.49 4.49 0 0 0 4.25 4.7m-22.95-13.7v18.31h5v-6.53l5.62 6.53h6.62l-8.26-9.59 7.22-8.72h-6.48l-4.73 5.45v-5.45zm43.27 6.42h-5.05v-6.42h-5v18.31h5v-6.81h5.05v6.81h5v-18.31h-5zm11.25 7.21h5.62v4.68h-10.62v-18.31h5z" fill="#fff"/><path d="m173.94 234.05h1.66v7.06h-1.66zm2.67 0h1.91l1.36 4.59v-4.59h1.54v7.06h-1.87l-1.46-4.87v4.87h-1.48zm9.42 3.06h.46c.66 0 .82-.41.82-.88s-.18-1-.85-1h-.46v1.84zm-1.66-3.06h2.57a1.93 1.93 0 0 1 2.09 2.14c0 1.26-.61 2.15-2.27 2.15h-.76v2.77h-1.66v-7.06zm10 3.53c0 2-.14 3.66-2.49 3.66-2.18 0-2.48-1.42-2.48-3.66s.3-3.67 2.48-3.67c2.35 0 2.49 1.71 2.49 3.67m-3.25 0c0 1.94.09 2.56.75 2.56s.78-.62.78-2.56-.1-2.56-.78-2.56-.75.62-.75 2.56m3.62-3.53h1.66l.61 5 .73-5h1.55l.79 5 .59-5h1.6l-1.23 7.06h-1.83l-.73-5-.68 5h-1.8l-1.24-7.06zm8.22 0h4.08v1.34h-2.42v1.42h2.27v1.34h-2.27v1.61h2.53v1.35h-4.15v-7.06zm5 0h2.78a1.69 1.69 0 0 1 1.9 1.84c0 1-.41 1.53-1.19 1.72 1.07.16 1.11.81 1.14 1.76 0 1.39.09 1.53.32 1.63v.09h-1.81a3.31 3.31 0 0 1 -.18-1.44c0-1.22-.17-1.48-.69-1.48h-.64v2.92h-1.65v-7.06zm1.65 3h.52a.81.81 0 0 0 .85-.92c0-.52-.2-.89-.86-.89h-.51v1.76zm8.92 1.93v.25c0 .53.14.94.73.94s.75-.44.75-.84c0-1.52-3-.67-3-3.31 0-1.13.61-2.08 2.32-2.08s2.25.85 2.25 1.93v.13h-1.6a1.53 1.53 0 0 0 -.14-.75.55.55 0 0 0 -.5-.24c-.43 0-.67.24-.67.76 0 1.48 3 .72 3 3.22 0 1.61-.89 2.24-2.41 2.24-1.22 0-2.32-.36-2.32-1.83v-.4zm3.93-4.9h1.66v7.06h-1.66zm2.68 0h1.86l1.37 4.59v-4.59h1.63v7.06h-1.88l-1.45-4.87v4.87h-1.48v-7.06zm8.75 2.45c0-1-.12-1.48-.67-1.48s-.73.63-.73 2.48c0 2.09.07 2.64.77 2.64s.69-.7.69-1.8h1.6v.25c0 1.52-.43 2.65-2.48 2.65s-2.29-1.59-2.29-3.71c0-1.81.1-3.62 2.45-3.62 1.46 0 2.26.63 2.26 2.29v.3zm2.4-2.45h4.09v1.34h-2.43v1.42h2.28v1.34h-2.28v1.61h2.53v1.35h-4.19zm7.4 2.2h-1.35v-1h.21c1.25 0 1.55-.66 1.63-1.1h1.17v7h-1.66v-4.86zm4.7 1.36c.5 0 .6-.49.6-1.12 0-.83-.12-1.33-.61-1.33s-.61.45-.61 1.21.1 1.24.62 1.24m-.54 1.86a1.08 1.08 0 0 0 .1.51.41.41 0 0 0 .4.22c.56 0 .7-.44.7-2a1.26 1.26 0 0 1 -1.24.61c-1.07 0-1.68-.6-1.68-2.17 0-1.4.44-2.55 2.29-2.55 2.07 0 2.31 1.31 2.31 3.41 0 2.33-.16 3.72-2.43 3.72-1.26 0-2-.51-2-1.77zm3.32-3v-.23q0-2.1 2.25-2.1c1.7 0 2.17.86 2.17 1.95a2.59 2.59 0 0 1 -1.11 2.28 6.48 6.48 0 0 0 -1.36 1.48h2.48v1.29h-4.47a4.15 4.15 0 0 1 1.58-3.16c1.2-1 1.22-1.35 1.22-1.87s-.11-.92-.59-.92-.63.75-.63 1.28zm9.66 1.24c0 2-.23 3.56-2.3 3.56s-2.3-1.31-2.3-3.56c0-2 .22-3.57 2.3-3.57s2.3 1.31 2.3 3.57m-2.94 0c0 2 .08 2.51.64 2.51s.64-.54.64-2.51-.08-2.53-.64-2.53-.64.52-.64 2.53m4.05 3.41a.8.8 0 0 0 .8-.8.8.8 0 1 0 -.8.8m-47.76 0a.8.8 0 0 1 -.8-.8.8.8 0 1 1 .8.8" fill="#fff"/><path d="m94.43 167.08a.55.55 0 0 1 -.49.45h-3.71a.54.54 0 0 1 -.55-.61l.77-4.22c.07-.34.25-.56.56-.56h7.32l.63-3.43h-9.61a1.64 1.64 0 0 0 -1.62 1.29l-.09.51-1.32 7.14-.22 1.23a1.73 1.73 0 0 0 0 .75 1.79 1.79 0 0 0 1.75 1.3h7.27a1.88 1.88 0 0 0 1.88-1.45l1.08-5.87h-5.58l-.43 2.45h2.55l-.19 1zm-48.09-8.37-2.57 13.94-8.88-12.87-3.22 17.56h3.45l1.6-8.67 6 8.67h3.77l3.43-18.63zm-3.19 11 3.17-17.33h-3.38l-1.61 8.81-6.09-8.81h-3.8l-3.44 18.62h3.57l2.6-14.31 9 13zm-21.15-7.57h6.15l.64-3.43h-9.57l-2.22 12.29h9.5l.63-3.44h-6.13l.28-1.47h6.12l.46-2.45h-6.15l.28-1.47zm32.19 0h6l.64-3.43h-9.43l-2.26 12.29h9.48l.62-3.44h-6.11l.28-1.47h6.11l.45-2.45h-6l.25-1.47zm64.81-3.43-1.22 6.5-3.68-6.5h-2.79l-2.31 12.29h3.18l1.23-6.7 3.73 6.7h2.76l2.26-12.26zm-104 4.9h-3c-.48 0-.64-.34-.57-.76a.86.86 0 0 1 .84-.71h5l.64-3.43h-8.03a1.64 1.64 0 0 0 -1.6 1.29v.14l-.73 4a1.62 1.62 0 0 0 .76 1.71 1.71 1.71 0 0 0 .89.22h3a.65.65 0 0 1 .58.77.74.74 0 0 1 -.85.7h-5l-.68 3.46h7.75a1.86 1.86 0 0 0 1.81-1.41 41.46 41.46 0 0 0 .75-4.33 1.63 1.63 0 0 0 -1.62-1.62zm71.23-2.9-1.6 8.85a2.1 2.1 0 0 1 -2 1.41h-7.75a2 2 0 0 1 -1.95-2.51c0-.08 1.52-8.35 1.52-8.35a1.83 1.83 0 0 1 1.8-1.4h8.25a1.57 1.57 0 0 1 1.69 1.64v.36zm-13.23-.09-.51 2.72v.11a1.59 1.59 0 0 1 -1.38 1.27 1.6 1.6 0 0 1 .85 1.47 1.64 1.64 0 0 1 0 .22c0 .08-.58 3.15-.58 3.15-.14.79-.74 1.41-2.21 1.41h-9.17l2.26-12.26h9.14a1.53 1.53 0 0 1 1.6 1.65 2.11 2.11 0 0 1 0 .26zm30.13 1.52h6.1l.64-3.43h-9.5l-2.27 12.29h9.49l.65-3.44h-6.13l.27-1.47h6.12l.45-2.45h-6.09l.27-1.47zm-34.5 0h-3.54l-.26 1.47h3.53a.77.77 0 0 0 .75-.72c.08-.44-.15-.74-.48-.75zm13.3-.49h-4.18c-.28 0-.42.24-.5.5l-.85 4.63a.6.6 0 0 0 .58.75h4.12a.61.61 0 0 0 .55-.49l.86-4.63a.61.61 0 0 0 -.58-.76zm-14.05 4.41h-3.55l-.27 1.47h3.56a.78.78 0 0 0 .75-.73c.06-.38-.12-.74-.49-.74z" fill="#fff"/><path d="m202.22 154.54 1.5 4.79c0 .08 0 .16-.12.16h-3c-.12 0-.16 0-.16-.16l1.45-4.79a.13.13 0 0 1 .13-.12c.08 0 .12 0 .16.12zm46.6 3.25a22.56 22.56 0 0 0 -.25 3.49 18.84 18.84 0 0 0 .25 3.45c.17 1 .83 1.38 1.87 1.38s1.71-.29 1.91-1.33a20.06 20.06 0 0 0 .21-3.5 26.32 26.32 0 0 0 -.21-3.53c-.16-1-.83-1.34-1.87-1.34s-1.74.34-1.91 1.38zm2 9.61c-4 0-6.12-2.25-6.12-6.08s2.16-6 6.12-6 6.11 2.08 6.11 6-2.2 6.08-6.11 6.08zm-6.82-4.12c0 2-1.7 3.49-3.91 3.91a15.83 15.83 0 0 1 -6.45-.29c-.12 0-.2-.13-.2-.25v-3.37a.28.28 0 0 1 .29-.29h1.54a.28.28 0 0 1 .29.29v.54c0 1.08.08 2.37 2.08 2.37 1.74 0 2.2-.71 2.33-1.29a1.71 1.71 0 0 0 -1.46-2.12c-1.12-.29-1.66-.33-2.95-.75-2.91-.87-2.79-5.82 1.16-6.49a16 16 0 0 1 6.33.29c.12 0 .2.13.2.25v2.46a.28.28 0 0 1 -.29.29h-1.37a.28.28 0 0 1 -.29-.29v-.21c0-.67-.13-1.79-2.08-1.79s-2 1-2 1.46.12 1.08 1.41 1.37a21.46 21.46 0 0 1 2.83.75 3.35 3.35 0 0 1 2.58 3.16zm-31.86 2.29a.29.29 0 0 1 -.3.29h-1.34a.27.27 0 0 1 -.25-.21l-3.78-11.65a1.68 1.68 0 0 0 -1.58-1.37h-3.62a.88.88 0 0 0 -.83.7l-3.71 12.32a.46.46 0 0 1 -.41.25h-1.92a.28.28 0 0 0 -.29.29v.66a.29.29 0 0 0 .29.3h6.6a.29.29 0 0 0 .29-.3v-.66a.28.28 0 0 0 -.29-.29h-2a.32.32 0 0 1 -.29-.29v-.09l1.17-3.95a.22.22 0 0 1 .2-.12h3.91c.09 0 .17 0 .17.12l1.25 3.95v.09a.29.29 0 0 1 -.29.29h-2a.28.28 0 0 0 -.29.29v.66a.29.29 0 0 0 .29.3h14.15a.33.33 0 0 0 .33-.3v-.66a.32.32 0 0 0 -.33-.29h-1.21a.32.32 0 0 1 -.33-.29v-11.4a1.57 1.57 0 0 0 -1.54-1.58h-3.62a.31.31 0 0 0 -.29.33v.62a.28.28 0 0 0 .29.29h1c.12 0 .33 0 .33 1.42l.09 10.32zm46.47 0a.29.29 0 0 1 -.3.29h-1.08a.28.28 0 0 0 -.29.29v.66a.29.29 0 0 0 .29.3h6.28a.29.29 0 0 0 .3-.3v-.66a.29.29 0 0 0 -.3-.29h-.91a.28.28 0 0 1 -.29-.29v-6.78a1.63 1.63 0 0 1 1.62-1.63 1.66 1.66 0 0 1 1.66 1.63v6.78a.28.28 0 0 1 -.29.29h-.75a.28.28 0 0 0 -.29.29v.66a.29.29 0 0 0 .29.3h6.29a.29.29 0 0 0 .29-.3v-.66a.28.28 0 0 0 -.29-.29h-1.25a.28.28 0 0 1 -.29-.29v-7c0-2.17-1.75-3.08-3.66-3.08a4.29 4.29 0 0 0 -3.21 1.12c-.16.08-.21 0-.25-.08a1.58 1.58 0 0 0 -1.45-.92h-3.58a.28.28 0 0 0 -.29.29v.63a.28.28 0 0 0 .29.29h1c.21 0 .42.21.42 8.78zm-31.5-8.78h-1a.29.29 0 0 1 -.29-.29v-.63a.29.29 0 0 1 .29-.29h3.58a1.58 1.58 0 0 1 1.58 1.58v8.41a.29.29 0 0 0 .29.29h1.25a.28.28 0 0 1 .29.29v.66a.29.29 0 0 1 -.29.3h-6.61a.29.29 0 0 1 -.3-.3v-.66a.29.29 0 0 1 .3-.29h1.08a.29.29 0 0 0 .29-.29v-8.2c0-.29-.08-.58-.42-.58zm-7.69-3h-1a.29.29 0 0 1 -.3-.29v-.62a.32.32 0 0 1 .3-.33h3.57a1.57 1.57 0 0 1 1.58 1.58v11.4a.29.29 0 0 0 .3.29h1.24a.28.28 0 0 1 .29.29v.66a.29.29 0 0 1 -.29.3h-6.61a.29.29 0 0 1 -.29-.3v-.66a.28.28 0 0 1 .29-.29h1.08a.28.28 0 0 0 .29-.29v-11.28a.45.45 0 0 0 -.41-.42z" fill="#373894" fill-rule="evenodd"/><path d="m213 176.8a.18.18 0 0 1 -.17.17h-.58a.11.11 0 0 0 -.12.12v.38c0 .08 0 .16.12.16h3.37c.08 0 .17 0 .17-.12v-.38c0-.08-.09-.12-.17-.12h-.5a.18.18 0 0 1 -.16-.17v-3.62a.9.9 0 0 1 .87-.87.87.87 0 0 1 .87.87v3.62c0 .08 0 .17-.12.17h-.42c-.08 0-.16 0-.16.12v.38a.17.17 0 0 0 .16.16h3.33c.08 0 .17 0 .17-.12v-.38c0-.08-.09-.12-.17-.12h-.62a.16.16 0 0 1 -.17-.17v-3.74c0-1.17-.92-1.67-2-1.67a2.28 2.28 0 0 0 -1.7.63c-.08 0-.13 0-.13-.05a.92.92 0 0 0 -.79-.5h-1.91c-.08 0-.12.09-.12.17v.28c0 .09 0 .17.12.17h.58c.13 0 .21.08.21 4.66zm52 0a.18.18 0 0 1 -.16.17h-.59c-.08 0-.16 0-.16.12v.38a.17.17 0 0 0 .16.16h3.37c.09 0 .13 0 .13-.12v-.38c0-.08 0-.12-.13-.12h-.49a.18.18 0 0 1 -.17-.17v-3.62a.9.9 0 0 1 .87-.87.88.88 0 0 1 .88.87v3.62a.16.16 0 0 1 -.17.17h-.37c-.09 0-.17 0-.17.12v.38a.17.17 0 0 0 .17.16h3.32c.09 0 .17 0 .17-.12v-.38c0-.08-.08-.12-.17-.12h-.66c-.09 0-.13-.09-.13-.17v-3.74c0-1.17-.95-1.67-1.95-1.67a2.23 2.23 0 0 0 -1.71.63c-.08 0-.12 0-.16-.05a.83.83 0 0 0 -.75-.5h-1.92a.18.18 0 0 0 -.16.17v.28a.17.17 0 0 0 .16.17h.54c.13 0 .25.08.25 4.66zm-38.4 0a.18.18 0 0 1 -.16.17h-.58c-.09 0-.17 0-.17.12v.38c0 .08.08.12.17.12h3.37c.08 0 .12-.08.12-.16v-.34c0-.12 0-.16-.12-.16h-.5a.18.18 0 0 1 -.17-.17v-3.58a1 1 0 0 1 1-.87.94.94 0 0 1 .91.87v3.58c0 .08 0 .17-.12.17h-.5c-.09 0-.17 0-.17.12v.38c0 .08 0 .12.17.12h3.37a.17.17 0 0 0 .16-.16v-.34a.15.15 0 0 0 -.16-.16h-.58a.16.16 0 0 1 -.17-.17v-3.58a.91.91 0 0 1 .91-.87 1 1 0 0 1 1 .87v3.58a.16.16 0 0 1 -.17.17h-.33c-.12 0-.16 0-.16.12v.38a.11.11 0 0 0 .12.12h3.33a.17.17 0 0 0 .16-.16v-.34a.15.15 0 0 0 -.16-.16h-.67c-.08 0-.12-.09-.12-.17v-3.74a1.91 1.91 0 0 0 -2.08-1.71 2.93 2.93 0 0 0 -2 .87c0 .09-.12.09-.16 0a2.08 2.08 0 0 0 -1.75-.87 2.5 2.5 0 0 0 -1.71.62c-.08.09-.12.09-.16 0a.83.83 0 0 0 -.75-.5h-1.92a.18.18 0 0 0 -.16.17v.48a.17.17 0 0 0 .16.17h.55c.12 0 .24.08.24 4.66zm-25.54 0a.18.18 0 0 1 -.17.17h-.58c-.08 0-.16 0-.16.12v.38c0 .08.08.12.16.12h3.5c.08 0 .12-.08.12-.16v-.34c0-.12 0-.16-.12-.16h-.63a.18.18 0 0 1 -.16-.17v-3.2a1.07 1.07 0 0 1 .66-1.09c.25-.12.75-.25.79.17v.67c0 .08.09.12.17.12h.87c.09 0 .17 0 .17-.12v-1.54a.34.34 0 0 0 -.12-.21 2 2 0 0 0 -1.17-.17 2.28 2.28 0 0 0 -1.33.67s-.08 0-.08 0a.82.82 0 0 0 -.84-.59h-1.33v-1.47a.17.17 0 0 0 -.16-.17h-6.41a.15.15 0 0 0 -.17.17v2c0 .09 0 .17.13.17h.91a.15.15 0 0 0 .17-.17v-1.33a.23.23 0 0 1 .25-.21h.54a.21.21 0 0 1 .21.21v6.16a.19.19 0 0 1 -.17.17h-.54c-.08 0-.17 0-.17.12v.38c0 .08.05.12.17.12h3.83c.08 0 .16 0 .16-.12v-.38c0-.08-.08-.12-.16-.12h-.67a.18.18 0 0 1 -.16-.17v-6.16a.23.23 0 0 1 .25-.21h.54a.2.2 0 0 1 .2.21v1.33a.18.18 0 0 0 .17.17h1.08c.13 0 .21.08.21 4.66zm8.07-.42v-2c0-.25-.16-.38-.46-.34a1.26 1.26 0 0 0 -.66.3 2 2 0 0 0 -.5 1.66.89.89 0 0 0 1 .83c.5 0 .62-.25.62-.46zm-.87-2.87c.79-.25.79-.58.79-.79s-.17-.66-1-.66-.92.58-.92 1.16v.13a.17.17 0 0 1 -.16.16h-.83a.17.17 0 0 1 -.17-.16v-1.54s0-.13.12-.13a8.75 8.75 0 0 1 3.17-.21c.83.17 1.83.46 1.83 1.59v3.74c0 .08 0 .17.12.17h.63a.15.15 0 0 1 .16.16v.34a.17.17 0 0 1 -.16.16h-4.04c-2.87 0-2.79-2.66-1.08-3.53a11.42 11.42 0 0 1 1.58-.59zm17.22 2a2.23 2.23 0 0 1 -2.08 2.08 8.7 8.7 0 0 1 -3.41-.12.19.19 0 0 1 -.13-.17v-1.79c0-.08.09-.12.17-.12h.83c.09 0 .13 0 .13.12v.29c0 .59.08 1.25 1.12 1.25s1.17-.37 1.25-.66a.93.93 0 0 0 -.79-1.13c-.58-.16-.87-.21-1.58-.41-1.54-.46-1.46-3.08.62-3.46a8.77 8.77 0 0 1 3.37.17s.13.08.13.12v1.34a.18.18 0 0 1 -.17.16h-.75c-.08 0-.12-.08-.12-.16v-.13c0-.33-.09-1-1.13-1s-1.08.59-1.08.79.09.59.75.71a7.4 7.4 0 0 1 1.5.42 1.76 1.76 0 0 1 1.37 1.66zm21.59 0a2.23 2.23 0 0 1 -2.08 2.08 8.68 8.68 0 0 1 -3.41-.12.18.18 0 0 1 -.12-.17v-1.79c0-.08.08-.12.16-.12h.79c.13 0 .17 0 .17.12v.29c0 .59 0 1.25 1.12 1.25.92 0 1.17-.37 1.25-.66a.93.93 0 0 0 -.79-1.13c-.58-.16-.87-.21-1.58-.41-1.54-.46-1.5-3.08.62-3.46a8.8 8.8 0 0 1 3.37.17s.09.08.09.12v1.34c0 .08 0 .16-.13.16h-.75a.17.17 0 0 1 -.16-.16v-.13c0-.33 0-1-1.08-1s-1.09.59-1.09.79.09.59.75.71a8.21 8.21 0 0 1 1.5.42 1.75 1.75 0 0 1 1.37 1.66zm12.73-2.87a17.1 17.1 0 0 0 -.12 1.83 11.76 11.76 0 0 0 .12 1.87c.09.54.46.71 1 .71s.92-.17 1-.71a7.75 7.75 0 0 0 .13-1.87c0-.66-.05-1.37-.09-1.87s-.46-.71-1-.71a.87.87 0 0 0 -1 .75zm.88 5.08a2.93 2.93 0 0 1 -3.25-3.21c0-2.12 1.17-3.2 3.25-3.2s3.28 1.08 3.28 3.2-1.16 3.21-3.28 3.21zm-7.53-2.21a2.23 2.23 0 0 1 -2 2.08 8.9 8.9 0 0 1 -3.45-.12.21.21 0 0 1 -.09-.17v-1.79c0-.08 0-.12.13-.12h.83c.08 0 .17 0 .17.12v.29c0 .59 0 1.25 1.08 1.25s1.16-.37 1.25-.66a.9.9 0 0 0 -.8-1.13c-.58-.16-.87-.21-1.58-.41-1.49-.46-1.45-3.08.67-3.46a8.6 8.6 0 0 1 3.33.17.13.13 0 0 1 .12.12v1.34a.17.17 0 0 1 -.16.16h-.71a.18.18 0 0 1 -.17-.16v-.13c0-.33 0-1-1.12-1s-1 .59-1 .79 0 .59.71.71a8.9 8.9 0 0 1 1.54.42 1.77 1.77 0 0 1 1.33 1.66zm1.29-3.2a.2.2 0 0 0 -.21-.21h-.58c-.09 0-.13-.08-.13-.17v-.33c0-.08 0-.17.13-.17h1.91a.84.84 0 0 1 .83.84v4.49a.19.19 0 0 0 .17.17h.66c.09 0 .17 0 .17.12v.38c0 .08-.08.12-.17.12h-3.49a.15.15 0 0 1 -.17-.16v-.38c0-.08 0-.12.17-.12h.54a.19.19 0 0 0 .17-.17v-4.45zm-16.19 0a.23.23 0 0 0 -.25-.21h-.54a.17.17 0 0 1 -.16-.17v-.33a.18.18 0 0 1 .16-.17h1.92a.84.84 0 0 1 .83.84v4.49a.18.18 0 0 0 .17.17h.66c.08 0 .13 0 .13.12v.38c0 .08-.05.12-.13.12h-3.54a.17.17 0 0 1 -.16-.16v-.38c0-.08.08-.12.16-.12h.59a.18.18 0 0 0 .16-.17v-4.45z" fill="#373894" fill-rule="evenodd"/><path d="m180.17 164.07c-3.07-3.87-8.61-3.37-10.15 1.33a.15.15 0 0 1 -.16.13.2.2 0 0 1 -.21-.21c-.08-9.11 10.69-10.07 13.94-4.25a3.41 3.41 0 0 1 .33 1.25 2.31 2.31 0 0 1 -2.29 2.29 2 2 0 0 1 -1.46-.54z" fill="#ec1a3b" fill-rule="evenodd"/><path d="m174 165.61c3.08 3.87 8.61 3.37 10.15-1.33 0-.09.08-.13.16-.13a.2.2 0 0 1 .21.21c.09 9.11-10.69 10.07-13.93 4.24a3 3 0 0 1 -.34-1.24 2.28 2.28 0 0 1 2.29-2.29 2 2 0 0 1 1.46.54z" fill="#373894" fill-rule="evenodd"/><path d="m164.32 169.23a13.31 13.31 0 0 1 -.7-4.37 13.49 13.49 0 0 1 25.21-6.7 3 3 0 0 1 .29 1.17 2.5 2.5 0 0 1 -2.5 2.49 2.07 2.07 0 0 1 -1.74-.75c-7.91-10.44-21.85-2.95-20.1 8.07a.23.23 0 0 1 -.21.25c-.12.05-.2 0-.25-.16z" fill="#373894" fill-rule="evenodd"/><path d="m189.87 160.45a13.51 13.51 0 0 1 -24.51 11.07 2.81 2.81 0 0 1 -.29-1.17 2.51 2.51 0 0 1 2.5-2.49 2.15 2.15 0 0 1 1.75.74c7.9 10.45 21.84 3 20.09-8.07a.23.23 0 0 1 .21-.25c.12 0 .21.05.25.17z" fill="#ec1a3b" fill-rule="evenodd"/><path d="m188.4 175.32a1.15 1.15 0 0 1 .56.15 1.07 1.07 0 0 1 .44.43 1.19 1.19 0 0 1 .15.58 1.16 1.16 0 0 1 -.15.57 1 1 0 0 1 -.43.43 1.16 1.16 0 0 1 -.57.15 1.19 1.19 0 0 1 -.58-.15 1.11 1.11 0 0 1 -.43-.43 1.16 1.16 0 0 1 -.15-.57 1.1 1.1 0 0 1 .16-.58 1 1 0 0 1 .43-.43 1.16 1.16 0 0 1 .57-.15zm0 .19a1 1 0 0 0 -.84.48 1 1 0 0 0 0 1 .81.81 0 0 0 .36.35.91.91 0 0 0 .48.13 1 1 0 0 0 .48-.13.84.84 0 0 0 .35-.35 1 1 0 0 0 0-1 .93.93 0 0 0 -.36-.35.9.9 0 0 0 -.47-.13zm-.51 1.61v-1.25h.43a.8.8 0 0 1 .31 0 .28.28 0 0 1 .16.12.32.32 0 0 1 0 .42.42.42 0 0 1 -.26.11.3.3 0 0 1 .11.07 1.13 1.13 0 0 1 .18.24l.15.25h-.24l-.11-.2a1.26 1.26 0 0 0 -.21-.29.25.25 0 0 0 -.16 0h-.12v.53zm.2-.7h.24a.35.35 0 0 0 .24-.06.17.17 0 0 0 .07-.13.17.17 0 0 0 0-.1.31.31 0 0 0 -.09-.07h-.2-.23v.38z" fill="#373894" fill-rule="evenodd"/><path d="m273.9 175.32a1.21 1.21 0 0 1 .57.15 1 1 0 0 1 .43.43 1.19 1.19 0 0 1 .15.58 1.16 1.16 0 0 1 -.15.57 1 1 0 0 1 -.43.43 1.16 1.16 0 0 1 -.57.15 1.22 1.22 0 0 1 -.58-.15 1 1 0 0 1 -.42-.43 1.07 1.07 0 0 1 -.16-.57 1.1 1.1 0 0 1 .16-.58 1 1 0 0 1 .43-.43 1.21 1.21 0 0 1 .57-.15zm0 .19a1 1 0 0 0 -.48.13.93.93 0 0 0 -.36.35 1 1 0 0 0 0 1 .93.93 0 0 0 .36.35 1 1 0 0 0 1 0 .93.93 0 0 0 .36-.35 1.07 1.07 0 0 0 .12-.48 1 1 0 0 0 -.13-.49.81.81 0 0 0 -.36-.35.9.9 0 0 0 -.47-.13zm-.51 1.61v-1.25h.43a.85.85 0 0 1 .32 0 .29.29 0 0 1 .15.12.32.32 0 0 1 0 .42.41.41 0 0 1 -.25.11l.1.07a1.13 1.13 0 0 1 .18.24l.16.25h-.25l-.11-.2a1.26 1.26 0 0 0 -.21-.29.25.25 0 0 0 -.16 0h-.12v.53zm.2-.7h.25a.33.33 0 0 0 .23-.06.15.15 0 0 0 .07-.13.17.17 0 0 0 0-.1.22.22 0 0 0 -.09-.07.75.75 0 0 0 -.2 0h-.23v.38z" fill="#373894" fill-rule="evenodd"/><path d="m227.63 115-.85-6.72c-.05-.37-.1-.63-.79-.63h-3.58c-.45 0-.67 0-.83.31l-3.92 7.13c-.16.29 0 .53.25.53h2.31a.62.62 0 0 0 .63-.34c.22-.4.43-.83.61-1.19a.1.1 0 0 1 .08 0h3s.08 0 .08.07l.11 1a.46.46 0 0 0 .54.48h1.9c.38-.02.52-.21.46-.64zm-3.33-2.73h-1.83s-.06 0-.05-.06l1.54-3s.08-.07.09 0l.33 3c.01.04-.02.06-.08.06z" fill="#d70a35"/><path d="m260.32 115-.85-6.72c-.05-.37-.1-.63-.79-.63h-3.58c-.45 0-.67 0-.83.31l-3.91 7.13c-.17.29 0 .53.25.53h2.3a.63.63 0 0 0 .63-.34c.22-.41.44-.83.61-1.19a.09.09 0 0 1 .09 0h3s.08 0 .08.07l.11 1a.46.46 0 0 0 .54.48h1.91c.36-.02.51-.21.44-.64zm-3.32-2.73h-1.83s-.06 0 0-.06l1.54-3s.08-.07.09 0l.33 3s-.08.06-.13.06z" fill="#d70a35"/><path d="m246.83 115.09.61-3.36c0-.18 0-.19-.11-.09l-2.79 3.65a.83.83 0 0 1 -.54.34h-.68a.43.43 0 0 1 -.39-.28l-1.35-3.7c-.06-.15-.11-.1-.13 0l-.65 3.56a.43.43 0 0 1 -.42.39h-2c-.3 0-.43-.16-.37-.46l1.37-7a.59.59 0 0 1 .66-.57h2.22c.41 0 .7.09.81.38l1.18 3.19c.06.16.08.16.17 0l2.53-3.22a.83.83 0 0 1 .77-.38h2.8c.49 0 .56.26.49.6l-1.35 7a.45.45 0 0 1 -.46.37h-1.93c-.45.14-.49-.14-.44-.42z" fill="#d70a35"/><path d="m234.37 111.16.54-3a.56.56 0 0 1 .66-.54h1.75c.33 0 .56.12.47.57l-1.35 6.82c-.08.44-.31.57-.59.57h-1.4a.62.62 0 0 1 -.57-.28l-1.9-3.22c0-.08-.08 0-.09 0l-.52 2.87c-.07.37-.17.64-.57.64h-2c-.33 0-.45-.17-.38-.5l1.3-6.92c.09-.47.34-.55.57-.55h1.45c.36 0 .54.14.77.53l1.75 3s.09.09.11.01z" fill="#d70a35"/><path d="m268.74 107.64h-5.58c-.63 0-.78.12-.85.52l-1.36 7c-.07.32 0 .46.37.49h2.07a.48.48 0 0 0 .53-.4c.17-.77.4-2 .45-2.25s0-.14.25-.14h1.55c.26 0 .36.12.31.48l-.31 1.87c0 .25.06.43.36.43s1.78 0 2 0 .55-.09.64-.59l.31-1.75a1.24 1.24 0 0 0 -.76-1.6c-.05 0 0-.05 0-.06a1.56 1.56 0 0 0 1.17-1.15 10.38 10.38 0 0 0 .27-1.37c.19-1.03-.43-1.48-1.42-1.48zm-1.56 2.08a7.9 7.9 0 0 1 -.19 1c-.08.37-.23.46-.75.46h-1.42c-.1 0-.12 0-.1-.11l.33-1.7s0 0 .06 0h1.74c.28-.02.35.1.33.35z" fill="#d70a35"/><path d="m214.77 110.35 2-2.5a.45.45 0 0 1 .4-.22h2.83c.39 0 .32.26.23.38l-4.09 4.9a.51.51 0 0 0 -.06.2l-.49 2.23c0 .24-.25.34-.52.34h-2.07c-.43 0-.46-.25-.4-.53l.39-2c0-.08 0-.11 0-.17l-2.68-4.98c-.08-.18 0-.33.27-.33h2.33a.49.49 0 0 1 .48.25l1.21 2.48c.05.07.11.03.17-.05z" fill="#d70a35"/><path d="m241.89 101.64 28.32-11.73v-7.13l-28.32 11.73z" fill="#d70a35"/><path d="m240.25 84.09-29.97-12.41v7.13l29.97 12.41 29.96-12.41v-7.13z" fill="#d70a35"/><path d="m210.28 89.91 28.32 11.73v-7.13l-28.32-11.73z" fill="#d70a35"/><path d="m95.87 0h195v53h-195z" fill="#fff"/><g clip-path="url(#Q)"><path d="m115.23 37.32 1 8.14h11l.6.42a3.65 3.65 0 0 0 2.08.62 3.76 3.76 0 0 0 2-.54l.72-.5h10.92l1-8.14 6.41-4.71a16.81 16.81 0 0 0 .47-4.18 21.54 21.54 0 0 0 -21.43-21.94c-12.21 0-21.56 9.82-21.56 21.94a17.19 17.19 0 0 0 .52 4.23l6.3 4.64" fill="#fff"/><path d="m109.57 32.23a15.07 15.07 0 0 1 -.43-4.07 20.84 20.84 0 0 1 41.67-.75v.75a15.48 15.48 0 0 1 -.43 4.07l-6.38 4.69-1 7.81h-10.59l-.67.5a3.06 3.06 0 0 1 -1.78.54 3.15 3.15 0 0 1 -1.88-.67l-.54-.37h-10.62l-1-7.81z" fill="#ffd300"/><path d="m109.57 32.23a15.07 15.07 0 0 1 -.43-4.07 20.84 20.84 0 0 1 41.67-.75v.75a15.48 15.48 0 0 1 -.43 4.07l-6.38 4.69-1 7.81h-10.59l-.67.5a3.06 3.06 0 0 1 -1.78.54 3.15 3.15 0 0 1 -1.88-.67l-.54-.37h-10.63l-1-7.81-6.35-4.69m18.32 8.83.9.68a2.21 2.21 0 0 0 1.19.46 2.36 2.36 0 0 0 1.19-.46l.89-.68h7.76l.81-6.42 6.17-4.5a6.87 6.87 0 0 0 .29-2.16 9.27 9.27 0 0 0 -.73-3.45v-.05l-11.17 11.28 10.75-13.26a8.67 8.67 0 0 0 -2.6-4.58l-.05-.05-9.67 16.77 8.51-18.32-.05-.06a8.6 8.6 0 0 0 -4.35-3.15l-5.93 20.89 4.28-21.72a8.91 8.91 0 0 0 -4.37-1.12 5.16 5.16 0 0 0 -1 .06l-.8 22.59-1-22.57c-.31 0-.61-.05-.92-.05a8.56 8.56 0 0 0 -4.27 1.14h-.08l4.52 21.67-5.94-20.88a8.58 8.58 0 0 0 -4.42 3.18l8.59 18.32-9.62-17a8.84 8.84 0 0 0 -2.84 4.69l10.81 13.42-11.2-11.33v.05a8.69 8.69 0 0 0 -.74 3.55 8.54 8.54 0 0 0 .28 2.19l6.29 4.6.78 6.25z" fill="#e42313"/><path d="m182.68 17.15a.06.06 0 1 1 -.08-.08v-.07a.11.11 0 0 1 .15 0 .06.06 0 0 1 0 .06.11.11 0 0 1 0 .08.09.09 0 0 1 -.07 0" fill-rule="evenodd"/><g fill="#005092"><path d="m177.52 19.49a2.84 2.84 0 0 0 -1.81-.68c-.5 0-1.17.3-1.17.88s.74.85 1.21 1l.68.21c1.46.43 2.59 1.17 2.59 2.87a3.59 3.59 0 0 1 -1.08 2.84 4.68 4.68 0 0 1 -3 1 6.56 6.56 0 0 1 -3.7-1.21l1.17-2.2a3.77 3.77 0 0 0 2.43 1.09c.68 0 1.36-.32 1.36-1.06s-1.08-1-1.66-1.2c-1.72-.49-2.86-.93-2.86-3a3.4 3.4 0 0 1 3.25-3.53h.39a7.3 7.3 0 0 1 3.29.87z"/><path d="m182.51 15.72v5.35a2.64 2.64 0 0 1 2.29-1.14c1.82 0 2.71 1.2 2.71 3v4.39h-2.51v-3.68c0-.85-.13-1.71-1.15-1.71s-1.36.86-1.36 1.71v3.67h-2.54v-11.59z"/><path d="m196.17 24.15h-5.34a1.41 1.41 0 0 0 1.22 1.59 1.09 1.09 0 0 0 .36 0 1.26 1.26 0 0 0 1.22-.68h2.46a3.52 3.52 0 0 1 -3.65 2.46c-2.37 0-4.14-1.36-4.14-3.82a3.94 3.94 0 0 1 7.88.16zm-2.36-1.46a1.52 1.52 0 0 0 -2.94 0z"/><path d="m196.98 15.72h2.54v11.58h-2.54z"/><path d="m200.84 15.72h2.54v11.58h-2.54z"/><path d="m211.94 24.99h3.28v2.32h-6.02v-10.53h2.74z"/><path d="m218.2 20.15v3.85c0 .91.23 1.55 1.28 1.55s1.27-.64 1.27-1.55v-3.85h2.54v4.31c0 2.37-1.67 3.09-3.81 3.09s-3.82-.72-3.82-3.09v-4.31z"/><path d="m224.47 15.72h2.53v5.13a2.92 2.92 0 0 1 2.22-.94 3.83 3.83 0 0 1 0 7.64 2.54 2.54 0 0 1 -2.22-1.05v.8h-2.5zm2.46 8a1.63 1.63 0 1 0 1.53-1.53 1.64 1.64 0 0 0 -1.53 1.53"/><path d="m236.26 21.32a2.45 2.45 0 0 1 2.31-1.27h.49v2.44a2 2 0 0 0 -1.08-.24c-1.41 0-1.76.94-1.76 2.17v2.89h-2.54v-7.16h2.54z"/><path d="m242.39 17.4a1.43 1.43 0 1 1 -1.39-1.4 1.42 1.42 0 0 1 1.42 1.43m-.16 9.91h-2.54v-7.19h2.54z"/><path d="m248.73 22.48a2.3 2.3 0 0 0 -1.32-.51 1.71 1.71 0 0 0 -1.74 1.69v.06a1.7 1.7 0 0 0 1.63 1.76h.15a2 2 0 0 0 1.28-.49v2.15a4.12 4.12 0 0 1 -1.79.41 3.78 3.78 0 0 1 -3.89-3.66v-.1a3.83 3.83 0 0 1 3.77-3.9h.23a3.52 3.52 0 0 1 1.68.42z"/><path d="m257.71 27.31h-2.53v-.81a2.54 2.54 0 0 1 -2.17 1 3.7 3.7 0 0 1 -3.62-3.75v-.08a3.64 3.64 0 0 1 3.48-3.8h.13a2.92 2.92 0 0 1 2.22.94v-.68h2.54zm-5.71-3.58a1.64 1.64 0 1 0 1.53-1.53 1.64 1.64 0 0 0 -1.53 1.53"/><path d="m261.52 21.07a2.49 2.49 0 0 1 2.3-1.15c1.92 0 2.71 1.21 2.71 3v4.42h-2.53v-3.55c0-.68.11-1.88-1.15-1.88-1 0-1.35.76-1.35 1.66v3.71h-2.5v-7.13h2.54z"/><path d="m270.64 27.31h-2.54v-5.07h-.82v-2.09h.82v-2.15h2.54v2.15h1.43v2.09h-1.43z"/><path d="m277.27 22a3.09 3.09 0 0 0 -1.36-.35c-.3 0-.8.12-.8.49s.8.56 1.15.62c1.18.24 2.07.8 2.07 2.13 0 1.88-1.72 2.67-3.39 2.67a5.66 5.66 0 0 1 -2.84-.83l.9-1.73a4 4 0 0 0 2 .72c.32 0 .8-.15.8-.54 0-.56-.8-.59-1.59-.79a1.81 1.81 0 0 1 -1.66-1.91c0-1.76 1.6-2.54 3.16-2.54a5.57 5.57 0 0 1 2.35.46z"/><path d="m171.52 30.52h3.88a5.26 5.26 0 0 1 .38 10.48h-4.26zm2.72 8.2h.61a2.76 2.76 0 0 0 3-2.94 2.78 2.78 0 0 0 -2.59-3h-1z"/><path d="m184.3 31.14a1.43 1.43 0 1 1 -1.42-1.43 1.42 1.42 0 0 1 1.41 1.43m-.15 9.9h-2.53v-7.16h2.53z"/><path d="m190.21 35.72a3.22 3.22 0 0 0 -1.36-.34c-.29 0-.8.12-.8.49s.8.55 1.15.62c1.18.24 2.07.79 2.07 2.12 0 1.88-1.71 2.67-3.39 2.67a5.57 5.57 0 0 1 -2.89-.83l.92-1.73a4.05 4.05 0 0 0 2 .67c.32 0 .8-.15.8-.54 0-.55-.8-.59-1.59-.79a1.81 1.81 0 0 1 -1.6-1.89c0-1.76 1.6-2.54 3.16-2.54a5.62 5.62 0 0 1 2.36.46z"/><path d="m195.07 41.04h-2.54v-5.07h-.83v-2.09h.83v-2.15h2.54v2.15h1.44v2.09h-1.44z"/><path d="m199.57 35.05a2.51 2.51 0 0 1 2.32-1.27h.49v2.45a2 2 0 0 0 -1.08-.23c-1.41 0-1.75.93-1.75 2.16v2.84h-2.55v-7.12h2.53z"/><path d="m205.7 31.14a1.43 1.43 0 1 1 -1.42-1.43 1.43 1.43 0 0 1 1.42 1.43zm-.15 9.9h-2.55v-7.16h2.54z"/><path d="m206.79 29.46h2.54v5.12a3 3 0 0 1 2.22-.93 3.82 3.82 0 0 1 0 7.63 2.52 2.52 0 0 1 -2.16-1v.72h-2.53zm2.45 8a1.64 1.64 0 1 0 1.53-1.53 1.63 1.63 0 0 0 -1.53 1.53"/><path d="m218.54 33.88v3.82c0 .91.23 1.55 1.27 1.55s1.27-.64 1.27-1.55v-3.82h2.54v4.31c0 2.36-1.66 3.09-3.81 3.09s-3.81-.73-3.81-3.09v-4.31z"/><path d="m227.67 41.04h-2.54v-5.07h-.83v-2.09h.83v-2.15h2.54v2.15h1.43v2.09h-1.43z"/><path d="m237.73 37.47c0 2.43-2 3.81-4.31 3.81s-4.32-1.36-4.32-3.81 2-3.82 4.32-3.82 4.31 1.35 4.31 3.82m-5.95 0a1.64 1.64 0 1 0 1.53-1.53 1.63 1.63 0 0 0 -1.53 1.53"/><path d="m241.07 35.05a2.49 2.49 0 0 1 2.31-1.27h.49v2.45a2 2 0 0 0 -1.07-.23c-1.41 0-1.76.93-1.76 2.16v2.84h-2.55v-7.12h2.51z"/></g></g></svg>