<svg height="252.05" viewBox="0 0 252 252.05" width="252" xmlns="http://www.w3.org/2000/svg"><g fill="#fafafa"><path d="m30.14 43.39c5.64-5.19 11.09-10.47 16.86-15.39a110.73 110.73 0 0 1 26-16.27 127 127 0 0 1 39.24-10.94 124.89 124.89 0 0 1 41.62 2.33 122.6 122.6 0 0 1 36 14.3 125.25 125.25 0 0 1 37.24 33.47c1.28 1.72 2.54 3.46 3.72 5.25a1.76 1.76 0 0 0 2.32.83 17.33 17.33 0 0 1 3.9-.74c2.44-.16 3.57 1.73 2.41 3.92-.68 1.28-1.33 2.58-2.11 3.8a2.86 2.86 0 0 0 0 3.23 123.69 123.69 0 0 1 12.43 35.28 126.09 126.09 0 0 1 1.92 31.85 118.58 118.58 0 0 1 -8.77 38.69c-1.31 3.16-3 6.16-4.07 9.4a25.26 25.26 0 0 1 -2.77 5.4 136.86 136.86 0 0 1 -25.14 31.37 126.12 126.12 0 0 1 -140.64 20 127 127 0 0 1 -23.37-15 125.25 125.25 0 0 1 -31-36.67 120.61 120.61 0 0 1 -14.22-40.5 126.57 126.57 0 0 1 17.38-87.73 2.26 2.26 0 0 0 .34-1.42c-.66-4.29-1.43-8.57-2.06-12.85-.08-.58.44-1.24.67-1.86.39.49 1 .92 1.12 1.47.56 2.16 1 4.35 1.46 6.53h.45c0-.61 0-1.23 0-1.85a5.26 5.26 0 0 1 .18-1.7c.18-.44.7-.73 1.07-1.09a4.88 4.88 0 0 1 .68 1.19c.13.61 0 1.27.12 1.89.08.46.37 1.22.61 1.23a2.1 2.1 0 0 0 1.54-.56 13 13 0 0 0 2.53-3.25c.47-1.08.27-2.45.49-3.67a7.82 7.82 0 0 1 .77-1.7l1 1.64zm175.35 15a188.65 188.65 0 0 0 24.5-.59c-.46-.85-.69-1.37-1-1.83a122.33 122.33 0 0 0 -27.12-28.67 124.18 124.18 0 0 0 -84.7-25.3 121.9 121.9 0 0 0 -35.66 8 125.2 125.2 0 0 0 -48.64 33.8 5.44 5.44 0 0 0 -1.38 5.52c.32 1.27.85 1.49 2.05 1.38 6.74-.63 13.46-1.32 20.23-1.7 5.74-.31 11.23 1.14 16.59 3.14a52.15 52.15 0 0 1 10.27 5.73 12.14 12.14 0 0 0 9.11 1.92 65.31 65.31 0 0 1 9.65-1.14c8.49-.28 17-.4 25.51-.48 6 0 12 0 18 .16a23.4 23.4 0 0 1 14.63 5.18 4.26 4.26 0 0 0 1.87.82c6.94 1.3 13.79 1.33 20.56-1.12a61 61 0 0 1 16.33-3.94c3-.22 6.09-.58 9.14-.88zm-185.34 3c-21.45 33.94-26.69 84.49-1.15 127.61 26.71 45.1 77.56 68.79 129.9 59.23 27.27-5 50.25-18 69.08-38.36a116.56 116.56 0 0 0 16.65-23.07c-.53-.14-.75-.22-1-.25-1.56-.19-3.59.57-4-2 0-.12-.26-.22-.41-.31-3.84-2.5-7.7-5-11.5-7.51-1.33-.89-2-.49-2.78.71-2.06 3.15-4.25 6.22-6.32 9.37a3.42 3.42 0 0 1 -3.82 1.68 47.24 47.24 0 0 0 -16.09.3c-7.65 1.26-15.23 3-22.9 4.14a157.46 157.46 0 0 1 -19 1.85c-5.63.15-7.9-2.79-7.29-7.91.1-.78.13-1.57.22-2.58-1.43-.08-2.7-.26-3.95-.2-3.64.17-7.3.27-10.92.71-5 .6-10 1.33-14.93 2.29-6.13 1.2-12.19 2.76-18.3 4a9.8 9.8 0 0 1 -8.57-2.09 16.54 16.54 0 0 0 -10.32-4.11c-7.33-.22-14.56.27-21.29 3.7-2.25 1.14-2.61 1.5-2.49 3.95v1.48l-.42.2c-1.36-1.73-2.71-3.48-4.1-5.19-.85-1-2-2-.29-3.22.14-.11.17-.44.16-.66a71 71 0 0 0 -.15-7.3c-.79-6.88-1.86-13.74-2.62-20.63-1-8.62-1.75-17.27-2.57-25.9-.29-3.05-.45-6.12-.69-9.17-.3-3.8-.65-7.6-.93-11.4-.52-6.93-.64-13.92-1.6-20.78-1.66-11.8-3.83-23.52-5.86-35.25a2.91 2.91 0 0 0 -1.36-2 3.2 3.2 0 0 0 -4.21 3.51 235.07 235.07 0 0 1 1.67 30.66c0 5.09-.32 10.22.24 15.26 1.23 11.16 3 22.26 3.51 33.51.34 8.1 1.11 16.18 1.7 24.27.36 4.91.75 9.81 1.11 14.72.08 1 .14 2-1.46 2.27-.13-.69-.31-1.34-.37-2-.62-7.85-1.26-15.7-1.83-23.55-.71-9.82-1.33-19.64-2.09-29.46-.23-3-.8-5.87-1.22-8.81h-.51c0 3.42.17 6.84 0 10.25-.52 9.08-1.35 18.15-1.78 27.23a133.77 133.77 0 0 0 2.11 29.08c.15.86.42 1.73-1 2.09a8.41 8.41 0 0 1 -.53-1.64c-.74-8.07-1.66-16.13-2.08-24.21-.24-4.6.33-9.25.58-13.87.42-7.75.94-15.5 1.3-23.26.22-4.68.38-9.38.25-14.06-.08-3.33-.77-6.64-1.05-10-.65-7.67-1.21-15.36-1.82-23-.32-3.31-.6-6.63-.91-10.36zm149.35 58.87-.21-.46c-3.67 1.89-7.34 3.8-11 5.68-2 1-3.9 2-5.93 2.87a2.16 2.16 0 0 1 -1.91-.61 2.11 2.11 0 0 1 -.18-2 2.31 2.31 0 0 0 -.33-3.14c-.59-.64-1.14-1.31-1.74-1.94-2.28-2.37-2.09-5.63.74-7.31 3-1.79 5.32-4 6.43-7.36.07-.22.28-.39.33-.61.42-2.14 1.19-4.3 1.15-6.44-.06-2.57-2.17-3.83-4.43-4.57-2.41-.78-5-1.22-7.28-2.21-5.78-2.46-9.18-3-15.3-2-1.28.22-2.7.32-2.84 2.21 0 .42-.84 1-1.38 1.12a14.66 14.66 0 0 1 -3.57.7 14.29 14.29 0 0 0 -8.21 2.88c-2.7 2-4.47 7-3 9.79 1 1.9 2.35 3.62 2.94 5.77a3.45 3.45 0 0 0 1.68 1.67c2.38 1.3 4.86 2.42 7.23 3.73 2 1.13 2.2 2.22 1 4.49-1.31 2.42-1.95 2.67-4.19 1.59-2.78-1.33-5.35-3-8.41-3.89-2.13-.62-4-2.26-5.87-3.62-2.29-1.66-4.44-3.51-6.65-5.29-.74-.59-1.51-.56-1.84.31-.22.55-.19 1.65.15 1.88a27.17 27.17 0 0 0 4.51 2.49c3 1.3 5.72 2.94 7.26 6.06.55 1.1 1.27 2.32 2.83 2.23 5.45-.34 8.89 3.68 13.12 6 .71.39 1.51.62 2.2 1 1.65 1 3.61 1.75 4.8 3.15 1.49 1.75-.1 4.26-2.94 4.52-4.87.44-8.51 2.95-12 6.09a12.5 12.5 0 0 1 -4.87 2.78 35.57 35.57 0 0 1 -7.72 1c-3.11.13-5.19-1.56-6.23-4.5a1.59 1.59 0 0 0 -1.14-.89c-3.13.13-6.25.34-9.36.59-2.69.22-3.22.82-2.57 3.41a6 6 0 0 1 -.74 4.64c-.6 1.06-1.28 2.07-1.86 3.14a11.62 11.62 0 0 0 -1.17 8.79 7.28 7.28 0 0 0 3.55 4.67c3.3 2 3.78 3.78 2.46 7.41a5.76 5.76 0 0 0 -.16 1.15 9.55 9.55 0 0 0 1.78.12q6.36-.84 12.71-1.76c1.27-.18 1.17-1.13.82-2-.67-1.63 0-2.63 1.36-3.48a22.06 22.06 0 0 0 2.63-2 4.65 4.65 0 0 0 .91-5.86c-1.68-2.39.12-4.86 2.2-5.46 1.06-.3 2.17-.4 3.22-.71a15 15 0 0 0 7.32-4c1.87-2 4-3.82 6-5.74a30.81 30.81 0 0 1 3.64-3.59 44.89 44.89 0 0 1 6.49-3.66 7.3 7.3 0 0 1 5.88-.62c2.78 1.13 5.53 2.37 8.19 3.75 3.32 1.72 6.3 4.11 10.21 4.55a6.82 6.82 0 0 1 5.19 3.12 49 49 0 0 0 3.58 5.43c1.48 1.74 1.11 3.24.41 5.1a9.35 9.35 0 0 0 2.44 10.66 3.1 3.1 0 0 1 .7 2.27c-.26 2.11-.12 2.39 2 2.87q5 1.14 9.94 2.35c1.59.39 1.93.08 2.23-1.62a5.28 5.28 0 0 1 1.18-2.77c2.18-2 4.5-3.9 6.85-5.72 2.85-2.21 4.32-8.5 1.68-11.69a3.76 3.76 0 0 1 -.49-4.49c.67-1.33.07-1.85-1.19-2.2-2.23-.62-4.4-1.43-6.64-2a48.47 48.47 0 0 0 -4.95-.92 1.75 1.75 0 0 0 -2.1 1.32c-1 2.45-3 3.54-5.43 2.64a29.5 29.5 0 0 1 -5.74-3.15c-2.94-1.92-5.69-4.16-8.71-6-2.82-1.68-5.9-2.91-8.81-4.45-1.83-1-2.16-2.52-.66-4a13.85 13.85 0 0 1 4.08-2.4c5.54-2.29 9.71-6.46 13.73-10.86zm66.43-52.87c-.42.46-.67.61-.7.79-.88 4.66-2.81 9.12-1.52 14.1 2.31 8.94 1.49 18.08 1.19 27.16a97.07 97.07 0 0 1 -1.22 10.16c-.49 3.48-.85 7-1.67 10.42-1.25 5.23-3 10.33-4.23 15.56a29.74 29.74 0 0 0 1.7 18.87c2.22 5.15 4.33 10.34 6.53 15.5a13.65 13.65 0 0 0 1.21 1.88c7.56-14.15 14.9-36.92 13-64.49a123 123 0 0 0 -14.29-49.95zm-202.1-10-.51.26c0 .78 0 1.57.15 2.34 1.11 7.67 2.28 15.33 3.36 23q.64 4.56 1 9.15c.84 10.21 1.6 20.42 2.42 30.63q.67 8.46 1.44 16.93 1.31 14.3 2.79 28.53c.21 2.1.7 4.16 1.06 6.24a6.08 6.08 0 0 0 1.08-2 60.23 60.23 0 0 1 2.54-6.64 27 27 0 0 0 3-13.59 47.15 47.15 0 0 0 -2-11.07c-1.45-5.17-2.16-10.17-.66-15.4 1.32-4.43 2.55-8.9 3.92-13.31 2.38-7.62 1.23-15-1.24-22.34-1.48-4.38-3.25-8.67-4.94-13a57.43 57.43 0 0 0 -12-18.55 17.2 17.2 0 0 0 -1.41-1.15zm174.7 56.93h2.39c3.67.05 7.68-3.39 8.05-7.12.81-8-3.1-14.23-11.66-15.33-1.57-.2-2.52.32-2.95 1.67a34.38 34.38 0 0 0 -1.36 5.75c-.54 4.1-.28 8.09 2.48 11.52.19.23.1.68.14 1-.37 0-.89.13-1.08-.06a8.83 8.83 0 0 1 -1.62-2 18.16 18.16 0 0 1 -1.76-11.75c.28-1.91.78-3.8 1.25-6-3.5 3-4.39 6.73-4.54 10.73-.17 4.2 2.3 7.27 4.72 10.44a4.44 4.44 0 0 1 -2.27-1.13c-4.47-4.54-5.14-9.94-3.14-15.89-.41.06-.49.05-.52.08a1.49 1.49 0 0 0 -.3.41 17.06 17.06 0 0 0 -.24 13.21c1.18 2.79 2.73 5.71 6 6.52 1.47.35 3.15-.17 4.73-.24 1.15-.13 1.98-.32 1.68-1.78zm-121.17-18.65a30.19 30.19 0 0 1 -12.12 13c.59.48.83.7 1.1.89 2.47 1.69 5.07 3.2 7.36 5.1 2.11 1.76 3.94 2.32 6.27 1a12.24 12.24 0 0 0 2.29-1.84c3.34-3.15 5.44-6.82 4.29-11.57a5 5 0 0 0 -1.93-2.84c-2.22-1.41-4.62-2.41-7.26-3.74zm113.22 22.55c-6.88-5.6-8.57-12.37-7.18-20-9.25 1.22-10.38 7.57-9.27 14.94-1.24.07-2.34-.21-2.91.22-2.15 1.62-4.12 3.47-6 5.08.57-.2 1.45-.46 2.31-.79 1.41-.54 2.78-1.16 4.19-1.68 1.58-.57 2.87-.37 3.46 1.47a14.87 14.87 0 0 0 .64 1.41c1 2.39 3.32 4.06 5.59 3.33a93.55 93.55 0 0 0 9.17-3.98zm-120.23-28.43c.18-2.32-.78-3.28-2.08-3.49a3.09 3.09 0 0 0 -2.34 1.13 10 10 0 0 0 -1.83 3.57 17.3 17.3 0 0 1 -4.55 7.27 14.72 14.72 0 0 0 -2.25 2.63c-.54.92-1.32 2-.34 3.17s2.08 1.42 3.62 0a59.45 59.45 0 0 0 6.69-7c1.84-2.27 3.28-4.89 3.08-7.28zm2.48-.91-.74.15c-.52 7.92-6 12.57-11.25 17.4 1.06 1.09 2.16.86 3.2 0a45.58 45.58 0 0 0 5-4.31c2.78-3.07 4.68-6.63 4.58-10.93a8.4 8.4 0 0 0 -.79-2.31zm-59.94-31-.87.05q.98 13.02 1.98 26.07h.36q-.74-13.1-1.47-26.17z"/><path d="m26.81 193.39c.81 1.31 2.46 2.11 2.48 4-2.45-.02-2.99-.86-2.48-4z"/><path d="m32 191.78 3-2.53c-.35 2.17-1.39 3.02-3 2.53z"/><path d="m94.6 169.16c-3.8-.22-7-1.5-8.9-5.06-2-3.72-2-7.36.61-10.76a6.48 6.48 0 0 1 2.92-2.34c3-.87 6.06-2.83 9.42-.65a5.37 5.37 0 0 1 2.24 7c-.41 1-.78 2.53-.34 3.38 2.55 4.99-.29 8.74-5.95 8.43z"/><path d="m190.55 161.13a17.55 17.55 0 0 1 -2.91 8.78c-2.82 4.14-9.39 4.89-12.61 1a3.84 3.84 0 0 1 -.29-5.23c.51-.77 1.23-1.41 1.66-2.21a3.68 3.68 0 0 0 .57-2.2c-1.14-5.9 4.34-8.67 8.51-8.78 1.65 0 2.66 1.28 3.21 2.59a56.63 56.63 0 0 1 1.86 6.05z"/><path d="m144.18 97.7a9 9 0 0 1 6.09 4.72 5.13 5.13 0 0 1 -1 5.83 55.86 55.86 0 0 1 -5.36 5.62 13.32 13.32 0 0 1 -3.89 2.2 3.89 3.89 0 0 1 -4.42-1.67 3.81 3.81 0 0 1 -.23-3.94 6.92 6.92 0 0 0 .45-3.59 6.69 6.69 0 0 1 3.82-7.57c1.52-.62 3.08-1.09 4.54-1.6z"/><path d="m133.88 108.92a6.83 6.83 0 0 1 -4.62 6.63 6.51 6.51 0 0 1 -7.62-3 23.82 23.82 0 0 1 -2.69-8c-.48-3.9 3.67-6.69 7.41-5.55 4.99 1.49 7.52 5.06 7.52 9.92z"/><path d="m132.14 115.1c1.44.55 2.53 1 3.64 1.37a4 4 0 0 1 2.33 5.36 2.16 2.16 0 0 1 -1.36.88c-1 .21-2.06.2-3.08.35a1.72 1.72 0 0 1 -2.23-1.77c.05-2.07.45-4.13.7-6.19z"/><path d="m142.28 128.29c1.45-1.44 3.8-1.48 6.09.38.35.28.26 1.12.43 2.05a5 5 0 0 0 -5.18-.27c-2.42 1-3.34.87-4.39-.63-2.15.24-4 .53-5.94.6-.4 0-1.17-.79-1.18-1.22 0-1.07.82-.8 1.52-.59 2.11.62 2.76.29 4.05-1.47a2.09 2.09 0 0 1 1.83-.4 14.75 14.75 0 0 1 2.77 1.55z"/><path d="m35.7 177.31 1.93 3.1a5.22 5.22 0 0 1 1 3.21 3.13 3.13 0 0 1 -1.63 2.38 3.16 3.16 0 0 1 -3.28.07 9.38 9.38 0 0 1 -.08 1.13 3.06 3.06 0 0 1 -.28.9 3.24 3.24 0 0 1 -.54.75 5.19 5.19 0 0 1 -.88.69 4.4 4.4 0 0 1 -1.66.65 3.37 3.37 0 0 1 -1.52-.14 4 4 0 0 1 -1.36-.84 6.57 6.57 0 0 1 -1.19-1.46l-2-3.22zm-8.32 8.26.57.93a2.1 2.1 0 0 0 1.28 1 2 2 0 0 0 1.5-.31 1.73 1.73 0 0 0 .9-1.3 2.58 2.58 0 0 0 -.46-1.65l-.48-.76zm5.13-3.21.48.77a2.1 2.1 0 0 0 1.13 1 1.46 1.46 0 0 0 1.25-.17 1.58 1.58 0 0 0 .78-1 1.81 1.81 0 0 0 -.35-1.39l-.54-.88z"/><path d="m38.9 191.89 5.69-1.56 1.67 2.21-8.68 1.94-4.38 3.32-1.57-2.07 4.37-3.32 4.2-7.84 1.67 2.2z"/><path d="m55.13 201.85-1.63 1.61-2.13-2.16-8 7.93-1.83-1.84 8-7.93-2.13-2.16 1.63-1.61z"/><path d="m51.4 216.53 1.87-5.67-.94-.81-3.59 4.21-2-1.68 8.81-10.34 2.86 2.44a5 5 0 0 1 2 3.07 3.94 3.94 0 0 1 -1.09 3 4.5 4.5 0 0 1 -1.77 1.33 2.85 2.85 0 0 1 -2 0l-2 6.27zm2.32-8.11 1 .87a2 2 0 0 0 1.31.54 2.36 2.36 0 0 0 1.87-2.19 1.94 1.94 0 0 0 -.74-1.21l-1-.87z"/><path d="m54.26 218.92 10.59-9.15 2.72 1.92-5.16 13-2-1.43 1.11-2.71-2.93-2.07-2.25 1.91zm6-2.07 2.11 1.49 2.14-5.22z"/><path d="m64 225.66 6.74-11.8 2.46 1.41-.85 8.78 4-7 2.06 1.18-6.71 11.82-2.16-1.23.9-9.58-4.35 7.61z"/><path d="m83.46 224.72a3.48 3.48 0 0 0 -.14-1.59 1.54 1.54 0 0 0 -.85-.85 1.38 1.38 0 0 0 -1.13-.08 1.53 1.53 0 0 0 -.78.85 1.15 1.15 0 0 0 0 1 6 6 0 0 0 .67 1.12l1 1.26a8.16 8.16 0 0 1 .88 1.44 5 5 0 0 1 .44 1.62 3.62 3.62 0 0 1 -.34 1.83 4.36 4.36 0 0 1 -.92 1.34 3.35 3.35 0 0 1 -1.28.76 3.8 3.8 0 0 1 -1.56.16 5.77 5.77 0 0 1 -1.78-.5 4.39 4.39 0 0 1 -2.14-1.95 5.23 5.23 0 0 1 -.34-3.35l2.56.55a3.34 3.34 0 0 0 -.13 1.08 2.26 2.26 0 0 0 .17.83 1.69 1.69 0 0 0 .39.59 1.93 1.93 0 0 0 .49.35 1.65 1.65 0 0 0 1.21.08 1.55 1.55 0 0 0 .91-.9 1.52 1.52 0 0 0 .06-1.18 5.52 5.52 0 0 0 -.63-1.23c-.28-.41-.6-.84-.95-1.28a9 9 0 0 1 -.9-1.37 4.6 4.6 0 0 1 -.51-1.5 2.91 2.91 0 0 1 .27-1.65 3.74 3.74 0 0 1 2.07-2.15 4.17 4.17 0 0 1 3.2.32 4.59 4.59 0 0 1 1.32.87 3.87 3.87 0 0 1 .84 1.12 4 4 0 0 1 .37 1.32 5.18 5.18 0 0 1 -.07 1.41z"/><path d="m84.29 235.78 4.16-12.93 3.45 1.15-.49 9.21 5-7.76 3.45 1.11-4.16 12.93-2.11-.68 3.27-10.17-5.91 9.33-1.86-.6.64-11-3.33 10.09z"/><path d="m98.54 240 3-13.24 2.53.57-3 13.25z"/><path d="m110.77 232.38a3.3 3.3 0 0 0 -.55-1.49 1.56 1.56 0 0 0 -1-.6 1.35 1.35 0 0 0 -1.11.22 1.54 1.54 0 0 0 -.54 1 1.19 1.19 0 0 0 .29.95 6.28 6.28 0 0 0 .94.9l1.26 1a9 9 0 0 1 1.23 1.15 5.15 5.15 0 0 1 .86 1.45 3.63 3.63 0 0 1 .14 1.85 4.25 4.25 0 0 1 -.53 1.54 3.43 3.43 0 0 1 -1 1.08 3.81 3.81 0 0 1 -1.47.55 5.42 5.42 0 0 1 -1.84 0 4.4 4.4 0 0 1 -2.59-1.32 5.25 5.25 0 0 1 -1.2-3.14l2.61-.14a3.73 3.73 0 0 0 .16 1.08 2.59 2.59 0 0 0 .39.76 1.73 1.73 0 0 0 .52.46 1.85 1.85 0 0 0 .57.2 1.62 1.62 0 0 0 1.19-.24 1.69 1.69 0 0 0 .38-2.26 4.76 4.76 0 0 0 -.92-1q-.57-.49-1.26-1a9.21 9.21 0 0 1 -1.23-1.09 4.57 4.57 0 0 1 -.88-1.31 2.86 2.86 0 0 1 -.18-1.67 3.8 3.8 0 0 1 1.45-2.59 4.15 4.15 0 0 1 3.18-.52 4.81 4.81 0 0 1 1.5.48 3.78 3.78 0 0 1 1.1.87 3.65 3.65 0 0 1 .7 1.17 4.79 4.79 0 0 1 .31 1.38z"/><path d="m120.56 233.32a3.45 3.45 0 0 0 -.68-1.44 1.58 1.58 0 0 0 -1.1-.51 1.38 1.38 0 0 0 -1.09.33 1.57 1.57 0 0 0 -.44 1.06 1.17 1.17 0 0 0 .38.92 5.51 5.51 0 0 0 1 .81l1.34.85a8.35 8.35 0 0 1 1.33 1 4.82 4.82 0 0 1 1 1.37 3.56 3.56 0 0 1 .32 1.83 4.13 4.13 0 0 1 -.4 1.57 3.3 3.3 0 0 1 -.92 1.17 3.87 3.87 0 0 1 -1.41.69 5.73 5.73 0 0 1 -1.84.15 4.33 4.33 0 0 1 -2.69-1.08 5.23 5.23 0 0 1 -1.49-3l2.58-.38a4.09 4.09 0 0 0 .26 1.07 2.36 2.36 0 0 0 .46.71 1.68 1.68 0 0 0 .56.42 1.71 1.71 0 0 0 .59.15 1.61 1.61 0 0 0 1.16-.35 1.51 1.51 0 0 0 .54-1.16 1.54 1.54 0 0 0 -.36-1.13 5.43 5.43 0 0 0 -1-.92c-.4-.29-.85-.58-1.33-.87a8.82 8.82 0 0 1 -1.34-1 4.87 4.87 0 0 1 -1-1.23 2.87 2.87 0 0 1 -.33-1.64 3.73 3.73 0 0 1 1.21-2.71 4.15 4.15 0 0 1 3.11-.81 4.64 4.64 0 0 1 1.55.34 3.94 3.94 0 0 1 1.17.76 4.18 4.18 0 0 1 .81 1.1 5.46 5.46 0 0 1 .43 1.35z"/><path d="m124.94 243.26-.22-13.58h2.6l.22 13.58z"/><path d="m129.16 234.06a6.17 6.17 0 0 1 .17-2.14 3.6 3.6 0 0 1 .79-1.46 3.39 3.39 0 0 1 1.3-.87 5.64 5.64 0 0 1 1.71-.36 5.81 5.81 0 0 1 1.74.13 3.28 3.28 0 0 1 1.4.68 3.62 3.62 0 0 1 1 1.34 6 6 0 0 1 .46 2.1l.33 4.84a6.15 6.15 0 0 1 -.17 2.14 3.72 3.72 0 0 1 -.79 1.46 3.46 3.46 0 0 1 -1.3.87 5.64 5.64 0 0 1 -1.71.36 5.77 5.77 0 0 1 -1.74-.12 3.45 3.45 0 0 1 -1.41-.69 3.6 3.6 0 0 1 -1-1.34 6 6 0 0 1 -.47-2.1zm2.94 5a2 2 0 0 0 .55 1.49 1.76 1.76 0 0 0 1.26.31 1.83 1.83 0 0 0 1.22-.47 2 2 0 0 0 .34-1.56l-.37-5.51a2 2 0 0 0 -.55-1.49 1.82 1.82 0 0 0 -1.27-.31 1.76 1.76 0 0 0 -1.21.48 2 2 0 0 0 -.35 1.55z"/><path d="m140.88 242.39-2.21-13.39 2.8-.46 4.88 7.35-1.31-7.95 2.34-.38 2.21 13.4-2.45.4-5.34-8 1.43 8.64z"/><path d="m155.37 229.4a3.49 3.49 0 0 0 -1.1-1.15 1.55 1.55 0 0 0 -1.2-.12 1.35 1.35 0 0 0 -.93.65 1.54 1.54 0 0 0 -.07 1.15 1.17 1.17 0 0 0 .65.75 6.15 6.15 0 0 0 1.22.44l1.54.38a7.68 7.68 0 0 1 1.59.56 4.71 4.71 0 0 1 1.37 1 3.58 3.58 0 0 1 .89 1.63 4.34 4.34 0 0 1 .13 1.62 3.42 3.42 0 0 1 -.51 1.4 3.71 3.71 0 0 1 -1.12 1.11 5.57 5.57 0 0 1 -1.69.73 4.38 4.38 0 0 1 -2.89-.16 5.26 5.26 0 0 1 -2.38-2.39l2.33-1.18a3.75 3.75 0 0 0 .59.92 2.49 2.49 0 0 0 .66.54 1.74 1.74 0 0 0 .67.21 1.66 1.66 0 0 0 .6-.05 1.63 1.63 0 0 0 1-.7 1.56 1.56 0 0 0 .14-1.27 1.57 1.57 0 0 0 -.7-.95 5.21 5.21 0 0 0 -1.26-.55c-.48-.15-1-.28-1.55-.4a9 9 0 0 1 -1.57-.5 4.69 4.69 0 0 1 -1.33-.84 2.93 2.93 0 0 1 -.84-1.45 3.73 3.73 0 0 1 .28-2.95 4.16 4.16 0 0 1 2.69-1.77 4.61 4.61 0 0 1 1.57-.17 4 4 0 0 1 1.36.35 3.81 3.81 0 0 1 1.11.79 4.43 4.43 0 0 1 .84 1.14z"/><path d="m174.76 225.91v1.83a14.1 14.1 0 0 1 -.17 1.91 4.87 4.87 0 0 0 1 .1 3 3 0 0 0 1-.15l.91 2.11a6.35 6.35 0 0 1 -.86.3 3.86 3.86 0 0 1 -.84.11 4.9 4.9 0 0 1 -.92-.06 8.68 8.68 0 0 1 -1.08-.28 4.64 4.64 0 0 1 -1 1.55 4.82 4.82 0 0 1 -1.58 1.08 6.73 6.73 0 0 1 -1.74.49 3.87 3.87 0 0 1 -1.57-.1 3.29 3.29 0 0 1 -1.3-.73 3.85 3.85 0 0 1 -.93-1.38 4 4 0 0 1 -.34-1.21 3.72 3.72 0 0 1 0-1.11 3.8 3.8 0 0 1 .35-1 9.61 9.61 0 0 1 .58-1 8.46 8.46 0 0 1 -1.36-1.05 4.2 4.2 0 0 1 -.86-1.31 3.76 3.76 0 0 1 -.34-1.49 3.12 3.12 0 0 1 .28-1.28 2.93 2.93 0 0 1 .78-1 4.11 4.11 0 0 1 1.14-.7 3.25 3.25 0 0 1 1.27-.29 2.93 2.93 0 0 1 1.18.2 3 3 0 0 1 1.7 1.64 3 3 0 0 1 .25 1.18 4.37 4.37 0 0 1 -.17 1.14 6 6 0 0 1 -.44 1.1c-.19.36-.37.72-.56 1.07a19.78 19.78 0 0 0 3.32 1.58c.06-.5.1-1 .13-1.46a9 9 0 0 0 0-1.46zm-8.29-2.91a1 1 0 0 0 -.63.73 1.72 1.72 0 0 0 .12 1.08 2.68 2.68 0 0 0 .63.92 10.06 10.06 0 0 0 .93.75c.09-.22.2-.44.32-.67a4.81 4.81 0 0 0 .27-.68 2.16 2.16 0 0 0 .12-.71 1.66 1.66 0 0 0 -.15-.74 1.32 1.32 0 0 0 -.25-.38 1.45 1.45 0 0 0 -.36-.28 1.27 1.27 0 0 0 -.47-.13 1.17 1.17 0 0 0 -.53.11zm1.51 8.36a2.16 2.16 0 0 0 .48.72 1.73 1.73 0 0 0 .64.39 1.93 1.93 0 0 0 .72.1 2.25 2.25 0 0 0 .71-.18 2.33 2.33 0 0 0 .83-.59 2.3 2.3 0 0 0 .48-.79 16.68 16.68 0 0 1 -1.88-.72c-.6-.27-1.18-.56-1.75-.87a3.53 3.53 0 0 0 -.37.93 1.61 1.61 0 0 0 .16 1.01z"/><path d="m176.79 216.51 3.07-1.89a7 7 0 0 1 1.82-.82 3.46 3.46 0 0 1 3.23.69 6.74 6.74 0 0 1 1.45 1.66l2.19 3.56a6.9 6.9 0 0 1 .82 2 3.51 3.51 0 0 1 -.85 3.2 7.22 7.22 0 0 1 -1.52 1.29l-3.08 1.88zm8.11 8.26.77-.47a2.26 2.26 0 0 0 1.11-1.38 3 3 0 0 0 -.6-2.11l-1.87-3.05a3.27 3.27 0 0 0 -1.53-1.5 2.11 2.11 0 0 0 -1.81.38l-.77.47z"/><path d="m192.9 222.35-7.9-11.07 2.12-1.51 7.88 11.07z"/><path d="m197.07 219.37-8.54-10.56 5.53-4.47 1.44 1.78-3.5 2.88 2 2.43 2.68-2.17 1.44 1.79-2.67 2.16 2.25 2.78 3.65-3 1.44 1.79z"/><path d="m201.84 202.2a3.43 3.43 0 0 0 -1.52-.46 1.51 1.51 0 0 0 -1.11.47 1.39 1.39 0 0 0 -.5 1 1.59 1.59 0 0 0 .5 1 1.15 1.15 0 0 0 .93.34 5.56 5.56 0 0 0 1.29-.21l1.57-.34a7.3 7.3 0 0 1 1.66-.28 4.78 4.78 0 0 1 1.67.19 3.52 3.52 0 0 1 1.57 1 4.45 4.45 0 0 1 .89 1.35 3.4 3.4 0 0 1 .24 1.47 3.77 3.77 0 0 1 -.44 1.51 5.53 5.53 0 0 1 -1.13 1.46 4.29 4.29 0 0 1 -2.61 1.26 5.25 5.25 0 0 1 -3.23-.93l1.46-2.17a3.88 3.88 0 0 0 1 .53 2.38 2.38 0 0 0 .84.14 1.67 1.67 0 0 0 .69-.14 1.48 1.48 0 0 0 .5-.32 1.64 1.64 0 0 0 .53-1.1 1.55 1.55 0 0 0 -.5-1.18 1.51 1.51 0 0 0 -1.07-.49 5.15 5.15 0 0 0 -1.37.13c-.49.1-1 .24-1.54.4a9.32 9.32 0 0 1 -1.62.33 5.14 5.14 0 0 1 -1.57-.09 3 3 0 0 1 -1.44-.87 3.78 3.78 0 0 1 -1.19-2.72 4.15 4.15 0 0 1 1.5-2.85 4.62 4.62 0 0 1 1.3-.9 3.67 3.67 0 0 1 1.35-.36 3.93 3.93 0 0 1 1.36.15 4.76 4.76 0 0 1 1.28.59z"/><path d="m212.1 205.75-10.22-8.95 4.68-5.35 1.73 1.51-3 3.4 2.35 2.06 2.26-2.59 1.73 1.51-2.26 2.59 2.69 2.35 3.09-3.54 1.73 1.51z"/><path d="m218.31 198.47-10.87-8.13 1.55-2.08 9 6.76 2.5-3.35 1.84 1.38z"/><path d="m218.13 181.53a3.29 3.29 0 0 0 -1.59-.08 1.55 1.55 0 0 0 -1 .72 1.37 1.37 0 0 0 -.23 1.11 1.51 1.51 0 0 0 .73.89 1.17 1.17 0 0 0 1 .11 6.51 6.51 0 0 0 1.2-.51c.42-.24.89-.49 1.38-.78a8.16 8.16 0 0 1 1.55-.67 4.89 4.89 0 0 1 1.67-.22 3.57 3.57 0 0 1 1.75.6 4.24 4.24 0 0 1 1.2 1.09 3.4 3.4 0 0 1 .59 1.37 3.66 3.66 0 0 1 -.07 1.57 5.59 5.59 0 0 1 -.73 1.69 4.39 4.39 0 0 1 -2.23 1.85 5.18 5.18 0 0 1 -3.37-.12l.9-2.46a3.72 3.72 0 0 0 1.12.31 2.34 2.34 0 0 0 .85-.06 1.6 1.6 0 0 0 .63-.3 1.69 1.69 0 0 0 .41-.44 1.65 1.65 0 0 0 .25-1.19 1.71 1.71 0 0 0 -1.93-1.24 5.16 5.16 0 0 0 -1.3.45c-.45.22-.91.48-1.4.76a8.11 8.11 0 0 1 -1.49.71 4.62 4.62 0 0 1 -1.55.29 2.89 2.89 0 0 1 -1.6-.49 3.74 3.74 0 0 1 -1.81-2.35 4.18 4.18 0 0 1 .77-3.13 4.83 4.83 0 0 1 1-1.19 3.87 3.87 0 0 1 2.58-.86 4.82 4.82 0 0 1 1.39.27z"/><path d="m51.77 34.76 2.82-2.15a7 7 0 0 1 1.7-1 3.49 3.49 0 0 1 1.64-.23 3.63 3.63 0 0 1 1.59.58 6.71 6.71 0 0 1 1.58 1.48l2.49 3.27a6.88 6.88 0 0 1 1 1.92 3.68 3.68 0 0 1 .14 1.69 3.54 3.54 0 0 1 -.66 1.52 7 7 0 0 1 -1.4 1.37l-2.82 2.15zm8.75 7.24.71-.54a2.22 2.22 0 0 0 1-1.45 2.93 2.93 0 0 0 -.8-2l-2.13-2.79a3.18 3.18 0 0 0 -1.64-1.32 2.1 2.1 0 0 0 -1.74.54l-.7.54z"/><path d="m67.14 39.92-7.14-11.25 5.89-3.76 1.21 1.9-3.78 2.39 1.68 2.58 2.83-1.78 1.17 1.86-2.85 1.83 1.89 3 3.96-2.53 1.21 1.9z"/><path d="m74.49 20.19 1.07 2-2.63 1.41 5.23 9.78-2.25 1.21-5.23-9.79-2.63 1.4-1.05-2z"/><path d="m86.59 29.46-4.19-4.11-1.12.48 2.15 5-2.34 1-5.3-12.26 3.4-1.47a4.87 4.87 0 0 1 3.55-.4 3.84 3.84 0 0 1 2.19 2.3 4.31 4.31 0 0 1 .41 2.14 2.73 2.73 0 0 1 -.91 1.78l4.68 4.47zm-6.15-5.56 1.21-.52a2 2 0 0 0 1-.93 1.82 1.82 0 0 0 -.07-1.45 1.84 1.84 0 0 0 -1-1.11 1.87 1.87 0 0 0 -1.39.13l-1.19.48z"/><path d="m86.38 19.74a6 6 0 0 1 -.38-2.08 3.72 3.72 0 0 1 .4-1.58 3.38 3.38 0 0 1 1-1.15 5.68 5.68 0 0 1 1.6-.76 5.51 5.51 0 0 1 1.69-.31 3.28 3.28 0 0 1 1.5.31 3.41 3.41 0 0 1 1.26 1 6 6 0 0 1 1 1.88l1.5 4.53a6.07 6.07 0 0 1 .36 2.08 3.54 3.54 0 0 1 -.39 1.58 3.29 3.29 0 0 1 -1 1.15 6 6 0 0 1 -3.23 1.07 3.3 3.3 0 0 1 -1.51-.31 3.54 3.54 0 0 1 -1.26-1 6 6 0 0 1 -1-1.89zm4 4.05c.24.7.53 1.13.9 1.28a2.11 2.11 0 0 0 2.31-.77 1.92 1.92 0 0 0 -.05-1.56l-1.71-5.16a2 2 0 0 0 -.83-1.29 1.82 1.82 0 0 0 -1.28 0 1.79 1.79 0 0 0 -1 .75 2 2 0 0 0 0 1.57z"/><path d="m98.32 25.47-3.39-12.92 2.47-.64 3.39 12.91z"/><path d="m107 9.85.44 2.22-2.92.58 2.18 10.88-2.5.5-2.2-10.88-2.92.59-.44-2.22z"/><path d="m113 9 3.54-.26a6.52 6.52 0 0 1 2 .1 3.45 3.45 0 0 1 1.5.69 3.67 3.67 0 0 1 1 1.36 6.86 6.86 0 0 1 .52 2.1l.31 4.1a6.82 6.82 0 0 1 -.2 2.16 3.68 3.68 0 0 1 -.8 1.49 3.6 3.6 0 0 1 -1.38.92 7 7 0 0 1 -1.92.39l-3.54.27zm3.39 10.88.88-.07a2.2 2.2 0 0 0 1.59-.71 2.86 2.86 0 0 0 .44-2.1l-.3-3.48a3.25 3.25 0 0 0 -.66-2 2.14 2.14 0 0 0 -1.76-.49l-.88.07z"/><path d="m123.32 21.79-.22-13.36h2.55l.22 13.35z"/><path d="m127.22 21.71.59-13.34 7 .31-.1 2.25-4.43-.2-.14 3.07 3.38.15-.1 2.26-3.42-.15-.15 3.51 4.61.2-.1 2.26z"/><path d="m142.08 13.24a3.52 3.52 0 0 0 -.58-1.46 1.56 1.56 0 0 0 -1.05-.56 1.36 1.36 0 0 0 -1.09.26 1.5 1.5 0 0 0 -.49 1 1.17 1.17 0 0 0 .31.93 5.92 5.92 0 0 0 1 .86c.38.28.8.59 1.26.91a7.68 7.68 0 0 1 1.24 1.1 5 5 0 0 1 .89 1.4 3.55 3.55 0 0 1 .19 1.81 4 4 0 0 1 -.48 1.53 3.31 3.31 0 0 1 -1 1.09 3.71 3.71 0 0 1 -1.42.59 5.77 5.77 0 0 1 -1.82 0 4.26 4.26 0 0 1 -2.57-1.22 5.12 5.12 0 0 1 -1.28-3.06l2.56-.21a3.87 3.87 0 0 0 .19 1.06 2.52 2.52 0 0 0 .4.73 1.8 1.8 0 0 0 .53.44 1.64 1.64 0 0 0 .57.18 1.55 1.55 0 0 0 1.16-.27 1.53 1.53 0 0 0 .6-1.11 1.5 1.5 0 0 0 -.29-1.12 4.74 4.74 0 0 0 -.94-1q-.57-.46-1.26-.93a9.08 9.08 0 0 1 -1.25-1 5 5 0 0 1 -.9-1.26 2.8 2.8 0 0 1 -.22-1.63 3.67 3.67 0 0 1 1.34-2.59 4.08 4.08 0 0 1 3.11-.61 4.48 4.48 0 0 1 1.49.43 4 4 0 0 1 1.11.82 3.63 3.63 0 0 1 .72 1.13 5 5 0 0 1 .35 1.34z"/><path d="m144.28 23.3 2.77-13.07 6.84 1.45-.47 2.21-4.34-.89-.64 3 3.31.71-.47 2.2-3.31-.7-.73 3.44 4.53 1-.47 2.21z"/><path d="m152.18 25 3.72-12.82 2.45.71-3.09 10.66 3.94 1.14-.63 2.17z"/><path d="m162.93 28.43 5.2-12.3 3.39 1.43a5.09 5.09 0 0 1 2.84 2.33 3.79 3.79 0 0 1 -.08 3.17 3.79 3.79 0 0 1 -2.21 2.27 5.17 5.17 0 0 1 -3.66-.41l-1-.44-2.08 4.94zm5.27-5.89 1.26.53a1.67 1.67 0 0 0 2.47-1 1.68 1.68 0 0 0 -1-2.48l-1.26-.53z"/><path d="m175.21 23.85a6.11 6.11 0 0 1 1.26-1.7 3.4 3.4 0 0 1 1.41-.81 3.32 3.32 0 0 1 1.54-.06 5.63 5.63 0 0 1 1.61.59 5.71 5.71 0 0 1 1.4 1 3.31 3.31 0 0 1 .81 1.3 3.59 3.59 0 0 1 .12 1.62 6 6 0 0 1 -.7 2l-2.23 4.21a6.11 6.11 0 0 1 -1.26 1.7 3.48 3.48 0 0 1 -1.42.81 3.28 3.28 0 0 1 -1.53.06 6.13 6.13 0 0 1 -1.62-.57 5.65 5.65 0 0 1 -1.39-1 3.31 3.31 0 0 1 -.81-1.3 3.49 3.49 0 0 1 -.13-1.63 6.08 6.08 0 0 1 .71-2zm-.14 5.7a2 2 0 0 0 -.31 1.53 2.12 2.12 0 0 0 2.16 1.15c.38-.09.75-.47 1.1-1.12l2.54-4.8a2 2 0 0 0 .31-1.53 2.09 2.09 0 0 0 -2.15-1.15c-.39.09-.75.46-1.1 1.12z"/><path d="m186.09 24.67 1.91 1.33-3.43 8.22 6.43-6.18 2 1.39-3.39 8.25 6.39-6.21 2 1.34-9.94 9.38-2-1.38 3.61-8.6-6.81 6.41-2-1.38z"/><path d="m190.71 44.25 8.65-10.17 5.33 4.53-1.46 1.72-3.39-2.88-2 2.34 2.59 2.21-1.43 1.7-2.58-2.19-2.27 2.68 3.52 3-1.46 1.72z"/><path d="m201.07 53.74 2.29-5.41-.87-.87-3.85 3.84-1.8-1.8 9.46-9.43 2.61 2.61a4.82 4.82 0 0 1 1.67 3.16 3.83 3.83 0 0 1 -1.3 2.87 4.27 4.27 0 0 1 -1.84 1.17 2.8 2.8 0 0 1 -2-.19l-2.44 6zm2.93-7.74.92.93a1.92 1.92 0 0 0 1.25.64 1.84 1.84 0 0 0 1.34-.66 1.77 1.77 0 0 0 .66-1.34 1.91 1.91 0 0 0 -.63-1.25l-.92-.93z"/></g></svg>