<svg xmlns="http://www.w3.org/2000/svg" width="211.46" height="310" viewBox="0 0 211.46 310">
  <g id="Layer_2" data-name="Layer 2">
    <g id="center">
      <g>
        <path d="M105.73,310,0,19.45c71.23-25.93,140.23-25.93,211.46,0Z" style="fill: #d70a35"/>
        <g>
          <path d="M48.93,40.07H44l-1.17,3.76H38.69l5.25-15.54H49l5.32,15.54h-4.2Zm-2.51-9L46,33.26l-1,3.32H47.9L47,33.26l-.39-2.16Z" style="fill: #fff"/>
          <path d="M63.65,33.85c1.12-1.43,3.54-1.6,5.18-.81a4.27,4.27,0,0,1,2.4,4.15v6.64H67.67V37.15a1.29,1.29,0,0,0-1.32-1.47c-.73,0-1.23.52-1.23,1.47v6.68h-3.5V37.21a1.45,1.45,0,0,0-1.27-1.56,1.92,1.92,0,0,0-1.39.51v7.67h-3.6V32.68h3l.31,1.21C59.53,32.14,62.77,32.16,63.65,33.85Z" style="fill: #fff"/>
          <path d="M81.7,33.85c1.12-1.43,3.54-1.6,5.19-.81a4.27,4.27,0,0,1,2.4,4.15v6.64H85.73V37.15a1.29,1.29,0,0,0-1.32-1.47c-.73,0-1.23.52-1.23,1.47v6.68h-3.5V37.21a1.45,1.45,0,0,0-1.28-1.56,1.91,1.91,0,0,0-1.38.51v7.67H73.41V32.68h3l.31,1.21C77.59,32.14,80.82,32.16,81.7,33.85Z" style="fill: #fff"/>
          <path d="M98.05,43.83l-.38-1.12A3.18,3.18,0,0,1,95,44c-2.79,0-4.18-1.83-4.18-3.81,0-2.33,2.18-3.52,4.33-3.56A5.2,5.2,0,0,1,97.3,37v-.35c0-.81-.77-1.25-2-1.25a5.38,5.38,0,0,0-2.73.75l-1.1-2A7,7,0,0,1,96,32.47c2.57,0,5,.94,5,4.24v7.12ZM95.67,41a2.5,2.5,0,0,0,1.69-.53V39.3A4.2,4.2,0,0,0,95.74,39C94,39,94,41.06,95.67,41Z" style="fill: #fff"/>
          <path d="M106.36,32.68l.24,1.21c.77-1.34,2.38-1.47,3.81-1.16a4.78,4.78,0,0,1,3.76,4.64v6.46h-3.68V37.37c0-2-2.17-2.4-3.49-1.39v7.85h-3.7V32.68Z" style="fill: #fff"/>
          <path d="M125.63,43.83h-3.87V28.44h5.12c4,0,5.91,2.82,5.87,5.59a5.48,5.48,0,0,1-5.85,5.45h-1.27ZM129,34.05a2.1,2.1,0,0,0-2.09-2.33h-1.32v4.64h1.32A2.16,2.16,0,0,0,129,34.05Z" style="fill: #fff"/>
          <path d="M139.59,43.79a8.35,8.35,0,0,1-1.47.15c-2.11,0-3.65-1.1-3.65-3.82V28.44h3.69V40.12c0,.59.18,1.18,1.43,1.05Z" style="fill: #fff"/>
          <path d="M147.82,43.83l-.38-1.12A3.18,3.18,0,0,1,144.76,44c-2.79,0-4.18-1.83-4.18-3.81,0-2.33,2.18-3.52,4.33-3.56a5.2,5.2,0,0,1,2.16.35v-.35c0-.81-.77-1.25-2-1.25a5.38,5.38,0,0,0-2.73.75l-1.1-2a7,7,0,0,1,4.53-1.6c2.57,0,5,.94,5,4.24v7.12ZM145.44,41a2.5,2.5,0,0,0,1.69-.53V39.3a4.2,4.2,0,0,0-1.62-.28C143.81,39,143.73,41.06,145.44,41Z" style="fill: #fff"/>
          <path d="M158.59,43.79a11.76,11.76,0,0,1-1.4.13c-2.23,0-4.14-1.19-4.05-3.89V35.48h-1.47V32.66h1.47V30.05l3.61-.36v3h1.84v2.82h-1.84V40c0,1,.68,1.23,1.84,1.1Z" style="fill: #fff"/>
          <path d="M163.23,39.44A2,2,0,0,0,165.39,41a2.86,2.86,0,0,0,2.29-1l1.95,1.71c-1.56,1.69-2.77,2.29-4.39,2.29a5.51,5.51,0,0,1-5.74-5.78,5.51,5.51,0,0,1,5.71-5.81c3.74,0,6.18,3.08,5.37,7Zm4-2.45c-.33-2.17-3.69-2.06-4,0Z" style="fill: #fff"/>
          <path d="M56.92,66.09a5.62,5.62,0,0,1-6-5.83,6,6,0,1,1,6,5.83Zm0-3.19a2.67,2.67,0,1,0-2.27-2.64A2.36,2.36,0,0,0,56.92,62.9Z" style="fill: #fff"/>
          <path d="M67.32,54.68l.24,1.23a2.7,2.7,0,0,1,3-1.28,3.52,3.52,0,0,1,2.07,1.13L71.1,58.5c-.94-1.07-3.1-.94-3.16.77v6.56H64.29V54.68Z" style="fill: #fff"/>
          <path d="M90.34,65.83H86l-3.08-5.39h-.51v5.39H78.43V50.41h5.38c2.25,0,4.07.68,5,2.29a5.39,5.39,0,0,1,.7,2.81,4.51,4.51,0,0,1-3,4.27Zm-6.5-8.67a1.7,1.7,0,1,0,0-3.38H82.25v3.38Z" style="fill: #fff"/>
          <path d="M98.48,65.83l-.37-1.13A3.15,3.15,0,0,1,95.43,66c-2.8,0-4.18-1.82-4.18-3.8,0-2.33,2.18-3.52,4.33-3.57a5,5,0,0,1,2.16.36v-.36c0-.81-.77-1.25-2-1.25a5.35,5.35,0,0,0-2.72.75l-1.1-2a7,7,0,0,1,4.53-1.6c2.57,0,5,.94,5,4.24v7.13ZM96.11,63a2.57,2.57,0,0,0,1.69-.52V61.3A4.22,4.22,0,0,0,96.17,61C94.48,61,94.39,63.06,96.11,63Z" style="fill: #fff"/>
          <path d="M112.1,55.84c1.12-1.43,3.54-1.6,5.19-.81a4.28,4.28,0,0,1,2.39,4.16v6.64h-3.56V59.14a1.29,1.29,0,0,0-1.32-1.47c-.72,0-1.23.53-1.23,1.47v6.69h-3.5V59.21a1.44,1.44,0,0,0-1.27-1.56,1.91,1.91,0,0,0-1.39.5v7.68h-3.6V54.68h3l.3,1.21C108,54.13,111.22,54.15,112.1,55.84Z" style="fill: #fff"/>
          <path d="M130.15,55.84c1.13-1.43,3.54-1.6,5.19-.81a4.27,4.27,0,0,1,2.4,4.16v6.64h-3.56V59.14a1.29,1.29,0,0,0-1.32-1.47c-.73,0-1.23.53-1.23,1.47v6.69h-3.5V59.21a1.44,1.44,0,0,0-1.27-1.56,1.91,1.91,0,0,0-1.39.5v7.68h-3.61V54.68h3l.31,1.21C126,54.13,129.27,54.15,130.15,55.84Z" style="fill: #fff"/>
          <path d="M143.13,61.43A2,2,0,0,0,145.29,63a2.8,2.8,0,0,0,2.28-1l2,1.72C148,65.41,146.76,66,145.13,66a5.8,5.8,0,0,1,0-11.59c3.74,0,6.18,3.08,5.37,7Zm4-2.44c-.33-2.18-3.69-2.07-4,0Z" style="fill: #fff"/>
          <path d="M155.18,54.68l.25,1.23a2.69,2.69,0,0,1,3-1.28,3.49,3.49,0,0,1,2.06,1.13L159,58.5c-.95-1.07-3.1-.94-3.17.77v6.56h-3.65V54.68Z" style="fill: #fff"/>
        </g>
      </g>
    </g>
  </g>
</svg>
