<svg xmlns="http://www.w3.org/2000/svg" width="211.46" height="310" viewBox="0 0 211.46 310">
  <g id="Layer_2" data-name="Layer 2">
    <g id="center">
      <g>
        <path d="M105.73,310,0,19.45c71.23-25.93,140.23-25.93,211.46,0Z" style="fill: #dcdcdc"/>
        <g>
          <path d="M52.85,63.89a13.14,13.14,0,0,1-8.57-6.75l5.51-4c2.44,3.45,5,3.69,6.46,3.69A3.07,3.07,0,0,0,59.6,54c.14-2.44-2.3-3.44-4.26-4h0c-3.55-.91-10.29-3.26-10.2-10.34.1-5.46,3.59-8.38,7.66-9.43V26.7H59.5v3.49a12.08,12.08,0,0,1,7.61,6l-5.55,3.49a5.58,5.58,0,0,0-4.69-2.49c-1.77,0-3.21.72-3.3,2.54s2.3,2.58,3.88,3c5.26,1.38,10.91,3.92,10.62,11.72-.29,5.46-4.16,8.52-8.57,9.48v3.35H52.85Z" style="fill: #1a1a1a"/>
          <path d="M70.18,37.23V30.29H81.91V63.8H73.67V37.23Z" style="fill: #1a1a1a"/>
          <path d="M97.65,30.1c5.89-.1,11.88,3.35,11.88,10.39v13.3c0,6.75-6.13,10.49-11.88,10.49S86.12,61,86.12,53.79V40.49C86.12,33.59,91.81,30.1,97.65,30.1Zm.1,27.28c1.82,0,3.64-1,3.64-3.06V40c0-2.06-1.82-3.07-3.59-3.07S94.3,38,94.3,40V54.32C94.3,56.33,95.88,57.38,97.75,57.38Z" style="fill: #1a1a1a"/>
          <path d="M125.47,30.1c5.88-.1,11.87,3.35,11.87,10.39v13.3c0,6.75-6.13,10.49-11.87,10.49S113.93,61,113.93,53.79V40.49C113.93,33.59,119.63,30.1,125.47,30.1Zm.09,27.28c1.82,0,3.64-1,3.64-3.06V40c0-2.06-1.82-3.07-3.59-3.07s-3.5,1.06-3.5,3.07V54.32C122.11,56.33,123.7,57.38,125.56,57.38Z" style="fill: #1a1a1a"/>
          <path d="M153.28,30.1c5.88-.1,11.87,3.35,11.87,10.39v13.3c0,6.75-6.13,10.49-11.87,10.49S141.74,61,141.74,53.79V40.49C141.74,33.59,147.44,30.1,153.28,30.1Zm.09,27.28c1.82,0,3.64-1,3.64-3.06V40c0-2.06-1.82-3.07-3.59-3.07S149.93,38,149.93,40V54.32C149.93,56.33,151.51,57.38,153.37,57.38Z" style="fill: #1a1a1a"/>
        </g>
        <g>
          <path d="M57.77,82.22H54.54v4.55h-3V75h3v4.59h3.23V75h3V86.77h-3Z" style="fill: #1a1a1a"/>
          <path d="M66.48,84l.34-1.54,1.38-4.19h3l-4,9.87c-.81,2.07-2.37,2-4.21,1.77l0-2.12c1.1.23,1.83.2,2-1l-3.6-8.57h3L66,82.44,66.41,84Z" style="fill: #1a1a1a"/>
          <path d="M75,78.2a2.72,2.72,0,0,1,1.66.44V75h2.82V86.77H77.28l-.22-.92a3.07,3.07,0,0,1-2.3,1c-2,0-3.47-1.83-3.47-4.27S72.69,78.2,75,78.2Zm1.66,2.54a2.14,2.14,0,0,0-.86-.25c-1-.06-1.7.85-1.68,2,0,1.34.62,2,1.7,2a1.4,1.4,0,0,0,.84-.37Z" style="fill: #1a1a1a"/>
          <path d="M83.42,78.25l.18.94a2,2,0,0,1,2.29-1,2.68,2.68,0,0,1,1.58.85l-1.16,2.1c-.72-.82-2.37-.72-2.42.59v5H81.1V78.25Z" style="fill: #1a1a1a"/>
          <path d="M93.14,86.77l-.29-.85a2.41,2.41,0,0,1-2,1A2.89,2.89,0,0,1,87.61,84c0-1.78,1.66-2.69,3.31-2.72a3.83,3.83,0,0,1,1.65.27v-.27c0-.62-.59-1-1.53-1a4.12,4.12,0,0,0-2.09.57l-.84-1.56a5.37,5.37,0,0,1,3.47-1.23c2,0,3.83.72,3.83,3.25v5.44Zm-1.82-2.13a2,2,0,0,0,1.3-.4v-.93a3.21,3.21,0,0,0-1.25-.22C90.08,83.09,90,84.66,91.32,84.64Z" style="fill: #1a1a1a"/>
          <path d="M102.79,86.77l-.18-.92a2.17,2.17,0,0,1-2.07,1,3.46,3.46,0,0,1-3.63-3.65V78.25h2.81v4.94a1.32,1.32,0,0,0,1.34,1.5,2.07,2.07,0,0,0,1.25-.44v-6h2.82v8.52Z" style="fill: #1a1a1a"/>
          <path d="M110.68,86.74a6.8,6.8,0,0,1-1.13.12c-1.61,0-2.79-.84-2.79-2.93V75h2.83v8.93c0,.46.13.91,1.09.81Z" style="fill: #1a1a1a"/>
          <path d="M114.58,78.28v8.49h-2.82V78.28Zm-2.8-.72V75h2.79v2.61Z" style="fill: #1a1a1a"/>
          <path d="M121.8,81.24a2.16,2.16,0,0,0-1.63-.69c-.91,0-1.75.54-1.75,2a1.81,1.81,0,0,0,1.76,1.91,2.34,2.34,0,0,0,1.74-.85l1.63,1.54a4,4,0,0,1-3.45,1.77,4.38,4.38,0,1,1,0-8.75,4.11,4.11,0,0,1,3.28,1.48Z" style="fill: #1a1a1a"/>
          <path d="M134.82,82.22h-3.23v4.55h-3V75h3v4.59h3.23V75h3V86.77h-3Z" style="fill: #1a1a1a"/>
          <path d="M142.37,78.28v8.49h-2.83V78.28Zm-2.81-.72V75h2.79v2.61Z" style="fill: #1a1a1a"/>
          <path d="M148.49,86.74a8.34,8.34,0,0,1-1.08.1c-1.69,0-3.16-.91-3.09-3V80.38h-1.13V78.23h1.13v-2l2.76-.27v2.27h1.41v2.15h-1.41v3.47c0,.79.52.94,1.41.84Z" style="fill: #1a1a1a"/>
          <path d="M155.2,81.24a2.16,2.16,0,0,0-1.63-.69c-.91,0-1.75.54-1.75,2a1.81,1.81,0,0,0,1.77,1.91,2.34,2.34,0,0,0,1.73-.85L157,85.14a4,4,0,0,1-3.45,1.77,4.38,4.38,0,1,1,0-8.75,4.11,4.11,0,0,1,3.28,1.48Z" style="fill: #1a1a1a"/>
          <path d="M160.68,75v3.62A3.63,3.63,0,0,1,166,81.91v4.86h-2.82V81.9a1.37,1.37,0,0,0-1.4-1.41,2.31,2.31,0,0,0-1.11.23v6h-2.82V75Z" style="fill: #1a1a1a"/>
          <path d="M94.52,99a3.72,3.72,0,0,0-2.84-1.35,3.21,3.21,0,0,0-3.1,3.47,3.15,3.15,0,0,0,3.1,3.41,3.84,3.84,0,0,0,3-1.57l1.89,1.59a6.13,6.13,0,0,1-4.9,2.65,6.11,6.11,0,0,1,0-12.22,5.62,5.62,0,0,1,4.64,2.34Z" style="fill: #1a1a1a"/>
          <path d="M99.65,98.43l.18.94a2.07,2.07,0,0,1,2.29-1,2.64,2.64,0,0,1,1.58.86l-1.16,2.1c-.72-.83-2.37-.73-2.42.59v5H97.33V98.43Z" style="fill: #1a1a1a"/>
          <path d="M106.63,103.59a1.53,1.53,0,0,0,1.65,1.2A2.17,2.17,0,0,0,110,104l1.49,1.31a4.36,4.36,0,1,1-3.38-7.11c2.86,0,4.73,2.35,4.1,5.36Zm3-1.86a1.58,1.58,0,0,0-3.07,0Z" style="fill: #1a1a1a"/>
          <path d="M117.07,98.38a2.8,2.8,0,0,1,1.67.44V95.19h2.82V107h-2.18l-.22-.93a3.14,3.14,0,0,1-2.31,1c-2,0-3.46-1.84-3.46-4.27S114.79,98.38,117.07,98.38Zm1.67,2.54a2.18,2.18,0,0,0-.86-.25c-1,0-1.7.86-1.68,2,0,1.34.62,2,1.7,2a1.47,1.47,0,0,0,.84-.37Z" style="fill: #1a1a1a"/>
          <path d="M126,98.47V107h-2.83V98.47Zm-2.81-.73v-2.6H126v2.6Z" style="fill: #1a1a1a"/>
          <path d="M132.11,106.92a8.34,8.34,0,0,1-1.08.1c-1.7,0-3.16-.9-3.09-3v-3.48h-1.13V98.41h1.13v-2l2.76-.27v2.27h1.41v2.16H130.7V104c0,.79.52.94,1.41.84Z" style="fill: #1a1a1a"/>
        </g>
      </g>
    </g>
  </g>
</svg>
