<svg xmlns="http://www.w3.org/2000/svg" width="305.09" height="51" viewBox="0 0 305.09 51">
  <g id="Layer_2" data-name="Layer 2">
    <g id="center">
      <g>
        <g>
          <path d="M20.1,50.21l-1-7.79c-.06-.42-.11-.72-.92-.72H14.05c-.52,0-.77,0-1,.36L8.55,50.32c-.19.33,0,.62.29.62h2.68a.74.74,0,0,0,.73-.4c.25-.47.5-1,.7-1.38a.12.12,0,0,1,.1-.06h3.43s.1,0,.1.08l.13,1.2a.54.54,0,0,0,.62.56h2.21C20,50.94,20.18,50.71,20.1,50.21Zm-3.85-3.16H14.12a.05.05,0,0,1,0-.07l1.78-3.49c0-.05.09-.07.11,0L16.34,47C16.35,47,16.31,47.05,16.25,47.05Z" style="fill: #d70a35"/>
          <path d="M58,50.21l-1-7.79c-.06-.42-.11-.72-.92-.72H52c-.52,0-.78,0-1,.35l-4.53,8.27c-.2.33,0,.62.29.62h2.67a.73.73,0,0,0,.73-.4c.26-.47.5-1,.7-1.38a.12.12,0,0,1,.1-.06h3.44a.1.1,0,0,1,.09.08l.13,1.2a.54.54,0,0,0,.62.56h2.21C57.9,50.94,58.07,50.71,58,50.21Zm-3.85-3.16H52A.05.05,0,0,1,52,47l1.78-3.49c0-.06.1-.08.11,0L54.23,47Q54.25,47.05,54.14,47.05Z" style="fill: #d70a35"/>
          <path d="M42.36,50.32l.71-3.9c0-.21-.06-.22-.13-.1L39.7,50.55a.89.89,0,0,1-.63.39h-.78a.49.49,0,0,1-.45-.32l-1.57-4.29c-.07-.18-.12-.12-.15,0l-.76,4.12a.48.48,0,0,1-.47.45H32.53c-.34,0-.5-.17-.43-.52l1.59-8.07a.69.69,0,0,1,.76-.66H37c.48,0,.8.1.93.44l1.37,3.71c.08.18.09.18.21,0l2.92-3.74a1,1,0,0,1,.9-.43h3.25c.56,0,.64.29.56.69L45.6,50.54a.51.51,0,0,1-.53.42H42.83C42.35,51,42.3,50.64,42.36,50.32Z" style="fill: #d70a35"/>
          <path d="M27.91,45.76l.63-3.42a.65.65,0,0,1,.77-.62h2c.38,0,.66.14.55.67l-1.56,7.89c-.1.51-.36.66-.68.66H28a.72.72,0,0,1-.66-.32l-2.2-3.73c0-.09-.09-.06-.1,0l-.61,3.32c-.08.43-.2.75-.66.75H21.45c-.38,0-.52-.2-.45-.59l1.52-8c.1-.54.39-.64.66-.64h1.68c.42,0,.62.17.89.62l2,3.43S27.9,45.86,27.91,45.76Z" style="fill: #d70a35"/>
          <path d="M67.75,41.68l-6.46,0c-.73,0-.9.13-1,.6l-1.58,8.08c-.07.37,0,.53.44.56.23,0,2.19,0,2.4,0a.54.54,0,0,0,.6-.46c.21-.89.47-2.29.53-2.6,0-.15,0-.17.29-.17h1.8c.3,0,.42.14.35.56l-.35,2.17c0,.29.07.5.41.5s2.07,0,2.36,0c.45,0,.63-.11.73-.69l.37-2a1.43,1.43,0,0,0-.89-1.85c-.05,0,0-.07,0-.07A1.82,1.82,0,0,0,69.11,45a12,12,0,0,0,.32-1.59C69.62,42.21,68.9,41.68,67.75,41.68ZM66,44.1c0,.19-.13.78-.22,1.14s-.27.53-.87.53H63.21c-.11,0-.13,0-.11-.12l.37-2a.08.08,0,0,1,.08,0c.43,0,1.87,0,2,0C65.88,43.67,66,43.81,66,44.1Z" style="fill: #d70a35"/>
          <path d="M5.2,44.83l2.37-2.9A.47.47,0,0,1,8,41.68h3.22c.45,0,.37.29.26.43L6.77,47.8a.57.57,0,0,0-.08.23L6.13,50.6c-.06.29-.3.4-.61.4H3.11c-.49,0-.53-.28-.47-.61l.46-2.27a.27.27,0,0,0,0-.2L0,42.05c-.09-.2.05-.37.31-.37H3A.57.57,0,0,1,3.6,42L5,44.83C5.06,45,5.13,44.92,5.2,44.83Z" style="fill: #d70a35"/>
        </g>
        <g>
          <polygon points="36.64 34.73 69.46 21.13 69.46 12.87 36.64 26.46 36.64 34.73" style="fill: #d70a35"/>
          <polygon points="34.73 14.38 0 0 0 8.27 34.73 22.65 69.46 8.27 69.46 0 34.73 14.38" style="fill: #d70a35"/>
          <polygon points="0 21.13 32.82 34.73 32.82 26.46 0 12.87 0 21.13" style="fill: #d70a35"/>
        </g>
      </g>
      <g>
        <polygon points="142.07 31.35 138.07 51 291.38 51 295.39 31.35 142.07 31.35"/>
        <path d="M272,45.46l.44-2.09H270.4L270,45.46Zm-6.8,0,.48-2.26.67-.92.51,3.18h2.26l-1-5.1,2.79-4h-2.19L266.42,40h0l.77-3.65H265l-1.94,9.13Zm-1.74-5.94.16-.77c.4-1.86-.54-2.64-2.37-2.64A3.21,3.21,0,0,0,257.78,39L257,42.77c-.4,1.86.15,2.9,2.12,2.9,2.19,0,3.32-1.09,3.66-2.66l.23-1.12h-2.14l-.17.83c-.12.56-.34,1.31-1.07,1.31-.56,0-.71-.3-.6-.81l1-4.52c.12-.6.36-1,1-1,.4,0,.6.4.43,1.18l-.12.59Zm-9.24,2.55H253L254.5,38h0Zm-2.45,3.39.64-1.78h1.68L254,45.46h2.17l-.05-9.13h-2.58l-3.93,9.13Zm-5,0a3.08,3.08,0,0,0,3.34-2.65c.25-1.13.14-1.61-.71-2.17v0a2.65,2.65,0,0,0,1.43-1.92c.39-1.84-.76-2.36-2.38-2.36h-2.78l-1.93,9.13Zm.71-7.49c.76,0,1.38,0,1.2.86-.23,1.09-.66,1-1.61,1.09Zm-.76,3.59c.9,0,1.52,0,1.29,1.07-.26,1.23-.7,1.16-1.77,1.18Zm-9.35.29h.71c.48,0,.58.4.52,1s-.27,1.32-.4,2.12a1.88,1.88,0,0,0,0,.53h2.34l0-.13a.62.62,0,0,1-.13-.31c0-.59.31-2.16.41-2.89A1,1,0,0,0,240,41v0a2.57,2.57,0,0,0,1.57-2.08c.39-1.82-.34-2.52-2.1-2.52h-3.12l-1.94,9.13h2.14Zm.83-3.88c1,0,1.48,0,1.25,1.11-.11.56-.38,1.13-1,1.13h-.73Zm-9.87,5c-.41,1.87.47,2.73,2.28,2.73a3.17,3.17,0,0,0,3.47-2.73l1.4-6.61h-2.14l-1.45,6.82A1,1,0,0,1,231,44c-.61,0-.67-.38-.57-.81l1.46-6.89h-2.14Zm0-4.11c.37-1.75-.43-2.72-2.31-2.72a3.26,3.26,0,0,0-3.49,2.72l-.79,3.72c-.44,2.05.08,3.12,2.25,3.12s3.11-1.07,3.55-3.12Zm-3,3.9c-.12.52-.32,1.3-1,1.3s-.62-.78-.5-1.3l.79-3.75c.13-.56.36-1.23,1-1.23s.61.67.48,1.23Zm-6.51-6.4h-2.16l1,5.29-.81,3.84h2.14l.81-3.84,3.33-5.29h-2.14l-1.73,3h0Zm-11,1.82h1.68L208,45.46h2.14l1.56-7.31h1.72l.38-1.82h-5.55Zm-.17.68c.36-1.75-.44-2.72-2.31-2.72a3.27,3.27,0,0,0-3.5,2.72l-.79,3.72c-.44,2.05.09,3.12,2.25,3.12s3.12-1.07,3.56-3.12Zm-3,3.9c-.12.52-.33,1.3-1,1.3s-.62-.78-.5-1.3L204,39c.12-.56.35-1.23,1-1.23s.61.67.49,1.23Zm-5.09,2.74,1.06-5h-2.91l-.35,1.64h.76l-.16.72c-.12.59-.26,1.17-1,1.17-.56,0-.73-.3-.62-.81l1-4.52c.12-.6.36-1,1-1s.59.4.42,1.18l-.11.5h2.14l.14-.68c.41-1.86-.52-2.64-2.34-2.64a3.22,3.22,0,0,0-3.5,2.91l-.79,3.75c-.35,1.65,0,2.9,1.78,2.9a2.28,2.28,0,0,0,2.07-1h0l-.07.82Zm-9.2,0,.39-1.83h-2.91l.41-2H191l.39-1.83h-2.68l.37-1.68h2.76l.38-1.82h-4.91l-1.93,9.13Zm-7.3,0,3.93-9.13h-2.14l-2.45,6.4h0l.25-6.4h-2.14l.05,9.13Zm-5.83-5.32a2.25,2.25,0,0,0,2.31-1.85l.41-2H178.1l-.41,1.94h1a1.27,1.27,0,0,1-1.27,1.17Zm-1.78,5.32.39-1.83H173l.41-2h2.68l.39-1.83H173.8l.37-1.68h2.76l.38-1.82H172.4l-1.93,9.13Zm-7.05-9.13H166.4l-2.22,6.39,0,0,.72-6.41H162.8l-.4,9.13h2.37L166.84,39h0l-.7,6.43h2.41L172,36.33h-2l-2,6.4h0Z" style="fill: #fff"/>
        <g>
          <polygon points="143.99 5.33 142.98 10.06 146.8 10.07 143.52 25.44 149.16 25.44 152.43 10.07 156.26 10.08 157.28 5.35 143.99 5.33"/>
          <path d="M162.08,13.83h.82c.93,0,2-.42,2.42-2.37.35-1.66-.38-2.05-1.65-2.05H163Zm-3.82-8.48h8.45c3.88,0,5.14,1.92,4.42,5.27s-2.35,4.56-4.38,4.84l0,.06a2.52,2.52,0,0,1,2.34,1.61,7.32,7.32,0,0,1-.2,3.43l-.36,1.66a7.68,7.68,0,0,0-.25,2.37.89.89,0,0,0,.47.59l-.06.28h-6c-.27-.46,0-1.92.2-2.91s.34-2,.55-3c.36-1.72-.13-2-1.12-2h-1l-1.69,7.91H154Z"/>
          <path d="M177.89,5.36l-9,20.1h5.8l1.22-3.07h3.77l0,3.07h5.8L185,5.37Zm2.55,4.4h.06L180,18h-2.57Z"/>
          <polygon points="199.71 5.38 197.09 17.66 197.03 17.66 196.78 5.38 190.67 5.38 186.38 25.48 191.5 25.48 194.15 13.09 194.2 13.09 194.69 25.48 200.71 25.49 205 5.39 199.71 5.38"/>
          <g>
            <path d="M213.94,10.35c.18-.84,0-1.63-1-1.63a1.74,1.74,0,0,0-1.62,1.52c-.86,4,8,1.95,6.44,9.13-1,4.67-3.56,6.52-8.77,6.52-4.31,0-6.36-1.47-5.42-5.89l.12-.54h5.46l-.2.93c-.21,1,0,1.77,1,1.77s1.57-.9,1.76-1.77c.27-1.29-.15-1.57-.79-2s-1.6-.82-2.5-1.32c-2.72-1.53-3.5-2.63-2.86-5.61.59-2.79,1.76-4.31,3.26-5.23A9,9,0,0,1,213.73,5c5.69,0,6,2.82,5.33,6.17h-5.3Z"/>
            <path d="M224.61,21.45h1.15c1.41,0,2-1.55,2.29-3.07l1.25-5.86c.43-2,.43-3.07-1.31-3.07h-.82Zm-2.21-16h8.11c2.51,0,3.93,1,4.48,2.62s.51,2.65-.51,7.44c-.94,4.39-2.32,10-8.17,10h-8.2Z"/>
          </g>
          <polygon points="238.28 5.42 233.99 25.52 239.62 25.52 243.91 5.42 238.28 5.42"/>
          <polygon points="245.83 5.42 241.54 25.52 253.9 25.54 254.87 20.98 248.15 20.97 248.89 17.48 254.94 17.48 255.88 13.09 249.83 13.09 250.49 9.99 256.97 9.99 257.94 5.43 245.83 5.42"/>
          <path d="M266.57,10.4c.18-.85,0-1.64-1-1.64A1.77,1.77,0,0,0,264,10.28c-.85,4,8,2,6.45,9.13-1,4.67-3.57,6.53-8.77,6.53-4.31,0-6.37-1.47-5.42-5.89l.11-.54h5.46l-.2.93c-.21,1,0,1.77,1,1.77s1.58-.9,1.76-1.77c.28-1.3-.14-1.58-.78-2s-1.6-.82-2.51-1.33c-2.71-1.52-3.49-2.62-2.86-5.6.6-2.79,1.77-4.31,3.26-5.24A9.12,9.12,0,0,1,266.36,5c5.68,0,6,2.83,5.33,6.18h-5.3Z"/>
          <polygon points="275.03 5.45 287.14 5.46 286.16 10.02 279.69 10.01 279.03 13.11 285.08 13.12 284.14 17.51 278.09 17.5 277.35 20.99 284.07 21 283.1 25.56 270.74 25.55 275.03 5.45"/>
          <polygon points="289.11 5.46 294.74 5.46 291.42 21 297.56 21.01 296.59 25.57 284.82 25.56 289.11 5.46"/>
          <path d="M302.55,23.09c.26,0,.38-.11.42-.28s0-.3-.34-.3h-.45l-.12.57Zm-.51.56h-.1l-.23,1.07H301l.59-2.77h1.09c.7,0,1.11.19,1,.87a1,1,0,0,1-.87.8l.43,1.11h-.78Zm.71-2.22a2.29,2.29,0,0,0-2.23,1.91,1.41,1.41,0,0,0,1.42,1.91,2.29,2.29,0,0,0,2.22-1.91c.26-1.2-.38-1.91-1.41-1.91m.16-.78A2.11,2.11,0,0,1,305,23.34,3.51,3.51,0,0,1,301.77,26a2.12,2.12,0,0,1-2.12-2.69,3.51,3.51,0,0,1,3.26-2.69"/>
          <polygon points="296.32 16.2 297.33 16.2 296.78 17.64 298.23 17.64 298.04 18.14 295.59 18.14 296.32 16.2"/>
          <polygon points="299.42 16.7 298.52 16.7 298.71 16.2 301.52 16.21 301.33 16.7 300.43 16.7 299.88 18.14 298.88 18.14 299.42 16.7"/>
          <path d="M302.47,17.65H303c.65,0,.82-.4.82-.58s-.24-.37-.57-.37h-.37ZM302,16.21h1.5c.59,0,1.34.22,1.27.85s-.77,1.09-1.9,1.09h-1.61Z"/>
        </g>
        <path d="M127.64,5A10.38,10.38,0,0,0,117.25,15.4,10.18,10.18,0,0,0,118.91,21l7.42-7.3h-4.77V10.07l11.37,0L133,21.1h-3.87l.05-4.32-7.3,7.29a10.39,10.39,0,1,0,5.75-19"/>
        <path d="M105.17,5a10.4,10.4,0,0,0-10.4,10.38A10.27,10.27,0,0,0,96.44,21l7.41-7.3H99.09V10.05l11.37,0,.08,11h-3.87l0-4.32L99.42,24a10.24,10.24,0,0,0,5.73,1.73,10.39,10.39,0,1,0,0-20.77"/>
      </g>
    </g>
  </g>
</svg>
