<svg xmlns="http://www.w3.org/2000/svg" width="211.46" height="310" viewBox="0 0 211.46 310">
  <g id="Layer_2" data-name="Layer 2">
    <g id="center">
      <g>
        <path d="M105.73,310,0,19.45c71.23-25.93,140.23-25.93,211.46,0Z" style="fill: #fafafa"/>
        <g>
          <path d="M51.19,63.89a13.11,13.11,0,0,1-8.57-6.75l5.5-4c2.44,3.45,5,3.69,6.47,3.69A3.07,3.07,0,0,0,57.94,54c.14-2.44-2.3-3.44-4.26-4h0c-3.54-.91-10.29-3.26-10.19-10.34.09-5.46,3.59-8.38,7.66-9.43V26.7h6.65v3.49a12.08,12.08,0,0,1,7.61,6L59.9,39.67a5.59,5.59,0,0,0-4.69-2.49c-1.77,0-3.21.72-3.3,2.54s2.29,2.58,3.87,3c5.27,1.38,10.92,3.92,10.63,11.72-.29,5.46-4.17,8.52-8.57,9.48v3.35H51.19Z" style="fill: #1a1a1a"/>
          <path d="M68.52,37.23V30.29H80.24V63.8H72V37.23Z" style="fill: #1a1a1a"/>
          <path d="M96,30.1c5.89-.1,11.87,3.35,11.87,10.39v13.3c0,6.75-6.12,10.49-11.87,10.49S84.46,61,84.46,53.79V40.49C84.46,33.59,90.15,30.1,96,30.1Zm.1,27.28c1.82,0,3.63-1,3.63-3.06V40c0-2.06-1.81-3.07-3.59-3.07S92.64,38,92.64,40V54.32C92.64,56.33,94.22,57.38,96.09,57.38Z" style="fill: #1a1a1a"/>
          <path d="M123.8,30.1c5.89-.1,11.87,3.35,11.87,10.39v13.3c0,6.75-6.12,10.49-11.87,10.49S112.27,61,112.27,53.79V40.49C112.27,33.59,118,30.1,123.8,30.1Zm.1,27.28c1.82,0,3.64-1,3.64-3.06V40c0-2.06-1.82-3.07-3.59-3.07s-3.5,1.06-3.5,3.07V54.32C120.45,56.33,122,57.38,123.9,57.38Z" style="fill: #1a1a1a"/>
          <path d="M151.61,30.1c5.89-.1,11.87,3.35,11.87,10.39v13.3c0,6.75-6.12,10.49-11.87,10.49S140.08,61,140.08,53.79V40.49C140.08,33.59,145.77,30.1,151.61,30.1Zm.1,27.28c1.82,0,3.64-1,3.64-3.06V40c0-2.06-1.82-3.07-3.59-3.07s-3.5,1.06-3.5,3.07V54.32C148.26,56.33,149.84,57.38,151.71,57.38Z" style="fill: #1a1a1a"/>
        </g>
        <g>
          <path d="M53.29,86.77h-3V75h3.92a4.23,4.23,0,1,1,0,8.44h-1Zm2.56-7.48a1.62,1.62,0,0,0-1.6-1.78h-1v3.55h1A1.66,1.66,0,0,0,55.85,79.29Z" style="fill: #1a1a1a"/>
          <path d="M64.91,86.77l-.28-.85a2.43,2.43,0,0,1-2,1A2.9,2.9,0,0,1,59.38,84c0-1.78,1.67-2.69,3.31-2.72a3.8,3.8,0,0,1,1.65.27v-.27c0-.62-.59-1-1.53-1a4.08,4.08,0,0,0-2.08.57l-.85-1.56a5.39,5.39,0,0,1,3.47-1.23c2,0,3.83.72,3.83,3.25v5.44ZM63.1,84.64a2,2,0,0,0,1.29-.4v-.93a3.19,3.19,0,0,0-1.24-.22C61.85,83.09,61.78,84.66,63.1,84.64Z" style="fill: #1a1a1a"/>
          <path d="M71,78.25l.19.94a2,2,0,0,1,2.29-1,2.71,2.71,0,0,1,1.58.85l-1.16,2.1c-.73-.82-2.37-.72-2.42.59v5h-2.8V78.25Z" style="fill: #1a1a1a"/>
          <path d="M80.55,86.74a8.36,8.36,0,0,1-1.07.1c-1.7,0-3.16-.91-3.1-3V80.38H75.26V78.23h1.12v-2L79.14,76v2.27h1.41v2.15H79.14v3.47c0,.79.52.94,1.41.84Z" style="fill: #1a1a1a"/>
          <path d="M87.85,84.05c0,2.17-2,2.88-3.43,2.88A3.92,3.92,0,0,1,81,85.29l1.25-1.61a3.08,3.08,0,0,0,2,.91c.53,0,.78-.15.79-.41s-.16-.42-.67-.48a3.11,3.11,0,0,1-3-2.84c0-1.87,1.69-2.78,3.33-2.78a3.73,3.73,0,0,1,2.9,1.18l-1.3,1.63a2.63,2.63,0,0,0-1.53-.52c-.39,0-.62.2-.64.4s.2.4.62.47C86.17,81.43,87.85,82.2,87.85,84.05Z" style="fill: #1a1a1a"/>
          <path d="M103.46,86.77h-3.11l-.93-1.12a3.84,3.84,0,0,1-3.07,1.29,3.72,3.72,0,0,1-3.85-3.65,3.38,3.38,0,0,1,1.9-3.17,2.9,2.9,0,0,1-1-2.06,3.08,3.08,0,0,1,3.36-3.14A3,3,0,0,1,100,78a3.09,3.09,0,0,1-1.51,2.64L99.64,82l.91-.94,1.62,1.53L101,83.71l2.44,2.9Zm-7.43-5A1.63,1.63,0,0,0,95.15,83a1.29,1.29,0,0,0,1.28,1.38,2,2,0,0,0,1.31-.59Zm-.14-3.93a1.85,1.85,0,0,0,.66,1.21,1.65,1.65,0,0,0,.94-1.35C97.49,76.75,95.79,76.79,95.89,77.88Z" style="fill: #1a1a1a"/>
          <path d="M109.15,83a2.56,2.56,0,0,0,2.27,1.3,1.07,1.07,0,0,0,1.17-1c0-.85-.8-1.21-1.49-1.39h0c-1.24-.32-3.61-1.14-3.58-3.63s2.09-3.48,4-3.48a4.18,4.18,0,0,1,3.71,2.23l-2,1.23a1.94,1.94,0,0,0-1.65-.87c-.62,0-1.12.25-1.16.89s.81.9,1.37,1.06c1.85.48,3.83,1.37,3.73,4.12-.12,2.4-2.24,3.46-4.2,3.46a4.69,4.69,0,0,1-4.16-2.52Z" style="fill: #1a1a1a"/>
          <path d="M119.56,83.41a1.53,1.53,0,0,0,1.64,1.2,2.17,2.17,0,0,0,1.75-.76l1.5,1.31a4.27,4.27,0,0,1-3.36,1.75,4.43,4.43,0,0,1,0-8.86c2.86,0,4.73,2.35,4.1,5.36Zm3-1.87a1.57,1.57,0,0,0-3.06,0Z" style="fill: #1a1a1a"/>
          <path d="M128.77,78.25l.19.94a2,2,0,0,1,2.29-1,2.71,2.71,0,0,1,1.58.85l-1.16,2.1c-.73-.82-2.37-.72-2.43.59v5h-2.79V78.25Z" style="fill: #1a1a1a"/>
          <path d="M137.94,85.08l.3-1.79,1.43-5h3l-2.92,8.52H136l-2.89-8.52h3l1.4,5,.31,1.79Z" style="fill: #1a1a1a"/>
          <path d="M146.18,78.28v8.49h-2.82V78.28Zm-2.81-.72V75h2.79v2.61Z" style="fill: #1a1a1a"/>
          <path d="M153.4,81.24a2.18,2.18,0,0,0-1.64-.69c-.9,0-1.74.54-1.74,2a1.81,1.81,0,0,0,1.76,1.91,2.33,2.33,0,0,0,1.73-.85l1.63,1.54a4,4,0,0,1-3.44,1.77,4.38,4.38,0,1,1,0-8.75A4.13,4.13,0,0,1,155,79.64Z" style="fill: #1a1a1a"/>
          <path d="M158.54,83.41a1.54,1.54,0,0,0,1.65,1.2,2.19,2.19,0,0,0,1.75-.76l1.49,1.31a4.36,4.36,0,1,1-3.38-7.11c2.86,0,4.73,2.35,4.11,5.36Zm3-1.87a1.57,1.57,0,0,0-3.06,0Z" style="fill: #1a1a1a"/>
          <path d="M92.86,99A3.75,3.75,0,0,0,90,97.64a3.21,3.21,0,0,0-3.09,3.47A3.15,3.15,0,0,0,90,104.52,3.81,3.81,0,0,0,93,103l1.9,1.59A6.13,6.13,0,0,1,90,107.19,6.11,6.11,0,0,1,90,95a5.59,5.59,0,0,1,4.64,2.34Z" style="fill: #1a1a1a"/>
          <path d="M98,98.43l.18.94a2.07,2.07,0,0,1,2.29-1,2.67,2.67,0,0,1,1.58.86l-1.16,2.1c-.72-.83-2.37-.73-2.42.59v5H95.67V98.43Z" style="fill: #1a1a1a"/>
          <path d="M105,103.59a1.53,1.53,0,0,0,1.64,1.2,2.14,2.14,0,0,0,1.75-.76l1.5,1.31a4.36,4.36,0,1,1-3.38-7.11c2.86,0,4.73,2.35,4.1,5.36Zm3-1.86a1.57,1.57,0,0,0-3.06,0Z" style="fill: #1a1a1a"/>
          <path d="M115.41,98.38a2.82,2.82,0,0,1,1.67.44V95.19h2.82V107h-2.18l-.22-.93a3.14,3.14,0,0,1-2.31,1c-2,0-3.46-1.84-3.46-4.27S113.12,98.38,115.41,98.38Zm1.67,2.54a2.18,2.18,0,0,0-.86-.25c-1,0-1.7.86-1.68,2,0,1.34.62,2,1.69,2a1.46,1.46,0,0,0,.85-.37Z" style="fill: #1a1a1a"/>
          <path d="M124.32,98.47V107H121.5V98.47Zm-2.8-.73v-2.6h2.79v2.6Z" style="fill: #1a1a1a"/>
          <path d="M130.45,106.92a8.34,8.34,0,0,1-1.08.1c-1.7,0-3.16-.9-3.09-3v-3.48h-1.13V98.41h1.13v-2l2.75-.27v2.27h1.42v2.16H129V104c0,.79.52.94,1.42.84Z" style="fill: #1a1a1a"/>
        </g>
      </g>
    </g>
  </g>
</svg>
