<svg xmlns="http://www.w3.org/2000/svg" width="969.3" height="720" viewBox="0 0 969.3 720">
  <g style="isolation: isolate">
    <g id="Layer_2" data-name="Layer 2">
      <g id="Layer_1-2" data-name="Layer 1">
        <g>
          <rect x="4.65" y="412.35" width="960" height="8" style="fill: #fff;mix-blend-mode: overlay"/>
          <rect x="4.65" y="273.16" width="960" height="8" style="fill: #fff;mix-blend-mode: overlay"/>
        </g>
        <g>
          <g>
            <path d="M413.82,312.39h-4.65l.6-3.5c2.47,0,5.64-.73,6.67-3.44h3.44l-4,22.33h-4.84Z" style="fill: #ed1b24"/>
            <path d="M421,311.42c.81-4.57,3.58-6.45,7.93-6.45,5.48,0,6.36,2.64,5.35,7.75l-1.45,8.22c-.89,5-2.9,7.39-8.11,7.39-4.26,0-6.4-1.89-5.6-6.3Zm8.43,0c.08-.34.67-2.65-1.16-2.65-1.64,0-2,1.37-2.19,2.65l-1.8,10.25c-.26,1.34-.51,2.86,1.19,2.86s2-2.07,2.15-2.86Z" style="fill: #ed1b24"/>
            <path d="M436.42,311.42c.82-4.57,3.58-6.45,7.93-6.45,5.48,0,6.37,2.64,5.36,7.75l-1.45,8.22c-.89,5-2.91,7.39-8.11,7.39-4.26,0-6.4-1.89-5.61-6.3Zm8.43,0c.08-.34.67-2.65-1.15-2.65-1.65,0-2,1.37-2.19,2.65l-1.81,10.25c-.26,1.34-.51,2.86,1.2,2.86s2-2.07,2.15-2.86Z" style="fill: #ed1b24"/>
            <path d="M451.51,311.05c.59-3.31,2.21-5.66,5.86-5.66s4.57,1.83,3.88,5.66c-.56,3.2-1.66,5.69-5.89,5.69C451.5,316.74,450.88,314.58,451.51,311.05Zm5.08,17.28H454L468.47,305H471Zm1-17.31c.18-.94.81-2.86-.68-2.86s-1.51,1.92-1.69,2.86c-.23,1.37-.81,3,.65,3S457.42,312,457.57,311Zm15.88,11.19c-.56,3.2-1.66,5.69-5.89,5.69-3.86,0-4.49-2.16-3.85-5.69.59-3.31,2.21-5.65,5.86-5.65C473.38,316.56,474.09,318.66,473.45,322.21Zm-6.06-.06c-.22,1.37-.81,3,.65,3s1.58-2,1.73-3,.81-2.83-.68-2.83S467.57,321.21,467.39,322.15Z" style="fill: #ed1b24"/>
            <path d="M482.2,327.78l4-22.81h5.36l-1.6,9.12h.06l5.56-9.12h5.48L494.45,315l2.91,12.74H491.7l-1.56-7.94-1.59,2.31-1,5.63Z" style="fill: #ed1b24"/>
            <path d="M498.73,327.78l4-22.81h5.36l-4,22.81Z" style="fill: #ed1b24"/>
            <path d="M522.81,321h.06l4.49-16h5.09l-7.85,22.81h-6l1.21-16.06h-.06l-4.62,16.06h-5.93l.21-22.81h5.17l-1.24,16,.09-.06,5-16h5.17Z" style="fill: #ed1b24"/>
            <path d="M529.65,327.78l4-22.81h5.36l-4,22.81Z" style="fill: #ed1b24"/>
            <path d="M423.31,348.83c-.91,5.14-3.19,7.82-8.61,7.82s-6.82-2.68-5.9-7.82l1.65-9.28c.76-4.38,3.81-6.81,8.5-6.81s6.78,2.43,6,6.81Zm-3.78-8.91c.26-1.4.44-3.07-1.32-3.07s-2.23,1.67-2.48,3.07l-1.65,9.37c-.26,1.31-.38,3.25,1.36,3.25s2.18-1.94,2.44-3.25Z" style="fill: #ed1b24"/>
            <path d="M440.37,349.29h.06l4.5-16H450l-7.85,22.81h-6l1.2-16.06h-.06l-4.61,16.06h-5.94l.21-22.81h5.17l-1.23,16,.09-.06,5-16h5.17Z" style="fill: #ed1b24"/>
            <path d="M454.42,343.33l-.06.06-1.78,12.71H447.5l4-22.81h5.51L458.92,346h.1l1.74-12.74h5.08l-4,22.81h-5.48Z" style="fill: #ed1b24"/>
            <path d="M463.9,356.1l4-22.81h12.27l-.78,4.56h-6.91l-.77,4.2h6.7l-.82,4.56h-6.69l-.87,4.93h7.28l-.82,4.56Z" style="fill: #ed1b24"/>
            <path d="M478,356.1l4-22.81h5.81c2,0,4.3.06,5.85,1.06,1.84,1.22,1.8,3.44,1.42,5.63l-1.81,10.13a6.71,6.71,0,0,1-3.18,4.93,9.46,9.46,0,0,1-4.92,1.06Zm6.09-4.11c3.54.25,3.83-1.21,4.27-4.25l1.35-7.46c.42-2.67-.43-2.82-3-2.89Z" style="fill: #ed1b24"/>
            <path d="M500.18,356.1l9-22.81h6.45l.92,22.81h-5.42l0-4.44H507l-1.43,4.44Zm11.55-18.68h-.06l-3.39,10.22h3.1Z" style="fill: #ed1b24"/>
            <path d="M524.44,343.33l-.06.06-1.77,12.71h-5.09l4.05-22.81h5.51L529,346H529l1.75-12.74h5.08l-4,22.81h-5.48Z" style="fill: #ed1b24"/>
            <path d="M533.67,356.1l4-22.81h5.81c2,0,4.3.06,5.85,1.06,1.84,1.22,1.8,3.44,1.42,5.63L549,350.11A6.73,6.73,0,0,1,545.8,355a9.46,9.46,0,0,1-4.92,1.06Zm6.09-4.11c3.54.25,3.83-1.21,4.27-4.25l1.35-7.46c.42-2.67-.43-2.82-3-2.89Z" style="fill: #ed1b24"/>
            <path d="M424.3,377.15c-.91,5.14-3.19,7.82-8.61,7.82s-6.82-2.68-5.91-7.82l1.66-9.28c.76-4.38,3.81-6.81,8.5-6.81s6.78,2.43,6,6.81Zm-3.78-8.91c.26-1.4.44-3.07-1.32-3.07s-2.23,1.67-2.48,3.07l-1.65,9.37c-.26,1.31-.38,3.25,1.36,3.25s2.18-1.94,2.44-3.25Z" style="fill: #ed1b24"/>
            <path d="M424.67,384.42l4-22.81h6.36c2.07,0,5,.18,6.22,1.88,1,1.4,1,3.11.63,5-.46,2.47-1.52,5.23-4.16,6.36-2,.91-4.12.64-6.16.73L430,384.42Zm7.67-13a5.41,5.41,0,0,0,3.12-.58,4.15,4.15,0,0,0,1.07-2.31c.16-.88.29-2.22-.55-2.64a6.14,6.14,0,0,0-2-.19h-.58Z" style="fill: #ed1b24"/>
            <path d="M440.51,384.42l4-22.81h12.27l-.79,4.56h-6.91l-.76,4.2h6.69l-.81,4.56h-6.7l-.86,4.93H454l-.81,4.56Z" style="fill: #ed1b24"/>
            <path d="M460.09,384.42h-5.36l4-22.81h7.82c4.38,0,6.27,1.76,5.45,6.29-.43,2.44-1.31,4.17-3.74,5.21v.06a2.54,2.54,0,0,1,2.11,2.95c-.18,1.82-.83,5.75-.78,7.21a1.79,1.79,0,0,0,.36.79l-.05.3h-5.84a4.74,4.74,0,0,1-.08-1.31c.27-2,.72-3.89.82-5.29s-.17-2.31-1.39-2.4h-1.77Zm2.34-13.11h1.83c1.55,0,2.17-1.43,2.4-2.83.48-2.71-.62-2.83-3.24-2.77Z" style="fill: #ed1b24"/>
            <path d="M470.57,384.42l9-22.81h6.45l.92,22.81h-5.41l0-4.44h-4.2L476,384.42Zm11.55-18.68h-.06L478.67,376h3.11Z" style="fill: #ed1b24"/>
            <path d="M489.12,361.61H503l-.78,4.56h-4.33l-3.25,18.25h-5.36l3.26-18.25h-4.2Z" style="fill: #ed1b24"/>
            <path d="M500.42,384.42l4-22.81h12.27l-.79,4.56H509l-.76,4.2H515l-.81,4.56h-6.7l-.86,4.93h7.27l-.81,4.56Z" style="fill: #ed1b24"/>
            <path d="M515,384.42l4-22.81h5.81c2,0,4.3.06,5.85,1.06,1.84,1.22,1.8,3.44,1.42,5.63l-1.81,10.13a6.72,6.72,0,0,1-3.17,4.93,9.5,9.5,0,0,1-4.93,1.06Zm6.09-4.11c3.54.25,3.83-1.21,4.27-4.25l1.35-7.46c.43-2.67-.43-2.83-3-2.89Z" style="fill: #ed1b24"/>
          </g>
          <g>
            <path d="M13.93,354.73l34.32-46.9h18.2L56.16,356.29H63l-2.81,13H53.35l-3.12,14.88H33.69l3.12-14.88h-26Zm25.69,1.56L45,331h-.21l-18.1,25.27Z" style="fill: #fff"/>
            <path d="M71.44,328.21c3.33-15.6,13-22,27.87-22,18.73,0,21.43,9,17.37,26.52l-5.92,28.08C107.11,377.82,99.94,386,82.15,386c-14.56,0-21.63-6.45-18.4-21.53Zm28.81,0c.31-1.14,2.6-9-3.64-9-5.62,0-6.86,4.68-7.8,9l-7.38,35.05c-1,4.58-2.08,9.78,3.74,9.78,5.93-.21,7.07-7.07,7.7-9.78Z" style="fill: #fff"/>
            <path d="M146.53,331.65h.21l14.77-25.48h18.3l-28.39,45.24-7,32.76h-18.3l7-32.76-8.84-45.24h18.52Z" style="fill: #fff"/>
            <path d="M167.12,384.17l16.54-78h41.91l-3.22,15.6H198.74l-3.12,14.35H218.5l-3.33,15.6H192.29l-3.54,16.85h24.86l-3.33,15.6Z" style="fill: #fff"/>
            <path d="M213.19,384.17l33.6-78h22l.41,78H250.74l.62-15.19H237l-5.41,15.19Zm41.71-63.86h-.21L241.9,355.25h10.61Z" style="fill: #fff"/>
            <path d="M290.67,384.17h-18.3l16.54-78h26.72c15,0,21.22,6,17.89,21.52-1.76,8.32-5,14.25-13.41,17.79v.21c4.78,1.14,7.69,4.68,6.86,10.09-.83,6.24-3.54,19.65-3.54,24.64a5.88,5.88,0,0,0,1.15,2.71l-.21,1h-20a15.86,15.86,0,0,1-.1-4.47c1.14-6.87,2.91-13.32,3.43-18.1s-.31-7.9-4.47-8.22h-6Zm9.57-44.83h6.24c5.31,0,7.6-4.89,8.53-9.67,2-9.26-1.77-9.67-10.71-9.46Z" style="fill: #fff"/>
            <path d="M347.87,358.06l-1.14,5.52c-.94,4.47-.31,8.42,5.51,8.42,4.27,0,7-3.85,7.8-7.8,1.35-6.55-3.53-9.05-7.69-12-4.89-3.23-9.05-6.24-11.65-10.19s-3.43-8.74-2-15.6c3.12-14.67,13.52-22.16,27.67-22.16,15.91,0,21.84,10.61,17.89,25.28H367.43c.73-4.58,2.29-10.82-3.64-11.24-3.75-.31-6.35,1.77-7.49,5.2-1.56,4.68.31,7.08,3.43,9.57,5.93,4.37,11.34,7.07,14.77,11s4.78,9.15,2.81,18.61c-3.23,15-13.31,23.3-28.5,23.3-16.74,0-21.84-9.36-19.66-19.66l1.77-8.32Z" style="fill: #fff"/>
          </g>
          <g>
            <path d="M587.65,319.36h.06l4.65-14.73H597l-7.95,21h-5.54l1.62-14.79h-.06l-4.76,14.79h-5.46l.93-21h4.76l-1.65,14.75.08-.05,5.09-14.7h4.77Z" style="fill: #e6e6e6"/>
            <path d="M598.82,318.52l-.58,2.74c-.17.87,0,1.6,1,1.65,1.63.09,1.77-1.4,2.13-2.71h4.42c-.61,4-3.19,5.88-7.08,5.93-3.19,0-5.71-1.29-5-4.87l1.38-6.38c.84-4,3.66-5.35,7.11-5.38,3.13,0,5.77,1.15,5,4.54l-.95,4.48Zm3.7-2.94.34-1.54a1.22,1.22,0,0,0-1.18-1.6c-1.26,0-1.79,1-2,2.1l-.22,1Z" style="fill: #e6e6e6"/>
            <path d="M621.73,314.6a4.47,4.47,0,0,0,0-1.49c-.08-.39-.36-.67-1.09-.67a1.62,1.62,0,0,0-1.76,1.32c-.17.84.45,1.26,1,1.59,2.61,1.32,5.55,2.07,4.76,5.8-.75,3.5-3.72,5-7,5-3.52,0-5.65-1.51-4.7-5.29h4.26a3.12,3.12,0,0,0-.06,1.6,1.07,1.07,0,0,0,1.15.75,1.82,1.82,0,0,0,1.93-1.48,1.31,1.31,0,0,0-.34-1.21c-1.59-.95-3.94-1.62-5-3.21a3.64,3.64,0,0,1-.47-3c.7-3.38,3.69-4.84,6.8-4.84s5.52,1.62,4.62,5.1Z" style="fill: #e6e6e6"/>
            <path d="M626.54,313.17l.68-3.22H629l.95-4.48h4.45l-1,4.48h2.13l-.67,3.22h-2.13L631,321.43c-.2.9.16,1.09.75,1.09a5.66,5.66,0,0,1,1.15-.06l-.67,3.14a20.43,20.43,0,0,1-2.92.25c-2.4,0-3.44-1.23-2.93-3.61l1.93-9.07Z" style="fill: #e6e6e6"/>
            <path d="M641.22,324.23a6,6,0,0,1-4.26,1.9c-2.52,0-3.73-1.71-3.19-4.2a6.51,6.51,0,0,1,5-5.32c2.07-.64,4.06-.84,4.42-2.52.17-.87-.17-1.62-1.06-1.62-1.63,0-1.88,1.12-2.24,2.44h-4.45a5.94,5.94,0,0,1,2.49-4.18,8.27,8.27,0,0,1,4.67-1.23c4.4,0,5.72,1.34,5,4.79l-2.05,9.6a5.35,5.35,0,0,0,0,1.74h-4.33Zm1.14-6.22a24.69,24.69,0,0,0-2.49,1.15,3,3,0,0,0-1.46,2,1.23,1.23,0,0,0,1.29,1.68c1.32,0,1.88-1.37,2.13-2.38Z" style="fill: #e6e6e6"/>
            <path d="M654.4,310l-.5,2.38H654a4.52,4.52,0,0,1,4-2.83l-1.07,5a7.09,7.09,0,0,0-1.31-.11c-1.26,0-1.82.25-2.19,1.54l-2,9.66h-4.45L650.26,310Z" style="fill: #e6e6e6"/>
            <path d="M657.51,313.17l.67-3.22H660l.95-4.48h4.45l-1,4.48h2.13l-.68,3.22h-2.12L662,321.43c-.19.9.17,1.09.76,1.09a5.62,5.62,0,0,1,1.15-.06l-.68,3.14a20.29,20.29,0,0,1-2.91.25c-2.4,0-3.44-1.23-2.94-3.61l1.93-9.07Z" style="fill: #e6e6e6"/>
            <path d="M670.31,318.52l-.59,2.74c-.17.87,0,1.6,1,1.65,1.63.09,1.77-1.4,2.13-2.71h4.43c-.62,4-3.2,5.88-7.09,5.93-3.19,0-5.71-1.29-5-4.87l1.37-6.38c.84-4,3.67-5.35,7.11-5.38,3.14,0,5.77,1.15,5,4.54l-.95,4.48Zm3.69-2.94.34-1.54a1.22,1.22,0,0,0-1.18-1.6c-1.26,0-1.79,1-2,2.1l-.23,1Z" style="fill: #e6e6e6"/>
            <path d="M685.29,325.63l.39-1.82h-.06a5.3,5.3,0,0,1-4,2.32c-3.22-.11-3.22-3.16-2.66-5.82l1.17-5.43c.51-2.47,2-5.38,4.93-5.38a2.94,2.94,0,0,1,2.86,1.88h0l1.43-6.75h4.45l-4.45,21ZM683.52,320c-.19.93-.53,2.52.76,2.52s1.62-1.2,1.93-2.71l.79-3.7c.3-1.34.44-3-.65-2.94-1.43,0-1.76,1.77-2,2.77Z" style="fill: #e6e6e6"/>
            <path d="M710.68,320.08h.06L714.13,310h4.25L712,325.63h-4.76l.47-8.15h0l-3.08,8.15h-4.76l.33-15.68h4.31l-.89,10.13h0L707.43,310h3.81Z" style="fill: #e6e6e6"/>
            <path d="M716.39,325.63,719.73,310h4.45l-3.33,15.68Zm3.67-17.22.79-3.78h4.45l-.79,3.78Z" style="fill: #e6e6e6"/>
            <path d="M724.93,313.17l.68-3.22h1.76l1-4.48h4.45l-.95,4.48H734l-.67,3.22h-2.13l-1.76,8.26c-.2.9.16,1.09.75,1.09a5.66,5.66,0,0,1,1.15-.06l-.67,3.14a20.41,20.41,0,0,1-2.91.25c-2.41,0-3.45-1.23-2.94-3.61l1.93-9.07Z" style="fill: #e6e6e6"/>
            <path d="M739.52,311.18h.06a4.9,4.9,0,0,1,3.72-1.68,2.69,2.69,0,0,1,2.8,3.56l-2.66,12.57H739l2.38-11.14c.17-.9.06-1.35-1-1.35a1.83,1.83,0,0,0-1.65,1.65l-2.3,10.84H732l4.45-21h4.45Z" style="fill: #e6e6e6"/>
            <path d="M759.43,311.24h.06a4.34,4.34,0,0,1,3.69-1.74c2.94,0,3.19,2.91,2.69,5.38l-1.18,5.43c-.56,2.66-1.84,5.71-5.12,5.82a3.16,3.16,0,0,1-3.05-2.29h-.06l-.39,1.79h-4.14l4.45-21h4.45Zm1.79,4.48c.2-.93.56-2.55-.73-2.55s-1.73,1.23-2,2.74l-.78,3.7c-.31,1.34-.34,2.91.75,2.88,1.43,0,1.74-1.7,1.93-2.71Z" style="fill: #e6e6e6"/>
            <path d="M765.7,325.63,769,310h4.46l-3.34,15.68Zm3.67-17.22.78-3.78h4.46l-.79,3.78Z" style="fill: #e6e6e6"/>
            <path d="M776.51,326.5c-.22,1.09-.14,1.56,1.15,1.48,1-.08,1.37-.28,1.62-1.29l.67-3.16h-.05a5.49,5.49,0,0,1-3.53,1.71c-2.8,0-3.39-2.52-2.88-4.93l1.17-5.43c.51-2.47,2-5.38,5-5.38a3,3,0,0,1,3,2.35h.06l.39-1.9h4.14l-3.39,16c-.78,3.66-3.69,5-7,5s-5.44-.81-4.79-4.42Zm1.51-6.58c-.17.87,0,1.68,1,1.68,1.21,0,1.57-1.1,1.77-2.05l.92-4.34c.22-1.06.2-2.07-1-2.07s-1.57,1.51-1.71,2.32Z" style="fill: #e6e6e6"/>
            <path d="M792.81,325.63,796.14,310h4.45l-3.33,15.68Zm3.66-17.22.79-3.78h4.45l-.78,3.78Z" style="fill: #e6e6e6"/>
            <path d="M806.92,325.63l.39-1.82h-.06a5.29,5.29,0,0,1-4,2.32c-3.22-.11-3.22-3.16-2.66-5.82l1.17-5.43c.51-2.47,2-5.38,4.93-5.38a2.94,2.94,0,0,1,2.86,1.88h0l1.43-6.75h4.45l-4.45,21ZM805.15,320c-.19.93-.53,2.52.76,2.52s1.62-1.2,1.93-2.71l.79-3.7c.3-1.34.44-3-.65-2.94-1.43,0-1.76,1.77-2,2.77Z" style="fill: #e6e6e6"/>
            <path d="M818.82,318.52l-.59,2.74c-.17.87.06,1.6,1,1.65,1.62.09,1.76-1.4,2.12-2.71h4.43c-.62,4-3.19,5.88-7.09,5.93-3.19,0-5.71-1.29-5-4.87l1.37-6.38c.84-4,3.67-5.35,7.11-5.38,3.14,0,5.77,1.15,5,4.54l-.95,4.48Zm3.69-2.94.34-1.54a1.22,1.22,0,0,0-1.18-1.6c-1.26,0-1.79,1-2,2.1l-.23,1Z" style="fill: #e6e6e6"/>
            <path d="M834.13,324.23a5.92,5.92,0,0,1-4.25,1.9c-2.52,0-3.73-1.71-3.19-4.2a6.51,6.51,0,0,1,5-5.32c2.07-.64,4.06-.84,4.42-2.52.17-.87-.17-1.62-1.06-1.62-1.63,0-1.88,1.12-2.24,2.44h-4.45a5.94,5.94,0,0,1,2.49-4.18,8.27,8.27,0,0,1,4.67-1.23c4.4,0,5.72,1.34,5,4.79l-2,9.6a5.35,5.35,0,0,0,0,1.74h-4.34Zm1.15-6.22a24.69,24.69,0,0,0-2.49,1.15,3,3,0,0,0-1.46,2,1.23,1.23,0,0,0,1.29,1.68c1.32,0,1.88-1.37,2.13-2.38Z" style="fill: #e6e6e6"/>
            <path d="M848.72,314.6a4.5,4.5,0,0,0,.06-1.49c-.09-.39-.37-.67-1.09-.67a1.63,1.63,0,0,0-1.77,1.32c-.17.84.45,1.26,1,1.59,2.6,1.32,5.54,2.07,4.76,5.8-.76,3.5-3.73,5-7,5-3.53,0-5.66-1.51-4.71-5.29h4.26a3.12,3.12,0,0,0-.06,1.6,1.07,1.07,0,0,0,1.15.75,1.82,1.82,0,0,0,1.93-1.48,1.28,1.28,0,0,0-.33-1.21c-1.6-.95-4-1.62-5-3.21a3.68,3.68,0,0,1-.48-3c.7-3.38,3.7-4.84,6.8-4.84s5.52,1.62,4.62,5.1Z" style="fill: #e6e6e6"/>
            <path d="M858.66,325.63,862,310h4.46l-3.34,15.68Zm3.67-17.22.78-3.78h4.46l-.79,3.78Z" style="fill: #e6e6e6"/>
            <path d="M873.05,310l-.42,2h.06a4.74,4.74,0,0,1,3.61-2.41c2.1,0,3.75,1.15,3.31,3.28l-2.75,12.85h-4.45l2.38-11.2c.11-.73-.06-1.35-.9-1.29a1.48,1.48,0,0,0-1.48,1.29L870,325.63h-4.45L868.91,310Z" style="fill: #e6e6e6"/>
            <path d="M894.47,305.72a3,3,0,0,0-2.91,2.69h2.35l-.95,4.48h-4.42l1-4.51c.59-2.83,2.55-4.06,5.32-4.26Z" style="fill: #e6e6e6"/>
            <path d="M897.05,314.54c-1.6-1-2-2.38-1.51-4.4.78-3.72,3.58-5.51,7.19-5.51s5.74,1.76,5,5.51a6,6,0,0,1-3.5,4.4v.06c1.88,1.26,2.1,2.57,1.57,5.07-1,4.59-3.59,6.46-8,6.46-3.61,0-5.27-2.41-4.4-6.46a6.39,6.39,0,0,1,3.67-5.07Zm4.31,4.93c.28-1.32.59-3.11-1.17-3.11s-2.05,1.88-2.33,3.19-.61,3.17,1,3.17S901.08,320.79,901.36,319.47Zm-.42-6.47c1.46,0,2-1.34,2.27-2.52s.22-2.46-1.09-2.46c-1.51,0-2,1.34-2.24,2.57C899.65,311.66,899.63,313,900.94,313Z" style="fill: #e6e6e6"/>
            <path d="M913.09,311.46h-4.28l.67-3.22c2.27,0,5.21-.67,6.25-3.16h3.16l-4.37,20.55h-4.45Z" style="fill: #e6e6e6"/>
            <path d="M937.17,324.42a8.38,8.38,0,0,1-5,1.71c-3.75,0-5.79-2.41-5-6.24a9.94,9.94,0,0,1,5.29-6.69,6.49,6.49,0,0,1-.7-4.68c.62-2.94,3.84-4.4,6.38-4.4,2.78,0,4.85,1.55,4.2,4.57a7.8,7.8,0,0,1-4.67,5.18c.5,1.17,1.06,2.35,1.51,3.55h.06c.44-1,.84-2,1.2-3h3.61a19.45,19.45,0,0,1-3.3,6.63l1.93,4.54h-5Zm-3.47-8.06a5.51,5.51,0,0,0-2.13,3.28,2.09,2.09,0,0,0,2,2.71,5,5,0,0,0,2.29-.92Zm2-7.87a3,3,0,0,0,.65,2.52,4.15,4.15,0,0,0,2-2.35c.2-1-.11-1.45-1.12-1.45A1.61,1.61,0,0,0,935.66,308.49Z" style="fill: #e6e6e6"/>
            <path d="M572.76,357.63,576.09,342h4.45l-3.33,15.68Zm3.66-17.22.79-3.78h4.45l-.78,3.78Z" style="fill: #e6e6e6"/>
            <path d="M581.3,345.17,582,342h1.76l.95-4.48h4.45l-1,4.48h2.13l-.67,3.22h-2.13l-1.76,8.26c-.2.9.17,1.09.75,1.09a5.69,5.69,0,0,1,1.15-.06L587,357.6a20.41,20.41,0,0,1-2.91.25c-2.41,0-3.45-1.23-2.94-3.61l1.93-9.07Z" style="fill: #e6e6e6"/>
            <path d="M591.63,343.8a3,3,0,0,0,2.91-2.69h-2.35l.95-4.48h4.42l-.95,4.51c-.59,2.82-2.55,4.06-5.32,4.25Z" style="fill: #e6e6e6"/>
            <path d="M602.8,346.6a4.5,4.5,0,0,0,.06-1.49c-.09-.39-.37-.67-1.1-.67a1.63,1.63,0,0,0-1.76,1.32c-.17.84.45,1.26,1,1.59,2.6,1.32,5.54,2.07,4.76,5.8-.76,3.5-3.73,5-7,5-3.53,0-5.66-1.51-4.71-5.29h4.26a3.12,3.12,0,0,0-.06,1.6,1.07,1.07,0,0,0,1.15.75,1.82,1.82,0,0,0,1.93-1.48,1.31,1.31,0,0,0-.33-1.21c-1.6-.95-3.95-1.62-5-3.21a3.68,3.68,0,0,1-.47-3c.7-3.38,3.69-4.84,6.8-4.84s5.52,1.62,4.62,5.1Z" style="fill: #e6e6e6"/>
            <path d="M616,345.2h-1.79l.7-3.22h1.77l.3-1.37c.7-3,2.36-4,5.24-4h2l-.67,3.22h-.95c-.51,0-1,.14-1.07.53l-.33,1.6h1.9l-.7,3.22h-1.9l-2.63,12.43h-4.46Z" style="fill: #e6e6e6"/>
            <path d="M628.73,356.23a5.94,5.94,0,0,1-4.26,1.9c-2.52,0-3.72-1.71-3.19-4.2a6.51,6.51,0,0,1,5-5.32c2.07-.64,4.06-.84,4.42-2.52.17-.87-.16-1.62-1.06-1.62-1.62,0-1.88,1.12-2.24,2.44H623a5.94,5.94,0,0,1,2.49-4.18,8.28,8.28,0,0,1,4.68-1.23c4.39,0,5.71,1.34,5,4.79l-2,9.6a4.84,4.84,0,0,0,0,1.74h-4.34Zm1.14-6.22a27,27,0,0,0-2.49,1.15,2.91,2.91,0,0,0-1.45,2,1.22,1.22,0,0,0,1.28,1.68c1.32,0,1.88-1.37,2.13-2.38Z" style="fill: #e6e6e6"/>
            <path d="M634.94,357.63,638.27,342h4.46l-3.34,15.68Zm3.67-17.22.78-3.78h4.46l-.79,3.78Z" style="fill: #e6e6e6"/>
            <path d="M649.14,342l-.51,2.38h.06a4.53,4.53,0,0,1,4-2.83l-1.06,5a7.13,7.13,0,0,0-1.32-.11c-1.26,0-1.82.25-2.18,1.54l-2,9.66h-4.45L645,342Z" style="fill: #e6e6e6"/>
            <path d="M658.69,345.17l.67-3.22h1.76l1-4.48h4.46l-1,4.48h2.13l-.67,3.22H664.9l-1.76,8.26c-.2.9.17,1.09.75,1.09a5.69,5.69,0,0,1,1.15-.06l-.67,3.14a20.41,20.41,0,0,1-2.91.25c-2.41,0-3.45-1.23-2.94-3.61l1.93-9.07Z" style="fill: #e6e6e6"/>
            <path d="M667.93,346.88c.84-4,3.5-5.38,6.94-5.38,3.92,0,5.43,1.85,4.7,5.38l-1.37,6.38c-1,3.56-3.47,4.87-6.86,4.87-3.19,0-5.54-1.29-4.79-4.87Zm3,6.66c-.11.9.17,1.37,1.09,1.37s1.37-.47,1.65-1.37l1.49-7c.22-1,.05-1.82-1-1.82s-1.54.81-1.77,1.82Z" style="fill: #e6e6e6"/>
            <path d="M694.39,346.6a4.76,4.76,0,0,0,.05-1.49c-.08-.39-.36-.67-1.09-.67a1.62,1.62,0,0,0-1.76,1.32c-.17.84.44,1.26,1,1.59,2.61,1.32,5.55,2.07,4.76,5.8-.75,3.5-3.72,5-7,5-3.53,0-5.65-1.51-4.7-5.29h4.25a3.12,3.12,0,0,0,0,1.6,1.06,1.06,0,0,0,1.15.75,1.82,1.82,0,0,0,1.93-1.48,1.31,1.31,0,0,0-.34-1.21c-1.59-.95-4-1.62-5-3.21a3.68,3.68,0,0,1-.48-3c.7-3.38,3.7-4.84,6.81-4.84s5.51,1.62,4.62,5.1Z" style="fill: #e6e6e6"/>
            <path d="M705.11,356.23a5.93,5.93,0,0,1-4.26,1.9c-2.52,0-3.72-1.71-3.19-4.2a6.52,6.52,0,0,1,5-5.32c2.08-.64,4.06-.84,4.43-2.52.17-.87-.17-1.62-1.07-1.62-1.62,0-1.87,1.12-2.24,2.44h-4.45a6,6,0,0,1,2.49-4.18,8.31,8.31,0,0,1,4.68-1.23c4.4,0,5.71,1.34,5,4.79l-2,9.6a5.35,5.35,0,0,0,0,1.74h-4.34Zm1.15-6.22a24.69,24.69,0,0,0-2.49,1.15,2.89,2.89,0,0,0-1.46,2c-.22,1,.22,1.68,1.29,1.68,1.31,0,1.87-1.37,2.13-2.38Z" style="fill: #e6e6e6"/>
            <path d="M717,352.08H717L720.73,342h4.37l-5.68,13.41c-2,4.26-2.69,7.56-7.56,7.56-.79,0-1.29-.14-1.74-.14l.7-3.3a5.5,5.5,0,0,1,.84.11c.45.08,1.37-.17,1.51-.79a11.83,11.83,0,0,0,.06-2.66L713.15,342h4.48Z" style="fill: #e6e6e6"/>
            <path d="M742,352.08h.06L745.49,342h4.25l-6.36,15.68h-4.75l.47-8.15h-.05L736,357.63h-4.76l.33-15.68h4.31L735,352.08h0L738.79,342h3.81Z" style="fill: #e6e6e6"/>
            <path d="M753.1,350.52l-.59,2.74c-.17.87.06,1.6,1,1.65,1.62.09,1.76-1.4,2.13-2.71h4.42c-.61,4-3.19,5.88-7.08,5.93-3.19,0-5.71-1.29-5-4.87l1.37-6.38c.84-4,3.67-5.35,7.12-5.38,3.13,0,5.76,1.15,5,4.54l-1,4.48Zm3.7-2.94.33-1.54a1.21,1.21,0,0,0-1.17-1.6c-1.26,0-1.79,1-2,2.1l-.22,1Z" style="fill: #e6e6e6"/>
            <path d="M764.08,343.8a3,3,0,0,0,2.91-2.69h-2.35l1-4.48H770l-1,4.51c-.59,2.82-2.55,4.06-5.32,4.25Z" style="fill: #e6e6e6"/>
            <path d="M775.39,342l-.5,2.38h.05a4.54,4.54,0,0,1,4-2.83l-1.06,5a7.13,7.13,0,0,0-1.32-.11c-1.26,0-1.82.25-2.18,1.54l-2,9.66h-4.46L771.25,342Z" style="fill: #e6e6e6"/>
            <path d="M782.53,350.52l-.59,2.74c-.17.87.06,1.6,1,1.65,1.62.09,1.76-1.4,2.12-2.71h4.43c-.62,4-3.19,5.88-7.08,5.93-3.2,0-5.72-1.29-5-4.87l1.37-6.38c.84-4,3.67-5.35,7.11-5.38,3.14,0,5.77,1.15,5,4.54l-1,4.48Zm3.69-2.94.34-1.54a1.22,1.22,0,0,0-1.18-1.6c-1.25,0-1.79,1-2,2.1l-.23,1Z" style="fill: #e6e6e6"/>
            <path d="M805.43,346.6a4.5,4.5,0,0,0,.06-1.49c-.08-.39-.36-.67-1.09-.67a1.63,1.63,0,0,0-1.77,1.32c-.16.84.45,1.26,1,1.59,2.6,1.32,5.54,2.07,4.76,5.8-.76,3.5-3.72,5-7,5-3.53,0-5.66-1.51-4.71-5.29H801a3.12,3.12,0,0,0-.05,1.6,1,1,0,0,0,1.14.75,1.83,1.83,0,0,0,1.94-1.48,1.31,1.31,0,0,0-.34-1.21c-1.6-.95-3.95-1.62-5-3.21a3.68,3.68,0,0,1-.48-3c.7-3.38,3.7-4.84,6.8-4.84s5.52,1.62,4.62,5.1Z" style="fill: #e6e6e6"/>
            <path d="M810.25,345.17l.67-3.22h1.76l1-4.48h4.45l-1,4.48h2.12l-.67,3.22h-2.12l-1.77,8.26c-.19.9.17,1.09.76,1.09a5.56,5.56,0,0,1,1.14-.06l-.67,3.14a20.41,20.41,0,0,1-2.91.25c-2.41,0-3.44-1.23-2.94-3.61l1.93-9.07Z" style="fill: #e6e6e6"/>
            <path d="M817.7,357.63,821,342h4.45l-3.33,15.68Zm3.66-17.22.79-3.78h4.45l-.78,3.78Z" style="fill: #e6e6e6"/>
            <path d="M824.92,357.63l4.45-21h4.45l-4.45,21Z" style="fill: #e6e6e6"/>
            <path d="M832.14,357.63l4.46-21h4.45l-4.45,21Z" style="fill: #e6e6e6"/>
            <path d="M849.08,345.2h-1.79L848,342h1.77l.3-1.37c.7-3,2.36-4,5.24-4h2l-.67,3.22h-1c-.51,0-1,.14-1.07.53l-.33,1.6h1.9l-.7,3.22h-1.9l-2.64,12.43h-4.45Z" style="fill: #e6e6e6"/>
            <path d="M861.32,357.63l.42-1.93h-.06a4.81,4.81,0,0,1-3.64,2.43c-2.57,0-3.72-1.17-3.27-3.3L857.51,342H862l-2.38,11.23c-.11.73-.05,1.37.82,1.31a1.58,1.58,0,0,0,1.56-1.31L864.34,342h4.46l-3.34,15.68Z" style="fill: #e6e6e6"/>
            <path d="M868,357.63l4.45-21h4.46l-4.46,21Z" style="fill: #e6e6e6"/>
            <path d="M875.24,357.63l4.45-21h4.45l-4.45,21Z" style="fill: #e6e6e6"/>
            <path d="M890.69,346.88c.84-4,3.5-5.38,6.95-5.38,3.92,0,5.43,1.85,4.7,5.38L901,353.26c-1,3.56-3.47,4.87-6.86,4.87-3.19,0-5.55-1.29-4.79-4.87Zm3,6.66c-.12.9.16,1.37,1.09,1.37s1.37-.47,1.65-1.37l1.48-7c.23-1,.06-1.82-1-1.82s-1.54.81-1.76,1.82Z" style="fill: #e6e6e6"/>
            <path d="M905.62,345.2h-1.8l.7-3.22h1.77l.31-1.37c.7-3,2.35-4,5.23-4h2l-.67,3.22h-1c-.51,0-1,.14-1.07.53l-.33,1.6h1.9l-.7,3.22h-1.9l-2.63,12.43H903Z" style="fill: #e6e6e6"/>
            <path d="M926.25,337.72a3,3,0,0,0-2.91,2.69h2.35l-1,4.48h-4.42l.95-4.51c.59-2.83,2.55-4.06,5.32-4.26Z" style="fill: #e6e6e6"/>
            <path d="M930.12,350.52l-.59,2.74c-.17.87.05,1.6,1,1.65,1.63.09,1.77-1.4,2.13-2.71h4.43c-.62,4-3.2,5.88-7.09,5.93-3.19,0-5.71-1.29-4.95-4.87l1.37-6.38c.84-4,3.67-5.35,7.11-5.38,3.14,0,5.77,1.15,5,4.54l-1,4.48Zm3.69-2.94.34-1.54a1.22,1.22,0,0,0-1.18-1.6c-1.26,0-1.79,1-2,2.1l-.23,1Z" style="fill: #e6e6e6"/>
            <path d="M945.07,342l-.39,1.82h.05a5.47,5.47,0,0,1,3.81-2.27,2.61,2.61,0,0,1,2.88,2.07h.06a4.75,4.75,0,0,1,3.67-2.07c2.1,0,3.75,1.15,3.3,3.28l-2.74,12.85h-4.45l2.38-11.2c.11-.73-.06-1.35-.9-1.29a1.48,1.48,0,0,0-1.48,1.29l-2.38,11.2h-4.46l2.38-11.2c0-.67,0-1.29-.78-1.29a1.51,1.51,0,0,0-1.6,1.29L942,357.63h-4.45L940.92,342Z" style="fill: #e6e6e6"/>
            <path d="M574.07,377.17l.67-3.22h1.77l1-4.48h4.45L581,374h2.13l-.67,3.22h-2.13l-1.77,8.26c-.19.9.17,1.09.76,1.09a5.62,5.62,0,0,1,1.15-.06l-.67,3.14a20.55,20.55,0,0,1-2.92.25c-2.4,0-3.44-1.23-2.94-3.61l1.94-9.07Z" style="fill: #e6e6e6"/>
            <path d="M583.31,378.88c.84-4,3.5-5.38,7-5.38,3.92,0,5.43,1.85,4.7,5.38l-1.37,6.38c-1,3.56-3.47,4.87-6.86,4.87-3.19,0-5.55-1.29-4.79-4.87Zm3,6.66c-.12.9.16,1.37,1.09,1.37s1.37-.47,1.65-1.37l1.48-7c.23-1,.06-1.82-1-1.82s-1.54.81-1.76,1.82Z" style="fill: #e6e6e6"/>
            <path d="M601.85,389.63l.39-1.82h-.06a5.29,5.29,0,0,1-4,2.32C595,390,595,387,595.55,384.31l1.17-5.43c.51-2.47,2-5.38,4.93-5.38a2.94,2.94,0,0,1,2.86,1.88h0l1.43-6.75h4.45l-4.45,21ZM600.08,384c-.19.93-.53,2.52.76,2.52s1.62-1.2,1.93-2.71l.79-3.7c.3-1.34.44-3-.65-2.94-1.43,0-1.76,1.77-2,2.77Z" style="fill: #e6e6e6"/>
            <path d="M615.62,388.23a5.92,5.92,0,0,1-4.25,1.9c-2.52,0-3.73-1.71-3.19-4.2a6.5,6.5,0,0,1,5-5.32c2.07-.64,4.06-.84,4.42-2.52.17-.87-.17-1.62-1.06-1.62-1.63,0-1.88,1.12-2.24,2.44h-4.46a6,6,0,0,1,2.5-4.18A8.25,8.25,0,0,1,617,373.5c4.4,0,5.71,1.34,5,4.79l-2,9.6a5.35,5.35,0,0,0,0,1.74h-4.34Zm1.15-6.22a24.69,24.69,0,0,0-2.49,1.15,2.92,2.92,0,0,0-1.46,2,1.23,1.23,0,0,0,1.29,1.68c1.32,0,1.88-1.37,2.13-2.38Z" style="fill: #e6e6e6"/>
            <path d="M627.5,384.08h0l3.7-10.13h4.37l-5.69,13.41c-2,4.26-2.69,7.56-7.56,7.56-.78,0-1.29-.14-1.74-.14l.71-3.3a5.67,5.67,0,0,1,.84.11c.44.08,1.37-.17,1.51-.79a11.83,11.83,0,0,0,0-2.66L623.66,374h4.48Z" style="fill: #e6e6e6"/>
            <path d="M632.79,389.63l1-4.79h4.73l-1,4.79Z" style="fill: #e6e6e6"/>
            <path d="M646.84,389.63l4.45-21h4.93l-1.71,8.06h3.42l1.71-8.06h4.93l-4.46,21h-4.92l1.84-8.74h-3.41l-1.85,8.74Z" style="fill: #e6e6e6"/>
            <path d="M667.73,382.52l-.59,2.74c-.17.87.06,1.6,1,1.65,1.62.09,1.76-1.4,2.13-2.71h4.42c-.62,4-3.19,5.88-7.08,5.93-3.2,0-5.72-1.29-5-4.87l1.37-6.38c.84-4,3.67-5.35,7.11-5.38,3.14,0,5.77,1.15,5,4.54l-1,4.48Zm3.7-2.94.33-1.54a1.22,1.22,0,0,0-1.17-1.6c-1.26,0-1.8,1-2,2.1l-.22,1Z" style="fill: #e6e6e6"/>
            <path d="M682.8,374l-.51,2.38h.06a4.53,4.53,0,0,1,4-2.83l-1.07,5a7,7,0,0,0-1.31-.11c-1.26,0-1.82.25-2.19,1.54l-2,9.66h-4.45L678.65,374Z" style="fill: #e6e6e6"/>
            <path d="M689.93,382.52l-.58,2.74c-.17.87,0,1.6,1,1.65,1.63.09,1.77-1.4,2.13-2.71h4.42c-.61,4-3.19,5.88-7.08,5.93-3.19,0-5.71-1.29-5-4.87l1.38-6.38c.84-4,3.66-5.35,7.11-5.38,3.13,0,5.77,1.15,5,4.54l-.95,4.48Zm3.7-2.94L694,378a1.22,1.22,0,0,0-1.18-1.6c-1.26,0-1.79,1-2,2.1l-.22,1Z" style="fill: #e6e6e6"/>
            <path d="M700.91,375.8a2.94,2.94,0,0,0,2.91-2.69h-2.35l.95-4.48h4.43l-1,4.51c-.58,2.82-2.54,4.06-5.32,4.25Z" style="fill: #e6e6e6"/>
            <path d="M712.08,378.6a4.5,4.5,0,0,0,.06-1.49c-.09-.39-.37-.67-1.09-.67a1.63,1.63,0,0,0-1.77,1.32c-.17.84.45,1.26,1,1.59,2.6,1.32,5.54,2.07,4.76,5.8-.76,3.5-3.73,5-7,5-3.53,0-5.66-1.51-4.71-5.29h4.26a3.12,3.12,0,0,0-.06,1.6,1.07,1.07,0,0,0,1.15.75,1.82,1.82,0,0,0,1.93-1.48,1.28,1.28,0,0,0-.33-1.21c-1.6-.95-4-1.62-5-3.21a3.68,3.68,0,0,1-.48-3c.7-3.38,3.7-4.84,6.8-4.84s5.52,1.62,4.62,5.1Z" style="fill: #e6e6e6"/>
            <path d="M723.34,377.17,724,374h1.76l1-4.48h4.45l-.95,4.48h2.12l-.67,3.22h-2.13l-1.76,8.26c-.2.9.17,1.09.76,1.09a5.56,5.56,0,0,1,1.14-.06L729,389.6a20.41,20.41,0,0,1-2.91.25c-2.41,0-3.44-1.23-2.94-3.61l1.93-9.07Z" style="fill: #e6e6e6"/>
            <path d="M737.93,375.18H738a4.94,4.94,0,0,1,3.73-1.68,2.7,2.7,0,0,1,2.8,3.56l-2.66,12.57h-4.46l2.38-11.14c.17-.9.06-1.35-1-1.35a1.83,1.83,0,0,0-1.65,1.65l-2.29,10.84h-4.46l4.46-21h4.45Z" style="fill: #e6e6e6"/>
            <path d="M749.57,382.52l-.58,2.74c-.17.87,0,1.6,1,1.65,1.63.09,1.77-1.4,2.13-2.71h4.42c-.61,4-3.19,5.88-7.08,5.93-3.19,0-5.71-1.29-5-4.87l1.38-6.38c.84-4,3.66-5.35,7.11-5.38,3.13,0,5.77,1.15,5,4.54l-.95,4.48Zm3.7-2.94.34-1.54a1.22,1.22,0,0,0-1.18-1.6c-1.26,0-1.79,1-2,2.1l-.22,1Z" style="fill: #e6e6e6"/>
            <path d="M767.49,368.63h12.77l-.87,4.2h-4l-3.59,16.8h-4.92l3.58-16.8h-3.86Z" style="fill: #e6e6e6"/>
            <path d="M782.45,374l-.51,2.38H782a4.53,4.53,0,0,1,4-2.83l-1.06,5a7.13,7.13,0,0,0-1.32-.11c-1.26,0-1.82.25-2.18,1.54l-2.05,9.66H775L778.3,374Z" style="fill: #e6e6e6"/>
            <path d="M791.46,388.23a5.92,5.92,0,0,1-4.25,1.9c-2.52,0-3.73-1.71-3.2-4.2a6.52,6.52,0,0,1,5-5.32c2.07-.64,4.06-.84,4.42-2.52.17-.87-.17-1.62-1.06-1.62-1.63,0-1.88,1.12-2.24,2.44h-4.46a6,6,0,0,1,2.5-4.18,8.25,8.25,0,0,1,4.67-1.23c4.4,0,5.71,1.34,5,4.79l-2.05,9.6a5.35,5.35,0,0,0,0,1.74h-4.34Zm1.15-6.22a24.69,24.69,0,0,0-2.49,1.15,2.92,2.92,0,0,0-1.46,2,1.23,1.23,0,0,0,1.29,1.68c1.32,0,1.88-1.37,2.13-2.38Z" style="fill: #e6e6e6"/>
            <path d="M804.85,374l-.42,2h.05a4.74,4.74,0,0,1,3.61-2.41c2.1,0,3.76,1.15,3.31,3.28l-2.75,12.85H804.2l2.38-11.2c.11-.73-.05-1.35-.89-1.29a1.49,1.49,0,0,0-1.49,1.29l-2.38,11.2h-4.45L800.7,374Z" style="fill: #e6e6e6"/>
            <path d="M819.49,378.6a4.5,4.5,0,0,0,.06-1.49c-.09-.39-.37-.67-1.1-.67a1.63,1.63,0,0,0-1.76,1.32c-.17.84.45,1.26,1,1.59,2.6,1.32,5.54,2.07,4.76,5.8-.76,3.5-3.73,5-7,5-3.53,0-5.66-1.51-4.71-5.29H815a3.12,3.12,0,0,0-.06,1.6,1.07,1.07,0,0,0,1.15.75,1.82,1.82,0,0,0,1.93-1.48,1.31,1.31,0,0,0-.33-1.21c-1.6-.95-4-1.62-5-3.21a3.64,3.64,0,0,1-.48-3c.7-3.38,3.69-4.84,6.8-4.84s5.52,1.62,4.62,5.1Z" style="fill: #e6e6e6"/>
            <path d="M822.6,389.63l4.45-21h5.35c1.79,0,4,.05,5.35,1,1.65,1.12,1.54,3.16,1.12,5.18l-2,9.32a6.49,6.49,0,0,1-3.08,4.54,8.89,8.89,0,0,1-4.57,1Zm5.74-3.78c3.25.22,3.55-1.12,4.06-3.92l1.48-6.86c.48-2.46-.31-2.61-2.69-2.66Z" style="fill: #e6e6e6"/>
            <path d="M838,389.63,841.33,374h4.45l-3.33,15.68Zm3.67-17.22.78-3.78h4.45l-.78,3.78Z" style="fill: #e6e6e6"/>
            <path d="M850.57,382.52l-.59,2.74c-.17.87.06,1.6,1,1.65,1.62.09,1.76-1.4,2.13-2.71h4.42c-.62,4-3.19,5.88-7.08,5.93-3.2,0-5.72-1.29-5-4.87l1.37-6.38c.84-4,3.67-5.35,7.11-5.38,3.14,0,5.77,1.15,5,4.54l-.95,4.48Zm3.7-2.94.33-1.54a1.22,1.22,0,0,0-1.17-1.6c-1.26,0-1.8,1-2,2.1l-.22,1Z" style="fill: #e6e6e6"/>
            <path d="M867,378.6a4.5,4.5,0,0,0,.06-1.49c-.08-.39-.36-.67-1.09-.67a1.63,1.63,0,0,0-1.77,1.32c-.16.84.45,1.26,1,1.59,2.6,1.32,5.54,2.07,4.76,5.8-.76,3.5-3.72,5-7,5-3.53,0-5.66-1.51-4.7-5.29h4.25a3.12,3.12,0,0,0-.05,1.6,1.06,1.06,0,0,0,1.14.75,1.83,1.83,0,0,0,1.94-1.48,1.31,1.31,0,0,0-.34-1.21c-1.6-.95-3.95-1.62-5-3.21a3.68,3.68,0,0,1-.48-3c.7-3.38,3.7-4.84,6.81-4.84s5.51,1.62,4.62,5.1Z" style="fill: #e6e6e6"/>
            <path d="M875.88,382.52l-.59,2.74c-.16.87.06,1.6,1,1.65,1.62.09,1.76-1.4,2.13-2.71h4.42c-.61,4-3.19,5.88-7.08,5.93-3.19,0-5.71-1.29-5-4.87l1.37-6.38c.84-4,3.67-5.35,7.12-5.38,3.13,0,5.76,1.15,5,4.54l-1,4.48Zm3.7-2.94.33-1.54a1.21,1.21,0,0,0-1.17-1.6c-1.26,0-1.79,1-2,2.1l-.22,1Z" style="fill: #e6e6e6"/>
            <path d="M884,389.63l4.46-21h4.45l-4.45,21Z" style="fill: #e6e6e6"/>
            <path d="M906,378.6a4.5,4.5,0,0,0,.06-1.49c-.09-.39-.37-.67-1.1-.67a1.63,1.63,0,0,0-1.76,1.32c-.17.84.45,1.26,1,1.59,2.6,1.32,5.54,2.07,4.76,5.8-.76,3.5-3.73,5-7,5-3.53,0-5.66-1.51-4.71-5.29h4.26a3.12,3.12,0,0,0-.06,1.6,1.07,1.07,0,0,0,1.15.75,1.82,1.82,0,0,0,1.93-1.48,1.31,1.31,0,0,0-.33-1.21c-1.6-.95-4-1.62-5-3.21a3.68,3.68,0,0,1-.47-3c.7-3.38,3.69-4.84,6.8-4.84s5.52,1.62,4.62,5.1Z" style="fill: #e6e6e6"/>
            <path d="M910.83,377.17l.67-3.22h1.76l1-4.48h4.46l-1,4.48h2.13l-.67,3.22H917l-1.76,8.26c-.2.9.17,1.09.75,1.09a5.69,5.69,0,0,1,1.15-.06l-.67,3.14a20.41,20.41,0,0,1-2.91.25c-2.41,0-3.45-1.23-2.94-3.61l1.93-9.07Z" style="fill: #e6e6e6"/>
            <path d="M920.06,378.88c.84-4,3.5-5.38,7-5.38,3.92,0,5.43,1.85,4.7,5.38l-1.37,6.38c-1,3.56-3.47,4.87-6.86,4.87-3.19,0-5.54-1.29-4.79-4.87Zm3,6.66c-.11.9.17,1.37,1.09,1.37s1.37-.47,1.65-1.37l1.49-7c.22-1,0-1.82-1-1.82s-1.54.81-1.77,1.82Z" style="fill: #e6e6e6"/>
            <path d="M938.68,374l-.5,2.38h.06a4.52,4.52,0,0,1,4-2.83l-1.07,5a7,7,0,0,0-1.31-.11c-1.26,0-1.82.25-2.19,1.54l-2,9.66h-4.45L934.54,374Z" style="fill: #e6e6e6"/>
            <path d="M946.64,384.08h.05l3.7-10.13h4.37l-5.69,13.41c-2,4.26-2.69,7.56-7.56,7.56-.78,0-1.29-.14-1.73-.14l.7-3.3a5.67,5.67,0,0,1,.84.11c.44.08,1.37-.17,1.51-.79a11.83,11.83,0,0,0,0-2.66L942.8,374h4.48Z" style="fill: #e6e6e6"/>
            <path d="M951.93,389.63l1-4.79h4.73l-1,4.79Z" style="fill: #e6e6e6"/>
          </g>
        </g>
        <g>
          <path d="M255.94,427.77l-2.76,15.45H158l10.53-15.45H151.81L131.89,457H264.72L270,427.77Zm37.54-208-30,44h16.68l6.95-10.19-1.83,10.19h14l7.88-44Zm119.9,223.45,2.75-15.45h-14L396.94,457h60.65L439.28,558.17H378.55l-23,131.49H223.34l23-131.49H16.49L37.86,439l7.84-11.25H28.9l-3.22,4.61-.86,1.24L0,572H229.93l-23,131.5h160.2l23-131.5h60.65L474.1,443.22ZM316.71,14.71,143.17,263.77H160L323.91,28.5H473L431.24,263.77h14L489.46,14.71ZM255.94,427.77l-2.76,15.45H158l10.53-15.45H151.81L131.89,457H264.72L270,427.77Zm37.54-208-30,44h16.68l6.95-10.19-1.83,10.19h14l7.88-44Zm-37.54,208-2.76,15.45H158l10.53-15.45H151.81L131.89,457H264.72L270,427.77Zm37.54-208-30,44h16.68l6.95-10.19-1.83,10.19h14l7.88-44Z" style="fill: #fff"/>
          <path d="M758.06,427.77l-14.53,82.69c-.28,1.45-.58,3-.9,4.73-4.86,26-13.92,74.46-57.48,76.08-13.18,0-22.23-3.23-27.66-9.8-12-14.47-6-45.66-1.56-68.44l15-85.26h-14l-14.53,82.7c-5.18,26.88-11.6,60.32,4.48,79.78,8.11,9.83,21,14.81,38.42,14.81h.24c23.8-.84,42.13-12.69,54.47-35.22,9.79-17.88,13.65-38.49,16.19-52.12.32-1.67.61-3.24.89-4.67l15-85.28Zm47.58-297.51c-8-10.16-20.06-15.32-35.85-15.32-24.55,0-43,9.68-55,28.76-10.09,16.17-14.42,37-18,57l-11.09,63.12h14l10.67-60.71c3.33-18.62,7.33-38,16.13-52.05,9.48-15.19,23.23-22.27,43.25-22.27,11.51,0,19.69,3.28,25,10,8.89,11.28,10.1,32.89,3.4,60.83l-.2.82-11.13,63.33h14l10.64-60.53.09-.4C819.45,170.23,817.38,145.14,805.64,130.26Zm106,297.51-10.7,60.68c-14,78.49-36.78,130.77-71.67,164.53-18.65,18-40.86,31.08-67.9,39.86-27.72,9-60,13.37-98.72,13.37-33.4,0-62.17-4-85.52-11.79-23.52-7.88-42.16-19.91-55.41-35.75C509.43,644,501.34,625.6,497.64,603.9c-3.86-22.68-3.06-49.56,2.37-79.93l17-96.2H503l-16.61,93.77c-5.71,31.94-6.52,60.43-2.38,84.67s13.21,44.77,27.06,61.32c14.91,17.81,35.64,31.26,61.6,40,24.77,8.3,55,12.51,89.91,12.51,40.18,0,73.86-4.59,103-14s53-23.53,73.23-43.07c37.07-35.87,61.11-90.54,75.67-172l11.11-63.09ZM968.76,129.9c-2.23-33.82-11.31-60-27.78-80-14-17.06-33-29.37-58.12-37.63S827.37,0,789.69,0C648,0,567.36,65.62,543.26,200.62l-11.18,63.15h14L556.85,203h0c5.94-33.26,15.57-62.39,28.62-86.59C598.13,93,614.47,73.33,634,58.08c19.11-14.9,42-26.17,68.07-33.48,25.53-7.18,55-10.81,87.59-10.81,36.19,0,65.25,3.78,88.86,11.55,22.53,7.43,39.47,18.32,51.78,33.3,28,34,32.39,90,14.35,181.41v.06l-4.17,23.66h14l3.72-21.12C967.28,196.7,970.73,159.83,968.76,129.9ZM758.06,427.77l-14.53,82.69c-.28,1.45-.58,3-.9,4.73-4.86,26-13.92,74.46-57.48,76.08-13.18,0-22.23-3.23-27.66-9.8-12-14.47-6-45.66-1.56-68.44l15-85.26h-14l-14.53,82.7c-5.18,26.88-11.6,60.32,4.48,79.78,8.11,9.83,21,14.81,38.42,14.81h.24c23.8-.84,42.13-12.69,54.47-35.22,9.79-17.88,13.65-38.49,16.19-52.12.32-1.67.61-3.24.89-4.67l15-85.28Zm47.58-297.51c-8-10.16-20.06-15.32-35.85-15.32-24.55,0-43,9.68-55,28.76-10.09,16.17-14.42,37-18,57l-11.09,63.12h14l10.67-60.71c3.33-18.62,7.33-38,16.13-52.05,9.48-15.19,23.23-22.27,43.25-22.27,11.51,0,19.69,3.28,25,10,8.89,11.28,10.1,32.89,3.4,60.83l-.2.82-11.13,63.33h14l10.64-60.53.09-.4C819.45,170.23,817.38,145.14,805.64,130.26ZM758.06,427.77l-14.53,82.69c-.28,1.45-.58,3-.9,4.73-4.86,26-13.92,74.46-57.48,76.08-13.18,0-22.23-3.23-27.66-9.8-12-14.47-6-45.66-1.56-68.44l15-85.26h-14l-14.53,82.7c-5.18,26.88-11.6,60.32,4.48,79.78,8.11,9.83,21,14.81,38.42,14.81h.24c23.8-.84,42.13-12.69,54.47-35.22,9.79-17.88,13.65-38.49,16.19-52.12.32-1.67.61-3.24.89-4.67l15-85.28Zm47.58-297.51c-8-10.16-20.06-15.32-35.85-15.32-24.55,0-43,9.68-55,28.76-10.09,16.17-14.42,37-18,57l-11.09,63.12h14l10.67-60.71c3.33-18.62,7.33-38,16.13-52.05,9.48-15.19,23.23-22.27,43.25-22.27,11.51,0,19.69,3.28,25,10,8.89,11.28,10.1,32.89,3.4,60.83l-.2.82-11.13,63.33h14l10.64-60.53.09-.4C819.45,170.23,817.38,145.14,805.64,130.26Z" style="fill: #fff"/>
        </g>
      </g>
    </g>
  </g>
</svg>
