<svg xmlns="http://www.w3.org/2000/svg" width="969.3" height="900" viewBox="0 0 969.3 900">
  <g style="isolation: isolate">
    <g id="Layer_2" data-name="Layer 2">
      <g id="Layer_1-2" data-name="Layer 1">
        <g>
          <rect x="4.65" y="502.88" width="960" height="8" style="fill: #fff;mix-blend-mode: overlay"/>
          <rect x="4.65" y="363.69" width="960" height="8" style="fill: #fff;mix-blend-mode: overlay"/>
        </g>
        <g>
          <g>
            <path d="M413.82,402.92h-4.65l.6-3.5c2.47,0,5.64-.73,6.67-3.44h3.44l-4,22.33h-4.84Z" style="fill: #ed1b24"/>
            <path d="M421,401.94c.81-4.56,3.58-6.44,7.93-6.44,5.48,0,6.36,2.64,5.35,7.75l-1.45,8.21c-.89,5-2.9,7.4-8.11,7.4-4.26,0-6.4-1.89-5.6-6.3Zm8.43,0c.08-.33.67-2.64-1.16-2.64-1.64,0-2,1.37-2.19,2.64l-1.8,10.26c-.26,1.33-.51,2.85,1.19,2.85s2-2.06,2.15-2.85Z" style="fill: #ed1b24"/>
            <path d="M436.42,401.94c.82-4.56,3.58-6.44,7.93-6.44,5.48,0,6.37,2.64,5.36,7.75l-1.45,8.21c-.89,5-2.91,7.4-8.11,7.4-4.26,0-6.4-1.89-5.61-6.3Zm8.43,0c.08-.33.67-2.64-1.15-2.64-1.65,0-2,1.37-2.19,2.64L439.7,412.2c-.26,1.33-.51,2.85,1.2,2.85s2-2.06,2.15-2.85Z" style="fill: #ed1b24"/>
            <path d="M451.51,401.58c.59-3.32,2.21-5.66,5.86-5.66s4.57,1.83,3.88,5.66c-.56,3.19-1.66,5.69-5.89,5.69C451.5,407.27,450.88,405.11,451.51,401.58Zm5.08,17.28H454l14.44-23.36H471Zm1-17.31c.18-.94.81-2.86-.68-2.86s-1.51,1.92-1.69,2.86c-.23,1.37-.81,2.95.65,2.95S457.42,402.49,457.57,401.55Zm15.88,11.19c-.56,3.2-1.66,5.69-5.89,5.69-3.86,0-4.49-2.16-3.85-5.69.59-3.31,2.21-5.65,5.86-5.65C473.38,407.09,474.09,409.18,473.45,412.74Zm-6.06-.06c-.22,1.37-.81,3,.65,3s1.58-2,1.73-3,.81-2.83-.68-2.83S467.57,411.74,467.39,412.68Z" style="fill: #ed1b24"/>
            <path d="M482.2,418.31l4-22.81h5.36l-1.6,9.12h.06l5.56-9.12h5.48l-6.65,10.06,2.91,12.75H491.7l-1.56-7.94-1.59,2.31-1,5.63Z" style="fill: #ed1b24"/>
            <path d="M498.73,418.31l4-22.81h5.36l-4,22.81Z" style="fill: #ed1b24"/>
            <path d="M522.81,411.5h.06l4.49-16h5.09l-7.85,22.81h-6l1.21-16.06h-.06l-4.62,16.06h-5.93l.21-22.81h5.17l-1.24,16,.09-.07,5-16h5.17Z" style="fill: #ed1b24"/>
            <path d="M529.65,418.31l4-22.81h5.36l-4,22.81Z" style="fill: #ed1b24"/>
            <path d="M423.31,439.36c-.91,5.14-3.19,7.82-8.61,7.82s-6.82-2.68-5.9-7.82l1.65-9.28c.76-4.38,3.81-6.81,8.5-6.81s6.78,2.43,6,6.81Zm-3.78-8.91c.26-1.4.44-3.08-1.32-3.08s-2.23,1.68-2.48,3.08l-1.65,9.37c-.26,1.3-.38,3.25,1.36,3.25s2.18-1.95,2.44-3.25Z" style="fill: #ed1b24"/>
            <path d="M440.37,439.82h.06l4.5-16H450l-7.85,22.81h-6l1.2-16.06h-.06l-4.61,16.06h-5.94l.21-22.81h5.17l-1.23,16,.09-.07,5-16h5.17Z" style="fill: #ed1b24"/>
            <path d="M454.42,433.85l-.06.06-1.78,12.72H447.5l4-22.81h5.51l1.87,12.74h.1l1.74-12.74h5.08l-4,22.81h-5.48Z" style="fill: #ed1b24"/>
            <path d="M463.9,446.63l4-22.81h12.27l-.78,4.56h-6.91l-.77,4.2h6.7l-.82,4.56h-6.69l-.87,4.93h7.28l-.82,4.56Z" style="fill: #ed1b24"/>
            <path d="M478,446.63l4-22.81h5.81c2,0,4.3.06,5.85,1.06,1.84,1.22,1.8,3.44,1.42,5.63l-1.81,10.13a6.67,6.67,0,0,1-3.18,4.92,9.37,9.37,0,0,1-4.92,1.07Zm6.09-4.11c3.54.25,3.83-1.21,4.27-4.26l1.35-7.45c.42-2.67-.43-2.83-3-2.89Z" style="fill: #ed1b24"/>
            <path d="M500.18,446.63l9-22.81h6.45l.92,22.81h-5.42l0-4.44H507l-1.43,4.44ZM511.73,428h-.06l-3.39,10.22h3.1Z" style="fill: #ed1b24"/>
            <path d="M524.44,433.85l-.06.06-1.77,12.72h-5.09l4.05-22.81h5.51L529,436.56H529l1.75-12.74h5.08l-4,22.81h-5.48Z" style="fill: #ed1b24"/>
            <path d="M533.67,446.63l4-22.81h5.81c2,0,4.3.06,5.85,1.06,1.84,1.22,1.8,3.44,1.42,5.63L549,440.64a6.7,6.7,0,0,1-3.18,4.92,9.37,9.37,0,0,1-4.92,1.07Zm6.09-4.11c3.54.25,3.83-1.21,4.27-4.26l1.35-7.45c.42-2.67-.43-2.83-3-2.89Z" style="fill: #ed1b24"/>
            <path d="M424.3,467.68c-.91,5.14-3.19,7.82-8.61,7.82s-6.82-2.68-5.91-7.82l1.66-9.28c.76-4.38,3.81-6.81,8.5-6.81s6.78,2.43,6,6.81Zm-3.78-8.91c.26-1.4.44-3.08-1.32-3.08s-2.23,1.68-2.48,3.08l-1.65,9.37c-.26,1.3-.38,3.25,1.36,3.25s2.18-1.95,2.44-3.25Z" style="fill: #ed1b24"/>
            <path d="M424.67,475l4-22.81h6.36c2.07,0,5,.18,6.22,1.88,1,1.4,1,3.1.63,5-.46,2.46-1.52,5.23-4.16,6.36-2,.91-4.12.64-6.16.73L430,475Zm7.67-13a5.41,5.41,0,0,0,3.12-.58,4.18,4.18,0,0,0,1.07-2.31c.16-.88.29-2.22-.55-2.65a6.47,6.47,0,0,0-2-.18h-.58Z" style="fill: #ed1b24"/>
            <path d="M440.51,475l4-22.81h12.27L456,456.7h-6.91l-.76,4.2h6.69l-.81,4.56h-6.7l-.86,4.93H454l-.81,4.56Z" style="fill: #ed1b24"/>
            <path d="M460.09,475h-5.36l4-22.81h7.82c4.38,0,6.27,1.76,5.45,6.29-.43,2.44-1.31,4.17-3.74,5.2v.06a2.55,2.55,0,0,1,2.11,2.95c-.18,1.83-.83,5.75-.78,7.21a1.69,1.69,0,0,0,.36.79L470,475h-5.84a4.74,4.74,0,0,1-.08-1.31c.27-2,.72-3.89.82-5.29s-.17-2.31-1.39-2.4h-1.77Zm2.34-13.11h1.83c1.55,0,2.17-1.43,2.4-2.83.48-2.71-.62-2.83-3.24-2.77Z" style="fill: #ed1b24"/>
            <path d="M470.57,475l9-22.81h6.45L487,475h-5.41l0-4.44h-4.2L476,475Zm11.55-18.68h-.06l-3.39,10.22h3.11Z" style="fill: #ed1b24"/>
            <path d="M489.12,452.14H503l-.78,4.56h-4.33L494.64,475h-5.36l3.26-18.25h-4.2Z" style="fill: #ed1b24"/>
            <path d="M500.42,475l4-22.81h12.27l-.79,4.56H509l-.76,4.2H515l-.81,4.56h-6.7l-.86,4.93h7.27l-.81,4.56Z" style="fill: #ed1b24"/>
            <path d="M515,475l4-22.81h5.81c2,0,4.3.06,5.85,1.06,1.84,1.22,1.8,3.44,1.42,5.63L530.34,469a6.69,6.69,0,0,1-3.17,4.92,9.41,9.41,0,0,1-4.93,1.07Zm6.09-4.11c3.54.25,3.83-1.21,4.27-4.26l1.35-7.45c.43-2.67-.43-2.83-3-2.89Z" style="fill: #ed1b24"/>
          </g>
          <g>
            <path d="M13.93,445.26l34.32-46.9h18.2L56.16,446.82H63l-2.81,13H53.35L50.23,474.7H33.69l3.12-14.88h-26Zm25.69,1.56L45,421.55h-.21l-18.1,25.27Z" style="fill: #fff"/>
            <path d="M71.44,418.74c3.33-15.6,13-22.05,27.87-22.05,18.73,0,21.43,9.05,17.37,26.52l-5.92,28.09c-3.65,17.05-10.82,25.27-28.61,25.27-14.56,0-21.63-6.45-18.4-21.53Zm28.81,0c.31-1.14,2.6-9.05-3.64-9.05-5.62,0-6.86,4.68-7.8,9.05l-7.38,35.05c-1,4.58-2.08,9.78,3.74,9.78,5.93-.21,7.07-7.08,7.7-9.78Z" style="fill: #fff"/>
            <path d="M146.53,422.17h.21l14.77-25.48h18.3l-28.39,45.24-7,32.77h-18.3l7-32.77-8.84-45.24h18.52Z" style="fill: #fff"/>
            <path d="M167.12,474.7l16.54-78h41.91l-3.22,15.6H198.74l-3.12,14.36H218.5l-3.33,15.6H192.29l-3.54,16.85h24.86l-3.33,15.6Z" style="fill: #fff"/>
            <path d="M213.19,474.7l33.6-78h22l.41,78H250.74l.62-15.19H237L231.6,474.7Zm41.71-63.86h-.21L241.9,445.78h10.61Z" style="fill: #fff"/>
            <path d="M290.67,474.7h-18.3l16.54-78h26.72c15,0,21.22,6,17.89,21.53-1.76,8.32-5,14.25-13.41,17.79v.2c4.78,1.15,7.69,4.69,6.86,10.09-.83,6.24-3.54,19.66-3.54,24.65a5.88,5.88,0,0,0,1.15,2.71l-.21,1h-20a15.93,15.93,0,0,1-.1-4.48c1.14-6.86,2.91-13.31,3.43-18.09s-.31-7.91-4.47-8.22h-6Zm9.57-44.83h6.24c5.31,0,7.6-4.89,8.53-9.67,2-9.26-1.77-9.67-10.71-9.47Z" style="fill: #fff"/>
            <path d="M347.87,448.59l-1.14,5.51c-.94,4.47-.31,8.43,5.51,8.43,4.27,0,7-3.85,7.8-7.8,1.35-6.56-3.53-9.05-7.69-12-4.89-3.23-9.05-6.24-11.65-10.2s-3.43-8.73-2-15.6c3.12-14.66,13.52-22.15,27.67-22.15,15.91,0,21.84,10.61,17.89,25.27H367.43c.73-4.57,2.29-10.81-3.64-11.23-3.75-.31-6.35,1.77-7.49,5.2-1.56,4.68.31,7.07,3.43,9.57,5.93,4.37,11.34,7.07,14.77,11s4.78,9.15,2.81,18.61c-3.23,15-13.31,23.3-28.5,23.3-16.74,0-21.84-9.36-19.66-19.66l1.77-8.32Z" style="fill: #fff"/>
          </g>
          <g>
            <path d="M587.65,409.89h.06l4.65-14.73H597l-7.95,21h-5.54l1.62-14.79h-.06l-4.76,14.79h-5.46l.93-21h4.76l-1.65,14.75.08-.05,5.09-14.7h4.77Z" style="fill: #e6e6e6"/>
            <path d="M598.82,409l-.58,2.75c-.17.87,0,1.59,1,1.65,1.63.09,1.77-1.4,2.13-2.71h4.42c-.61,4-3.19,5.88-7.08,5.93-3.19,0-5.71-1.29-5-4.87l1.38-6.38c.84-4,3.66-5.35,7.11-5.38,3.13,0,5.77,1.15,5,4.54l-.95,4.47Zm3.7-2.93.34-1.54a1.22,1.22,0,0,0-1.18-1.6c-1.26,0-1.79,1-2,2.1l-.22,1Z" style="fill: #e6e6e6"/>
            <path d="M621.73,405.12a4.41,4.41,0,0,0,0-1.48c-.08-.39-.36-.67-1.09-.67a1.62,1.62,0,0,0-1.76,1.31c-.17.84.45,1.26,1,1.6,2.61,1.32,5.55,2.07,4.76,5.8-.75,3.5-3.72,5-7,5-3.52,0-5.65-1.51-4.7-5.29h4.26a3.09,3.09,0,0,0-.06,1.59,1.07,1.07,0,0,0,1.15.76,1.82,1.82,0,0,0,1.93-1.48A1.3,1.3,0,0,0,620,411c-1.59-.95-3.94-1.62-5-3.22a3.61,3.61,0,0,1-.47-2.94c.7-3.38,3.69-4.84,6.8-4.84s5.52,1.62,4.62,5.09Z" style="fill: #e6e6e6"/>
            <path d="M626.54,403.7l.68-3.22H629l.95-4.48h4.45l-1,4.48h2.13l-.67,3.22h-2.13L631,412c-.2.89.16,1.09.75,1.09a5,5,0,0,1,1.15-.06l-.67,3.14a20.43,20.43,0,0,1-2.92.25c-2.4,0-3.44-1.23-2.93-3.61l1.93-9.07Z" style="fill: #e6e6e6"/>
            <path d="M641.22,414.76a6,6,0,0,1-4.26,1.9c-2.52,0-3.73-1.71-3.19-4.2a6.5,6.5,0,0,1,5-5.32c2.07-.64,4.06-.84,4.42-2.52.17-.87-.17-1.62-1.06-1.62-1.63,0-1.88,1.12-2.24,2.43h-4.45a5.92,5.92,0,0,1,2.49-4.17,8.19,8.19,0,0,1,4.67-1.23c4.4,0,5.72,1.34,5,4.79l-2.05,9.6a5.35,5.35,0,0,0,0,1.74h-4.33Zm1.14-6.22a24.69,24.69,0,0,0-2.49,1.15,3,3,0,0,0-1.46,2c-.22,1,.23,1.68,1.29,1.68,1.32,0,1.88-1.37,2.13-2.38Z" style="fill: #e6e6e6"/>
            <path d="M654.4,400.48l-.5,2.38H654a4.52,4.52,0,0,1,4-2.83l-1.07,5a7.09,7.09,0,0,0-1.31-.11c-1.26,0-1.82.25-2.19,1.54l-2,9.66h-4.45l3.33-15.68Z" style="fill: #e6e6e6"/>
            <path d="M657.51,403.7l.67-3.22H660l.95-4.48h4.45l-1,4.48h2.13l-.68,3.22h-2.12L662,412c-.19.89.17,1.09.76,1.09a5,5,0,0,1,1.15-.06l-.68,3.14a20.29,20.29,0,0,1-2.91.25c-2.4,0-3.44-1.23-2.94-3.61l1.93-9.07Z" style="fill: #e6e6e6"/>
            <path d="M670.31,409l-.59,2.75c-.17.87,0,1.59,1,1.65,1.63.09,1.77-1.4,2.13-2.71h4.43c-.62,4-3.2,5.88-7.09,5.93-3.19,0-5.71-1.29-5-4.87l1.37-6.38c.84-4,3.67-5.35,7.11-5.38,3.14,0,5.77,1.15,5,4.54l-.95,4.47Zm3.69-2.93.34-1.54a1.22,1.22,0,0,0-1.18-1.6c-1.26,0-1.79,1-2,2.1l-.23,1Z" style="fill: #e6e6e6"/>
            <path d="M685.29,416.16l.39-1.82h-.06a5.3,5.3,0,0,1-4,2.32c-3.22-.11-3.22-3.16-2.66-5.82l1.17-5.43c.51-2.47,2-5.38,4.93-5.38a2.94,2.94,0,0,1,2.86,1.88h0l1.43-6.75h4.45l-4.45,21Zm-1.77-5.66c-.19.92-.53,2.52.76,2.52s1.62-1.2,1.93-2.71l.79-3.7c.3-1.34.44-3-.65-2.94-1.43,0-1.76,1.76-2,2.77Z" style="fill: #e6e6e6"/>
            <path d="M710.68,410.61h.06l3.39-10.13h4.25L712,416.16h-4.76l.47-8.15h0l-3.08,8.15h-4.76l.33-15.68h4.31l-.89,10.13h0l3.78-10.13h3.81Z" style="fill: #e6e6e6"/>
            <path d="M716.39,416.16l3.34-15.68h4.45l-3.33,15.68Zm3.67-17.22.79-3.78h4.45l-.79,3.78Z" style="fill: #e6e6e6"/>
            <path d="M724.93,403.7l.68-3.22h1.76l1-4.48h4.45l-.95,4.48H734l-.67,3.22h-2.13L729.39,412c-.2.89.16,1.09.75,1.09a5,5,0,0,1,1.15-.06l-.67,3.14a20.41,20.41,0,0,1-2.91.25c-2.41,0-3.45-1.23-2.94-3.61l1.93-9.07Z" style="fill: #e6e6e6"/>
            <path d="M739.52,401.71h.06A4.87,4.87,0,0,1,743.3,400a2.69,2.69,0,0,1,2.8,3.55l-2.66,12.58H739L741.37,405c.17-.89.06-1.34-1-1.34a1.83,1.83,0,0,0-1.65,1.65l-2.3,10.84H732l4.45-21h4.45Z" style="fill: #e6e6e6"/>
            <path d="M759.43,401.77h.06a4.34,4.34,0,0,1,3.69-1.74c2.94,0,3.19,2.91,2.69,5.38l-1.18,5.43c-.56,2.66-1.84,5.71-5.12,5.82a3.16,3.16,0,0,1-3.05-2.3h-.06l-.39,1.8h-4.14l4.45-21h4.45Zm1.79,4.47c.2-.92.56-2.54-.73-2.54s-1.73,1.23-2,2.74l-.78,3.7c-.31,1.34-.34,2.91.75,2.88,1.43,0,1.74-1.71,1.93-2.71Z" style="fill: #e6e6e6"/>
            <path d="M765.7,416.16,769,400.48h4.46l-3.34,15.68Zm3.67-17.22.78-3.78h4.46l-.79,3.78Z" style="fill: #e6e6e6"/>
            <path d="M776.51,417c-.22,1.09-.14,1.56,1.15,1.48,1-.09,1.37-.28,1.62-1.29l.67-3.16h-.05a5.49,5.49,0,0,1-3.53,1.71c-2.8,0-3.39-2.53-2.88-4.93l1.17-5.43c.51-2.47,2-5.38,5-5.38a3,3,0,0,1,3,2.35h.06l.39-1.9h4.14l-3.39,16c-.78,3.67-3.69,5-7,5s-5.44-.81-4.79-4.42Zm1.51-6.58c-.17.86,0,1.67,1,1.67,1.21,0,1.57-1.09,1.77-2l.92-4.34c.22-1.06.2-2.07-1-2.07s-1.57,1.51-1.71,2.32Z" style="fill: #e6e6e6"/>
            <path d="M792.81,416.16l3.33-15.68h4.45l-3.33,15.68Zm3.66-17.22.79-3.78h4.45l-.78,3.78Z" style="fill: #e6e6e6"/>
            <path d="M806.92,416.16l.39-1.82h-.06a5.29,5.29,0,0,1-4,2.32c-3.22-.11-3.22-3.16-2.66-5.82l1.17-5.43c.51-2.47,2-5.38,4.93-5.38a2.94,2.94,0,0,1,2.86,1.88h0l1.43-6.75h4.45l-4.45,21Zm-1.77-5.66c-.19.92-.53,2.52.76,2.52s1.62-1.2,1.93-2.71l.79-3.7c.3-1.34.44-3-.65-2.94-1.43,0-1.76,1.76-2,2.77Z" style="fill: #e6e6e6"/>
            <path d="M818.82,409l-.59,2.75c-.17.87.06,1.59,1,1.65,1.62.09,1.76-1.4,2.12-2.71h4.43c-.62,4-3.19,5.88-7.09,5.93-3.19,0-5.71-1.29-5-4.87l1.37-6.38c.84-4,3.67-5.35,7.11-5.38,3.14,0,5.77,1.15,5,4.54l-.95,4.47Zm3.69-2.93.34-1.54a1.22,1.22,0,0,0-1.18-1.6c-1.26,0-1.79,1-2,2.1l-.23,1Z" style="fill: #e6e6e6"/>
            <path d="M834.13,414.76a5.92,5.92,0,0,1-4.25,1.9c-2.52,0-3.73-1.71-3.19-4.2a6.5,6.5,0,0,1,5-5.32c2.07-.64,4.06-.84,4.42-2.52.17-.87-.17-1.62-1.06-1.62-1.63,0-1.88,1.12-2.24,2.43h-4.45a5.92,5.92,0,0,1,2.49-4.17,8.19,8.19,0,0,1,4.67-1.23c4.4,0,5.72,1.34,5,4.79l-2,9.6a5.35,5.35,0,0,0,0,1.74h-4.34Zm1.15-6.22a24.69,24.69,0,0,0-2.49,1.15,3,3,0,0,0-1.46,2c-.22,1,.23,1.68,1.29,1.68,1.32,0,1.88-1.37,2.13-2.38Z" style="fill: #e6e6e6"/>
            <path d="M848.72,405.12a4.44,4.44,0,0,0,.06-1.48c-.09-.39-.37-.67-1.09-.67a1.63,1.63,0,0,0-1.77,1.31c-.17.84.45,1.26,1,1.6,2.6,1.32,5.54,2.07,4.76,5.8-.76,3.5-3.73,5-7,5-3.53,0-5.66-1.51-4.71-5.29h4.26a3.09,3.09,0,0,0-.06,1.59,1.07,1.07,0,0,0,1.15.76,1.82,1.82,0,0,0,1.93-1.48A1.28,1.28,0,0,0,847,411c-1.6-.95-4-1.62-5-3.22a3.65,3.65,0,0,1-.48-2.94c.7-3.38,3.7-4.84,6.8-4.84s5.52,1.62,4.62,5.09Z" style="fill: #e6e6e6"/>
            <path d="M858.66,416.16,862,400.48h4.46l-3.34,15.68Zm3.67-17.22.78-3.78h4.46l-.79,3.78Z" style="fill: #e6e6e6"/>
            <path d="M873.05,400.48l-.42,2h.06A4.71,4.71,0,0,1,876.3,400c2.1,0,3.75,1.15,3.31,3.28l-2.75,12.85h-4.45l2.38-11.2c.11-.73-.06-1.35-.9-1.29a1.48,1.48,0,0,0-1.48,1.29L870,416.16h-4.45l3.33-15.68Z" style="fill: #e6e6e6"/>
            <path d="M894.47,396.25a3,3,0,0,0-2.91,2.69h2.35l-.95,4.48h-4.42l1-4.51c.59-2.83,2.55-4.06,5.32-4.26Z" style="fill: #e6e6e6"/>
            <path d="M897.05,405.07c-1.6-1-2-2.38-1.51-4.4.78-3.72,3.58-5.51,7.19-5.51s5.74,1.76,5,5.51a6.06,6.06,0,0,1-3.5,4.4v.05c1.88,1.27,2.1,2.58,1.57,5.07-1,4.59-3.59,6.47-8,6.47-3.61,0-5.27-2.41-4.4-6.47a6.39,6.39,0,0,1,3.67-5.07Zm4.31,4.93c.28-1.32.59-3.11-1.17-3.11s-2.05,1.88-2.33,3.19-.61,3.16,1,3.16S901.08,411.31,901.36,410Zm-.42-6.47c1.46,0,2-1.34,2.27-2.52s.22-2.47-1.09-2.47c-1.51,0-2,1.35-2.24,2.58C899.65,402.19,899.63,403.53,900.94,403.53Z" style="fill: #e6e6e6"/>
            <path d="M913.09,402h-4.28l.67-3.22c2.27,0,5.21-.67,6.25-3.16h3.16l-4.37,20.55h-4.45Z" style="fill: #e6e6e6"/>
            <path d="M937.17,415a8.38,8.38,0,0,1-5,1.71c-3.75,0-5.79-2.41-5-6.24a9.92,9.92,0,0,1,5.29-6.69,6.5,6.5,0,0,1-.7-4.68c.62-2.94,3.84-4.4,6.38-4.4,2.78,0,4.85,1.54,4.2,4.57a7.8,7.8,0,0,1-4.67,5.18c.5,1.17,1.06,2.35,1.51,3.55h.06c.44-1,.84-2,1.2-3h3.61a19.45,19.45,0,0,1-3.3,6.63l1.93,4.54h-5Zm-3.47-8.06a5.52,5.52,0,0,0-2.13,3.27,2.1,2.1,0,0,0,2,2.72,5.13,5.13,0,0,0,2.29-.92Zm2-7.87a3,3,0,0,0,.65,2.52,4.15,4.15,0,0,0,2-2.35c.2-1-.11-1.46-1.12-1.46A1.62,1.62,0,0,0,935.66,399Z" style="fill: #e6e6e6"/>
            <path d="M572.76,448.16l3.33-15.68h4.45l-3.33,15.68Zm3.66-17.22.79-3.78h4.45l-.78,3.78Z" style="fill: #e6e6e6"/>
            <path d="M581.3,435.7l.67-3.22h1.76l.95-4.48h4.45l-1,4.48h2.13l-.67,3.22h-2.13L585.75,444c-.2.89.17,1.09.75,1.09a5,5,0,0,1,1.15-.06l-.67,3.14a20.41,20.41,0,0,1-2.91.25c-2.41,0-3.45-1.23-2.94-3.61l1.93-9.07Z" style="fill: #e6e6e6"/>
            <path d="M591.63,434.32a3,3,0,0,0,2.91-2.68h-2.35l.95-4.48h4.42l-.95,4.5c-.59,2.83-2.55,4.07-5.32,4.26Z" style="fill: #e6e6e6"/>
            <path d="M602.8,437.12a4.44,4.44,0,0,0,.06-1.48c-.09-.39-.37-.67-1.1-.67a1.63,1.63,0,0,0-1.76,1.31c-.17.84.45,1.26,1,1.6,2.6,1.32,5.54,2.07,4.76,5.8-.76,3.5-3.73,5-7,5-3.53,0-5.66-1.51-4.71-5.29h4.26a3.09,3.09,0,0,0-.06,1.59,1.07,1.07,0,0,0,1.15.76,1.82,1.82,0,0,0,1.93-1.48A1.3,1.3,0,0,0,601,443c-1.6-.95-3.95-1.62-5-3.22a3.65,3.65,0,0,1-.47-2.94c.7-3.38,3.69-4.84,6.8-4.84s5.52,1.62,4.62,5.09Z" style="fill: #e6e6e6"/>
            <path d="M616,435.73h-1.79l.7-3.23h1.77l.3-1.37c.7-3,2.36-4,5.24-4h2l-.67,3.22h-.95c-.51,0-1,.14-1.07.53l-.33,1.59h1.9l-.7,3.23h-1.9l-2.63,12.43h-4.46Z" style="fill: #e6e6e6"/>
            <path d="M628.73,446.76a5.94,5.94,0,0,1-4.26,1.9c-2.52,0-3.72-1.71-3.19-4.2a6.5,6.5,0,0,1,5-5.32c2.07-.64,4.06-.84,4.42-2.52.17-.87-.16-1.62-1.06-1.62-1.62,0-1.88,1.12-2.24,2.43H623a5.92,5.92,0,0,1,2.49-4.17,8.21,8.21,0,0,1,4.68-1.23c4.39,0,5.71,1.34,5,4.79l-2,9.6a4.84,4.84,0,0,0,0,1.74h-4.34Zm1.14-6.22a27,27,0,0,0-2.49,1.15,2.91,2.91,0,0,0-1.45,2c-.23,1,.22,1.68,1.28,1.68,1.32,0,1.88-1.37,2.13-2.38Z" style="fill: #e6e6e6"/>
            <path d="M634.94,448.16l3.33-15.68h4.46l-3.34,15.68Zm3.67-17.22.78-3.78h4.46l-.79,3.78Z" style="fill: #e6e6e6"/>
            <path d="M649.14,432.48l-.51,2.38h.06a4.53,4.53,0,0,1,4-2.83l-1.06,5a7.13,7.13,0,0,0-1.32-.11c-1.26,0-1.82.25-2.18,1.54l-2,9.66h-4.45L645,432.48Z" style="fill: #e6e6e6"/>
            <path d="M658.69,435.7l.67-3.22h1.76l1-4.48h4.46l-1,4.48h2.13L667,435.7H664.9L663.14,444c-.2.89.17,1.09.75,1.09A5,5,0,0,1,665,445l-.67,3.14a20.41,20.41,0,0,1-2.91.25c-2.41,0-3.45-1.23-2.94-3.61l1.93-9.07Z" style="fill: #e6e6e6"/>
            <path d="M667.93,437.41c.84-4,3.5-5.38,6.94-5.38,3.92,0,5.43,1.85,4.7,5.38l-1.37,6.38c-1,3.56-3.47,4.87-6.86,4.87-3.19,0-5.54-1.29-4.79-4.87Zm3,6.66c-.11.89.17,1.37,1.09,1.37s1.37-.48,1.65-1.37l1.49-7c.22-1,.05-1.82-1-1.82s-1.54.81-1.77,1.82Z" style="fill: #e6e6e6"/>
            <path d="M694.39,437.12a4.69,4.69,0,0,0,.05-1.48c-.08-.39-.36-.67-1.09-.67a1.62,1.62,0,0,0-1.76,1.31c-.17.84.44,1.26,1,1.6,2.61,1.32,5.55,2.07,4.76,5.8-.75,3.5-3.72,5-7,5-3.53,0-5.65-1.51-4.7-5.29h4.25a3.08,3.08,0,0,0,0,1.59,1.06,1.06,0,0,0,1.15.76,1.83,1.83,0,0,0,1.93-1.48,1.3,1.3,0,0,0-.34-1.21c-1.59-.95-4-1.62-5-3.22a3.65,3.65,0,0,1-.48-2.94c.7-3.38,3.7-4.84,6.81-4.84s5.51,1.62,4.62,5.09Z" style="fill: #e6e6e6"/>
            <path d="M705.11,446.76a5.93,5.93,0,0,1-4.26,1.9c-2.52,0-3.72-1.71-3.19-4.2a6.51,6.51,0,0,1,5-5.32c2.08-.64,4.06-.84,4.43-2.52.17-.87-.17-1.62-1.07-1.62-1.62,0-1.87,1.12-2.24,2.43h-4.45a6,6,0,0,1,2.49-4.17,8.23,8.23,0,0,1,4.68-1.23c4.4,0,5.71,1.34,5,4.79l-2,9.6a5.35,5.35,0,0,0,0,1.74h-4.34Zm1.15-6.22a24.69,24.69,0,0,0-2.49,1.15,2.89,2.89,0,0,0-1.46,2c-.22,1,.22,1.68,1.29,1.68,1.31,0,1.87-1.37,2.13-2.38Z" style="fill: #e6e6e6"/>
            <path d="M717,442.61H717l3.69-10.13h4.37l-5.68,13.41c-2,4.26-2.69,7.56-7.56,7.56-.79,0-1.29-.14-1.74-.14l.7-3.31a7.07,7.07,0,0,1,.84.12c.45.08,1.37-.17,1.51-.79a11.83,11.83,0,0,0,.06-2.66l-.08-14.19h4.48Z" style="fill: #e6e6e6"/>
            <path d="M742,442.61h.06l3.39-10.13h4.25l-6.36,15.68h-4.75l.47-8.15h-.05L736,448.16h-4.76l.33-15.68h4.31L735,442.61h0l3.78-10.13h3.81Z" style="fill: #e6e6e6"/>
            <path d="M753.1,441l-.59,2.75c-.17.87.06,1.59,1,1.65,1.62.09,1.76-1.4,2.13-2.71h4.42c-.61,4-3.19,5.88-7.08,5.93-3.19,0-5.71-1.29-5-4.87l1.37-6.38c.84-4,3.67-5.35,7.12-5.38,3.13,0,5.76,1.15,5,4.54l-1,4.47Zm3.7-2.93.33-1.54A1.21,1.21,0,0,0,756,435c-1.26,0-1.79,1-2,2.1l-.22,1Z" style="fill: #e6e6e6"/>
            <path d="M764.08,434.32a3,3,0,0,0,2.91-2.68h-2.35l1-4.48H770l-1,4.5c-.59,2.83-2.55,4.07-5.32,4.26Z" style="fill: #e6e6e6"/>
            <path d="M775.39,432.48l-.5,2.38h.05a4.54,4.54,0,0,1,4-2.83l-1.06,5a7.13,7.13,0,0,0-1.32-.11c-1.26,0-1.82.25-2.18,1.54l-2,9.66h-4.46l3.34-15.68Z" style="fill: #e6e6e6"/>
            <path d="M782.53,441l-.59,2.75c-.17.87.06,1.59,1,1.65,1.62.09,1.76-1.4,2.12-2.71h4.43c-.62,4-3.19,5.88-7.08,5.93-3.2,0-5.72-1.29-5-4.87l1.37-6.38c.84-4,3.67-5.35,7.11-5.38,3.14,0,5.77,1.15,5,4.54l-1,4.47Zm3.69-2.93.34-1.54a1.22,1.22,0,0,0-1.18-1.6c-1.25,0-1.79,1-2,2.1l-.23,1Z" style="fill: #e6e6e6"/>
            <path d="M805.43,437.12a4.44,4.44,0,0,0,.06-1.48c-.08-.39-.36-.67-1.09-.67a1.63,1.63,0,0,0-1.77,1.31c-.16.84.45,1.26,1,1.6,2.6,1.32,5.54,2.07,4.76,5.8-.76,3.5-3.72,5-7,5-3.53,0-5.66-1.51-4.71-5.29H801a3.08,3.08,0,0,0-.05,1.59,1,1,0,0,0,1.14.76,1.84,1.84,0,0,0,1.94-1.48,1.3,1.3,0,0,0-.34-1.21c-1.6-.95-3.95-1.62-5-3.22a3.65,3.65,0,0,1-.48-2.94c.7-3.38,3.7-4.84,6.8-4.84s5.52,1.62,4.62,5.09Z" style="fill: #e6e6e6"/>
            <path d="M810.25,435.7l.67-3.22h1.76l1-4.48h4.45l-1,4.48h2.12l-.67,3.22h-2.12L814.7,444c-.19.89.17,1.09.76,1.09a4.93,4.93,0,0,1,1.14-.06l-.67,3.14a20.41,20.41,0,0,1-2.91.25c-2.41,0-3.44-1.23-2.94-3.61L812,435.7Z" style="fill: #e6e6e6"/>
            <path d="M817.7,448.16,821,432.48h4.45l-3.33,15.68Zm3.66-17.22.79-3.78h4.45l-.78,3.78Z" style="fill: #e6e6e6"/>
            <path d="M824.92,448.16l4.45-21h4.45l-4.45,21Z" style="fill: #e6e6e6"/>
            <path d="M832.14,448.16l4.46-21h4.45l-4.45,21Z" style="fill: #e6e6e6"/>
            <path d="M849.08,435.73h-1.79l.7-3.23h1.77l.3-1.37c.7-3,2.36-4,5.24-4h2l-.67,3.22h-1c-.51,0-1,.14-1.07.53l-.33,1.59h1.9l-.7,3.23h-1.9l-2.64,12.43h-4.45Z" style="fill: #e6e6e6"/>
            <path d="M861.32,448.16l.42-1.93h-.06a4.81,4.81,0,0,1-3.64,2.43c-2.57,0-3.72-1.17-3.27-3.3l2.74-12.88H862l-2.38,11.22c-.11.73-.05,1.38.82,1.32A1.58,1.58,0,0,0,862,443.7l2.38-11.22h4.46l-3.34,15.68Z" style="fill: #e6e6e6"/>
            <path d="M868,448.16l4.45-21h4.46l-4.46,21Z" style="fill: #e6e6e6"/>
            <path d="M875.24,448.16l4.45-21h4.45l-4.45,21Z" style="fill: #e6e6e6"/>
            <path d="M890.69,437.41c.84-4,3.5-5.38,6.95-5.38,3.92,0,5.43,1.85,4.7,5.38L901,443.79c-1,3.56-3.47,4.87-6.86,4.87-3.19,0-5.55-1.29-4.79-4.87Zm3,6.66c-.12.89.16,1.37,1.09,1.37s1.37-.48,1.65-1.37l1.48-7c.23-1,.06-1.82-1-1.82s-1.54.81-1.76,1.82Z" style="fill: #e6e6e6"/>
            <path d="M905.62,435.73h-1.8l.7-3.23h1.77l.31-1.37c.7-3,2.35-4,5.23-4h2l-.67,3.22h-1c-.51,0-1,.14-1.07.53l-.33,1.59h1.9l-.7,3.23h-1.9l-2.63,12.43H903Z" style="fill: #e6e6e6"/>
            <path d="M926.25,428.25a3,3,0,0,0-2.91,2.69h2.35l-1,4.48h-4.42l.95-4.51c.59-2.83,2.55-4.06,5.32-4.26Z" style="fill: #e6e6e6"/>
            <path d="M930.12,441l-.59,2.75c-.17.87.05,1.59,1,1.65,1.63.09,1.77-1.4,2.13-2.71h4.43c-.62,4-3.2,5.88-7.09,5.93-3.19,0-5.71-1.29-4.95-4.87l1.37-6.38c.84-4,3.67-5.35,7.11-5.38,3.14,0,5.77,1.15,5,4.54l-1,4.47Zm3.69-2.93.34-1.54A1.22,1.22,0,0,0,933,435c-1.26,0-1.79,1-2,2.1l-.23,1Z" style="fill: #e6e6e6"/>
            <path d="M945.07,432.48l-.39,1.82h.05a5.47,5.47,0,0,1,3.81-2.27,2.6,2.6,0,0,1,2.88,2.07h.06a4.75,4.75,0,0,1,3.67-2.07c2.1,0,3.75,1.15,3.3,3.28l-2.74,12.85h-4.45l2.38-11.2c.11-.73-.06-1.35-.9-1.29a1.48,1.48,0,0,0-1.48,1.29l-2.38,11.2h-4.46L946.8,437c0-.68,0-1.29-.78-1.29a1.51,1.51,0,0,0-1.6,1.29L942,448.16h-4.45l3.33-15.68Z" style="fill: #e6e6e6"/>
            <path d="M574.07,467.7l.67-3.22h1.77l1-4.48h4.45l-.95,4.48h2.13l-.67,3.22h-2.13L578.52,476c-.19.89.17,1.09.76,1.09a5,5,0,0,1,1.15-.06l-.67,3.14a20.55,20.55,0,0,1-2.92.25c-2.4,0-3.44-1.23-2.94-3.61l1.94-9.07Z" style="fill: #e6e6e6"/>
            <path d="M583.31,469.41c.84-4,3.5-5.38,7-5.38,3.92,0,5.43,1.85,4.7,5.38l-1.37,6.38c-1,3.56-3.47,4.87-6.86,4.87-3.19,0-5.55-1.29-4.79-4.87Zm3,6.66c-.12.89.16,1.37,1.09,1.37s1.37-.48,1.65-1.37l1.48-7c.23-1,.06-1.82-1-1.82s-1.54.81-1.76,1.82Z" style="fill: #e6e6e6"/>
            <path d="M601.85,480.16l.39-1.82h-.06a5.29,5.29,0,0,1-4,2.32c-3.22-.11-3.22-3.16-2.66-5.82l1.17-5.43c.51-2.47,2-5.38,4.93-5.38a2.94,2.94,0,0,1,2.86,1.88h0l1.43-6.75h4.45l-4.45,21Zm-1.77-5.66c-.19.92-.53,2.52.76,2.52s1.62-1.2,1.93-2.71l.79-3.7c.3-1.34.44-3-.65-2.94-1.43,0-1.76,1.76-2,2.77Z" style="fill: #e6e6e6"/>
            <path d="M615.62,478.76a5.92,5.92,0,0,1-4.25,1.9c-2.52,0-3.73-1.71-3.19-4.2a6.49,6.49,0,0,1,5-5.32c2.07-.64,4.06-.84,4.42-2.52.17-.87-.17-1.62-1.06-1.62-1.63,0-1.88,1.12-2.24,2.43h-4.46a6,6,0,0,1,2.5-4.17A8.17,8.17,0,0,1,617,464c4.4,0,5.71,1.34,5,4.79l-2,9.6a5.35,5.35,0,0,0,0,1.74h-4.34Zm1.15-6.22a24.69,24.69,0,0,0-2.49,1.15,2.92,2.92,0,0,0-1.46,2c-.22,1,.23,1.68,1.29,1.68,1.32,0,1.88-1.37,2.13-2.38Z" style="fill: #e6e6e6"/>
            <path d="M627.5,474.61h0l3.7-10.13h4.37l-5.69,13.41c-2,4.26-2.69,7.56-7.56,7.56-.78,0-1.29-.14-1.74-.14l.71-3.31a7.38,7.38,0,0,1,.84.12c.44.08,1.37-.17,1.51-.79a11.83,11.83,0,0,0,0-2.66l-.08-14.19h4.48Z" style="fill: #e6e6e6"/>
            <path d="M632.79,480.16l1-4.79h4.73l-1,4.79Z" style="fill: #e6e6e6"/>
            <path d="M646.84,480.16l4.45-21h4.93l-1.71,8.06h3.42l1.71-8.06h4.93l-4.46,21h-4.92l1.84-8.74h-3.41l-1.85,8.74Z" style="fill: #e6e6e6"/>
            <path d="M667.73,473l-.59,2.75c-.17.87.06,1.59,1,1.65,1.62.09,1.76-1.4,2.13-2.71h4.42c-.62,4-3.19,5.88-7.08,5.93-3.2,0-5.72-1.29-5-4.87l1.37-6.38c.84-4,3.67-5.35,7.11-5.38,3.14,0,5.77,1.15,5,4.54l-1,4.47Zm3.7-2.93.33-1.54a1.22,1.22,0,0,0-1.17-1.6c-1.26,0-1.8,1-2,2.1l-.22,1Z" style="fill: #e6e6e6"/>
            <path d="M682.8,464.48l-.51,2.38h.06a4.53,4.53,0,0,1,4-2.83l-1.07,5A7,7,0,0,0,684,469c-1.26,0-1.82.25-2.19,1.54l-2,9.66h-4.45l3.33-15.68Z" style="fill: #e6e6e6"/>
            <path d="M689.93,473l-.58,2.75c-.17.87,0,1.59,1,1.65,1.63.09,1.77-1.4,2.13-2.71h4.42c-.61,4-3.19,5.88-7.08,5.93-3.19,0-5.71-1.29-5-4.87l1.38-6.38c.84-4,3.66-5.35,7.11-5.38,3.13,0,5.77,1.15,5,4.54l-.95,4.47Zm3.7-2.93.34-1.54a1.22,1.22,0,0,0-1.18-1.6c-1.26,0-1.79,1-2,2.1l-.22,1Z" style="fill: #e6e6e6"/>
            <path d="M700.91,466.32a2.93,2.93,0,0,0,2.91-2.68h-2.35l.95-4.48h4.43l-1,4.5c-.58,2.83-2.54,4.07-5.32,4.26Z" style="fill: #e6e6e6"/>
            <path d="M712.08,469.12a4.44,4.44,0,0,0,.06-1.48c-.09-.39-.37-.67-1.09-.67a1.63,1.63,0,0,0-1.77,1.31c-.17.84.45,1.26,1,1.6,2.6,1.32,5.54,2.07,4.76,5.8-.76,3.5-3.73,5-7,5-3.53,0-5.66-1.51-4.71-5.29h4.26a3.09,3.09,0,0,0-.06,1.59,1.07,1.07,0,0,0,1.15.76,1.82,1.82,0,0,0,1.93-1.48,1.28,1.28,0,0,0-.33-1.21c-1.6-.95-4-1.62-5-3.22a3.65,3.65,0,0,1-.48-2.94c.7-3.38,3.7-4.84,6.8-4.84s5.52,1.62,4.62,5.09Z" style="fill: #e6e6e6"/>
            <path d="M723.34,467.7l.67-3.22h1.76l1-4.48h4.45l-.95,4.48h2.12l-.67,3.22h-2.13L727.79,476c-.2.89.17,1.09.76,1.09a4.93,4.93,0,0,1,1.14-.06l-.67,3.14a20.41,20.41,0,0,1-2.91.25c-2.41,0-3.44-1.23-2.94-3.61l1.93-9.07Z" style="fill: #e6e6e6"/>
            <path d="M737.93,465.71H738a4.9,4.9,0,0,1,3.73-1.68,2.69,2.69,0,0,1,2.8,3.55l-2.66,12.58h-4.46L739.77,469c.17-.89.06-1.34-1-1.34a1.83,1.83,0,0,0-1.65,1.65l-2.29,10.84h-4.46l4.46-21h4.45Z" style="fill: #e6e6e6"/>
            <path d="M749.57,473l-.58,2.75c-.17.87,0,1.59,1,1.65,1.63.09,1.77-1.4,2.13-2.71h4.42c-.61,4-3.19,5.88-7.08,5.93-3.19,0-5.71-1.29-5-4.87l1.38-6.38c.84-4,3.66-5.35,7.11-5.38,3.13,0,5.77,1.15,5,4.54l-.95,4.47Zm3.7-2.93.34-1.54a1.22,1.22,0,0,0-1.18-1.6c-1.26,0-1.79,1-2,2.1l-.22,1Z" style="fill: #e6e6e6"/>
            <path d="M767.49,459.16h12.77l-.87,4.2h-4l-3.59,16.8h-4.92l3.58-16.8h-3.86Z" style="fill: #e6e6e6"/>
            <path d="M782.45,464.48l-.51,2.38H782a4.53,4.53,0,0,1,4-2.83l-1.06,5a7.13,7.13,0,0,0-1.32-.11c-1.26,0-1.82.25-2.18,1.54l-2.05,9.66H775l3.33-15.68Z" style="fill: #e6e6e6"/>
            <path d="M791.46,478.76a5.92,5.92,0,0,1-4.25,1.9c-2.52,0-3.73-1.71-3.2-4.2a6.51,6.51,0,0,1,5-5.32c2.07-.64,4.06-.84,4.42-2.52.17-.87-.17-1.62-1.06-1.62-1.63,0-1.88,1.12-2.24,2.43h-4.46a6,6,0,0,1,2.5-4.17,8.17,8.17,0,0,1,4.67-1.23c4.4,0,5.71,1.34,5,4.79l-2.05,9.6a5.35,5.35,0,0,0,0,1.74h-4.34Zm1.15-6.22a24.69,24.69,0,0,0-2.49,1.15,2.92,2.92,0,0,0-1.46,2c-.22,1,.23,1.68,1.29,1.68,1.32,0,1.88-1.37,2.13-2.38Z" style="fill: #e6e6e6"/>
            <path d="M804.85,464.48l-.42,2h.05a4.71,4.71,0,0,1,3.61-2.41c2.1,0,3.76,1.15,3.31,3.28l-2.75,12.85H804.2l2.38-11.2c.11-.73-.05-1.35-.89-1.29A1.49,1.49,0,0,0,804.2,469l-2.38,11.2h-4.45l3.33-15.68Z" style="fill: #e6e6e6"/>
            <path d="M819.49,469.12a4.44,4.44,0,0,0,.06-1.48c-.09-.39-.37-.67-1.1-.67a1.63,1.63,0,0,0-1.76,1.31c-.17.84.45,1.26,1,1.6,2.6,1.32,5.54,2.07,4.76,5.8-.76,3.5-3.73,5-7,5-3.53,0-5.66-1.51-4.71-5.29H815A3.09,3.09,0,0,0,815,477a1.07,1.07,0,0,0,1.15.76,1.82,1.82,0,0,0,1.93-1.48,1.3,1.3,0,0,0-.33-1.21c-1.6-.95-4-1.62-5-3.22a3.61,3.61,0,0,1-.48-2.94c.7-3.38,3.69-4.84,6.8-4.84s5.52,1.62,4.62,5.09Z" style="fill: #e6e6e6"/>
            <path d="M822.6,480.16l4.45-21h5.35c1.79,0,4,0,5.35,1,1.65,1.12,1.54,3.16,1.12,5.18l-2,9.32a6.49,6.49,0,0,1-3.08,4.54,8.89,8.89,0,0,1-4.57,1Zm5.74-3.78c3.25.22,3.55-1.12,4.06-3.92l1.48-6.86c.48-2.47-.31-2.61-2.69-2.66Z" style="fill: #e6e6e6"/>
            <path d="M838,480.16l3.33-15.68h4.45l-3.33,15.68Zm3.67-17.22.78-3.78h4.45l-.78,3.78Z" style="fill: #e6e6e6"/>
            <path d="M850.57,473l-.59,2.75c-.17.87.06,1.59,1,1.65,1.62.09,1.76-1.4,2.13-2.71h4.42c-.62,4-3.19,5.88-7.08,5.93-3.2,0-5.72-1.29-5-4.87l1.37-6.38c.84-4,3.67-5.35,7.11-5.38,3.14,0,5.77,1.15,5,4.54L858.1,473Zm3.7-2.93.33-1.54a1.22,1.22,0,0,0-1.17-1.6c-1.26,0-1.8,1-2,2.1l-.22,1Z" style="fill: #e6e6e6"/>
            <path d="M867,469.12a4.44,4.44,0,0,0,.06-1.48c-.08-.39-.36-.67-1.09-.67a1.63,1.63,0,0,0-1.77,1.31c-.16.84.45,1.26,1,1.6,2.6,1.32,5.54,2.07,4.76,5.8-.76,3.5-3.72,5-7,5-3.53,0-5.66-1.51-4.7-5.29h4.25a3.08,3.08,0,0,0-.05,1.59,1.05,1.05,0,0,0,1.14.76,1.84,1.84,0,0,0,1.94-1.48,1.3,1.3,0,0,0-.34-1.21c-1.6-.95-3.95-1.62-5-3.22a3.65,3.65,0,0,1-.48-2.94c.7-3.38,3.7-4.84,6.81-4.84s5.51,1.62,4.62,5.09Z" style="fill: #e6e6e6"/>
            <path d="M875.88,473l-.59,2.75c-.16.87.06,1.59,1,1.65,1.62.09,1.76-1.4,2.13-2.71h4.42c-.61,4-3.19,5.88-7.08,5.93-3.19,0-5.71-1.29-5-4.87l1.37-6.38c.84-4,3.67-5.35,7.12-5.38,3.13,0,5.76,1.15,5,4.54l-1,4.47Zm3.7-2.93.33-1.54a1.21,1.21,0,0,0-1.17-1.6c-1.26,0-1.79,1-2,2.1l-.22,1Z" style="fill: #e6e6e6"/>
            <path d="M884,480.16l4.46-21h4.45l-4.45,21Z" style="fill: #e6e6e6"/>
            <path d="M906,469.12a4.44,4.44,0,0,0,.06-1.48c-.09-.39-.37-.67-1.1-.67a1.63,1.63,0,0,0-1.76,1.31c-.17.84.45,1.26,1,1.6,2.6,1.32,5.54,2.07,4.76,5.8-.76,3.5-3.73,5-7,5-3.53,0-5.66-1.51-4.71-5.29h4.26a3.09,3.09,0,0,0-.06,1.59,1.07,1.07,0,0,0,1.15.76,1.82,1.82,0,0,0,1.93-1.48,1.3,1.3,0,0,0-.33-1.21c-1.6-.95-4-1.62-5-3.22a3.65,3.65,0,0,1-.47-2.94c.7-3.38,3.69-4.84,6.8-4.84s5.52,1.62,4.62,5.09Z" style="fill: #e6e6e6"/>
            <path d="M910.83,467.7l.67-3.22h1.76l1-4.48h4.46l-1,4.48h2.13l-.67,3.22H917L915.28,476c-.2.89.17,1.09.75,1.09a5,5,0,0,1,1.15-.06l-.67,3.14a20.41,20.41,0,0,1-2.91.25c-2.41,0-3.45-1.23-2.94-3.61l1.93-9.07Z" style="fill: #e6e6e6"/>
            <path d="M920.06,469.41c.84-4,3.5-5.38,7-5.38,3.92,0,5.43,1.85,4.7,5.38l-1.37,6.38c-1,3.56-3.47,4.87-6.86,4.87-3.19,0-5.54-1.29-4.79-4.87Zm3,6.66c-.11.89.17,1.37,1.09,1.37s1.37-.48,1.65-1.37l1.49-7c.22-1,0-1.82-1-1.82s-1.54.81-1.77,1.82Z" style="fill: #e6e6e6"/>
            <path d="M938.68,464.48l-.5,2.38h.06a4.52,4.52,0,0,1,4-2.83l-1.07,5a7,7,0,0,0-1.31-.11c-1.26,0-1.82.25-2.19,1.54l-2,9.66h-4.45l3.33-15.68Z" style="fill: #e6e6e6"/>
            <path d="M946.64,474.61h.05l3.7-10.13h4.37l-5.69,13.41c-2,4.26-2.69,7.56-7.56,7.56-.78,0-1.29-.14-1.73-.14l.7-3.31a7.38,7.38,0,0,1,.84.12c.44.08,1.37-.17,1.51-.79a11.83,11.83,0,0,0,0-2.66l-.08-14.19h4.48Z" style="fill: #e6e6e6"/>
            <path d="M951.93,480.16l1-4.79h4.73l-1,4.79Z" style="fill: #e6e6e6"/>
          </g>
        </g>
        <g>
          <path d="M255.94,518.3l-2.76,15.45H158l10.53-15.45H151.81l-19.92,29.24H264.72L270,518.3Zm37.54-208-30,44h16.68l6.95-10.2-1.83,10.2h14l7.88-44Zm119.9,223.45,2.75-15.45h-14l-5.19,29.24h60.65L439.28,648.7H378.55l-23,131.49H223.34l23-131.49H16.49L37.86,529.55,45.7,518.3H28.9l-3.22,4.61-.86,1.23L0,662.48H229.93l-23,131.5h160.2l23-131.5h60.65L474.1,533.75ZM316.71,105.24,143.17,354.3H160L323.91,119H473L431.24,354.3h14l44.21-249.06ZM255.94,518.3l-2.76,15.45H158l10.53-15.45H151.81l-19.92,29.24H264.72L270,518.3Zm37.54-208-30,44h16.68l6.95-10.2-1.83,10.2h14l7.88-44Zm-37.54,208-2.76,15.45H158l10.53-15.45H151.81l-19.92,29.24H264.72L270,518.3Zm37.54-208-30,44h16.68l6.95-10.2-1.83,10.2h14l7.88-44Z" style="fill: #fff"/>
          <path d="M758.06,518.3,743.53,601c-.28,1.45-.58,3-.9,4.73-4.86,26-13.92,74.46-57.48,76.08-13.18,0-22.23-3.23-27.66-9.8-12-14.47-6-45.66-1.56-68.44l15-85.26h-14L642.38,601c-5.18,26.88-11.6,60.32,4.48,79.78,8.11,9.83,21,14.8,38.42,14.8h.24c23.8-.84,42.13-12.68,54.47-35.21,9.79-17.88,13.65-38.49,16.19-52.12.32-1.67.61-3.24.89-4.67l15-85.28Zm47.58-297.52c-8-10.16-20.06-15.31-35.85-15.31-24.55,0-43,9.68-55,28.76-10.09,16.17-14.42,37-18,57L685.74,354.3h14l10.67-60.72c3.33-18.61,7.33-38,16.13-52,9.48-15.2,23.23-22.28,43.25-22.28,11.51,0,19.69,3.29,25,10.06,8.89,11.28,10.1,32.89,3.4,60.83l-.2.82L786.89,354.3h14l10.64-60.53.09-.4C819.45,260.76,817.38,235.66,805.64,220.78Zm106,297.52L900.91,579c-14,78.48-36.78,130.76-71.67,164.52-18.65,18-40.86,31.09-67.9,39.87-27.72,9-60,13.37-98.72,13.37-33.4,0-62.17-4-85.52-11.8-23.52-7.88-42.16-19.9-55.41-35.74-12.26-14.64-20.35-33.07-24.05-54.78-3.86-22.67-3.06-49.56,2.37-79.92l17-96.2H503l-16.61,93.77c-5.71,31.94-6.52,60.43-2.38,84.67s13.21,44.77,27.06,61.32c14.91,17.81,35.64,31.26,61.6,40,24.77,8.3,55,12.51,89.91,12.51,40.18,0,73.86-4.59,103-14s53-23.53,73.23-43.07c37.07-35.88,61.11-90.54,75.67-172l11.11-63.08Zm57.15-297.87c-2.23-33.82-11.31-60-27.78-80-14-17.06-33-29.37-58.12-37.63s-55.49-12.25-93.17-12.25c-141.73,0-222.33,65.62-246.43,200.62L532.08,354.3h14l10.75-60.73h0c5.94-33.26,15.57-62.39,28.62-86.59,12.67-23.49,29-43.13,48.57-58.38,19.11-14.91,42-26.17,68.07-33.48,25.53-7.18,55-10.81,87.59-10.81,36.19,0,65.25,3.78,88.86,11.55,22.53,7.43,39.47,18.31,51.78,33.3,28,34,32.39,90,14.35,181.41v.06L940.5,354.3h14l3.72-21.12C967.28,287.23,970.73,250.36,968.76,220.43ZM758.06,518.3,743.53,601c-.28,1.45-.58,3-.9,4.73-4.86,26-13.92,74.46-57.48,76.08-13.18,0-22.23-3.23-27.66-9.8-12-14.47-6-45.66-1.56-68.44l15-85.26h-14L642.38,601c-5.18,26.88-11.6,60.32,4.48,79.78,8.11,9.83,21,14.8,38.42,14.8h.24c23.8-.84,42.13-12.68,54.47-35.21,9.79-17.88,13.65-38.49,16.19-52.12.32-1.67.61-3.24.89-4.67l15-85.28Zm47.58-297.52c-8-10.16-20.06-15.31-35.85-15.31-24.55,0-43,9.68-55,28.76-10.09,16.17-14.42,37-18,57L685.74,354.3h14l10.67-60.72c3.33-18.61,7.33-38,16.13-52,9.48-15.2,23.23-22.28,43.25-22.28,11.51,0,19.69,3.29,25,10.06,8.89,11.28,10.1,32.89,3.4,60.83l-.2.82L786.89,354.3h14l10.64-60.53.09-.4C819.45,260.76,817.38,235.66,805.64,220.78ZM758.06,518.3,743.53,601c-.28,1.45-.58,3-.9,4.73-4.86,26-13.92,74.46-57.48,76.08-13.18,0-22.23-3.23-27.66-9.8-12-14.47-6-45.66-1.56-68.44l15-85.26h-14L642.38,601c-5.18,26.88-11.6,60.32,4.48,79.78,8.11,9.83,21,14.8,38.42,14.8h.24c23.8-.84,42.13-12.68,54.47-35.21,9.79-17.88,13.65-38.49,16.19-52.12.32-1.67.61-3.24.89-4.67l15-85.28Zm47.58-297.52c-8-10.16-20.06-15.31-35.85-15.31-24.55,0-43,9.68-55,28.76-10.09,16.17-14.42,37-18,57L685.74,354.3h14l10.67-60.72c3.33-18.61,7.33-38,16.13-52,9.48-15.2,23.23-22.28,43.25-22.28,11.51,0,19.69,3.29,25,10.06,8.89,11.28,10.1,32.89,3.4,60.83l-.2.82L786.89,354.3h14l10.64-60.53.09-.4C819.45,260.76,817.38,235.66,805.64,220.78Z" style="fill: #fff"/>
        </g>
        <g>
          <g style="opacity: 0.05;mix-blend-mode: color-dodge">
            <path d="M469,866c-2.8-.11-5.62-.25-8.38-.41l5.75-96.73c2.1.13,4.26.23,6.4.31Zm58.45-1.78-9.71-96.41c2.15-.21,4.31-.45,6.4-.7l11.61,96.2C533.07,863.66,530.27,864,527.49,864.25Zm-124.86-6.17c-2.77-.56-5.54-1.15-8.23-1.75l21.2-94.56c2,.46,4.13.91,6.24,1.33Zm190.7-5.86-25.1-93.59c2.1-.56,4.18-1.14,6.2-1.72l27,93.07C598.76,850.74,596.05,851.5,593.33,852.22ZM338.24,839.5c-2.61-1-5.25-2-7.84-3.06l36.17-89.89c2,.79,4,1.58,6,2.33Zm318.14-9.78L616.53,741.4c1.92-.87,3.88-1.77,5.81-2.69L664,826.21C661.44,827.41,658.89,828.59,656.38,829.72ZM277.71,810.78c-2.39-1.39-4.82-2.82-7.22-4.27l50.16-82.91c1.84,1.12,3.7,2.22,5.54,3.28Zm437.22-13.39-53.54-80.76c1.79-1.19,3.58-2.4,5.33-3.61l55.11,79.7C719.56,794.29,717.24,795.86,714.93,797.39ZM222.65,772.75c-2.16-1.77-4.33-3.57-6.45-5.38L279,693.58c1.62,1.38,3.28,2.76,4.93,4.11Zm544.87-16.62-65.74-71.19c1.58-1.46,3.16-3,4.68-4.41l67.14,69.86C771.62,752.3,769.57,754.23,767.52,756.13ZM174.4,726.44c-1.83-2.07-3.68-4.19-5.48-6.3l73.72-62.88c1.4,1.64,2.82,3.27,4.23,4.86ZM812.86,707l-76.23-59.82c1.31-1.67,2.63-3.39,3.91-5.09L818,700.35C816.29,702.58,814.57,704.81,812.86,707Zm-678.7-34c-1.49-2.34-3-4.73-4.4-7.09l82.84-50.27c1.1,1.82,2.24,3.65,3.38,5.46Zm715.63-21.81L765,604.34c1-1.83,2-3.72,3-5.63l85.76,45.09C852.47,646.31,851.13,648.8,849.79,651.22ZM103,613.87c-1.09-2.54-2.17-5.13-3.21-7.71l89.84-36.29c.8,2,1.63,4,2.46,5.9Zm774.33-23.76-91.27-32.53c.71-2,1.42-4.05,2.1-6.08l91.92,30.65C879.19,584.81,878.27,587.49,877.33,590.11ZM81.75,550.4c-.66-2.68-1.3-5.42-1.92-8.15l94.52-21.32c.48,2.1,1,4.21,1.48,6.26ZM789.92,355c-.63-2-1.3-4.08-2-6.1L879.79,318c.89,2.65,1.76,5.33,2.59,8ZM191.85,325.79l-89.17-37.91c1.08-2.55,2.21-5.14,3.36-7.7l88.39,39.72C193.54,321.86,192.68,323.84,191.85,325.79Zm578.83-18.35c-1-1.92-2-3.83-2.94-5.7l85.67-45.27c1.28,2.43,2.57,4.92,3.82,7.41Zm-555-27.1-81.91-51.78c1.49-2.35,3-4.72,4.56-7l80.84,53.42C218,276.72,216.83,278.53,215.69,280.34ZM744,263.61c-1.24-1.71-2.52-3.44-3.81-5.15l77.32-58.41c1.67,2.22,3.35,4.49,5,6.73ZM246.53,239.26,174,175.06c1.84-2.08,3.73-4.17,5.61-6.21l71.27,65.64C249.4,236.06,248,237.66,246.53,239.26Zm464.13-14.69c-1.51-1.49-3-3-4.6-4.48l67-70c2,1.93,4,3.9,6,5.85ZM283.54,203.63l-61.42-74.94c2.16-1.78,4.36-3.54,6.53-5.25l59.88,76.18C286.87,200.92,285.19,202.27,283.54,203.63Zm388-12.29c-1.72-1.24-3.49-2.48-5.25-3.7l55-79.79c2.3,1.59,4.61,3.21,6.86,4.83ZM325.71,174.4,277.08,90.59c2.4-1.4,4.85-2.79,7.27-4.12l46.93,84.77C329.43,172.26,327.56,173.33,325.71,174.4Zm301.84-9.57c-1.93-1-3.89-1.91-5.8-2.82L663.2,74.42c2.49,1.18,5,2.42,7.54,3.66ZM372,152.34,337.44,61.8c2.6-1,5.25-2,7.87-2.91L378,150.12C376,150.83,373.94,151.58,372,152.34Zm207.94-6.61c-2-.63-4.09-1.24-6.14-1.83l26.75-93.14c2.68.77,5.38,1.58,8,2.4ZM421.17,138,401.75,43.1c2.71-.56,5.48-1.09,8.22-1.6l17.5,95.31C425.38,137.19,423.26,137.6,421.17,138Zm108.68-3.43c-2.1-.3-4.24-.57-6.35-.82l11.38-96.23c2.77.33,5.57.69,8.32,1.07Zm-57.72-2.78-4-96.81c2.77-.12,5.58-.21,8.33-.27l2.08,96.88C476.43,131.67,474.27,131.73,472.13,131.82Z" style="fill: #fff"/>
          </g>
          <g style="mix-blend-mode: soft-light">
            <path d="M510,899.58c-3,.17-6.08.31-9.07.42L497.2,795.17c2.28-.08,4.62-.19,6.93-.32Zm62.8-7.9-20.34-102.9c2.3-.46,4.59-.94,6.82-1.42l22.38,102.48C578.76,890.47,575.78,891.09,572.8,891.68Zm-135.19,6.15c-3-.32-6.08-.67-9-1.05l13.14-104.07c2.24.29,4.55.55,6.87.8ZM642.53,872l-36.65-98.28c2.2-.82,4.39-1.66,6.5-2.5L651,868.72C648.22,869.81,645.38,870.9,642.53,872ZM366.32,884.41c-2.91-.8-5.86-1.63-8.76-2.49l29.76-100.59c2.21.66,4.46,1.3,6.68,1.91Zm341.85-43.16-52-91.1c2-1.13,4-2.31,6-3.49l53.83,90C713.39,838.24,710.76,839.77,708.17,841.25Zm-410,18.41c-2.73-1.24-5.5-2.54-8.23-3.86l45.56-94.49c2.1,1,4.22,2,6.3,3ZM768,800.4l-66-81.55c1.8-1.45,3.61-3,5.38-4.43l67.56,80.24C772.62,796.58,770.28,798.52,768,800.4ZM234.9,824.32c-2.5-1.68-5-3.4-7.49-5.13l60.11-86c1.88,1.32,3.81,2.64,5.73,3.92Zm585.49-73.78-78.14-70c1.56-1.74,3.1-3.5,4.6-5.23l79.51,68.41C824.42,746,822.41,748.29,820.39,750.54ZM178.16,779.36c-2.19-2-4.39-4.13-6.55-6.22l73-75.33c1.67,1.62,3.37,3.24,5,4.81Zm686.06-86.42-88.29-56.65c1.25-1.93,2.49-3.91,3.7-5.88L869,685.25C867.46,687.83,865.84,690.42,864.22,692.94Zm-734.9,33c-1.85-2.38-3.69-4.8-5.47-7.2L208,656.08c1.37,1.84,2.78,3.7,4.2,5.53Zm769-96.9-96.2-41.82c.91-2.07,1.81-4.22,2.7-6.38l97.05,39.8C900.69,623.48,899.49,626.3,898.3,629ZM89.66,665.38c-1.43-2.63-2.85-5.31-4.24-8l93.1-48.33c1.06,2,2.16,4.1,3.25,6.11Zm832.06-105L820,534.67c.56-2.23,1.11-4.51,1.63-6.77l102.21,23.61C923.18,554.47,922.46,557.45,921.72,560.37ZM60.26,599.15c-1-2.82-2-5.71-2.91-8.58L157,557.9c.73,2.21,1.48,4.43,2.24,6.59ZM803.4,315.9c-.89-2.12-1.82-4.26-2.76-6.37l95.82-42.68c1.23,2.76,2.44,5.56,3.61,8.33ZM155.88,345.81l-100-31.72c.91-2.86,1.87-5.77,2.84-8.64l99.32,33.74C157.3,341.4,156.57,343.62,155.88,345.81Zm621.91-79.13c-1.24-2-2.5-3.94-3.75-5.84l87.68-57.58c1.63,2.49,3.28,5,4.88,7.6ZM176.91,294.37,83.33,247c1.37-2.68,2.77-5.39,4.19-8.05l92.6,49.28C179,290.24,178,292.31,176.91,294.37Zm567.65-72.19c-1.51-1.72-3.07-3.46-4.63-5.16l77.32-70.88c2,2.22,4.08,4.49,6.06,6.74ZM205.94,247l-84.8-61.76c1.77-2.42,3.59-4.87,5.41-7.26l83.54,63.43C208.7,243.2,207.3,245.08,205.94,247Zm498.67-63.42c-1.77-1.46-3.59-2.93-5.41-4.37l65-82.29c2.37,1.87,4.74,3.78,7.06,5.69ZM242.17,204.75l-73.88-74.47c2.15-2.13,4.34-4.26,6.5-6.32l72.35,76C245.48,201.49,243.81,203.12,242.17,204.75Zm416.82-53c-2-1.16-4-2.32-6-3.45L704,56.66c2.64,1.47,5.29,3,7.89,4.5ZM284.61,168.92l-61-85.33c2.45-1.75,4.94-3.5,7.41-5.19L290.29,165C288.4,166.24,286.49,167.58,284.61,168.92Zm324.31-41.26c-2.18-.84-4.38-1.66-6.54-2.44l35.69-98.64c2.8,1,5.67,2.08,8.5,3.17ZM332.19,140.41l-46.48-94c2.7-1.34,5.46-2.67,8.19-4l44.54,95C336.36,138.38,334.26,139.39,332.19,140.41ZM555.61,112c-2.25-.46-4.54-.92-6.8-1.34L568.08,7.51c3,.55,6,1.15,8.92,1.76Zm-171.85,8L353.09,19.63c2.88-.88,5.8-1.74,8.7-2.56L390.43,118C388.21,118.61,386,119.27,383.76,119.94ZM500.53,105.1c-2.29-.1-4.62-.18-6.93-.23L496,0c3,.07,6.07.17,9.08.3ZM438,108,423.82,4.1c3-.41,6-.79,8.95-1.14l12.17,104.19C442.66,107.42,440.34,107.71,438,108Z" style="fill: #fff"/>
          </g>
        </g>
      </g>
    </g>
  </g>
</svg>
