<svg height="152.45" viewBox="0 0 271.48 152.45" width="271.48" xmlns="http://www.w3.org/2000/svg"><g fill="#1a1a1a"><path d="m10.08 14.14h-8.88l1.16-6.66c4.7.06 10.74-1.39 12.71-6.55h6.55l-7.56 42.54h-9.22z"/><path d="m23.8 12.29c1.56-8.7 6.82-12.29 15.12-12.29 10.44 0 12.08 5 10.2 14.78l-2.76 15.65c-1.7 9.51-5.54 14.09-15.46 14.09-8.12 0-12.19-3.6-10.68-12zm16.07 0c.15-.64 1.27-5-2.21-5-3.13 0-3.73 2.6-4.17 5l-3.44 19.53c-.49 2.55-1 5.45 2.28 5.45s3.81-3.94 4.1-5.45z"/><path d="m53.14 12.29c1.56-8.7 6.86-12.29 15.12-12.29 10.44 0 12.12 5 10.2 14.78l-2.76 15.65c-1.7 9.51-5.54 14.09-15.46 14.09-8.12 0-12.19-3.6-10.68-12zm16.07 0c.15-.64 1.27-5-2.21-5-3.13 0-3.74 2.6-4.17 5l-3.44 19.53c-.49 2.55-1 5.45 2.28 5.45s3.81-3.94 4.1-5.45z"/><path d="m81.9 11.59c1.1-6.32 4.21-10.78 11.17-10.78s8.7 3.48 7.39 10.78c-1.06 6.09-3.16 10.84-11.22 10.84-7.37 0-8.56-4.11-7.34-10.84zm9.68 32.93h-4.88l27.51-44.52h4.79zm1.86-33c.34-1.8 1.55-5.45-1.29-5.45-2.68-.24-2.89 3.65-3.23 5.45-.43 2.6-1.55 5.62 1.24 5.62 2.61.02 2.99-3.81 3.28-5.6zm30.27 21.33c-1.07 6.15-3.16 10.85-11.22 10.85-7.37 0-8.56-4.11-7.34-10.83 1.11-6.32 4.2-10.79 11.16-10.79 7.25 0 8.61 4 7.4 10.79zm-11.55-.12c-.43 2.61-1.54 5.68 1.24 5.68 2.61 0 3-3.88 3.28-5.68s1.56-5.39-1.29-5.39c-2.67-.21-2.89 3.66-3.23 5.41z"/><path d="m140.38 43.47 7.71-43.47h10.2l-3 17.39h.11l10.6-17.39h10.44l-12.72 19.19 5.55 24.28h-10.79l-3-15.13-3 4.41-1.89 10.72z"/><path d="m171.88 43.47 7.7-43.47h10.21l-7.71 43.47z"/><path d="m217.76 30.49h.12l8.56-30.49h9.69l-14.95 43.47h-11.49l2.3-30.6h-.12l-8.79 30.6h-11.31l.4-43.47h9.83l-2.35 30.55.17-.12 9.51-30.43h9.86z"/><path d="m230.8 43.47 7.71-43.47h10.21l-7.72 43.47z"/><path d="m28.16 83.59c-1.75 9.79-6.09 14.89-16.41 14.89s-13-5.1-11.25-14.89l3.15-17.68c1.45-8.35 7.26-13 16.19-13s12.92 4.64 11.47 13zm-7.16-16.99c.48-2.66.83-5.85-2.53-5.85s-4.24 3.19-4.72 5.85l-3.19 17.86c-.49 2.49-.71 6.2 2.59 6.2s4.17-3.71 4.66-6.2z"/><path d="m60.67 84.46h.12l8.56-30.46h9.65l-15 43.47h-11.4l2.29-30.61h-.11l-8.78 30.58h-11.32l.39-43.44h9.86l-2.35 30.51.17-.11 9.49-30.4h9.86z"/><path d="m87.43 73.1-.11.11-3.39 24.23h-9.68l7.75-43.44h10.5l3.5 24.25h.18l3.34-24.25h9.69l-7.7 43.47h-10.44z"/><path d="m105.51 97.44 7.7-43.44h23.38l-1.5 8.69h-13.16l-1.46 8h12.75l-1.55 8.69h-12.76l-1.64 9.4h13.86l-1.55 8.69z"/><path d="m132.35 97.44 7.7-43.44h11.08c3.71 0 8.18.11 11.15 2 3.5 2.31 3.42 6.55 2.69 10.72l-3.44 19.28c-.83 4.35-2.75 7.54-6.05 9.39-3 1.74-6.25 2-9.39 2zm11.65-7.82c6.74.46 7.28-2.32 8.12-8.12l2.58-14.2c.81-5.1-.83-5.39-5.76-5.51z"/><path d="m174.63 97.44 17.22-43.44h12.29l1.75 43.47h-10.32l.05-8.46h-8l-2.72 8.46zm22-35.59h-.12l-6.45 19.48h5.94z"/><path d="m220.88 73.1-.12.11-3.38 24.23h-9.69l7.7-43.44h10.5l3.58 24.28h.17l3.36-24.28h9.68l-7.68 43.44h-10.49z"/><path d="m238.45 97.44 7.71-43.44h11.07c3.72 0 8.19.11 11.15 2 3.5 2.31 3.42 6.55 2.7 10.72l-3.45 19.28c-.83 4.35-2.75 7.54-6.05 9.39-2.95 1.74-6.25 2-9.38 2zm11.62-7.82c6.74.46 7.28-2.32 8.13-8.12l2.57-14.2c.81-5.1-.82-5.39-5.76-5.51z"/><path d="m30.05 137.55c-1.75 9.8-6.1 14.9-16.42 14.9s-13-5.1-11.25-14.9l3.15-17.67c1.45-8.35 7.26-13 16.19-13s12.93 4.64 11.48 13zm-7.21-17c.49-2.67.84-5.85-2.52-5.85s-4.24 3.18-4.73 5.85l-3.15 17.85c-.49 2.5-.71 6.21 2.6 6.21s4.16-3.71 4.65-6.21z"/><path d="m30.75 151.41 7.7-43.48h12.12c4 0 9.58.35 11.84 3.6 1.89 2.66 1.83 5.91 1.2 9.45-.88 4.69-2.9 10-7.93 12.11-3.82 1.74-7.84 1.22-11.72 1.39l-3 16.93zm14.62-24.75c1.91-.06 4.06.17 5.93-1.1a8 8 0 0 0 2.05-4.41c.29-1.68.55-4.23-1-5a12.18 12.18 0 0 0 -3.9-.35h-1.1z"/><path d="m60.93 151.41 7.7-43.48h23.37l-1.5 8.7h-13.15l-1.46 8h12.76l-1.56 8.69h-12.76l-1.64 9.39h13.86l-1.55 8.7z"/><path d="m98.24 151.41h-10.24l7.7-43.48h14.91c8.35 0 11.95 3.37 10.39 12-.82 4.64-2.51 7.94-7.13 9.91v.16a4.85 4.85 0 0 1 4 5.62c-.34 3.48-1.59 11-1.49 13.74a3.44 3.44 0 0 0 .69 1.51l-.09.58h-11.08a9 9 0 0 1 -.14-2.5c.5-3.82 1.36-7.41 1.56-10.08s-.33-4.41-2.66-4.58h-3.36zm4.47-25h3.48c3 0 4.14-2.72 4.57-5.39.92-5.15-1.18-5.39-6.16-5.27z"/><path d="m118.21 151.41 17.22-43.48h12.29l1.75 43.48h-10.32v-8.47h-8l-2.72 8.47zm22-35.59h-.12l-6.45 19.47h5.91z"/><path d="m153.57 107.93h26.43l-1.49 8.7h-8.24l-6.21 34.78h-10.2l6.21-34.78h-8z"/><path d="m175.1 151.41 7.7-43.48h23.37l-1.49 8.7h-13.17l-1.46 8h12.76l-1.55 8.69h-12.76l-1.64 9.39h13.86l-1.55 8.7z"/><path d="m202.94 151.41 7.7-43.48h11.08c3.71 0 8.18.12 11.15 2 3.5 2.32 3.41 6.55 2.69 10.73l-3.44 19.34c-.84 4.35-2.76 7.53-6.06 9.39-2.95 1.74-6.25 2-9.38 2zm11.61-7.83c6.75.47 7.29-2.32 8.13-8.11l2.58-14.2c.8-5.1-.83-5.39-5.76-5.51z"/></g></svg>