<svg height="300.4" viewBox="0 0 212.16 300.4" width="212.16" xmlns="http://www.w3.org/2000/svg" xmlns:xlink="http://www.w3.org/1999/xlink"><radialGradient id="a" cx="51.31" cy="265.08" gradientUnits="userSpaceOnUse" r="22.47"><stop offset=".96" stop-color="#fff"/><stop offset=".98" stop-color="#e3e3e5"/><stop offset="1" stop-color="#cfced1"/></radialGradient><radialGradient id="b" cx="51.31" cy="265.08" r="22.59" xlink:href="#a"/><radialGradient id="c" cx="50.17" cy="255.93" gradientUnits="userSpaceOnUse" r="31.26"><stop offset="0" stop-color="#ecebec"/><stop offset=".46" stop-color="#eae9ea"/><stop offset=".63" stop-color="#e3e2e3"/><stop offset=".7" stop-color="#dddcdd"/><stop offset=".86" stop-color="#cfced1"/></radialGradient><radialGradient id="d" cx="51.49" cy="249.44" gradientUnits="userSpaceOnUse" r="38.21"><stop offset="0" stop-color="#fff"/><stop offset=".52" stop-color="#fdfdfd"/><stop offset=".71" stop-color="#f7f6f7"/><stop offset=".84" stop-color="#ebebeb"/><stop offset=".94" stop-color="#dddcdd"/></radialGradient><radialGradient id="e" cx="53.21" cy="269.51" fx="41.184622" gradientUnits="userSpaceOnUse" r="22.56"><stop offset=".02" stop-color="#ecebec"/><stop offset=".24" stop-color="#e6e5e6"/><stop offset=".53" stop-color="#d5d4d7"/><stop offset=".61" stop-color="#cfced1"/><stop offset=".65" stop-color="#cac8cb"/><stop offset=".7" stop-color="#bab8bc"/><stop offset=".77" stop-color="#a09da2"/><stop offset=".83" stop-color="#7d787d"/><stop offset=".9" stop-color="#4f484f"/><stop offset=".97" stop-color="#170f17"/><stop offset=".99" stop-color="#0b020a"/></radialGradient><linearGradient id="f" gradientUnits="userSpaceOnUse" x1="64.75" x2="66.61" y1="246.85" y2="246.85"><stop offset=".02" stop-color="#dddcdd"/><stop offset=".21" stop-color="#d8d7d9"/><stop offset=".41" stop-color="#cbcacc"/><stop offset=".63" stop-color="#b5b4b6"/><stop offset=".85" stop-color="#979599"/><stop offset="1" stop-color="#7d7b80"/></linearGradient><radialGradient id="g" cx="51.31" cy="265.08" gradientUnits="userSpaceOnUse" r="17.07"><stop offset=".92" stop-color="#a9a8ac"/><stop offset=".94" stop-color="#bdbcbf"/><stop offset=".96" stop-color="#d7d6d8"/><stop offset=".98" stop-color="#e7e6e7"/><stop offset="1" stop-color="#ecebec"/></radialGradient><clipPath id="h"><path d="m66.82 268.87a16 16 0 0 1 -31 0l-1.3-.44-.1-.08v.1a17.23 17.23 0 0 0 33.79 0v-.1l-.1.08z"/></clipPath><radialGradient id="i" cx="51.23" cy="263.32" fy="244.382963" gradientTransform="matrix(.99999328 .00366518 -.00337197 .91999382 .87 21.14)" gradientUnits="userSpaceOnUse" r="20.14"><stop offset=".83" stop-color="#fff"/><stop offset=".83" stop-color="#ebebeb"/><stop offset=".83" stop-color="#c6c5c6"/><stop offset=".84" stop-color="#a4a3a5"/><stop offset=".84" stop-color="#88878a"/><stop offset=".85" stop-color="#727073"/><stop offset=".85" stop-color="#605f62"/><stop offset=".86" stop-color="#545256"/><stop offset=".86" stop-color="#4d4b4f"/><stop offset=".88" stop-color="#4b494d"/><stop offset=".89" stop-color="#514f53" stop-opacity=".96"/><stop offset=".9" stop-color="#666468" stop-opacity=".85"/><stop offset=".91" stop-color="#8a888b" stop-opacity=".65"/><stop offset=".91" stop-color="#bbbabc" stop-opacity=".38"/><stop offset=".92" stop-color="#fbfbfb" stop-opacity=".02"/><stop offset=".92" stop-color="#fff" stop-opacity="0"/><stop offset=".93" stop-color="#fff" stop-opacity=".15"/><stop offset=".96" stop-color="#fff" stop-opacity=".6"/><stop offset=".99" stop-color="#fff" stop-opacity=".89"/><stop offset="1" stop-color="#fff"/></radialGradient><linearGradient id="j" gradientUnits="userSpaceOnUse" x1="55.88" x2="47.11" y1="269.11" y2="255.09"><stop offset="0" stop-color="#cfced1"/><stop offset=".31" stop-color="#cccbce"/><stop offset=".54" stop-color="#c3c2c5"/><stop offset=".74" stop-color="#b3b2b5"/><stop offset=".93" stop-color="#9d9ba0"/><stop offset="1" stop-color="#929095"/></linearGradient><linearGradient id="k" gradientUnits="userSpaceOnUse" x1="55.85" x2="47.44" y1="275.76" y2="262.04"><stop offset="0" stop-color="#b5b4b8"/><stop offset=".34" stop-color="#b2b1b5"/><stop offset=".6" stop-color="#a9a8ac"/><stop offset=".82" stop-color="#99989c"/><stop offset="1" stop-color="#878589"/></linearGradient><linearGradient id="l" gradientUnits="userSpaceOnUse" x1="65.97" x2="65.33" y1="247.07" y2="246.54"><stop offset=".02" stop-color="#fff"/><stop offset=".17" stop-color="#fafafa"/><stop offset=".35" stop-color="#ebebeb"/><stop offset=".55" stop-color="#d2d2d3"/><stop offset=".77" stop-color="#afafb1"/><stop offset=".99" stop-color="#838286"/><stop offset="1" stop-color="#818084"/></linearGradient><linearGradient id="m" gradientUnits="userSpaceOnUse" x1="69.55" x2="69.55" y1="251.68" y2="249.69"><stop offset=".03" stop-color="#cfced1"/><stop offset=".21" stop-color="#cac9cc"/><stop offset=".43" stop-color="#bbbabd"/><stop offset=".67" stop-color="#a2a1a5"/><stop offset=".92" stop-color="#807e83"/><stop offset="1" stop-color="#737176"/></linearGradient><linearGradient id="n" gradientUnits="userSpaceOnUse" x1="73.21" x2="73.22" y1="254" y2="242.78"><stop offset="0" stop-color="#cfced1"/><stop offset=".39" stop-color="#cac9cc"/><stop offset=".86" stop-color="#bbbabd"/><stop offset="1" stop-color="#b5b4b8"/></linearGradient><linearGradient id="o" gradientUnits="userSpaceOnUse" x1="62.73" x2="73.47" y1="243.18" y2="243.18"><stop offset="0" stop-color="#e8e7e8"/><stop offset="1" stop-color="#c0bec2"/></linearGradient><linearGradient id="p" gradientUnits="userSpaceOnUse" x1="51.31" x2="51.31" y1="261.8" y2="261.36"><stop offset="0" stop-color="#dddcdd"/><stop offset="1" stop-color="#c2c1c4"/></linearGradient><linearGradient id="q" x1="51.31" x2="51.31" xlink:href="#p" y1="268.82" y2="268.41"/><linearGradient id="r" gradientUnits="userSpaceOnUse" x1="34.39" x2="68.16" y1="268.61" y2="268.61"><stop offset=".01" stop-color="#929095"/><stop offset=".1" stop-color="#d5d4d6"/><stop offset=".17" stop-color="#fff"/><stop offset=".83" stop-color="#fff"/><stop offset=".93" stop-color="#c3c2c5"/><stop offset="1" stop-color="#929095"/></linearGradient><radialGradient id="s" cx="50.32" cy="263.81" fx="27.372563" gradientTransform="matrix(.28 .96 -1.07 .31 318.43 132.48)" gradientUnits="userSpaceOnUse" r="22.94"><stop offset=".4" stop-color="#dddcdd"/><stop offset=".57" stop-color="#dbdadb"/><stop offset=".64" stop-color="#d4d2d4"/><stop offset=".7" stop-color="#c7c6c7"/><stop offset=".75" stop-color="#b5b4b5"/><stop offset=".79" stop-color="#9d9c9e"/><stop offset=".83" stop-color="#807f82"/><stop offset=".87" stop-color="#5f5d61"/><stop offset=".88" stop-color="#4b494d"/></radialGradient><linearGradient id="t" gradientUnits="userSpaceOnUse" x1="65.84" x2="65.45" y1="247.22" y2="246.16"><stop offset=".38" stop-color="#fff"/><stop offset=".46" stop-color="#e5e5e6"/><stop offset=".64" stop-color="#b0afb2"/><stop offset=".8" stop-color="#89888c"/><stop offset=".92" stop-color="#727075"/><stop offset="1" stop-color="#69676c"/></linearGradient><linearGradient id="u" gradientUnits="userSpaceOnUse" x1="69.51" x2="70.06" y1="250.65" y2="251.27"><stop offset=".01" stop-color="#69676c"/><stop offset=".31" stop-color="#57555a"/><stop offset=".71" stop-color="#47444a"/><stop offset="1" stop-color="#413e44"/></linearGradient><radialGradient id="v" cx="51.2" cy="265.91" gradientUnits="userSpaceOnUse" r="25.66"><stop offset=".96" stop-color="#363338"/><stop offset=".98" stop-color="#514e53"/><stop offset=".98" stop-color="#565358"/></radialGradient><linearGradient id="w" gradientUnits="userSpaceOnUse" x1="72.94" x2="72.89" y1="253.69" y2="252.92"><stop offset="0" stop-color="#363338"/><stop offset=".89" stop-color="#4f4c51"/><stop offset="1" stop-color="#524f54"/></linearGradient><linearGradient id="x" gradientUnits="userSpaceOnUse" x1="72.95" x2="73.47" y1="248.29" y2="248.29"><stop offset=".01" stop-color="#737176"/><stop offset=".36" stop-color="#6e6c71"/><stop offset=".8" stop-color="#5f5d62"/><stop offset="1" stop-color="#565358"/></linearGradient><linearGradient id="y" gradientUnits="userSpaceOnUse" x1="68.1" x2="68.1" y1="242.78" y2="243.42"><stop offset="0" stop-color="#c0bec2"/><stop offset="1" stop-color="#fff"/></linearGradient><linearGradient id="z" gradientUnits="userSpaceOnUse" x1="62.49" x2="63.15" y1="243.99" y2="243.07"><stop offset="0" stop-color="#7d7b80"/><stop offset=".13" stop-color="#838186"/><stop offset=".31" stop-color="#949397"/><stop offset=".52" stop-color="#b1afb2"/><stop offset=".75" stop-color="#d8d7d9"/><stop offset=".95" stop-color="#fff"/></linearGradient><radialGradient id="A" cx="51.12" cy="265.91" gradientUnits="userSpaceOnUse" r="25.88"><stop offset=".95" stop-color="#363338"/><stop offset=".96" stop-color="#423f44"/><stop offset=".97" stop-color="#565358"/></radialGradient><linearGradient id="B" gradientUnits="userSpaceOnUse" x1="45.64" x2="70.31" y1="243.07" y2="260.61"><stop offset="0" stop-color="#fff" stop-opacity="0"/><stop offset=".41" stop-color="#fff" stop-opacity="0"/><stop offset=".48" stop-color="#fdfdfd" stop-opacity=".03"/><stop offset=".56" stop-color="#f8f7f8" stop-opacity=".1"/><stop offset=".64" stop-color="#eeeeef" stop-opacity=".22"/><stop offset=".73" stop-color="#e2e1e3" stop-opacity=".4"/><stop offset=".82" stop-color="#d1d0d3" stop-opacity=".62"/><stop offset=".91" stop-color="#bdbcc0" stop-opacity=".89"/><stop offset=".94" stop-color="#b5b4b8"/><stop offset=".96" stop-color="#b6b5b9" stop-opacity=".99"/><stop offset=".97" stop-color="#b9b8bb" stop-opacity=".95"/><stop offset=".98" stop-color="#bdbcc0" stop-opacity=".89"/><stop offset=".98" stop-color="#c4c3c7" stop-opacity=".8"/><stop offset=".99" stop-color="#cdcccf" stop-opacity=".67"/><stop offset=".99" stop-color="#d8d8da" stop-opacity=".53"/><stop offset=".99" stop-color="#e5e5e6" stop-opacity=".35"/><stop offset="1" stop-color="#f4f4f4" stop-opacity=".15"/><stop offset="1" stop-color="#fff" stop-opacity="0"/></linearGradient><linearGradient id="C" gradientUnits="userSpaceOnUse" x1="59.04" x2="60.36" y1="247.42" y2="262.1"><stop offset=".42" stop-color="#fff" stop-opacity="0"/><stop offset=".65" stop-color="#fefefe" stop-opacity=".01"/><stop offset=".73" stop-color="#fcfbfc" stop-opacity=".05"/><stop offset=".79" stop-color="#f7f7f7" stop-opacity=".11"/><stop offset=".84" stop-color="#f0f0f1" stop-opacity=".2"/><stop offset=".88" stop-color="#e7e7e8" stop-opacity=".32"/><stop offset=".92" stop-color="#dcdcde" stop-opacity=".47"/><stop offset=".95" stop-color="#cfcfd1" stop-opacity=".65"/><stop offset=".98" stop-color="#c1c0c3" stop-opacity=".84"/><stop offset="1" stop-color="#b5b4b8"/></linearGradient><linearGradient id="D" gradientUnits="userSpaceOnUse" x1="66.06" x2="65.4" y1="247.61" y2="246.01"><stop offset="0" stop-color="#fff"/><stop offset=".37" stop-color="#c5c4c7"/><stop offset=".75" stop-color="#919094"/><stop offset=".93" stop-color="#7d7b80"/></linearGradient><linearGradient id="E" gradientUnits="userSpaceOnUse" x1="69.39" x2="69.73" y1="250.55" y2="250.82"><stop offset=".03" stop-color="#69676c"/><stop offset=".99" stop-color="#4b494d"/></linearGradient><radialGradient id="F" cx="51.32" cy="265.32" gradientUnits="userSpaceOnUse" r="25.24"><stop offset=".96" stop-color="#716f74"/><stop offset=".97" stop-color="#605d62"/><stop offset=".99" stop-color="#a9a8ac"/></radialGradient><linearGradient id="G" gradientUnits="userSpaceOnUse" x1="72.85" x2="72.85" y1="253.05" y2="253.25"><stop offset="0" stop-color="#9e9ca1"/><stop offset="1" stop-color="#605d62"/></linearGradient><linearGradient id="H" gradientUnits="userSpaceOnUse" x1="72.87" x2="73.03" y1="248.29" y2="248.29"><stop offset="0" stop-color="#a9a8ac"/><stop offset=".51" stop-color="#9b999e"/><stop offset="1" stop-color="#929095"/></linearGradient><linearGradient id="I" gradientUnits="userSpaceOnUse" x1="68.1" x2="68.1" y1="243.12" y2="243.57"><stop offset=".28" stop-color="#cfced1"/><stop offset=".39" stop-color="#dad9db"/><stop offset=".59" stop-color="#f6f6f6"/><stop offset=".64" stop-color="#fff"/></linearGradient><linearGradient id="J" gradientUnits="userSpaceOnUse" x1="63.24" x2="63.24" y1="243.39" y2="243.84"><stop offset="0" stop-color="#dddcdd"/><stop offset=".26" stop-color="#dad9da"/><stop offset=".48" stop-color="#cfced0"/><stop offset=".68" stop-color="#bebdbf"/><stop offset=".87" stop-color="#a6a4a8"/><stop offset="1" stop-color="#929095"/></linearGradient><radialGradient id="K" cx="51" cy="265.47" gradientUnits="userSpaceOnUse" r="25.24"><stop offset=".77" stop-color="#737176"/><stop offset=".97" stop-color="#afaeb2"/><stop offset=".99" stop-color="#b5b4b8"/></radialGradient><radialGradient id="L" cx="56.77" cy="283.6" fx="17.910081" gradientUnits="userSpaceOnUse" r="38.87"><stop offset=".45" stop-color="#fff"/><stop offset=".55" stop-color="#fcfcfc"/><stop offset=".63" stop-color="#f3f3f3"/><stop offset=".7" stop-color="#e3e3e3"/><stop offset=".76" stop-color="#cdcccd"/><stop offset=".82" stop-color="#b0afb1"/><stop offset=".88" stop-color="#8d8b8e"/><stop offset=".93" stop-color="#646266"/><stop offset=".98" stop-color="#363338"/></radialGradient><linearGradient id="M" gradientUnits="userSpaceOnUse" x1="51.3" x2="51.3" y1="268.43" y2="268.27"><stop offset="0" stop-color="#4b494d"/><stop offset=".48" stop-color="#8b8a8d"/><stop offset=".82" stop-color="#b3b2b5"/><stop offset="1" stop-color="#c2c1c4"/></linearGradient><linearGradient id="N" gradientUnits="userSpaceOnUse" x1="51.3" x2="51.3" y1="261.72" y2="261.88"><stop offset=".28" stop-color="#9e9ca1"/><stop offset=".4" stop-color="#b6b4b8"/><stop offset=".65" stop-color="#dddcdd"/><stop offset=".77" stop-color="#ecebec"/></linearGradient><radialGradient id="O" cx="50.35" cy="264.84" fx="42.913449" fy="239.526665" gradientTransform="matrix(.9999897 .00453784 -.00422019 .92999042 1.14 17.33)" gradientUnits="userSpaceOnUse" r="26.38"><stop offset=".51" stop-color="#fff"/><stop offset=".59" stop-color="#fcfcfc"/><stop offset=".65" stop-color="#f2f2f2"/><stop offset=".7" stop-color="#e2e1e2"/><stop offset=".76" stop-color="#cac9cb"/><stop offset=".81" stop-color="#acabae"/><stop offset=".85" stop-color="#878589"/><stop offset=".9" stop-color="#5c5a5f"/><stop offset=".92" stop-color="#413e44"/></radialGradient><linearGradient id="P" gradientUnits="userSpaceOnUse" x1="49.73" x2="53.24" y1="258.68" y2="271.53"><stop offset="0" stop-color="#fff"/><stop offset=".23" stop-color="#fafbfb"/><stop offset=".48" stop-color="#edeeee"/><stop offset=".75" stop-color="#d7d8d9"/><stop offset="1" stop-color="#bbbdbf"/></linearGradient><g fill="#1a1a1a"><path d="m74.38 3-.45 1.2c-1.8 4.7-9.91 20-38.72 19.68h-1.59l-4.34 25h28.26l-16.69 93.45h33.15l24.77-139.33z"/><path d="m182 10.2c-5.6-6.86-15.67-10.2-30.74-10.2-28.75 0-45.1 13.32-50 40.71l-11.42 64.5c-2.32 13-.61 23 5.06 29.73 6 7.11 16.32 10.72 30.82 10.72 30.8 0 45.12-13 51.09-46.45l8.78-49.86c3.84-19.42 2.74-31.5-3.59-39.15zm-57.19 93.45 11-62.28c1.48-8.24 3.26-14.55 11.47-14.55 2.15 0 3.68.61 4.65 1.84s2.37 4.44.6 11.82l-11 62.49-.18 1c-1 5.11-2.73 14.61-11.06 14.91-2.51 0-4.22-.59-5.22-1.8-2.27-2.78-1.07-8.92-.22-13.43z"/><path d="m45.67 158.81h.06l4.62-8h5.73l-8.88 14.19-2.2 10.25h-5.72l2.18-10.25-2.76-14.17h5.79z"/><path d="m52.76 175.25 5.18-24.42h13.12l-1 4.89h-7.4l-1 4.49h7.17l-1 4.89h-7.19l-1.11 5.27h7.78l-1 4.88z"/><path d="m67.83 175.25 10.52-24.42h6.9l.13 24.42h-5.79l.19-4.75h-4.49l-1.69 4.75zm13.06-20h-.06l-4 10.94h3.32z"/><path d="m92.74 175.25h-5.74l5.18-24.42h8.36c4.69 0 6.65 1.89 5.61 6.74-.56 2.61-1.57 4.46-4.21 5.57v.07a2.61 2.61 0 0 1 2.15 3.16c-.26 1.95-1.1 6.15-1.1 7.71a1.81 1.81 0 0 0 .35.85l-.06.32h-6.28a5 5 0 0 1 0-1.4c.36-2.14.92-4.16 1.08-5.66s-.1-2.48-1.4-2.57h-1.89zm3-14h2c1.66 0 2.38-1.53 2.67-3 .62-2.9-.55-3-3.36-3z"/><path d="m111.3 167.08-.36 1.73c-.29 1.4-.1 2.64 1.72 2.64a2.75 2.75 0 0 0 2.45-2.45c.42-2.05-1.11-2.83-2.41-3.74a12.32 12.32 0 0 1 -3.65-3.19 6.25 6.25 0 0 1 -.62-4.89c1-4.59 4.23-6.93 8.66-6.93 5 0 6.84 3.32 5.6 7.91h-5.27c.23-1.43.71-3.39-1.14-3.52a2.19 2.19 0 0 0 -2.35 1.63c-.48 1.47.1 2.22 1.08 3 1.86 1.36 3.55 2.21 4.62 3.45s1.5 2.86.88 5.83c-1 4.69-4.17 7.29-8.92 7.29-5.24 0-6.84-2.93-6.15-6.15l.55-2.61z"/><path d="m146.65 167.47c-1.17 5.51-3.71 8.37-9.5 8.37s-7.2-2.86-6-8.37l2.12-9.93c1-4.69 4.33-7.29 9.34-7.29s7.17 2.6 6.19 7.29zm-3.71-9.54c.33-1.5.59-3.29-1.3-3.29s-2.44 1.79-2.77 3.29l-2.12 10c-.32 1.4-.52 3.49 1.34 3.49s2.41-2.09 2.74-3.49z"/><path d="m147.86 175.25 5.14-24.42h13.48l-1 4.89h-7.75l-.94 4.33h7.13l-1 4.88h-7.13l-2.18 10.32z"/><path d="m46.85 217.63.29-3.17h-.14c-2.36 3-4.44 4-8 4-7 0-8.27-4.86-6.9-11.28l3.07-14.55c1.65-7.69 6-11.28 13.55-11.28 7.08 0 10.67 3 9.11 10.25l-.56 2.64h-8.27l.42-1.94c.66-3 .57-4.53-1.6-4.58-2.6 0-3.54 1.37-4 3.69l-3.73 17.51c-.42 2 .24 3.17 2.41 3.17 2.83 0 3.4-2.27 3.87-4.54l.62-2.78h-2.99l1.37-6.38h11.26l-4.11 19.27z"/><path d="m56.76 217.58 7.51-35.41h19l-1.47 7.08h-10.68l-1.42 6.52h10.39l-1.51 7.08h-10.39l-1.61 7.65h11.29l-1.51 7.08z"/><path d="m78.62 217.58 15.25-35.41h10l.19 35.41h-8.4l.29-6.89h-6.52l-2.43 6.89zm18.93-29h-.09l-5.81 15.86h4.82z"/><path d="m114.73 217.58h-8.31l7.51-35.41h12.13c6.8 0 9.64 2.74 8.13 9.77-.81 3.78-2.27 6.47-6.1 8.08v.09a3.8 3.8 0 0 1 3.12 4.58c-.38 2.83-1.6 8.92-1.6 11.19a2.62 2.62 0 0 0 .51 1.23l-.09.47h-9.03a6.87 6.87 0 0 1 0-2c.52-3.12 1.32-6 1.56-8.22s-.15-3.58-2-3.73h-2.74zm4.35-20.35h2.83c2.41 0 3.45-2.22 3.87-4.39.9-4.2-.8-4.39-4.86-4.3z"/><path d="m141.64 205.73-.52 2.5c-.42 2-.14 3.83 2.5 3.83 1.94 0 3.17-1.75 3.55-3.55.61-3-1.61-4.1-3.5-5.42a17.9 17.9 0 0 1 -5.29-4.63c-1.13-1.8-1.55-4-.89-7.08 1.41-6.66 6.13-10.06 12.55-10.06 7.23 0 9.92 4.82 8.13 11.47h-7.65c.33-2.07 1-4.91-1.66-5.1a3.14 3.14 0 0 0 -3.39 2.37c-.71 2.12.14 3.21 1.55 4.34 2.69 2 5.15 3.21 6.71 5s2.17 4.16 1.27 8.45c-1.46 6.8-6 10.58-12.93 10.58-7.61 0-9.92-4.25-8.93-8.92l.81-3.78z"/><path d="m30.76 179.15a1.81 1.81 0 0 1 -1.43-.67c-1.74-2.08-3.41-4.26-5-6.48l-5.2 3.5-1-1.54a106.08 106.08 0 0 1 -9.78-18l-.73-1.71 5.78-2.44a100.12 100.12 0 0 1 -4.72-15.2l-6.14 1.26-.38-1.87a106.88 106.88 0 0 1 -2.16-21.35v-1.86h6.27a100.11 100.11 0 0 1 1.66-16.43l-6.15-1.27.38-1.82a105.07 105.07 0 0 1 6.18-19.91l.72-1.71 5.78 2.44a99.09 99.09 0 0 1 7.44-13.7l-3.66-2.47a1.86 1.86 0 0 1 2.08-3.08l6.73 4.53-1 1.55a95.73 95.73 0 0 0 -8.86 16.32l-.77 1.76-5.74-2.42a101.9 101.9 0 0 0 -4.87 15.62l6.11 1.26-.37 1.82a96.5 96.5 0 0 0 -1.93 19.37v1.86h-6.26a102 102 0 0 0 1.71 16.94l6.1-1.26.38 1.83a95 95 0 0 0 5.6 18l.72 1.71-5.74 2.43a101.05 101.05 0 0 0 7.67 14.13l5.17-3.49 1 1.54a94.24 94.24 0 0 0 5.8 7.72 1.86 1.86 0 0 1 -1.43 3.05z"/><path d="m179.77 191-5.77-5.76a1.86 1.86 0 0 1 2.63-2.63l3.09 3.09a102.78 102.78 0 0 0 10.14-12.29l-5.17-3.49 1-1.54a96.11 96.11 0 0 0 8.86-16.32l.73-1.72 5.74 2.43a101.9 101.9 0 0 0 4.98-15.67l-6.11-1.26.37-1.82a96.51 96.51 0 0 0 2-19.37v-1.86h6.23a103 103 0 0 0 -1.7-16.94l-6.11 1.25-.38-1.82a95 95 0 0 0 -5.6-18l-.72-1.71 5.74-2.43a102.13 102.13 0 0 0 -8.72-15.72 1.86 1.86 0 0 1 3-2.08 104.69 104.69 0 0 1 9.78 18l.73 1.71-5.78 2.44a99.77 99.77 0 0 1 4.72 15.2l6.14-1.26.38 1.82a106.94 106.94 0 0 1 2.15 21.38v1.86h-6.27a101.32 101.32 0 0 1 -1.65 16.43l6.14 1.27-.34 1.81a105.82 105.82 0 0 1 -6.19 19.91l-.72 1.71-5.78-2.44a99 99 0 0 1 -7.43 13.7l5.2 3.51-1.08 1.61a106.37 106.37 0 0 1 -12.95 15.7z"/></g><path d="m96.49 229.68v70.72" fill="none" stroke="#000" stroke-miterlimit="10" stroke-width=".898634"/><path d="m68.64 251.61a21.95 21.95 0 1 1 -4-3.95h.06v-.68a22.49 22.49 0 1 0 4.57 4.58z" fill="url(#a)"/><path d="m68.64 251.61a21.95 21.95 0 1 1 -4-3.95h.06v-.68a22.49 22.49 0 1 0 4.57 4.58z" fill="url(#b)"/><path d="m34.76 261.5a16.93 16.93 0 0 1 33.09 0zm16.55 20.5a16.94 16.94 0 0 1 -16.55-13.35h33.09a16.94 16.94 0 0 1 -16.54 13.35zm17.44-30.39 1.7-1.7a23.42 23.42 0 0 1 2.22 3.32h.33v-9.87h-9.83v.35a24.45 24.45 0 0 1 3.32 2.29l-1.7 1.7a22 22 0 1 0 4 4z" fill="url(#c)"/><path d="m34.76 261.5a16.93 16.93 0 0 1 33.09 0zm16.55 20.5a16.94 16.94 0 0 1 -16.55-13.35h33.09a16.94 16.94 0 0 1 -16.54 13.35zm17.44-30.39 1.7-1.7a23.42 23.42 0 0 1 2.22 3.32h.33v-9.87h-9.83v.35a24.45 24.45 0 0 1 3.32 2.29l-1.7 1.7a22 22 0 1 0 4 4z" fill="url(#d)"/><path d="m66.82 261.28a16 16 0 0 0 -31 0l-1.3.44-.1.08v-.1a17.23 17.23 0 0 1 33.79 0v.1l-.1-.08zm0 7.59a16 16 0 0 1 -31 0l-1.3-.44-.1-.08v.1a17.23 17.23 0 0 0 33.79 0v-.1l-.1.08z" fill="url(#e)"/><path d="m65.84 245.99-1.09 1.08.05.69 1.81-1.82z" fill="url(#f)"/><path d="m66.82 261.28a16 16 0 0 0 -31 0l-1.3.44-.1.08v-.1a17.23 17.23 0 0 1 33.79 0v.1l-.1-.08zm0 7.59a16 16 0 0 1 -31 0l-1.3-.44-.1-.08v.1a17.23 17.23 0 0 0 33.79 0v-.1l-.1.08z" fill="url(#g)"/><g clip-path="url(#h)"><path d="m51.3 282.22a17.14 17.14 0 1 1 12.13-5 17.08 17.08 0 0 1 -12.13 5zm11.29-5.85a16 16 0 1 0 -11.29 4.63 15.86 15.86 0 0 0 11.29-4.63z" fill="url(#i)"/></g><path d="m35.79 261.29h31.03l1.3.43.1.08h-33.83l.1-.08z" fill="url(#j)"/><path d="m35.79 268.87h31.03l1.3-.44.1-.08h-33.83l.1.08z" fill="url(#k)"/><path d="m65.84 245.99-1.09 1.08.05.69 1.81-1.82z" fill="url(#l)"/><path d="m70.46 249.79-1.82 1.82.68.05 1.09-1.09z" fill="url(#m)"/><path d="m72.95 243.44v9.71l.52.51v-10.74z" fill="url(#n)"/><path d="m73.47 242.92h-10.74l.51.52h9.71z" fill="url(#o)"/><path d="m35.79 261.29h31.03l1.3.43.1.08h-33.83l.1-.08z" fill="url(#p)"/><path d="m34.39 268.35h33.83l-.1.08-1.3.44h-31.03l-1.3-.44z" fill="url(#q)"/><path d="m34.39 268.35h33.83l-.1.08-1.3.44h-31.03l-1.3-.44z" fill="url(#r)"/><path d="m68.64 251.61a21.95 21.95 0 1 1 -4-3.95h.06v-.68a22.49 22.49 0 1 0 4.57 4.58z" fill="url(#s)"/><path d="m65.84 245.99-1.09 1.08.05.69 1.81-1.82z" fill="url(#t)"/><path d="m70.46 249.79-1.82 1.82.68.05 1.09-1.09z" fill="url(#u)"/><path d="m72.72 253.15a24.81 24.81 0 0 0 -2.2-3.29l-.06-.07v.78a24.42 24.42 0 0 1 2 3.09z" fill="url(#v)"/><path d="m72.95 253.15h-.23l-.31.51h1.06z" fill="url(#w)"/><path d="m72.95 243.44v9.71l.52.51v-10.74z" fill="url(#x)"/><path d="m73.47 242.92h-10.74l.51.52h9.71z" fill="url(#y)"/><path d="m62.73 242.92v1.06l.51-.31v-.23z" fill="url(#z)"/><path d="m62.73 244a23.59 23.59 0 0 1 3.11 2l.77-.05-.07-.05a23.72 23.72 0 0 0 -3.29-2.22z" fill="url(#A)"/><path d="m51.3 247.85a17.26 17.26 0 0 1 16.9 13.85v.1l-.1-.08-1.3-.44a16 16 0 0 0 -15.5-12.17z" fill="url(#B)"/><path d="m51.3 247.85a17.26 17.26 0 0 1 16.9 13.85v.1l-.1-.08-1.3-.44a16 16 0 0 0 -15.5-12.17z" fill="url(#C)"/><path d="m66.73 245.93-1.93 1.94-.01-.22 1.7-1.7z" fill="url(#D)"/><path d="m70.45 249.91-1.7 1.71-.22-.02 1.94-1.93z" fill="url(#E)"/><path d="m72.67 253.23a23.42 23.42 0 0 0 -2.22-3.32v-.24a25 25 0 0 1 2.3 3.4z" fill="url(#F)"/><path d="m73.03 253.22h-.36l.1-.15h.1z" fill="url(#G)"/><path d="m73.03 243.36v9.86l-.16-.15v-9.55z" fill="url(#H)"/><path d="m72.87 243.52h-9.55l-.16-.16h9.87z" fill="url(#I)"/><path d="m63.32 243.52v.1l-.16.09v-.35z" fill="url(#J)"/><path d="m63.32 243.62a23.75 23.75 0 0 1 3.41 2.31h-.24a23.94 23.94 0 0 0 -3.33-2.24z" fill="url(#K)"/><path d="m34.3 261.88a17.3 17.3 0 0 1 34 0l-.19-.16a17.15 17.15 0 0 0 -33.63 0zm33.82 6.55a17.15 17.15 0 0 1 -33.63 0l-.19-.16a17.3 17.3 0 0 0 34 0z" fill="url(#L)"/><path d="m34.3 268.27h34.01l-.19.16h-33.63z" fill="url(#M)"/><path d="m68.31 261.88h-34.01l.19-.16h33.63z" fill="url(#N)"/><path d="m68.53 251.6a21.8 21.8 0 1 1 -3.73-3.74v-.21a22 22 0 1 0 4 4z" fill="url(#O)"/><path d="m64.42 262.84c-1.84 0-3 .88-3 2.24s1.16 2.25 3 2.25 3-.85 3-2.25-1.15-2.24-3-2.24zm0 3.75c-.68 0-1-.78-1-1.54s.4-1.46 1-1.46c.58 0 1 .63 1 1.5-.02.69-.29 1.5-1.01 1.5z" fill="#0b020a"/><path d="m66.55 263.39a2 2 0 0 1 .82 1.62c0 1.39-1.16 2.25-3 2.25a3.15 3.15 0 0 1 -2.66-1.05 3.11 3.11 0 0 0 2.73 1.14c1.87 0 3-.87 3-2.27a2 2 0 0 0 -.89-1.69z" fill="#fff"/><path d="m63.43 265.05c0-.86.43-1.46 1-1.46.58 0 1 .61 1 1.47 0-.9-.39-1.53-1-1.54-.61 0-1 .61-1.05 1.5 0 .69.22 1.38.77 1.55a1.5 1.5 0 0 1 -.72-1.52z" fill="#fff"/><path d="m61.51 263.28h-2.25l-.36.36h.06.72l-1.32 2.46-1.36-2.44h.9a.09.09 0 0 0 .09-.09v-.57a.07.07 0 0 0 0-.06l-.4.4h-2l1.77 3.08-.75.75a.17.17 0 0 0 .1 0h2.14a.17.17 0 0 0 .13-.08l1.89-3.49h.89a.1.1 0 0 0 .09-.09v-.51a.06.06 0 0 0 0-.06z" fill="#fff"/><path d="m54 263.36-.28.28a.15.15 0 0 0 .07 0h.89l.18-.31z" fill="#fff"/><path d="m59.68 263.67.15-.1.47-.29h.24l-1.93 3.5-.25-.47v-.19z" fill="#0b020a"/><path d="m61.51 263.28.33-.32a.07.07 0 0 0 -.06 0h-2.78a.1.1 0 0 0 -.09.09v.55a.09.09 0 0 0 0 .07l.36-.36z" fill="#0b020a"/><path d="m55.61 263.36h2l.4-.4a.07.07 0 0 0 -.06 0h-4.16a.09.09 0 0 0 -.09.09v.56a.14.14 0 0 0 0 .06l.28-.28h.86l-.18.31 1.91 3.48.06-.06.69-.69z" fill="#0b020a"/><path d="m35.32 263.36-.28.28h.06.9l.19-.31z" fill="#fff"/><path d="m41 263.67.15-.1.46-.29h.24l-1.92 3.5-.26-.47v-.19z" fill="#0b020a"/><path d="m36.93 263.36h2l.4-.4h-.06-4.17a.09.09 0 0 0 -.1.04v.56a.09.09 0 0 0 0 .06l.28-.28h.86l-.19.31 1.92 3.48s0 0 0 0l.74-.75z" fill="#0b020a"/><path d="m54.83 265.21-.33.33v1.2h-2.82l.26-.26v-2.82h.88a.08.08 0 0 0 .09-.09v-.57a.07.07 0 0 0 0-.06l-.33.32h-1.67v3.56h-1.6l-.35.35h.06 5.75a.1.1 0 0 0 .09-.09v-1.85a.09.09 0 0 0 -.03-.02z" fill="#fff"/><path d="m49.31 263.28-.35.36h.06.89l.38-.38z" fill="#fff"/><path d="m54.5 266.74v-1.2l.33-.33h-.06-.56a.08.08 0 0 0 -.08.08 1.2 1.2 0 0 1 -1.28 1.21h-.91l-.26.26z" fill="#0b020a"/><path d="m50.91 266.84v-3.56h1.64l.33-.32a.07.07 0 0 0 -.06 0h-3.82a.09.09 0 0 0 -.09.09v.55a.09.09 0 0 0 0 .07l.35-.36h1l-.38.38v2.82h-.88a.09.09 0 0 0 -.09.09v.56a.06.06 0 0 0 0 .06l.35-.35z" fill="#0b020a"/><path d="m45.74 262.84c-1.84 0-3 .88-3 2.24s1.16 2.25 3 2.25 3-.85 3-2.25-1.15-2.24-3-2.24zm0 3.75c-.69 0-1-.78-1-1.54s.4-1.46 1-1.46c.58 0 1 .63 1 1.5-.02.69-.29 1.5-1.01 1.5z" fill="#0b020a"/><path d="m47.87 263.39a2 2 0 0 1 .82 1.62c0 1.39-1.16 2.25-3 2.25a3.15 3.15 0 0 1 -2.69-1.05 3.11 3.11 0 0 0 2.73 1.14c1.87 0 3-.87 3-2.27a2 2 0 0 0 -.86-1.69z" fill="#fff"/><path d="m44.75 265.05c0-.86.43-1.46 1-1.46.58 0 1 .61 1 1.47 0-.9-.4-1.53-1-1.54-.61 0-1 .61-1 1.5 0 .69.22 1.38.77 1.55a1.5 1.5 0 0 1 -.77-1.52z" fill="#fff"/><path d="m42.83 263.28h-2.26l-.35.36h.06.72l-1.33 2.46-1.34-2.46h.9a.09.09 0 0 0 .09-.09v-.55a.07.07 0 0 0 0-.06l-.4.4h-2l1.76 3.08-.74.75h.09 2.15a.17.17 0 0 0 .13-.08l1.88-3.49h.89a.1.1 0 0 0 .09-.09v-.51a.08.08 0 0 0 0-.06z" fill="#fff"/><path d="m42.83 263.28.33-.32a.09.09 0 0 0 -.07 0h-2.81a.09.09 0 0 0 -.09.09v.55a.09.09 0 0 0 0 .07l.35-.36z" fill="#0b020a"/><path d="m64.43 267.26c-1.82 0-3-.84-3-2.18s1.15-2.15 2.94-2.15 3 .84 3 2.15-1.13 2.18-2.94 2.18zm0-.58c.79 0 1.08-.85 1.09-1.59 0-.92-.41-1.57-1-1.59-.63 0-1.08.64-1.1 1.55s.31 1.62 1 1.63zm-18.66.58c-1.82 0-3-.84-3-2.18s1.15-2.15 2.94-2.15 2.95.84 2.95 2.15-1.1 2.18-2.91 2.18zm0-.58c.79 0 1.08-.85 1.09-1.59a2 2 0 0 0 -.25-1.09.93.93 0 0 0 -.8-.5c-.63 0-1.08.64-1.1 1.55s.31 1.62 1.05 1.63zm13 .46h-2.08l-2-3.55h-.94v-.59h4.12v.55h-1l1.5 2.73 1.44-2.67v-.07h-.81v-.54h2.82v.56h-1l-1.92 3.57zm-18.69 0h-2.08l-2-3.55h-.9v-.59h4.12v.55h-1l1.5 2.73 1.48-2.74h-.87v-.54h2.81v.56h-.94l-1.93 3.57zm9-.57h1v-3h-1.08v-.57h3.8v.55h-1v3h1a1.27 1.27 0 0 0 1.36-1.29h.56v1.85h-5.72z" fill="#133c8a"/><path d="m64.43 267.26c-1.82 0-3-.84-3-2.18s1.15-2.15 2.94-2.15 3 .84 3 2.15-1.13 2.18-2.94 2.18zm0-.58c.79 0 1.08-.85 1.09-1.59 0-.92-.41-1.57-1-1.59-.63 0-1.08.64-1.1 1.55s.31 1.62 1 1.63zm-18.66.58c-1.82 0-3-.84-3-2.18s1.15-2.15 2.94-2.15 2.95.84 2.95 2.15-1.1 2.18-2.91 2.18zm0-.58c.79 0 1.08-.85 1.09-1.59a2 2 0 0 0 -.25-1.09.93.93 0 0 0 -.8-.5c-.63 0-1.08.64-1.1 1.55s.31 1.62 1.05 1.63zm13 .46h-2.08l-2-3.55h-.94v-.59h4.12v.55h-1l1.5 2.73 1.44-2.67v-.07h-.81v-.54h2.82v.56h-1l-1.92 3.57zm-18.69 0h-2.08l-2-3.55h-.9v-.59h4.12v.55h-1l1.5 2.73 1.48-2.74h-.87v-.54h2.81v.56h-.94l-1.93 3.57zm9-.57h1v-3h-1.08v-.57h3.8v.55h-1v3h1a1.27 1.27 0 0 0 1.36-1.29h.56v1.85h-5.72z" fill="url(#P)"/><path d="m132.74 279.2-.64-5c0-.27-.07-.47-.59-.47h-2.69c-.33 0-.5 0-.62.23l-2.93 5.35c-.13.22 0 .4.18.4h1.73a.48.48 0 0 0 .48-.25c.16-.31.32-.63.45-.9h.06 2.23s.06 0 .06 0l.08.78a.35.35 0 0 0 .4.36h1.43c.31-.03.42-.18.37-.5zm-2.5-2h-1.37s0 0 0-.05l1.16-2.26a0 0 0 0 1 .07 0l.24 2.25s-.05.02-.1.02z" fill="#d70a35"/><path d="m157.25 279.2-.64-5c0-.27-.07-.47-.59-.47h-2.68c-.34 0-.51 0-.63.23l-2.93 5.35c-.13.22 0 .4.19.4h1.73a.5.5 0 0 0 .47-.25c.16-.31.32-.63.45-.9a.1.1 0 0 1 .07 0h2.22a.06.06 0 0 1 .06 0l.08.78a.36.36 0 0 0 .41.36h1.43c.3-.03.41-.18.36-.5zm-2.5-2h-1.37s0 0 0-.05l1.16-2.26s.06-.05.07 0l.24 2.25s-.05.02-.1.02z" fill="#d70a35"/><path d="m147.13 279.27.47-2.52c0-.14 0-.14-.09-.07l-2.1 2.74a.57.57 0 0 1 -.4.25h-.51a.33.33 0 0 1 -.29-.21l-1-2.77c0-.11-.08-.08-.1 0l-.49 2.67a.31.31 0 0 1 -.31.29h-1.52c-.23 0-.33-.11-.28-.34l1-5.21a.45.45 0 0 1 .5-.43h1.67c.31 0 .52.07.6.29l.89 2.39c0 .12 0 .12.13 0l1.9-2.35a.62.62 0 0 1 .58-.28h2.1c.37 0 .42.19.37.44l-1 5.28a.33.33 0 0 1 -.34.28h-1.45c-.33-.03-.36-.24-.33-.45z" fill="#d70a35"/><path d="m137.79 276.32.41-2.21a.42.42 0 0 1 .49-.4h1.31c.25 0 .43.09.36.43l-1 5.11c-.07.33-.24.42-.44.42h-1.06a.47.47 0 0 1 -.43-.2l-1.43-2.42c0-.06-.06 0-.06 0l-.4 2.15c0 .28-.12.49-.43.49h-1.5c-.25 0-.34-.14-.29-.39l1-5.18c.06-.35.25-.41.43-.41h1.09c.26 0 .39.11.57.4l1.31 2.21s.06.06.07 0z" fill="#d70a35"/><path d="m163.56 273.68h-4.18c-.47 0-.58.09-.64.39l-1 5.23c-.05.24 0 .34.28.36h1.55a.36.36 0 0 0 .4-.3c.13-.57.3-1.48.34-1.68s0-.11.19-.11h1.16c.19 0 .27.1.23.36l-.23 1.41c0 .18 0 .32.26.32h1.53c.29 0 .41-.07.48-.45l.23-1.31a.93.93 0 0 0 -.57-1.2s0 0 0 0a1.17 1.17 0 0 0 .88-.86 8.2 8.2 0 0 0 .2-1c.1-.84-.36-1.16-1.11-1.16zm-1.17 1.57a6.94 6.94 0 0 1 -.14.74c-.06.27-.17.34-.56.34h-1.07c-.07 0-.08 0-.07-.08l.24-1.27a0 0 0 0 1 .05 0h1.31s.25.08.24.27z" fill="#d70a35"/><path d="m123.1 275.72 1.53-1.88a.31.31 0 0 1 .29-.16h2.08c.29 0 .25.19.17.28l-3.06 3.68a.66.66 0 0 0 0 .15l-.36 1.66c0 .19-.19.26-.39.26h-1.56c-.32 0-.35-.18-.31-.39l.3-1.47a.18.18 0 0 0 0-.13l-2-3.8c-.06-.13 0-.24.2-.24h1.75a.37.37 0 0 1 .36.18l.91 1.86c-.01.08.04.06.09 0z" fill="#d70a35"/><path d="m143.43 269.19 21.24-8.8v-5.35l-21.24 8.8z" fill="#d70a35"/><path d="m142.2 256.02-22.47-9.3v5.35l22.47 9.3 22.47-9.3v-5.35z" fill="#d70a35"/><path d="m119.73 260.39 21.24 8.8v-5.35l-21.24-8.8z" fill="#d70a35"/></svg>