<svg height="229.86" viewBox="0 0 214.79 229.86" width="214.79" xmlns="http://www.w3.org/2000/svg"><g fill="#1a1a1a"><path d="m5.2 96.67 65.05-93.36h36.22l-17.12 96.46h13.65l-4.68 25.88h-13.66l-5.17 29.6h-32.92l5.18-29.6h-51.75zm51.24 3.1 9-50.3h-.44l-34.23 50.3z"/><path d="m122 43.88c5.51-31.05 24.31-43.88 53.91-43.88 37.26 0 43.27 18 36.41 52.78l-9.84 55.89c-6.06 34-19.78 50.3-55.17 50.3-29 0-43.51-12.83-38.14-42.84zm57.34 0c.54-2.27 4.54-18-7.88-18-11.18 0-13.33 9.31-14.9 18l-12.26 69.76c-1.75 9.11-3.46 19.46 8.14 19.46 11.75-.41 13.56-14.1 14.56-19.46z"/><path d="m57.91 213.13-.81 3.83h3.09l-2.65 12.43h4.56l2.65-12.43 3.09.01.82-3.83z"/><path d="m72.55 220h.66c.75 0 1.62-.34 2-1.91.29-1.34-.3-1.66-1.33-1.66h-.52zm-3.09-6.86h6.83c3.14 0 4.15 1.55 3.57 4.26s-1.9 3.69-3.54 3.91v.05a2 2 0 0 1 1.88 1.3 5.73 5.73 0 0 1 -.16 2.78l-.28 1.34a6.22 6.22 0 0 0 -.21 1.91.75.75 0 0 0 .38.48v.23h-4.88a4.93 4.93 0 0 1 .16-2.34c.16-.8.27-1.62.44-2.41.3-1.39-.11-1.64-.9-1.65h-.84l-1.37 6.4h-4.54z"/><path d="m85.33 213.16-7.33 16.25h4.7l1-2.48h3v2.49h4.68l-.38-16.26zm2.06 3.55-.39 6.67h-2.08z"/><path d="m102.97 213.17-2.12 9.93h-.04l-.21-9.93h-4.94l-3.47 16.25 4.14.01 2.14-10.02h.05l.39 10.02h4.87l3.47-16.25z"/><path d="m114.48 217.19c.14-.68 0-1.32-.79-1.32a1.42 1.42 0 0 0 -1.31 1.23c-.69 3.23 6.45 1.57 5.21 7.38-.81 3.78-2.88 5.28-7.09 5.27-3.49 0-5.15-1.18-4.39-4.76l.1-.43h4.41l-.16.75c-.17.8 0 1.44.83 1.44s1.28-.73 1.43-1.43c.22-1-.12-1.28-.64-1.62s-1.29-.66-2-1.07c-2.2-1.23-2.83-2.12-2.31-4.53a6 6 0 0 1 2.63-4.24 7.39 7.39 0 0 1 3.93-1c4.59 0 4.88 2.29 4.3 5h-4.28z"/><path d="m123.1 226.17h.9c1.14 0 1.59-1.25 1.86-2.48l1-4.74c.36-1.63.35-2.48-1.06-2.48h-.66zm-1.78-13h6.55c2 0 3.18.8 3.63 2.12s.41 2.14-.42 6c-.76 3.55-1.87 8.12-6.6 8.12h-6.63z"/><path d="m134.16 213.2-3.47 16.25 4.55.01 3.47-16.26z"/><path d="m140.26 213.21-3.47 16.25 9.99.01.79-3.69h-5.44l.6-2.83 4.9.01.76-3.55-4.9-.01.53-2.5h5.24l.79-3.69z"/><path d="m157 217.23c.15-.68 0-1.32-.78-1.32a1.41 1.41 0 0 0 -1.31 1.22c-.69 3.24 6.45 1.58 5.21 7.39-.81 3.77-2.88 5.27-7.09 5.27-3.49 0-5.15-1.19-4.39-4.76l.1-.43h4.41l-.16.75c-.17.8 0 1.44.83 1.44s1.28-.73 1.43-1.44c.22-1-.12-1.27-.64-1.61s-1.29-.66-2-1.07c-2.2-1.24-2.83-2.12-2.31-4.54a6 6 0 0 1 2.63-4.23 7.39 7.39 0 0 1 3.93-1c4.59 0 4.88 2.28 4.3 5h-4.28z"/><path d="m163.87 213.23 9.79.01-.79 3.68h-5.24l-.53 2.5 4.89.01-.75 3.55-4.9-.01-.6 2.82 5.44.01-.79 3.69-9.99-.01z"/><path d="m175.25 213.24h4.55l-2.68 12.57h4.97l-.79 3.69-9.52-.01z"/><path d="m186.12 227.49c.21 0 .31-.09.34-.23s0-.23-.28-.24h-.36l-.1.47zm-.42.45h-.07l-.19.87h-.56l.48-2.24h.88c.56 0 .9.15.78.7a.78.78 0 0 1 -.71.65l.35.89h-.66zm.58-1.79a1.84 1.84 0 0 0 -1.8 1.54 1.13 1.13 0 0 0 1.14 1.54 1.85 1.85 0 0 0 1.8-1.54 1.13 1.13 0 0 0 -1.14-1.54m.13-.63a1.7 1.7 0 0 1 1.71 2.17 2.81 2.81 0 0 1 -2.63 2.17 1.7 1.7 0 0 1 -1.72-2.17 2.84 2.84 0 0 1 2.64-2.17"/><path d="m181.09 221.92h.81l-.44 1.17h1.16l-.15.4h-1.98z"/><path d="m183.59 222.32h-.73l.15-.4h2.28l-.16.4h-.73l-.44 1.17h-.81z"/><path d="m186.06 223.09h.39c.53 0 .66-.32.67-.47s-.2-.29-.47-.29h-.3zm-.37-1.17h1.21c.48 0 1.09.18 1 .69s-.62.87-1.54.87h-1.3z"/><path d="m44.7 212.88a8.41 8.41 0 0 0 -7.06 13l6-5.91h-3.86v-3h9.19l.06 8.94h-3.12v-3.49l-5.9 5.89a8.3 8.3 0 0 0 4.64 1.41 8.4 8.4 0 0 0 0-16.8"/><path d="m26.54 212.86a8.41 8.41 0 0 0 -7.07 13l6-5.91h-3.85v-3h9.19l.06 8.93h-3.13v-3.49l-5.9 5.89a8.4 8.4 0 1 0 4.66-15.4"/><path d="m17.17 200.44h170v3h-170z"/><path d="m22.07 177.29h.05l3.71-6.81h4.9l-7.17 12.09-1.56 8.75h-4.89l1.55-8.75-2.78-12.09h4.95z"/><path d="m28 191.32 3.69-20.84h11.22l-.72 4.17h-6.31l-.7 3.83h6.12l-.75 4.17h-6.12l-.78 4.5h6.64l-.74 4.17z"/><path d="m40.27 191.32 8.25-20.84h5.9l.84 20.84h-4.95v-4.06h-3.81l-1.31 4.06zm10.56-17.06h-.06l-3.1 9.34h2.84z"/><path d="m60.93 191.32h-4.93l3.69-20.84h7.15c4 0 5.73 1.61 5 5.75-.39 2.22-1.2 3.81-3.42 4.75v.02a2.33 2.33 0 0 1 1.93 2.7c-.16 1.66-.76 5.25-.71 6.58a1.45 1.45 0 0 0 .36.72v.28h-5.4a4.29 4.29 0 0 1 -.07-1.19c.25-1.84.66-3.56.75-4.84s-.16-2.11-1.27-2.19h-1.61zm2.14-12h1.67c1.42 0 2-1.3 2.19-2.58.44-2.47-.56-2.59-3-2.53z"/><path d="m75.93 184.35-.26 1.47c-.21 1.19 0 2.25 1.56 2.25a2.24 2.24 0 0 0 2-2.08c.3-1.75-1-2.42-2.17-3.2a11 11 0 0 1 -3.21-2.72 5.38 5.38 0 0 1 -.68-4.17c.7-3.92 3.41-5.92 7.19-5.92 4.26 0 5.94 2.83 5 6.75h-4.5c.15-1.22.51-2.89-1.08-3a1.78 1.78 0 0 0 -2 1.39 2.11 2.11 0 0 0 1 2.56 27.39 27.39 0 0 1 4.06 2.94c1 1.06 1.36 2.45.92 5-.72 4-3.34 6.22-7.4 6.22-4.48 0-5.93-2.5-5.44-5.25l.39-2.22z"/><path d="m90.62 191.32 3.69-20.84h11.21l-.72 4.17h-6.31l-.7 3.83h6.12l-.75 4.17h-6.11l-.79 4.5h6.64l-.74 4.17z"/><path d="m108.84 184.35-.25 1.47c-.21 1.19 0 2.25 1.55 2.25a2.23 2.23 0 0 0 2-2.08c.3-1.75-1-2.42-2.17-3.2a11.14 11.14 0 0 1 -3.21-2.72 5.38 5.38 0 0 1 -.67-4.17c.7-3.92 3.41-5.92 7.19-5.92 4.25 0 5.94 2.83 5 6.75h-4.48c.16-1.22.51-2.89-1.07-3a1.79 1.79 0 0 0 -2 1.39 2.11 2.11 0 0 0 1 2.56 27.24 27.24 0 0 1 4 2.94c1 1.06 1.36 2.45.92 5-.72 4-3.34 6.22-7.4 6.22-4.47 0-5.92-2.5-5.44-5.25l.4-2.22z"/><path d="m120.23 170.48h12.68l-.72 4.17h-3.94l-3 16.67h-4.89l3-16.67h-3.84z"/><path d="m127.94 191.32.83-4.75h4.7l-.83 4.75z"/><path d="m146 177.26h-4.26l.56-3.2c2.25 0 5.15-.66 6.09-3.14h3.14l-3.62 20.4h-4.42z"/><path d="m154.8 186.43a2.58 2.58 0 0 0 .08 1.36 1.11 1.11 0 0 0 1.13.56c1.78 0 1.94-2.39 2.15-3.59l.26-1.39a5.08 5.08 0 0 1 -3.36 1c-3.78 0-4.06-3.11-3.5-6.25.84-4.7 2.6-7.67 7.74-7.67 4.67 0 5.48 3.17 4.74 7.34l-1 5.5c-.77 4.33-2.07 8.5-7.29 8.5-4 0-6-1.19-5.39-5.39zm1.5-8.78c-.23 1.28-.75 3.28 1 3.28s1.91-2 2.12-3.14c.23-1.31 1-3.84-.92-3.84-1.69.05-2.02 2.59-2.2 3.7z"/><path d="m167.07 180.32c-1.62-1-2-2.37-1.65-4.37.65-3.69 3.36-5.47 7-5.47s5.76 1.75 5.12 5.47a5.76 5.76 0 0 1 -3.33 4.37v.05c1.91 1.25 2.18 2.56 1.74 5-.82 4.56-3.34 6.42-7.7 6.42-3.59 0-5.31-2.39-4.59-6.42.39-2.25.9-3.5 3.46-5zm4.45 4.89c.24-1.31.48-3.09-1.27-3.09s-2 1.86-2.2 3.17-.5 3.14 1.14 3.14 2.1-1.92 2.33-3.22zm-.64-6.42c1.45 0 2-1.34 2.17-2.5s.14-2.45-1.17-2.45c-1.5 0-1.93 1.33-2.14 2.56-.18 1.05-.16 2.39 1.14 2.39z"/><path d="m182.34 177.26h-4.25l.55-3.2c2.26 0 5.15-.66 6.1-3.14h3.14l-3.63 20.4h-4.42z"/></g></svg>