<svg height="54" viewBox="0 0 54 54" width="54" xmlns="http://www.w3.org/2000/svg"><path d="m37.38 16.62a2.11 2.11 0 0 0 -3 0l-3.57 3.57-10.63 10.64-3.57 3.57a2.11 2.11 0 0 0 3 3l3.57-3.57 10.64-10.66 3.57-3.57a2.11 2.11 0 0 0 -.01-2.98z" fill="#1a1a1a"/><path d="m37.38 37.38a2.11 2.11 0 0 0 0-3l-3.57-3.57-10.64-10.63-3.57-3.57a2.11 2.11 0 0 0 -3 3l3.57 3.57 10.66 10.64 3.57 3.57a2.11 2.11 0 0 0 2.98-.01z" fill="#1a1a1a"/><circle cx="27" cy="27" fill="none" r="25" stroke="#1a1a1a" stroke-miterlimit="10" stroke-width="4"/></svg>