<svg height="241.1" viewBox="0 0 283.41 241.1" width="283.41" xmlns="http://www.w3.org/2000/svg" xmlns:xlink="http://www.w3.org/1999/xlink"><radialGradient id="a" cx="28.5" cy="28.5" gradientUnits="userSpaceOnUse" r="28.5"><stop offset=".96" stop-color="#fff"/><stop offset=".98" stop-color="#e3e3e5"/><stop offset="1" stop-color="#cfced1"/></radialGradient><radialGradient id="b" cx="28.5" r="28.65" xlink:href="#a"/><radialGradient id="c" cx="27.06" cy="16.9" gradientUnits="userSpaceOnUse" r="39.66"><stop offset="0" stop-color="#ecebec"/><stop offset=".46" stop-color="#eae9ea"/><stop offset=".63" stop-color="#e3e2e3"/><stop offset=".7" stop-color="#dddcdd"/><stop offset=".86" stop-color="#cfced1"/></radialGradient><radialGradient id="d" cx="28.74" cy="8.66" gradientUnits="userSpaceOnUse" r="48.47"><stop offset="0" stop-color="#fff"/><stop offset=".52" stop-color="#fdfdfd"/><stop offset=".71" stop-color="#f7f6f7"/><stop offset=".84" stop-color="#ebebeb"/><stop offset=".94" stop-color="#dddcdd"/></radialGradient><radialGradient id="e" cx="30.91" cy="34.13" fx="15.66042" fy="27.774344" gradientUnits="userSpaceOnUse" r="28.62"><stop offset=".02" stop-color="#ecebec"/><stop offset=".24" stop-color="#e6e5e6"/><stop offset=".53" stop-color="#d5d4d7"/><stop offset=".61" stop-color="#cfced1"/><stop offset=".65" stop-color="#cac8cb"/><stop offset=".7" stop-color="#bab8bc"/><stop offset=".77" stop-color="#a09da2"/><stop offset=".83" stop-color="#7d787d"/><stop offset=".9" stop-color="#4f484f"/><stop offset=".97" stop-color="#170f17"/><stop offset=".99" stop-color="#0b020a"/></radialGradient><linearGradient id="f" gradientUnits="userSpaceOnUse" x1="45.56" x2="47.92" y1="5.38" y2="5.38"><stop offset=".02" stop-color="#dddcdd"/><stop offset=".21" stop-color="#d8d7d9"/><stop offset=".41" stop-color="#cbcacc"/><stop offset=".63" stop-color="#b5b4b6"/><stop offset=".85" stop-color="#979599"/><stop offset="1" stop-color="#7d7b80"/></linearGradient><radialGradient id="g" cx="28.5" cy="28.5" gradientUnits="userSpaceOnUse" r="21.65"><stop offset=".92" stop-color="#a9a8ac"/><stop offset=".94" stop-color="#bdbcbf"/><stop offset=".96" stop-color="#d7d6d8"/><stop offset=".98" stop-color="#e7e6e7"/><stop offset="1" stop-color="#ecebec"/></radialGradient><clipPath id="h"><path d="m48.18 33.31a20.27 20.27 0 0 1 -19.68 15.44 20.27 20.27 0 0 1 -19.68-15.44l-1.65-.55-.17-.1v.12a21.85 21.85 0 0 0 37 11.22 21.65 21.65 0 0 0 6-11.17v-.12l-.13.1z"/></clipPath><radialGradient id="i" cx="28.4" cy="26.28" fy="2.248966" gradientTransform="matrix(.99999328 .00366518 -.00337197 .91999382 .09 2.03)" gradientUnits="userSpaceOnUse" r="25.55"><stop offset=".83" stop-color="#fff"/><stop offset=".83" stop-color="#ebebeb"/><stop offset=".83" stop-color="#c6c5c6"/><stop offset=".84" stop-color="#a4a3a5"/><stop offset=".84" stop-color="#88878a"/><stop offset=".85" stop-color="#727073"/><stop offset=".85" stop-color="#605f62"/><stop offset=".86" stop-color="#545256"/><stop offset=".86" stop-color="#4d4b4f"/><stop offset=".88" stop-color="#4b494d"/><stop offset=".89" stop-color="#514f53" stop-opacity=".96"/><stop offset=".9" stop-color="#666468" stop-opacity=".85"/><stop offset=".91" stop-color="#8a888b" stop-opacity=".65"/><stop offset=".91" stop-color="#bbbabc" stop-opacity=".38"/><stop offset=".92" stop-color="#fbfbfb" stop-opacity=".02"/><stop offset=".92" stop-color="#fff" stop-opacity="0"/><stop offset=".93" stop-color="#fff" stop-opacity=".15"/><stop offset=".96" stop-color="#fff" stop-opacity=".6"/><stop offset=".99" stop-color="#fff" stop-opacity=".89"/><stop offset="1" stop-color="#fff"/></radialGradient><linearGradient id="j" gradientUnits="userSpaceOnUse" x1="34.3" x2="23.18" y1="33.62" y2="15.83"><stop offset="0" stop-color="#cfced1"/><stop offset=".31" stop-color="#cccbce"/><stop offset=".54" stop-color="#c3c2c5"/><stop offset=".74" stop-color="#b3b2b5"/><stop offset=".93" stop-color="#9d9ba0"/><stop offset="1" stop-color="#929095"/></linearGradient><linearGradient id="k" gradientUnits="userSpaceOnUse" x1="34.26" x2="23.59" y1="42.05" y2="24.65"><stop offset="0" stop-color="#b5b4b8"/><stop offset=".34" stop-color="#b2b1b5"/><stop offset=".6" stop-color="#a9a8ac"/><stop offset=".82" stop-color="#99989c"/><stop offset="1" stop-color="#878589"/></linearGradient><linearGradient id="l" gradientUnits="userSpaceOnUse" x1="47.11" x2="46.29" y1="5.66" y2="4.98"><stop offset=".02" stop-color="#fff"/><stop offset=".17" stop-color="#fafafa"/><stop offset=".35" stop-color="#ebebeb"/><stop offset=".55" stop-color="#d2d2d3"/><stop offset=".77" stop-color="#afafb1"/><stop offset=".99" stop-color="#838286"/><stop offset="1" stop-color="#818084"/></linearGradient><linearGradient id="m" gradientUnits="userSpaceOnUse" x1="51.64" x2="51.65" y1="11.5" y2="8.98"><stop offset=".03" stop-color="#cfced1"/><stop offset=".21" stop-color="#cac9cc"/><stop offset=".43" stop-color="#bbbabd"/><stop offset=".67" stop-color="#a2a1a5"/><stop offset=".92" stop-color="#807e83"/><stop offset="1" stop-color="#737176"/></linearGradient><linearGradient id="n" gradientUnits="userSpaceOnUse" x1="56.28" x2="56.3" y1="14.45" y2=".21"><stop offset="0" stop-color="#cfced1"/><stop offset=".39" stop-color="#cac9cc"/><stop offset=".86" stop-color="#bbbabd"/><stop offset="1" stop-color="#b5b4b8"/></linearGradient><linearGradient id="o" gradientUnits="userSpaceOnUse" x1="42.99" x2="56.62" y1=".72" y2=".72"><stop offset="0" stop-color="#e8e7e8"/><stop offset="1" stop-color="#c0bec2"/></linearGradient><linearGradient id="p" gradientUnits="userSpaceOnUse" x1="28.5" x2="28.5" y1="24.34" y2="23.78"><stop offset="0" stop-color="#dddcdd"/><stop offset="1" stop-color="#c2c1c4"/></linearGradient><linearGradient id="q" x1="28.5" x2="28.5" xlink:href="#p" y1="33.25" y2="32.73"/><linearGradient id="r" gradientUnits="userSpaceOnUse" x1="7.04" x2="49.89" y1="32.98" y2="32.98"><stop offset=".01" stop-color="#929095"/><stop offset=".1" stop-color="#d5d4d6"/><stop offset=".17" stop-color="#fff"/><stop offset=".83" stop-color="#fff"/><stop offset=".93" stop-color="#c3c2c5"/><stop offset="1" stop-color="#929095"/></linearGradient><radialGradient id="s" cx="27.24" cy="26.89" fx="-1.86145" gradientTransform="matrix(.28 .96 -1.07 .31 48.33 -7.71)" gradientUnits="userSpaceOnUse" r="29.1"><stop offset=".4" stop-color="#dddcdd"/><stop offset=".57" stop-color="#dbdadb"/><stop offset=".64" stop-color="#d4d2d4"/><stop offset=".7" stop-color="#c7c6c7"/><stop offset=".75" stop-color="#b5b4b5"/><stop offset=".79" stop-color="#9d9c9e"/><stop offset=".83" stop-color="#807f82"/><stop offset=".87" stop-color="#5f5d61"/><stop offset=".88" stop-color="#4b494d"/></radialGradient><linearGradient id="t" gradientUnits="userSpaceOnUse" x1="46.94" x2="46.44" y1="5.85" y2="4.51"><stop offset=".38" stop-color="#fff"/><stop offset=".46" stop-color="#e5e5e6"/><stop offset=".64" stop-color="#b0afb2"/><stop offset=".8" stop-color="#89888c"/><stop offset=".92" stop-color="#727075"/><stop offset="1" stop-color="#69676c"/></linearGradient><linearGradient id="u" gradientUnits="userSpaceOnUse" x1="51.6" x2="52.29" y1="10.21" y2="10.99"><stop offset=".01" stop-color="#69676c"/><stop offset=".31" stop-color="#57555a"/><stop offset=".71" stop-color="#47444a"/><stop offset="1" stop-color="#413e44"/></linearGradient><radialGradient id="v" cx="28.36" cy="29.56" gradientUnits="userSpaceOnUse" r="32.56"><stop offset=".96" stop-color="#363338"/><stop offset=".98" stop-color="#514e53"/><stop offset=".98" stop-color="#565358"/></radialGradient><linearGradient id="w" gradientUnits="userSpaceOnUse" x1="55.95" x2="55.89" y1="14.05" y2="13.08"><stop offset="0" stop-color="#363338"/><stop offset=".89" stop-color="#4f4c51"/><stop offset="1" stop-color="#524f54"/></linearGradient><linearGradient id="x" gradientUnits="userSpaceOnUse" x1="55.96" x2="56.62" y1="7.21" y2="7.21"><stop offset=".01" stop-color="#737176"/><stop offset=".36" stop-color="#6e6c71"/><stop offset=".8" stop-color="#5f5d62"/><stop offset="1" stop-color="#565358"/></linearGradient><linearGradient id="y" gradientUnits="userSpaceOnUse" x1="49.8" x2="49.8" y1=".21" y2="1.02"><stop offset="0" stop-color="#c0bec2"/><stop offset="1" stop-color="#fff"/></linearGradient><linearGradient id="z" gradientUnits="userSpaceOnUse" x1="42.68" x2="43.52" y1="1.75" y2=".58"><stop offset="0" stop-color="#7d7b80"/><stop offset=".13" stop-color="#838186"/><stop offset=".31" stop-color="#949397"/><stop offset=".52" stop-color="#b1afb2"/><stop offset=".75" stop-color="#d8d7d9"/><stop offset=".95" stop-color="#fff"/></linearGradient><radialGradient id="A" cx="28.26" cy="29.56" gradientUnits="userSpaceOnUse" r="32.84"><stop offset=".95" stop-color="#363338"/><stop offset=".96" stop-color="#423f44"/><stop offset=".97" stop-color="#565358"/></radialGradient><linearGradient id="B" gradientUnits="userSpaceOnUse" x1="21.31" x2="52.61" y1=".59" y2="22.83"><stop offset="0" stop-color="#fff" stop-opacity="0"/><stop offset=".41" stop-color="#fff" stop-opacity="0"/><stop offset=".48" stop-color="#fdfdfd" stop-opacity=".03"/><stop offset=".56" stop-color="#f8f7f8" stop-opacity=".1"/><stop offset=".64" stop-color="#eeeeef" stop-opacity=".22"/><stop offset=".73" stop-color="#e2e1e3" stop-opacity=".4"/><stop offset=".82" stop-color="#d1d0d3" stop-opacity=".62"/><stop offset=".91" stop-color="#bdbcc0" stop-opacity=".89"/><stop offset=".94" stop-color="#b5b4b8"/><stop offset=".96" stop-color="#b6b5b9" stop-opacity=".99"/><stop offset=".97" stop-color="#b9b8bb" stop-opacity=".95"/><stop offset=".98" stop-color="#bdbcc0" stop-opacity=".89"/><stop offset=".98" stop-color="#c4c3c7" stop-opacity=".8"/><stop offset=".99" stop-color="#cdcccf" stop-opacity=".67"/><stop offset=".99" stop-color="#d8d8da" stop-opacity=".53"/><stop offset=".99" stop-color="#e5e5e6" stop-opacity=".35"/><stop offset="1" stop-color="#f4f4f4" stop-opacity=".15"/><stop offset="1" stop-color="#fff" stop-opacity="0"/></linearGradient><linearGradient id="C" gradientUnits="userSpaceOnUse" x1="38.31" x2="39.98" y1="6.1" y2="24.72"><stop offset=".42" stop-color="#fff" stop-opacity="0"/><stop offset=".65" stop-color="#fefefe" stop-opacity=".01"/><stop offset=".73" stop-color="#fcfbfc" stop-opacity=".05"/><stop offset=".79" stop-color="#f7f7f7" stop-opacity=".11"/><stop offset=".84" stop-color="#f0f0f1" stop-opacity=".2"/><stop offset=".88" stop-color="#e7e7e8" stop-opacity=".32"/><stop offset=".92" stop-color="#dcdcde" stop-opacity=".47"/><stop offset=".95" stop-color="#cfcfd1" stop-opacity=".65"/><stop offset=".98" stop-color="#c1c0c3" stop-opacity=".84"/><stop offset="1" stop-color="#b5b4b8"/></linearGradient><linearGradient id="D" gradientUnits="userSpaceOnUse" x1="47.22" x2="46.38" y1="6.34" y2="4.32"><stop offset="0" stop-color="#fff"/><stop offset=".37" stop-color="#c5c4c7"/><stop offset=".75" stop-color="#919094"/><stop offset=".93" stop-color="#7d7b80"/></linearGradient><linearGradient id="E" gradientUnits="userSpaceOnUse" x1="51.44" x2="51.88" y1="10.07" y2="10.42"><stop offset=".03" stop-color="#69676c"/><stop offset=".99" stop-color="#4b494d"/></linearGradient><radialGradient id="F" cx="28.52" cy="28.81" gradientUnits="userSpaceOnUse" r="32.02"><stop offset=".96" stop-color="#716f74"/><stop offset=".97" stop-color="#605d62"/><stop offset=".99" stop-color="#a9a8ac"/></radialGradient><linearGradient id="G" gradientUnits="userSpaceOnUse" x1="55.84" x2="55.83" y1="13.25" y2="13.5"><stop offset="0" stop-color="#9e9ca1"/><stop offset="1" stop-color="#605d62"/></linearGradient><linearGradient id="H" gradientUnits="userSpaceOnUse" x1="55.86" x2="56.06" y1="7.21" y2="7.21"><stop offset="0" stop-color="#a9a8ac"/><stop offset=".51" stop-color="#9b999e"/><stop offset="1" stop-color="#929095"/></linearGradient><linearGradient id="I" gradientUnits="userSpaceOnUse" x1="49.8" x2="49.8" y1=".65" y2="1.22"><stop offset=".28" stop-color="#cfced1"/><stop offset=".39" stop-color="#dad9db"/><stop offset=".59" stop-color="#f6f6f6"/><stop offset=".64" stop-color="#fff"/></linearGradient><linearGradient id="J" gradientUnits="userSpaceOnUse" x1="43.64" x2="43.65" y1=".98" y2="1.55"><stop offset="0" stop-color="#dddcdd"/><stop offset=".26" stop-color="#dad9da"/><stop offset=".48" stop-color="#cfced0"/><stop offset=".68" stop-color="#bebdbf"/><stop offset=".87" stop-color="#a6a4a8"/><stop offset="1" stop-color="#929095"/></linearGradient><radialGradient id="K" cx="28.11" cy="29" gradientUnits="userSpaceOnUse" r="32.02"><stop offset=".77" stop-color="#737176"/><stop offset=".97" stop-color="#afaeb2"/><stop offset=".99" stop-color="#b5b4b8"/></radialGradient><radialGradient id="L" cx="35.43" cy="52" fx="-13.865481" gradientUnits="userSpaceOnUse" r="49.31"><stop offset=".45" stop-color="#fff"/><stop offset=".55" stop-color="#fcfcfc"/><stop offset=".63" stop-color="#f3f3f3"/><stop offset=".7" stop-color="#e3e3e3"/><stop offset=".76" stop-color="#cdcccd"/><stop offset=".82" stop-color="#b0afb1"/><stop offset=".88" stop-color="#8d8b8e"/><stop offset=".93" stop-color="#646266"/><stop offset=".98" stop-color="#363338"/></radialGradient><linearGradient id="M" gradientUnits="userSpaceOnUse" x1="28.5" x2="28.5" y1="32.76" y2="32.55"><stop offset="0" stop-color="#4b494d"/><stop offset=".48" stop-color="#8b8a8d"/><stop offset=".82" stop-color="#b3b2b5"/><stop offset="1" stop-color="#c2c1c4"/></linearGradient><linearGradient id="N" gradientUnits="userSpaceOnUse" x1="28.5" x2="28.5" y1="24.24" y2="24.45"><stop offset=".28" stop-color="#9e9ca1"/><stop offset=".4" stop-color="#b6b4b8"/><stop offset=".65" stop-color="#dddcdd"/><stop offset=".77" stop-color="#ecebec"/></linearGradient><radialGradient id="O" cx="27.29" cy="28.2" fx="17.853597" fy="-3.911695" gradientTransform="matrix(.9999897 .00453784 -.00422019 .92999042 .12 1.74)" gradientUnits="userSpaceOnUse" r="33.47"><stop offset=".51" stop-color="#fff"/><stop offset=".59" stop-color="#fcfcfc"/><stop offset=".65" stop-color="#f2f2f2"/><stop offset=".7" stop-color="#e2e1e2"/><stop offset=".76" stop-color="#cac9cb"/><stop offset=".81" stop-color="#acabae"/><stop offset=".85" stop-color="#878589"/><stop offset=".9" stop-color="#5c5a5f"/><stop offset=".92" stop-color="#413e44"/></radialGradient><linearGradient id="P" gradientUnits="userSpaceOnUse" x1="26.5" x2="30.95" y1="20.39" y2="36.68"><stop offset="0" stop-color="#fff"/><stop offset=".23" stop-color="#fafbfb"/><stop offset=".48" stop-color="#edeeee"/><stop offset=".75" stop-color="#d7d8d9"/><stop offset="1" stop-color="#bbbdbf"/></linearGradient><clipPath id="Q"><path d="m100.75 4h182.66v43h-182.66z"/></clipPath><path d="m50.49 11.41.06.08a27.84 27.84 0 0 1 -2.36 36.7 27.85 27.85 0 1 1 -39.38-39.38 27.83 27.83 0 0 1 36.73-2.33h.07v-.87a28.5 28.5 0 1 0 5.8 5.81z" fill="url(#a)"/><path d="m50.49 11.41.06.08a27.84 27.84 0 0 1 -2.36 36.7 27.85 27.85 0 1 1 -39.38-39.38 27.83 27.83 0 0 1 36.73-2.33h.07v-.87a28.5 28.5 0 1 0 5.8 5.81z" fill="url(#b)"/><path d="m7.51 24a21.47 21.47 0 0 1 36.17-10.68 21.26 21.26 0 0 1 5.81 10.68zm21 26a21.49 21.49 0 0 1 -21-17h42a21.49 21.49 0 0 1 -21.01 17zm22.12-38.58 2.16-2.16a30.92 30.92 0 0 1 2.82 4.21h.45v-12.47h-12.52v.4a31.18 31.18 0 0 1 4.23 2.83l-2.16 2.17a27.95 27.95 0 0 0 -36.87 41.86 28 28 0 0 0 41.89-36.84z" fill="url(#c)"/><path d="m7.51 24a21.47 21.47 0 0 1 36.17-10.68 21.26 21.26 0 0 1 5.81 10.68zm21 26a21.49 21.49 0 0 1 -21-17h42a21.49 21.49 0 0 1 -21.01 17zm22.12-38.58 2.16-2.16a30.92 30.92 0 0 1 2.82 4.21h.45v-12.47h-12.52v.4a31.18 31.18 0 0 1 4.23 2.83l-2.16 2.17a27.95 27.95 0 0 0 -36.87 41.86 28 28 0 0 0 41.89-36.84z" fill="url(#d)"/><path d="m48.18 23.69a20.27 20.27 0 0 0 -19.68-15.44 20.27 20.27 0 0 0 -19.68 15.44l-1.65.55-.13.1v-.12a21.85 21.85 0 0 1 36.96-11.17 21.65 21.65 0 0 1 6 11.17v.12l-.13-.1zm0 9.62a20.27 20.27 0 0 1 -19.68 15.44 20.27 20.27 0 0 1 -19.68-15.44l-1.65-.55-.17-.1v.12a21.85 21.85 0 0 0 37 11.22 21.65 21.65 0 0 0 6-11.17v-.12l-.13.1z" fill="url(#e)"/><path d="m46.93 4.29-1.38 1.37.07.87 2.3-2.31z" fill="url(#f)"/><path d="m48.18 23.69a20.27 20.27 0 0 0 -19.68-15.44 20.27 20.27 0 0 0 -19.68 15.44l-1.65.55-.13.1v-.12a21.85 21.85 0 0 1 36.96-11.17 21.65 21.65 0 0 1 6 11.17v.12l-.13-.1zm0 9.62a20.27 20.27 0 0 1 -19.68 15.44 20.27 20.27 0 0 1 -19.68-15.44l-1.65-.55-.17-.1v.12a21.85 21.85 0 0 0 37 11.22 21.65 21.65 0 0 0 6-11.17v-.12l-.13.1z" fill="url(#g)"/><g clip-path="url(#h)"><path d="m28.5 50.25a21.73 21.73 0 1 1 15.38-6.37 21.64 21.64 0 0 1 -15.38 6.37zm14.32-7.43a20.25 20.25 0 0 0 -28.64-28.64 20.25 20.25 0 0 0 28.64 28.64z" fill="url(#i)"/></g><path d="m8.82 23.69h39.36l1.65.55.13.1h-42.92l.13-.1z" fill="url(#j)"/><path d="m8.82 33.31h39.36l1.65-.55.13-.1h-42.92l.13.1z" fill="url(#k)"/><path d="m46.93 4.29-1.38 1.37.07.87 2.3-2.31z" fill="url(#l)"/><path d="m52.8 9.11-2.31 2.3.87.06 1.37-1.37z" fill="url(#m)"/><path d="m55.96 1.05v12.32l.66.65v-13.63z" fill="url(#n)"/><path d="m56.62.39h-13.63l.66.66h12.31z" fill="url(#o)"/><path d="m8.82 23.69h39.36l1.65.55.13.1h-42.92l.13-.1z" fill="url(#p)"/><path d="m7.04 32.66h42.92l-.13.1-1.65.55h-39.36l-1.65-.55z" fill="url(#q)"/><path d="m7.04 32.66h42.92l-.13.1-1.65.55h-39.36l-1.65-.55z" fill="url(#r)"/><path d="m50.49 11.41.06.08a27.84 27.84 0 0 1 -2.36 36.7 27.85 27.85 0 1 1 -39.38-39.38 27.83 27.83 0 0 1 36.73-2.33h.07v-.87a28.5 28.5 0 1 0 5.8 5.81z" fill="url(#s)"/><path d="m46.93 4.29-1.38 1.37.07.87 2.3-2.31z" fill="url(#t)"/><path d="m52.8 9.11-2.31 2.3.87.06 1.37-1.37z" fill="url(#u)"/><path d="m55.67 13.37a31.63 31.63 0 0 0 -2.8-4.17l-.07-.09-.06 1a32.06 32.06 0 0 1 2.53 3.89z" fill="url(#v)"/><path d="m55.96 13.37h-.3l-.39.65h1.35z" fill="url(#w)"/><path d="m55.96 1.05v12.32l.66.65v-13.63z" fill="url(#x)"/><path d="m56.62.39h-13.63l.66.66h12.31z" fill="url(#y)"/><path d="m42.99.39v1.35l.66-.4v-.29z" fill="url(#z)"/><path d="m43 1.74a30.14 30.14 0 0 1 3.94 2.55l1-.06-.09-.08a31.17 31.17 0 0 0 -4.18-2.81z" fill="url(#A)"/><path d="m28.5 6.65a21.86 21.86 0 0 1 21.43 17.57v.12l-.12-.1-1.65-.55a20.27 20.27 0 0 0 -19.66-15.44z" fill="url(#B)"/><path d="m28.5 6.65a21.86 21.86 0 0 1 21.43 17.57v.12l-.12-.1-1.65-.55a20.27 20.27 0 0 0 -19.66-15.44z" fill="url(#C)"/><path d="m48.07 4.22-2.45 2.45-.02-.28 2.17-2.16z" fill="url(#D)"/><path d="m52.79 9.26-2.16 2.16-.27-.01 2.45-2.45z" fill="url(#E)"/><path d="m55.6 13.47a30 30 0 0 0 -2.81-4.21v-.3a31.53 31.53 0 0 1 2.91 4.3z" fill="url(#F)"/><path d="m56.06 13.47h-.46l.12-.21h.14z" fill="url(#G)"/><path d="m56.06.95v12.52l-.2-.21v-12.11z" fill="url(#H)"/><path d="m55.86 1.15h-12.11l-.21-.2h12.52z" fill="url(#I)"/><path d="m43.75 1.15v.13l-.21.12v-.45z" fill="url(#J)"/><path d="m43.75 1.28a31 31 0 0 1 4.32 2.94h-.3a31.18 31.18 0 0 0 -4.23-2.82z" fill="url(#K)"/><path d="m6.92 24.45a22 22 0 0 1 37.08-11.45 21.78 21.78 0 0 1 6 11.47l-.24-.21a21.75 21.75 0 0 0 -42.66 0zm42.91 8.31a21.75 21.75 0 0 1 -42.66 0l-.25-.21a22 22 0 0 0 37.08 11.45 21.78 21.78 0 0 0 6-11.47z" fill="url(#L)"/><path d="m6.92 32.55h43.16l-.25.21h-42.66z" fill="url(#M)"/><path d="m50.08 24.45h-43.16l.25-.21h42.66z" fill="url(#N)"/><path d="m50.36 11.41a27.75 27.75 0 0 1 -41.48 36.71 27.74 27.74 0 0 1 19.62-47.36 27.46 27.46 0 0 1 17.12 5.91v-.27a27.95 27.95 0 0 0 -45.07 22.1 27.94 27.94 0 0 0 47.71 19.76 28 28 0 0 0 2.37-36.84z" fill="url(#O)"/><path d="m45.13 25.66c-2.33 0-3.84 1.12-3.84 2.85s1.48 2.85 3.86 2.85 3.85-1.08 3.85-2.85-1.52-2.85-3.87-2.85zm0 4.76c-.86 0-1.24-1-1.22-2 0-1.14.51-1.86 1.28-1.85.74 0 1.24.79 1.22 1.9-.03.93-.41 1.95-1.28 1.95z" fill="#0b020a"/><path d="m47.83 26.36a2.47 2.47 0 0 1 1.05 2.05c0 1.76-1.47 2.86-3.83 2.86a4 4 0 0 1 -3.36-1.33 3.93 3.93 0 0 0 3.46 1.44c2.37 0 3.84-1.1 3.84-2.87a2.51 2.51 0 0 0 -1.16-2.15z" fill="#fff"/><path d="m43.88 28.47c0-1.09.54-1.85 1.28-1.85.73 0 1.22.77 1.22 1.85 0-1.14-.5-1.94-1.27-2-.77 0-1.32.79-1.33 1.91 0 .87.28 1.75 1 2a1.91 1.91 0 0 1 -.9-1.91z" fill="#fff"/><path d="m41.45 26.23h-2.87l-.44.45a.1.1 0 0 0 .08 0h.91l-1.69 3.11-1.7-3.11h1.14a.11.11 0 0 0 .12-.08v-.71a.11.11 0 0 0 0-.08l-.51.51h-2.49l2.24 3.92-.94.94a.18.18 0 0 0 .12.05h2.68a.21.21 0 0 0 .16-.1l2.39-4.42h1.14a.11.11 0 0 0 .11-.11v-.71a.11.11 0 0 0 0-.08z" fill="#fff"/><path d="m31.92 26.32-.35.36a.1.1 0 0 0 .08 0h1.13l.23-.39z" fill="#fff"/><path d="m39.13 26.71.18-.12.6-.36h.3l-2.44 4.43-.33-.6v-.24z" fill="#0b020a"/><path d="m41.45 26.23.42-.42a.11.11 0 0 0 -.08 0h-3.57a.11.11 0 0 0 -.12.11v.71a.09.09 0 0 0 0 .08l.44-.45z" fill="#0b020a"/><path d="m34 26.32h2.49l.51-.51a.11.11 0 0 0 -.08 0h-5.27a.11.11 0 0 0 -.12.11v.71a.09.09 0 0 0 0 .08l.35-.36h1.12l-.23.39 2.43 4.42s0 0 0 .05l.07-.07.87-.87z" fill="#0b020a"/><path d="m8.22 26.32-.36.36a.11.11 0 0 0 .08 0h1.14l.23-.39z" fill="#fff"/><path d="m15.43 26.71.18-.11.59-.37h.31l-2.44 4.43-.33-.6v-.24z" fill="#0b020a"/><path d="m10.26 26.32h2.49l.51-.51a.12.12 0 0 0 -.09 0h-5.23a.11.11 0 0 0 -.11.11v.71a.11.11 0 0 0 0 .08l.36-.36h1.12l-.23.39 2.42 4.42.06.05.94-.94z" fill="#0b020a"/><path d="m33 28.67-.42.42v1.52h-3.58l.33-.33v-3.57h1.11c.09 0 .11-.05.11-.12v-.7a.11.11 0 0 0 0-.08l-.42.42h-2.13v4.51h-2l-.44.45a.1.1 0 0 0 .08 0h7.28a.11.11 0 0 0 .11-.11v-2.33a.11.11 0 0 0 -.03-.08z" fill="#fff"/><path d="m26 26.23-.44.44a.08.08 0 0 0 .08 0h1.12l.48-.48z" fill="#fff"/><path d="m32.55 30.61v-1.52l.42-.42a.11.11 0 0 0 -.08 0h-.7a.11.11 0 0 0 -.11.11 1.52 1.52 0 0 1 -1.62 1.53h-1.15l-.33.33z" fill="#0b020a"/><path d="m28 30.74v-4.51h2.08l.42-.42a.11.11 0 0 0 -.08 0h-4.81a.11.11 0 0 0 -.12.11v.7a.1.1 0 0 0 0 .08l.44-.44h1.24l-.48.48v3.57h-1.08a.12.12 0 0 0 -.12.12v.71a.09.09 0 0 0 0 .08l.44-.45z" fill="#0b020a"/><path d="m21.44 25.66c-2.34 0-3.85 1.12-3.85 2.85s1.48 2.85 3.86 2.85 3.82-1.08 3.82-2.85-1.49-2.85-3.83-2.85zm0 4.76c-.87 0-1.24-1-1.23-2 0-1.14.51-1.86 1.28-1.85.74 0 1.24.79 1.22 1.9-.02.93-.37 1.95-1.28 1.95z" fill="#0b020a"/><path d="m24.14 26.36a2.48 2.48 0 0 1 1 2.05c0 1.76-1.46 2.86-3.82 2.86a4 4 0 0 1 -3.32-1.33 4 4 0 0 0 3.46 1.44c2.37 0 3.85-1.1 3.85-2.87a2.51 2.51 0 0 0 -1.17-2.15z" fill="#fff"/><path d="m20.18 28.47c0-1.09.55-1.85 1.28-1.85.73 0 1.23.77 1.22 1.85 0-1.14-.5-1.94-1.27-2-.76 0-1.31.79-1.33 1.91 0 .87.28 1.75 1 2a1.9 1.9 0 0 1 -.9-1.91z" fill="#fff"/><path d="m17.75 26.23h-2.87l-.45.45a.11.11 0 0 0 .08 0h.92l-1.69 3.11-1.74-3.08h1.14a.11.11 0 0 0 .11-.11v-.71a.11.11 0 0 0 0-.08l-.51.51h-2.48l2.24 3.92-.94.94a.16.16 0 0 0 .11.05h2.72a.22.22 0 0 0 .17-.1l2.44-4.42h1.13a.11.11 0 0 0 .12-.11v-.71a.12.12 0 0 0 0-.08z" fill="#fff"/><path d="m17.75 26.23.41-.42a.11.11 0 0 0 -.08 0h-3.57a.11.11 0 0 0 -.11.11v.71a.11.11 0 0 0 0 .08l.45-.45z" fill="#0b020a"/><path d="m45.15 31.27c-2.31 0-3.75-1.06-3.75-2.76s1.47-2.73 3.73-2.73 3.75 1.07 3.75 2.73-1.43 2.76-3.73 2.76zm0-.73c1 0 1.37-1.09 1.38-2 0-1.17-.53-2-1.33-2-.8 0-1.37.8-1.39 2s.38 2.05 1.33 2.07zm-23.68.73c-2.31 0-3.74-1.06-3.74-2.76s1.46-2.73 3.73-2.73 3.74 1.07 3.74 2.73-1.45 2.76-3.75 2.76zm0-.73c1 0 1.37-1.09 1.38-2a2.63 2.63 0 0 0 -.32-1.39 1.16 1.16 0 0 0 -1-.62c-.8 0-1.37.8-1.39 2s.39 2.05 1.34 2.07zm16.5.57h-2.6l-2.52-4.51h-1.2v-.71h5.23v.71h-1.34l1.9 3.46 1.83-3.38v-.08h-1.05v-.71h3.57v.71h-1.21l-2.44 4.51zm-23.71 0h-2.6l-2.52-4.51h-1.2v-.71h5.23v.71h-1.33l1.9 3.46 1.87-3.46h-1.1v-.71h3.57v.71h-1.2l-2.44 4.51zm11.39-.71h1.24v-3.81h-1.28v-.7h4.81v.7h-1.23v3.8h1.27a1.62 1.62 0 0 0 1.73-1.64h.7v2.36h-7.28z" fill="#133c8a"/><path d="m45.15 31.27c-2.31 0-3.75-1.06-3.75-2.76s1.47-2.73 3.73-2.73 3.75 1.07 3.75 2.73-1.43 2.76-3.73 2.76zm0-.73c1 0 1.37-1.09 1.38-2 0-1.17-.53-2-1.33-2-.8 0-1.37.8-1.39 2s.38 2.05 1.33 2.07zm-23.68.73c-2.31 0-3.74-1.06-3.74-2.76s1.46-2.73 3.73-2.73 3.74 1.07 3.74 2.73-1.45 2.76-3.75 2.76zm0-.73c1 0 1.37-1.09 1.38-2a2.63 2.63 0 0 0 -.32-1.39 1.16 1.16 0 0 0 -1-.62c-.8 0-1.37.8-1.39 2s.39 2.05 1.34 2.07zm16.5.57h-2.6l-2.52-4.51h-1.2v-.71h5.23v.71h-1.34l1.9 3.46 1.83-3.38v-.08h-1.05v-.71h3.57v.71h-1.21l-2.44 4.51zm-23.71 0h-2.6l-2.52-4.51h-1.2v-.71h5.23v.71h-1.33l1.9 3.46 1.87-3.46h-1.1v-.71h3.57v.71h-1.2l-2.44 4.51zm11.39-.71h1.24v-3.81h-1.28v-.7h4.81v.7h-1.23v3.8h1.27a1.62 1.62 0 0 0 1.73-1.64h.7v2.36h-7.28z" fill="url(#P)"/><path d="m33.39 231a4.84 4.84 0 0 1 -3.52 8.18 4.57 4.57 0 0 1 -3.3-1.32l-1.79 1.77-1.78-1.84a4.87 4.87 0 0 1 -6.79-.08 4.7 4.7 0 0 1 -1.41-3.43 4.74 4.74 0 0 1 1.31-3.28l-1.75-1.75 1.77-1.77a4.61 4.61 0 0 1 -1.32-3.28 4.75 4.75 0 0 1 1.4-3.44 4.85 4.85 0 0 1 6.78-.06c.27-.26.87-.84 1.79-1.76q.59.56 1.77 1.74a4.86 4.86 0 0 1 6.76.08 4.75 4.75 0 0 1 1.4 3.44 4.69 4.69 0 0 1 -1.29 3.28l1.74 1.75zm-3.52-9.78a2.65 2.65 0 0 0 -1.95.79l4.19 4.17a2.74 2.74 0 0 0 .77-1.94 3 3 0 0 0 -3-3zm-2.87 2.21a2.54 2.54 0 0 0 -.1.76 2.8 2.8 0 0 0 .88 2.09 2.92 2.92 0 0 0 2.1.86 3.33 3.33 0 0 0 .76-.07zm5 5a4.24 4.24 0 0 1 -2.16.53 4.8 4.8 0 0 1 -4.81-4.81 4.54 4.54 0 0 1 .49-2.07l-.77-.85-.79.82a4.75 4.75 0 0 1 .48 2.1 4.81 4.81 0 0 1 -4.81 4.85 5 5 0 0 1 -2.07-.46l-.69.68.7.71a5.16 5.16 0 0 1 2.06-.48 4.66 4.66 0 0 1 3.44 1.42 4.73 4.73 0 0 1 1.42 3.45 4.88 4.88 0 0 1 -.45 2.07l.75.79.72-.75a5.17 5.17 0 0 1 -.47-2.11 4.72 4.72 0 0 1 1.41-3.44 4.67 4.67 0 0 1 3.42-1.43 4.6 4.6 0 0 1 2.14.52l.77-.75-.75-.75zm-2.16 2.86a2.94 2.94 0 0 0 -2.94 2.94 3.84 3.84 0 0 0 .06.71l3.58-3.59a4.23 4.23 0 0 0 -.7-.06zm2.2 1c-.79.82-2.17 2.23-4.16 4.23a2.8 2.8 0 0 0 2 .77 2.76 2.76 0 0 0 2.1-.91 3 3 0 0 0 .87-2.14 2.81 2.81 0 0 0 -.77-1.95zm-12.41-11.12a3 3 0 0 0 -3 3 2.71 2.71 0 0 0 .77 2l4.29-4.17a3 3 0 0 0 -2.06-.81zm2.93 2.32q-1 1-3.6 3.58a3.39 3.39 0 0 0 .67.07 3 3 0 0 0 2.14-.85 2.81 2.81 0 0 0 .89-2.1 2.57 2.57 0 0 0 -.1-.7zm-2.93 7.8a5.41 5.41 0 0 0 -.59 0l3.49 3.52a3.23 3.23 0 0 0 .06-.61 2.8 2.8 0 0 0 -.86-2.09 2.85 2.85 0 0 0 -2.1-.85zm-2.2 1a2.88 2.88 0 0 0 -.74 2 3 3 0 0 0 .87 2.13 2.73 2.73 0 0 0 2.07.92 2.64 2.64 0 0 0 2-.84l-4.2-4.19z" fill="#00529b" fill-rule="evenodd"/><path d="m40.52 238.46h3.88v-6.65h4.24a5.94 5.94 0 1 0 0-11.85h-8.12zm3.88-15.34h3a4.51 4.51 0 0 1 2.39.49 2.43 2.43 0 0 1 1 2.26 2.49 2.49 0 0 1 -1 2.23 4.45 4.45 0 0 1 -2.45.54h-3v-5.52z" fill="#00529b" fill-rule="evenodd"/><path d="m68.14 232.65a9.35 9.35 0 0 0 -1.57-5.65 5.8 5.8 0 0 0 -5-2.41 6.52 6.52 0 0 0 -5.06 2.13 7.26 7.26 0 0 0 -1.8 5.08 7 7 0 0 0 1.75 4.92 6.58 6.58 0 0 0 5.11 2.08 6.1 6.1 0 0 0 6.3-4.48h-3.27a2.1 2.1 0 0 1 -1.15 1.25 3.64 3.64 0 0 1 -1.71.45c-2.16 0-3.25-1.11-3.25-3.34zm-9.65-2.32a2.74 2.74 0 0 1 .66-1.8 2.9 2.9 0 0 1 2.37-1c1.56 0 2.52.94 2.87 2.83z" fill="#00529b" fill-rule="evenodd"/><path d="m69.24 238.44h3.56v-6c0-3 1.3-4.45 3.9-4.45a5.08 5.08 0 0 1 1.23.13v-3.42a2 2 0 0 0 -.75-.12 5.74 5.74 0 0 0 -2.75.53 5.53 5.53 0 0 0 -1.76 2v-2.27h-3.43v13.59z" fill="#00529b"/><path d="m92 238.46q-.51 0-4.32 0l-4.15-6.22-1.17 1.16v5.06h-3.45v-18.46h3.47v9.62l4.62-4.83h4.32l-5.06 5.07 5.79 8.6z" fill="#00529b"/><path d="m93 238.46h3.7v-13.67h-3.7zm-.15-16.86a2 2 0 0 1 3.47-1.44 2 2 0 0 1 .59 1.44 1.92 1.92 0 0 1 -.59 1.44 2 2 0 0 1 -3.47-1.44z" fill="#00529b" fill-rule="evenodd"/><path d="m98.37 238.44h3.63v-7a5.63 5.63 0 0 1 .47-2.6 2.3 2.3 0 0 1 2.18-1.2 2.18 2.18 0 0 1 2.15 1.06 5.07 5.07 0 0 1 .38 2.21v7.49h3.64v-8.17a6.9 6.9 0 0 0 -1-4.16c-.76-1-2.11-1.51-4.06-1.51a4.41 4.41 0 0 0 -2.16.6 4.89 4.89 0 0 0 -1.71 1.82h-.09v-2.18h-3.43z" fill="#00529b"/><path d="m112 234.07a4.06 4.06 0 0 0 1.91 3.67 8 8 0 0 0 4.34 1 7.73 7.73 0 0 0 4.24-1 4.07 4.07 0 0 0 1.83-3.64 3.2 3.2 0 0 0 -2.1-3.08 10.25 10.25 0 0 0 -2-.64l-2.12-.44c-1.39-.32-2.08-.83-2.08-1.54s.65-1.23 2-1.23c1.75 0 2.62.59 2.62 1.78h3.36a3.63 3.63 0 0 0 -1.75-3.3 7.78 7.78 0 0 0 -4.15-.93c-2.4 0-4.06.55-5 1.64a3.94 3.94 0 0 0 -.85 2.63 3.08 3.08 0 0 0 2.13 2.93 13 13 0 0 0 2.16.61c1 .22 1.71.41 2.17.55 1.37.41 2 .91 2 1.51a1.48 1.48 0 0 1 -.73 1.32 3.44 3.44 0 0 1 -1.8.39 3.11 3.11 0 0 1 -1.93-.55 2.14 2.14 0 0 1 -1-1.7z" fill="#00529b"/><path d="m128.1 224.55a2.31 2.31 0 0 1 1.09.29 2.06 2.06 0 0 1 .82.81 2.26 2.26 0 0 1 .3 1.11 2.19 2.19 0 0 1 -.3 1.1 2 2 0 0 1 -.81.81 2.17 2.17 0 0 1 -2.2 0 2 2 0 0 1 -.81-.81 2.19 2.19 0 0 1 -.3-1.1 2.26 2.26 0 0 1 .3-1.11 2.06 2.06 0 0 1 .82-.81 2.31 2.31 0 0 1 1.09-.29zm0 .37a1.84 1.84 0 0 0 -.9.24 1.62 1.62 0 0 0 -.69.68 1.79 1.79 0 0 0 -.25.92 1.91 1.91 0 0 0 .24.92 1.74 1.74 0 0 0 .69.68 1.85 1.85 0 0 0 .91.24 1.91 1.91 0 0 0 .92-.24 1.78 1.78 0 0 0 .68-.68 1.91 1.91 0 0 0 .24-.92 1.79 1.79 0 0 0 -.25-.92 1.62 1.62 0 0 0 -.69-.68 1.84 1.84 0 0 0 -.9-.24zm-1 3.06v-2.37h.9a2.11 2.11 0 0 1 .6.06.62.62 0 0 1 .41.58.64.64 0 0 1 -.18.45.77.77 0 0 1 -.5.22.83.83 0 0 1 .21.12 3.54 3.54 0 0 1 .35.47l.29.47h-.47l-.21-.38a2.19 2.19 0 0 0 -.4-.55.52.52 0 0 0 -.31-.08h-.23v1zm.38-1.34h.52a.76.76 0 0 0 .46-.1.31.31 0 0 0 .12-.26.33.33 0 0 0 -.06-.19.4.4 0 0 0 -.16-.12 1.17 1.17 0 0 0 -.39 0h-.44v.71z" fill="#00529b" fill-rule="evenodd"/><g fill="#050505"><path d="m55.67 95.4c0-1.67 0-3.35 0-5 0-.53.15-.72.7-.72h8.58a3.8 3.8 0 0 1 3.8 2.54c.55 1.66-.25 4.19-2.37 4.72-.66.17-.43.36-.18.69.84 1.1 1.67 2.22 2.51 3.32.24.33.23.51-.23.5h-.12a9.78 9.78 0 0 1 -2.92-.07c-.91-.31-1.25-1.45-1.9-2.17a3 3 0 0 1 -.51-.68c-.73-1.77-2.24-1.53-3.71-1.53-.4 0-.46.22-.45.55v3.07c0 .83 0 .83-.89.84-.37 0-.73 0-1.1 0-1.37 0-1.2.09-1.21-1.15zm6.21-3.27h-1.34c-1.81 0-1.79 0-1.68 1.78 0 .5.23.61.67.6h4.63a2 2 0 0 0 .83-.17 1.1 1.1 0 0 0 .68-.94 1.12 1.12 0 0 0 -.67-1.09 1.89 1.89 0 0 0 -.94-.18c-.71.01-1.44 0-2.18 0z"/><path d="m42.17 95.52c0-1.72 0-3.44 0-5.15 0-.54.17-.71.7-.71q5 0 10.06 0c.49 0 .62.19.65.64.15 2 .16 2-1.81 2h-5.65c-1 0-.84 0-.84.88 0 1.54-.12 1.27 1.33 1.28h6.13c.52 0 .69.14.7.68 0 1.63.06 1.63-1.58 1.63h-5.77c-.78 0-.78 0-.81.82v.12c0 1.57-.16 1.32 1.27 1.33h6.14c.85 0 .88 0 .87.89 0 1.76.23 1.48-1.48 1.49-3 0-6 0-9 0-.94 0-.95 0-.95-.91.03-1.64.04-3.32.04-4.99z"/><path d="m70.57 95.53c0-1.71 0-3.43 0-5.15 0-.49.11-.72.68-.72h10.05c.51 0 .61.19.63.64.1 2 .11 2-1.9 2h-5.52c-1 0-.92 0-.91 1 0 1.33-.12 1.21 1.15 1.21h6.26c.51 0 .7.11.71.67 0 1.63.06 1.63-1.59 1.63-1.92 0-3.84 0-5.76 0-.57 0-.8.13-.78.75.06 1.81-.21 1.55 1.56 1.56q3.07 0 6.13 0c.46 0 .62.12.64.61.07 1.76.1 1.75-1.7 1.75-2.94 0-5.88 0-8.82 0-.81 0-.82 0-.83-.78z"/><path d="m85.68 89.67c1.21-.37 2.19.28 3 1.41.38.53.85 1 1.28 1.48.2.22.36.25.58 0 .66-.77 1.36-1.52 2-2.29a1.43 1.43 0 0 1 1.25-.59h2.82c.15 0 .35-.07.43.1s-.09.3-.2.42l-3.49 4a4.2 4.2 0 0 1 -.48.55c-.54.42-.39.74 0 1.18 1.48 1.63 2.92 3.3 4.37 5 .13.15.38.29.29.5s-.35.12-.54.12c-.9 0-1.8 0-2.69 0a1.4 1.4 0 0 1 -1.26-.56c-.79-.94-1.64-1.82-2.42-2.76-.32-.39-.5-.41-.83 0-.79.94-1.63 1.82-2.41 2.77a1.39 1.39 0 0 1 -1.26.57c-.93 0-1.88 0-2.82 0-.15 0-.35 0-.42-.12s.08-.3.19-.42l4.14-4.67c.87-1 .87-1 0-2l-3.56-4.05c-.11-.12-.27-.24-.21-.41s.27-.12.41-.12z"/><path d="m124.88 95.54c0-1.63 0-3.27 0-4.9 0-1 0-.9.89-1a2 2 0 0 1 1.94.92c1.91 2.45 3.88 4.84 5.84 7.26.2.25.41.5.64.74s.28.1.29-.12 0-.57 0-.86q0-3.55 0-7.11c0-.27-.13-.67.2-.76a2.18 2.18 0 0 1 1.45 0c.26.12.16.52.16.8v7.84 2.21s0 .79-.77.86a2.18 2.18 0 0 1 -2.17-1c-1.87-2.42-3.83-4.78-5.75-7.16-.18-.22-.37-.44-.55-.67a.4.4 0 0 0 -.4-.2s0 .23 0 .35v5.89 2.08s-.18.75-.7.68a1.15 1.15 0 0 0 -.37 0c-.64.11-.72-.24-.71-.78 0-1.3 0-2.61 0-3.92z"/><path d="m34.46 89.67h5.52c.54 0 .68.18.69.7 0 1.87.07 1.85-1.84 1.88-.84 0-1.91-.37-2.45.19s-.13 1.56-.14 2.37v6c0 .55-.19.71-.7.67s-1.06 0-1.59 0c-1.36 0-1.2.16-1.2-1.14 0-2.25 0-4.49 0-6.74 0-1.49.19-1.34-1.4-1.35-.9 0-1.8 0-2.69 0-.42 0-.61-.15-.58-.57a2.09 2.09 0 0 0 0-.25c-.05-1.75-.05-1.75 1.72-1.75z"/><path d="m13.89 103.53h-7.89c-1.19 0-1.47-.25-1.47-1.42q0-6.55 0-13.13c0-1.12.33-1.43 1.49-1.43q7.84 0 15.7 0c1.08 0 1.41.32 1.42 1.38q0 6.63 0 13.25c0 1.06-.32 1.35-1.43 1.35zm.11-15.16h-7.58c-1 0-1 0-1 .9q0 6.32 0 12.63c0 .53.06.81.71.8q7.72 0 15.45 0c.61 0 .77-.21.77-.78 0-4.25 0-8.5 0-12.75 0-.77 0-.79-.84-.8-2.51-.01-5 0-7.51 0z"/><path d="m159.59 101.46c-.71.21-1.09-.19-1.34-.91s-.55-1.26-.81-1.9a.83.83 0 0 0 -.9-.63c-1.47 0-2.94 0-4.41 0a.85.85 0 0 0 -.9.61c-.26.61-.52 1.2-.78 1.8-.47 1.07-.47 1.07-1.58 1-.79 0-.81 0-.5-.71 1.56-3.49 3.15-7 4.71-10.46.19-.43.41-.68.9-.62a2.49 2.49 0 0 0 .61 0c.63-.09.94.18 1.19.75 1 2.39 2.13 4.75 3.2 7.12.49 1.08 1 2.15 1.46 3.23.29.66.28.67-.38.69-.13.04-.25.03-.47.03zm-5.37-4.95h1.57s.69-.13.47-.62c-.56-1.27-1.11-2.54-1.66-3.81-.07-.16-.13-.33-.31-.3s-.21.22-.27.36c-.34.79-.71 1.56-1 2.36-.24.64-.71 1.19-.65 1.93a10.76 10.76 0 0 0 1.85.08z"/><path d="m109.76 95.52c0-1.72 0-3.44 0-5.15 0-.53.17-.71.7-.71h7.86c.68 0 .67.33.69.82s-.11.8-.74.78c-2 0-4 0-6 0-.46 0-.66.12-.64.62a20.37 20.37 0 0 1 0 2.21c0 .52.23.59.66.59h5.4c1 0 1 0 1 1 0 .54-.24.6-.67.6h-5.4c-1.1 0-1-.07-1 1v3.68c0 .42-.14.61-.57.56a2.49 2.49 0 0 0 -.61 0c-.55 0-.71-.21-.7-.72 0-1.19 0-2.38 0-3.56z"/><path d="m165.26 99a4.65 4.65 0 0 0 -1.34-4.12c-1.23-1.48-2.32-3.06-3.45-4.61-.34-.46-.3-.52.24-.56a.48.48 0 0 0 .12 0 2.15 2.15 0 0 1 2.42 1.16c.69 1.19 1.59 2.27 2.4 3.39.56.78.55.76 1.06 0q1.39-1.94 2.82-3.85a2.32 2.32 0 0 1 2.37-.72c.26.09.14.26.08.38s-.33.46-.5.69c-1.31 1.72-2.6 3.46-3.94 5.16a2.19 2.19 0 0 0 -.47 1.46v3.31c0 .57-.13.87-.74.78a1 1 0 0 0 -.25 0c-.82 0-.83 0-.84-.78.01-.58.02-1.16.02-1.69z"/><path d="m138.63 95.51c0-1.67 0-3.35 0-5 0-.8 0-.8.81-.81h.61c.31 0 .44.15.44.45v.85 8c0 .92 0 .93.95.94h5.15c1 0 1.15.14 1 1.1 0 .3-.16.45-.45.45h-8.1c-.54 0-.44-.37-.44-.68z"/><path d="m120.66 95.52c0-1.67 0-3.34 0-5 0-.84 0-.84.9-.84s.85 0 .85.88v10.16c0 .25.15.67-.22.72a2.16 2.16 0 0 1 -1.42-.08c-.24-.14-.11-.46-.11-.69 0-1.67 0-3.43 0-5.15z"/><path d="m103.52 95.53v6.87a8 8 0 0 1 0 .85c0 .19-.18.24-.36.24s-.35-.06-.37-.24a4.46 4.46 0 0 1 0-.73v-14a1.92 1.92 0 0 1 0-.24c0-.3-.14-.72.4-.73s.37.45.37.72q-.03 3.65-.04 7.26z"/></g><path d="m13.84 101.46c-2 0-4.08 0-6.13 0-.55 0-.79-.12-.79-.74 0-3.43 0-6.86 0-10.29 0-.16 0-.41.09-.46s.35.13.49.26c.77.77 1.5 1.52 2.27 2.26.55.53.65.53 1.21 0 .82-.79 1.63-1.6 2.42-2.43.35-.38.6-.42 1 0 .75.81 1.55 1.58 2.33 2.35s.72.67 1.38 0 1.51-1.5 2.26-2.25c.11-.12.26-.29.4-.2s.1.29.1.45v4.53 5.76c0 .6-.19.76-.77.76-2.1-.02-4.18 0-6.26 0zm3.55-4.46h2.08c.29 0 .57 0 .71-.34s-.07-.48-.23-.64c-.71-.73-1.43-1.45-2.15-2.16a.53.53 0 0 0 -.85 0q-1 1-2.07 2.07a.7.7 0 0 0 -.27.75c.11.35.43.32.71.32zm-7 0h2.09c.28 0 .6 0 .71-.32a.74.74 0 0 0 -.28-.76c-.64-.64-1.28-1.27-1.91-1.91a.71.71 0 0 0 -1.16 0c-.66.68-1.33 1.33-2 2-.17.17-.37.35-.26.63s.42.36.71.36z" fill="#bf272e"/><path d="m264 228.75c0 .31-.16.44-.47.46l.42.73h-.42l-.38-.73h-.27v.73h-.38v-1.72h.83c.4 0 .67.07.67.53m-.66.21c.19 0 .3 0 .3-.26s-.22-.18-.39-.18h-.37v.48h.46m-.18-1.52a1.66 1.66 0 1 1 -1.65 1.66 1.65 1.65 0 0 1 1.65-1.66m0 2.92a1.26 1.26 0 1 0 -1.26-1.26 1.22 1.22 0 0 0 1.26 1.26m-10.46-18.77c5.52 0 9 6.92 3 11l5.2 7.32h-5.46l-4.08-5.62v5.62h-4.9v-18.32h6.27m0 7.77a1.76 1.76 0 1 0 0-3.52h-1.42v3.52zm-12.5 3.45h4.63v-4.1h-4.64v-2.89h5v-4.22h-10.11v18.31h10.2v-4.3h-5.07v-2.79zm-43.34-11.75a9.54 9.54 0 1 1 -9.44 9.54 9.48 9.48 0 0 1 9.44-9.54m0 14.23a4.72 4.72 0 1 0 -4.25-4.7 4.49 4.49 0 0 0 4.25 4.7m-22.95-13.7v18.31h5v-6.53l5.62 6.54h6.62l-8.26-9.59 7.22-8.71h-6.48l-4.73 5.44v-5.45zm43.27 6.42h-5.05v-6.42h-5v18.31h5v-6.81h5.05v6.81h5v-18.31h-5zm11.25 7.21h5.62v4.68h-10.62v-18.31h5z" fill="#081f2d"/><path d="m173.94 233.9h1.66v7.1h-1.66zm2.67 0h1.91l1.36 4.59v-4.59h1.54v7.1h-1.87l-1.46-4.86v4.86h-1.48zm9.39 3.1h.46c.66 0 .82-.42.82-.89s-.18-1-.85-1h-.43zm-1.66-3.07h2.57a1.93 1.93 0 0 1 2.09 2.07c0 1.26-.61 2.15-2.27 2.15h-.73v2.85h-1.66v-7.1zm10 3.53c0 2-.14 3.67-2.49 3.67-2.18 0-2.48-1.43-2.48-3.67s.3-3.67 2.48-3.67c2.35 0 2.49 1.71 2.49 3.67m-3.25 0c0 1.94.09 2.56.75 2.56s.78-.62.78-2.56-.1-2.56-.78-2.56-.75.62-.75 2.56m3.62-3.53h1.66l.61 5 .73-5h1.55l.79 5 .59-5h1.6l-1.15 7.07h-1.83l-.73-5-.68 5h-1.85l-1.24-7.06zm8.22 0h4.08v1.34h-2.42v1.42h2.27v1.31h-2.27v1.61h2.53v1.39h-4.12v-7.1zm5 0h2.78a1.69 1.69 0 0 1 1.9 1.84c0 1-.41 1.53-1.19 1.72 1.07.16 1.11.81 1.14 1.76 0 1.39.09 1.53.32 1.63v.12h-1.78a3.31 3.31 0 0 1 -.18-1.44c0-1.22-.17-1.48-.69-1.48h-.64v2.92h-1.65v-7.1zm1.65 3h.52a.82.82 0 0 0 .9-.93c0-.53-.2-.89-.86-.89h-.51v1.81zm8.92 1.92v.25c0 .54.14.94.73.94s.75-.43.75-.84c0-1.52-3-.67-3-3.31 0-1.13.61-2.08 2.32-2.08s2.25.85 2.25 1.93v.17h-1.6a1.46 1.46 0 0 0 -.14-.74.53.53 0 0 0 -.5-.25c-.43 0-.67.25-.67.76 0 1.48 3 .72 3 3.22 0 1.61-.89 2.25-2.41 2.25-1.22 0-2.32-.37-2.32-1.84v-.46zm3.93-4.9h1.66v7.05h-1.66v-7.1zm2.68 0h1.89l1.37 4.59v-4.64h1.63v7.1h-1.88l-1.45-4.86v4.86h-1.48v-7.1zm8.75 2.45c0-1-.12-1.48-.67-1.48s-.73.63-.73 2.48c0 2.1.07 2.64.77 2.64s.69-.7.69-1.8h1.6v.25c0 1.52-.43 2.66-2.48 2.66s-2.29-1.59-2.29-3.72c0-1.81.1-3.62 2.45-3.62 1.46 0 2.26.64 2.26 2.3v.29zm2.4-2.45h4.09v1.34h-2.43v1.42h2.28v1.29h-2.28v1.61h2.53v1.39h-4.19v-7.1zm7.4 2.2h-1.35v-1h.21c1.25 0 1.55-.65 1.63-1.1h1.17v7h-1.66v-4.95zm4.7 1.36c.5 0 .6-.49.6-1.12 0-.83-.12-1.33-.61-1.33s-.61.45-.61 1.21.1 1.24.62 1.24m-.54 1.86a1.06 1.06 0 0 0 .1.51.41.41 0 0 0 .4.22c.56 0 .7-.44.7-2a1.24 1.24 0 0 1 -1.24.61c-1.07 0-1.68-.6-1.68-2.17 0-1.39.44-2.55 2.29-2.55 2.07 0 2.31 1.31 2.31 3.41 0 2.33-.16 3.73-2.43 3.73-1.26 0-2-.52-2-1.78zm3.32-3v-.22c0-1.41.75-2.11 2.25-2.11 1.7 0 2.17.86 2.17 2a2.58 2.58 0 0 1 -1.11 2.27 6.48 6.48 0 0 0 -1.36 1.48h2.48v1.21h-4.47a4.11 4.11 0 0 1 1.58-3.15c1.2-1.06 1.22-1.36 1.22-1.88s-.11-.92-.59-.92-.63.75-.63 1.28zm9.66 1.24c0 2-.23 3.57-2.3 3.57s-2.3-1.32-2.3-3.57c0-2 .22-3.57 2.3-3.57s2.3 1.31 2.3 3.57m-2.94 0c0 2 .08 2.51.64 2.51s.64-.53.64-2.51-.08-2.53-.64-2.53-.64.52-.64 2.53m4.05 3.41a.8.8 0 1 0 -.79-.8.8.8 0 0 0 .79.8m-47.76 0a.8.8 0 1 1 .79-.8.8.8 0 0 1 -.79.8" fill="#081f2d"/><path d="m94.43 166.94a.56.56 0 0 1 -.49.45h-3.71a.55.55 0 0 1 -.55-.62l.77-4.22c.07-.34.25-.56.56-.56h7.32l.63-3.43h-9.61a1.65 1.65 0 0 0 -1.62 1.34l-.09.5-1.32 7.14-.22 1.23a1.73 1.73 0 0 0 0 .75 1.79 1.79 0 0 0 1.75 1.3h7.27a1.88 1.88 0 0 0 1.88-1.49l1.08-5.86h-5.58l-.43 2.45h2.55l-.19 1zm-48.09-8.38-2.57 13.94-8.88-12.87-3.22 17.56h3.45l1.6-8.67 6 8.67h3.77l3.43-18.63zm-3.19 11 3.17-17.33h-3.38l-1.61 8.77-6.09-8.81h-3.8l-3.44 18.63h3.57l2.6-14.31 9 13zm-21.15-7.56h6.15l.64-3.43h-9.57l-2.22 12.25h9.5l.63-3.43h-6.13l.28-1.47h6.12l.46-2.45h-6.15zm32.19 0h6l.64-3.43h-9.43l-2.26 12.26h9.48l.62-3.43h-6.11l.28-1.47h6.11l.45-2.45h-6l.25-1.48zm64.81-3.44-1.22 6.5-3.68-6.5h-2.79l-2.31 12.26h3.18l1.23-6.7 3.73 6.7h2.76l2.26-12.26zm-104 4.91h-3c-.48 0-.64-.35-.57-.76a.86.86 0 0 1 .84-.72h5l.64-3.43h-8.03a1.64 1.64 0 0 0 -1.6 1.27v.14l-.73 4a1.61 1.61 0 0 0 .76 1.71 1.71 1.71 0 0 0 .89.23h3a.64.64 0 0 1 .58.76.75.75 0 0 1 -.85.71h-5l-.63 3.43h7.7a1.86 1.86 0 0 0 1.81-1.41 41.46 41.46 0 0 0 .75-4.33 1.62 1.62 0 0 0 -1.62-1.61zm71.23-2.91-1.6 8.86a2.11 2.11 0 0 1 -2 1.4h-7.75a2 2 0 0 1 -1.95-2.5c0-.09 1.52-8.36 1.52-8.36a1.83 1.83 0 0 1 1.8-1.4h8.25a1.57 1.57 0 0 1 1.69 1.64v.36zm-13.23-.09-.51 2.72v.11a1.59 1.59 0 0 1 -1.38 1.27 1.61 1.61 0 0 1 .85 1.47 1.64 1.64 0 0 1 0 .22c0 .09-.58 3.15-.58 3.15-.14.8-.74 1.41-2.21 1.41h-9.17l2.26-12.26h9.14a1.53 1.53 0 0 1 1.6 1.65 2.11 2.11 0 0 1 0 .26zm30.13 1.53h6.1l.64-3.43h-9.5l-2.27 12.25h9.49l.65-3.43h-6.13l.27-1.47h6.12l.45-2.45h-6.09l.27-1.48zm-34.5 0h-3.54l-.26 1.48h3.53a.78.78 0 0 0 .75-.73c.08-.43-.15-.74-.48-.75zm13.3-.49h-4.18c-.28 0-.42.24-.5.5l-.85 4.63a.61.61 0 0 0 .58.76h4.12a.62.62 0 0 0 .55-.5l.86-4.63a.61.61 0 0 0 -.58-.76zm-14.05 4.42h-3.55l-.27 1.47h3.56a.79.79 0 0 0 .75-.73c.06-.39-.12-.75-.49-.74z" fill="#231f20"/><path d="m202.22 154.39 1.5 4.79c0 .08 0 .17-.12.17h-3c-.12 0-.16 0-.16-.17l1.45-4.79a.13.13 0 0 1 .13-.12c.08 0 .12 0 .16.12zm46.6 3.25a22.67 22.67 0 0 0 -.25 3.49 19 19 0 0 0 .25 3.46c.17 1 .83 1.37 1.87 1.37s1.71-.29 1.91-1.33a20.06 20.06 0 0 0 .21-3.5 26.32 26.32 0 0 0 -.21-3.53c-.16-1-.83-1.33-1.87-1.33s-1.74.33-1.91 1.37zm2 9.61c-4 0-6.12-2.25-6.12-6.07s2.16-6 6.12-6 6.11 2.08 6.11 6-2.2 6.07-6.11 6.07zm-6.82-4.12c0 2-1.7 3.5-3.91 3.91a15.83 15.83 0 0 1 -6.45-.29.23.23 0 0 1 -.2-.25v-3.37a.28.28 0 0 1 .29-.29h1.54a.28.28 0 0 1 .29.29v.54c0 1.08.08 2.37 2.08 2.37 1.74 0 2.2-.7 2.33-1.29a1.71 1.71 0 0 0 -1.46-2.12c-1.12-.29-1.66-.33-2.95-.75-2.91-.87-2.79-5.82 1.16-6.49a16 16 0 0 1 6.33.29c.12 0 .2.13.2.25v2.46a.28.28 0 0 1 -.29.29h-1.37a.28.28 0 0 1 -.29-.29v-.21c0-.67-.13-1.79-2.08-1.79s-2 1-2 1.46.12 1.08 1.41 1.37a23.13 23.13 0 0 1 2.83.75 3.35 3.35 0 0 1 2.58 3.16zm-31.86 2.29a.29.29 0 0 1 -.3.29h-1.34a.26.26 0 0 1 -.25-.21l-3.78-11.69a1.68 1.68 0 0 0 -1.58-1.37h-3.62a.88.88 0 0 0 -.83.71l-3.71 12.31a.45.45 0 0 1 -.41.25h-1.92a.29.29 0 0 0 -.29.29v.67a.29.29 0 0 0 .29.29h6.6a.29.29 0 0 0 .29-.29v-.67a.29.29 0 0 0 -.29-.29h-2a.31.31 0 0 1 -.29-.29v-.08l1.17-4a.22.22 0 0 1 .2-.12h3.91c.09 0 .17 0 .17.12l1.25 4v.08a.28.28 0 0 1 -.29.29h-2a.29.29 0 0 0 -.29.29v.67a.29.29 0 0 0 .29.29h14.15a.33.33 0 0 0 .33-.29v-.67a.33.33 0 0 0 -.33-.29h-1.21a.31.31 0 0 1 -.33-.29v-11.42a1.58 1.58 0 0 0 -1.54-1.58h-3.62a.32.32 0 0 0 -.29.33v.63a.28.28 0 0 0 .29.29h1c.12 0 .33 0 .33 1.41l.09 10.32zm46.47 0a.29.29 0 0 1 -.3.29h-1.08a.29.29 0 0 0 -.29.29v.67a.29.29 0 0 0 .29.29h6.28a.29.29 0 0 0 .3-.29v-.67a.29.29 0 0 0 -.3-.29h-.91a.28.28 0 0 1 -.29-.29v-6.78a1.62 1.62 0 0 1 1.62-1.62 1.65 1.65 0 0 1 1.66 1.62v6.78a.28.28 0 0 1 -.29.29h-.75a.29.29 0 0 0 -.29.29v.67a.29.29 0 0 0 .29.29h6.29a.29.29 0 0 0 .29-.29v-.67a.29.29 0 0 0 -.29-.29h-1.25a.28.28 0 0 1 -.29-.29v-7c0-2.17-1.75-3.08-3.66-3.08a4.29 4.29 0 0 0 -3.21 1.12c-.16.09-.21 0-.25-.08a1.58 1.58 0 0 0 -1.45-.92h-3.58a.29.29 0 0 0 -.29.3v.62a.28.28 0 0 0 .29.29h1c.21 0 .42.21.42 8.78zm-31.5-8.78h-1a.28.28 0 0 1 -.29-.29v-.62a.29.29 0 0 1 .29-.3h3.58a1.59 1.59 0 0 1 1.58 1.59v8.4a.28.28 0 0 0 .29.29h1.25a.28.28 0 0 1 .29.29v.67a.28.28 0 0 1 -.29.29h-6.61a.29.29 0 0 1 -.3-.29v-.67a.29.29 0 0 1 .3-.29h1.08a.28.28 0 0 0 .29-.29v-8.2c0-.29-.08-.58-.42-.58zm-7.69-2.95h-1a.29.29 0 0 1 -.3-.29v-.63a.33.33 0 0 1 .3-.33h3.57a1.58 1.58 0 0 1 1.58 1.58v11.4a.29.29 0 0 0 .3.29h1.24a.28.28 0 0 1 .29.29v.67a.28.28 0 0 1 -.29.29h-6.61a.28.28 0 0 1 -.29-.29v-.67a.28.28 0 0 1 .29-.29h1.08a.28.28 0 0 0 .29-.29v-11.32a.45.45 0 0 0 -.41-.41z" fill="#373894" fill-rule="evenodd"/><path d="m213 176.65a.18.18 0 0 1 -.17.17h-.58a.11.11 0 0 0 -.12.12v.38c0 .08 0 .16.12.16h3.37c.08 0 .17 0 .17-.12v-.38c0-.08-.09-.12-.17-.12h-.5a.18.18 0 0 1 -.16-.17v-3.69a.9.9 0 0 1 .87-.87.87.87 0 0 1 .87.87v3.62c0 .08 0 .17-.12.17h-.42c-.08 0-.16 0-.16.12v.38a.17.17 0 0 0 .16.16h3.33c.08 0 .17 0 .17-.12v-.38c0-.08-.09-.12-.17-.12h-.62a.16.16 0 0 1 -.17-.17v-3.74c0-1.17-.92-1.67-2-1.67a2.28 2.28 0 0 0 -1.7.63c-.08 0-.13 0-.13 0a.9.9 0 0 0 -.79-.5h-1.91c-.08 0-.12.08-.12.16v.34c0 .08 0 .16.12.16h.58c.13 0 .21.09.21 4.66zm52 0a.18.18 0 0 1 -.16.17h-.59c-.08 0-.16 0-.16.12v.38a.17.17 0 0 0 .16.16h3.37c.09 0 .13 0 .13-.12v-.38c0-.08 0-.12-.13-.12h-.49a.18.18 0 0 1 -.17-.17v-3.69a.9.9 0 0 1 .87-.87.88.88 0 0 1 .88.87v3.62a.16.16 0 0 1 -.17.17h-.37c-.09 0-.17 0-.17.12v.38a.17.17 0 0 0 .17.16h3.32c.09 0 .17 0 .17-.12v-.38c0-.08-.08-.12-.17-.12h-.66c-.09 0-.13-.09-.13-.17v-3.74c0-1.17-.95-1.67-1.95-1.67a2.23 2.23 0 0 0 -1.71.63c-.08 0-.12 0-.16 0a.82.82 0 0 0 -.75-.5h-1.92a.17.17 0 0 0 -.16.16v.34a.17.17 0 0 0 .16.16h.54c.13 0 .25.09.25 4.66zm-38.4 0a.18.18 0 0 1 -.16.17h-.58c-.09 0-.17 0-.17.12v.38c0 .08.08.12.17.12h3.37c.08 0 .12-.08.12-.16v-.28c0-.12 0-.16-.12-.16h-.5a.18.18 0 0 1 -.17-.17v-3.58a1 1 0 0 1 1-.87 1 1 0 0 1 .91.87v3.58c0 .08 0 .17-.12.17h-.5c-.09 0-.17 0-.17.12v.38c0 .08 0 .12.17.12h3.37a.17.17 0 0 0 .16-.16v-.3a.15.15 0 0 0 -.16-.16h-.58a.16.16 0 0 1 -.17-.17v-3.58a.91.91 0 0 1 .91-.87 1 1 0 0 1 1 .87v3.58a.16.16 0 0 1 -.17.17h-.33c-.12 0-.16 0-.16.12v.38a.11.11 0 0 0 .12.12h3.33a.17.17 0 0 0 .16-.16v-.3a.15.15 0 0 0 -.16-.16h-.67c-.08 0-.12-.09-.12-.17v-3.74a1.92 1.92 0 0 0 -2.08-1.71 2.94 2.94 0 0 0 -2 .88.08.08 0 0 1 -.16 0 2.07 2.07 0 0 0 -1.75-.88 2.46 2.46 0 0 0 -1.71.63c-.08.08-.12.08-.16 0a.82.82 0 0 0 -.75-.5h-1.92a.17.17 0 0 0 -.16.16v.34a.17.17 0 0 0 .16.16h.55c.12 0 .24.09.24 4.66zm-25.54 0a.18.18 0 0 1 -.17.17h-.58c-.08 0-.16 0-.16.12v.38c0 .08.08.12.16.12h3.5c.08 0 .12-.08.12-.16v-.28c0-.12 0-.16-.12-.16h-.63a.18.18 0 0 1 -.16-.17v-3.2a1 1 0 0 1 .66-1.08c.25-.13.75-.25.79.16v.67c0 .08.09.12.17.12h.87c.09 0 .17 0 .17-.12v-1.54a.37.37 0 0 0 -.12-.21 2 2 0 0 0 -1.17-.17 2.28 2.28 0 0 0 -1.33.67s-.08 0-.08 0a.82.82 0 0 0 -.84-.58h-1.33v-1.5a.18.18 0 0 0 -.16-.17h-6.41a.16.16 0 0 0 -.17.17v2c0 .08 0 .16.13.16h.91a.15.15 0 0 0 .17-.16v-1.34a.23.23 0 0 1 .25-.2h.54a.2.2 0 0 1 .21.2v6.16a.19.19 0 0 1 -.17.17h-.54c-.08 0-.17 0-.17.12v.38c0 .08.05.12.17.12h3.83c.08 0 .16 0 .16-.12v-.38c0-.08-.08-.12-.16-.12h-.67a.18.18 0 0 1 -.16-.17v-6.16a.23.23 0 0 1 .25-.2h.54a.19.19 0 0 1 .2.2v1.34a.18.18 0 0 0 .17.16h1.08c.13 0 .21.09.21 4.66zm8.07-.41v-2c0-.25-.16-.38-.46-.33a1.17 1.17 0 0 0 -.66.29 2 2 0 0 0 -.5 1.66.89.89 0 0 0 1 .83c.5 0 .62-.25.62-.45zm-.87-2.87c.79-.25.79-.59.79-.8s-.17-.66-1-.66-.92.58-.92 1.16v.13a.18.18 0 0 1 -.16.17h-.83a.18.18 0 0 1 -.17-.17v-1.54s0-.13.12-.13a8.51 8.51 0 0 1 3.17-.2c.83.16 1.83.45 1.83 1.58v3.74c0 .08 0 .17.12.17h.63a.15.15 0 0 1 .16.16v.34a.17.17 0 0 1 -.16.16h-4.04c-2.87 0-2.79-2.66-1.08-3.53a10.29 10.29 0 0 1 1.58-.58zm17.22 2a2.22 2.22 0 0 1 -2.08 2.08 8.7 8.7 0 0 1 -3.41-.12c-.08 0-.13-.08-.13-.17v-1.76c0-.08.09-.12.17-.12h.83c.09 0 .13 0 .13.12v.29c0 .59.08 1.25 1.12 1.25s1.17-.37 1.25-.66a.93.93 0 0 0 -.79-1.13c-.58-.16-.87-.2-1.58-.41-1.54-.46-1.46-3.08.62-3.46a8.77 8.77 0 0 1 3.37.17s.13.08.13.13v1.33a.18.18 0 0 1 -.17.16h-.75c-.08 0-.12-.08-.12-.16v-.13c0-.33-.09-.95-1.13-.95s-1.08.58-1.08.79.09.58.75.7a7.4 7.4 0 0 1 1.5.42 1.76 1.76 0 0 1 1.37 1.66zm21.59 0a2.22 2.22 0 0 1 -2.08 2.08 8.68 8.68 0 0 1 -3.41-.12.17.17 0 0 1 -.12-.17v-1.76c0-.08.08-.12.16-.12h.79c.13 0 .17 0 .17.12v.29c0 .59 0 1.25 1.12 1.25.92 0 1.17-.37 1.25-.66a.93.93 0 0 0 -.79-1.13c-.58-.16-.87-.2-1.58-.41-1.54-.46-1.5-3.08.62-3.46a8.8 8.8 0 0 1 3.37.17s.09.08.09.13v1.33c0 .08 0 .16-.13.16h-.75a.17.17 0 0 1 -.16-.16v-.13c0-.33 0-.95-1.08-.95s-1.09.58-1.09.79.09.58.75.7a8.21 8.21 0 0 1 1.5.42 1.75 1.75 0 0 1 1.37 1.66zm12.73-2.87a17.1 17.1 0 0 0 -.12 1.83 11.9 11.9 0 0 0 .12 1.88c.09.54.46.7 1 .7s.92-.16 1-.7a7.84 7.84 0 0 0 .13-1.88c0-.66-.05-1.37-.09-1.87s-.46-.71-1-.71a.87.87 0 0 0 -1 .75zm.88 5.08a2.93 2.93 0 0 1 -3.25-3.2c0-2.13 1.17-3.21 3.25-3.21s3.28 1.08 3.28 3.21-1.16 3.2-3.28 3.2zm-7.53-2.21a2.22 2.22 0 0 1 -2 2.08 8.9 8.9 0 0 1 -3.45-.12.19.19 0 0 1 -.09-.17v-1.76c0-.08 0-.12.13-.12h.83c.08 0 .17 0 .17.12v.29c0 .59 0 1.25 1.08 1.25s1.16-.37 1.25-.66a.9.9 0 0 0 -.8-1.13c-.58-.16-.87-.2-1.58-.41-1.49-.46-1.45-3.08.67-3.46a8.6 8.6 0 0 1 3.33.17.13.13 0 0 1 .12.13v1.33a.17.17 0 0 1 -.16.16h-.71a.18.18 0 0 1 -.17-.16v-.13c0-.33 0-.95-1.12-.95s-1 .58-1 .79 0 .58.71.7a8.9 8.9 0 0 1 1.54.42 1.77 1.77 0 0 1 1.33 1.66zm1.29-3.2a.21.21 0 0 0 -.21-.21h-.58c-.09 0-.13-.08-.13-.16v-.34c0-.08 0-.16.13-.16h1.91a.83.83 0 0 1 .83.83v4.49a.19.19 0 0 0 .17.17h.66c.09 0 .17 0 .17.12v.38c0 .08-.08.12-.17.12h-3.49a.15.15 0 0 1 -.17-.16v-.38c0-.08 0-.12.17-.12h.54a.19.19 0 0 0 .17-.17v-4.38zm-16.19 0a.23.23 0 0 0 -.25-.17h-.54a.17.17 0 0 1 -.16-.16v-.34a.17.17 0 0 1 .16-.16h1.92a.83.83 0 0 1 .83.83v4.49a.18.18 0 0 0 .17.17h.66c.08 0 .13 0 .13.12v.38c0 .08-.05.12-.13.12h-3.54a.17.17 0 0 1 -.16-.16v-.38c0-.08.08-.12.16-.12h.59a.18.18 0 0 0 .16-.17v-4.42z" fill="#373894" fill-rule="evenodd"/><path d="m180.17 163.92c-3.07-3.87-8.61-3.37-10.15 1.33 0 .09-.08.13-.16.13a.2.2 0 0 1 -.21-.21c-.08-9.11 10.69-10.07 13.94-4.24a3.36 3.36 0 0 1 .33 1.24 2.31 2.31 0 0 1 -2.29 2.29 2 2 0 0 1 -1.46-.54z" fill="#ec1a3b" fill-rule="evenodd"/><path d="m174 165.46c3.08 3.87 8.61 3.37 10.15-1.33a.15.15 0 0 1 .16-.13.2.2 0 0 1 .21.21c.09 9.11-10.69 10.07-13.93 4.25a3.06 3.06 0 0 1 -.34-1.25 2.28 2.28 0 0 1 2.29-2.29 2 2 0 0 1 1.46.54z" fill="#373894" fill-rule="evenodd"/><path d="m164.32 169.08a13.31 13.31 0 0 1 -.7-4.37 13.49 13.49 0 0 1 25.21-6.7 3 3 0 0 1 .29 1.17 2.5 2.5 0 0 1 -2.5 2.49 2.07 2.07 0 0 1 -1.74-.74c-7.88-10.45-21.88-2.93-20.1 8.07a.23.23 0 0 1 -.21.25c-.12 0-.2-.05-.25-.17z" fill="#373894" fill-rule="evenodd"/><path d="m189.87 160.3a13.51 13.51 0 0 1 -24.51 11.07 2.77 2.77 0 0 1 -.29-1.17 2.51 2.51 0 0 1 2.5-2.49 2.16 2.16 0 0 1 1.75.75c7.9 10.44 21.84 2.95 20.09-8.07a.23.23 0 0 1 .21-.25c.12 0 .21 0 .25.16z" fill="#ec1a3b" fill-rule="evenodd"/><path d="m188.4 175.17a1.18 1.18 0 0 1 1 .58 1.22 1.22 0 0 1 .15.58 1.16 1.16 0 0 1 -.15.57 1 1 0 0 1 -.43.43 1.16 1.16 0 0 1 -.57.15 1.19 1.19 0 0 1 -.58-.15 1.11 1.11 0 0 1 -.43-.43 1.16 1.16 0 0 1 -.15-.57 1.13 1.13 0 0 1 .16-.58 1 1 0 0 1 .43-.43 1.16 1.16 0 0 1 .57-.15zm0 .2a1 1 0 0 0 -.48.12.89.89 0 0 0 -.36.36 1 1 0 0 0 0 1 .89.89 0 0 0 .36.36 1 1 0 0 0 .48.12 1.07 1.07 0 0 0 .48-.12.93.93 0 0 0 .35-.36 1 1 0 0 0 0-1 .89.89 0 0 0 -.36-.36 1 1 0 0 0 -.47-.12zm-.51 1.6v-1.24h.43a1.14 1.14 0 0 1 .31 0 .28.28 0 0 1 .16.12.32.32 0 0 1 0 .42.37.37 0 0 1 -.26.11.3.3 0 0 1 .11.07 1.47 1.47 0 0 1 .18.24l.15.25h-.24l-.11-.2a1.26 1.26 0 0 0 -.21-.29.25.25 0 0 0 -.16 0h-.12v.55zm.2-.7h.24a.43.43 0 0 0 .24-.05.19.19 0 0 0 .07-.14.17.17 0 0 0 0-.1.18.18 0 0 0 -.09-.06.5.5 0 0 0 -.2 0h-.23v.37z" fill="#373894" fill-rule="evenodd"/><path d="m273.9 175.17a1.21 1.21 0 0 1 .57.15 1.11 1.11 0 0 1 .43.43 1.22 1.22 0 0 1 .15.58 1.16 1.16 0 0 1 -.15.57 1 1 0 0 1 -.43.43 1.16 1.16 0 0 1 -.57.15 1.22 1.22 0 0 1 -.58-.15 1 1 0 0 1 -.42-.43 1.07 1.07 0 0 1 -.16-.57 1.13 1.13 0 0 1 .16-.58 1.11 1.11 0 0 1 .43-.43 1.21 1.21 0 0 1 .57-.15zm0 .2a1.07 1.07 0 0 0 -.48.12.89.89 0 0 0 -.36.36 1 1 0 0 0 0 1 1 1 0 0 0 .36.36 1 1 0 0 0 1 0 1 1 0 0 0 .36-.36 1 1 0 0 0 .12-.48.91.91 0 0 0 -.13-.48.78.78 0 0 0 -.36-.36 1 1 0 0 0 -.47-.12zm-.51 1.6v-1.24h.43a1.22 1.22 0 0 1 .32 0 .29.29 0 0 1 .15.12.32.32 0 0 1 0 .42.36.36 0 0 1 -.25.11l.1.07a1.47 1.47 0 0 1 .18.24l.16.25h-.25l-.11-.2a1.26 1.26 0 0 0 -.21-.29.25.25 0 0 0 -.16 0h-.12v.55zm.2-.7h.25a.41.41 0 0 0 .23-.05.16.16 0 0 0 .07-.14.17.17 0 0 0 0-.1.15.15 0 0 0 -.09-.06.48.48 0 0 0 -.2 0h-.23v.37z" fill="#373894" fill-rule="evenodd"/><path d="m227.63 114.85-.85-6.72c-.05-.37-.1-.63-.79-.63h-3.58c-.45 0-.67 0-.83.31l-3.92 7.19c-.16.28 0 .53.25.53h2.31a.65.65 0 0 0 .63-.34c.22-.41.43-.83.61-1.2a.1.1 0 0 1 .08 0h3s.08 0 .08.07l.11 1a.46.46 0 0 0 .54.48h1.9c.38-.06.52-.26.46-.69zm-3.33-2.73h-1.83s-.06 0-.05-.06l1.54-3s.08-.06.09 0l.33 3c.01.04-.02.06-.08.06z" fill="#d70a35"/><path d="m260.32 114.85-.85-6.72c-.05-.37-.1-.63-.79-.63h-3.58c-.45 0-.67 0-.83.31l-3.91 7.13c-.17.29 0 .54.25.54h2.3a.64.64 0 0 0 .63-.34c.22-.41.44-.83.61-1.2a.09.09 0 0 1 .09 0h3s.08 0 .08.07l.11 1a.47.47 0 0 0 .54.48h1.91c.36-.01.51-.21.44-.64zm-3.32-2.73h-1.83s-.06 0 0-.06l1.54-3s.08-.07.09 0l.33 3c-.05.04-.08.06-.13.06z" fill="#d70a35"/><path d="m246.83 114.94.61-3.36c0-.18 0-.19-.11-.09l-2.79 3.65a.8.8 0 0 1 -.54.34h-.68a.43.43 0 0 1 -.39-.28l-1.35-3.7c-.06-.15-.11-.1-.13 0l-.65 3.56a.43.43 0 0 1 -.42.39h-2c-.3 0-.43-.15-.37-.46l1.37-7a.59.59 0 0 1 .66-.57h2.22c.41 0 .7.09.81.38l1.18 3.2c.06.15.08.15.17 0l2.53-3.22a.83.83 0 0 1 .77-.38h2.8c.49 0 .56.26.49.6l-1.35 7a.45.45 0 0 1 -.46.37h-1.93c-.45.13-.49-.15-.44-.43z" fill="#d70a35"/><path d="m234.37 111 .54-3c.08-.45.31-.53.66-.53h1.75c.33 0 .56.11.47.57l-1.35 6.81c-.08.44-.31.57-.59.57h-1.4a.6.6 0 0 1 -.57-.28l-1.88-3.14c0-.08-.08 0-.09 0l-.52 2.87c-.07.37-.17.65-.57.65h-2c-.33 0-.45-.18-.38-.51l1.3-6.92c.09-.46.34-.54.57-.54h1.45c.36 0 .54.14.77.53l1.75 3s.07.01.09-.08z" fill="#d70a35"/><path d="m268.74 107.49h-5.58c-.63 0-.78.12-.85.52l-1.31 6.99c-.07.31 0 .45.37.48h2.07a.48.48 0 0 0 .53-.4c.17-.77.4-2 .45-2.25s0-.14.25-.14h1.55c.26 0 .36.13.31.48l-.31 1.88a.33.33 0 0 0 .36.43h2c.39 0 .55-.09.64-.6l.31-1.75a1.24 1.24 0 0 0 -.76-1.6c-.05 0 0 0 0-.06a1.56 1.56 0 0 0 1.17-1.14 11.08 11.08 0 0 0 .27-1.37c.14-1.02-.48-1.47-1.47-1.47zm-1.56 2.08a7.9 7.9 0 0 1 -.19 1c-.08.37-.23.46-.75.46h-1.42c-.1 0-.12 0-.1-.1l.33-1.7s0 0 .06 0h1.74c.28-.03.35.09.33.34z" fill="#d70a35"/><path d="m214.77 110.21 2-2.51a.44.44 0 0 1 .4-.21h2.83c.39 0 .32.25.23.37l-4.09 4.9a.51.51 0 0 0 -.06.21l-.49 2.22c0 .24-.25.34-.52.34h-2.07c-.43 0-.46-.24-.4-.53l.39-2a.25.25 0 0 0 0-.17l-2.64-5.06c-.08-.18 0-.32.27-.32h2.33a.49.49 0 0 1 .48.24l1.21 2.48c.01.15.07.11.13.04z" fill="#d70a35"/><path d="m241.89 101.49 28.32-11.73v-7.13l-28.32 11.73z" fill="#d70a35"/><path d="m240.25 83.94-29.97-12.41v7.13l29.97 12.41 29.96-12.41v-7.13z" fill="#d70a35"/><path d="m210.28 89.76 28.32 11.73v-7.13l-28.32-11.73z" fill="#d70a35"/><g clip-path="url(#Q)"><path d="m108.08 37.13 1.13 8.75h11.79l.64.45a4.24 4.24 0 0 0 4.43.09l.78-.54h11.75l1.11-8.75 6.88-5.06a17.44 17.44 0 0 0 .51-4.49 23.16 23.16 0 0 0 -23.17-23.58c-13.14 0-23.18 10.56-23.18 23.59a18.32 18.32 0 0 0 .55 4.54z" fill="#fff"/><path d="m102 31.66a16.08 16.08 0 0 1 -.45-4.37 22.39 22.39 0 1 1 44.78-.81q0 .4 0 .81a16.09 16.09 0 0 1 -.46 4.37l-6.9 5-1 8.4h-11.42l-.73.54a3.27 3.27 0 0 1 -3.92-.15l-.59-.39h-11.41l-1.08-8.4-6.83-5" fill="#ffd300"/><path d="m102 31.66a16.08 16.08 0 0 1 -.45-4.37 22.39 22.39 0 1 1 44.78-.81q0 .4 0 .81a16.09 16.09 0 0 1 -.46 4.37l-6.9 5-1 8.4h-11.42l-.73.54a3.38 3.38 0 0 1 -1.9.58 3.41 3.41 0 0 1 -2-.73l-.59-.39h-11.44l-1.07-8.4-6.83-5m19.7 9.49 1 .73a2.27 2.27 0 0 0 1.27.49 2.3 2.3 0 0 0 1.28-.49l1-.73h8.35l.87-6.9 6.54-4.84a7.26 7.26 0 0 0 .3-2.32 9.63 9.63 0 0 0 -.78-3.71v-.05l-12 12.12 11.56-14.25a9.31 9.31 0 0 0 -2.79-4.92l-.06-.06-10.39 18 9.16-19.66v-.07a9.22 9.22 0 0 0 -4.67-3.38l-6.38 22.42 4.6-23.35a9.52 9.52 0 0 0 -4.76-1.18 6 6 0 0 0 -1 .06l-.85 24.29-1.17-24.29c-.32 0-.65-.05-1-.05a9.25 9.25 0 0 0 -4.59 1.22h-.1l4.92 23.35-6.39-22.44a9.19 9.19 0 0 0 -4.75 3.42l9.24 19.69-10.37-18.25a9.45 9.45 0 0 0 -3.06 5l11.62 14.43-12-12.18v.05a9.29 9.29 0 0 0 -.81 3.82 8.92 8.92 0 0 0 .31 2.35l6.76 4.95.84 6.71z" fill="#e42313"/><path d="m180.58 15.45a.06.06 0 0 1 -.08-.08v-.08a.12.12 0 0 1 .16 0 .11.11 0 0 1 0 .08.06.06 0 1 1 -.08.08" fill-rule="evenodd"/><g fill="#005092"><path d="m175.05 18a3.12 3.12 0 0 0 -2-.73c-.54 0-1.26.33-1.26.95s.79.91 1.3 1.08l.73.23c1.57.47 2.79 1.26 2.79 3.08a3.86 3.86 0 0 1 -1.17 3.05 5 5 0 0 1 -3.21 1.07 6.94 6.94 0 0 1 -4-1.29l1.33-2.44a4 4 0 0 0 2.61 1.16c.73 0 1.46-.34 1.46-1.13s-1.16-1.11-1.79-1.3c-1.84-.52-3.06-1-3.06-3.19a3.65 3.65 0 0 1 3.49-3.8 2.81 2.81 0 0 1 .41 0 7.69 7.69 0 0 1 3.54.93z"/><path d="m180.41 13.91v5.75a2.84 2.84 0 0 1 2.46-1.22c1.95 0 2.91 1.29 2.91 3.24v4.71h-2.72v-4c0-.9-.14-1.83-1.24-1.83s-1.46.93-1.46 1.83v3.95h-2.72v-12.43z"/><path d="m195.09 23h-5.75a1.53 1.53 0 0 0 1.32 1.7 1.28 1.28 0 0 0 .39 0 1.37 1.37 0 0 0 1.31-.73h2.64a3.77 3.77 0 0 1 -3.92 2.64c-2.55 0-4.45-1.45-4.45-4.1s1.75-4.1 4.26-4.1a3.91 3.91 0 0 1 4.21 4.27zm-2.54-1.58a1.63 1.63 0 0 0 -3.16 0z"/><path d="m195.96 13.91h2.73v12.45h-2.73z"/><path d="m200.11 13.91h2.73v12.45h-2.73z"/><path d="m212.04 23.87h3.52v2.5h-6.46v-11.32h2.94z"/><path d="m218.77 18.67v4.11c0 1 .25 1.66 1.38 1.66s1.36-.68 1.36-1.66v-4.11h2.73v4.64c0 2.54-1.79 3.32-4.09 3.32s-4.1-.78-4.1-3.32v-4.64z"/><path d="m225.52 13.91h2.72v5.51a3.14 3.14 0 0 1 2.39-1 4.11 4.11 0 0 1 0 8.2 2.73 2.73 0 0 1 -2.36-1.12v.86h-2.72zm2.64 8.61a1.76 1.76 0 1 0 1.64-1.64 1.75 1.75 0 0 0 -1.64 1.64"/><path d="m238.19 19.93a2.67 2.67 0 0 1 2.49-1.37h.53v2.63a2.24 2.24 0 0 0 -1.16-.26c-1.51 0-1.89 1-1.89 2.33v3.11h-2.73v-7.7h2.73z"/><path d="m244.78 15.72a1.54 1.54 0 1 1 -1.54-1.54 1.54 1.54 0 0 1 1.54 1.54zm-.17 10.65h-2.74v-7.7h2.74z"/><path d="m251.59 21.17a2.51 2.51 0 0 0 -1.42-.54 1.86 1.86 0 0 0 -1.87 1.82v.06a1.82 1.82 0 0 0 1.75 1.89h.17a2.11 2.11 0 0 0 1.37-.53v2.32a4.29 4.29 0 0 1 -1.93.43 4 4 0 0 1 -4.17-3.93.37.37 0 0 1 0-.11 4.14 4.14 0 0 1 4.06-4.19h.25a3.76 3.76 0 0 1 1.8.46z"/><path d="m261.25 26.37h-2.73v-.87a2.73 2.73 0 0 1 -2.33 1.12 4 4 0 0 1 -3.89-4 .28.28 0 0 1 0-.09 3.91 3.91 0 0 1 3.7-4.12h.12a3.12 3.12 0 0 1 2.39 1v-.73h2.73zm-6.15-3.85a1.76 1.76 0 1 0 1.64-1.64 1.76 1.76 0 0 0 -1.64 1.64"/><path d="m265.34 19.66a2.71 2.71 0 0 1 2.47-1.24c2.07 0 2.92 1.31 2.92 3.2v4.76h-2.73v-3.8c0-.73.12-2-1.23-2-1.1 0-1.45.83-1.45 1.79v4h-2.73v-7.7h2.73z"/><path d="m275.14 26.37h-2.73v-5.45h-.88v-2.25h.88v-2.31h2.73v2.31h1.55v2.25h-1.55z"/><path d="m282.27 20.65a3.36 3.36 0 0 0 -1.46-.37c-.32 0-.86.13-.86.52s.86.6 1.23.67c1.28.26 2.23.86 2.23 2.29 0 2-1.84 2.86-3.64 2.86a5.92 5.92 0 0 1 -3.06-.89l1-1.9a4.43 4.43 0 0 0 2.19.78c.34 0 .85-.17.85-.58 0-.6-.85-.64-1.7-.86a1.92 1.92 0 0 1 -1.78-2.05c0-1.89 1.71-2.73 3.39-2.73a6.11 6.11 0 0 1 2.53.5z"/><path d="m168.6 29.82h4.16a5.66 5.66 0 0 1 .41 11.31h-4.57zm2.91 8.82h.66a3 3 0 0 0 3.25-3.17 3 3 0 0 0 -2.77-3.16 3.38 3.38 0 0 0 -.45 0h-.69z"/><path d="m182.33 30.48a1.53 1.53 0 1 1 -1.53-1.48 1.53 1.53 0 0 1 1.52 1.53m-.16 10.65h-2.73v-7.74h2.73z"/><path d="m188.68 35.41a3.36 3.36 0 0 0 -1.46-.37c-.31 0-.86.13-.86.53s.86.6 1.23.67c1.28.25 2.24.85 2.24 2.28 0 2-1.85 2.87-3.65 2.87a6.1 6.1 0 0 1 -3.11-.89l1-1.87a4.27 4.27 0 0 0 2.18.73c.35 0 .86-.17.86-.58 0-.6-.86-.64-1.71-.86a1.92 1.92 0 0 1 -1.71-2c0-1.89 1.71-2.73 3.39-2.73a6.15 6.15 0 0 1 2.54.49z"/><path d="m193.9 41.13h-2.72v-5.44h-.89v-2.25h.89v-2.31h2.72v2.31h1.55v2.25h-1.55z"/><path d="m198.75 34.69a2.68 2.68 0 0 1 2.49-1.36h.52v2.67a2.28 2.28 0 0 0 -1.15-.25c-1.52 0-1.89 1-1.89 2.33v3.1h-2.72v-7.74h2.73z"/><path d="m205.34 30.48a1.54 1.54 0 1 1 -1.54-1.48 1.53 1.53 0 0 1 1.54 1.53m-.17 10.65h-2.73v-7.74h2.73z"/><path d="m206.5 28.68h2.73v5.51a3.19 3.19 0 0 1 2.39-1 4.11 4.11 0 0 1 0 8.21 2.71 2.71 0 0 1 -2.32-1.12v.86h-2.73zm2.64 8.61a1.76 1.76 0 1 0 1.65-1.64 1.76 1.76 0 0 0 -1.65 1.64"/><path d="m219.14 33.44v4.1c0 1 .24 1.67 1.36 1.67s1.37-.69 1.37-1.67v-4.1h2.73v4.63c0 2.54-1.79 3.32-4.1 3.32s-4.1-.78-4.1-3.32v-4.63z"/><path d="m228.95 41.13h-2.73v-5.44h-.89v-2.25h.89v-2.31h2.73v2.31h1.54v2.25h-1.54z"/><path d="m239.76 37.29c0 2.61-2.18 4.1-4.63 4.1s-4.64-1.46-4.64-4.1 2.19-4.11 4.64-4.11 4.63 1.46 4.63 4.11m-6.39 0a1.76 1.76 0 1 0 1.63-1.64 1.76 1.76 0 0 0 -1.64 1.64"/><path d="m243.35 34.69a2.68 2.68 0 0 1 2.49-1.36h.53v2.67a2.34 2.34 0 0 0 -1.16-.25c-1.51 0-1.89 1-1.89 2.33v3.1h-2.73v-7.74h2.73z"/></g></g></svg>