<svg height="120" viewBox="0 0 504 120" width="504" xmlns="http://www.w3.org/2000/svg"><path d="m96.85 66.69-8.04 39.31h307.43l8.04-39.31z"/><path d="m357.42 94.91.88-4.16h-4.13l-.88 4.16zm-13.63 0 .95-4.5 1.34-1.85 1 6.35h4.54l-2-10.2 5.61-8.06h-4.39l-4.66 7.35h-.05l1.54-7.31h-4.3l-3.88 18.26zm-3.5-11.91.32-1.53c.8-3.73-1.08-5.28-4.74-5.28-3.93 0-6.15 1.85-7 5.81l-1.59 7.5c-.8 3.72.29 5.82 4.25 5.82 4.39 0 6.66-2.19 7.34-5.33l.47-2.24h-4.34l-.34 1.65c-.24 1.12-.68 2.63-2.15 2.63-1.12 0-1.41-.61-1.19-1.63l1.95-9c.24-1.19.73-1.92 2.07-1.9.81 0 1.2.81.86 2.36l-.2 1.14zm-18.52 5.11h-2.49l3-8.18h.05zm-4.91 6.77 1.27-3.55h3.37l-.15 3.55h4.34l-.09-18.26h-5.18l-7.88 18.26zm-10.12 0c3.49 0 5.93-1.58 6.71-5.28.49-2.27.27-3.24-1.44-4.36a5.34 5.34 0 0 0 2.88-3.84c.78-3.68-1.54-4.73-4.79-4.73h-5.56l-3.88 18.26zm1.44-15c1.51 0 2.76-.07 2.39 1.73-.46 2.16-1.32 2-3.22 2.16zm-1.54 7.18c1.81.07 3.05 0 2.59 2.14-.51 2.46-1.39 2.32-3.54 2.36zm-18.74.58h1.41c1 .08 1.18.81 1.05 1.93s-.53 2.63-.8 4.23a3.67 3.67 0 0 0 0 1h4.69l.05-.24a1.33 1.33 0 0 1 -.27-.64c0-1.16.63-4.3.83-5.77a2 2 0 0 0 -1.61-2.36 5.12 5.12 0 0 0 3.15-4.17c.78-3.62-.69-5-4.2-5h-6.2l-3.88 18.26h4.29zm1.66-7.76c2.1 0 3 0 2.51 2.22-.22 1.11-.75 2.26-2 2.26h-1.46zm-19.8 9.93c-.8 3.75 1 5.48 4.59 5.48 4.39 0 6.3-2.39 7-5.48l2.8-13.22h-4.29l-2.91 13.66a2 2 0 0 1 -1.83 1.75c-1.22 0-1.34-.75-1.14-1.63l2.93-13.78h-4.3zm.06-8.2c.73-3.51-.88-5.45-4.64-5.45s-6.27 1.94-7 5.45l-1.59 7.42c-.88 4.12.17 6.26 4.51 6.26s6.25-2.14 7.13-6.26zm-6 7.79c-.24 1-.66 2.6-2.05 2.6s-1.24-1.56-1-2.6l1.63-7.4c.24-1.12.71-2.46 2.07-2.46s1.22 1.34 1 2.46zm-13.01-12.75h-4.34l2.07 10.59-1.63 7.67h4.29l1.64-7.67 6.66-10.59h-4.3l-3.46 6h-.05zm-22 3.66h3.37l-3.18 14.6h4.29l3.13-14.6h3.46l.76-3.66h-11.11zm-.35 1.36c.73-3.51-.88-5.45-4.64-5.45s-6.27 1.94-7 5.45l-1.59 7.42c-.88 4.12.17 6.26 4.52 6.26s6.24-2.14 7.12-6.26zm-6 7.79c-.24 1-.66 2.6-2.05 2.6s-1.24-1.56-1-2.6l1.59-7.46c.24-1.12.71-2.46 2.07-2.46s1.22 1.34 1 2.46zm-10.2 5.47 2.12-9.93h-5.83l-.71 3.29h1.54l-.32 1.44c-.24 1.16-.54 2.33-2 2.33-1.12 0-1.46-.61-1.25-1.63l1.93-9c.25-1.19.73-1.92 2.08-1.9 1.12 0 1.17.81.83 2.36l-.22 1h4.29l.3-1.36c.8-3.73-1.05-5.28-4.71-5.28-3.93 0-6.15 1.85-7 5.81l-1.59 7.5c-.7 3.31-.07 5.82 3.57 5.82a4.57 4.57 0 0 0 4.15-2l-.15 1.63zm-18.45 0 .78-3.65h-5.83l.83-3.94h5.41l.79-3.66h-5.37l.73-3.35h5.54l.75-3.66h-9.83l-3.88 18.26zm-14.64 0 7.88-18.26h-4.29l-4.91 12.81.51-12.81h-4.36l.1 18.26zm-11.69-10.66c2.42-.17 4.12-1.24 4.64-3.7l.83-3.92h-3.86l-.83 3.9h2.05a2.58 2.58 0 0 1 -2.54 2.34zm-3.57 10.64.78-3.65h-5.83l.83-3.94h5.37l.78-3.66h-5.37l.73-3.35h5.54l.76-3.66h-9.83l-3.88 18.26zm-14.14-18.26h-4.15l-4.44 12.78h-.07l1.44-12.83h-4.15l-.8 18.26h4.75l4.15-12.85h.05l-1.41 12.85h4.86l6.93-18.26h-4.08l-4 12.81h-.05z" fill="#fff"/><path d="m100.68 14.67-2.03 9.46h7.68l-6.58 30.75 11.3.01 6.57-30.75 7.68.01 2.03-9.46z"/><path d="m137 31.65h1.64c1.86 0 4-.84 4.85-4.72.71-3.33-.76-4.11-3.3-4.12h-1.3zm-7.67-17h16.94c7.79 0 10.31 3.84 8.87 10.54-1.37 6.41-4.71 9.12-8.79 9.68v.11a5 5 0 0 1 4.65 3.27c.63 1.8.11 4.51-.39 6.87l-.72 3.33a15.25 15.25 0 0 0 -.5 4.73 1.78 1.78 0 0 0 .94 1.18l-.13.56h-12c-.55-.9 0-3.83.39-5.8s.68-4 1.1-6c.74-3.43-.26-4-2.23-4.06h-2.09l-3.37 15.84h-11.3z"/><path d="m168.66 14.73-18.15 40.19h11.63l2.45-6.14h7.56l-.07 6.14h11.63l-.88-40.21zm5.12 8.79h.12l-1.11 16.48h-5.14z"/><path d="m212.42 14.77-5.26 24.54h-.11l-.5-24.55-12.26-.01-8.6 40.2 10.27.02 5.3-24.78h.12l.96 24.78 12.09.01 8.6-40.21z"/><path d="m241 24.7c.37-1.69 0-3.26-1.95-3.27a3.53 3.53 0 0 0 -3.25 3c-1.71 8 16 3.9 12.93 18.26-2 9.34-7.15 13.06-17.6 13.05-8.63 0-12.75-2.94-10.86-11.78l.23-1.07h11l-.5 1.91c-.42 2 .09 3.54 2.07 3.55s3.15-1.8 3.53-3.55c.55-2.59-.29-3.15-1.58-4s-3.2-1.63-5-2.65c-5.45-3-7-5.24-5.74-11.21 1.2-5.57 3.54-8.61 6.54-10.47a18.23 18.23 0 0 1 9.72-2.47c11.4 0 12.11 5.65 10.68 12.34h-10.62z"/><path d="m262.35 46.91h2.31c2.83 0 3.94-3.09 4.59-6.13l2.51-11.72c.87-4 .86-6.13-2.64-6.14h-1.63zm-4.43-32.1h16.26c5 0 7.88 2 9 5.24s1 5.3-1 14.87c-1.92 8.8-4.68 20.08-16.42 20.08h-16.44z"/><path d="m289.77 14.83-8.61 40.21 11.3.01 8.6-40.21z"/><path d="m304.9 14.85-8.6 40.2 24.79.02 1.95-9.12-13.49-.01 1.49-6.99 12.14.01 1.88-8.78-12.14-.01 1.32-6.19 12.99.01 1.96-9.12z"/><path d="m346.48 24.79c.37-1.68 0-3.27-2-3.26a3.51 3.51 0 0 0 -3.25 3c-1.71 8 16 3.91 12.92 18.26-2 9.35-7.14 13.06-17.58 13-8.65 0-12.76-2.94-10.87-11.78l.3-1.01h10.95l-.4 1.86c-.42 2 .09 3.55 2.07 3.55s3.15-1.8 3.52-3.54c.56-2.59-.28-3.16-1.57-4s-3.21-1.64-5-2.66c-5.45-3-7-5.24-5.73-11.21 1.19-5.57 3.53-8.61 6.53-10.47a18.23 18.23 0 0 1 9.74-2.47c11.39 0 12.12 5.65 10.68 12.35h-10.65z"/><path d="m363.46 14.9 24.27.02-1.95 9.12-12.99-.01-1.32 6.2h12.14l-1.88 8.78-12.14-.01-1.49 6.99 13.49.01-1.95 9.12-24.79-.02z"/><path d="m391.69 14.92 11.29.01-6.65 31.08 12.31.01-1.96 9.13-23.6-.03z"/><path d="m418.65 50.17c.51 0 .76-.22.83-.55s-.09-.59-.69-.59h-.88l-.25 1.14zm-1 1.13h-.19l-.46 2.15h-1.39l1.19-5.55h2.17c1.41 0 2.23.38 1.94 1.73a1.9 1.9 0 0 1 -1.75 1.6l.86 2.22h-1.55zm1.35-4.44a4.58 4.58 0 0 0 -4.47 3.82c-.51 2.4.77 3.81 2.84 3.81a4.57 4.57 0 0 0 4.46-3.81c.51-2.4-.77-3.81-2.83-3.82m.33-1.56a4.22 4.22 0 0 1 4.24 5.38 7 7 0 0 1 -6.54 5.37 4.21 4.21 0 0 1 -4.24-5.37 7 7 0 0 1 6.54-5.38"/><path d="m406.16 36.4h2.01l-1.09 2.89h2.89l-.38.99h-4.91z"/><path d="m412.37 37.4h-1.81l.38-.99h5.64l-.39.99h-1.81l-1.09 2.89h-2.02z"/><path d="m418.49 39.3h1c1.31 0 1.64-.81 1.65-1.17 0-.58-.48-.72-1.15-.72h-.75zm-.92-2.89h3c1.2 0 2.7.45 2.54 1.72s-1.54 2.16-3.81 2.16h-3.23z"/><path d="m67.91 14a20.77 20.77 0 0 0 -17.52 32.09l14.88-14.61h-9.56v-7.34l22.8-.05.15 22.1h-7.76l.1-8.63-14.63 14.56a20.79 20.79 0 1 0 11.54-38.12"/><path d="m22.85 14a20.77 20.77 0 0 0 -17.52 32.05l14.87-14.62h-9.55v-7.33l22.8-.05.15 22.1h-7.76l.1-8.64-14.63 14.57a20.79 20.79 0 1 0 11.54-38.08"/><g fill="#1d1d1b"><path d="m495.75 102.69a2.45 2.45 0 0 0 1-.17 1.16 1.16 0 0 0 .56-.72 5.93 5.93 0 0 0 .25-1.55c0-.67.06-1.56.06-2.65s0-2-.06-2.65a5.86 5.86 0 0 0 -.25-1.55 1.22 1.22 0 0 0 -.56-.72 2.45 2.45 0 0 0 -1-.17h-.84v10.18zm1.08-13.24a5.2 5.2 0 0 1 2.88.67 4.19 4.19 0 0 1 1.55 1.81 7.82 7.82 0 0 1 .63 2.6c.07 1 .11 2 .11 3.07s0 2.09-.11 3.07a7.82 7.82 0 0 1 -.63 2.6 4.06 4.06 0 0 1 -1.55 1.8 5.2 5.2 0 0 1 -2.88.68h-6.18v-16.3zm-8.46 0v3.47h-5.37v2.78h5v3.3h-5v3.24h5.63v3.47h-9.89v-16.26zm-18.93 0 2.74 10h.05v-10h4v16.3h-4.67l-2.86-10.07v10.07h-4v-16.3zm-13.3 0 1.67 11.28h.05l1.14-11.28h4.12l-2.79 16.3h-4.67l-1.42-11h-.05l-1.41 11h-4.67l-2.79-16.3h4.11l1.29 11.28 1.53-11.28zm-23.07 4.26a6.88 6.88 0 0 1 1-2.63 4 4 0 0 1 1.8-1.48 8.28 8.28 0 0 1 5.5 0 4.08 4.08 0 0 1 1.81 1.48 7.05 7.05 0 0 1 1 2.63 26.23 26.23 0 0 1 0 7.78 7.05 7.05 0 0 1 -1 2.63 3.83 3.83 0 0 1 -1.81 1.45 9 9 0 0 1 -5.5 0 3.76 3.76 0 0 1 -1.8-1.45 6.88 6.88 0 0 1 -1-2.63 25.37 25.37 0 0 1 0-7.78m4.14 6.62a9.46 9.46 0 0 0 .2 1.72 1.68 1.68 0 0 0 .43.89 1.12 1.12 0 0 0 .77.25 1.13 1.13 0 0 0 .77-.25 1.68 1.68 0 0 0 .43-.89 10.45 10.45 0 0 0 .2-1.72c0-.72 0-1.64 0-2.73s0-2 0-2.73a10.45 10.45 0 0 0 -.2-1.72 1.68 1.68 0 0 0 -.43-.89 1.13 1.13 0 0 0 -.77-.25 1.12 1.12 0 0 0 -.77.25 1.68 1.68 0 0 0 -.43.89 9.46 9.46 0 0 0 -.2 1.72v2.73s0 2 0 2.73"/><path d="m484.18 50.65h-13v-9.42h26.46v8.3l-14.14 26.52h14.16v9.42h-27.39v-8.3zm-36.28-9.42 7.46 27.27h.12v-27.27h10.81v44.24h-12.67l-7.71-27.32h-.12v27.32h-10.79v-44.24z"/><path d="m494.94 31.2a5.19 5.19 0 0 0 .14 1 .85.85 0 0 0 .31.5 1 1 0 0 0 .53.13 1 1 0 0 0 .53-.13.85.85 0 0 0 .31-.5 5.07 5.07 0 0 0 .15-1c0-.43 0-1 0-1.65s0-1.24 0-1.66a5 5 0 0 0 -.15-1 .82.82 0 0 0 -.31-.5 1 1 0 0 0 -.53-.13 1 1 0 0 0 -.53.13.82.82 0 0 0 -.31.5 5.07 5.07 0 0 0 -.14 1c0 .42-.05 1-.05 1.66s0 1.22.05 1.65m.93-17.2-9.33 21.1h-3.24l9.33-21.1zm-13.59 7.28a5.19 5.19 0 0 0 .15 1 .85.85 0 0 0 .31.5 1 1 0 0 0 .53.13 1.06 1.06 0 0 0 .53-.13.85.85 0 0 0 .31-.5 5.31 5.31 0 0 0 .14-1c0-.43.05-1 .05-1.65s0-1.23-.05-1.65a5.19 5.19 0 0 0 -.14-1 .79.79 0 0 0 -.31-.5 1 1 0 0 0 -.53-.13 1 1 0 0 0 -.53.13.79.79 0 0 0 -.31.5 5.07 5.07 0 0 0 -.15 1v1.65s0 1.22 0 1.65m9.26 5.72a4 4 0 0 1 .78-1.74 3.15 3.15 0 0 1 1.42-1 8.07 8.07 0 0 1 4.36 0 3.13 3.13 0 0 1 1.43 1 4.23 4.23 0 0 1 .78 1.74 12.93 12.93 0 0 1 .23 2.6 12.79 12.79 0 0 1 -.23 2.6 4.28 4.28 0 0 1 -.78 1.75 2.84 2.84 0 0 1 -1.43.94 9.27 9.27 0 0 1 -4.36 0 2.85 2.85 0 0 1 -1.42-.94 4 4 0 0 1 -.78-1.75 12 12 0 0 1 -.24-2.6 12.18 12.18 0 0 1 .24-2.6m-12.66-10a4.1 4.1 0 0 1 .79-1.75 3 3 0 0 1 1.42-1 7.82 7.82 0 0 1 4.36 0 3.06 3.06 0 0 1 1.42 1 4 4 0 0 1 .78 1.75 12 12 0 0 1 .24 2.59 12.11 12.11 0 0 1 -.24 2.6 3.94 3.94 0 0 1 -.78 1.74 3.08 3.08 0 0 1 -1.42 1 7.82 7.82 0 0 1 -4.36 0 3 3 0 0 1 -1.42-1 4.06 4.06 0 0 1 -.79-1.74 12.86 12.86 0 0 1 -.23-2.6 12.69 12.69 0 0 1 .23-2.59m-15.52 2.4a8.57 8.57 0 0 1 1.3-3.26 4.47 4.47 0 0 1 2.2-1.67 10.89 10.89 0 0 1 6.33 0 4.53 4.53 0 0 1 2.21 1.67 8.41 8.41 0 0 1 1.29 3.26 25.75 25.75 0 0 1 .43 5.19 25.76 25.76 0 0 1 -.43 5.21 8.26 8.26 0 0 1 -1.29 3.2 4.45 4.45 0 0 1 -2.21 1.63 11.6 11.6 0 0 1 -6.33 0 4.39 4.39 0 0 1 -2.2-1.63 8.41 8.41 0 0 1 -1.3-3.23 26.61 26.61 0 0 1 -.42-5.21 26.6 26.6 0 0 1 .42-5.19m5.43 11.63a1.3 1.3 0 0 0 1.24.78 1.27 1.27 0 0 0 1.23-.78 7.63 7.63 0 0 0 .38-3v-6.84a7.63 7.63 0 0 0 -.38-3 1.27 1.27 0 0 0 -1.26-.76 1.3 1.3 0 0 0 -1.24.78 7.83 7.83 0 0 0 -.38 3v6.82a7.83 7.83 0 0 0 .38 3m-21.22-11.6a8.41 8.41 0 0 1 1.29-3.26 4.53 4.53 0 0 1 2.17-1.67 10.86 10.86 0 0 1 6.32 0 4.49 4.49 0 0 1 2.21 1.67 8.57 8.57 0 0 1 1.3 3.26 26.6 26.6 0 0 1 .42 5.19 26.61 26.61 0 0 1 -.42 5.21 8.41 8.41 0 0 1 -1.3 3.23 4.41 4.41 0 0 1 -2.21 1.63 11.57 11.57 0 0 1 -6.32 0 4.45 4.45 0 0 1 -2.17-1.66 8.26 8.26 0 0 1 -1.29-3.23 25.76 25.76 0 0 1 -.43-5.21 25.75 25.75 0 0 1 .43-5.19m5.46 11.63a1.38 1.38 0 0 0 2.48 0 7.83 7.83 0 0 0 .38-3v-6.84a7.83 7.83 0 0 0 -.38-3 1.38 1.38 0 0 0 -2.48 0 7.88 7.88 0 0 0 -.37 3v6.84a7.88 7.88 0 0 0 .37 3m-15.37-10.37h-3.94v-3.4a13.61 13.61 0 0 0 2.18-.16 5 5 0 0 0 1.55-.53 3 3 0 0 0 1.06-1 5.47 5.47 0 0 0 .68-1.54h3.95v20.78h-5.48z"/></g></svg>