<svg height="120" viewBox="0 0 504 120" width="504" xmlns="http://www.w3.org/2000/svg"><path d="m90.77 117.49c0-7.71-.1-15.42-.14-23.14 0-2.87 0-5.73 0-8.74.68-.07 1.22-.17 1.75-.17h22.25c5.28 0 8.05 2.65 8.21 8 .15 5 .14 10 0 14.94-.12 5.65-1.3 7.21-6.48 9.13zm10.14-9h11.6c0-4.54 0-8.94 0-13.33a1.59 1.59 0 0 0 -1-1.15c-3.47-.09-6.94 0-10.54 0z"/><path d="m368 117.49v-31.91c.73 0 1.33-.14 1.93-.14q10.82 0 21.62 0c5.1 0 7.9 2.79 7.95 7.94s0 10.1 0 15.15-1.23 7-5.89 9zm21.26-8.89v-14.45h-11.16v14.45z"/><path d="m171.43 117.49v-8.8h21.3v-3.37c-.69 0-1.43-.09-2.16-.1-4.41-.07-8.83 0-13.22-.25-4.12-.25-5.48-1.93-5.49-6.11 0-2.45 0-4.91 0-7.37.06-3 1.36-4.68 4.23-5.48a9 9 0 0 1 2.26-.44h22.19v8.38h-18.54v3.65h5.37c3.15 0 6.31-.07 9.44.11 3.84.23 5.67 2.19 5.87 6 .09 1.82 0 3.65 0 5.47 0 5.77-.46 6.42-5.68 8.28z"/><path d="m266.79 117.49v-8.8h21.21v-3.35c-.7 0-1.43-.11-2.17-.12-4.33-.08-8.68 0-13-.25s-5.66-1.84-5.67-6.12c0-2.45 0-4.91 0-7.36.05-3.11 1.41-4.78 4.43-5.52a8 8 0 0 1 1.85-.37h22.33v8.35h-18.38v3.66h12c1 0 2 0 2.93.1 3.71.37 5.54 2.31 5.63 6 .06 2.45 0 4.91 0 7.36 0 3.65-1.26 5.16-4.81 6.07a4.17 4.17 0 0 0 -.74.35z"/><path d="m130.26 2.5c2.14 5.46 4.26 10.93 6.43 16.38 2 5 4 10 6.05 15 .2.5.36 1 .64 1.84-4.11 0-8 0-11.87 0-.43 0-3.4-6.71-3.4-6.71l-10.43-.05-3.14 6.53s-8.53 0-11.61 0c.31-.77.53-1.37.79-2 4.39-9.92 13.41-30.54 13.52-30.93zm-6.9 13.5-3.28 6.15h6.37z"/><path d="m210.08 117.49c-3.5-1.64-4.91-4.43-4.83-8.26.12-5.54 0-11.09.05-16.63 0-4.52 2.72-7.13 7.24-7.15q9.56 0 19.12 0c.61 0 1.22.06 2 .1v8.45h-17.55v3.68h17.4v7.25h-17.42v3.66h17.51v8.91z"/><path d="m145 117.49c-3.35-1.66-4.79-4.33-4.7-8.1.14-5.82 0-11.65 0-17.47a6.31 6.31 0 0 1 6-6.41c7.27-.15 14.54 0 22 0v8.44h-17.3v3.74h17.16v7.31h-17.28v3.58h17.19v8.93z"/><path d="m37 93.48c.72-3.91 3-5.35 6.1-6.4a7.14 7.14 0 0 1 2-.46h13.17v10.3c-2.93 0-6 0-9 0-1.8 0-2.23.73-1.6 2.53h4.19v6.15l-4.31.19c-.91 3 .77 3 5.43 2.61v-9.23h12.36c-.2 4.38-.16 8.7-.66 13-.3 2.52-2.31 4.2-4.57 5.36h-16.81c-2.69.14-4.14-1.55-5.29-3.64-.4-.72-.68-1.5-1-2.25v-4.22c.69-1.11 1.46-2.18 2-3.34a2.65 2.65 0 0 0 .21-1.9c-.64-1.67-1.48-3.25-2.25-4.87z"/><path d="m345.35 117.49v-23.49h-9.53v-8.44h29.52v8.44h-9.07v23.54z"/><path d="m237.38 117.49v-31.89h10.92v23h15.55v8.88z"/><path d="m316.78 117.49q.06-14.73.11-29.46c0-.76 0-1.52 0-2.44h10.82v23h15.53v8.9z"/><path d="m126.9 117.49v-31.88h10.1v31.88z"/><path d="m226.83 35.6h-9.74v-32.75c4.58 0 9.11 0 13.63.07.43 0 1.06 1 1.21 1.56 1.46 5.85 2.84 11.71 4.25 17.57a10.09 10.09 0 0 0 .47 1.23c1.69-7 3.31-13.64 4.93-20.34h14.54v32.6h-9.72v-22.39c-1 3.94-1.89 7.29-2.73 10.65s-1.74 6.78-2.5 10.2a1.88 1.88 0 0 1 -2.3 1.73c-2.08-.1-4.17 0-6.34 0-1.8-7.11-3.55-14-5.3-21l-.4.06z"/><path d="m430.05 35.7c-3.1 0-6.1.08-9.08-.07-.63 0-1.38-.82-1.78-1.45-4-6.14-7.93-12.32-12-18.62v20h-9.84v-32.71c4.09 0 8.13-.05 12.16.06.5 0 1.11.73 1.46 1.27 3.13 4.79 6.21 9.61 9.33 14.46v-15.64h9.72z"/><path d="m154.08 15.37v20.18h-9.82v-32.72c2.64 0 12.21-.05 12.21-.05s8.09 11.64 10.72 15.73v-15.51h9.73v32.69c-3.07 0-6.13.08-9.17-.08-.62 0-1.32-.92-1.74-1.57-4.01-6.23-8.01-12.48-11.93-18.67z"/><path d="m97.37 19c3.78 1.11 4.29 3.55 4.26 6.33v10.19h-10.3v-11.9h-11v11.93h-10.46v-32.55c.62-.05 1.16-.13 1.69-.13h22.27c5.82 0 7.82 2.07 7.83 7.87v1.9c.09 2.76-.45 5.19-4.29 6.36zm-6.27-7.2h-10.71v4h10.71z"/><path d="m304.93 2.83v8.86h-19.21v3.55h7.57c2.94.05 5.89 0 8.8.31a5.28 5.28 0 0 1 5 5.5c.11 3 .1 6 0 9.06a5.47 5.47 0 0 1 -4.46 5.17 11.14 11.14 0 0 1 -2.28.35c-8.39 0-16.79 0-25.53 0 0-2.72-.08-5.35.08-8 0-.35 1.24-.89 1.91-.89 5.88-.07 11.76 0 17.64 0h2.37v-3.61c-1.55 0-3.07 0-4.58 0-4.05-.1-8.12-.05-12.15-.41-3.67-.32-4.9-2-4.94-5.73 0-2.24 0-4.49 0-6.73 0-4.89 1.74-7 6.68-7.25 6.71-.28 13.44-.13 20.15-.17z"/><path d="m340.58 3v8.65h-19.2v3.61h2.39c4.55.08 9.1 0 13.63.28 3.57.25 5.32 2.42 5.4 6 .06 2.67.05 5.33 0 8a5.59 5.59 0 0 1 -4.76 5.79 9.11 9.11 0 0 1 -1.86.29c-8.46 0-16.92 0-25.54 0v-8.82h21.82v-3.68c-.83 0-1.7 0-2.58 0-4.82-.13-9.65-.1-14.45-.45-3.17-.23-4.52-2-4.57-5.19-.05-2.88 0-5.76 0-8.63s1.34-4.61 4.1-5.36a15.83 15.83 0 0 1 3.92-.59c6.79-.07 13.58 0 20.36 0a12.1 12.1 0 0 1 1.34.1z"/><path d="m210.81 2.94v8.75h-19.21v3.55h3.56c4.26.08 8.54 0 12.78.32 3.16.24 4.92 2.33 5 5.45s.1 6 0 9.05a5.36 5.36 0 0 1 -4.62 5.23 23.19 23.19 0 0 1 -4.17.39c-7.06 0-14.13 0-21.19 0-.69 0-1.37-.05-2.18-.09v-8.86h21.91v-3.6c-2.44 0-4.8.05-7.15 0-3.35-.09-6.72-.1-10-.44-3-.31-4.41-2-4.47-5.08-.05-2.39.09-4.78 0-7.16-.34-6 2.71-7.23 6.7-7.4 7.58-.34 15.23-.11 23.04-.11z"/><path d="m463.8 3v8.66h-19.17v3.44c.53 0 1.12.12 1.72.13 4.68.07 9.37 0 14 .25 3.86.24 5.62 2.38 5.67 6.19v8a5.45 5.45 0 0 1 -4.84 5.67 21.33 21.33 0 0 1 -3.74.35c-7.14 0-14.27 0-21.41 0-.62 0-1.23-.06-2-.1v-8.83h21.71v-3.63c-3.22 0-6.35.05-9.47 0a75.29 75.29 0 0 1 -7.52-.41c-3.12-.39-4.48-1.84-4.64-5s-.14-6 0-9a5.16 5.16 0 0 1 4.31-5.24 14.49 14.49 0 0 1 3.51-.54c6.92-.06 13.85 0 20.77-.06.3-.04.65.03 1.1.12z"/><path d="m393.26 19.35c0 3 .1 6 0 9-.17 4-2.45 6.79-6.42 7a188.52 188.52 0 0 1 -18.87 0c-4.06-.2-6.39-2.8-6.52-6.88-.21-6.17-.23-12.36 0-18.53.16-4.58 3-7.09 7.67-7.14q8.19-.09 16.38 0c5 .06 7.63 2.63 7.81 7.65.1 2.94 0 5.89 0 8.84zm-10.58-7.49h-10.68v14.78h10.64z"/><path d="m37.53 3h31.28v8.7h-9.59v23.84h-11.31v-23.83h-10.38z"/><path d="m357.22 35.6h-10.29v-32.67h10.29z"/><path d="m260.66 2.94h10.34v32.6h-10.34z"/><path d="m413.38 108.19a7.6 7.6 0 1 1 15.19 0 7.6 7.6 0 1 1 -15.19 0zm7.5 6.81a6.72 6.72 0 0 0 6.95-6.83 6.87 6.87 0 1 0 -13.73-.17 6.71 6.71 0 0 0 6.78 7z"/><path d="m419.26 108.46c.11 1.4.21 2.79.31 4.24h-2.21v-9.36h3.39c1.37 0 3 .23 3.1 1.83.1 1.06-.75 2.2-1.18 3.31l-.77-.08 3 4.2c-1.68.69-2.15-.71-2.88-1.62s-1.39-1.82-2.09-2.74zm0-.38c1-.32 2-.35 2.29-.82a2.88 2.88 0 0 0 .36-2.37c-.24-.56-1.29-.78-2-1.16a14.71 14.71 0 0 0 -.64 2 16.37 16.37 0 0 0 .02 2.35z"/><path d="m437.44 94.47c.02.53 28.86-25.27 29.56-25.77-.32-.55-28.95-28.58-29.28-28.64v14.54h-181l-12.72-12.93-206.49-.87-.16 28.2 192.65 1.29 9.74 10 197.58.58z" stroke="#000" stroke-miterlimit="10" stroke-width="1.682623"/><path d="m437.44 94.47c.02.53 28.86-25.27 29.56-25.77-.32-.55-28.95-28.58-29.28-28.64v14.54h-181l-12.72-12.93-206.49-.87-.16 28.2 192.65 1.29 9.74 10 197.58.58z" fill="#ed1b24"/><path d="m467 68.7c-.7.5-29.54 26.33-29.55 25.77l-.14-13.62-197.58-.59-9.74-10-192.64-1.26.08-13.34h198.89l12.77 12.74 217.9.3z" fill="#fef200"/><path d="m466.99 68.69-217.9-.3-12.78-12.74h-198.88" fill="none" stroke="#000" stroke-miterlimit="10" stroke-width=".841311"/></svg>