<svg xmlns="http://www.w3.org/2000/svg" xmlns:xlink="http://www.w3.org/1999/xlink" width="268.81" height="269.85" viewBox="0 0 268.81 269.85">
  <defs>
    <radialGradient id="radial-gradient" cx="40.24" cy="34.48" r="34.48" gradientUnits="userSpaceOnUse">
      <stop offset="0.96" stop-color="#fff"/>
      <stop offset="0.98" stop-color="#e3e3e5"/>
      <stop offset="1" stop-color="#cfced1"/>
    </radialGradient>
    <radialGradient id="radial-gradient-2" cx="40.24" cy="34.48" r="34.67" xlink:href="#radial-gradient"/>
    <radialGradient id="radial-gradient-3" cx="38.5" cy="20.45" r="47.99" gradientUnits="userSpaceOnUse">
      <stop offset="0" stop-color="#ecebec"/>
      <stop offset="0.46" stop-color="#eae9ea"/>
      <stop offset="0.63" stop-color="#e3e2e3"/>
      <stop offset="0.7" stop-color="#dddcdd"/>
      <stop offset="0.86" stop-color="#cfced1"/>
    </radialGradient>
    <radialGradient id="radial-gradient-4" cx="40.52" cy="10.48" r="58.65" gradientUnits="userSpaceOnUse">
      <stop offset="0" stop-color="#fff"/>
      <stop offset="0.52" stop-color="#fdfdfd"/>
      <stop offset="0.71" stop-color="#f7f6f7"/>
      <stop offset="0.84" stop-color="#ebebeb"/>
      <stop offset="0.94" stop-color="#dddcdd"/>
    </radialGradient>
    <radialGradient id="radial-gradient-5" cx="43.16" cy="41.3" fx="24.701997158547687" fy="33.60694029287947" r="34.63" gradientUnits="userSpaceOnUse">
      <stop offset="0.02" stop-color="#ecebec"/>
      <stop offset="0.24" stop-color="#e6e5e6"/>
      <stop offset="0.53" stop-color="#d5d4d7"/>
      <stop offset="0.61" stop-color="#cfced1"/>
      <stop offset="0.65" stop-color="#cac8cb"/>
      <stop offset="0.7" stop-color="#bab8bc"/>
      <stop offset="0.77" stop-color="#a09da2"/>
      <stop offset="0.83" stop-color="#7d787d"/>
      <stop offset="0.9" stop-color="#4f484f"/>
      <stop offset="0.97" stop-color="#170f17"/>
      <stop offset="0.99" stop-color="#0b020a"/>
    </radialGradient>
    <linearGradient id="linear-gradient" x1="60.87" y1="6.51" x2="63.74" y2="6.51" gradientUnits="userSpaceOnUse">
      <stop offset="0.02" stop-color="#dddcdd"/>
      <stop offset="0.21" stop-color="#d8d7d9"/>
      <stop offset="0.41" stop-color="#cbcacc"/>
      <stop offset="0.63" stop-color="#b5b4b6"/>
      <stop offset="0.85" stop-color="#979599"/>
      <stop offset="1" stop-color="#7d7b80"/>
    </linearGradient>
    <radialGradient id="radial-gradient-6" cx="40.24" cy="34.48" r="26.2" gradientUnits="userSpaceOnUse">
      <stop offset="0.92" stop-color="#a9a8ac"/>
      <stop offset="0.94" stop-color="#bdbcbf"/>
      <stop offset="0.96" stop-color="#d7d6d8"/>
      <stop offset="0.98" stop-color="#e7e6e7"/>
      <stop offset="1" stop-color="#ecebec"/>
    </radialGradient>
    <clipPath id="clip-path">
      <path d="M64.05,40.3a24.52,24.52,0,0,1-47.63,0l-2-.66-.14-.13,0,.15a26.44,26.44,0,0,0,51.86,0l0-.15-.15.13Z" style="fill: none"/>
    </clipPath>
    <radialGradient id="radial-gradient-7" cx="40.11" cy="31.79" fy="2.7212479133049428" r="30.92" gradientTransform="translate(0.11 2.43) rotate(0.21) scale(1 0.92)" gradientUnits="userSpaceOnUse">
      <stop offset="0.83" stop-color="#fff"/>
      <stop offset="0.83" stop-color="#ebebeb"/>
      <stop offset="0.83" stop-color="#c6c5c6"/>
      <stop offset="0.84" stop-color="#a4a3a5"/>
      <stop offset="0.84" stop-color="#88878a"/>
      <stop offset="0.85" stop-color="#727073"/>
      <stop offset="0.85" stop-color="#605f62"/>
      <stop offset="0.86" stop-color="#545256"/>
      <stop offset="0.86" stop-color="#4d4b4f"/>
      <stop offset="0.88" stop-color="#4b494d"/>
      <stop offset="0.89" stop-color="#514f53" stop-opacity="0.96"/>
      <stop offset="0.9" stop-color="#666468" stop-opacity="0.85"/>
      <stop offset="0.91" stop-color="#8a888b" stop-opacity="0.65"/>
      <stop offset="0.91" stop-color="#bbbabc" stop-opacity="0.38"/>
      <stop offset="0.92" stop-color="#fbfbfb" stop-opacity="0.02"/>
      <stop offset="0.92" stop-color="#fff" stop-opacity="0"/>
      <stop offset="0.93" stop-color="#fff" stop-opacity="0.15"/>
      <stop offset="0.96" stop-color="#fff" stop-opacity="0.6"/>
      <stop offset="0.99" stop-color="#fff" stop-opacity="0.89"/>
      <stop offset="1" stop-color="#fff"/>
    </radialGradient>
    <linearGradient id="linear-gradient-2" x1="47.26" y1="40.68" x2="33.8" y2="19.16" gradientUnits="userSpaceOnUse">
      <stop offset="0" stop-color="#cfced1"/>
      <stop offset="0.31" stop-color="#cccbce"/>
      <stop offset="0.54" stop-color="#c3c2c5"/>
      <stop offset="0.74" stop-color="#b3b2b5"/>
      <stop offset="0.93" stop-color="#9d9ba0"/>
      <stop offset="1" stop-color="#929095"/>
    </linearGradient>
    <linearGradient id="linear-gradient-3" x1="47.21" y1="50.89" x2="34.3" y2="29.82" gradientUnits="userSpaceOnUse">
      <stop offset="0" stop-color="#b5b4b8"/>
      <stop offset="0.34" stop-color="#b2b1b5"/>
      <stop offset="0.6" stop-color="#a9a8ac"/>
      <stop offset="0.82" stop-color="#99989c"/>
      <stop offset="1" stop-color="#878589"/>
    </linearGradient>
    <linearGradient id="linear-gradient-4" x1="62.75" y1="6.85" x2="61.77" y2="6.03" gradientUnits="userSpaceOnUse">
      <stop offset="0.02" stop-color="#fff"/>
      <stop offset="0.17" stop-color="#fafafa"/>
      <stop offset="0.35" stop-color="#ebebeb"/>
      <stop offset="0.55" stop-color="#d2d2d3"/>
      <stop offset="0.77" stop-color="#afafb1"/>
      <stop offset="0.99" stop-color="#838286"/>
      <stop offset="1" stop-color="#818084"/>
    </linearGradient>
    <linearGradient id="linear-gradient-5" x1="68.24" y1="13.92" x2="68.25" y2="10.87" gradientUnits="userSpaceOnUse">
      <stop offset="0.03" stop-color="#cfced1"/>
      <stop offset="0.21" stop-color="#cac9cc"/>
      <stop offset="0.43" stop-color="#bbbabd"/>
      <stop offset="0.67" stop-color="#a2a1a5"/>
      <stop offset="0.92" stop-color="#807e83"/>
      <stop offset="1" stop-color="#737176"/>
    </linearGradient>
    <linearGradient id="linear-gradient-6" x1="73.85" y1="17.48" x2="73.88" y2="0.26" gradientUnits="userSpaceOnUse">
      <stop offset="0" stop-color="#cfced1"/>
      <stop offset="0.39" stop-color="#cac9cc"/>
      <stop offset="0.86" stop-color="#bbbabd"/>
      <stop offset="1" stop-color="#b5b4b8"/>
    </linearGradient>
    <linearGradient id="linear-gradient-7" x1="57.77" y1="0.87" x2="74.26" y2="0.87" gradientUnits="userSpaceOnUse">
      <stop offset="0" stop-color="#e8e7e8"/>
      <stop offset="1" stop-color="#c0bec2"/>
    </linearGradient>
    <linearGradient id="linear-gradient-8" x1="40.24" y1="29.46" x2="40.24" y2="28.78" gradientUnits="userSpaceOnUse">
      <stop offset="0" stop-color="#dddcdd"/>
      <stop offset="1" stop-color="#c2c1c4"/>
    </linearGradient>
    <linearGradient id="linear-gradient-9" x1="40.24" y1="40.24" x2="40.24" y2="39.6" xlink:href="#linear-gradient-8"/>
    <linearGradient id="linear-gradient-10" x1="14.28" y1="39.91" x2="66.11" y2="39.91" gradientUnits="userSpaceOnUse">
      <stop offset="0.01" stop-color="#929095"/>
      <stop offset="0.1" stop-color="#d5d4d6"/>
      <stop offset="0.17" stop-color="#fff"/>
      <stop offset="0.83" stop-color="#fff"/>
      <stop offset="0.93" stop-color="#c3c2c5"/>
      <stop offset="1" stop-color="#929095"/>
    </linearGradient>
    <radialGradient id="radial-gradient-8" cx="38.72" cy="32.54" fx="3.5005445999377685" r="35.22" gradientTransform="matrix(0.28, 0.96, -1.07, 0.31, 62.61, -14.85)" gradientUnits="userSpaceOnUse">
      <stop offset="0.4" stop-color="#dddcdd"/>
      <stop offset="0.57" stop-color="#dbdadb"/>
      <stop offset="0.64" stop-color="#d4d2d4"/>
      <stop offset="0.7" stop-color="#c7c6c7"/>
      <stop offset="0.75" stop-color="#b5b4b5"/>
      <stop offset="0.79" stop-color="#9d9c9e"/>
      <stop offset="0.83" stop-color="#807f82"/>
      <stop offset="0.87" stop-color="#5f5d61"/>
      <stop offset="0.88" stop-color="#4b494d"/>
    </radialGradient>
    <linearGradient id="linear-gradient-11" x1="62.55" y1="7.08" x2="61.95" y2="5.45" gradientUnits="userSpaceOnUse">
      <stop offset="0.38" stop-color="#fff"/>
      <stop offset="0.46" stop-color="#e5e5e6"/>
      <stop offset="0.64" stop-color="#b0afb2"/>
      <stop offset="0.8" stop-color="#89888c"/>
      <stop offset="0.92" stop-color="#727075"/>
      <stop offset="1" stop-color="#69676c"/>
    </linearGradient>
    <linearGradient id="linear-gradient-12" x1="68.18" y1="12.35" x2="69.02" y2="13.29" gradientUnits="userSpaceOnUse">
      <stop offset="0.01" stop-color="#69676c"/>
      <stop offset="0.31" stop-color="#57555a"/>
      <stop offset="0.71" stop-color="#47444a"/>
      <stop offset="1" stop-color="#413e44"/>
    </linearGradient>
    <radialGradient id="radial-gradient-9" cx="40.07" cy="35.77" r="39.39" gradientUnits="userSpaceOnUse">
      <stop offset="0.96" stop-color="#363338"/>
      <stop offset="0.98" stop-color="#514e53"/>
      <stop offset="0.98" stop-color="#565358"/>
    </radialGradient>
    <linearGradient id="linear-gradient-13" x1="73.45" y1="17" x2="73.38" y2="15.82" gradientUnits="userSpaceOnUse">
      <stop offset="0" stop-color="#363338"/>
      <stop offset="0.89" stop-color="#4f4c51"/>
      <stop offset="1" stop-color="#524f54"/>
    </linearGradient>
    <linearGradient id="linear-gradient-14" x1="73.47" y1="8.72" x2="74.26" y2="8.72" gradientUnits="userSpaceOnUse">
      <stop offset="0.01" stop-color="#737176"/>
      <stop offset="0.36" stop-color="#6e6c71"/>
      <stop offset="0.8" stop-color="#5f5d62"/>
      <stop offset="1" stop-color="#565358"/>
    </linearGradient>
    <linearGradient id="linear-gradient-15" x1="66.02" y1="0.26" x2="66.02" y2="1.24" gradientUnits="userSpaceOnUse">
      <stop offset="0" stop-color="#c0bec2"/>
      <stop offset="1" stop-color="#fff"/>
    </linearGradient>
    <linearGradient id="linear-gradient-16" x1="57.4" y1="2.12" x2="58.42" y2="0.7" gradientUnits="userSpaceOnUse">
      <stop offset="0" stop-color="#7d7b80"/>
      <stop offset="0.13" stop-color="#838186"/>
      <stop offset="0.31" stop-color="#949397"/>
      <stop offset="0.52" stop-color="#b1afb2"/>
      <stop offset="0.75" stop-color="#d8d7d9"/>
      <stop offset="0.95" stop-color="#fff"/>
    </linearGradient>
    <radialGradient id="radial-gradient-10" cx="39.95" cy="35.77" r="39.73" gradientUnits="userSpaceOnUse">
      <stop offset="0.95" stop-color="#363338"/>
      <stop offset="0.96" stop-color="#423f44"/>
      <stop offset="0.97" stop-color="#565358"/>
    </radialGradient>
    <linearGradient id="linear-gradient-17" x1="31.54" y1="0.71" x2="69.41" y2="27.63" gradientUnits="userSpaceOnUse">
      <stop offset="0" stop-color="#fff" stop-opacity="0"/>
      <stop offset="0.41" stop-color="#fff" stop-opacity="0"/>
      <stop offset="0.48" stop-color="#fdfdfd" stop-opacity="0.03"/>
      <stop offset="0.56" stop-color="#f8f7f8" stop-opacity="0.1"/>
      <stop offset="0.64" stop-color="#eeeeef" stop-opacity="0.22"/>
      <stop offset="0.73" stop-color="#e2e1e3" stop-opacity="0.4"/>
      <stop offset="0.82" stop-color="#d1d0d3" stop-opacity="0.62"/>
      <stop offset="0.91" stop-color="#bdbcc0" stop-opacity="0.89"/>
      <stop offset="0.94" stop-color="#b5b4b8"/>
      <stop offset="0.96" stop-color="#b6b5b9" stop-opacity="0.99"/>
      <stop offset="0.97" stop-color="#b9b8bb" stop-opacity="0.95"/>
      <stop offset="0.98" stop-color="#bdbcc0" stop-opacity="0.89"/>
      <stop offset="0.98" stop-color="#c4c3c7" stop-opacity="0.8"/>
      <stop offset="0.99" stop-color="#cdcccf" stop-opacity="0.67"/>
      <stop offset="0.99" stop-color="#d8d8da" stop-opacity="0.53"/>
      <stop offset="0.99" stop-color="#e5e5e6" stop-opacity="0.35"/>
      <stop offset="1" stop-color="#f4f4f4" stop-opacity="0.15"/>
      <stop offset="1" stop-color="#fff" stop-opacity="0"/>
    </linearGradient>
    <linearGradient id="linear-gradient-18" x1="52.11" y1="7.38" x2="54.13" y2="29.92" gradientUnits="userSpaceOnUse">
      <stop offset="0.42" stop-color="#fff" stop-opacity="0"/>
      <stop offset="0.65" stop-color="#fefefe" stop-opacity="0.01"/>
      <stop offset="0.73" stop-color="#fcfbfc" stop-opacity="0.05"/>
      <stop offset="0.79" stop-color="#f7f7f7" stop-opacity="0.11"/>
      <stop offset="0.84" stop-color="#f0f0f1" stop-opacity="0.2"/>
      <stop offset="0.88" stop-color="#e7e7e8" stop-opacity="0.32"/>
      <stop offset="0.92" stop-color="#dcdcde" stop-opacity="0.47"/>
      <stop offset="0.95" stop-color="#cfcfd1" stop-opacity="0.65"/>
      <stop offset="0.98" stop-color="#c1c0c3" stop-opacity="0.84"/>
      <stop offset="1" stop-color="#b5b4b8"/>
    </linearGradient>
    <linearGradient id="linear-gradient-19" x1="62.89" y1="7.67" x2="61.87" y2="5.22" gradientUnits="userSpaceOnUse">
      <stop offset="0" stop-color="#fff"/>
      <stop offset="0.37" stop-color="#c5c4c7"/>
      <stop offset="0.75" stop-color="#919094"/>
      <stop offset="0.93" stop-color="#7d7b80"/>
    </linearGradient>
    <linearGradient id="linear-gradient-20" x1="68" y1="12.19" x2="68.53" y2="12.61" gradientUnits="userSpaceOnUse">
      <stop offset="0.03" stop-color="#69676c"/>
      <stop offset="0.99" stop-color="#4b494d"/>
    </linearGradient>
    <radialGradient id="radial-gradient-11" cx="40.26" cy="34.86" r="38.75" gradientUnits="userSpaceOnUse">
      <stop offset="0.96" stop-color="#716f74"/>
      <stop offset="0.97" stop-color="#605d62"/>
      <stop offset="0.99" stop-color="#a9a8ac"/>
    </radialGradient>
    <linearGradient id="linear-gradient-21" x1="73.31" y1="16.03" x2="73.31" y2="16.34" gradientUnits="userSpaceOnUse">
      <stop offset="0" stop-color="#9e9ca1"/>
      <stop offset="1" stop-color="#605d62"/>
    </linearGradient>
    <linearGradient id="linear-gradient-22" x1="73.34" y1="8.72" x2="73.59" y2="8.72" gradientUnits="userSpaceOnUse">
      <stop offset="0" stop-color="#a9a8ac"/>
      <stop offset="0.51" stop-color="#9b999e"/>
      <stop offset="1" stop-color="#929095"/>
    </linearGradient>
    <linearGradient id="linear-gradient-23" x1="66.01" y1="0.78" x2="66.01" y2="1.48" gradientUnits="userSpaceOnUse">
      <stop offset="0.28" stop-color="#cfced1"/>
      <stop offset="0.39" stop-color="#dad9db"/>
      <stop offset="0.59" stop-color="#f6f6f6"/>
      <stop offset="0.64" stop-color="#fff"/>
    </linearGradient>
    <linearGradient id="linear-gradient-24" x1="58.56" y1="1.19" x2="58.56" y2="1.88" gradientUnits="userSpaceOnUse">
      <stop offset="0" stop-color="#dddcdd"/>
      <stop offset="0.26" stop-color="#dad9da"/>
      <stop offset="0.48" stop-color="#cfced0"/>
      <stop offset="0.68" stop-color="#bebdbf"/>
      <stop offset="0.87" stop-color="#a6a4a8"/>
      <stop offset="1" stop-color="#929095"/>
    </linearGradient>
    <radialGradient id="radial-gradient-12" cx="39.77" cy="35.09" r="38.74" gradientUnits="userSpaceOnUse">
      <stop offset="0.77" stop-color="#737176"/>
      <stop offset="0.97" stop-color="#afaeb2"/>
      <stop offset="0.99" stop-color="#b5b4b8"/>
    </radialGradient>
    <radialGradient id="radial-gradient-13" cx="48.62" cy="62.92" fx="-11.024325826404556" r="59.67" gradientUnits="userSpaceOnUse">
      <stop offset="0.45" stop-color="#fff"/>
      <stop offset="0.55" stop-color="#fcfcfc"/>
      <stop offset="0.63" stop-color="#f3f3f3"/>
      <stop offset="0.7" stop-color="#e3e3e3"/>
      <stop offset="0.76" stop-color="#cdcccd"/>
      <stop offset="0.82" stop-color="#b0afb1"/>
      <stop offset="0.88" stop-color="#8d8b8e"/>
      <stop offset="0.93" stop-color="#646266"/>
      <stop offset="0.98" stop-color="#363338"/>
    </radialGradient>
    <linearGradient id="linear-gradient-25" x1="40.24" y1="39.64" x2="40.24" y2="39.39" gradientUnits="userSpaceOnUse">
      <stop offset="0" stop-color="#4b494d"/>
      <stop offset="0" stop-color="#4b494d"/>
      <stop offset="0.48" stop-color="#8b8a8d"/>
      <stop offset="0.82" stop-color="#b3b2b5"/>
      <stop offset="1" stop-color="#c2c1c4"/>
    </linearGradient>
    <linearGradient id="linear-gradient-26" x1="40.24" y1="29.33" x2="40.24" y2="29.58" gradientUnits="userSpaceOnUse">
      <stop offset="0.28" stop-color="#9e9ca1"/>
      <stop offset="0.4" stop-color="#b6b4b8"/>
      <stop offset="0.65" stop-color="#dddcdd"/>
      <stop offset="0.77" stop-color="#ecebec"/>
    </linearGradient>
    <radialGradient id="radial-gradient-14" cx="38.78" cy="34.12" fx="27.355739382375027" fy="-4.733149236801367" r="40.5" gradientTransform="translate(0.15 2.08) rotate(0.26) scale(1 0.93)" gradientUnits="userSpaceOnUse">
      <stop offset="0.51" stop-color="#fff"/>
      <stop offset="0.59" stop-color="#fcfcfc"/>
      <stop offset="0.65" stop-color="#f2f2f2"/>
      <stop offset="0.7" stop-color="#e2e1e2"/>
      <stop offset="0.76" stop-color="#cac9cb"/>
      <stop offset="0.81" stop-color="#acabae"/>
      <stop offset="0.85" stop-color="#878589"/>
      <stop offset="0.9" stop-color="#5c5a5f"/>
      <stop offset="0.92" stop-color="#413e44"/>
    </radialGradient>
    <linearGradient id="linear-gradient-27" x1="37.82" y1="24.67" x2="43.2" y2="44.39" gradientUnits="userSpaceOnUse">
      <stop offset="0" stop-color="#fff"/>
      <stop offset="0.23" stop-color="#fafbfb"/>
      <stop offset="0.48" stop-color="#edeeee"/>
      <stop offset="0.75" stop-color="#d7d8d9"/>
      <stop offset="1" stop-color="#bbbdbf"/>
    </linearGradient>
    <clipPath id="clip-path-2">
      <rect x="36.17" y="223.35" width="169.92" height="40" style="fill: none"/>
    </clipPath>
  </defs>
  <g style="isolation: isolate">
    <g id="Layer_2" data-name="Layer 2">
      <g id="Layer_1-2" data-name="Layer 1">
        <g>
          <g>
            <path d="M66.85,13.81l.07.09a33.71,33.71,0,0,1-2.86,44.41A33.69,33.69,0,1,1,16.41,10.66,33.69,33.69,0,0,1,60.86,7.84L61,7.9l-.08-1.05a34.41,34.41,0,1,0,7,7Z" style="fill: url(#radial-gradient)"/>
            <path d="M66.85,13.81l.07.09a33.71,33.71,0,0,1-2.86,44.41A33.69,33.69,0,1,1,16.41,10.66,33.69,33.69,0,0,1,60.86,7.84L61,7.9l-.08-1.05a34.41,34.41,0,1,0,7,7Z" style="fill: url(#radial-gradient-2)"/>
          </g>
          <path d="M14.84,29A26,26,0,0,1,58.61,16.12a25.81,25.81,0,0,1,7,12.88Zm25.4,31.46A26,26,0,0,1,14.84,40h50.8a26,26,0,0,1-25.4,20.49ZM67,13.82l2.62-2.61A37.88,37.88,0,0,1,73,16.29h.55V1.14H58.44v.55a37.08,37.08,0,0,1,5.11,3.43L60.94,7.74A33.82,33.82,0,0,0,6.42,34.49,33.82,33.82,0,0,0,64.15,58.4,33.84,33.84,0,0,0,67,13.82Z" style="fill: url(#radial-gradient-3)"/>
          <path d="M14.84,29A26,26,0,0,1,58.61,16.12a25.81,25.81,0,0,1,7,12.88Zm25.4,31.46A26,26,0,0,1,14.84,40h50.8a26,26,0,0,1-25.4,20.49ZM67,13.82l2.62-2.61A37.88,37.88,0,0,1,73,16.29h.55V1.14H58.44v.55a37.08,37.08,0,0,1,5.11,3.43L60.94,7.74A33.82,33.82,0,0,0,6.42,34.49,33.82,33.82,0,0,0,64.15,58.4,33.84,33.84,0,0,0,67,13.82Z" style="mix-blend-mode: multiply;fill: url(#radial-gradient-4)"/>
          <g>
            <path d="M64.05,28.67a24.52,24.52,0,0,0-47.63,0l-2,.66-.14.13,0-.15a26.44,26.44,0,0,1,51.86,0l0,.15-.15-.13Zm0,11.63a24.52,24.52,0,0,1-47.63,0l-2-.66-.14-.13,0,.15a26.44,26.44,0,0,0,51.86,0l0-.15-.15.13Z" style="fill: url(#radial-gradient-5)"/>
            <polygon points="62.54 5.19 60.88 6.85 60.95 7.9 63.74 5.11 62.54 5.19" style="fill: url(#linear-gradient)"/>
          </g>
          <path d="M64.05,28.67a24.52,24.52,0,0,0-47.63,0l-2,.66-.14.13,0-.15a26.44,26.44,0,0,1,51.86,0l0,.15-.15-.13Zm0,11.63a24.52,24.52,0,0,1-47.63,0l-2-.66-.14-.13,0,.15a26.44,26.44,0,0,0,51.86,0l0-.15-.15.13Z" style="mix-blend-mode: multiply;fill: url(#radial-gradient-6)"/>
          <g style="clip-path: url(#clip-path)">
            <path d="M40.24,60.8a26.32,26.32,0,1,1,18.6-7.71A26.15,26.15,0,0,1,40.24,60.8Zm17.32-9A24.49,24.49,0,1,0,40.24,59,24.32,24.32,0,0,0,57.56,51.81Z" style="mix-blend-mode: multiply;fill: url(#radial-gradient-7)"/>
          </g>
          <polygon points="16.42 28.66 64.05 28.66 66.05 29.33 66.2 29.46 14.28 29.46 14.42 29.33 16.42 28.66" style="fill: url(#linear-gradient-2)"/>
          <polygon points="16.42 40.3 64.05 40.3 66.05 39.64 66.2 39.51 14.28 39.51 14.42 39.64 16.42 40.3" style="fill: url(#linear-gradient-3)"/>
          <polygon points="62.54 5.19 60.88 6.85 60.95 7.9 63.74 5.11 62.54 5.19" style="mix-blend-mode: multiply;fill: url(#linear-gradient-4)"/>
          <polygon points="69.64 11.02 66.85 13.81 67.9 13.88 69.56 12.22 69.64 11.02" style="fill: url(#linear-gradient-5)"/>
          <polygon points="73.47 1.27 73.47 16.17 74.26 16.96 74.26 0.48 73.47 1.27" style="fill: url(#linear-gradient-6)"/>
          <polygon points="74.26 0.48 57.77 0.48 58.56 1.27 73.47 1.27 74.26 0.48" style="fill: url(#linear-gradient-7)"/>
          <polygon points="16.42 28.66 64.05 28.66 66.05 29.33 66.2 29.46 14.28 29.46 14.42 29.33 16.42 28.66" style="mix-blend-mode: multiply;fill: url(#linear-gradient-8)"/>
          <polygon points="14.28 39.51 66.2 39.51 66.05 39.64 64.05 40.3 16.42 40.3 14.42 39.64 14.28 39.51" style="mix-blend-mode: multiply;fill: url(#linear-gradient-9)"/>
          <polygon points="14.28 39.51 66.2 39.51 66.05 39.64 64.05 40.3 16.42 40.3 14.42 39.64 14.28 39.51" style="mix-blend-mode: multiply;fill: url(#linear-gradient-10)"/>
          <path d="M66.85,13.81l.07.09a33.71,33.71,0,0,1-2.86,44.41A33.69,33.69,0,1,1,16.41,10.66,33.69,33.69,0,0,1,60.86,7.84L61,7.9l-.08-1.05a34.41,34.41,0,1,0,7,7Z" style="mix-blend-mode: multiply;fill: url(#radial-gradient-8)"/>
          <polygon points="62.54 5.19 60.88 6.85 60.95 7.9 63.74 5.11 62.54 5.19" style="mix-blend-mode: multiply;fill: url(#linear-gradient-11)"/>
          <polygon points="69.64 11.02 66.85 13.81 67.9 13.88 69.56 12.22 69.64 11.02" style="mix-blend-mode: multiply;fill: url(#linear-gradient-12)"/>
          <path d="M73.11,16.17a38.22,38.22,0,0,0-3.38-5L69.64,11l-.08,1.2A36.66,36.66,0,0,1,72.63,17Z" style="fill: url(#radial-gradient-9)"/>
          <polygon points="73.47 16.17 73.11 16.17 72.63 16.96 74.26 16.96 73.47 16.17" style="fill: url(#linear-gradient-13)"/>
          <polygon points="73.47 1.27 73.47 16.17 74.26 16.96 74.26 0.48 73.47 1.27" style="mix-blend-mode: multiply;fill: url(#linear-gradient-14)"/>
          <polygon points="74.26 0.48 57.77 0.48 58.56 1.27 73.47 1.27 74.26 0.48" style="mix-blend-mode: multiply;fill: url(#linear-gradient-15)"/>
          <polygon points="57.77 0.48 57.77 2.1 58.56 1.62 58.56 1.27 57.77 0.48" style="fill: url(#linear-gradient-16)"/>
          <path d="M57.77,2.1a36,36,0,0,1,4.77,3.09l1.2-.08L63.63,5a37.15,37.15,0,0,0-5.07-3.41Z" style="fill: url(#radial-gradient-10)"/>
          <path d="M40.24,8.05A26.45,26.45,0,0,1,66.17,29.31l0,.15-.15-.13-2-.66A24.55,24.55,0,0,0,40.24,10Z" style="fill: url(#linear-gradient-17)"/>
          <path d="M40.24,8.05A26.45,26.45,0,0,1,66.17,29.31l0,.15-.15-.13-2-.66A24.55,24.55,0,0,0,40.24,10Z" style="mix-blend-mode: multiply;fill: url(#linear-gradient-18)"/>
          <g>
            <polygon points="63.92 5.1 60.95 8.07 60.94 7.74 63.55 5.12 63.92 5.1" style="fill: url(#linear-gradient-19)"/>
            <polygon points="69.63 11.21 67.01 13.82 66.68 13.8 69.65 10.84 69.63 11.21" style="fill: url(#linear-gradient-20)"/>
            <path d="M73,16.29a36.88,36.88,0,0,0-3.4-5.08l0-.37a37.57,37.57,0,0,1,3.53,5.21Z" style="fill: url(#radial-gradient-11)"/>
            <polygon points="73.59 16.29 73.03 16.29 73.18 16.05 73.34 16.05 73.59 16.29" style="fill: url(#linear-gradient-21)"/>
            <polygon points="73.59 1.15 73.59 16.29 73.34 16.05 73.34 1.39 73.59 1.15" style="fill: url(#linear-gradient-22)"/>
            <polygon points="73.34 1.39 58.69 1.39 58.44 1.15 73.59 1.15 73.34 1.39" style="fill: url(#linear-gradient-23)"/>
            <polygon points="58.69 1.39 58.69 1.55 58.44 1.69 58.44 1.15 58.69 1.39" style="fill: url(#linear-gradient-24)"/>
            <path d="M58.69,1.55A37.91,37.91,0,0,1,63.92,5.1l-.37,0a38.33,38.33,0,0,0-5.11-3.43Z" style="fill: url(#radial-gradient-12)"/>
            <g>
              <path d="M14.13,29.58A26.57,26.57,0,0,1,59,15.71a26.29,26.29,0,0,1,7.32,13.87l-.29-.25a26.33,26.33,0,0,0-51.63,0ZM66.05,39.64a26.33,26.33,0,0,1-51.63,0l-.29-.25A26.57,26.57,0,0,0,59,53.26a26.29,26.29,0,0,0,7.32-13.87Z" style="fill: url(#radial-gradient-13)"/>
              <polygon points="14.13 39.39 66.34 39.39 66.05 39.64 14.42 39.64 14.13 39.39" style="fill: url(#linear-gradient-25)"/>
              <polygon points="66.34 29.58 14.13 29.58 14.42 29.33 66.05 29.33 66.34 29.58" style="fill: url(#linear-gradient-26)"/>
              <path d="M66.68,13.8A33.57,33.57,0,0,1,16.5,58.22,33.58,33.58,0,0,1,40.24.91,33.26,33.26,0,0,1,61,8.07l0-.33A33.81,33.81,0,0,0,6.42,34.49a33.82,33.82,0,1,0,67.63,0,33.54,33.54,0,0,0-7-20.67Z" style="fill: url(#radial-gradient-14)"/>
            </g>
          </g>
          <path id="Text_O2_Highlight" data-name="Text O2 Highlight" d="M60.36,31.05c-2.82,0-4.65,1.35-4.65,3.44s1.79,3.45,4.67,3.45S65,36.64,65,34.49,63.2,31.05,60.36,31.05Zm0,5.76h0c-1,0-1.5-1.2-1.49-2.36,0-1.38.62-2.25,1.55-2.25h0c.89,0,1.5,1,1.47,2.31C61.87,35.57,61.46,36.81,60.36,36.81Z" style="fill: #0b020a"/>
          <path id="Text_O2_Shadow_Outer" data-name="Text O2 Shadow Outer" d="M63.63,31.9a3,3,0,0,1,1.26,2.48c0,2.13-1.77,3.46-4.62,3.46a4.8,4.8,0,0,1-4.07-1.62c.71,1.11,2.19,1.76,4.18,1.76C63.25,38,65,36.64,65,34.49A3,3,0,0,0,63.63,31.9Z" style="fill: #fff"/>
          <path id="Text_O2_Shadow_Inner" data-name="Text O2 Shadow Inner" d="M58.85,34.45c0-1.32.66-2.24,1.54-2.24h0c.88,0,1.48.94,1.47,2.24v0c0-1.38-.6-2.35-1.53-2.37h0c-.92,0-1.59,1-1.61,2.31,0,1.06.35,2.12,1.18,2.38A2.3,2.3,0,0,1,58.85,34.45Z" style="fill: #fff"/>
          <path id="Text_V2_Shadow_Right" data-name="Text V2 Shadow Right" d="M55.91,31.73H52.44l-.54.55a.15.15,0,0,0,.09,0H53.1l-2,3.76L49,32.32h1.37a.14.14,0,0,0,.14-.14v-.85a.13.13,0,0,0,0-.1l-.62.62h-3l2.71,4.73-1.15,1.15a.3.3,0,0,0,.15.05h3.29a.25.25,0,0,0,.2-.13l2.89-5.34h1.37a.14.14,0,0,0,.14-.14v-.85a.13.13,0,0,0,0-.1Z" style="fill: #fff"/>
          <path id="Text_V2_Shadow_Left" data-name="Text V2 Shadow Left" d="M44.38,31.85l-.43.43a.15.15,0,0,0,.09,0h1.37l.28-.47Z" style="fill: #fff"/>
          <polygon id="Text_V2_Highlight_Right" data-name="Text V2 Highlight Right" points="53.1 32.32 53.32 32.18 54.05 31.73 54.41 31.73 51.45 37.1 51.06 36.37 51.06 36.09 53.1 32.32" style="fill: #0b020a"/>
          <path id="Text_V2_Highlight_Top" data-name="Text V2 Highlight Top" d="M55.91,31.73l.5-.5a.15.15,0,0,0-.1,0H52a.13.13,0,0,0-.13.14v.85a.13.13,0,0,0,0,.1l.54-.55Z" style="fill: #0b020a"/>
          <path id="Text_V2_Highlight_Left" data-name="Text V2 Highlight Left" d="M46.85,31.85h3l.62-.62a.15.15,0,0,0-.1,0H44.05a.14.14,0,0,0-.14.14v.85a.13.13,0,0,0,0,.1l.43-.43h1.31l-.28.47,2.94,5.34.06.07.09-.08,1.06-1.07Z" style="fill: #0b020a"/>
          <path id="Text_V_Shadow_Left" data-name="Text V Shadow Left" d="M15.7,31.85l-.43.43a.15.15,0,0,0,.09,0h1.38l.27-.47Z" style="fill: #fff"/>
          <polygon id="Text_V_Highlight_Right" data-name="Text V Highlight Right" points="24.42 32.32 24.64 32.18 25.35 31.73 25.73 31.73 22.78 37.1 22.38 36.37 22.38 36.09 24.42 32.32" style="fill: #0b020a"/>
          <path id="Text_V_Highlight_Left" data-name="Text V Highlight Left" d="M18.17,31.85h3l.61-.62a.15.15,0,0,0-.1,0H15.37a.14.14,0,0,0-.14.14v.85a.13.13,0,0,0,0,.1l.43-.43H17l-.27.47,2.93,5.34a.23.23,0,0,0,.07.07l1.14-1.15Z" style="fill: #0b020a"/>
          <path id="Text_L_Shadow_Right" data-name="Text L Shadow Right" d="M45.65,34.69l-.51.5V37H40.82l.39-.39h0V32.32h1.35a.13.13,0,0,0,.14-.14v-.85a.18.18,0,0,0,0-.1l-.5.5H39.63V37.2H37.18l-.54.54a.15.15,0,0,0,.1,0h8.81a.14.14,0,0,0,.14-.14V34.79A.18.18,0,0,0,45.65,34.69Z" style="fill: #fff"/>
          <path id="Text_L_Shadow_Left" data-name="Text L Shadow Left" d="M37.18,31.73l-.54.55a.15.15,0,0,0,.1,0H38.1l.58-.59Z" style="fill: #fff"/>
          <path id="Text_L_Highlight_Right" data-name="Text L Highlight Right" d="M45.14,37V35.19l.51-.5a.18.18,0,0,0-.1,0H44.7c-.13,0-.13.14-.13.14a1.84,1.84,0,0,1-2,1.85h-1.4l-.39.39Z" style="fill: #0b020a"/>
          <path id="Text_L_Highlight_Left" data-name="Text L Highlight Left" d="M39.63,37.2V31.73h2.53l.5-.5a.18.18,0,0,0-.1,0H36.74a.14.14,0,0,0-.14.14v.85a.13.13,0,0,0,0,.1l.54-.55h1.5l-.58.59h0v4.32H36.74a.14.14,0,0,0-.14.14v.86a.13.13,0,0,0,0,.1l.54-.54Z" style="fill: #0b020a"/>
          <path id="Text_O_Highlight" data-name="Text O Highlight" d="M31.69,31.05c-2.82,0-4.65,1.35-4.65,3.44s1.79,3.45,4.67,3.45,4.62-1.3,4.62-3.45S34.53,31.05,31.69,31.05Zm0,5.76h0c-1.05,0-1.51-1.2-1.49-2.36,0-1.38.62-2.25,1.55-2.25h0c.89,0,1.49,1,1.47,2.31C33.2,35.57,32.79,36.81,31.69,36.81Z" style="fill: #0b020a"/>
          <path id="Text_O_Shadow_Outer" data-name="Text O Shadow Outer" d="M35,31.9a3,3,0,0,1,1.26,2.48c0,2.13-1.77,3.46-4.62,3.46a4.8,4.8,0,0,1-4.07-1.62c.71,1.11,2.18,1.76,4.18,1.76,2.87,0,4.65-1.34,4.65-3.49A3,3,0,0,0,35,31.9Z" style="fill: #fff"/>
          <path id="Text_O_Shadow_Inner" data-name="Text O Shadow Inner" d="M30.18,34.45c0-1.32.65-2.24,1.54-2.24h0c.88,0,1.48.94,1.47,2.24v0c0-1.38-.61-2.35-1.53-2.37h0c-.93,0-1.59,1-1.61,2.31,0,1.06.34,2.12,1.18,2.38A2.29,2.29,0,0,1,30.18,34.45Z" style="fill: #fff"/>
          <path id="Text_V_Shadow_Right" data-name="Text V Shadow Right" d="M27.23,31.73H23.76l-.54.55a.15.15,0,0,0,.1,0h1.1l-2,3.76-2.06-3.76h1.37a.14.14,0,0,0,.14-.14v-.85a.13.13,0,0,0,0-.1l-.61.62h-3l2.71,4.73-1.14,1.15a.24.24,0,0,0,.14.05h3.29a.24.24,0,0,0,.2-.13l2.89-5.34h1.37a.14.14,0,0,0,.14-.14v-.85a.13.13,0,0,0,0-.1Z" style="fill: #fff"/>
          <path id="Text_V_Highlight_Top" data-name="Text V Highlight Top" d="M27.23,31.73l.5-.5a.15.15,0,0,0-.1,0H23.31a.13.13,0,0,0-.13.14v.85a.13.13,0,0,0,0,.1l.54-.55Z" style="fill: #0b020a"/>
          <path id="Text_Face" data-name="Text Face" d="M60.38,37.84c-2.79,0-4.53-1.28-4.53-3.35s1.77-3.3,4.51-3.3,4.54,1.3,4.54,3.3S63.17,37.84,60.38,37.84Zm0-.89c1.2,0,1.65-1.32,1.67-2.44,0-1.42-.64-2.42-1.61-2.44h0c-1,0-1.66,1-1.68,2.38,0,1.23.47,2.47,1.62,2.5Zm-28.65.89c-2.8,0-4.53-1.28-4.53-3.35s1.77-3.3,4.51-3.3,4.53,1.3,4.53,3.3S34.49,37.84,31.71,37.84Zm0-.89c1.21,0,1.66-1.32,1.68-2.44A3.24,3.24,0,0,0,33,32.83a1.41,1.41,0,0,0-1.22-.76h0c-1,0-1.66,1-1.68,2.38,0,1.23.47,2.47,1.61,2.5Zm20,.7H48.5l-3-5.47H44v-.85h6.32v.85H48.76l2.3,4.19,2.21-4.09,0-.1H52v-.85h4.32v.85H54.86l-3,5.47ZM23,37.65H19.82l-3-5.47H15.36v-.85h6.33v.85H20.08l2.3,4.19,2.26-4.19H23.31v-.85h4.32v.85H26.18l-3,5.47Zm13.78-.87h1.5v-4.6h-1.5v-.85h5.82v.85H41.08v4.6h1.53a2,2,0,0,0,2.09-2h.85v2.85H36.74Z" style="fill: #133c8a"/>
          <path id="Text_Face-2" data-name="Text Face" d="M60.38,37.84c-2.79,0-4.53-1.28-4.53-3.35s1.77-3.3,4.51-3.3,4.54,1.3,4.54,3.3S63.17,37.84,60.38,37.84Zm0-.89c1.2,0,1.65-1.32,1.67-2.44,0-1.42-.64-2.42-1.61-2.44h0c-1,0-1.66,1-1.68,2.38,0,1.23.47,2.47,1.62,2.5Zm-28.65.89c-2.8,0-4.53-1.28-4.53-3.35s1.77-3.3,4.51-3.3,4.53,1.3,4.53,3.3S34.49,37.84,31.71,37.84Zm0-.89c1.21,0,1.66-1.32,1.68-2.44A3.24,3.24,0,0,0,33,32.83a1.41,1.41,0,0,0-1.22-.76h0c-1,0-1.66,1-1.68,2.38,0,1.23.47,2.47,1.61,2.5Zm20,.7H48.5l-3-5.47H44v-.85h6.32v.85H48.76l2.3,4.19,2.21-4.09,0-.1H52v-.85h4.32v.85H54.86l-3,5.47ZM23,37.65H19.82l-3-5.47H15.36v-.85h6.33v.85H20.08l2.3,4.19,2.26-4.19H23.31v-.85h4.32v.85H26.18l-3,5.47Zm13.78-.87h1.5v-4.6h-1.5v-.85h5.82v.85H41.08v4.6h1.53a2,2,0,0,0,2.09-2h.85v2.85H36.74Z" style="mix-blend-mode: multiply;fill: url(#linear-gradient-27)"/>
        </g>
        <g>
          <path d="M24.14,173a4.84,4.84,0,0,1-3.51,8.18,4.6,4.6,0,0,1-3.31-1.32l-1.79,1.77-1.78-1.79a4.72,4.72,0,0,1-3.37,1.34,4.85,4.85,0,0,1-4.84-4.85A4.75,4.75,0,0,1,6.87,173L5.12,171.2l1.77-1.77a4.58,4.58,0,0,1-1.33-3.28A4.72,4.72,0,0,1,7,162.71a4.62,4.62,0,0,1,3.41-1.41,4.7,4.7,0,0,1,3.37,1.35c.26-.26.86-.84,1.78-1.76q.6.56,1.77,1.74a4.82,4.82,0,0,1,8.16,3.52,4.69,4.69,0,0,1-1.29,3.28l1.74,1.75L24.14,173Zm-3.51-9.78a2.65,2.65,0,0,0-2,.79l4.19,4.17a2.74,2.74,0,0,0,.77-1.94,3,3,0,0,0-3-3Zm-2.89,2.26a2.54,2.54,0,0,0-.1.76,2.83,2.83,0,0,0,.88,2.09,2.93,2.93,0,0,0,2.11.86,3.3,3.3,0,0,0,.75-.07l-3.64-3.64Zm5,5a4.21,4.21,0,0,1-2.15.53,4.8,4.8,0,0,1-4.82-4.81,4.54,4.54,0,0,1,.49-2.07l-.77-.85-.79.82a4.75,4.75,0,0,1,.48,2.1,4.59,4.59,0,0,1-1.42,3.41,4.65,4.65,0,0,1-3.42,1.4,5,5,0,0,1-2.07-.46l-.68.68.69.71a5.2,5.2,0,0,1,2.06-.48,4.85,4.85,0,0,1,4.86,4.87,4.88,4.88,0,0,1-.45,2.07l.75.79.73-.75a5,5,0,0,1-.48-2.11,4.69,4.69,0,0,1,1.42-3.44,4.75,4.75,0,0,1,5.56-.91l.77-.75-.76-.75Zm-2.15,2.86a2.87,2.87,0,0,0-2.09.86,2.83,2.83,0,0,0-.86,2.08,3.11,3.11,0,0,0,.07.71l3.57-3.59a4,4,0,0,0-.69-.06Zm2.19,1q-1.17,1.23-4.16,4.23a2.82,2.82,0,0,0,2,.77,2.79,2.79,0,0,0,2.1-.91,3,3,0,0,0,.86-2.14,2.77,2.77,0,0,0-.77-1.95ZM10.38,163.17a3,3,0,0,0-3,3,2.75,2.75,0,0,0,.77,2L12.44,164a2.93,2.93,0,0,0-2.06-.81Zm2.93,2.32q-1,1-3.59,3.58a3.3,3.3,0,0,0,.66.07,3,3,0,0,0,2.15-.85,2.8,2.8,0,0,0,.88-2.1,2.57,2.57,0,0,0-.1-.7Zm-2.93,7.8a5.54,5.54,0,0,0-.59,0l3.49,3.52a2.6,2.6,0,0,0,.07-.61,2.84,2.84,0,0,0-.86-2.09,2.89,2.89,0,0,0-2.11-.85Zm-2.19,1a2.83,2.83,0,0,0-.74,2,3,3,0,0,0,.86,2.13,2.77,2.77,0,0,0,2.07.92,2.68,2.68,0,0,0,2-.84l-4.2-4.19Z" style="fill: #00529b;fill-rule: evenodd"/>
          <path d="M31.27,180.46h3.88v-6.65H39.4a5.94,5.94,0,1,0,0-11.85H31.27v18.5Zm3.88-15.34h3a4.58,4.58,0,0,1,2.4.49,2.45,2.45,0,0,1,1,2.26,2.49,2.49,0,0,1-1,2.23,4.43,4.43,0,0,1-2.45.54h-3v-5.52Z" style="fill: #00529b;fill-rule: evenodd"/>
          <path d="M58.89,174.65A9.35,9.35,0,0,0,57.32,169a5.79,5.79,0,0,0-5-2.41,6.52,6.52,0,0,0-5.06,2.13,7.26,7.26,0,0,0-1.8,5.08,7,7,0,0,0,1.75,4.92,6.59,6.59,0,0,0,5.11,2.08,6.1,6.1,0,0,0,6.3-4.48h-3.3a2.14,2.14,0,0,1-1.15,1.25,3.64,3.64,0,0,1-1.71.45q-3.26,0-3.25-3.34Zm-9.64-2.32a2.79,2.79,0,0,1,.65-1.8,2.9,2.9,0,0,1,2.37-1c1.56,0,2.52.94,2.87,2.83Z" style="fill: #00529b;fill-rule: evenodd"/>
          <path d="M60,180.44h3.56v-6c0-3,1.3-4.45,3.9-4.45a5.17,5.17,0,0,1,1.24.13V166.7a2.09,2.09,0,0,0-.75-.12,5.76,5.76,0,0,0-2.76.53,5.63,5.63,0,0,0-1.76,2h0v-2.27H60v13.59Z" style="fill: #00529b"/>
          <path d="M82.78,180.46c-.35,0-1.79,0-4.33,0l-4.15-6.22-1.17,1.16v5.06H69.66V162h3.47v9.62l4.59-4.79H82L77,171.86l5.8,8.6Z" style="fill: #00529b"/>
          <path d="M83.76,180.46h3.69V166.79H83.76v13.67Zm-.15-16.86a2,2,0,0,1,2-2,2,2,0,0,1,2,2,2,2,0,0,1-2,2,2,2,0,0,1-2-2Z" style="fill: #00529b;fill-rule: evenodd"/>
          <path d="M89.12,180.44h3.64v-7a5.65,5.65,0,0,1,.46-2.6,2.31,2.31,0,0,1,2.18-1.2,2.18,2.18,0,0,1,2.15,1.06,5.07,5.07,0,0,1,.38,2.21v7.49h3.64v-8.17a6.9,6.9,0,0,0-1-4.16c-.76-1-2.11-1.51-4-1.51a4.45,4.45,0,0,0-2.17.6A4.89,4.89,0,0,0,92.67,169h-.09V166.8H89.12v13.64Z" style="fill: #00529b"/>
          <path d="M102.72,176.07a4.08,4.08,0,0,0,1.91,3.67,8,8,0,0,0,4.34,1,7.71,7.71,0,0,0,4.24-1,4.06,4.06,0,0,0,1.84-3.64A3.2,3.2,0,0,0,113,173a10.6,10.6,0,0,0-2-.64l-2.12-.44c-1.39-.32-2.08-.83-2.08-1.54s.65-1.23,2-1.23c1.74,0,2.61.59,2.61,1.78h3.38a3.63,3.63,0,0,0-1.75-3.3,7.76,7.76,0,0,0-4.15-.93q-3.6,0-5,1.64A4,4,0,0,0,103,171a3.08,3.08,0,0,0,2.13,2.93,13.6,13.6,0,0,0,2.16.61c1,.22,1.72.41,2.18.55,1.36.41,2,.91,2,1.51a1.46,1.46,0,0,1-.73,1.32,3.44,3.44,0,0,1-1.8.39,3.11,3.11,0,0,1-1.93-.55,2.14,2.14,0,0,1-1-1.7Z" style="fill: #00529b"/>
          <path d="M118.85,166.55a2.31,2.31,0,0,1,1.09.29,2,2,0,0,1,.82.81,2.26,2.26,0,0,1,.3,1.11,2.29,2.29,0,0,1-.29,1.1,2.06,2.06,0,0,1-.82.81,2.17,2.17,0,0,1-1.1.3,2.19,2.19,0,0,1-1.1-.3,2,2,0,0,1-.81-.81,2.18,2.18,0,0,1-.29-1.1,2.25,2.25,0,0,1,.29-1.11,2.09,2.09,0,0,1,.83-.81,2.24,2.24,0,0,1,1.08-.29Zm0,.37a1.84,1.84,0,0,0-.9.24,1.62,1.62,0,0,0-.69.68,1.79,1.79,0,0,0-.25.92,1.91,1.91,0,0,0,.24.92,1.88,1.88,0,0,0,.69.68,1.85,1.85,0,0,0,.91.24,1.89,1.89,0,0,0,.92-.24,1.78,1.78,0,0,0,.68-.68,1.91,1.91,0,0,0,.24-.92,1.79,1.79,0,0,0-.25-.92,1.65,1.65,0,0,0-.68-.68,1.91,1.91,0,0,0-.91-.24Zm-1,3.06v-2.37h.82a2.24,2.24,0,0,1,.61.06.68.68,0,0,1,.3.23.66.66,0,0,1,.11.35.61.61,0,0,1-.19.45.75.75,0,0,1-.49.22.76.76,0,0,1,.2.12,3.54,3.54,0,0,1,.35.47l.29.47h-.47l-.21-.38a2,2,0,0,0-.4-.55.52.52,0,0,0-.31-.08h-.22v1Zm.39-1.34h.46a.72.72,0,0,0,.46-.1.31.31,0,0,0,.12-.26.33.33,0,0,0-.06-.19.4.4,0,0,0-.16-.12,1.17,1.17,0,0,0-.39,0h-.43v.71Z" style="fill: #00529b;fill-rule: evenodd"/>
        </g>
        <g>
          <path d="M254.72,170.75c0,.31-.16.44-.47.46l.42.73h-.42l-.38-.73h-.27v.73h-.38v-1.72h.84c.39,0,.66.07.66.53m-.66.21c.19,0,.3,0,.3-.26s-.22-.18-.38-.18h-.38V171h.46m-.18-1.52a1.66,1.66,0,1,1-1.65,1.66,1.65,1.65,0,0,1,1.65-1.66m0,2.92a1.26,1.26,0,1,0-1.26-1.26,1.22,1.22,0,0,0,1.26,1.26m-10.43-18.73c5.52,0,9,6.92,3,11l5.21,7.32h-5.47l-4.08-5.62v5.62h-4.9V153.63h6.27m0,7.77a1.76,1.76,0,1,0,0-3.52h-1.42v3.52h1.42M231,164.85h4.64v-4.1H231v-2.89h5v-4.22H225.86v18.31h10.2v-4.3H231v-2.79ZM187.64,153.1a9.54,9.54,0,1,1-9.44,9.54,9.49,9.49,0,0,1,9.44-9.54m0,14.23a4.72,4.72,0,1,0-4.25-4.7,4.49,4.49,0,0,0,4.25,4.7m-22.95-13.7v18.31h5v-6.53h0l5.61,6.54h6.62l-8.26-9.59,7.23-8.71h-6.49l-4.73,5.44v-5.45ZM208,160.05h-5.05v-6.42h-5v18.31h5v-6.81H208v6.81h5V153.63h-5v6.42Zm11.26,7.21h5.61v4.68H214.21V153.63h5v13.63Z" style="fill: #fff"/>
          <path d="M164.69,175.9h1.66V183h-1.66V175.9Zm2.68,0h1.9l1.37,4.59h0V175.9h1.54V183h-1.88l-1.45-4.86h0V183h-1.48V175.9Zm9.41,3.07h.46c.66,0,.82-.42.82-.89s-.18-1-.85-1h-.43V179Zm-1.66-3.07h2.57a1.93,1.93,0,0,1,2.09,2.14c0,1.26-.6,2.15-2.26,2.15h-.74V183h-1.66V175.9Zm10,3.53c0,2-.14,3.67-2.48,3.67-2.19,0-2.48-1.43-2.48-3.67s.29-3.67,2.48-3.67c2.34,0,2.48,1.71,2.48,3.67m-3.24,0c0,1.94.09,2.56.75,2.56s.77-.62.77-2.56-.1-2.56-.77-2.56-.75.62-.75,2.56m3.61-3.53h1.66l.61,5h0l.74-5h1.54l.79,5h0l.59-5h1.6L191.85,183H190l-.72-5h0l-.68,5h-1.84l-1.25-7.06Zm8.22,0h4.08v1.34h-2.42v1.42h2.28V180h-2.28v1.61h2.53V183h-4.19V175.9Zm5,0h2.78a1.69,1.69,0,0,1,1.9,1.84c0,1-.4,1.53-1.18,1.72v0c1.06.16,1.1.81,1.13,1.76,0,1.39.09,1.53.32,1.63V183h-1.79a3.31,3.31,0,0,1-.18-1.44c0-1.22-.17-1.48-.69-1.48h-.63V183h-1.66V175.9Zm1.66,3h.51a.82.82,0,0,0,.85-.92c0-.53-.2-.89-.86-.89h-.5v1.81Zm8.92,1.92v.25c0,.54.14.94.72.94s.75-.43.75-.84c0-1.52-3-.67-3-3.31,0-1.13.6-2.08,2.31-2.08s2.25.85,2.25,1.93v.17h-1.6a1.46,1.46,0,0,0-.14-.74.52.52,0,0,0-.5-.25c-.43,0-.66.25-.66.76,0,1.48,3,.72,3,3.22,0,1.61-.89,2.25-2.41,2.25-1.22,0-2.32-.37-2.32-1.84v-.46Zm3.93-4.9h1.66V183H213.2V175.9Zm2.67,0h1.91l1.36,4.59h0V175.9h1.54V183h-1.87l-1.46-4.86h0V183h-1.48V175.9Zm8.75,2.45c0-1-.12-1.48-.67-1.48s-.72.63-.72,2.48c0,2.1.07,2.64.76,2.64s.69-.7.69-1.8h1.6v.25c0,1.52-.42,2.66-2.48,2.66s-2.29-1.59-2.29-3.72c0-1.81.11-3.62,2.45-3.62,1.46,0,2.26.64,2.26,2.3v.29ZM227,175.9h4.08v1.34h-2.42v1.42H231V180h-2.27v1.61h2.53V183H227V175.9Zm7.39,2.2h-1.35v-1h.21c1.26,0,1.55-.65,1.63-1.1h1.17v7h-1.66V178.1Zm4.7,1.36c.5,0,.61-.49.61-1.12,0-.83-.13-1.33-.62-1.33s-.61.45-.61,1.21.1,1.24.62,1.24m-.54,1.86a1.06,1.06,0,0,0,.1.51.43.43,0,0,0,.4.22c.56,0,.71-.44.71-2h0a1.26,1.26,0,0,1-1.25.61c-1.07,0-1.68-.6-1.68-2.17,0-1.39.45-2.55,2.29-2.55,2.07,0,2.32,1.31,2.32,3.41,0,2.33-.17,3.73-2.44,3.73-1.26,0-2-.52-2-1.78Zm3.32-3v-.22c0-1.41.75-2.11,2.26-2.11,1.69,0,2.16.86,2.16,2a2.58,2.58,0,0,1-1.11,2.27,6.74,6.74,0,0,0-1.36,1.48h2.48V183h-4.47a4.11,4.11,0,0,1,1.58-3.15c1.2-1.06,1.22-1.36,1.22-1.88s-.11-.92-.58-.92c-.64,0-.64.75-.64,1.28Zm9.66,1.24c0,2-.22,3.57-2.3,3.57s-2.3-1.32-2.3-3.57c0-2,.23-3.57,2.3-3.57s2.3,1.31,2.3,3.57m-2.94,0c0,2,.08,2.51.64,2.51s.65-.53.65-2.51-.08-2.53-.65-2.53-.64.52-.64,2.53m4.06,3.41a.8.8,0,1,0-.8-.8.8.8,0,0,0,.8.8m-47.77,0a.8.8,0,1,1,0-1.59.8.8,0,0,1,0,1.59" style="fill: #fff"/>
        </g>
        <path d="M88.18,105.94a.56.56,0,0,1-.49.45H84a.54.54,0,0,1-.55-.62l.76-4.22c.07-.34.25-.56.56-.56h7.32l.64-3.43H83.1a1.66,1.66,0,0,0-1.62,1.34l-.09.5-1.31,7.14-.23,1.23a1.74,1.74,0,0,0,0,.75,1.78,1.78,0,0,0,1.75,1.3h7.26a1.87,1.87,0,0,0,1.83-1.49l1.08-5.86H86.25l-.43,2.45h2.55l-.19,1ZM40.09,97.56,37.52,111.5,28.65,98.63l-3.23,17.56h3.46l1.6-8.67,6,8.67h3.78l3.42-18.63Zm-3.19,11,3.17-17.33H36.7L35.08,100,29,91.19H25.2l-3.45,18.63h3.57l2.6-14.31,9,13ZM15.74,101H21.9l.63-3.43H13l-2.25,12.26h9.53l.63-3.43H14.73l.27-1.47h6.15l.46-2.45H15.47l.27-1.48Zm32.2,0h6l.64-3.43H45.15l-2.26,12.26h9.48l.62-3.43H46.88l.29-1.47h6.11l.44-2.45h-6l.25-1.48Zm64.76-3.43-1.21,6.5-3.68-6.5H105l-2.27,12.26h3.18l1.23-6.7,3.73,6.7h2.76l2.26-12.26Zm-104,4.91h-3c-.48,0-.65-.35-.57-.76a.85.85,0,0,1,.83-.72h5l.64-3.43H3.64A1.62,1.62,0,0,0,2,98.83L2,99l-.73,4A1.63,1.63,0,0,0,2,104.69a1.71,1.71,0,0,0,.89.23h3a.64.64,0,0,1,.58.76.74.74,0,0,1-.85.71h-5L0,109.82H7.73a1.86,1.86,0,0,0,1.81-1.41,41.46,41.46,0,0,0,.75-4.33,1.61,1.61,0,0,0-1.61-1.61ZM79.9,99.56l-1.6,8.86a2.1,2.1,0,0,1-2,1.4H68.63a2,2,0,0,1-1.95-2.5c0-.09,1.52-8.36,1.52-8.36a1.83,1.83,0,0,1,1.8-1.4h8.25a1.57,1.57,0,0,1,1.69,1.64c0,.09,0,.36,0,.36Zm-13.15-.09-.5,2.72,0,.11a1.62,1.62,0,0,1-1.39,1.27,1.59,1.59,0,0,1,.85,1.47,1.64,1.64,0,0,1,0,.22c0,.09-.58,3.15-.58,3.15-.14.8-.73,1.41-2.21,1.41H53.75L56,97.56h9.13a1.53,1.53,0,0,1,1.63,1.65,2.11,2.11,0,0,1,0,.26ZM96.88,101H103l.64-3.43h-9.5l-2.26,12.26h9.48l.65-3.43H95.86l.27-1.47h6.13l.44-2.45H96.62l.26-1.48Zm-34.5,0H58.85l-.27,1.48h3.53a.78.78,0,0,0,.75-.73c.08-.43-.15-.74-.48-.75Zm13.3-.49H71.5c-.28,0-.42.24-.5.5l-.84,4.63a.6.6,0,0,0,.58.76h4.11a.62.62,0,0,0,.55-.5l.86-4.63a.6.6,0,0,0-.58-.76Zm-14,4.42H58.08l-.27,1.47h3.56a.8.8,0,0,0,.76-.73c0-.39-.13-.75-.49-.74Z" style="fill: #fff"/>
        <g>
          <path d="M196,93.39l1.49,4.79v0c0,.08,0,.17-.12.17H194.4c-.13,0-.17,0-.17-.17v0l1.46-4.79a.13.13,0,0,1,.12-.12.18.18,0,0,1,.17.12Zm46.59,3.25a24,24,0,0,0-.25,3.49,20,20,0,0,0,.25,3.46c.17,1,.83,1.37,1.87,1.37s1.71-.29,1.92-1.33a21.1,21.1,0,0,0,.21-3.5,28.1,28.1,0,0,0-.21-3.53c-.17-1-.83-1.33-1.87-1.33s-1.75.33-1.92,1.37Zm2,9.61c-4,0-6.12-2.25-6.12-6.07s2.17-6,6.12-6,6.12,2.08,6.12,6-2.21,6.07-6.12,6.07Zm-6.86-4.12c0,2-1.71,3.5-3.91,3.91a15.82,15.82,0,0,1-6.45-.29.23.23,0,0,1-.21-.25v-3.37a.28.28,0,0,1,.29-.29H229a.28.28,0,0,1,.29.29v.54c0,1.08.08,2.37,2.08,2.37,1.75,0,2.21-.7,2.33-1.29a1.7,1.7,0,0,0-1.46-2.12c-1.12-.29-1.66-.33-2.95-.75-2.91-.87-2.79-5.82,1.17-6.49a15.92,15.92,0,0,1,6.32.29.24.24,0,0,1,.21.25v2.46a.29.29,0,0,1-.29.29h-1.38a.29.29,0,0,1-.29-.29v-.21c0-.67-.12-1.79-2.08-1.79s-2,1-2,1.46.13,1.08,1.42,1.37a24.14,24.14,0,0,1,2.83.75,3.35,3.35,0,0,1,2.58,3.16Zm-31.87,2.29a.28.28,0,0,1-.29.29h-1.33a.26.26,0,0,1-.25-.21l-3.79-11.69a1.68,1.68,0,0,0-1.58-1.37H195a.88.88,0,0,0-.83.71l-3.7,12.31a.46.46,0,0,1-.42.25h-1.91a.29.29,0,0,0-.3.29v.67a.29.29,0,0,0,.3.29h6.61a.28.28,0,0,0,.29-.29V105a.28.28,0,0,0-.29-.29h-2a.31.31,0,0,1-.29-.29v-.08l1.17-4a.22.22,0,0,1,.21-.12h3.91c.08,0,.16,0,.16.12l1.25,4v.08a.28.28,0,0,1-.29.29h-2a.29.29,0,0,0-.3.29v.67a.29.29,0,0,0,.3.29h14.14a.32.32,0,0,0,.33-.29V105a.32.32,0,0,0-.33-.29h-1.21a.32.32,0,0,1-.33-.29V93A1.58,1.58,0,0,0,208,91.44h-3.62a.33.33,0,0,0-.29.33v.63a.29.29,0,0,0,.29.29h1c.13,0,.33,0,.33,1.41l.09,10.32Zm46.47,0v0a.28.28,0,0,1-.29.29H251a.29.29,0,0,0-.3.29v.67a.29.29,0,0,0,.3.29h6.28a.29.29,0,0,0,.29-.29V105a.29.29,0,0,0-.29-.29h-.92a.28.28,0,0,1-.29-.29V97.64A1.62,1.62,0,0,1,257.67,96a1.66,1.66,0,0,1,1.67,1.62v6.78a.28.28,0,0,1-.29.29h-.75a.28.28,0,0,0-.29.29v.67a.28.28,0,0,0,.29.29h6.28a.28.28,0,0,0,.29-.29V105a.28.28,0,0,0-.29-.29h-1.25a.28.28,0,0,1-.29-.29v-7c0-2.17-1.75-3.08-3.66-3.08a4.27,4.27,0,0,0-3.2,1.12c-.17.09-.21,0-.25-.08a1.58,1.58,0,0,0-1.46-.92h-3.58a.29.29,0,0,0-.29.3v.62a.28.28,0,0,0,.29.29h1c.21,0,.42.21.42,8.78Zm-31.49-8.78h-1.05a.28.28,0,0,1-.29-.29v-.62a.29.29,0,0,1,.29-.3h3.58A1.58,1.58,0,0,1,225,96v8.4a.28.28,0,0,0,.29.29h1.25a.28.28,0,0,1,.29.29v.67a.28.28,0,0,1-.29.29H219.9a.28.28,0,0,1-.29-.29V105a.28.28,0,0,1,.29-.29H221a.28.28,0,0,0,.29-.29v-8.2c0-.29-.08-.58-.41-.58Zm-7.7-3h-1a.28.28,0,0,1-.29-.29v-.63a.32.32,0,0,1,.29-.33h3.58A1.58,1.58,0,0,1,217.28,93v11.4a.28.28,0,0,0,.29.29h1.25a.29.29,0,0,1,.29.29v.67a.29.29,0,0,1-.29.29H212.2a.29.29,0,0,1-.29-.29V105a.29.29,0,0,1,.29-.29h1.08a.28.28,0,0,0,.29-.29V93.1a.44.44,0,0,0-.41-.41Z" style="fill: #373894;fill-rule: evenodd"/>
          <path d="M206.79,115.65v0a.18.18,0,0,1-.16.17H206a.11.11,0,0,0-.12.12v.38c0,.08,0,.16.12.16l3.37,0c.09,0,.17,0,.17-.12v-.38c0-.08-.08-.12-.17-.12h-.49a.18.18,0,0,1-.17-.17V112a.9.9,0,0,1,.87-.87.88.88,0,0,1,.88.87v3.62c0,.08-.05.17-.13.17H210c-.09,0-.17,0-.17.12v.38a.17.17,0,0,0,.17.16l3.32,0c.09,0,.17,0,.17-.12v-.38c0-.08-.08-.12-.17-.12h-.62a.16.16,0,0,1-.17-.17v-3.74c0-1.17-.91-1.67-2-1.67a2.29,2.29,0,0,0-1.71.63c-.08,0-.12,0-.12,0a.92.92,0,0,0-.79-.5H206c-.08,0-.12.08-.12.16v.34c0,.08,0,.16.12.16h.59c.12,0,.2.09.2,4.66Zm52,0v0a.19.19,0,0,1-.17.17h-.58c-.09,0-.17,0-.17.12v.38a.17.17,0,0,0,.17.16l3.37,0a.11.11,0,0,0,.12-.12v-.38a.11.11,0,0,0-.12-.12h-.5a.19.19,0,0,1-.17-.17V112a.91.91,0,0,1,.88-.87.88.88,0,0,1,.87.87v3.62a.16.16,0,0,1-.17.17H262c-.08,0-.17,0-.17.12v.38a.18.18,0,0,0,.17.16l3.33,0c.08,0,.16,0,.16-.12v-.38c0-.08-.08-.12-.16-.12h-.67c-.08,0-.12-.09-.12-.17v-3.74c0-1.17-1-1.67-2-1.67a2.2,2.2,0,0,0-1.7.63c-.09,0-.13,0-.17,0a.82.82,0,0,0-.75-.5H258a.17.17,0,0,0-.17.16v.34a.17.17,0,0,0,.17.16h.54c.12,0,.25.09.25,4.66Zm-38.4,0v0a.19.19,0,0,1-.17.17h-.58c-.08,0-.17,0-.17.12v.38c0,.08.09.12.17.12l3.37,0c.08,0,.12-.08.12-.16V116c0-.12,0-.16-.12-.16h-.5a.19.19,0,0,1-.17-.17v-3.58a1,1,0,0,1,1-.87.94.94,0,0,1,.91.87v3.58c0,.08,0,.17-.12.17h-.5c-.08,0-.17,0-.17.12v.38c0,.08,0,.12.17.12l3.37,0a.18.18,0,0,0,.17-.16V116a.15.15,0,0,0-.17-.16h-.58a.16.16,0,0,1-.17-.17v-3.58a.92.92,0,0,1,.92-.87,1,1,0,0,1,1,.87v3.58a.15.15,0,0,1-.16.17h-.34c-.12,0-.16,0-.16.12v.38a.11.11,0,0,0,.12.12l3.33,0a.18.18,0,0,0,.17-.16V116a.15.15,0,0,0-.17-.16h-.66c-.09,0-.13-.09-.13-.17v-3.74A1.92,1.92,0,0,0,228,110.2a2.9,2.9,0,0,0-1.95.88c-.05.08-.13.08-.17,0a2.07,2.07,0,0,0-1.75-.88,2.43,2.43,0,0,0-1.7.63c-.09.08-.13.08-.17,0a.82.82,0,0,0-.75-.5h-1.91a.17.17,0,0,0-.17.16v.34a.17.17,0,0,0,.17.16h.54c.12,0,.25.09.25,4.66Zm-25.55,0v0a.18.18,0,0,1-.16.17h-.59c-.08,0-.16,0-.16.12v.38c0,.08.08.12.16.12l3.5,0c.08,0,.12-.08.12-.16V116c0-.12,0-.16-.12-.16H197a.18.18,0,0,1-.17-.17v-3.2a1,1,0,0,1,.66-1.08c.25-.13.75-.25.79.16l.05.67c0,.08.08.12.16.12h.88c.08,0,.16,0,.16-.12v-1.54a.37.37,0,0,0-.12-.21,2,2,0,0,0-1.17-.17,2.28,2.28,0,0,0-1.33.67s-.08,0-.08,0a.81.81,0,0,0-.83-.58h-1.33v-1.5a.19.19,0,0,0-.17-.17h-6.41a.15.15,0,0,0-.16.17v2c0,.08,0,.16.12.16H189a.15.15,0,0,0,.16-.16v-1.34c0-.12.13-.2.25-.2h.54a.19.19,0,0,1,.21.2v6.16a.18.18,0,0,1-.17.17h-.54c-.08,0-.16,0-.16.12v.38c0,.08,0,.12.16.12h3.83c.08,0,.17,0,.17-.12v-.38c0-.08-.09-.12-.17-.12h-.66a.18.18,0,0,1-.17-.17v-6.16a.23.23,0,0,1,.25-.2h.54a.2.2,0,0,1,.21.2v1.34a.17.17,0,0,0,.16.16h1.09c.12,0,.2.09.2,4.66Zm8.07-.41v-2c0-.25-.16-.38-.45-.33a1.2,1.2,0,0,0-.67.29,2,2,0,0,0-.5,1.66.9.9,0,0,0,1,.83c.5,0,.62-.25.62-.45Zm-.87-2.87c.79-.25.79-.59.79-.8s-.17-.66-1-.66-.91.58-.91,1.16v.13a.19.19,0,0,1-.17.17h-.83a.19.19,0,0,1-.17-.17v-1.54a.14.14,0,0,1,.13-.13,8.44,8.44,0,0,1,3.16-.2c.83.16,1.83.45,1.83,1.58v3.74c0,.08,0,.17.12.17h.63a.15.15,0,0,1,.16.16v.34a.17.17,0,0,1-.16.16h-4.08c-2.87,0-2.79-2.66-1.08-3.53a10.69,10.69,0,0,1,1.58-.58Zm17.22,2a2.22,2.22,0,0,1-2.08,2.08,8.7,8.7,0,0,1-3.41-.12.17.17,0,0,1-.12-.17V114.4c0-.08.08-.12.16-.12h.84a.11.11,0,0,1,.12.12v.29c0,.59.08,1.25,1.12,1.25s1.17-.37,1.25-.66a.92.92,0,0,0-.79-1.13c-.58-.16-.87-.2-1.58-.41-1.54-.46-1.45-3.08.63-3.46a8.72,8.72,0,0,1,3.36.17.17.17,0,0,1,.13.13v1.33a.17.17,0,0,1-.17.16H218c-.08,0-.12-.08-.12-.16v-.13c0-.33-.08-1-1.12-1s-1.09.58-1.09.79.09.58.75.7a7.22,7.22,0,0,1,1.5.42,1.75,1.75,0,0,1,1.37,1.66Zm21.6,0a2.22,2.22,0,0,1-2.08,2.08,8.73,8.73,0,0,1-3.42-.12.17.17,0,0,1-.12-.17V114.4c0-.08.08-.12.17-.12h.79c.12,0,.16,0,.16.12v.29c0,.59,0,1.25,1.13,1.25.91,0,1.16-.37,1.24-.66a.91.91,0,0,0-.79-1.13c-.58-.16-.87-.2-1.58-.41-1.54-.46-1.49-3.08.63-3.46a8.8,8.8,0,0,1,3.37.17s.08.08.08.13v1.33c0,.08,0,.16-.12.16h-.75a.17.17,0,0,1-.17-.16v-.13c0-.33,0-1-1.08-1s-1.08.58-1.08.79.08.58.75.7a8.11,8.11,0,0,1,1.49.42,1.76,1.76,0,0,1,1.38,1.66Zm12.73-2.87a14.43,14.43,0,0,0-.13,1.83,10.67,10.67,0,0,0,.13,1.88c.08.54.45.7,1,.7s.92-.16,1-.7a7.84,7.84,0,0,0,.13-1.88c0-.66,0-1.37-.09-1.87s-.45-.71-1-.71-.91.21-1,.75Zm.87,5.08a2.93,2.93,0,0,1-3.25-3.2c0-2.13,1.17-3.21,3.25-3.21s3.29,1.08,3.29,3.21-1.17,3.2-3.29,3.2Zm-7.53-2.21a2.21,2.21,0,0,1-2,2.08,8.9,8.9,0,0,1-3.45-.12.21.21,0,0,1-.08-.17V114.4a.11.11,0,0,1,.12-.12h.83c.09,0,.17,0,.17.12v.29c0,.59,0,1.25,1.08,1.25s1.16-.37,1.25-.66a.9.9,0,0,0-.79-1.13c-.58-.16-.88-.2-1.58-.41-1.5-.46-1.46-3.08.66-3.46a8.6,8.6,0,0,1,3.33.17.14.14,0,0,1,.13.13v1.33a.18.18,0,0,1-.17.16h-.71a.17.17,0,0,1-.16-.16v-.13c0-.33-.05-1-1.13-1s-1,.58-1,.79,0,.58.71.7a8.66,8.66,0,0,1,1.54.42,1.77,1.77,0,0,1,1.33,1.66Zm1.29-3.2A.2.2,0,0,0,248,111h-.58a.15.15,0,0,1-.13-.16v-.34a.15.15,0,0,1,.13-.16h1.91a.83.83,0,0,1,.83.83v4.49a.19.19,0,0,0,.17.17H251c.08,0,.16,0,.16.12v.38c0,.08-.08.12-.16.12l-3.5,0a.15.15,0,0,1-.16-.16v-.38c0-.08,0-.12.16-.12h.54a.18.18,0,0,0,.17-.17V111.2Zm-16.18,0a.24.24,0,0,0-.25-.21h-.54a.17.17,0,0,1-.17-.16v-.34a.17.17,0,0,1,.17-.16h1.91a.83.83,0,0,1,.83.83v4.49a.18.18,0,0,0,.17.17h.66c.09,0,.13,0,.13.12v.38c0,.08,0,.12-.13.12l-3.53,0a.17.17,0,0,1-.17-.16v-.38c0-.08.08-.12.17-.12h.58a.19.19,0,0,0,.17-.17V111.2Z" style="fill: #373894;fill-rule: evenodd"/>
          <path d="M173.93,102.92c-3.08-3.87-8.61-3.37-10.15,1.33,0,.09-.09.13-.17.13a.21.21,0,0,1-.21-.21c-.08-9.11,10.69-10.07,13.94-4.24a3.18,3.18,0,0,1,.33,1.24,2.31,2.31,0,0,1-2.29,2.29,1.94,1.94,0,0,1-1.45-.54Z" style="fill: #ec1a3b;fill-rule: evenodd"/>
          <path d="M167.77,104.46c3.08,3.87,8.61,3.37,10.15-1.33,0-.08.08-.13.17-.13a.21.21,0,0,1,.21.21c.08,9.11-10.7,10.07-13.94,4.25a3,3,0,0,1-.33-1.25,2.27,2.27,0,0,1,2.28-2.29,2,2,0,0,1,1.46.54Z" style="fill: #373894;fill-rule: evenodd"/>
          <path d="M158.08,108.08a13.33,13.33,0,0,1-.71-4.37A13.49,13.49,0,0,1,182.58,97a2.81,2.81,0,0,1,.29,1.17,2.5,2.5,0,0,1-2.49,2.49,2.07,2.07,0,0,1-1.75-.74c-7.91-10.45-21.84-3-20.1,8.07,0,.12-.08.25-.2.25s-.21,0-.25-.17Z" style="fill: #373894;fill-rule: evenodd"/>
          <path d="M183.62,99.3a13.5,13.5,0,0,1-24.5,11.07,2.63,2.63,0,0,1-.29-1.17,2.5,2.5,0,0,1,2.49-2.49,2.14,2.14,0,0,1,1.75.75c7.9,10.44,21.84,3,20.09-8.07a.23.23,0,0,1,.21-.25c.13,0,.21,0,.25.16Z" style="fill: #ec1a3b;fill-rule: evenodd"/>
          <path d="M182.15,114.17a1.21,1.21,0,0,1,.57.15,1.11,1.11,0,0,1,.43.43,1.22,1.22,0,0,1,.15.58,1.16,1.16,0,0,1-.15.57,1,1,0,0,1-.43.43,1.16,1.16,0,0,1-.57.15,1.22,1.22,0,0,1-.58-.15,1,1,0,0,1-.42-.43,1.07,1.07,0,0,1-.16-.57,1.13,1.13,0,0,1,.16-.58,1.11,1.11,0,0,1,.43-.43,1.21,1.21,0,0,1,.57-.15Zm0,.2a1,1,0,0,0-.47.12.86.86,0,0,0-.37.36,1,1,0,0,0,0,1,1,1,0,0,0,.36.36,1,1,0,0,0,1,0,1,1,0,0,0,.36-.36,1,1,0,0,0,.12-.48.91.91,0,0,0-.13-.48.78.78,0,0,0-.36-.36,1,1,0,0,0-.47-.12Zm-.51,1.6v-1.24h.43a1.22,1.22,0,0,1,.32,0,.29.29,0,0,1,.15.12.32.32,0,0,1,0,.42.36.36,0,0,1-.25.11l.1.07a1.47,1.47,0,0,1,.18.24l.16.25h-.25l-.11-.2a1,1,0,0,0-.21-.29.24.24,0,0,0-.16,0h-.12V116Zm.2-.7h.25a.41.41,0,0,0,.23,0,.16.16,0,0,0,.07-.14.17.17,0,0,0,0-.1.15.15,0,0,0-.09-.06.48.48,0,0,0-.2,0h-.23v.37Z" style="fill: #373894;fill-rule: evenodd"/>
          <path d="M267.65,114.17a1.18,1.18,0,0,1,.57.15,1.11,1.11,0,0,1,.43.43,1.13,1.13,0,0,1,.16.58,1.07,1.07,0,0,1-.16.57,1,1,0,0,1-.42.43,1.22,1.22,0,0,1-.58.15,1.16,1.16,0,0,1-.57-.15,1,1,0,0,1-.43-.43,1.16,1.16,0,0,1-.15-.57,1.22,1.22,0,0,1,.15-.58,1.11,1.11,0,0,1,.43-.43,1.21,1.21,0,0,1,.57-.15Zm0,.2a1,1,0,0,0-.47.12.78.78,0,0,0-.36.36.91.91,0,0,0-.13.48,1,1,0,0,0,.12.48.94.94,0,0,0,.84.48,1,1,0,0,0,.48-.12,1,1,0,0,0,.36-.36,1,1,0,0,0,0-1,.89.89,0,0,0-.36-.36,1.07,1.07,0,0,0-.48-.12Zm-.51,1.6v-1.24h.43a1.22,1.22,0,0,1,.32,0,.31.31,0,0,1,.16.12.41.41,0,0,1,.05.18.36.36,0,0,1-.09.24.39.39,0,0,1-.26.11.26.26,0,0,1,.1.07,2.22,2.22,0,0,1,.19.24l.15.25H268l-.12-.2a.85.85,0,0,0-.21-.29.24.24,0,0,0-.16,0h-.11V116Zm.21-.7h.24a.45.45,0,0,0,.24,0,.18.18,0,0,0,.06-.14.17.17,0,0,0,0-.1.16.16,0,0,0-.08-.06.56.56,0,0,0-.21,0h-.22v.37Z" style="fill: #373894;fill-rule: evenodd"/>
        </g>
        <g>
          <g>
            <path d="M151.39,56.53l-1-8.13c-.06-.45-.11-.76-1-.76h-4.33c-.54,0-.81,0-1,.37l-4.73,8.63c-.21.35,0,.64.3.64h2.79a.74.74,0,0,0,.76-.41c.27-.49.53-1,.74-1.44a.1.1,0,0,1,.1-.06h3.58a.1.1,0,0,1,.1.08l.14,1.26c.05.46.28.57.65.57h2.3C151.3,57.28,151.47,57.05,151.39,56.53Zm-4-3.3h-2.22a.06.06,0,0,1-.06-.07L147,49.51c0-.06.1-.08.11,0l.4,3.62C147.47,53.2,147.44,53.23,147.37,53.23Z" style="fill: #d70a35"/>
            <path d="M191,56.53l-1-8.14c-.06-.44-.12-.75-.95-.75h-4.33c-.54,0-.82,0-1,.37l-4.74,8.63c-.2.35,0,.64.31.64H182a.77.77,0,0,0,.76-.41c.27-.49.52-1,.74-1.44a.1.1,0,0,1,.1-.06h3.58a.1.1,0,0,1,.1.08l.14,1.26a.56.56,0,0,0,.65.57h2.31C190.85,57.28,191,57.05,191,56.53Zm-4-3.3H184.7a.05.05,0,0,1,0-.07l1.86-3.65c0-.06.1-.08.11,0l.4,3.62C187,53.2,187,53.23,186.92,53.23Z" style="fill: #d70a35"/>
            <path d="M174.63,56.64l.74-4.07c0-.22-.06-.23-.14-.11l-3.38,4.42a.93.93,0,0,1-.65.41h-.82a.51.51,0,0,1-.47-.34l-1.64-4.47c-.07-.19-.13-.13-.15,0l-.79,4.31a.52.52,0,0,1-.5.47h-2.46c-.36,0-.53-.18-.45-.55l1.65-8.42a.73.73,0,0,1,.8-.69h2.69c.5,0,.84.11,1,.47L171.47,52c.08.19.09.19.21,0l3.06-3.9a1,1,0,0,1,.93-.45h3.39c.59,0,.67.3.59.72L178,56.87a.53.53,0,0,1-.55.44h-2.34C174.62,57.31,174.57,57,174.63,56.64Z" style="fill: #d70a35"/>
            <path d="M159.55,51.88l.65-3.57c.1-.54.37-.64.8-.64h2.12c.39,0,.68.14.57.69l-1.63,8.24c-.11.54-.38.69-.71.69h-1.7A.75.75,0,0,1,159,57l-2.3-3.9c0-.1-.09-.07-.11,0l-.63,3.47c-.08.45-.2.78-.69.78H152.8c-.4,0-.54-.21-.47-.62l1.59-8.36c.1-.57.4-.66.69-.66h1.75c.43,0,.64.17.92.64l2.13,3.58C159.45,52,159.53,52,159.55,51.88Z" style="fill: #d70a35"/>
            <path d="M201.14,47.62l-6.75,0c-.76,0-.94.14-1,.62l-1.64,8.45c-.08.38,0,.55.46.58h2.5a.56.56,0,0,0,.63-.48c.22-.93.49-2.39.55-2.72,0-.16,0-.17.31-.17H198c.32,0,.44.15.37.58L198,56.76c0,.3.08.52.43.52s2.16,0,2.46,0c.47,0,.66-.1.77-.72l.38-2.11a1.51,1.51,0,0,0-.92-1.94c-.06,0-.05-.06,0-.07a1.9,1.9,0,0,0,1.42-1.38,13.25,13.25,0,0,0,.32-1.66C203.09,48.17,202.34,47.62,201.14,47.62Zm-1.89,2.52a10.59,10.59,0,0,1-.22,1.2c-.11.44-.28.55-.92.55h-1.72c-.11,0-.13,0-.11-.12l.39-2.06a.08.08,0,0,1,.08-.05c.45,0,1.95,0,2.11,0C199.19,49.7,199.27,49.84,199.25,50.14Z" style="fill: #d70a35"/>
            <path d="M135.84,50.91l2.47-3a.51.51,0,0,1,.47-.26h3.36c.47,0,.39.31.27.45L137.47,54a.62.62,0,0,0-.08.24l-.58,2.69c-.06.29-.31.41-.64.41h-2.51c-.52,0-.56-.29-.49-.64l.47-2.37a.25.25,0,0,0,0-.21L130.43,48c-.09-.21.06-.39.33-.39h2.82a.61.61,0,0,1,.59.29l1.46,3C135.69,51.05,135.76,51,135.84,50.91Z" style="fill: #d70a35"/>
          </g>
          <g>
            <polygon points="168.65 40.37 202.92 26.17 202.92 17.54 168.65 31.74 168.65 40.37" style="fill: #d70a35"/>
            <polygon points="166.66 19.13 130.41 4.11 130.41 12.74 166.66 27.75 202.92 12.74 202.92 4.11 166.66 19.13" style="fill: #d70a35"/>
            <polygon points="130.41 26.17 164.67 40.37 164.67 31.74 130.41 17.54 130.41 26.17" style="fill: #d70a35"/>
          </g>
        </g>
        <g>
          <rect x="23.63" y="216.85" width="195" height="53" style="fill: #fff"/>
          <g id="Layer_2-2" data-name="Layer 2">
            <g id="Layer_1-2-2" data-name="Layer 1-2">
              <g style="clip-path: url(#clip-path-2)">
                <g>
                  <path d="M43,254.17,44,262.31H55l.6.42a3.68,3.68,0,0,0,2.08.62,3.74,3.74,0,0,0,2-.54l.73-.5H71.38l1-8.14,6.41-4.71a15.89,15.89,0,0,0,.47-4.17,21.54,21.54,0,0,0-21.56-21.95c-12.21,0-21.56,9.83-21.56,21.95a17.17,17.17,0,0,0,.52,4.22l6.3,4.65" style="fill: #fff"/>
                  <path d="M37.32,249.09A15.1,15.1,0,0,1,36.9,245a20.83,20.83,0,0,1,41.66-.75V245a15.1,15.1,0,0,1-.43,4.08l-6.42,4.68-1,7.81H60.17l-.68.5a3.11,3.11,0,0,1-1.77.55,3.17,3.17,0,0,1-1.88-.68l-.55-.37H44.67l-1-7.81-6.36-4.68" style="fill: #ffd300"/>
                  <path d="M37.32,249.09A15.1,15.1,0,0,1,36.9,245a20.83,20.83,0,0,1,41.66-.75V245a15.1,15.1,0,0,1-.43,4.08l-6.42,4.68-1,7.81H60.17l-.68.5a3.11,3.11,0,0,1-1.77.55,3.17,3.17,0,0,1-1.88-.68l-.55-.37H44.67l-1-7.81-6.36-4.68m18.33,8.82.89.68a2.16,2.16,0,0,0,1.19.46,2.33,2.33,0,0,0,1.19-.46l.89-.68h7.77l.81-6.41L74.55,247a6.87,6.87,0,0,0,.29-2.16,9.08,9.08,0,0,0-.73-3.45v0L62.93,252.61l10.75-13.26a8.65,8.65,0,0,0-2.59-4.58l-.06-.05L61.36,251.5l8.51-18.33-.05-.06A8.62,8.62,0,0,0,65.47,230l-5.93,20.86,4.28-21.72A8.91,8.91,0,0,0,59.45,228a7.73,7.73,0,0,0-1,.06l-.79,22.59-1.05-22.57c-.3,0-.61-.05-.91-.05a8.74,8.74,0,0,0-4.27,1.14l-.09,0,4.52,21.67L50,230a8.58,8.58,0,0,0-4.42,3.18l8.59,18.33-9.61-17a8.85,8.85,0,0,0-2.85,4.69l10.81,13.42L41.29,241.32v0a8.54,8.54,0,0,0-.75,3.55,8.08,8.08,0,0,0,.29,2.19l6.29,4.61L47.9,258Z" style="fill: #e42313"/>
                  <path d="M110.43,234h-.08v-.14a.11.11,0,0,1,.15,0,.08.08,0,0,1,0,.07.09.09,0,0,1,0,.07h-.07" style="fill-rule: evenodd"/>
                  <path d="M105.28,236.34a2.88,2.88,0,0,0-1.81-.68c-.51,0-1.18.3-1.18.89s.74.84,1.22,1l.67.21c1.46.43,2.6,1.17,2.6,2.87a3.6,3.6,0,0,1-1.09,2.84,4.6,4.6,0,0,1-3,1,6.45,6.45,0,0,1-3.7-1.2l1.16-2.21a3.74,3.74,0,0,0,2.43,1.09c.68,0,1.36-.32,1.36-1.06s-1.08-1-1.66-1.2c-1.72-.49-2.85-.93-2.85-3a3.39,3.39,0,0,1,3.24-3.53,2.54,2.54,0,0,1,.39,0,7.26,7.26,0,0,1,3.29.86Z" style="fill: #005092"/>
                  <path d="M110.27,232.58v5.34h0a2.66,2.66,0,0,1,2.28-1.14c1.82,0,2.72,1.2,2.72,3v4.38h-2.54v-3.69c0-.84-.12-1.71-1.15-1.71s-1.36.87-1.36,1.71v3.67h-2.53V232.58Z" style="fill: #005092"/>
                  <path d="M123.92,241h-5.34a1.42,1.42,0,0,0,1.22,1.59,1.15,1.15,0,0,0,.37,0,1.25,1.25,0,0,0,1.21-.68h2.46a3.51,3.51,0,0,1-3.65,2.46c-2.36,0-4.14-1.36-4.14-3.81a3.94,3.94,0,0,1,7.88.15Zm-2.36-1.46a1.5,1.5,0,0,0-1.84-1.1,1.53,1.53,0,0,0-1.1,1.1Z" style="fill: #005092"/>
                  <rect x="124.73" y="232.58" width="2.54" height="11.58" style="fill: #005092"/>
                  <rect x="128.6" y="232.58" width="2.54" height="11.58" style="fill: #005092"/>
                  <polygon points="139.69 241.84 142.97 241.84 142.97 244.16 136.96 244.16 136.96 233.63 139.69 233.63 139.69 241.84" style="fill: #005092"/>
                  <path d="M146,237v3.82c0,.91.22,1.55,1.27,1.55s1.27-.64,1.27-1.55V237H151v4.32c0,2.36-1.66,3.08-3.81,3.08s-3.81-.72-3.81-3.08V237Z" style="fill: #005092"/>
                  <path d="M152.23,232.58h2.53v5.12a2.93,2.93,0,0,1,2.22-.94,3.83,3.83,0,0,1,0,7.64,2.56,2.56,0,0,1-2.19-1.05h0v.8h-2.54Zm2.45,8a1.64,1.64,0,1,0,1.53-1.52,1.64,1.64,0,0,0-1.53,1.52" style="fill: #005092"/>
                  <path d="M164,238.17h0a2.47,2.47,0,0,1,2.31-1.27h.49v2.44a2,2,0,0,0-1.08-.24c-1.4,0-1.76.94-1.76,2.17v2.89h-2.53V237H164Z" style="fill: #005092"/>
                  <path d="M170.14,234.25a1.43,1.43,0,1,1-1.42-1.42,1.42,1.42,0,0,1,1.42,1.42h0m-.15,9.91h-2.55V237H170Z" style="fill: #005092"/>
                  <path d="M176.48,239.33a2.24,2.24,0,0,0-1.31-.5,1.72,1.72,0,0,0-1.75,1.68v.06a1.7,1.7,0,0,0,1.63,1.76h.16a2,2,0,0,0,1.27-.49V244a4.12,4.12,0,0,1-1.79.41,3.79,3.79,0,0,1-3.89-3.66v-.1a3.83,3.83,0,0,1,3.77-3.9h.24a3.48,3.48,0,0,1,1.67.42Z" style="fill: #005092"/>
                  <path d="M185.47,244.16h-2.54v-.81h0a2.54,2.54,0,0,1-2.17,1,3.69,3.69,0,0,1-3.62-3.75.22.22,0,0,0,0-.08,3.64,3.64,0,0,1,3.47-3.8h.12a2.91,2.91,0,0,1,2.22.93V237h2.53Zm-5.72-3.58a1.63,1.63,0,1,0,1.52-1.52,1.63,1.63,0,0,0-1.52,1.52" style="fill: #005092"/>
                  <path d="M189.27,237.92h0a2.5,2.5,0,0,1,2.3-1.15c1.93,0,2.71,1.21,2.71,3v4.43h-2.54v-3.53c0-.68.11-1.88-1.14-1.88-1,0-1.36.76-1.36,1.66v3.71H186.7V237h2.54Z" style="fill: #005092"/>
                  <polygon points="198.39 244.16 195.85 244.16 195.85 239.09 195.03 239.09 195.03 237 195.85 237 195.85 234.85 198.39 234.85 198.39 237 199.83 237 199.83 239.09 198.39 239.09 198.39 244.16" style="fill: #005092"/>
                  <path d="M205,238.84a3.09,3.09,0,0,0-1.36-.35c-.3,0-.8.13-.8.49s.8.56,1.15.63c1.19.23,2.07.79,2.07,2.12,0,1.88-1.71,2.67-3.39,2.67a5.59,5.59,0,0,1-2.84-.83l.92-1.77a4,4,0,0,0,2,.72c.32,0,.79-.15.79-.54,0-.56-.79-.59-1.59-.79a1.79,1.79,0,0,1-1.65-1.91c0-1.76,1.59-2.54,3.15-2.54a5.62,5.62,0,0,1,2.36.46Z" style="fill: #005092"/>
                  <path d="M99.28,247.37h3.87a5.27,5.27,0,0,1,.38,10.53H99.28Zm2.71,8.2h.61a3,3,0,0,0,.45-5.88H102Z" style="fill: #005092"/>
                  <path d="M112.06,248a1.43,1.43,0,1,1-1.43-1.43h0a1.43,1.43,0,0,1,1.42,1.43m-.15,9.9h-2.54v-7.15h2.54Z" style="fill: #005092"/>
                  <path d="M118,252.58a3.05,3.05,0,0,0-1.36-.35c-.29,0-.8.12-.8.49s.8.55,1.15.62c1.19.24,2.08.8,2.08,2.13,0,1.88-1.72,2.66-3.4,2.66a5.56,5.56,0,0,1-2.89-.82l.92-1.74a4.1,4.1,0,0,0,2,.68c.32,0,.8-.16.8-.55,0-.55-.8-.59-1.59-.79a1.79,1.79,0,0,1-1.59-1.89c0-1.75,1.59-2.54,3.15-2.54a5.63,5.63,0,0,1,2.36.47Z" style="fill: #005092"/>
                  <polygon points="122.82 257.89 120.28 257.89 120.28 252.83 119.45 252.83 119.45 250.74 120.28 250.74 120.28 248.59 122.82 248.59 122.82 250.74 124.26 250.74 124.26 252.83 122.82 252.83 122.82 257.89" style="fill: #005092"/>
                  <path d="M127.33,251.9h0a2.5,2.5,0,0,1,2.32-1.27h.48v2.45a2,2,0,0,0-1.07-.24c-1.41,0-1.76.94-1.76,2.16v2.9h-2.51v-7.16h2.54Z" style="fill: #005092"/>
                  <path d="M133.46,248a1.43,1.43,0,1,1-1.43-1.43,1.43,1.43,0,0,1,1.43,1.43h0m-.16,9.9h-2.54v-7.15h2.54Z" style="fill: #005092"/>
                  <path d="M134.54,246.31h2.54v5.12a3,3,0,0,1,2.22-.93,3.82,3.82,0,0,1,0,7.63,2.52,2.52,0,0,1-2.16-1h0v.81h-2.54Zm2.46,8a1.63,1.63,0,1,0,1.52-1.53,1.64,1.64,0,0,0-1.52,1.53" style="fill: #005092"/>
                  <path d="M146.3,250.74v3.82c0,.91.22,1.54,1.26,1.54s1.27-.63,1.27-1.54v-3.82h2.54v4.31c0,2.36-1.66,3.08-3.81,3.08s-3.81-.72-3.81-3.08v-4.31Z" style="fill: #005092"/>
                  <polygon points="155.42 257.89 152.88 257.89 152.88 252.83 152.06 252.83 152.06 250.74 152.88 250.74 152.88 248.59 155.42 248.59 155.42 250.74 156.85 250.74 156.85 252.83 155.42 252.83 155.42 257.89" style="fill: #005092"/>
                  <path d="M165.48,254.32c0,2.43-2,3.81-4.31,3.81s-4.31-1.35-4.31-3.81,2-3.82,4.31-3.82,4.31,1.36,4.31,3.82m-5.94,0a1.63,1.63,0,1,0,1.52-1.53,1.63,1.63,0,0,0-1.52,1.53" style="fill: #005092"/>
                  <path d="M168.82,251.9h0a2.5,2.5,0,0,1,2.31-1.27h.49v2.45a2,2,0,0,0-1.07-.24c-1.41,0-1.76.94-1.76,2.16v2.9h-2.54v-7.16h2.54Z" style="fill: #005092"/>
                </g>
              </g>
            </g>
          </g>
        </g>
      </g>
    </g>
  </g>
</svg>
