<svg height="120" viewBox="0 0 504 120" width="504" xmlns="http://www.w3.org/2000/svg"><path d="m17.41 93.5h457.36c10.1 0 19.82-8.26 21.6-18.36l5.35-30.28c1.78-10.1-5-18.36-15.13-18.36h-457.36c-10.1 0-19.82 8.26-21.6 18.36l-5.35 30.28c-1.78 10.1 5.03 18.36 15.13 18.36z" fill="#272323"/><g fill="#fff"><path d="m131.97 37.58-2.2 10.32h8.36l-7.16 33.55 12.29.02 7.17-33.56 8.36.02 2.21-10.33z"/><path d="m171.5 56.11h1.78c2 0 4.38-.92 5.29-5.16.77-3.62-.83-4.48-3.6-4.48h-1.41zm-8.35-18.51h18.45c8.48 0 11.22 4.19 9.66 11.5-1.5 7-5.14 10-9.58 10.56v.12a5.51 5.51 0 0 1 5.1 3.51c.69 2 .12 4.92-.43 7.5l-.78 3.63a16.65 16.65 0 0 0 -.57 5.18 2 2 0 0 0 1 1.29l-.13.62h-13c-.59-1 0-4.18.43-6.33s.75-4.36 1.2-6.51c.81-3.75-.28-4.43-2.43-4.43h-2.28l-3.69 17.27h-12.32z"/><path d="m206 37.64-19.75 43.87h12.67l2.66-6.7h8.23l-.07 6.7h12.66l-1-43.89zm5.57 9.59h.13l-1.2 18h-5.6z"/><path d="m253.67 37.68-5.73 26.79h-.12l-.54-26.79-13.35-.01-9.37 43.87 11.19.01 5.77-27.04h.13l1.05 27.05 13.15.01 9.38-43.88z"/><path d="m284.75 48.52c.39-1.84 0-3.56-2.13-3.56a3.84 3.84 0 0 0 -3.54 3.31c-1.86 8.73 17.42 4.26 14.08 19.93-2.16 10.2-7.78 14.25-19.16 14.24-9.41 0-13.89-3.21-11.83-12.85l.25-1.17h11.92l-.43 2c-.46 2.16.1 3.88 2.25 3.88s3.43-2 3.84-3.87c.61-2.82-.31-3.44-1.71-4.37s-3.49-1.78-5.47-2.89c-5.94-3.32-7.64-5.72-6.25-12.23 1.3-6.08 3.86-9.4 7.12-11.42a19.65 19.65 0 0 1 10.6-2.7c12.42 0 13.2 6.16 11.63 13.47h-11.56z"/><path d="m308.05 72.76h2.52c3.07 0 4.29-3.37 5-6.69l2.72-12.79c.95-4.42.94-6.69-2.87-6.69h-1.78zm-4.82-35h17.7c5.48 0 8.59 2.16 9.8 5.72s1.1 5.78-1.13 16.23c-2.05 9.59-5.05 21.94-17.84 21.92h-17.9z"/><path d="m337.91 37.76-9.37 43.87 12.3.01 9.37-43.87z"/><path d="m354.39 37.77-9.37 43.87 27 .03 2.12-9.95-14.69-.02 1.62-7.62 13.23.01 2.05-9.59-13.22-.01 1.43-6.75 14.15.01 2.13-9.96z"/><path d="m399.68 48.62c.39-1.84 0-3.56-2.13-3.56a3.84 3.84 0 0 0 -3.55 3.32c-1.86 8.72 17.42 4.25 14.07 19.92-2.17 10.2-7.77 14.25-19.15 14.24-9.41 0-13.89-3.21-11.83-12.85l.25-1.17h11.93l-.44 2c-.46 2.14.1 3.87 2.25 3.87s3.43-2 3.84-3.87c.61-2.82-.31-3.44-1.71-4.36s-3.5-1.79-5.47-2.9c-5.94-3.32-7.64-5.72-6.24-12.23 1.29-6.08 3.85-9.4 7.11-11.43a19.83 19.83 0 0 1 10.6-2.7c12.42 0 13.2 6.17 11.64 13.48h-11.55z"/><path d="m418.16 37.83 26.44.02-2.12 9.95-14.15-.01-1.44 6.76 13.22.01-2.05 9.58-13.22-.01-1.62 7.62 14.69.02-2.12 9.95-27-.02z"/><path d="m448.91 37.85 12.29.01-7.23 33.92 13.4.02-2.13 9.95-25.7-.03z"/><path d="m478.27 76.32c.56 0 .83-.24.91-.6s-.1-.65-.75-.65h-1l-.27 1.25zm-1.13 1.23h-.21l-.5 2.35h-1.51l1.29-6h2.37c1.54 0 2.43.41 2.11 1.89a2.07 2.07 0 0 1 -1.9 1.75l.93 2.42h-1.72zm1.56-4.84a5 5 0 0 0 -4.87 4.16c-.55 2.63.84 4.16 3.09 4.16a5 5 0 0 0 4.86-4.15c.56-2.63-.83-4.16-3.08-4.17m.36-1.7a4.6 4.6 0 0 1 4.62 5.87 7.66 7.66 0 0 1 -7.12 5.86 4.61 4.61 0 0 1 -4.63-5.87 7.66 7.66 0 0 1 7.13-5.87"/></g><path d="m464.67 61.3 2.19-.01-1.19 3.16 3.15-.01-.41 1.09h-5.35z" fill="#ccc"/><path d="m471.44 62.38h-1.98l.41-1.08h6.15l-.42 1.08h-1.97l-1.2 3.15h-2.19z" fill="#ccc"/><path d="m478.1 64.45h1c1.44 0 1.79-.88 1.81-1.28 0-.63-.53-.79-1.26-.79h-.81zm-1-3.14h3.28c1.3 0 2.94.48 2.77 1.87s-1.68 2.36-4.15 2.36h-3.52z" fill="#ccc"/><path d="m97.7 34.81a25.68 25.68 0 0 0 -25.7 25.65 25.41 25.41 0 0 0 4.1 13.95l18.34-18h-11.79v-9.11l28.12-.07.23 27.31h-9.58l.13-10.67-18 18a25.68 25.68 0 1 0 14.15-47.06" fill="#ed1b24"/><path d="m42.13 34.76a25.67 25.67 0 0 0 -21.61 39.6l18.34-18h-11.78v-9.11l28.12-.06.18 27.3h-9.56l.12-10.67-18 18a25.68 25.68 0 1 0 14.19-47.06" fill="#fef200"/></svg>