<svg height="98.15" viewBox="0 0 65.43 98.15" width="65.43" xmlns="http://www.w3.org/2000/svg" xmlns:xlink="http://www.w3.org/1999/xlink"><linearGradient id="a" gradientTransform="matrix(.98665754 .16280937 -.16280937 .98665754 819.37 -489.48)" gradientUnits="userSpaceOnUse" x1="-707.5" x2="-707.5" y1="711.68" y2="667.21"><stop offset="0" stop-color="#cbcbcb" stop-opacity="0"/><stop offset="1" stop-opacity=".75"/></linearGradient><linearGradient id="b" gradientTransform="matrix(-.70710678 .70710678 -.70710678 -.70710678 805.87 -4632.62)" gradientUnits="userSpaceOnUse" x1="3862.36" x2="3862.36" y1="-2750.41" y2="-2756.26"><stop offset="0" stop-color="#7f7f7f"/><stop offset="1" stop-color="#cbcbcb"/></linearGradient><radialGradient id="c" cx="-1754.53" cy="3878.21" fx="-1709.34371" gradientTransform="matrix(.26 -.16 .22 .4 -360.47 -1793.35)" gradientUnits="userSpaceOnUse" r="55.86"><stop offset=".27" stop-color="#fff" stop-opacity=".5"/><stop offset=".39" stop-color="#bebebe" stop-opacity=".47"/><stop offset=".56" stop-color="#777" stop-opacity=".44"/><stop offset=".71" stop-color="#444" stop-opacity=".42"/><stop offset=".84" stop-color="#252525" stop-opacity=".4"/><stop offset=".95" stop-color="#1a1a1a" stop-opacity=".4"/></radialGradient><linearGradient id="d" gradientTransform="matrix(-.70710678 .70710678 -.70710678 -.70710678 805.87 -4632.62)" gradientUnits="userSpaceOnUse" x1="3835.84" x2="3835.84" y1="-2743.07" y2="-2762.67"><stop offset=".29" stop-color="#1a1a1a" stop-opacity=".6"/><stop offset=".71" stop-color="#3d3d3d" stop-opacity=".46"/><stop offset="1" stop-color="#666" stop-opacity=".3"/></linearGradient><radialGradient id="e" cx="-1970.71" cy="3896.31" fx="-1941.31268" gradientTransform="matrix(.26 -.16 .37 .67 -874.62 -2897.68)" gradientUnits="userSpaceOnUse" r="33.01"><stop offset=".19" stop-color="#fff" stop-opacity=".7"/><stop offset=".25" stop-color="#cacaca" stop-opacity=".59"/><stop offset=".33" stop-color="#8c8c8c" stop-opacity=".45"/><stop offset=".36" stop-color="#737373" stop-opacity=".4"/><stop offset=".41" stop-color="#666" stop-opacity=".43"/><stop offset=".65" stop-color="#2e2e2e" stop-opacity=".55"/><stop offset=".82" stop-color="#1a1a1a" stop-opacity=".6"/></radialGradient><path d="m1.82 96.87 7.29 1.25a2.2 2.2 0 0 0 2.52-2l3.25-40a2.25 2.25 0 0 0 -1.81-2.41l-1.25-.21a2.16 2.16 0 0 0 -2.46 1.68l-9.3 38.92a2.26 2.26 0 0 0 1.76 2.77z" fill="url(#a)" opacity=".25"/><g opacity=".95"><path d="m31.55 31.36-21.55 22.36c-.74.77-1.06 2.79-.26 3.62l.43.45c.8.83 2.75.5 3.49-.27l21.56-22.36z" fill="url(#b)"/><ellipse cx="35.4" cy="31.17" fill="#fef200" rx="23.39" ry="24.28"/><ellipse cx="35.4" cy="31.17" fill="url(#c)" opacity=".8" rx="23.39" ry="24.28"/><path d="m36.3 16.23-5.9 6.13a9.86 9.86 0 0 0 0 13.56l.42.44a9 9 0 0 0 13.07 0l5.9-6.12a9.88 9.88 0 0 0 0-13.57l-.42-.44a9 9 0 0 0 -13.07 0z" fill="#fef200"/><path d="m36.3 16.23-5.9 6.13a9.86 9.86 0 0 0 0 13.56l.42.44a9 9 0 0 0 13.07 0l5.9-6.12a9.88 9.88 0 0 0 0-13.57l-.42-.44a9 9 0 0 0 -13.07 0z" fill="url(#d)" opacity=".8"/><ellipse cx="51.46" cy="14.5" fill="#fef200" rx="13.97" ry="14.5"/><ellipse cx="51.46" cy="14.5" fill="url(#e)" opacity=".7" rx="13.97" ry="14.5"/></g></svg>