<svg height="56.2" viewBox="0 0 70.36 56.2" width="70.36" xmlns="http://www.w3.org/2000/svg" xmlns:xlink="http://www.w3.org/1999/xlink"><linearGradient id="a" gradientUnits="userSpaceOnUse" x1="64.48" x2="64.48" y1="56.2" y2="11.72"><stop offset="0" stop-color="#cbcbcb" stop-opacity="0"/><stop offset="1" stop-opacity=".75"/></linearGradient><linearGradient id="b" gradientTransform="matrix(.95455296 -.29804135 .29804135 .95455296 656.01 -35.98)" gradientUnits="userSpaceOnUse" x1="-593.29" x2="-593.29" y1="-125.55" y2="-131.24"><stop offset="0" stop-color="#7f7f7f"/><stop offset="1" stop-color="#cbcbcb"/></linearGradient><radialGradient id="c" cx="-647.61" cy="4668.84" fx="-602.42355" gradientTransform="matrix(.29 -.09 .13 .44 -392.29 -2089.9)" gradientUnits="userSpaceOnUse" r="55.86"><stop offset=".27" stop-color="#fff" stop-opacity=".5"/><stop offset=".39" stop-color="#bebebe" stop-opacity=".47"/><stop offset=".56" stop-color="#777" stop-opacity=".44"/><stop offset=".71" stop-color="#444" stop-opacity=".42"/><stop offset=".84" stop-color="#252525" stop-opacity=".4"/><stop offset=".95" stop-color="#1a1a1a" stop-opacity=".4"/></radialGradient><linearGradient id="d" gradientTransform="matrix(.95455296 -.29804135 .29804135 .95455296 656.01 -35.98)" gradientUnits="userSpaceOnUse" x1="-619.42" x2="-619.42" y1="-118.21" y2="-138.04"><stop offset=".29" stop-color="#1a1a1a" stop-opacity=".6"/><stop offset=".71" stop-color="#3d3d3d" stop-opacity=".46"/><stop offset="1" stop-color="#666" stop-opacity=".3"/></linearGradient><radialGradient id="e" cx="-715.93" cy="4668.74" fx="-686.537993" gradientTransform="matrix(.29 -.09 .22 .74 -807.93 -3472.5)" gradientUnits="userSpaceOnUse" r="33.01"><stop offset=".19" stop-color="#fff" stop-opacity=".7"/><stop offset=".25" stop-color="#cacaca" stop-opacity=".59"/><stop offset=".33" stop-color="#8c8c8c" stop-opacity=".45"/><stop offset=".36" stop-color="#737373" stop-opacity=".4"/><stop offset=".41" stop-color="#666" stop-opacity=".43"/><stop offset=".65" stop-color="#2e2e2e" stop-opacity=".55"/><stop offset=".82" stop-color="#1a1a1a" stop-opacity=".6"/></radialGradient><path d="m60.8 56.2h7.38a2.23 2.23 0 0 0 2.17-2.44l-3.06-40a2.2 2.2 0 0 0 -2.17-2.07h-1.26a2.2 2.2 0 0 0 -2.17 2.07l-3.06 40a2.23 2.23 0 0 0 2.17 2.44z" fill="url(#a)" opacity=".25"/><g opacity=".95"><path d="m36.38 26 29.09-9.43c1-.32 2.19-2 1.85-3.08l-.19-.61c-.33-1.12-2.21-1.76-3.2-1.44l-29.09 9.4z" fill="url(#b)"/><ellipse cx="32.89" cy="24.28" fill="#fef200" rx="23.39" ry="24.28"/><ellipse cx="32.89" cy="24.28" fill="url(#c)" opacity=".8" rx="23.39" ry="24.28"/><path d="m25.41 37.08 8-2.58a9.71 9.71 0 0 0 6.07-12l-.18-.59a9.2 9.2 0 0 0 -11.57-6.3l-8 2.59a9.69 9.69 0 0 0 -6.07 12l.18.59a9.2 9.2 0 0 0 11.57 6.29z" fill="#fef200"/><path d="m25.41 37.08 8-2.58a9.71 9.71 0 0 0 6.07-12l-.18-.59a9.2 9.2 0 0 0 -11.57-6.3l-8 2.59a9.69 9.69 0 0 0 -6.07 12l.18.59a9.2 9.2 0 0 0 11.57 6.29z" fill="url(#d)" opacity=".8"/><ellipse cx="13.97" cy="30.41" fill="#fef200" rx="13.97" ry="14.5"/><ellipse cx="13.97" cy="30.41" fill="url(#e)" opacity=".7" rx="13.97" ry="14.5"/></g></svg>