<svg height="90.92" viewBox="0 0 55.13 90.92" width="55.13" xmlns="http://www.w3.org/2000/svg" xmlns:xlink="http://www.w3.org/1999/xlink"><linearGradient id="a" gradientTransform="matrix(.7943086 .60751448 -.60751448 .7943086 -636.49 -119.08)" gradientUnits="userSpaceOnUse" x1="653.42" x2="653.42" y1="-238.86" y2="-282.82"><stop offset="0" stop-color="#b6b6b6" stop-opacity="0"/><stop offset="1" stop-opacity=".75"/></linearGradient><linearGradient id="b" gradientTransform="matrix(.70710678 .70710678 -.70710678 .70710678 -1346.06 -250.15)" gradientUnits="userSpaceOnUse" x1="1190.25" x2="1190.25" y1="-770.88" y2="-776.73"><stop offset="0" stop-color="#5a5a5a"/><stop offset="1" stop-color="#b6b6b6"/></linearGradient><radialGradient id="c" cx="-1954" cy="4047.48" fx="-1908.816069" gradientTransform="matrix(.26 -.16 .22 .4 -352.12 -1893.23)" gradientUnits="userSpaceOnUse" r="55.86"><stop offset=".27" stop-color="#fff" stop-opacity=".5"/><stop offset=".39" stop-color="#bebebe" stop-opacity=".47"/><stop offset=".56" stop-color="#777" stop-opacity=".44"/><stop offset=".71" stop-color="#444" stop-opacity=".42"/><stop offset=".84" stop-color="#252525" stop-opacity=".4"/><stop offset=".95" stop-color="#1a1a1a" stop-opacity=".4"/></radialGradient><linearGradient id="d" gradientTransform="matrix(.70710678 .70710678 -.70710678 .70710678 -1346.06 -250.15)" gradientUnits="userSpaceOnUse" x1="1163.73" x2="1163.73" y1="-764.47" y2="-784.08"><stop offset=".29" stop-color="#1a1a1a" stop-opacity=".6"/><stop offset=".79" stop-color="#131313" stop-opacity=".42"/><stop offset="1" stop-color="#0e0e0e" stop-opacity=".3"/></linearGradient><radialGradient id="e" cx="-1974.47" cy="3724.03" fx="-1945.073139" gradientTransform="matrix(.28 -.17 .4 .72 -909.17 -2986.92)" gradientUnits="userSpaceOnUse" r="33.01"><stop offset=".19" stop-color="#fff" stop-opacity=".7"/><stop offset=".27" stop-color="#848484" stop-opacity=".55"/><stop offset=".33" stop-color="#303030" stop-opacity=".44"/><stop offset=".36" stop-color="#101010" stop-opacity=".4"/><stop offset=".45" stop-color="#131313" stop-opacity=".45"/><stop offset=".82" stop-color="#1a1a1a" stop-opacity=".6"/></radialGradient><path d="m24.78 85.8 5.87 4.66a2.12 2.12 0 0 0 3.14-.57l21-33.68a2.33 2.33 0 0 0 -.51-3l-1-.79a2.11 2.11 0 0 0 -2.94.28l-25.86 29.8a2.31 2.31 0 0 0 .3 3.3z" fill="url(#a)" opacity=".25"/><g opacity=".95"><path d="m29.19 34.1 21.55 22.36c.74.77 2.68 1.1 3.49.27l.43-.45c.8-.83.48-2.85-.26-3.62l-21.55-22.36z" fill="url(#b)"/><ellipse cx="29.01" cy="30.11" fill="#231a00" rx="23.39" ry="24.28"/><ellipse cx="29.01" cy="30.11" fill="url(#c)" opacity=".8" rx="23.39" ry="24.28"/><path d="m14.62 29.17 5.9 6.13a9 9 0 0 0 13.07 0l.42-.44a9.86 9.86 0 0 0 -.01-13.56l-5.9-6.13a9 9 0 0 0 -13.07 0l-.42.44a9.86 9.86 0 0 0 .01 13.56z" fill="#231a00"/><path d="m14.62 29.17 5.9 6.13a9 9 0 0 0 13.07 0l.42-.44a9.86 9.86 0 0 0 -.01-13.56l-5.9-6.13a9 9 0 0 0 -13.07 0l-.42.44a9.86 9.86 0 0 0 .01 13.56z" fill="url(#d)" opacity=".8"/><ellipse cx="15" cy="15.56" fill="#231a00" rx="14.99" ry="15.56"/><ellipse cx="15" cy="15.56" fill="url(#e)" opacity=".7" rx="14.99" ry="15.56"/></g></svg>