<svg height="12" viewBox="0 0 1031.57 12" width="1031.57" xmlns="http://www.w3.org/2000/svg"><g fill="#f0f6f3"><path d="m216 6.33a1.68 1.68 0 0 0 -.24-.28.56.56 0 0 1 .24.28z"/><path d="m676 5.8h-.35c.15-.04.26-.04.35 0z"/><path d="m1031.57 6.43v5.38h-1031.57v-6.35a10.11 10.11 0 0 0 2.14.24c.43-1-1.17-.54-1-1.38 1 .29 1.29 1 2.06 1.47.58-.69-.82-1.29.14-1.28 7.86-.57 13.54-4.17 19.87-4-.7-.22-2.41.22-2.49-.51a117.89 117.89 0 0 0 12.76 1.74c2.57 2.65 7.79-.17 12.64 2.26 2-.12 3.19.93 4.06 0-.33 1.31 1.3-.21.27 1 1.55-.66 2.55.94 1.55-.81 1.74-.19 1.16 1.35 2.44 1.51.05-.81-.59-1.07.51-1.26 0 .39-.17.91.26 1 .12-.48 0-1.2.51-1.26a7 7 0 0 1 1.69 1.45c.1-.38 0-.92.48-.94 0 .39-.17.91.25 1 .37-1.62 1 .56 1.8.48.21-.54-.46-.88.11-1 .63-.36 1.15 1.65 1.72 1.12-1-.85 3.21-1.24 3.27.61.32-1.35 1.15-1 .25-2.26.58.66 1.11-.3 1.79.48.7-1.1-1.22-.3-1-1.06.53 0 .68-.48 1.17-.56.62.71.19 1.41.56 1.68 1.37-.62-1-1.52.21-1.93.98.19-.02 1.85 1.3 1.75-.43-1.86 1.4-.86 1.87-.16a1.85 1.85 0 0 1 1.21-.84c0 .49-.27 1.18.22 1.32.15-.56.72-.68 1.54-.52 0 .39-.17.91.26 1 .25-.3 1.76.1 2.3-.78.51.55 1.78 3.28 1.59 2.41a3.75 3.75 0 0 1 0-3.58c1.83 1 2.8-.18 4.44.06a9 9 0 0 0 7 3.2 8.85 8.85 0 0 1 2.12-2.43c.17 1 1.23 2.85 1.94 2.45-1.58-1.13 2-2.47-.81-2.68a2.28 2.28 0 0 1 .84-.9c1.07.91 1.16 1.18 2 1.8 1.54-1.64 5.63.47 6.33-.44 0 .38-.16.91.26 1 2.23-.89 3.15.43 4 .66.11-.48 0-1.19.51-1.26.18.81 4.83 1.82 2.9.58a6.25 6.25 0 0 1 3.12 1.89c.12-.48 0-1.2.51-1.26 1.44 3.07 8.06 2.35 12.15 4 .74-2 3.11-.7 4.68-2.21.1-.9-1.09.69-.66-.7 1.74.79 2.21-.06 3.73-.34a15.84 15.84 0 0 0 1.7 1.45c0-.59.44-.72 1.17-.56-.82 1 .31 0 .62 1 .47-1.06.56 0 .84-.91 1.79.15.76 1.2 1.29 1.74.22-1 1.5-.8 2-1.46.19 1.25 2 2.87 2.66 2.83-.32-.12-1.51-1-.63-1 1.2-.18.67.9 1.36 1.1.2-.55-.46-.88.1-1 .12.59.42-.11.77-.27 0 .5-.26 1.18.23 1.33.48-1 3.26 1.3 2.56.21-.17-.46-1.41-.16-1.39-.76 1.73.77 1.1-1 2.3-.79.09.57-.63.78-.1 1 .47-.95.65-.36 1.1.1 1.31-2.66 2.61-1 4.39-2.89.24.81-1.82 1.52-.18 1.62a3.23 3.23 0 0 1 1.31-1.85c2.22.53 2.9.59 4.84-.24 0 .43.61.35.66.71-.16.6-.58-.23-.77.26a1.76 1.76 0 0 0 2.28-.46c-.31-.37-1.35-.21-1-1.06 2.9.63 5-2.83 9.75-1.13-.05.48-.43 2.63.18 1.65.14-.79.23-1.55-.15-2 1.71.36 2.15-.38 2.31-.78a2.49 2.49 0 0 1 1 .74c-.41 0-1 .46-.44.61.06-.49 1.12-1 .74.06 1.88-2.13 7.21 1 6-.79 2.64 1 5.69 0 8.4 1 6.88-3.4 15.53 4.14 20.6 1.1-.39 0-.91-.23-.33-.35 3.28 1 4.2-1.22 6.35-.44-.66-.2.05-.38 0-.72.83 1.06 1.64 3.36 2.1 2.76.08-.56.56-3 1-2.76 4.21-1.39 8.57-.51 12.56-.23-.78 0-1.09 2.61-1.51 3 2.19-.15 5-4.56 6-2.63.53-.16.19-1.24.87-1.23a2 2 0 0 0 .19 1.65c-3.68-.55.08 1 1.1.09-.8 0-1.13-.36-1-1.06 2.56-.25 4.13 5.2 6 3.35 3.44 1.86 6.8-3.26 10.5-1.62.11-.37.05-.92.48-.93.44 1.25 3.11-.63 3.53 1.6 1.19-2.2 2.93 2.74 3.69.88a8.27 8.27 0 0 0 5.34-1.51c2.88 1 6.78 2 9.53.81 3.33 1.66 6.65-3.06 9.39-2 .2-1.9 2.84.19 3.08-1-.4-.09-.53-.4-.66-.7.74.25 1.08 1 1.79.48.21-.94-.71-1.06-.51-2 3.1.06 6.19-.89 9.46-.23a.6.6 0 0 0 .54.1l-.54-.1c-.42-.3-.56-1-.09-.93 3.52 1.44 4.87 4.95 9.54 5.82.09-.38 0-.93.47-.94 3.59.18 6.85 1.56 9-.87 0 .32-.08.65-.11 1a2.08 2.08 0 0 1 2.27-.46c.85-1.63 4.65.39 8.07.69.58-.7-.81-1.3.14-1.3a25.81 25.81 0 0 0 2.49.87c.63-1 2.11-1.12 2.82-2 1-.15.67.7 1.39.77-.25-1.33 3-.57 3.27.6a1.6 1.6 0 0 0 -.23-1.32c3.83.46 6.29.4 10.17 1.84-.46 0-.88 0-.81.58 1.69-.78 7.59 0 7.34.62 1.78-.83 6.07.86 6.37-.75 4.24 1.23 12.18 1.45 14.15-.76 2 1.65 6.46.43 7.81 2.95 3.53-1.65 8.21-2.32 11.8-2.91a1.4 1.4 0 0 1 -.48.93c2.76-2.64 8.79-3.26 13.09-1.16-.3-.88-.88-1.19.21-1.94 7.63 1.7 12.1-.64 18.28-1.38 3 1.76 11.63-.22 13.87 1.83 1.55-2.24 6.76-1.78 9.44-1.8a.33.33 0 0 1 .08-.65c3 1.34 5.64-.44 7.8-.31 4.81 1.49 10.63 5.86 15.21 3.66 1.73 2 6.13.34 6.74-.73 2.41.77 2.65-.07 4.3 1.35.28-1.35 2.16-1.39 2.08-2.11 2 1.47 2.39-.53 2.87.9.75-.52-.4-1 .87-1.23.72.77 2.47 2.35 3.09 2.21-3.36-1.62 2.37-2.25 2.67-.75.57-2 3.4 0 4 .66.91-1.9 5.91.58 7.22-1.66 1.65.84 3.85-.07 5.17.12-.81.68 0 .36.26 1a2.32 2.32 0 0 0 1.5-.19c1.49 3.58 6.36 1 9.46 1.45 2.85.26 4.59-1.61 6.59-1.3a.77.77 0 0 0 -.74.56c2.83 0 4.94 2.67 8.61 3.1-.39-3.3 7.36-.91 10.44-.74.21-.54-.45-.87.11-1 .74.15.62.93 1.36 1.09-.42-1.1.19-.93.91-1.55.27.49 3.06 1.67 2.5.86-.68-.1-1.21-.32-1.4-.77 3.83-.16 4.2 2 7.63 1.3-.28-.1-.72-.07-.7-.39 3-1.52 5.3-6.32 7.91-5.28 1.29.45 5.62.7 7.2 1.91-.45-1.52 1.89-.86 2.27-.45.67-1.18-1.63-.2-1-1.39a2.55 2.55 0 0 0 2.57.22c-.9.71 2.48 2 2.75 1.86a2.63 2.63 0 0 1 -1-.73c1.33.45 1.26-.58 1.94-.81 1.71.77 3.64 2.77 5.34 2.44-.89-.41.45-1.41 1.24-1.2 2.75 1.7 5-.68 8 1-.74-1.43.55-.54 1.23-1.2-.4-.1-.53-.41-.66-.71a4 4 0 0 1 -2.51-.56c4.1-.62 9.46 2.94 14.53 2.54 0 .36-.59.46-.07.64.1-.61 1.34.38 1.79.48 5-2.54 16.28-.73 21.08.16.87-.16.84-1.46 2.64-.43.69-.66 1.08-.72 1.24-1.19 3.22.2 5.91.79 8.54-.26 1.47.35 2.25 1.71 3.52 1.61-.17-.31-1.38-1.32-.59-1.36 1.62.56 2.59-.14 3.2 1.25.1-.37 0-.92.47-.93 2.59 2.37 6.68-1.45 9.1 1.42 1.08-.09-.51-.55-.26-1 4.81 2.07 7.66 1.57 12.31 2.7-1.35-.66 1.75-1.56 2.34-1.1a1.14 1.14 0 0 1 .31.34c-.55.44.22.43 0 0a2.15 2.15 0 0 1 .42-.28s.85.25 1.1.09c-.06 0 1.61-1.62 1.31-1.88 1.38-.08 2.17-.77 3.44-1 2.34 1.54 5.41 2.38 7.05 3.21-1.48-1.29-.28-.24.74.06.22.06 1.08-.3 1.5-.2 4.18 1 7.86 2 10.89 1.9.92-1.12.43-1.64 2.09-2.1 2.13.25 5.24 2.78 6.56.88-.92 0-1.22.52-1.43-.45 1.41.54.86-1 2.27-.45.69.09-.28.57.3.67 5.48 1 7.6-1 10.72-.45-.24-.1-.37-.26-.24-.61.91-.52 2.89.88 4.07 0-2 0-.33-.55.1-1-.26 1.31.51 0 1.43.45.62.25-.2 1.53.56 1.67.12-1 1.66-1.23 2.81-2a50.47 50.47 0 0 0 8.83 2.37c-1.4-.26 1.06-.85-.43-1.33 1.51.5 3.6-.66 4.3 1.35.44-1.63 2.62.22 3.69 0-.53-.62 1.51.49 1.18-.55 1.14 1.19 2.82-.1 4.07 0 4.34.89 9.6 1.92 12.5.74 1.59-.66 2.4.48 2.16.5 2.25-.24 4.61-2.63 7.85-.63.93-.36.3-.62.83-.91 2.48-.39 5.73 1 8.73 1.4 1.25.15 3.74-.83 3.67.31.63-1.08 1.69-1.2.21-1.94 1-.44 3.16.56 3-.4 3.32 1.85 5.25.47 8 1.66-.41-2.21 3.58-.44 5.69.08-.57-.28-1-.91-.42-.94 2.27.25 4.47-1.66 7.86-2.37-1-.47-.9 4.76-2.2 4.81 1.68-.87.17-1.76 1.34-2.17.79 1.91 2.4.49 3.63.64-.27-.1-.72-.07-.69-.39 1.54.44 1.51-.78 2.67-.75.53.33 1.1 2.14 1.7 1.45-.9-.11 0-1.07.46-.94 1 .7 2.18-.54 3.31.28a1.4 1.4 0 0 1 .87-1.23c.06.49 1.39 1.52 1.76.81-1.53-.65 1.26-.4 1.91-.49-1.07.74.65.51.59 1.35a8.35 8.35 0 0 0 3.37-.37 1 1 0 0 1 -1-.73c.83 0 1.44 1.68 2.13.82.1-.54-.94-1-1.66-1.76 1.76-1.29 5.48.73 7.55-1.32 1.24.19 1.67 1 3.23.93.26-.56.33-1.32.91-1.55.73 1.56 5.14-1.49 7.37.3.4-.53.18.34 1.28.55-.46.39 1.85-.68 2.68.43 1 .23-.79-1.28.51-1.25.5.94 1.94.72 2.86.89-.4-.1-.53-.4-.66-.7 2-.1 6.16.19 4.61-1.57 2.37-1 7.47-2.46 8.17-.28 1.31-.56-.76-1.18.14-1.29 1.27 0 .68.74 1.7 1.44.13-1.29 2-.73 3.4-.68.57-1-1.16-.35-.59-1.35.47.53 1.67 6.16 2.53 5.54.18-.63-.43-.69-.62-1a10.63 10.63 0 0 1 6.77.88 2.39 2.39 0 0 0 .49.39 1.51 1.51 0 0 0 -.49-.39c-.85-1 1-1.7 1.7-.49.46-2.38 3.22.64 4.11-.3-1.29-1.22 2.95.06 3.72-.34.26-.45-.24-1.7.55-1.58 1.9.46 2 1.17 5.1.76-.43-.09-1.05 0-1.07-.42 2.74.11.54.9 3.27.6.54.88-.7 1.21.59 1.36.64-.08 0-.43.1-1 1.88 1.08 3.92-.36 5.07 1.08 1.51-1.15 3.81.48 5.53.15.36-1.76 5.33.81 7 .26.13-.87-.53-.69.15-1.28 1.44 1.14 2 .14 3.27.6-.25-1.14.26-1-.56-1.68 1.29.77 2.17-.07 3.37-.37-1 1.32 1.83-.14 2.09 1.16.24-.6-1-1.48.51-1.26.94-.08-1 1.4.19 1.65.53-.16.19-1.24.88-1.23.23 1.84 1.57-.17 2.23-.14s.14 1.09 1 1.06c-.23-1.56 1.36-.82 1.5-.19.4-.73-1.13-1.5-.18-1.65 1.83.67 3.81-.16 5.67-1.15 1 .15.89 1.14 1.7 1.45.58-.69-.82-1.29.14-1.29 1.41-.1 2.12 1.49 1.91 2.77.48-2.32 2.8-1.41 4.36-2.56.28.63-1.22 1-.14 1.29.82-1.12 1.49-.14 2.7-1.08-.34 1.85 1.13-.52 1.32 1.42 1.54-1.43 3.16-.65 4.74.73.11-.48 0-1.21.51-1.26 1.31 1.12.07 1.21 2 2.44.57-.94-1.08-1.74-.15-2 1.51 0 3.56 2.41 3.52 1.6-.38-.26-1.79-1.24-1-1.38 2.16 0 1.82 1.58 3.6 1-.53-.34 1.11-.41.84-.91 1.18.79 5.16-.42 7.59 1.63.73-.74 1.6-.22 2.71-1.08.15.49-.61 1.64.19 1.65a.94.94 0 0 1 .84-.91c2.17 1.25 4.48-2 7.92-3-.63-.23-1.5-.3-1.76-.8 1.33.46 1.14-.71 2.27-.46-.58.63 4.55 1.78 4.37.7 1.12 1.69 5.17-.21 5.2-.21s.5 4.73 1 4.73c2.1 0 9.27 3.88 8.83.43 1.3-.6 5 2.68 5.06 1.08-.13.49-.6 0-.69-.39 2.11-.29 6.86-4.07 9-2.6.18-.63-.42-.68-.63-1 1-.27 1.13 1.49 1.8.48-.81 0-1.14-.37-1-1.06.67.43 1.89-.15 2.49.86.53-1.68 1.73 0 1.28-1.53 1.2-.17 1.36.4 1.76.81-.16-.89.83-.56 1.21-.88.18.31.57 1.91 1 1.07-.42-.1-.34-.55-.26-1 3.6.78 5.08 3.21 8.96 3.07z"/><path d="m714.66 7.5c0 .2 0 .38.33.35.14-1.74-1.45-.48-1.87.17 1.12.46.95-.43 1.54-.52z"/><path d="m804.84 8.64c1.68.49.77.12 1.73 1.13-.19-1.23 1.64.08 2.19.18.43-1-.46-1-.56-1.67-1.12-.26-1.85.61-1.05-.42-.92 0-1.09-.6-1.77-.8-.1 1.21.44 1.09-.54 1.58z"/></g></svg>