<svg height="10.25" viewBox="0 0 1030.98 10.25" width="1030.98" xmlns="http://www.w3.org/2000/svg"><g fill="#f0f6f3"><path d="m677.06 5h-.35c.19-.06.29-.06.35 0z"/><path d="m608.69 4.08c0 .36-.58.45-.06.64.1-.61 1.34.39 1.8.5 5-2.49 16.26-.57 21.07.36.85-.15.81-1.45 2.62-.4.68-.65 1.07-.71 1.23-1.18 3.22.24 5.92.85 8.53-.17 1.47.36 2.27 1.72 3.54 1.64-.18-.32-1.39-1.33-.61-1.36 1.63.57 2.58-.13 3.21 1.28.09-.38 0-.92.46-.93 2.62 2.39 6.66-1.38 9.1 1.51 1.09-.08-.5-.56-.26-1 4.78 2.1 7.65 1.61 12.3 2.79-1.35-.68 1.73-1.55 2.33-1.08a1 1 0 0 1 .31.34c-.54.44.23.44 0 0a3.76 3.76 0 0 1 .43-.27s.85.26 1.1.1c-.06 0 1.58-1.61 1.27-1.87 1.38-.06 2.16-.76 3.44-.93 2.36 1.56 5.43 2.43 7.08 3.27a8.12 8.12 0 0 1 -.69-.62 10.14 10.14 0 0 0 1.43.69c.22.07 1.07-.29 1.49-.18 4.2 1 7.89.55 10.92.51.9-1.12.4-1.64 2-2.09 2.14.28 5.27 2.84 6.57 1-.92 0-1.21.51-1.44-.46 1.41.56.85-1 2.27-.44.68.1-.28.57.3.68 5.57 1.08 7.65-1 10.85-.3-.32-.09-.54-.24-.39-.66.91-.51 2.9.91 4.06.06-1.94 0-.32-.56.1-1-.24 1.3.51 0 1.43.45.62.26-.18 1.53.58 1.69.11-1 1.65-1.22 2.79-2a50.73 50.73 0 0 0 8.88 2.46c-1.48-.27 1-.84-.48-1.33 1.52.51 3.59-.63 4.31 1.38.42-1.62 2.62.25 3.7 0-.54-.63 1.5.5 1.16-.54 1.15 1.21 2.81-.07 4.07.06 4.35.94 9.62 2 12.5.86 1.59-.63 2.4.51 2.16.53 2.24-.22 4.57-2.59 7.83-.56.94-.35.3-.62.83-.9 2.46-.36 5.73 1.1 8.74 1.48 1.25.17 3.72-.79 3.67.35.61-1.07 1.67-1.18.19-1.93 1-.43 3.16.59 3-.37 3.33 1.88 5.25.52 8 1.73-.43-2.22 3.58-.4 5.68.14-.57-.28-1-.92-.42-.94 2.27.27 4.5 3.39 7.88 2.7-1-.47-.9-.24-2.2-.21 1.66-.85.15-1.76 1.32-2.15.8 1.92 2.4.51 3.63.67-.27-.1-.72-.08-.7-.4 1.55.46 1.51-.77 2.66-.72.55.33 1.13 2.15 1.71 1.46-.89-.12 0-1.07.46-.93 1 .71 2.17-.52 3.3.32a1.41 1.41 0 0 1 .86-1.23c.06.49 1.41 1.54 1.77.82-1.54-.66 1.26-.38 1.9-.47-1.06.74.66.52.61 1.36a8.19 8.19 0 0 0 3.38-.29 1 1 0 0 1 -1-.75c.84 0 1.47 1.7 2.14.85.1-.55-1-1.05-1.67-1.78 1.74-1.27 5.47.78 7.52-1.24 1.25.19 1.68 1 3.24 1 .26-.55.35.76.92.53.74 1.57 5.09 0 7.34 1.8.39-.53.18.35 1.28.57-.45.38 1.84-4.16 2.69-3 1 .24-.78.78.51.82a5.22 5.22 0 0 0 2.78 2.2c-.31 0-.43-2.38-.55-2.15 2-.1 6.07 1.67 4.51-.08 2.36-1 7.44-2.4 8.17-.21 1.29-.55-.78-1.18.12-1.29 1.27 0 .68.75 1.71 1.46.12-1.29 2-.71 3.39-.65.56-1-1.15-.36-.6-1.36.47.54 1.68 1.19 2.53.57.18-.63-.43-.69-.63-1a10.78 10.78 0 0 1 6.78 1 2.09 2.09 0 0 0 .49.39 1.66 1.66 0 0 0 -.49-.39c-.87-1 .92-1.69 1.69-.48.44-2.36 3.23.68 4.1-.26-1.3-1.23 2.95.1 3.72-.29.25-.45-.26-1.71.53-1.59 1.9.48 2 1.2 5.1.82-.42-.09-1 0-1.07-.42 2.74.12.55.89 3.27.63.55.87-.68 1.19.61 1.36.64-.08 0-.43.09-1 1.89 1.09 3.91-.32 5.07 1.13 1.5-1.13 3.82.51 5.54.2.33-1.76 5.32.86 7 .34.12-.88-.54-.71.13-1.29 1.46 1.16 2 .17 3.27.63-.26-1.14.25-.95-.57-1.68 1.29.79 2.17 0 3.36-.34-1 1.31 1.84-.11 2.1 1.18.24-.6-1-1.49.5-1.25.94-.07-1 1.39.21 1.65.52-.15.17-1.24.86-1.23.25 1.86 1.58-.14 2.23-.11s.15 1.09 1 1.07c-.25-1.56 1.35-.8 1.49-.18.39-.73-1.14-1.51-.21-1.65 1.84.69 3.84 1.95 5.68 1 1 .16.89-.92 1.69-.61-.18.27-.46.81.12.82 1.41-.09 2.12-.56 1.93.71.44-2.26 2.69.56 4.24-.39-.28-.26-.81-1.07 0-.84.82-1.11 1.51 2 2.72 1-.33 1.85 1.09-2.58 1.31-.63 1.52-1.43 3.14-.62 4.74.77.11-.48 0-1.2.49-1.26 1.32 1.13.09 1.22 2 2.47.56-.94-1.09-1.76-.18-2 1.52 0 3.59 2.45 3.54 1.64-.38-.26-1.79-1.25-1-1.4 2.16 0 1.84 1.61 3.6 1-.53-.34 1.11-.41.83-.9 1.19.79 5.16-.38 7.61 1.7.71-.73 1.59-.2 2.69-1 .16.49-.59 1.63.21 1.65a.91.91 0 0 1 .83-.9c2.18 1.27 4.51 3.05 7.94 2.05-.63-.24-1.51-.31-1.77-.82 1.34.48 1.12-.7 2.26-.43-.57.62 4.56 1.83 4.37.74 1.14 1.71 5.17-.16 5.2-.16s.51.74 1 .75c2.8.06 8.56-1.58 8.84.51 1.29-.59 5-.77 5.07-2.37-.14.49-.61 0-.7-.39 2.1-.28 6.87 1 9 2.48.17-.62-.43-.68-.64-1 1-.27 1.15 1.5 1.8.49-.8 0-1.14-.38-1-1.07.67.44 1.88-.12 2.51.89.5-1.67 1.72 0 1.25-1.51 1.2-.17 1.37.41 1.77.82-.17-.89.82-.55 1.19-.86.19.3.6 1.9 1 1.07-.42-.1-.35-.55-.27-1 3.12.71 4.68 2.6 7.46 3.08l.17 1.76h-1030.6l-.35-8.25a16.15 16.15 0 0 0 3.73.64c.42-1-1.17-.56-1-1.4 1 .3 1.3 1.05 2.07 1.49.6-.68-.8-1.29.2-1.28 7.85-.49 13.54 4 19.87 4.23l10.18 1.29c2.6 2.69 7.83-3.58 12.7-1.11 2-.09 3.2-1.53 4.06-2.43-.31 1.31 1.3-.2.28 1 1.58-.69 2.52.93 1.56-.83 1.72-.14 1.15-1.64 2.44-1.47 0-.81-.6-1.07.49-1.25 0 .38-.15.9.27 1 .12-.48 0-1.2.5-1.25a6.9 6.9 0 0 1 1.7 1.46c.1-.38 0-.93.47-.93 0 .38-.16.91.27 1 .34-1.62 1 .57 1.8.5.2-.55-.47-.88.1-1 .63-.36 1.16 1.67 1.73 1.14-1-.86 3.19-1.21 3.27.63.3-1.35 1.14-1 .23-2.26.59.67 1.11-.28 1.79.5.69-1.09-1.22-.31-1-1.07.53 0 .67-.48 1.17-.54.62.71.2 1.41.57 1.68 1.36-.6-1-1.53.19-1.93 1 .17 0 1.83 1.31 1.75-.45-1.82 1.39-.8 1.86-.1a1.8 1.8 0 0 1 1.19-.86c0 .49-.25 1.17.24 1.32.14-.56.71-.68 1.53-.5 0 .38-.15.91.27 1 .25-.29 1.76.12 2.29-.75.52.56 1.82 3.3 1.62 2.43a3.74 3.74 0 0 1 0-3.59c1.84 1 2.79-.16 4.43.1a9.21 9.21 0 0 0 7.07 3.25 9 9 0 0 1 2.09-2.41c.19 1 1.26 2.87 2 2.47-1.59-1.15 1.92-2.46-.84-2.69a2.34 2.34 0 0 1 .84-.9 25.75 25.75 0 0 0 2 1.83c1.52-1.63 5.63.52 6.32-.38 0 .38-.15.91.27 1 2.22-.86 3.15.46 4 .71.11-.48 0-1.21.5-1.26.19.8 4.85 1.87 2.9.6a6.46 6.46 0 0 1 3.14 1.93c.12-.48 0-1.21.5-1.26 1.47 3.1 8.07 2.43 12.18 4.09.72-2 3.1-.68 4.65-2.17.09-.9-1.07.67-.67-.71 1.76.81 2.22 0 3.73-.3a15.87 15.87 0 0 0 1.72 1.45c0-.58.44-.71 1.16-.54-.8 1 .32 0 .64 1 .45-1 .56 0 .83-.9 1.78.17.77 1.21 1.31 1.75.2-1 1.49-.78 2-1.43.21 1.25 2.06 2.89 2.68 2.85-.31-.12-1.52-1-.63-1 1.2-.17.67.9 1.37 1.11.19-.55-.47-.89.09-1 .12.58.41-.11.76-.26 0 .49-.24 1.18.24 1.33.47-1 3.28 1.33 2.57.24-.18-.47-1.41-.18-1.4-.78 1.74.79 1.09-1 2.3-.76.09.57-.63.77-.1 1 .46-1 .65-.36 1.1.1 1.28-2.65 2.6-1 4.35-2.85.25.82-1.8 1.51-.16 1.62a3.09 3.09 0 0 1 1.3-1.83c2.21.55 2.89.62 4.83-.19 0 .42.61.35.66.71-.14.6-.58-.24-.76.25a1.74 1.74 0 0 0 2.26-.42c-.32-.38-1.35-.23-1-1.08 2.91.66 5-2.78 9.72-1 0 .47-.39 2.63.21 1.65.13-.79.21-1.55-.18-2 1.71.37 2.14-.36 2.3-.76a2.64 2.64 0 0 1 1 .75c-.41 0-.94.45-.43.61 0-.49 1.11-1 .73.07 1.86-2.12 7.22 1.06 6-.73 2.64 1.06 5.68 0 8.4 1.12 6.87-3.31 15.59 4.37 20.63 1.37-.39 0-.92-.24-.34-.36 3.29 1 4.18-1.17 6.34-.37-.77-.24.34-.44-.16-.9.87.65 1.72-.56 2.21-1.19-.14.8.46 1.07 1 1.4 4.21-1.37 8.6-.42 12.6-.11-.93-.13-1.23-.72-1.74-1.15 2.21.09 5.12-.43 6.14 1.56.53-.15.18-1.23.86-1.22a1.91 1.91 0 0 0 .21 1.65c-3.69-.58.08 1 1.1.11-.81 0-1.14-.38-1-1.08 2.56-.22 4.15 1.1 6-.73 3.41 1.88 6.79.9 10.47 2.62.1-.38 0-.92.47-.93.45 1.25 3.1-.6 3.54 1.64 1.17-2.2 2.91-1.38 3.65-3.24.81.2 3.6 5.38 5.32 4.05 2.89 1.07 6.8 2 9.54.9 3.34 1.7 6.65-4.35 9.4-3.3.18-1.9 2.84 5.23 3.06 4-.4-.1-.53-.4-.67-.71.75.26 1.1 1 1.81.49.19-.93-.74-1.06-.54-2 3.09.09 6.17-.83 9.46-.13a.64.64 0 0 0 .53.11c-.18 0-.36-.08-.53-.11-.44-.31-.59-1.05-.11-.93 3.53 1.47 4.87 0 9.54.9.09-.37 0-.92.46-.93 3.59.22 6.86 2.63 9 .22 0 .32-.07.64-.1 1 1.07-.9 1.55-.54 2.27-.44.82-1.62 4.65.43 8.06.77.58-.69-.82-1.31.13-1.3a22.11 22.11 0 0 0 2.51.89c.61-1 2.08-1.1 2.79-2 1-.14.67.71 1.4.78-.27-1.33 2.94-.53 3.27.64a1.66 1.66 0 0 0 -.24-1.33c3.82.5 6.28.47 10.17 1.94-.45 0-.88 0-.8.58 1.68-.77 7.59.09 7.34.69 1.77-.81 6.08.92 6.36-.69 4.24 1.28 12.19 1.58 14.13-.62 2 1.67 6.46.49 7.84 3 3.51-1.61 8.17-2.24 11.75-2.8a1.4 1.4 0 0 1 -.46.93c2.73-2.62 8.74-3.17 13.06-1l18.34-3.25c3 1.79 11.62-.1 13.88 2 1.53-2.22 6.73-1.71 9.42-1.71a.33.33 0 0 1 .06-.65c3 1.38 5.64-1.39 7.8-1.23 4.84 1.54 10.66 3.44 15.21 1.28 1.75 2.06 6.12.4 6.73-.67 2.41.8 2.64 0 4.31 1.39.26-1.34 2.14-1.36 2-2.09 2 1.49 2.38-.5 2.88.93.74-.51-.41-1 .85-1.22.73.78 2.5 2.38 3.11 2.25-3.36-1.66 2.35-2.23 2.66-.73.56-2 3.4 0 4 .71.87-1.9 5.9.63 7.19-1.6 1.66.86 3.84 0 5.16.16-.8.68.06.37.28 1a2.33 2.33 0 0 0 1.5-.19c1.52 3.61 6.35 1 9.46 1.55 2.89.47 4.64 2.61 6.68 2.95a.76.76 0 0 0 -.73.55c2.83 0 4.93-1.29 8.6-.82-.44-3.31 7.34-.85 10.42-.64.21-.54-.46-.88.1-1 .74.16.63.93 1.37 1.1-.43-1.1.18-.92.89-1.54.28.49 3.07 1.7 2.51.89-.68-.11-1.21-.33-1.41-.79 3.83-.12 4.23-3 7.64-3.62-.28-.1-.72-.08-.7-.39 3-1.51 5.26-2.28 7.89-1.21 1.29.47 5.62.75 7.21 2-.46-1.53 1.88-.85 2.26-.43.66-1.18-1.63-.22-1-1.4a2.55 2.55 0 0 0 2.57.24c-.9.71 2.5 2.07 2.77 1.9a2.7 2.7 0 0 1 -1-.75c1.33.47 1.24-.56 1.93-.79 1.66.7 3.63 2.76 5.31 2.45-.89-.41.43-1.4 1.22-1.18 2.76 1.72 4.95-.63 8 1.08-.75-1.43.55-.53 1.22-1.18z"/></g></svg>