<svg height="12.72" viewBox="0 0 1031.57 12.72" width="1031.57" xmlns="http://www.w3.org/2000/svg"><g fill="#f0f6f3"><path d="m92 8.38c-.11.17-.19.23 0 0z"/><path d="m354 11.66h.35c-.16.04-.27.04-.35 0z"/><path d="m1027.85 5.76c-.44 1 1.16.54 1 1.38-1-.29-1.29-1-2.06-1.48-.58.7.82 1.3-.14 1.29-7.12.51-12.46-.59-18.11-.94-.58 0-1.17-.07-1.76-.09a8.84 8.84 0 0 0 1.76.09c.42 0 .74.14.77.45-5-1-7.67-2.72-12.76-3.24-2.57-2.66-7.79 6.16-12.63 3.72-2 .11-3.2-.94-4.07 0 .32-1.31-1.3.2-.27-1-1.58.68-2.58-.94-1.58.82-1.72.16-1.14-1.35-2.42-1.51 0 .82.59 1.08-.51 1.27 0-.39.16-.92-.26-1-.12.47 0 1.2-.51 1.25a6.61 6.61 0 0 1 -1.69-1.44c-.1.37 0 .92-.47.93 0-.38.16-.9-.26-1-.37 1.61-1-.57-1.8-.48-.21.54.45.87-.11 1-.64.36-1.15-1.66-1.72-1.13.94.85-3.21 1.25-3.27-.6-.32 1.35-1.15 1-.25 2.26-.58-.66-1.11.29-1.8-.48-.69 1.1 1.23.3 1 1.06-.53 0-.68.48-1.17.55-.62-.7-.2-1.41-.56-1.67-1.37.62 1 1.51-.21 1.93-1-.16.07-1.83-1.29-1.74.43 1.87-1.4.86-1.87.17a1.85 1.85 0 0 1 -1.21.88c0-.49.26-1.18-.22-1.33-.15.57-.72.69-1.54.53 0-.39.16-.91-.26-1-.26.3-1.76-.1-2.3.78-.52-.56-1.78-3.28-1.59-2.41a3.75 3.75 0 0 1 0 3.58c-1.84-1-2.8.19-4.44-.06a9 9 0 0 0 -7.05-3.2 9 9 0 0 1 -2.12 2.43c-.17-1-1.23-2.86-1.95-2.45 1.58 1.13-1.94 2.47.82 2.67a2.33 2.33 0 0 1 -.85.91 24.8 24.8 0 0 0 -2-1.8c-1.54 1.64-5.63-.47-6.34.44 0-.39.17-.91-.26-1-2.22.89-3.14-.43-4-.67-.12.48 0 1.21-.51 1.26-.18-.8-4.83-1.82-2.9-.57a6.35 6.35 0 0 1 -3.12-1.89c-.12.48 0 1.2-.51 1.26-1.44-3.08-8-.85-12.15-2.46-.74 2-3.11.7-4.68 2.21-.1.9 1.08-.69.66.7-1.74-.79-2.21.06-3.73.33a17 17 0 0 0 -1.7-1.44c0 .58-.44.72-1.17.55.82-1-.31 0-.62-1-.47 1.06-.56 0-.85.91-1.77-.16-.75-1.2-1.28-1.74-.22 1-1.5.8-2 1.46-.2-1.26-2-2.87-2.66-2.84.32.13 1.51 1 .63 1-1.21.18-.67-.9-1.36-1.1-.2.55.46.88-.11 1-.11-.59-.41.11-.76.26 0-.49.26-1.18-.22-1.32-.49 1-3.27-1.3-2.57-.22.17.47 1.4.17 1.39.77-1.73-.77-1.1 1-2.31.78-.08-.57.64-.78.11-1-.47 1-.65.37-1.1-.09-1.31 2.66-2.61 1-4.39 2.89-.24-.82 1.82-1.53.18-1.62a3.25 3.25 0 0 1 -1.31 1.84c-2.22-.52-2.9-.59-4.84.25 0-.43-.61-.36-.66-.71.15-.6.58.23.77-.26a1.76 1.76 0 0 0 -2.28.46c.31.37 1.35.21 1 1.06-2.9-.63-5 2.82-9.75 1.12.05-.47.43-2.63-.19-1.64-.13.79-.22 1.55.16 2-1.71-.35-2.14.39-2.31.79a2.68 2.68 0 0 1 -1-.74c.41 0 1-.46.44-.62-.06.5-1.12 1-.73-.06-1.89 2.14-7.22-1-6 .79-2.64-1-5.69 0-8.4-1-6.89 3.39-15.53-4.14-20.6-1.1.39 0 .91.23.33.35-3.28-1-4.2 1.22-6.35.44.76.23-.34.43.15.9-.87-.65-1.73.57-2.22 1.2.15-.8-.45-1.06-1-1.39-4.23 1.41-8.62.51-12.61.24.93.12 1.22.7 1.73 1.12-2.21-.05-5.13.49-6.13-1.49-.53.15-.19 1.24-.88 1.22a1.86 1.86 0 0 0 -.19-1.64c3.68.54-.07-1-1.1-.09.81 0 1.14.36 1 1.06-2.56.25-4.13-1.06-6 .79-3.39-1.85-6.79-.84-10.45-2.51-.11.37 0 .91-.48.93-.44-1.25-3.12.63-3.53-1.6-1.2 2.2-2.93 1.4-3.69 3.27a8.31 8.31 0 0 0 -5.34 1.5c-2.88-1-6.78-2-9.53-.81-3.34-1.66-6.65-1.08-9.4-2.1-.2 1.9-2.83-.2-3.07 1 .4.1.53.4.66.71-.74-.25-1.08-1-1.79-.48-.21.93.72 1.06.51 2-3.1-.06-6.19.89-9.47.23a.61.61 0 0 0 -.53-.11c.18 0 .36.07.53.11.43.3.57 1 .1.92-3.52-1.43-4.87.05-9.54-.81-.09.38 0 .93-.47.94-3.59-.18-6.85-1.57-9 .87 0-.33.08-.65.11-1a2.11 2.11 0 0 1 -2.27.46c-.85 1.63-4.66-.39-8.07-.69-.58.7.81 1.3-.14 1.29a26.24 26.24 0 0 0 -2.5-.86c-.62 1-2.1 1.12-2.81 2-1 .15-.67-.7-1.4-.77.26 1.33-3 .56-3.26-.61a1.62 1.62 0 0 0 .23 1.33c-3.83-.46-6.29-.4-10.17-1.84.45 0 .88 0 .81-.58-1.69.77-7.6 0-7.34-.63-1.78.84-6.08-.85-6.37.76-4.23-1.24-12.18-1.46-14.15.76-2-1.66-6.46-.43-7.81-2.95-3.54 1.65-8.21-2.68-11.8-2.09a1.47 1.47 0 0 1 .48-.94c-2.82 2.68-8.87 3.29-13.15 1.2.3.88.88 1.19-.21 1.94-7.63-1.71-12.1.64-18.28 1.38-3-1.75-11.63.22-13.87-1.83-1.56 2.24-6.76-3.73-9.45-3.7a.33.33 0 0 1 -.06.65c-3-1.35-5.66.44-7.81.31-4.81-1.49-10.64-1.86-15.21.34-1.73-2.05-6.13-.34-6.75.73-2.4-.77-2.64.07-4.29-1.35-.28 1.35-2.16 1.38-2.09 2.11-2-1.47-2.38.52-2.85-.9-.76.51.39 1-.88 1.23-.71-.78-2.47-2.85-3.08-2.72 3.35 1.62-2.39 2.26-2.68.75-.57 2-3.4 0-4-.66-.9 1.91-5.9-.59-7.21 1.66-1.65-.83-3.85.08-5.17-.11.81-.68-.05-.36-.26-1a2.35 2.35 0 0 0 -1.51.2c-1.48-3.59-6.35-1-9.46-1.45-2.88-.45-4.6-2.56-6.6-2.89a.76.76 0 0 0 .74-.56c-2.83.06-4.95 6.33-8.62 5.9.41 3.31-7.35.92-10.43.74-.22.55.45.88-.11 1-.74-.16-.63-.93-1.36-1.09.42 1.1-.19.92-.91 1.55-.27-.49-3.05-1.67-2.5-.87.68.11 1.2.32 1.4.78-3.83.16-4.21-2-7.63-1.3.28.1.72.07.7.38-3 1.53-5.3 2.33-7.92 1.28-1.28-.45-5.61-.69-7.19-1.91.44 1.53-1.89.87-2.27.46-.67 1.18 1.64.2 1 1.38a2.59 2.59 0 0 0 -2.57-.22c.9-.71-2.48-2-2.75-1.86a2.64 2.64 0 0 1 1 .74c-1.32-.46-1.25.58-1.94.81-1.66-.68-3.6-2.72-5.28-2.4.88.41-.45 1.4-1.24 1.2-2.75-1.7-5 2.68-8 1 .74 1.43-.55.54-1.24 1.2a1 1 0 0 1 .67.7 4.07 4.07 0 0 1 2.53.55c-4.1.62-9.46-2.95-14.53-2.54 0-.36.59-.46.07-.64-.1.61-1.34.12-1.8 0-3.07 1.55-18.2 3.86-21.07 3.33-.86.17-.83 1.47-2.64.43-.69.66-1.08.72-1.24 1.2-3.22-.2-5.91-.79-8.54.25-1.47-.34-2.25-1.7-3.52-1.6.17.31 1.37 1.32.59 1.35-1.63-.55-2.59.15-3.2-1.24-.1.37 0 .91-.47.93-2.59-2.37-6.68 1.45-9.1-1.42-1.08.09.51.55.26 1-4.89-2.07-7.75-1.51-12.4-2.68 1.35.66-1.74 1.56-2.34 1.1a1.44 1.44 0 0 1 -.31-.34c.55-.44-.22-.43 0 0a2.46 2.46 0 0 1 -.43.28s-.85-.25-1.09-.1c.06 0-1.61 1.63-1.31 1.89-1.37.08-2.17.78-3.45 1-2.33-1.54-5.4-2.38-7.05-3.21 1.49 1.29.29.24-.73-.06-.22-.07-1.08.3-1.5.2-4.18-1-7.87-2-10.9-1.9-.92 1.12-.42 1.64-2.08 2.1-2.13-.25-5.25-2.78-6.56-.88.92 0 1.21-.52 1.43.45-1.41-.55-.86 1-2.27.45-.69-.09.28-.57-.3-.67-5.49-1-7.62 1-10.75.44.26.08.41.25.28.62-.92.52-2.9-.88-4.07 0 1.95 0 .32.55-.11 1 .26-1.3-.51 0-1.43-.44-.61-.25.19-1.53-.56-1.68-.12 1-1.67 1.24-2.81 2a50.28 50.28 0 0 0 -8.87-2.38c1.48.26-1 .85.47 1.34-1.52-.5-3.6.66-4.29-1.35-.45 1.63-2.63-.22-3.71 0 .53.63-1.5-.48-1.17.56-1.14-1.2-2.81.1-4.07 0-4.35-.89-9.6-1.93-12.5-.74-1.51.61-2.3-.35-2.19-.5-2.24.26-4.59-.38-7.81-2.37-.95.36-.31.62-.84.91-2.47.39-5.73-1-8.74-1.4-1.25-.15-3.73.83-3.66-.31-.63 1.07-1.69 1.19-.22 1.94-1 .44-3.15-.57-3 .39-3.32-1.85-5.25-.47-8-1.65.41 2.21-3.58.44-5.69-.08.57.27 1 .91.42.94-2.27-.25-4.47-3.35-7.86-2.63 1 .46.9.23 2.2.19-1.68.87-.17 1.76-1.35 2.16-.78-1.9-2.39-.49-3.63-.63.28.1.72.07.7.39-1.54-.45-1.52.78-2.67.75-.54-.33-1.1-2.14-1.69-1.45.89.11-.05 1.07-.48.94-1-.71-2.16.54-3.3-.29a1.4 1.4 0 0 1 -.83 1.19c-.06-.48-1.39-1.52-1.76-.8 1.53.65-1.26.4-1.91.49 1.07-.74-.65-.52-.59-1.35-1.25 0-2.52-5-3.37-4.64a1 1 0 0 1 1 .74c-.83 0-1.44-1.68-2.13-.83-.1.55.94 1 1.66 1.77-1.76 1.29-5.47-.73-7.55 1.31-1.24-.19-1.67-1-3.23-.92-.26.56-.34-.75-.91-.52-.7-1.57-5.11 3.55-7.34 1.75-.4.53-.18-.34-1.28-.55.46-.39-1.85.68-2.68-.44-1-.22.78-.79-.51-.81-.49-.93-1.91 1.29-2.83 1.18.31 0 .45-1.13.57-1.36-2 .12-6.09 1.88-4.55 3.62-2.37 1-7.48 2.47-8.18.29-1.3.56.77 1.17-.13 1.29-1.27 0-.68-.75-1.7-1.44-.13 1.29-2 .73-3.4.68-.57 1 1.15.35.59 1.35a2.06 2.06 0 0 0 -2.53-.54c-.19.63.42.68.62 1a10.68 10.68 0 0 1 -6.78-.88 1.83 1.83 0 0 0 -.45-.39 1.73 1.73 0 0 0 .48.39c.86 1-.94 1.7-1.69.49-.47 2.37-3.23-.64-4.11.3 1.29 1.22-3-.06-3.73.34-.25.45.25 1.7-.54 1.58-1.91-.46-2-1.17-5.1-.76.42.08 1.05 0 1.07.41-2.75-.1-.54-.89-3.27-.6-.54-.87.69-1.2-.59-1.35-.64.08 0 .42-.11 1-1.87-1.08-3.91.35-5.06-1.08-1.51 1.14-3.81-.48-5.54-.15-.35 1.76-5.32-.81-7-.27-.12.88.54.71-.14 1.29-1.44-1.14-2-.15-3.27-.6.25 1.13-.25 1 .56 1.68-1.28-.77-2.17.06-3.37.36 1-1.31-1.84-1.86-2.09-3.15-.24.6 1 1.48-.51 1.26-.94.07 1.05-1.41-.19-1.65-.53.16-.19 1.24-.88 1.23-.23-1.85-1.57.16-2.23.14s-.14-1.09-1-1.07c.24 1.56-1.36.82-1.5.2-.39.73 1.13 1.5.19 1.64-1.83-.67-3.81-1.9-5.67-.92-1-.15-.89.94-1.7.62.18-.28.42-.77-.14-.77-1.41.1-2.12.58-1.92-.7-.46 2.27-2.69-.54-4.25.43.27.26.81 1.06 0 .84-.83 1.12-1.49-1.94-2.71-1 .35-1.84-1.12 2.6-1.31.66-1.54 1.43-3.16.65-4.74-.73-.12.48 0 1.2-.51 1.26-1.31-1.12-.07 3.78-2 2.55-.58.95 1.07-3.25.15-3-1.51 0-3.56-2.41-3.52-1.6.38.25 1.78 1.23 1 1.38-2.16 0-1.82-1.58-3.6-1 .53.34-1.11.41-.84.9-1.16-.75-5.14 5.45-7.57 3.45-.72.74-1.6-4.79-2.71-3.93-.15-.49.61 3.37-.19 3.36 0 .56-.37-4.2-.84-4.1-2.17-1.24-4.48 2-7.93 3 .64.23 1.51.29 1.77.8-1.33-.46-1.13.71-2.27.46.58-.63-4.55-1.79-4.37-.7-1.12-1.7-5.17.21-5.2.22s-.51-.74-1-.75c-2.8 0-8.58 1.67-8.83-.42-1.31.6-5-2.68-5.07-1.08.14-.49.61 0 .7.38-2.11.3-6.86-.92-9-2.39-.18.62.42.68.62 1-1 .27-1.12-1.5-1.79-.48.81 0 1.14.37 1 1.06-.66-.44-1.89.14-2.5-.86-.52 1.67-1.72 0-1.27 1.52-1.2.18-1.36-.4-1.76-.8.16.89-.83.56-1.21.87-.18-.3-.57-1.9-1-1.06.42.1.34.54.26 1-3.14-.66-4.68-2.53-7.46-2.98v-5.12h1031.57v6.85c-1.11-.23-2.15-1.09-3.72-1.09z"/><path d="m315.33 10c0-.2 0-.39-.33-.36-.15 1.75 1.44.49 1.86-.16-1.11-.48-.94.39-1.53.52z"/><path d="m225.15 5.82c-1.68-.49-.77-.12-1.73-1.13.18 1.22-1.64-.09-2.19-.19-.43 1 .46 1 .55 1.68 1.13.26 1.86-.61 1.07.42.91 0 1.07.6 1.76.79.1-1.2-.44-1.08.54-1.57z"/></g></svg>