<svg height="12.93" viewBox="0 0 1030.83 12.93" width="1030.83" xmlns="http://www.w3.org/2000/svg"><g fill="#f0f6f3"><path d="m355.35 2.34h.36c-.19.04-.3.04-.36 0z"/><path d="m814.89 6.32a1.64 1.64 0 0 0 .24.27.51.51 0 0 1 -.24-.27z"/><path d="m582.1 7a.33.33 0 0 1 -.07.65c-3-1.37-5.63.39-7.79.24-4.82-1.54-10.65-2-15.2.18-1.75-2.06-6.12-.4-6.72.67-2.42-.79-2.64 0-4.31-1.39-.27 1.35-2.14 1.36-2.06 2.09-2-1.5-2.38.5-2.87-.93-.74.51.4 1.05-.86 1.23-.72-.79-2.49-2.39-3.11-2.25 3.37 1.65-2.35 2.23-2.66.72-.55 2-3.4 0-4-.7-.88 1.89-5.91-.64-7.19 1.59-1.66-.85-3.85 0-5.17-.16.8-.68-.06-.37-.27-1a2.26 2.26 0 0 0 -1.5.18c-1.52-3.61-9.47-1.55-9.47-1.55s-4.64-2.6-6.68-2.94a.77.77 0 0 0 .73-.55c-2.83 0-4.93 1.28-8.59.81.43 3.32-7.34.85-10.43.64-.2.55.46.87-.09 1-.74-.17-.64-1-1.38-1.11.44 1.11-.17.92-.89 1.54-.27-.49-3.07-1.7-2.5-.88.68.11 1.21.33 1.41.78-3.83.13-4.23-2-7.65-1.38.28.11.73.08.7.4-3 1.5-5.26 2.27-7.89 1.2-1.28-.46-5.62-.75-7.2-2 .46 1.53-1.89.85-2.26.43-.67 1.18 1.62.22 1 1.4a2.55 2.55 0 0 0 -2.57-.24c.89-.71-2.51-2.07-2.78-1.9a2.74 2.74 0 0 1 1 .75c-1.33-.47-1.25.57-1.93.8-1.67-.71-3.64-2.76-5.31-2.46.89.41-.43 1.4-1.23 1.19-2.76-1.73-4.95.63-8-1.09.74 1.44-.55.53-1.23 1.19l-11.36-1.42c0-.36.59-.45.07-.64-.1.61-1.35-.39-1.8-.5-5 2.5-16.26.58-21.06-.36-.87.15-.83 1.46-2.64.4-.68.65-1.07.71-1.23 1.18-3.21-.23-5.91-.85-8.52.17-1.48-.36-2.27-1.72-3.54-1.63.18.31 1.39 1.33.6 1.35-1.63-.57-2.58.13-3.2-1.28-.1.37 0 .93-.47.94-2.61-2.41-6.65 1.88-9.1-1-1.08.08.51.56.27 1-4.78-2.1-7.66 3.39-12.31 2.21 1.35.68-1.73 1.55-2.33 1.08a1 1 0 0 1 -.31-.34c.54-.43-.23-.43 0 0a2.19 2.19 0 0 1 -.42.27s-.85-.26-1.1-.1c.06 0-1.59-3.39-1.28-3.12-1.38.05-2.17.75-3.43.93-2.36-1.57-5.43 2.57-7.09 1.72a8.24 8.24 0 0 1 .69.62 11.07 11.07 0 0 0 -1.42-.69c-.22-.06-1.08.29-1.5.18-4.19-1-7.88-2-10.91-2-.9 1.12-.4 1.64-2.05 2.09-2.14-.28-5.28-2.84-6.57-.95.92 0 1.21-.5 1.43.47-1.41-.56-.85 1-2.26.43-.69-.1.27-.57-.31-.68-5.47-1.06-7.58 1-10.69.35a.42.42 0 0 1 .24.61c-.91.51-2.91-.91-4.07-.06 1.95 0 .33.56-.1 1 .25-1.31-.51 0-1.43-.46-.61-.26.18-1.53-.58-1.68-.1 1-1.65 1.22-2.78 2a51.87 51.87 0 0 0 -8.88-2.46c1.47.27-1 .84.47 1.34-1.51-.51-3.59.63-4.3-1.39-.43 1.63-2.63-.25-3.7 0 .54.63-1.51-.51-1.16.54-1.16-1.2-2.82.07-4.07-.06-4.35-.93-9.62-2-12.5-.86-1.59.64-2.4-.51-2.17-.53-2.24.22-4.57 2.59-7.83.56-.93.35-.29.62-.83.9-2.46.36-5.73-1.09-8.73-1.48-1.26-.17-3.73.79-3.67-.35-.61 1.07-1.67 1.18-.19 1.93-1 .44-3.16-.59-3 .38-3.34-1.89-5.26-.53-8-1.74.43 2.22-3.58.4-5.69-.14.57.29 1 .92.43.95-2.27-.27-4.5-3.39-7.88-2.71 1 .47.9.24 2.2.21-1.67.86-.15 1.76-1.32 2.16-.81-1.92-2.4-.52-3.64-.67.28.1.72.07.71.39-1.55-.46-1.51.77-2.67.72-.54-.33-1.13-2.15-1.71-1.46.9.12 0 1.07-.45.93-1-.71-2.17.52-3.31-.32a1.37 1.37 0 0 1 -.86 1.23c-.06-.49-1.41-1.53-1.77-.82 1.54.66-1.25.38-1.89.47 1.05-.73-.66-.52-.61-1.36a8.38 8.38 0 0 0 -3.37.33 1 1 0 0 1 1 .75c-.83 0-1.46-1.7-2.13-.85-.1.55 1 1.05 1.67 1.79-1.75 1.27-5.48-.79-7.53 1.24-1.24-.2-1.68-1-3.24-1-.25.55-.31 1.32-.88 1.54-.76-1.56-5.13 1.44-7.37-.37-.39.52-.19-.34-1.29-.56.46-.39-1.84.66-2.69-.47-1-.24.81 1.3-.48 1.26-.52-1-2-.75-2.88-.93.41.11.54.42.67.72-2 .07-6.16-.26-4.59 1.52-2.36 1-7.44 2.38-8.16.2-1.3.55.78 1.18-.13 1.29-1.26 0-.68-.75-1.71-1.46-.12 1.29-2 .71-3.39.65-.56 1 1.16.36.61 1.36a2.08 2.08 0 0 0 -2.47-.61c-.17.62.43.68.63 1a10.75 10.75 0 0 1 -6.77-1 2.09 2.09 0 0 0 -.49-.39 1.66 1.66 0 0 0 .49.39c.86 1-.93 1.69-1.69.47-.44 2.38-3.23-.67-4.1.27 1.3 1.23-3-.09-3.73.3-.24.45.27 1.71-.52 1.58-1.91-.48-2.05-1.2-5.11-.82.43.09 1.05 0 1.07.43-2.73-.13-.54-.9-3.26-.63-.56-.89.68-1.2-.61-1.36-.64.07 0 .42-.1 1-1.88-1.1-3.91.31-5.07-1.14-1.49 1.14-3.81-.51-5.53-.2-.33 1.76-5.33-.86-7-.33-.12.87.55.7-.13 1.28-1.45-1.16-2-.16-3.27-.63.26 1.14-.25 1 .58 1.69-1.3-.79-2.17 0-3.37.33 1-1.31-1.83.12-2.1-1.18-.23.6 1 1.49-.49 1.26-.94.07 1-1.4-.21-1.66-.53.16-.18 1.24-.87 1.23-.25-1.85-1.57.15-2.23.12s-.14-1.1-1-1.08c.25 1.56-1.35.81-1.5.18-.38.73 1.15 1.52.21 1.65-1.84-.69-3.81.13-5.66 1.1-1-.16-.9-1.15-1.71-1.47-.57.68.83 1.3-.12 1.29-1.42.08-2.14-1.51-2-2.79-.45 2.32-2.78 1.39-4.32 2.52-.29-.63 1.2-1 .12-1.29-.81 1.12-1.48.12-2.69 1.05.33-1.85-1.12.51-1.33-1.43-1.52 1.42-3.15.61-4.74-.78-.11.48 0 1.21-.5 1.26-1.32-1.14-.09-1.22-2-2.47-.56.94 1.09 1.76.17 2-1.51 0-3.58-2.45-3.54-1.64.39.26 1.8 1.26 1 1.4-2.16 0-1.84-1.6-3.61-1 .53.34-1.1.4-.83.9-1.19-.8-5.15.37-7.6-1.7-.61.78-1.54.29-2.61 1.1-.16-.5.6-1.63-.2-1.65a.93.93 0 0 1 -.84.9c-2.21-1.28-4.54-3.06-7.96-2.06.64.24 1.51.31 1.78.82-1.34-.48-1.13.7-2.27.43.58-.62-4.56-1.83-4.37-.74-1.14-1.7-5.16.16-5.19.16s-.51-.74-1-.75c-2.1 0-9.3-4-8.83-.51-1.34.59-5.12-2.73-5.12-1.13.13-.48.6 0 .7.39-2.11.28-6.87-1-9-2.48-.17.62.44.69.65 1-1 .26-1.15-1.51-1.81-.5.81 0 1.15.38 1 1.07-.68-.44-1.89.12-2.51-.89-.51 1.68-1.72 0-1.25 1.52-1.21.2-1.38-.39-1.78-.79.16.89-.83.56-1.2.87-.19-.31-.59-1.91-1-1.07.42.09.34.54.27 1-3.67-.84-5.18-3.29-9.07-3.18v-2.14h1030.63l.2 11.22a10.1 10.1 0 0 0 -2.14-.26c-.43 1 1.17.56 1 1.39-1-.3-1.31-1-2.08-1.49-.57.68.83 1.3-.13 1.28-7.84.49-13.54-1-19.87-1.23.75.27 2.45-.17 2.54.57a118.87 118.87 0 0 0 -12.76-1.87c-2.6-2.68-7.83 1.09-12.71-1.4-2 .09-3.19-1-4.06-.07.31-1.3-1.29.2-.27-1-1.59.68-2.53-.94-1.57.82-1.71.14-1.15-1.36-2.43-1.53 0 .81.59 1.08-.5 1.26 0-.39.16-.91-.26-1-.12.48 0 1.21-.5 1.26a7.41 7.41 0 0 1 -1.71-1.46c-.09.37 0 .91-.46.93 0-.39.15-.91-.27-1-.35 1.62-1-.57-1.8-.49-.21.54.46.88-.1 1-.63.35-1.17-1.67-1.74-1.15 1 .86-3.19 1.21-3.27-.63-.3 1.34-1.14 1-.22 2.25-.59-.66-1.11.29-1.8-.49-.68 1.09 1.23.31 1 1.07-.53 0-.67.47-1.16.54-.63-.71-.21-1.41-.57-1.68-1.37.61 1 1.53-.19 1.93-1-.17 0-1.83-1.32-1.75.46 1.87-1.38.85-1.86.15a1.75 1.75 0 0 1 -1.19.86c0-.49.25-1.17-.24-1.32-.15.56-.71.68-1.54.51 0-.39.16-.91-.27-1-.25.29-1.76-.12-2.29.75-.51-.55-1.82-3.3-1.62-2.43a3.74 3.74 0 0 1 0 3.59c-1.84-1-2.79.15-4.44-.1a9.17 9.17 0 0 0 -7.03-3.31 8.62 8.62 0 0 1 -2.09 2.4c-.18-1-1.26-2.87-2-2.47 1.59 1.15-1.92 2.46.84 2.69a2.25 2.25 0 0 1 -.83.9 23.57 23.57 0 0 0 -2-1.82c-1.52 1.62-5.64-.53-6.33.37 0-.38.16-.9-.27-1-2.21.87-3.15-.46-4-.71-.11.48 0 1.21-.49 1.26-.19-.81-4.85-1.86-2.9-.6a6.42 6.42 0 0 1 -3.15-1.93c-.11.48 0 1.21-.49 1.26-1.48-3.09-8.08-2.43-12.19-4.08-.71 2-3.1.66-4.65 2.16-.08.91 1.08-.67.67.72-1.75-.82-2.21 2-3.73 2.29a15.11 15.11 0 0 0 -1.71-1.46c0 .58-.43.71-1.16.54.81-1-.31 0-.64-1-.45 1.06-.55 0-.83.9-1.78-.17-.76-1.21-1.3-1.75-.21 1-1.49.79-2 1.44a4.53 4.53 0 0 0 -2.75-2.91c.33.15 1.5 1 .63 1-1.2.18-.68-.9-1.37-1.1-.2.54.46.88-.09 1-.13-.59-.42.11-.77.26 0-.49.25-1.18-.24-1.33-.47 1-3.28-1.33-2.56-.24.17.47 1.4.18 1.39.79-1.73-.79-1.09 1-2.29.75-.09-.57.63-.77.1-1-.47.95-.65.36-1.1-.1-1.28 2.65-2.6 1-4.36 2.84-.25-.81 1.8-1.5.16-1.61a3.08 3.08 0 0 1 -1.29 1.83c-2.22-.54-2.9-.61-4.83.2 0-.43-.62-.36-.67-.72.15-.59.59.24.77-.25a1.75 1.75 0 0 0 -2.27.44c.31.37 1.34.23 1 1.07-2.91-.66-5 2.78-9.73 1 0-.47.4-2.63-.2-1.65-.13.79-.22 1.55.17 2-1.71-.37-2.14.36-2.3.76a2.71 2.71 0 0 1 -1-.75c.41 0 .94-.45.44-.61-.06.49-1.11 1-.74-.07-1.85 2.12-7.21-1.06-6 .74-2.65-1.06-5.68-.06-8.4-1.12-6.84 3.33-15.57-4.3-20.6-1.3.39 0 .91.23.33.35-3.29-1-4.18 1.18-6.33.38.65.21-.07.38 0 .73-.83-1.06-1.66-3.4-2.13-2.79-.07.55-.52 3-.93 2.74-4.19 1.36-8.56.43-12.54.12.78 0 1.07-2.61 1.46-3-2.18.15-4.92 4.52-5.91 2.58-.53.15-.18 1.24-.86 1.22a2 2 0 0 0 -.21-1.65c3.69.58-.09-1-1.1-.1.8 0 1.14.37 1 1.07-2.55.23-4.19-5.25-6-3.42-3.4-1.88-6.75 3.25-10.43 1.53-.09.38 0 .92-.46.94-.45-1.26-3.11.59-3.54-1.64-1.18 2.19-3-2.78-3.7-.92a8.08 8.08 0 0 0 -5.32 1.46c-2.89-1.07-6.8-2-9.54-.91-3.34-1.66-6.64-2.47-9.36-3.52-.18 1.9-2.84-.22-3.06 1 .4.1.54.41.67.71-.74-.26-1.09-1-1.8-.5-.19.94.73 1.07.54 2-3.1-.09-6.18.83-9.46.13a.61.61 0 0 0 -.53-.1 4.94 4.94 0 0 0 .53.1c.43.31.58 1 .1.94-3.53-1.47-4.86 0-9.53-.91-.09.38 0 .92-.46.93-3.6-.22-6.86-1.63-9 .78l.09-1c-1.06.89-1.54.54-2.26.45-.83 1.62-4.66-.44-8.07-.77-.57.69.82 1.3-.13 1.29a25.12 25.12 0 0 0 -2.5-.89c-.61 1-2.09 1.1-2.79 2-1 .13-.67-.72-1.4-.79.27 1.33-3 .53-3.27-.64a1.66 1.66 0 0 0 .24 1.33c-3.83-.5-6.29-.47-10.18-1.94.46 0 .88 0 .8-.58-1.68.76-7.59-.09-7.34-.69-1.77.81-6.08-.92-6.35.7-4.21-1.2-12.12-1.55-14.12.69-2-1.67-6.46-.49-7.84-3-3.49 1.58-8.16 2.21-11.72 2.76a1.38 1.38 0 0 1 .46-.93c-2.73 2.62-8.74 3.18-13.06 1 .3.88.89 1.19-.19 1.94-7.64-1.78-12.09-4.48-18.26-3.8z"/><path d="m316.67 5.25c0-.2 0-.38-.33-.36-.12 1.75 1.45.51 1.87-.14-1.12-.48-.94.42-1.54.5z"/><path d="m226.55 3.23c-1.68-.51-.77-.13-1.73-1.15.19 1.23-1.65-.1-2.2-.21-.42 1 .48 1.06.58 1.69 1.12.27 1.85-.59 1.06.42.92 0 1.09.62 1.77.82.09-1.2-.44-1.09.52-1.57z"/></g></svg>