<svg height="25" viewBox="0 0 1040 25" width="1040" xmlns="http://www.w3.org/2000/svg" xmlns:xlink="http://www.w3.org/1999/xlink"><linearGradient id="a" gradientUnits="userSpaceOnUse" x1="1040" x2="0" y1="12.5" y2="12.5"><stop offset="0" stop-color="#aaa"/><stop offset="1" stop-color="#bebebe"/></linearGradient><path d="m1032.5 4.74c-.08.48-.16.93.26 1-.42.86-.82-.79-1-1.1-.38.32-1.38 0-1.22.9-.4-.41-.56-1-1.77-.82.45 1.52-.76-.16-1.28 1.56-.62-1-1.86-.43-2.52-.88-.15.71.18 1.08 1 1.09-.68 1-.83-.77-1.81-.5.2.37.81.43.63 1.07-2.15-1.52-6.94-2.78-9.07-2.47.09.39.57.9.71.39 0 1.65-3.79-1.73-5.11-1.11-.25-2.16-6.08-.39-8.9-.43-.53 0-1-.76-1-.78s-4.12 2-5.25.23c.19 1.12-5-.07-4.4-.72-1.15-.26-1 1-2.29.47.26.53 1.14.59 1.78.83-3.47 1.06-5.8 4.4-8 3.12-.47.11-.81-4.81-.85-4.23-.8 0 0 4-.19 3.47-1.12.89-2-4.82-2.73-4.06-2.49-2.07-6.49 4.34-7.68 3.53.27.51-1.38.58-.85.93-1.79.65-1.45-1-3.63-1-.83.16.59 1.17 1 1.42 0 .84-2-1.65-3.55-1.65-.93.23.74-4.1.15-3.12-1.89-1.27-.64 3.78-2 2.63-.52.06-.4.8-.52 1.3-1.59-1.43-3.23-2.23-4.78-.76-.19-2-1.67 2.58-1.32.69-1.23 1-1.89-2.19-2.73-1-.78-.22-.23.6 0 .87-1.57 1-3.82-1.9-4.28.44.2-1.32-.52-.82-1.94-.72-.57 0-.32-.5-.14-.79-.82-.33-.68.79-1.72.64-1.87 1-3.87-.26-5.71-1-1 .14.58.94.19 1.69-.14-.64-1.75-1.4-1.51.21-.87 0-.32-1-1-1.11s-2 2.06-2.25.15c-.69 0-.35 1.1-.89 1.27-1.25-.25.76-1.78-.19-1.71-1.5-.22-.27.68-.51 1.3-.25-1.33-3.15-1.89-2.11-3.25-1.21.31-2.11 1.17-3.4.37.82.75.32.57.57 1.74-1.28-.47-1.85.56-3.3-.62-.68.6 0 .42-.14 1.33-1.69.56-6.7-2.09-7.06-.28-1.74.34-4.06-1.33-5.58-.15-1.16-1.48-3.22 0-5.1-1.12-.14.57.53.92-.11 1-1.29-.15-.05-.49-.6-1.39-2.75.3-.52-.52-3.3-.62 0 .39.66.34 1.08.42-3.08.43-3.21-.31-5.14-.78-.8-.12-.29 1.17-.54 1.63-.79.41-5.06-.91-3.76.35-.89 1-3.67-2.13-4.15.31-.75-1.25-2.57-.47-1.7.51a1.73 1.73 0 0 1 .48.4 1.84 1.84 0 0 1 -.48-.4 10.51 10.51 0 0 0 -6.84-.91c.2.36.82.41.63 1.06-.87.65-2.08 0-2.55-.56-.57 1 1.17.36.59 1.4-1.4 0-3.29-.63-3.43.7-1-.71-.43-1.48-1.71-1.49-.91.13 1.18.76-.13 1.33-.71-2.25-5.86-.75-8.25.3 1.56 1.8-2.52 3.62-4.58 3.74.12-.24.26-1.4.57-1.4-.93-.12-2.36 2.17-2.85 1.21-1.3 0 .5-.61-.52-.83-.83-1.16-3.16 0-2.7-.46-1.11-.21-.89-1.11-1.29-.56-2.25-1.85-6.69 3.43-7.43 1.82-.57.24-.65-1.11-.92-.53-1.57 0-2-.76-3.25-.95-2.1 2.1-5.84 0-7.61 1.35.72.75 1.77 1.26 1.67 1.83-.63.78-1.19-.53-1.91-.81-.76-1.34-1.68-4.07-2.6-4.08.06-.85-1.67-.63-.59-1.39-.66.09-3.47-.16-1.93.51-.37.74-1.71-.33-1.77-.83a1.44 1.44 0 0 0 -.88 1.27c-1.15-.86-2.36.43-3.33-.3-.43-.13-1.38.86-.48 1-.6.71-1.16-1.15-1.7-1.5-1.16 0-1.14 1.24-2.7.78 0 .33.43.3.71.4-1.25-.14-2.87 1.31-3.66-.65-1.19.41.33 1.33-1.36 2.23 1.31 0 1.25-.28 2.22.2-3.42.74-5.64-2.46-7.93-2.72-.58 0-.15.69.43 1-2.13-.53-6.15-2.36-5.74-.08-2.73-1.22-4.68.21-8-1.7.16 1-2 0-3 .4 1.48.77.41.9-.22 2 .07-1.18-2.43-.16-3.69-.32-3-.37-6.32-1.85-8.81-1.44-.54.3.11.56-.85.94-3.25-2.06-5.62-2.72-7.87-2.45.11-.15-.69-1.15-2.21-.52-2.93 1.23-8.22.16-12.6-.76-1.27-.12-3 1.22-4.11 0 .34 1.07-1.71-.07-1.18.58-1.09.23-3.28-1.67-3.74 0-.69-2.08-2.79-.88-4.32-1.4 1.5.51-1 1.12.47 1.39a49.64 49.64 0 0 1 -8.94-2.46c-1.15.84-2.71 1.08-2.83 2.12-.76-.16.05-1.48-.57-1.74-.93-.47-1.7.89-1.44-.45-.43.42-2.08 1-.11 1-1.18.89-3.18-.56-4.1 0-.14.38 0 .56.28.64-3.16-.62-5.31 1.5-10.84.45-.58-.1.39-.6-.3-.69-1.42-.56-.87 1-2.29.47.22 1 .51.43 1.44.46-1.32 2-4.47-.65-6.61-.91-1.68.48-1.17 1-2.1 2.17-3 .07-6.77-.92-11-2-.42-.1-1.29.28-1.51.21-1-.31-2.24-1.4-.74-.07-1.66-.85-4.76-1.72-7.1-3.31-1.3.2-2.1.92-3.48 1 .3.27-1.38 2-1.32 2-.25.16-1.1-.1-1.1-.1a2.55 2.55 0 0 0 -.44.29c.23.44-.55.45 0 0a1.28 1.28 0 0 0 -.31-.35c-.6-.48-3.72.45-2.36 1.13-4.69-1.16-7.59-.63-12.39-2.74-.25.45 1.35.93.26 1-2.44-3-6.56 1-9.17-1.47-.44 0-.37.58-.47 1-.62-1.43-1.59-.71-3.23-1.28-.79 0 .42 1.08.59 1.4-1.28 0-2.06-1.4-3.54-1.75-2.62 1.07-5.37.46-8.62.25-.17.5-.56.56-1.25 1.24-1.83-1.07-1.8.27-2.67.45-2.88-.55-18.08 1.81-21.23 3.43-.46-.1-1.71-.61-1.81 0-.53-.18.06-.29.07-.66-5.11.43-10.52-3.26-14.65-2.62a4.09 4.09 0 0 0 2.55.57c.13.31.27.62.68.72-.7.68-2-.24-1.26 1.24-3.09-1.74-5.33 2.78-8.1 1-.8-.21-2.14.82-1.25 1.24-1.69.33-3.65-1.78-5.32-2.48-.7.24-.63 1.31-2 .84a2.62 2.62 0 0 0 1 .76c-.27.18-3.68-1.18-2.77-1.92a2.56 2.56 0 0 1 -2.59-.22c-.69 1.21 1.64.2 1 1.42-.38-.42-2.73-1.1-2.29.47-1.59-1.25-5.95-1.5-7.24-2-2.65-1.08-4.92-.25-8 1.32 0 .32.42.29.71.4-3.45.7-3.83-1.51-7.7-1.35.21.48.73.7 1.42.81.55.83-2.25-.39-2.52-.9-.73.65-1.35.47-.92 1.6-.74-.16-.63-1-1.37-1.12-.57.09.11.43-.11 1-3.11-.19-10.93-2.65-10.52.76-3.7-.44-5.84 6-8.69 6.09a.77.77 0 0 1 .75-.58c-2.07-.33-3.8-2.51-6.71-3-3.13-.5-8 2.21-9.54-1.5a2.3 2.3 0 0 1 -1.52.21c-.21-.66-1.08-.33-.26-1-1.33-.2-3.55.74-5.21-.12-1.32 2.31-6.36-.25-7.28 1.72-.6-.7-3.45-2.79-4-.68-.3-1.56-6.08-.9-2.71.77-.61.13-2.39-2-3.1-2.81-1.28.19-.12.75-.89 1.27-.47-1.46-.89.59-2.87-.93.07.76-1.83.79-2.11 2.18-1.66-1.46-1.9-.6-4.32-1.39-.63 1.1-5.06 2.87-6.81.75-4.61 2.27-10.48 1.89-15.33.35-2.17-.13-4.86 1.72-7.88.32a.34.34 0 0 0 -.06.67c-2.71 0-7.95-6.13-9.52-3.82-2.26-2.11-11-.08-14-1.88-6.2.88-10.7 3.26-18.4 1.49-1.1.77-.51 1.09-.21 2-4.33-2.15-10.41-1.52-13.2 1.21a1.51 1.51 0 0 0 .49-1c-3.62.61-8.33-3.86-11.9-2.16-1.36-2.6-5.83-1.33-7.87-3-2 2.29-10 2.06-14.27.78-.29 1.66-4.63-.08-6.42.79.26-.63-5.7-1.45-7.4-.65-.07-.58.36-.6.82-.6-3.92-1.5-6.44-1.44-10.26-1.91a1.66 1.66 0 0 1 .24 1.37c-.32-1.2-3.55-2-3.29-.63-.74-.07-.37-.95-1.41-.79-.72 1-2.21 1.06-2.84 2.1-.9-.28-1.21-.37-2.52-.88-.95 0 .45.6-.14 1.33-3.44-.31-7.28-2.4-8.13-.71a2.07 2.07 0 0 0 -2.29.47c0-.33.07-.66.11-1-2.15 2.52-5.43 1.08-9.05.9-.44 0-.39.57-.48 1-4.71-.89-6.07.64-9.62-.84-.47-.12-.33.64.1 1 .18 0 .36.06.54.11a.61.61 0 0 1 -.54-.11c-3.3-.68-6.42.3-9.54.24-.21 1 .72 1.1.51 2.06-.71.56-1.06-.24-1.8-.49.13.32.26.63.66.73-.24 1.28-2.89-.89-3.09 1.07-2.78-1-6.11-.45-9.48-2.16-2.77 1.2-6.7.23-9.61-.84a8.28 8.28 0 0 1 -5.38 1.55c-.77 1.93-2.51 1.1-3.72 3.37-.41-2.3-3.12-.36-3.56-1.65-.44 0-.37.58-.48 1-3.69-1.72-7.12-.68-10.54-2.59-1.89 1.91-3.48.56-6.06.82-.14.72.19 1.08 1 1.09-1 .93-4.82-.65-1.11-.09a2 2 0 0 1 -.19-1.7c-.7 0-.35 1.11-.89 1.26-1-2-4-1.48-6.18-1.53.52.43.81 1 1.75 1.15-4-.28-8.45-1.21-12.72.25-.51-.34-1.12-.61-1-1.44-.5.65-1.37 1.91-2.24 1.24.49.49-.62.69.15.93-2.17-.8-3.1 1.46-6.4.46-.59.12-.06.35.33.36-5.11 3.13-13.82-4.64-20.77-1.14-2.73-1.07-5.81 0-8.47-1.06 1.27 1.72-4.1-1.51-6.03.72.4-1.07-.67-.57-.73-.06-.52-.16 0-.59.44-.64a2.58 2.58 0 0 0 -1-.76c-.17.41-.6 1.17-2.33.81.39.43.3 1.21.16 2-.62 1-.24-1.21-.19-1.7-4.77-1.75-6.9 1.81-9.83 1.16-.35.88.7.71 1 1.09a1.75 1.75 0 0 1 -2.3.48c.19-.51.63.35.78-.27-.05-.36-.71-.29-.67-.73-1.95.86-2.64.79-4.88.26a3.4 3.4 0 0 0 -1.32 1.89c-1.65-.09.43-.82.19-1.67-1.8 1.94-3.11.24-4.43 3-.45-.47-.64-1.08-1.11-.09-.53-.19.19-.41.11-1-1.22-.22-.58 1.6-2.33.81 0 .61 1.23.31 1.4.79.71 1.11-2.09-1.28-2.59-.23-.48-.14-.21-.85-.22-1.36-.35.16-.65.88-.77.27-.57.09.1.43-.11 1-.69-.21-.15-1.32-1.37-1.13-.88 0 .32.93.64 1.07-.64 0-2.48-1.63-2.68-2.93-.52.68-1.81.5-2 1.5-.53-.55.49-1.63-1.29-1.79-.29.93-.38-.16-.86.94-.31-1-1.45 0-.62-1.07-.74-.17-1.17 0-1.18.57a17.59 17.59 0 0 1 -1.72-1.48c-1.53.28-2 1.15-3.76.34-.42 1.43.77-.21.67.72-1.58 1.56-4 .24-4.72 2.28-4.13-1.66-10.8.64-12.25-2.54-.51.06-.39.81-.51 1.3a6.44 6.44 0 0 0 -3.15-1.95c1.95 1.29-2.74.24-2.92-.59-.52.05-.4.81-.52 1.3-.85-.24-1.78-1.61-4-.69-.43-.09-.25-.63-.26-1-.72.94-4.84-1.24-6.39.45a24.58 24.58 0 0 1 -2-1.85 2.37 2.37 0 0 0 -.86.94c2.79.2-.76 1.58.83 2.75-.73.42-1.79-1.52-2-2.53a9.43 9.43 0 0 0 -2.13 2.51 9 9 0 0 1 -7.22-3.35c-1.65-.26-2.62.95-4.48-.06a4 4 0 0 0 0 3.69c.19.9-1.08-1.91-1.6-2.49-.54.91-2.06.5-2.32.81-.42-.09-.25-.63-.26-1-.83-.17-1.4 0-1.55.54-.49-.15-.22-.86-.23-1.37a1.9 1.9 0 0 0 -1.22.91c-.47-.71-2.31-1.76-1.88.17-1.37.1-.28-1.63-1.3-1.79-1.24.43 1.17 1.35-.21 2-.37-.27.06-1-.57-1.72-.49.07-.64.53-1.18.56-.23.79 1.71 0 1 1.1-.69-.8-1.23.18-1.81-.5.9 1.29.07.94-.26 2.34-.06-1.91-4.24-1.5-3.29-.62-.58.54-1.09-1.54-1.74-1.17-.56.1.1.44-.11 1-.81.09-1.44-2.16-1.81-.49-.43-.1-.24-.63-.26-1-.44 0-.38.58-.48 1a6.79 6.79 0 0 0 -1.7-1.48c-.52.05-.4.8-.52 1.29-.42-.08-.25-.63-.26-1-1.11.19-.46.46-.51 1.31-1.26-.31-.68-1.85-2.45-1.7 1 1.8 0 .14-1.58.85 1-1.22-.6.33-.28-1-.87.95-2.09-.13-4.1 0-4.84-2.56-10.1 6.55-12.69 3.8-4.35-.45-6.92-1.8-10.64-2.8-.48 0-1 0-1.45-.08-5.7-.36-11.08-1.49-18.26-.92-1 0 .44.61-.14 1.33-.78-.45-1.11-1.22-2.08-1.52-.2.86 1.41.39 1 1.42-1.61-.05-2.66-.94-3.78-1.17v12.3c3.91-.14 5.4 2.37 9.09 3.19.08-.46.16-.93-.26-1 .42-.87.82.79 1 1.11.38-.33 1.38 0 1.22-.91.4.42.56 1 1.77.83-.45-1.53.76.16 1.29-1.58.61 1.05 1.84.45 2.51.89.16-.71-.18-1.08-1-1.09.67-1 .82.77 1.81.49-.21-.36-.82-.41-.63-1.06 2.14 1.52 6.93-2.38 9.06-2.68-.09-.41-.57-.91-.7-.41 0-1.65 3.79 1.74 5.11 1.12-.45-3.56 6.78.41 8.9.44.53 0 1 4.87 1 4.88s4.11-2 5.24-.21c-.18-1.12 5 .07 4.4.72 1.14.26 1-.95 2.29-.47-.26-.52-1.14-.59-1.77-.83 3.47-1.06 5.8-4.41 8-3.12a1 1 0 0 0 .85-.94c.81 0 0 1.2.19 1.71 1.12-.89 2-.35 2.73-1.12 2.45 2.12 6.47.87 7.66 1.68-.28-.51 1.38-.58.84-.93 1.8-.65 1.45 1 3.63 1 .84-.15-.58-1.16-1-1.43 0-.83 2 1.66 3.55 1.65.94-.22-.72-1-.15-2 1.9 1.27.65 1.36 2 2.52.51 0 .4-.81.51-1.3 1.59 1.42 3.23 2.23 4.78.75.19 2 1.67-.44 1.33 1.47 1.22-1 1.9 0 2.72-1.12 1.09.32-.42.68-.14 1.33 1.57-1.18 3.91-.24 4.4-2.64-.21 1.32.5 3 1.92 2.86 1 0-.44-.62.14-1.33.82.32.68 1.34 1.72 1.49 1.87-1 3.87-1.87 5.71-1.18 1-.16-.58-.95-.18-1.7.14.65 1.75 1.41 1.52-.2.85 0 .3 1 1 1.09s2-2 2.25-.14c.7 0 .35-1.11.89-1.27 1.24.26-.76 1.78.19 1.7 1.5.23.27-.68.51-1.3.27 1.34 3.15-.16 2.11 1.2 1.21-.31 2.1-1.18 3.4-.38-.83-.75-.31-.56-.57-1.74 1.29.48 1.85-.55 3.3.62.69-.61 0-.42.15-1.32 1.69-.57 6.7 2.09 7.06.27 1.73-.34 4 1.34 5.58.15 1.15 1.49 3.21 0 5.11 1.12.13-.56-.55-.92.1-1 1.3.15.05.49.59 1.4 2.75-.31.54.51 3.3.62 0-.39-.65-.34-1.08-.43 3.09-.43 3.23.31 5.14.78.8.13.29-1.16.56-1.63.77-.41 5.05.91 3.75-.35.89-1 3.68 2.15 4.14-.31.76 1.25 2.57.48 1.71-.5a1.52 1.52 0 0 1 -.49-.41 2.4 2.4 0 0 1 .49.41 10.54 10.54 0 0 0 6.83.9c-.19-.35-.81-.41-.63-1.06.64-.46 1.45 2.48 2 4.33 1.4.06 3.24.6 3.37-.71 1 .73.43 1.48 1.71 1.49.91-.11-1.18-.75.14-1.33.71 2.25 5.85.75 8.24-.29-1.56-1.82 2.6-1.52 4.65-1.62-.13-.31-.26-.62-.67-.72.93.17 2.38-.06 2.89.91 1.31 0-.51-1.52.51-1.29.84 1.15 3.17.05 2.7.45 1.11.21.89 1.11 1.29.57 2.25 1.84 6.7-1.3 7.43.31.59-.24.66-1 .92-1.6 1.57-.05 2 .76 3.26 1 2.08-2.12 5.83 0 7.61-1.37-.73-.74-1.78-1.26-1.68-1.81.7-.89 1.32.83 2.15.84a1 1 0 0 0 -1-.75 8.31 8.31 0 0 1 3.4-.38c-.06.87 1.67.63.6 1.39.65-.09 3.46.17 1.92-.5.37-.74 1.72.33 1.78.83a1.44 1.44 0 0 0 .87-1.27c1.14.85 2.36-.43 3.34.29.43.14 1.37-.86.46-1 .61-.71 1.18 1.16 1.72 1.5 1.17 0 1.14-1.23 2.69-.78 0-.33-.42-.3-.7-.4 1.24.16 2.87-1.31 3.66.66a1.08 1.08 0 0 0 .24-.11 10.15 10.15 0 0 1 -.77 2.75 26.18 26.18 0 0 0 4.25-1.59 1.73 1.73 0 0 0 .6.33 2.89 2.89 0 0 0 0-.58 5.65 5.65 0 0 1 2.73-.52c.59 0 .15-.68-.42-1 2.12.54 6.15 2.36 5.73.08 2.74 1.23 4.68-.19 8 1.72-.15-1 2 0 3-.42-1.49-.76-.42-.88.21-2-.07 1.18 2.44.17 3.7.32 3 .37 6.31 1.85 8.81 1.45.53-.3-.1-.57.83-.94 3.27 2.06 5.65-.41 7.92-.65-.24 0 .57 1.19 2.17.51 2.93-1.22 8.23-.15 12.61.77 1.26.12 2.95-1.21 4.1 0-.33-1.08 1.72.07 1.19-.57 1.08-.25 3.28 1.66 3.72 0 .71 2.07 2.81.88 4.34 1.39-1.51-.49 1-1.1-.44-1.37a50.61 50.61 0 0 1 8.9 2.44c1.16-.83 2.72-1.08 2.84-2.1.76.14-.06 1.46.56 1.72.93.48 1.71-.88 1.44.47.44-.44 2.08-1 .1-1 1.19-.89 3.19.55 4.11 0 .13-.36 0-.53-.24-.63 3.14.61 5.28-1.51 10.8-.47.59.11-.39.6.31.69 1.42.56.86-1 2.28-.46-.21-1-.51-.42-1.44-.46 1.33-2 4.47.65 6.62.9 1.67-.47 1.18-1 2.1-2.16 3.06-.09 6.77.93 11 2 .43.1 1.29-.27 1.51-.21 1 .31 2.24 1.39.75.06 1.65.86 4.75 1.73 7.11 3.32 1.28-.21 2.07-.92 3.47-1-.31-.26 1.38-2 1.32-1.94.25-.16 1.1.1 1.11.1a2.65 2.65 0 0 0 .42-.29c-.22-.45.55-.46 0 0a1.15 1.15 0 0 0 .31.35c.6.47 3.72-.45 2.36-1.14 4.69 1.17 7.59.63 12.39 2.76.25-.46-1.35-.94-.26-1 2.44 3 6.56-1 9.17 1.46.45 0 .38-.57.48-1 .61 1.44 1.59.72 3.22 1.29.8 0-.42-1.08-.59-1.4 1.28-.1 2.07 1.3 3.55 1.66 2.65-1.08 5.36-.47 8.61-.27.16-.48.55-.54 1.25-1.23 1.81 1.07 1.78-.27 2.66-.44 4.84.92 16.2 2.79 21.25.17.45.1 1.7 1.12 1.81.49.52.19-.06.29-.07.66 5.11-.41 10.51 3.26 14.64 2.62a3.91 3.91 0 0 0 -2.55-.55c-.13-.31-.26-.63-.66-.74.68-.68 2 .24 1.24-1.24 3.1 1.75 5.33-.71 8.1 1.05.8.21 2.15-.82 1.25-1.24 1.7-.33 3.66 1.77 5.34 2.48.68-.24.61-1.3 1.95-.84a2.54 2.54 0 0 0 -1-.75c.28-.19 3.68 1.18 2.78 1.92a2.52 2.52 0 0 1 2.59.22c.67-1.23-1.65-.21-1-1.43.38.42 2.74 1.1 2.29-.47 1.59 1.25 6 1.51 7.26 2 2.63 1.08 4.91-3.88 8-5.44 0-.33-.42-.3-.7-.41 3.45-.7 3.83 1.51 7.69 1.35-.19-.47-.73-.7-1.41-.8-.57-.84 2.25.38 2.52.89.72-.64 1.34-.47.92-1.6.74.16.62 1 1.37 1.12.56-.09-.1-.43.11-1 3.1.18 10.92 2.64 10.52-.76 3.7.44 5.83 3.25 8.68 3.2a.79.79 0 0 1 -.74.58c2.05.32 3.81-1.63 6.71-1.17 3.13.5 8-2.2 9.54 1.5a2.28 2.28 0 0 1 1.51-.2c.21.65 1.08.32.26 1 1.33.2 3.55-.74 5.21.13 1.33-2.32 6.37.24 7.28-1.72.6.69 3.45 2.79 4 .68.3 1.55 6.08.9 2.69-.77.62-.14 2.39 1.49 3.11 2.28 1.28-.19.12-.73.88-1.27.48 1.48.9-.59 2.89.93-.08-.74 1.82-.78 2.1-2.18 1.66 1.47 1.91.6 4.34 1.4.61-1.11 5-2.86 6.79-.76 4.66-2.33 10.53 2.17 15.38 3.67 2.17.13 4.86-1.7 7.86-.32a.34.34 0 0 0 .08-.67c2.7 0 8 .45 9.52-1.86 2.26 2.12 11 .07 14 1.89 6.23-.76 10.74-3.18 18.43-1.42 1.1-.78.51-1.1.21-2 4.34 2.17 10.42 1.53 13.2-1.19a1.48 1.48 0 0 0 -.49 1c3.62-.61 8.34-1.3 11.9-3 1.36 2.6 5.84 1.34 7.88 3.05 2-2.28 10-2.06 14.26-.79.3-1.66 4.63.09 6.42-.77-.25.63 5.7 1.44 7.4.64.07.58-.35.6-.81.6 3.91 1.48 6.39 1.42 10.25 1.9a1.71 1.71 0 0 1 -.23-1.37c.31 1.21 3.55 2 3.29.62.73.08.38.95 1.41.8.71-.95 2.2-1.05 2.84-2.11a24.76 24.76 0 0 1 2.51.9c1 0-.44-.62.14-1.34 3.45.31 7.28 2.39 8.14.71a2.05 2.05 0 0 0 2.28-.47c0 .33-.07.67-.11 1 2.15-2.51 5.44-1.09 9.06-.9.44 0 .38-.58.47-1 4.71.9 6.07 4.52 9.62 6 .47.11.33-.65-.09-1-.18-.05-.36-.07-.55-.11a.59.59 0 0 1 .55.11c3.29.68 6.41-.3 9.54-.24.2-1-.73-1.1-.52-2.07.72-.55 1.06.24 1.81.5-.14-.31-.27-.63-.67-.72.24-1.28 2.9.87 3.11-1.09 2.76 1.06 6.11-3.81 9.46-2.1 2.77-1.21 6.71-.24 9.61.83a8.17 8.17 0 0 1 5.38-1.55c.77-1.92 2.52 3.17 3.72.9.43 2.31 3.12.37 3.56 1.66.44 0 .38-.58.49-1 3.69 1.73 7.11-3.6 10.53-1.69 1.9-1.91 3.48 3.72 6.06 3.46.14-.72-.19-1.08-1-1.09 1-.93 4.82.66 1.11.09a2 2 0 0 1 .19 1.7c.69 0 .35-1.1.88-1.27 1 2 3.8-2.56 6-2.71-.42.4-.74 3.1-1.52 3.1 4 .28 8.42 1.19 12.66-.24.4.28.89-2.27 1-2.85.46-.62 1.28 1.75 2.11 2.85-.08-.35.64-.54 0-.75 2.17.81 3.1-1.45 6.41-.45.58-.12.06-.34-.34-.36 5.12-3.14 13.84 4.64 20.77 1.13 2.73 1.08 5.81 0 8.47 1.08-1.22-1.85 4.15 1.38 6-.82-.38 1.07.69.57.75.06.51.16 0 .59-.45.63a2.58 2.58 0 0 0 1 .77c.16-.42.61-1.18 2.33-.81-.38-.43-.29-1.22-.15-2 .61-1 .23 1.21.18 1.7 4.77 1.76 6.91-1.81 9.83-1.16.35-.88-.7-.72-1-1.1a1.75 1.75 0 0 1 2.3-.47c-.19.5-.62-.35-.78.27 0 .37.72.29.67.73 2-.86 2.64-.8 4.88-.25a3.32 3.32 0 0 0 1.32-1.91c1.65.11-.42.84-.18 1.67 1.79-1.94 3.1-.23 4.42-3 .46.48.64 1.08 1.11.1.54.2-.19.42-.1 1 1.21.2.58-1.61 2.32-.82 0-.5-.78-.4-1.18-.59h.87c.62.28 1.28.49 1.49 0 .49.16.21.86.23 1.38.35-.17.66-.89.78-.28.56-.1-.1-.44.1-1 .69.2.16 1.32 1.37 1.13.89 0-.31-.94-.63-1.06.63 0 2.49 1.63 2.68 2.92.51-.68 1.8-.51 2-1.51.54.56-.5 1.64 1.3 1.8.29-.92.38.15.85-.94.31 1 1.45.05.63 1.07.73.17 1.16 0 1.18-.58a17.48 17.48 0 0 1 1.71 1.5c1.53-.29 2-1.17 3.76-.35.43-1.44-.77.21-.67-.72 1.59-1.56 4-.23 4.72-2.28 4.13 1.66 10.8.91 12.25 4.08.52-.06.4-.8.52-1.3a6.21 6.21 0 0 0 3.17 2.12c-1.94-1.28 2.74-.23 2.93.6.51-.07.4-.8.51-1.3.86.24 1.78 1.6 4 .68.43.09.24.64.26 1 .71-.94 4.83 1.24 6.39-.45.87.64 1 .92 2 1.86a2.32 2.32 0 0 0 .85-.93c-2.79-.22.78-1.6-.82-2.77.72-.41 1.79 1.52 2 2.53a9.14 9.14 0 0 0 2.14-2.51 9 9 0 0 1 7.1 3.31c1.66.24 2.63-.95 4.48.06a4 4 0 0 0 0-3.7c-.19-.89 1.09 1.92 1.6 2.49.55-.91 2.07-.49 2.32-.8.44.09.25.63.26 1 .83.16 1.41 0 1.56-.54.49.15.22.86.22 1.36a1.84 1.84 0 0 0 1.22-.91c.47.73 2.32 1.76 1.88-.16 1.37-.09.29 1.62 1.3 1.79 1.24-.43-1.17-1.36.22-2 .37.28-.06 1 .56 1.74.49-.09.65-.54 1.18-.58.23-.79-1.7 0-1-1.09.69.8 1.22-.19 1.81.49-.91-1.29-.07-.94.25-2.33.06 1.91 4.25 1.51 3.3.63.57-.55 1.09 1.53 1.73 1.15.57-.09-.1-.44.11-1 .81-.08 1.44 2.17 1.81.5.43.09.25.63.26 1 .44 0 .38-.58.48-1a7.26 7.26 0 0 0 1.7 1.5c.52-.07.4-.81.52-1.3.43.09.25.63.26 1 1.11-.2.46-.47.52-1.3 1.29.16.7 1.71 2.43 1.56-.94-1.81 0-.16 1.59-.87-1 1.24.6-.33.27 1 .88-.94 2.1.15 4.09 0 4.89 2.53 10.16-.38 12.75 2.35a117.35 117.35 0 0 1 12.86 1.8c-.08-.75-1.8-.3-2.55-.56 6.38.21 12.11-3.51 20-4.09 1 0-.44-.61.14-1.33.78.45 1.11 1.22 2.08 1.52.21-.86-1.4-.38-1-1.42a9.64 9.64 0 0 1 2.16.25v-11.39c-2.69-.46-4.25-2.39-7.39-3.1zm-808.31 10.54a1.07 1.07 0 0 1 .39-.86 3.15 3.15 0 0 0 -.39.86zm613.14-2.92a1.25 1.25 0 0 0 .29.05.27.27 0 0 1 -.29-.05z" fill="url(#a)"/></svg>