<svg height="25" viewBox="0 0 1040 25" width="1040" xmlns="http://www.w3.org/2000/svg" xmlns:xlink="http://www.w3.org/1999/xlink"><linearGradient id="a" gradientUnits="userSpaceOnUse" x2="1940.19" y1="12.5" y2="12.5"><stop offset="0" stop-color="#aaa"/><stop offset="1" stop-color="#bebebe"/></linearGradient><path d="m1037.23 23.48c.19-.92-1.42-.42-1-1.53a15.19 15.19 0 0 1 3.76.7l-.34-8.54h.26v-2.35c-3.9.12-5.42-2.57-9.13-3.49.07 2-.06 1.42-.73-.08-1.89.86-.74.35-3 0 1 2.29-6.48-.15-2.77 1.87-.67 1.11-.84-.83-1.83-.55.21.39.83.46.66 1.14-6.67-4.12-7.77-1.31-13.51-3.53.48 3.79-6.79-.52-8.91-.56-1.75-1.29-8.57 1.45-10.69-1.46-2.13 1.35-3.62 3-8.5-.89-1.45 1-1.18 1.19-1-.82-2.83 1.73-8.31-.87-10.39-.72-.26 2.79-7.15-2.24-3.49 1.44-.17 1-5.08-4.82-3.4.36-1.58-1.15-2-4.4-2.49-1.33-2.18-3.11-5.57 0-6.13-2.42-1.64.5-3.74 2-2.59-.27-1.55 1.25-3.9.22-4.36 2.77.2-1.4-.53-3.15-2-3.06-.35 2.86 0 .57-1.85-.2-2.08 2.43-6.88-.21-5.5 3-1.38-2.36-1.36 1.53-2.52-1-2.5 2.23-2-1.13-3.13 1.48-1.24-.28.74-1.9-.21-1.82-1.49-.25-.26.73-.49 1.38-2.24-2-2.92.05-5.52-.93 2.62 4.33-3.93-.59-2.84 2.57-4.79-.47-8.57-1.34-12.64-.58-1.18-1.08-5.07-1.39-5.22-.19-1.3-.17-.05-.51-.61-1.49-2.75.3-.54-.55-3.29-.69 2 2.49-5.64-2.62-4.6 1.3-.79.43-5.08-1-3.77.33-.87 1-3.69-2.31-4.13.3-.77-1.34-2.57-.54-1.71.52a10 10 0 0 0 -6.83-1c1.86 1.56-.87 1.7-1.73.79 1.9 2.74-3-.41-3 1.94-1-.78-.45-1.59-1.72-1.61-.92.12 1.18.81-.13 1.42-.73-2.39-5.85-.87-8.23.22 1.58 2-2.6 1.59-4.63 1.67 1.44 1.42-1.64.69-2.23-.23-1.31-.05.53 1.64-.49 1.38-2.29-1.26-2.47 0-4-1.13-7.75-1-11.75 1.44-19.19 1.59h-22.27a2.8 2.8 0 0 0 -1.22-.8 3.25 3.25 0 0 0 0 .8l-65.32-.06c-.78-.38-1.81-.19-3.13 0h-4.4a12.51 12.51 0 0 1 -4.33-1.71 9.19 9.19 0 0 0 -2.52 1.71h-.52a3.36 3.36 0 0 1 -.35-1.35c-.93-.51-1.7.94-1.44-.5-1.09 2.73-5.11-.4-4 1.67a6 6 0 0 0 -3.5.17h-6.87a5.76 5.76 0 0 1 -.73-.52 2.48 2.48 0 0 0 -1.8.52h-4c-1-.39-2-.6-2.78 0h-10.36c-2.22-.51-3.91-.81-3.82-.35-.52-.29-1.16-.06-1.88.35h-14.29c-.21-.46-.09-.74.23-.89l-106-.79a12.25 12.25 0 0 0 -4.94 0l-45.87-.43c3.52 1.78 6.5-.71 11.84 1.91l-120.89-.1c-.16-.41-.15-.74.54-1.27l-4.21.74a17.35 17.35 0 0 0 -4.64.53l-53.29-.05c-3.29-1.3-11.05-1.55-11.11-.55-1.26-1.27-2.28-.22-3.43.53h-3.14l-.21-.15v.15h-5.57c-1.13-.33-2.1-.48-2.49 0l-64.22-.06a5.07 5.07 0 0 0 -4 0h-13c-1.72-1.44-3-2.58-1.18-.43-1 1-4.83-.75-1.11-.12-.71-1.32 0-2.5-1.08-.47-.58-1.23-1.74-.15-3 1h-2.14c.43-3.55-8.43-2-12-1.34a7.51 7.51 0 0 0 -.63 1.33h-1.73l-.73-1.38c.57.8-3.34 1.15-5.18 1.37h-8.73c-9-1-19.17-3.85-27.43-1.6.37-1.15-.69-.62-.75-.08-.54-.6 1.1-.91-.61-1.49-.51 1.4-2.62.18-2.14 3-.57-5.33-7.67.05-10-.68a.56.56 0 0 0 .37.83h-24.19l-.14-.06a.43.43 0 0 1 0 .05h-1.62a.8.8 0 0 1 .15-.2c-3.86-1-3.56-.57-4.17.2h-18.8c-1 2.49-1.31-.45-3.67-.73 2 1.38-2.74.23-2.93-.66-1 2.85-1.3-.73-4.53.6-.8-2.66-6.83.63-8.71-2.69a2.33 2.33 0 0 0 -.84 1c2.78.25-.76 1.69.85 3-2-.68-2.1-4.29-4.1-.07-3.88.27-13.64-8.54-11.59.24-.87-.98-1.15-3.4-3.95-1.98-.32-.92-1.21-1.88-1.83-.53-.49-.17-.22-.92-.24-1.45-1.19 1.75-3.13-1.63-3.08 1.1-1.37.09-.31-1.73-1.33-1.92-1.23.48 1.19 1.48-.19 2.12-.3-.91-.22-2.42-1.75-1.25 2 1.21.88 1.15-.8.64.93 1.37.08 1-.22 2.47-.09-2-4.27-1.64-3.3-.69-.71.4-2.21-3.09-1.86-.2-2.09-2.16-2 .52-2.09-1.65-.72 2.37-2.37-2.64-2.69.8-.39-1.14-1.09-1.57-.77.28-1.29-.19-.72-1.84-2.45-1.68-15.6.24-40.69-7.03-52.52-3.57l.19 12h-.27l.17 1.93c2.81.53 4.38 2.6 7.53 3.38.08-.51.15-1-.28-1.11.42-.91.83.85 1 1.18.38-.34 1.38 0 1.2-.95.41.45.58 1.09 1.79.9-.48-1.63.76.18 1.26-1.66.64 1.11 1.86.5 2.53 1 .14-.76-.2-1.15-1-1.17.66-1.11.84.83 1.82.53-.21-.38-.82-.45-.65-1.13 2.16 1.63 7 3 9.09 2.73-.09-.42-.56-1-.7-.43 0-1.76 3.81-2 5.11-2.6.28 2.29 6.09.49 8.92.56.52 0 1 .81 1 .82s4.09-2.05 5.24-.18c-.19-1.19 5 .14 4.41.82 1.15.29.93-1 2.28-.48-.26-.56-1.15-.63-1.79-.9 3.46-1.09 5.82.86 8 2.25a1 1 0 0 0 .84-1c.81 0 .05 1.27.21 1.81 1.11-.94 2-.35 2.72-1.15 2.47 2.28 6.47 1 7.67 1.86-.28-.54 1.38-.61.84-1 1.78-.67 1.45 1.09 3.63 1.1.83-.16-.59-1.25-1-1.54 0-.89 2 1.79 3.57 1.81.92-.24-.74-1.14-.18-2.17 1.91 1.37.67 1.47 2 2.71.51-.06.38-.85.49-1.38 1.62 1.53 3.25 2.42 4.79.85.22 2.14 1.65-2.73 1.32-.7 1.22-1 1.91 2.34 2.74 1.12.77.26.23-.63-.05-.92 1.56-1 3.83 2.06 4.28-.43-.19 1.4.52.88 2 .78.58 0 .3.61.12.9.8.34.66-.84 1.7-.67 1.86-1.06 3.87.32 5.73 1.08.94-.16-.6-1-.21-1.81.14.68 1.75 1.51 1.5-.2.87 0 .32 1.06 1 1.17s2-2.16 2.25-.12c.7 0 .34-1.18.87-1.35 1.25.29-.74 1.89.21 1.81 1.5.27.26-.71.5-1.37.27 1.42 3.14-.14 2.12 1.3 1.2-.32 2.09-1.24 3.39-.38-.83-.8-.31-.59-.57-1.84 1.28.5 1.82-.58 3.3.69.67-.64 0-.45.13-1.42 1.68-.57 6.71 2.31 7 .38 1.73-.34 4.07 1.46 5.59.22 1.17 1.59 3.2 0 5.11 1.24.13-.6-.55-1 .09-1.07 1.3.19.06.54.62 1.5 2.74-.29.53.56 3.3.69 0-.42-.66-.37-1.08-.46 3.07-.42 3.22.37 5.14.9.8.13.28-1.26.54-1.75.77-.43 5.06 1 3.75-.32.88-1 3.69 2.31 4.13-.28.78 1.33 2.59.52 1.71-.53a10.08 10.08 0 0 0 6.84 1c-.2-.38-.82-.45-.64-1.14.86-.68 2.08 0 2.55.63.56-1.1-1.17-.4-.6-1.5 1.4.07 3.3.71 3.42-.71 1 .78.44 1.58 1.72 1.6.91-.12-1.18-.81.12-1.41.74 2.4 5.87.86 8.25-.23-1.57-1.92 2.44 0 4.52-.09-.12-.18-.24-2.36-.53-2.36.93.13 2.32 1.56 2.84 2.58 1.3 0-.51.63.51.9.78 1.12 2.77-2.93 2.77-3.32 1 .26.85 1.18 1.23.61 2.27 2 6.66.25 7.41 2 .57-.25.66 1.19.93.58 1.57 0 2 .84 3.27 1.05 2.06-2.22 5.83 0 7.58-1.36-.73-.81-1.78-1.35-1.68-2 .67-.93 1.31.91 2.16.93a1.06 1.06 0 0 0 -1-.82 7.64 7.64 0 0 1 3.39-.36c0 .92 1.68.68.61 1.49.65-.1 3.47.21 1.92-.51.36-.79 1.72.36 1.78.9a1.55 1.55 0 0 0 .87-1.35c1.14.92 2.34-.43 3.33.35.43.15 1.36-.89.46-1 .59-.76 1.17 1.24 1.73 1.6 1.16.05 1.12-1.3 2.68-.79 0-.35-.43-.33-.7-.44 1.24.17 2.85-1.37 3.66.73 1.18-.42-.35-1.42 1.33-2.36-1.31 0-1.25.29-2.22-.23 3.41-.75 5.66 2.67 7.95 3 .59 0 .15-.73-.43-1 2.12.59 6.17 2.59 5.73.15 2.75 1.33 4.69-.16 8 1.9-.16-1.05 2 .07 3-.41-1.49-.82-.42-.94.19-2.12-.05 1.26 2.44.2 3.7.39 3 .42 6.34 2 8.82 1.62.54-.3-.11-.6.84-1 3.29 2.22 5.64-.38 7.9-.62-.25 0 .57 1.27 2.18.58 2.9-1.27 8.22-.09 12.6.95 1.28.14 2.95-1.27 4.11.06-.34-1.14 1.72.1 1.17-.59 1.09-.25 3.31 1.8 3.73 0 .73 2.21 2.82 1 4.35 1.52-1.51-.54 1-1.17-.48-1.46a47.65 47.65 0 0 1 8.95 2.7c1.15-.88 2.71-1.12 2.82-2.22.77.18 0 1.57.58 1.85.93.51 1.69-.93 1.45.5.42-.44 2.05-1 .1-1.06 1.17-.93 3.17.63 4.09.07.15-.46-.07-.63-.39-.72 3.23.8 5.33-1.52 10.94-.33.59.12-.38.63.31.74 1.43.61.86-1.09 2.29-.48-.24-1.06-.53-.45-1.46-.5 1.32-2.08 4.47.73 6.63 1 1.67-.5 1.16-1.07 2.07-2.3 3.06 0 6.78-.58 11 .56.43.12 1.29-.27 1.51-.19a9.56 9.56 0 0 1 1.44.75 9.54 9.54 0 0 0 -.7-.68c1.67.93 4.77 1.88 7.15 3.59 1.29-.18 2.07-.95 3.47-1-.32-.28 1.34-2.1 1.28-2.05.25-.18 1.11.12 1.11.11a3.35 3.35 0 0 0 .43-.3 1.13 1.13 0 0 0 .31.38c.61.51 3.72-.44 2.35-1.19 4.69 1.3 7.59.76 12.41 3.06.24-.48-1.36-1-.26-1.1 2.46 3.18 6.54-1 9.18 1.66.44 0 .37-.6.46-1 .64 1.55 1.6.78 3.24 1.41.79 0-.43-1.14-.61-1.5 1.28-.08 2.08 1.41 3.57 1.8 2.63-1.12 5.35-.45 8.6-.18.16-.52.56-.58 1.24-1.3 1.83 1.16 1.79-.27 2.64-.44 4.86 1 16.25 3.13 21.26.4.46.12 1.71 1.22 1.81.55.53.21-.06.3-.06.7l11.44 1.54c.68-.72 2 .27 1.23-1.3 3.12 1.88 5.33-.7 8.11 1.19.8.24 2.13-.85 1.24-1.3 1.69-.34 3.68 1.92 5.35 2.69.7-.25.61-1.38 1.95-.87a2.77 2.77 0 0 0 -1-.82c.27-.19 3.7 1.31 2.79 2.09a2.41 2.41 0 0 1 2.6.26c.66-1.29-1.65-.24-1-1.54.38.46 2.74 1.21 2.28-.47 1.6 1.35 6 1.66 7.27 2.18 2.65 1.17 4.91.32 8-1.33 0-.34-.42-.32-.71-.43 3.44-.7 3.85-3.84 7.71-4a1.7 1.7 0 0 0 -1.42-.86c-.57-.89 2.25.44 2.53 1 .72-.68 1.33-.48.9-1.69.74.19.63 1 1.38 1.21.56-.09-.11-.46.1-1 3.11.23 11 2.93 10.51-.71 3.7.52 5.82-.86 8.68-.9a.79.79 0 0 1 -.74.61c2.06.37 3.82 2.72 6.74 3.24 3.14.56 8-2.27 9.54 1.7a2.2 2.2 0 0 1 1.52-.21c.22.7 1.08.36.28 1.11 1.33.22 3.53-.77 5.2.17 1.3-2.44 6.38.33 7.26-1.75.61.76 3.48 3 4 .78.31 1.64 6.07 1 2.68-.8.62-.15 2.41 1.61 3.14 2.47 1.27-.19.11-.78.86-1.34.5 1.57.9-.62 2.9 1-.09-.8 1.81-.83 2.07-2.3 1.69 1.57 1.92.65 4.35 1.53.61-1.18 5-3 6.79-.74 4.59-2.37 10.46-.25 15.32 1.44 2.18.18 4.84-2.86 7.87-1.35a.36.36 0 0 0 .06-.71c2.71 0 8 .56 9.5-1.88 2.28 2.27 11 .2 14 2.16l18.61-3.44c4.49 2.24 10.56 1.64 13.29-1.2a1.62 1.62 0 0 0 -.46 1c3.46-.59 7.92-1.26 11.4-2.87h.57c1.51 2.51 5.78 1.34 7.79 3.13 1.95-2.42 10-2.09 14.25-.68.28-1.77 4.63.13 6.42-.76-.26.66 5.71 1.6 7.4.76.08.61-.35.63-.81.63 3.93 1.62 6.41 1.58 10.26 2.13a2 2 0 0 1 -.24-1.46c.33 1.29 3.57 2.17 3.3.71.74.07.38 1 1.41.85.72-1 2.2-1.11 2.82-2.2a20.36 20.36 0 0 1 2.53 1c1 0-.46-.67.13-1.42 3.44.37 7.3 2.62 8.13.84.73.11 1.21.51 2.29-.48 0 .36-.07.71-.1 1.06 2.12-2.64 5.42 0 9 .24.43 0 .37-.61.46-1 4.71 1 6.06-.62 9.62 1 .49.13.34-.68-.11-1 3.32.77 6.43-.24 9.55-.14.2-1-.74-1.18-.55-2.2.72-.6 1.07.25 1.83.54-.14-.34-.28-.67-.68-.78.22-1.37 2.91 6.46 3.09 4.37 2.77 1.15 6.11-5.49 9.48-3.62 2.76-1.26 6.71-.19 9.62 1 1.74-1.46 4.55 4.23 5.37 4.45.75-2 2.5-1.14 3.68-3.56.45 2.46 3.12.43 3.57 1.8.45 0 .38-.6.48-1 3.71 1.89 7.12.82 10.56 2.88 1.86-2 3.47-.56 6-.8.13-.77-.2-1.17-1-1.19 1-1 4.83.76 1.11.12a2.25 2.25 0 0 1 .21 1.82c.69 0 .34-1.18.87-1.34 1 2.18 4 1.61 6.2 1.71-.52-.47-.82-1.12-1.76-1.26 4 .34 8.46 1.38 12.71-.12.51.36 1.12.65 1 1.53.49-.69 1.35-2 2.23-1.3-.51-.51.61-.73-.16-1 2.18.88 3.07-1.52 6.39-.41.59-.13.05-.37-.34-.39 5.08-3.29 13.88 5.09 20.78 1.42 2.74 1.18 5.81.07 8.47 1.23-1.23-2 4.18 1.53 6.06-.8-.39 1.14.68.62.73.08.52.17 0 .62-.43.67a2.64 2.64 0 0 0 1 .82c.16-.44.59-1.24 2.32-.83a2.83 2.83 0 0 1 -.18-2.17c.6-1.07.25 1.3.21 1.82 4.78 1.92 6.87-1.86 9.8-1.14.35-.93-.69-.76-1-1.18a1.66 1.66 0 0 1 2.29-.47c-.18.53-.62-.39-.76.27.05.4.7.32.66.78 2-.89 2.65-.81 4.87-.21a3.43 3.43 0 0 0 1.32-2c1.65.12-.42.88-.17 1.78 1.77-2.05 3.1-.22 4.39-3.13.46.51.65 1.16 1.11.11.54.22-.19.44-.1 1.07 1.22.24.57-1.7 2.32-.84 0-.66-1.23-.34-1.41-.85-.72-1.2 2.12 1.38 2.59.26.49.16.22.92.24 1.46.36-.16.65-.92.77-.29.57-.08-.1-.46.09-1.06.71.23.17 1.41 1.38 1.22.9 0-.32-1-.63-1.13.62-.05 2.49 1.75 2.7 3.13.51-.72 1.81-.51 2-1.57.54.59-.48 1.73 1.32 1.92.27-1 .38.16.84-1 .32 1.12 1.45.06.64 1.14.73.19 1.16.05 1.17-.59a16.31 16.31 0 0 1 1.73 1.6c1.52-.28 2-1.22 3.76-.33.4-1.51-.77.21-.67-.78 1.56-1.63 4-.19 4.69-2.38 4.14 1.82 10.8 1.09 12.28 4.49.52-.05.39-.86.51-1.38a6.45 6.45 0 0 0 3.16 2.12c-2-1.4 2.74-.22 2.93.66.51-.06.39-.86.5-1.39.86.28 1.8 1.73 4 .78.42.1.24.68.27 1.1.7-1 4.84 1.37 6.38-.42a28.48 28.48 0 0 1 2 2 2.41 2.41 0 0 0 .85-1c-2.78-.25.76-1.69-.85-2.95.72-.44 1.8 1.64 2 2.71a9.49 9.49 0 0 0 2.11-2.64 9 9 0 0 1 7.14 3.6c1.66.28 2.61-1 4.47.11a4.4 4.4 0 0 0 0-3.94c-.2-1 1.11 2.05 1.63 2.66.54-.95 2.06-.5 2.31-.82.43.09.26.67.28 1.09.82.19 1.4.06 1.54-.55.49.16.22.91.24 1.45a1.79 1.79 0 0 0 1.21-1c.48.77 2.33 1.89 1.88-.16 1.37-.09.3 1.73 1.32 1.92 1.24-.44-1.18-1.46.19-2.12.38.3-.05 1.07.58 1.85.5-.07.64-.58 1.18-.6.22-.83-1.71 0-1-1.17.68.85 1.21-.19 1.8.55-.91-1.4-.07-1 .24-2.48.08 2 4.25 1.63 3.3.69.57-.58 1.1 1.64 1.74 1.25.58-.1-.1-.46.1-1.07.82-.07 1.47 2.33 1.82.55.43.1.25.68.27 1.1.44 0 .37-.6.47-1a7.31 7.31 0 0 0 1.72 1.6c.51-.05.38-.84.5-1.37.43.11.25.68.27 1.1 1.1-.2.46-.49.5-1.37 1.3.18.73-1.46 2.46-1.62-1-1.93 0-.15 1.57-.91-1 1.32.6-.34.29 1.1.86-1 2.09-2.57 4.09-2.67 4.91 2.73 10.19-4.15 12.81-1.2l10.52 1.34c6.39.3 12.13 5.18 20 4.64 1 0-.46-.65.13-1.4.78.48 1.13 1.31 2.1 1.63z" fill="url(#a)"/></svg>