<svg height="25" viewBox="0 0 1040 25" width="1040" xmlns="http://www.w3.org/2000/svg" xmlns:xlink="http://www.w3.org/1999/xlink"><linearGradient id="a" gradientUnits="userSpaceOnUse" x2="1040" y1="12.5" y2="12.5"><stop offset="0" stop-color="#f0f0f0"/><stop offset="1" stop-color="#fafafa"/></linearGradient><path d="m1030.91 1.38c-.19 2 .09 1.45-.74-.08-2 .93-.64.41-3 .08 1.27 2.33-6.65-.08-2.81 2-.67 1.14-.82-.85-1.81-.54 1.83 1.08-6.95 2.49-8.43 4.1 2.34 2.61-2.84-1.12-4.41-.78-.79 4.17-11.81-.56-9.93-5.83 0 0-4.12 2.14-5.25.23-2.69 1.58-4.26-1.37-6.69-.27 4.34 2.14-7.15 4.28-7.06 5.35-.45-1.87-1.08-1.75-2.93-.64-2.83-2-7.81-2.17-8.49-.82-.08.46-6.46-2.69-2.66.49 1 1-5.89-4.88-3.4.41-.94-1.18-2.46-4.5-2.48-1.34-2.26-3.18-5.49.08-6.11-2.43-3 2.1-4.41-1.91-7 2.66.49-2.12-2.51-5-2.06-1.68-.79-.39-.65-1.51-1.65-1.68-2.29 2.53-6.72-.15-5.53 3.17-1.28-2.22-1.48 1.35-2.51-1-.67 0-2 2.24-2.25.15-.7 0-.35 1.21-.89 1.4-1.24-.29.76-2-.19-1.87-1.5-.25-.27.75-.51 1.42-2.36-2-2.82.08-5.51-.89 2.33 4-3.68-.33-2.88 2.67-9.4-1.25-15.41-.12-21.74-2.8 2.15 2.53-5.7-2.61-4.62 1.4-3 .8-6.47-1.3-7.89.72-1.25-1.56-2.41-.25-1.59.69a9 9 0 0 0 -7-1.13c1.61 3-1.11-.68-1.39-3.58-5.73.69-5.66-2.33-13.46.92 1.54 3.44-8 .63-7.38 3-8.57-3.3-14.7.46-23.21.74 2.23 2 1.79 2.86-.47 1.07 2.83 3.7-6.9-1.87-4.88.27-.37.8-1.72-.36-1.78-.92-.49 2.24-5.65.07-4.67 2.14-3.29-3.78-4.14 2.33-7.37-1.07 2.48-5.42-7.78-.15-6.64.75-6.92-1.69-9.62-.56-16.79-1.52 2.4 2.16-1.8 1.5-3.91 1.85-12.76-2.6-25.27.65-37.63-.65-2.78.19-18.3-4.11-19.36-.37-1.21-4.35-2.35-.17-6.21-1.32.76 2.08-16.25.39-11.71 1.46-2 2.91-7.4-4.11-8.72 1.38-8.76 1.72-18.76-9.46-25.14-2.4-.91-.39-2.12 1.07-1.53.22-.29-1.24-4.11 0-2.67.85-15.86-2.54-22.9-5.5-37.82-2.5-6.63-.33-18.89-1.54-25.72-.23-1.27-1.35-18.84-4.76-12-3 1.16 2.81-12.95 2.43-15.27-.34-1.49 1.28-2.3 2.84-3.69-.36-3.14 1-4.69 1.59-11.17-.33-6.1 1.47-7 9.28-15 4.94 4 3.21-2.88-2.1-2 1.66-1.07.32-12-3.46-12 .69-8.6-7.07-19.07 1.51-26-5.41-2.77 1.56-20.73-.78-20.14 1.06-2.74-2.14-2.42 0-5.95-1.34-9.13 7.49-26.21-4.14-36.47-1.36-33.14-.62-56.65 7.52-88.89 4.8-8.53 3.26-20.12-5-26.32-1.78-1.25-1.68-3 .24-4.25 1.44-1-.09-3.29-2.27-2.65.48-5.15-1.07-7.26-2.3-10.42-.26.12.07-7.6-.49-9.42 1l-41.87-.18c-12.23 5.18-3-4.5-23.68 1.8-1.49 2-7.25-6.6-5.07-2.59-1 1-4.81-.72-1.1-.1a2.42 2.42 0 0 1 -.19-1.87c-1.88.94-3.39 2.42-6.88 4.32 3.62-6-6.88-3.94-11.14-3.14-1.44 2.15-.6 4.87-3.09 0 .47 1.14-6.48 1.37-6 1.71-10.08 1.09-24.77-4.63-35.33-1.47.38-1.17-.69-.63-.75-.07-.69-.53 1.15-1.08-.59-1.53-.12 1.19-2 .58-2.26 1.91-1-3.36-8.45 1.29-9.93.61 2 1.6 0 2.42-1.29 1.72 1.08-.2.54-.29.11-1.1-2.47 1.89-5.1-1.41-6.2 2.37-1.65-.12.42-.92.18-1.83l-13.46.19c-3 3.19-1.66-2.25-4.17.71-3.39-3.14-7.37-1.65-11.33 1.49-10-2.54-12.58-3.3-18.84-5.84-.51.08-.4.88-.51 1.42-.45-1.31-4.28-.1-4.3-1.87-1.91-.06-6.76 1-8.42-1.54a2.42 2.42 0 0 0 -.85 1c2.79.24-.78 1.76.82 3-2-.73-2.1-4.34-4.1 0-3.93.28-13.55-8.64-11.55.36-.18-.48-2.17-3.46-3.92-1.84-.29-1-1.2-1.93-1.82-.54-.51-.95-.24-2.23-1.44-.5-2-2.58-2 1.83-3.18-1.78-1.24.47 1.17 1.49-.22 2.19-.28-1-.23-2.5-1.74-1.27-.23.86 1.7 0 1 1.2-2.19-1.05-1 .11-2.06 2-2-3.5-3.47.5-5-1.95-.57.1.1.48-.11 1.09-.89.07-1.51-2.39-1.89-.6-.43-.1-.25-.69-.26-1.13-.74 2.44-2.36-2.68-2.7.85-.38-1.16-1.09-1.61-.78.29l-54.88-.23v12.63c2.8.51 4.36 2.62 7.5 3.39.08-.52.16-1-.26-1.13.42-1 .82.86 1 1.2.38-.35 1.38 0 1.22-1 .4.45.56 1.1 1.77.9-.45-1.67.76.17 1.28-1.72.62 1.13 1.86.48 2.52 1 .15-.78-.18-1.18-1-1.2.68-1.15.83.85 1.81.55-.2-.4-.81-.47-.63-1.17 2.15 1.67 6.94 3 9.07 2.71-.09-.43-.57-1-.71-.43.05-1.81 3.79 1.9 5.11 1.22.25 2.36 6.08.43 8.9.47.53 0 1 .83 1 .85s4.12-2.17 5.25-.25c-.19-1.23 5 .08 4.4.79 1.15.29.95-1 2.29-.52-.26-.57-1.14-.64-1.78-.9 3.47-1.17 5.8-4.83 8-3.43.47-.11.81 5.27.85 4.64.8 0 0-4.36.19-3.8 1.12-1 2 5.28 2.73 4.44 2.45 2.32 6.46-4.7 7.65-3.82-.27-.55 1.38-.63.85-1 1.79-.71 1.45 1.09 3.63 1.08.83-.17-.59-1.28-1-1.56 0-.92 2 1.81 3.55 1.81.93-.25-.74 4.5-.15 3.42 1.89 1.39.64-4.15 2-2.88.52-.07.4-.88.52-1.43 1.59 1.56 3.22 2.45 4.78.83.19 2.19 1.67-2.83 1.32-.75 1.23-1.06 1.89 2.4 2.73 1.13.78.25.23-.65 0-.95 1.57-1.09 3.82 2.08 4.28-.48-.2 1.44.52.9 1.94.79.57 0 .32.55.14.87.82.36.68-.87 1.72-.7 1.87-1.11 3.87.28 5.71 1 1-.16-.58-1-.19-1.86.14.71 1.75 1.54 1.51-.22.87 0 .32 1.1 1 1.21s2-2.25 2.25-.16c.69 0 .35-1.21.89-1.39 1.25.27-.76 1.94.19 1.86 1.5.25.27-.74.51-1.42.25 1.46 3.15 2.08 2.11 3.56 1.21-.34 2.11-1.28 3.4-.4-.82-.82-.32-.63-.57-1.9 1.28.5 1.85-.62 3.3.67.68-.65 0-.46.14-1.45 1.69-.62 6.7 2.29 7.06.3 1.74-.37 4.06 1.46 5.58.17 1.16 1.62 3.22 0 5.1 1.22.14-.62-.53-1 .11-1.1 1.29.17.05.55.6 1.53 2.75-.33.52.57 3.3.68 0-.43-.66-.37-1.08-.46 3.08-.47 3.21.34 5.14.86.8.13.29-1.28.54-1.79.79-.45 5.06 1 3.76-.39.89-1.06 3.67 2.34 4.15-.34.75 1.37 2.57.53 1.7-.55a1.75 1.75 0 0 1 -.48-.44 1.9 1.9 0 0 1 .48.44 9.81 9.81 0 0 0 6.84 1c-.2-.4-.82-.46-.63-1.17.87-.71 2.08 0 2.55.61.57-1.13-1.17-.38-.59-1.52 1.4 0 3.29.68 3.43-.77 1 .78.43 1.61 1.71 1.62.91-.13-1.18-.82.13-1.45.71 2.46 5.86.82 8.25-.33-1.56-2 2.52-4 4.58-4.1-.12.26-.26 1.54-.57 1.54.93.13 2.36-2.38 2.85-1.33 1.3 0-.5.67.52.91.83 1.27 3.16.06 2.7.5 1.11.24.89 1.22 1.29.62 2.25 2 6.69-3.76 7.43-2 .57-.26.65 1.22.92.59 1.57-.05 2 .83 3.25 1 2.1-2.31 5.84 0 7.62-1.48-.73-.83-1.78-1.38-1.68-2 .63-.87 1.19.57 1.91.88.76 1.47 1.68 4.46 2.6 4.47-.06.93 1.67.69.59 1.52.66-.1 3.47.18 1.93-.55.37-.82 1.71.36 1.77.9.53-.19.77-.71.88-1.39 1.15.94 2.36-.47 3.33.33.43.15 1.38-.94.48-1.06.6-.78 1.16 1.26 1.7 1.64 1.16 0 1.14-1.36 2.7-.85 0-.36-.43-.33-.71-.44 1.25.16 2.87-1.44 3.66.71 1.19-.45-.33-1.46 1.36-2.44-1.31 0-1.25.3-2.22-.22 3.42-.81 5.64 2.69 7.93 3 .58 0 .15-.76-.43-1.07 2.13.59 6.15 2.59 5.74.09 2.73 1.34 4.68-.22 8 1.87-.16-1.09 2 .06 3-.44-1.48-.85-.41-1 .22-2.19-.07 1.28 2.43.18 3.69.35 3 .4 6.32 2 8.81 1.58.54-.33-.11-.62.85-1 3.25 2.25 5.62 3 7.87 2.68-.11.17.69 1.26 2.21.57 2.93-1.35 8.22-.17 12.6.83 1.27.14 3-1.33 4.11 0-.34-1.17 1.71.08 1.18-.63 1.09-.26 3.28 1.83 3.74 0 .69 2.27 2.79 1 4.32 1.53-1.5-.56 1-1.22-.47-1.52a46.08 46.08 0 0 1 8.94 2.69c1.15-.91 2.71-1.18 2.83-2.32.76.17-.05 1.62.57 1.9.93.52 1.7-1 1.44.5.43-.46 2.08-1.09.11-1.08 1.18-1 3.18.61 4.1 0 .14-.42 0-.61-.28-.7 3.16.68 5.3-1.64 10.84-.5.58.11-.39.66.3.76 1.42.61.87-1.13 2.29-.51-.22-1.1-.51-.48-1.44-.51 1.32-2.15 4.47.71 6.61 1 1.68-.52 1.17-1.11 2.1-2.38 3.05-.08 6.77 1 11 2.15.42.11 1.29-.31 1.51-.23 1 .34 2.24 1.53.74.07 1.66.94 4.76 1.89 7.1 3.63 1.3-.21 2.1-1 3.48-1.1-.3-.29 1.38-2.17 1.32-2.13.25-.17 1.1.11 1.1.11a2.4 2.4 0 0 0 .44-.32c-.23-.48.55-.49 0 0a1.48 1.48 0 0 0 .31.39c.6.52 3.72-.5 2.36-1.25 4.69 1.28 7.59.69 12.39 3 .25-.5-1.35-1-.26-1.12 2.44 3.25 6.56-1.07 9.17 1.61.44 0 .37-.64.47-1.05.62 1.57 1.59.78 3.23 1.4.79 0-.42-1.18-.59-1.53 1.28-.11 2.06 1.43 3.54 1.81 2.66-1.17 5.37-.51 8.61-.28.17-.54.56-.61 1.25-1.36 1.83 1.18 1.8-.29 2.67-.48 2.89.6 18.14-2 21.24-3.77.46.11 1.71.67 1.81 0 .53.2-.06.31-.07.72 5.11-.46 10.52 3.57 14.65 2.87a3.78 3.78 0 0 0 -2.55-.62c-.13-.34-.27-.68-.68-.79.7-.75 2 .26 1.25-1.36 3.1 1.91 5.34-3 8.11-1.12.8.23 2.14-.89 1.25-1.35 1.69-.37 3.65 1.94 5.32 2.71.7-.26.63-1.44 2-.92a2.67 2.67 0 0 0 -1-.83c.27-.19 3.68 1.3 2.77 2.1a2.39 2.39 0 0 1 2.6.25c.68-1.33-1.65-.23-1-1.56.38.46 2.73 1.21 2.29-.52 1.59 1.38 5.95 1.65 7.24 2.16 2.65 1.19 4.92.28 8-1.45 0-.35-.42-.32-.71-.43 3.45-.77 3.83 1.65 7.7 1.47a1.67 1.67 0 0 0 -1.42-.88c-.55-.91 2.25.43 2.52 1 .73-.71 1.35-.51.92-1.75.74.18.63 1.05 1.37 1.23.57-.1-.11-.47.11-1.09 3.11.2 10.93 2.9 10.52-.84 3.7.49 5.84-6.6 8.69-6.67a.78.78 0 0 1 -.75.63c2.07.36 3.8 2.75 6.71 3.26 3.13.54 8-2.42 9.54 1.64a2.12 2.12 0 0 1 1.52-.23c.21.72 1.08.36.26 1.13 1.33.22 3.55-.81 5.21.13 1.32-2.53 6.36.28 7.28-1.88.6.77 3.45 3 4 .75.3 1.7 6.08 1 2.71-.85.61-.15 2.39 2.19 3.1 3.07 1.28-.2.12-.81.89-1.39.47 1.61.89-.64 2.87 1-.07-.83 1.83-.86 2.11-2.39 1.66 1.61 1.9.66 4.32 1.53.63-1.21 5.06-3.14 6.81-.82 4.61-2.49 10.48-2.07 15.33-.39 2.17.15 4.86-1.88 7.88-.35.46 0 .43-.7.06-.73 2.71 0 8 6.71 9.52 4.18 2.26 2.32 11 .09 14 2.07 6.22-.82 10.72-3.49 18.42-1.49 1.1-.85.51-1.2.21-2.2 4.33 2.37 10.41 1.68 13.2-1.32a1.7 1.7 0 0 0 -.49 1.06c3.62-.66 8.33 4.23 11.9 2.37 1.36 2.85 5.83 1.46 7.87 3.33 2-2.51 10-2.26 14.27-.86.29-1.82 4.63.09 6.42-.86-.26.69 5.7 1.59 7.4.72.07.63-.36.65-.82.65 3.91 1.63 6.39 1.56 10.26 2.08a2 2 0 0 1 -.24-1.5c.32 1.32 3.55 2.19 3.29.69.74.08.37 1 1.41.87.72-1 2.21-1.16 2.84-2.31a25.57 25.57 0 0 1 2.52 1c1 0-.45-.67.14-1.46 3.44.34 7.28 2.62 8.13.78.73.1 1.2.49 2.29-.52 0 .36-.07.72-.11 1.09 2.15-2.76 5.43-1.18 9-1 .44 0 .39-.63.48-1.06 4.71 1 6.07-.7 9.62.91.47.14.33-.7-.1-1-.18 0-.36-.07-.54-.12a.58.58 0 0 1 .54.12c3.3.75 6.42-.33 9.54-.26.21-1.06-.72-1.21-.51-2.26.71-.61 1.06.26 1.8.54-.13-.35-.26-.69-.66-.8.24-1.4 2.89 1 3.09-1.17 2.78 1.15 6.11.49 9.48 2.37 2.77-1.32 6.7-.26 9.61.92a7.65 7.65 0 0 1 5.38-1.7c.77-2.12 2.51-1.21 3.72-3.7.41 2.52 3.12.4 3.56 1.81.44 0 .37-.63.48-1.05 3.69 1.89 7.12.75 10.54 2.84 1.89-2.09 3.48-.61 6.06-.9.14-.79-.19-1.18-1-1.19 1-1 4.82.71 1.11.1a2.33 2.33 0 0 1 .19 1.85c.7 0 .35-1.21.89-1.38 1 2.24 4 1.63 6.18 1.69-.52-.48-.81-1.13-1.75-1.27 4 .31 8.45 1.32 12.72-.27.51.37 1.12.67 1 1.57.5-.71 1.37-2.09 2.24-1.36-.49-.53.62-.75-.15-1 2.17.88 3.1-1.6 6.4-.5.59-.14.06-.39-.33-.4 5.11-3.43 13.82 5.08 20.77 1.25 2.73 1.17 5.81 0 8.47 1.16-1.22-2 4.15 1.53 6.06-.89-.4 1.17.67.63.73.07.52.18 0 .64-.44.7a2.63 2.63 0 0 0 1 .83c.17-.45.6-1.28 2.33-.89a3 3 0 0 1 -.16-2.22c.62-1.11.24 1.33.19 1.86 4.77 1.92 6.9-2 9.83-1.27.35-1-.7-.78-1-1.2a1.66 1.66 0 0 1 2.3-.52c-.19.56-.63-.38-.78.3 0 .39.71.31.67.8 2-1 2.64-.87 4.88-.28a3.77 3.77 0 0 0 1.32-2.08c1.65.1-.43.9-.19 1.83 1.8-2.13 3.11-.26 4.43-3.27.45.52.64 1.19 1.11.1.53.22-.19.46-.11 1.1 1.22.24.58-1.75 2.33-.88 0-.68-1.23-.34-1.4-.87-.71-1.22 2.09 1.4 2.59.25.48.15.21.93.22 1.49.35-.17.65-1 .77-.3.57-.1-.1-.47.11-1.09.69.22.15 1.45 1.37 1.24.88 0-.32-1-.64-1.17.64 0 2.48 1.78 2.68 3.21.52-.75 1.81-.56 2-1.65.53.61-.49 1.78 1.29 2 .29-1 .38.17.86-1 .31 1.15 1.45 0 .62 1.17.74.19 1.17 0 1.18-.62a16.57 16.57 0 0 1 1.72 1.63c1.53-.31 2-1.27 3.76-.38.42-1.57-.77.23-.67-.79 1.58-1.71 4-.26 4.72-2.5 4.13 1.82 10.8-.7 12.25 2.78.51-.06.39-.88.51-1.42a6.36 6.36 0 0 0 3.15 2.14c-2-1.42 2.74-.26 2.92.64.52-.06.4-.88.52-1.42.85.27 1.78 1.76 4 .75.43.11.25.69.26 1.13.72-1 4.84 1.36 6.39-.49a25.58 25.58 0 0 1 2 2 2.65 2.65 0 0 0 .86-1c-2.79-.22.76-1.74-.83-3 .73-.46 1.79 1.67 2 2.77a9.92 9.92 0 0 0 2.22-2.94 8.72 8.72 0 0 1 7.15 3.62c1.65.29 2.62-1 4.48.07a4.74 4.74 0 0 0 0-4.05c-.19-1 1.08 2.1 1.6 2.73.54-1 2.06-.54 2.32-.88.42.1.25.69.26 1.13.83.18 1.4 0 1.55-.6.49.17.22.95.23 1.5a1.92 1.92 0 0 0 1.22-1c.47.78 2.31 1.92 1.88-.19 1.37-.11.28 1.78 1.3 2 1.24-.47-1.17-1.48.21-2.18.37.3-.06 1.1.57 1.89.49-.08.64-.59 1.18-.62.23-.86-1.71 0-1-1.2.69.87 1.23-.2 1.81.54-.9-1.41-.07-1 .26-2.55.06 2.09 4.24 1.64 3.29.67.58-.59 1.09 1.69 1.74 1.28.56-.11-.1-.48.11-1.09.81-.11 1.44 2.36 1.81.54.43.1.24.69.26 1.12.44 0 .38-.64.48-1.05a6.91 6.91 0 0 0 1.7 1.62c.52-.05.4-.88.52-1.41.42.09.25.69.26 1.13 1.11-.21.46-.51.51-1.43 1.29.18.71 1.88 2.44 1.7-1-2 0-.16 1.58-.94-1 1.35.6-.36.28 1.12.87-1 2.09.15 4.1 0 4.88 2.76 10.14-7.22 12.73-4.21 4.32.49 6.92 2 10.64 3.07.48 0 1 .05 1.45.09 5.7.39 11.08 1.63 18.26 1.06 1 0-.44-.67.14-1.46.78.5 1.11 1.34 2.08 1.67.2-1-1.41-.43-1-1.56 1.58 0 2.63 1 3.75 1.23v-13.48c-3.91.12-5.4-2.59-9.09-3.5zm-885.14 8 .78-.31c-.35.21-.66 1-.78.33zm56.61 2a.26.26 0 0 1 .29.06 1.24 1.24 0 0 0 -.29-.04zm613-2.2a3.64 3.64 0 0 0 .39-.94 1.21 1.21 0 0 1 -.35.96z" fill="url(#a)"/></svg>