<svg height="25" viewBox="0 0 1040 25" width="1040" xmlns="http://www.w3.org/2000/svg" xmlns:xlink="http://www.w3.org/1999/xlink"><linearGradient id="a" gradientUnits="userSpaceOnUse" x2="1040" y1="12.5" y2="12.5"><stop offset="0" stop-color="#aaa"/><stop offset="1" stop-color="#bebebe"/></linearGradient><path d="m1039.92 23.5-.19-10h.27l-.17-6.23c-2.81-.45-4.38-2.19-7.53-2.85-.08.43-.15.84.28.94-.42.76-.83-.71-1-1-.38.28-1.38 0-1.2.79-.41-.38-.58-.91-1.79-.75.48 1.37-.76-.15-1.26 1.39-.64-.93-1.86-.42-2.53-.82-.14.63.2 1 1 1-.66.94-.84-.7-1.82-.45.21.33.82.38.65 1-2.16-1.36-7-2.54-9.09-2.28.09.35.56.81.7.35 0 1.48-3.81 1.65-5.11 2.19-.28-1.93-6.09-.41-8.92-.47-.52 0-1-.68-1-.69s-4.09 1.72-5.24.15c.19 1-5-.11-4.41-.69-1.15-.25-.93.84-2.28.4.26.47 1.15.54 1.79.76-3.46.92-5.82-.72-8-1.89-.47.09-.81.3-.84.83-.81 0 0-1.07-.21-1.53-1.11.79-2 .3-2.72 1-2.47-1.92-6.47-.84-7.67-1.57.28.46-1.38.52-.84.83-1.78.57-1.45-.91-3.63-.92-.83.14.59 1 1 1.29 0 .75-2-1.5-3.57-1.51-.92.19.74 1 .18 1.82-1.91-1.16-.67-1.24-2-2.28-.51.05-.38.72-.49 1.16-1.62-1.28-3.25-2-4.79-.71-.22-1.8-1.65 2.29-1.32.58-1.22.87-1.91-2-2.74-.94-.77-.21-.23.54 0 .78-1.56.87-3.83-1.73-4.28.36.19-1.18-.52-.74-2-.66-.58 0-.3-.51-.12-.76-.8-.28-.66.71-1.7.57-1.86.89-3.87-.27-5.73-.91-.94.13.6.85.21 1.52-.14-.57-1.75-1.27-1.5.17-.87 0-.32-.9-1-1s-2 1.82-2.25.1c-.7 0-.34 1-.87 1.14-1.25-.24.74-1.59-.21-1.52-1.5-.23-.26.6-.5 1.15-.27-1.19-3.14.12-2.12-1.09-1.2.27-2.09 1-3.39.31.83.68.31.5.57 1.55-1.28-.42-1.82.49-3.3-.58-.67.54 0 .38-.13 1.19-1.68.48-6.71-1.93-7.05-.31-1.73.29-4.07-1.23-5.59-.18-1.17-1.34-3.2 0-5.11-1-.13.5.55.82-.09.9-1.3-.16-.06-.45-.62-1.26-2.74.24-.53-.47-3.3-.58 0 .35.66.31 1.08.39-3.07.35-3.22-.31-5.14-.76-.8-.11-.28 1-.54 1.47-.77.36-5.06-.87-3.75.27-.88.86-3.69-1.94-4.13.24-.78-1.12-2.59-.45-1.71.44a11.86 11.86 0 0 0 -6.84-.88c.2.33.82.38.64 1a2.21 2.21 0 0 1 -2.55-.52c-.56.92 1.17.33.6 1.25-1.4 0-3.3-.59-3.42.6-1-.65-.44-1.33-1.72-1.35-.91.11 1.18.69-.12 1.19-.74-2-5.87-.72-8.25.2 1.57 1.6-2.44 0-4.52.07.12.15.24 2 .53 2a5.24 5.24 0 0 1 -2.84-2.17c-1.3 0 .51-.54-.51-.76-.78-.94-2.77 2.46-2.77 2.79-1-.22-.85-1-1.23-.51-2.27-1.67-6.66-.21-7.41-1.66-.57.21-.66-1-.93-.49-1.57 0-2-.7-3.27-.88-2.06 1.87-5.83 0-7.58 1.15.73.67 1.78 1.13 1.68 1.64-.67.78-1.31-.77-2.16-.78a1.05 1.05 0 0 0 1 .69 8.91 8.91 0 0 1 -3.39.3c0-.77-1.68-.57-.61-1.25-.65.08-3.47-.18-1.92.43-.36.66-1.72-.3-1.78-.76a1.32 1.32 0 0 0 -.87 1.14c-1.14-.78-2.34.36-3.33-.3-.43-.13-1.36.75-.46.86-.59.64-1.17-1-1.73-1.35-1.16 0-1.12 1.09-2.68.67 0 .29.43.28.7.37-1.24-.15-2.85 1.15-3.66-.62-1.18.36.35 1.2-1.33 2 1.31 0 1.25-.24 2.22.2-3.39.39-5.65-2.46-7.93-2.71-.59 0-.15.61.43.86-2.12-.49-6.17-2.17-5.73-.13-2.75-1.11-4.69.14-8-1.59.16.88-2-.06-3 .34 1.49.69.42.79-.19 1.78.05-1-2.44-.17-3.7-.32-3-.35-6.34-1.7-8.82-1.37-.54.26.11.51-.84.83-3.29-1.87-5.64.32-7.9.52.25 0-.57-1.07-2.18-.49-2.9 1.07-8.22.07-12.6-.79-1.28-.12-3 1.06-4.11-.06.34 1-1.72-.08-1.17.5-1.09.21-3.31-1.51-3.73 0-.73-1.85-2.82-.8-4.35-1.27 1.51.45-1 1 .48 1.22a55.36 55.36 0 0 1 -9-2.26c-1.15.73-2.71.94-2.82 1.86-.77-.15 0-1.32-.58-1.56-.93-.42-1.69.78-1.45-.42-.42.37-2.05.88-.1.89-1.17.78-3.17-.53-4.09-.06-.15.39.07.53.39.61-3.23-.67-5.33 1.28-10.94.28-.59-.1.38-.53-.31-.63-1.43-.5-.86.93-2.29.41.24.89.53.38 1.46.42-1.32 1.75-4.47-.61-6.63-.87-1.67.41-1.16.89-2.07 1.93-3.06 0-6.78.48-11-.48-.43-.1-1.29.24-1.51.17a10 10 0 0 1 -1.44-.64 6 6 0 0 0 .7.58c-1.67-.78-4.77-1.58-7.15-3-1.29.16-2.07.8-3.47.86.32.24-1.34 1.76-1.28 1.72-.25.15-1.11-.1-1.11-.09a2.9 2.9 0 0 0 -.43.25 1 1 0 0 0 -.31-.31c-.61-.44-3.72.36-2.35 1-4.69-1.09-7.59-.63-12.41-2.57-.24.4 1.36.85.26.92-2.46-2.67-6.54.81-9.18-1.39-.44 0-.37.51-.46.86-.64-1.31-1.6-.66-3.24-1.19-.79 0 .43 1 .61 1.26-1.28.07-2.08-1.18-3.57-1.51-2.63.94-5.35.37-8.6.15-.16.44-.56.49-1.24 1.09-1.83-1-1.79.23-2.65.37-4.85-.86-16.24-2.63-21.25-.33-.46-.1-1.71-1-1.82-.46-.52-.18.07-.26.07-.59l-11.47-1.34c-3 2.44-20.35-2-16.84.34-2.54-1.11-2.59-1.77-5.39-2-.66 1.09 1.65.21 1 1.29-.38-.38-2.74-1-2.28.4-7.4-4.63-20.34.17-20.81 3.72.45.91-4.66-2.14-3.43.6-4.56-2.88-17.81 2-19.93.71-6.72-4.23-9.67.18-16.28-4.15-2.58-.46-10.5-1.08-14.25.57-.62-.64-3.49-2.53-4.05-.66-4.57-3-2.13 2.79-5.82-1.4l-63.74 1.84c-30.67 5.47-62.61 3.88-88.36 2.26-3.63-3.69-5.94 1.74-10.06-.28-8.06 1.27-18.72.56-29.57-.17-.1 2.19-11.09-1.35-8.89 2.82-.69.49-1-.15-1.73-.41.52.88.7 1.27-.1 0h.1c-.83-1.41-2.53-4.07-2.51-3.06-17.72 10-22.48-5-28.15 1.47-2.49-1.75-20.89-3.88-19.64-1.41-1 .82-4.83-.63-1.11-.09-4.17-3.73-20-.45-27.33.63-12.14-.16-30.83-3.12-39-2.17.4.38.32 1.08.18 1.81-.45-4.47-7.75 0-10-.57 3.61 4.22-5.31-2.09-7.36 2.37-1.65-.1.42-.74.17-1.49-1.77 1.72-3.1.18-4.39 2.63-.66-1.32-1.62.75-1-1-1 .74-3.24.82-.91 1.42.72 1-2.12-1.16-2.59-.22-.49-.14-.22-.78-.24-1.23-.81.79-1.1-.23-.86 1.14-.71-.2-.17-1.19-1.38-1 .37 2.83-2-3.62-4.08-.36.61-2.76-3.53-.12-2.8-1.74-2.45-.16-3.43-.52-6.66-.57-.4 1.27.77-.18.67.65-7.43 2.13-16 5.06-20.64 2.22 2 1.18-2.74.19-2.93-.55-.9 2.38-1.41-.6-4.54.51-.42-.08-.24-.57-.27-.92-1.38-.08-7.18.74-8.43-1.34a2.19 2.19 0 0 0 -.85.83c2.78.21-.76 1.42.85 2.48-1.67-.57-2.35-3.6-4.1 0-4.25.14-13.35-7.26-11.59.12.2.8-1.11-1.73-1.63-2.24-.54.8-2.06.42-2.31.69-.25-2.21-2.72.65-2.06-1.67-1 1.47-3.28-1.36-3.09.93-1.37.07-.3-1.46-1.32-1.61-1.24.36 1.18 1.22-.19 1.78.13-.75-.63-2-1.76-1 2.56 1.78-.43-.82-1 2.61-.11-1.75-4.3-1.39-3.3-.64-.93.35-2-2.58-1.84-.15-.82.06-1.47-2-1.82-.46-.93-1.27-.54.25-2.46-1.42-.43.21-.79 2.17-.77.24-1.47.64-.43 2-3 2.5 1 1.63 0 .13-1.57.77.34-2.05-2 1.41-4.38 1.32-4.9-2.3-10.16 3.45-12.8 1l-10.36-1.19c-6.35-.24-12.09-4.36-20-3.9-1 0 .46.56-.13 1.18-.77-.4-1.12-1.09-2.09-1.37-.19.77 1.42.36 1 1.29a17.88 17.88 0 0 1 -3.78-.56l.34 7.18h-.26v2c3.92-.18 5.44 2.1 9.15 2.87.07-.42.15-.84-.28-.92.42-.77.82.7 1 1 .37-.29 1.37 0 1.21-.8.41.38.58.91 1.79.76-.48-1.37.74.15 1.26-1.4.62.93 1.84.41 2.53.82q.21-1-1-1c.67-.93.84.7 1.83.46-.21-.32-.83-.38-.66-1 2.17 1.38 7 2.55 9.1 2.29-.1-.35-.57-.8-.71-.36 0-1.47 3.82 1.59 5.12 1-.48-3.19 6.79.43 8.91.47.53 0 1 .69 1 .69s4.09-1.72 5.24-.15c-.19-1 5 .11 4.41.68 1.15.25.94-.84 2.29-.39-.27-.47-1.15-.54-1.8-.76 3.46-.92 5.81.72 8 1.9.48-.09.81-.32.85-.83.81 0 0 1.06.2 1.52 1.11-.79 2-.29 2.73-1 2.47 1.91 6.46.83 7.66 1.57-.27-.46 1.37-.52.84-.83 1.78-.56 1.46.91 3.64.91.83-.12-.59-1.05-1-1.29 0-.74 2 1.51 3.57 1.52.93-.2-.73-1-.17-1.82 1.9 1.15.66 1.23 2 2.28.51 0 .39-.72.5-1.17 1.61 1.29 3.25 2 4.78.72.22 1.79 1.68-.38 1.35 1.32 1.22-.85 1.89.07 2.71-1 1.09.3-.41.61-.12 1.19 1.55-1 3.9-.18 4.36-2.32a2.08 2.08 0 0 0 2 2.57c1 0-.45-.56.12-1.19.82.3.69 1.21 1.73 1.36 1.87-.89 3.85-1.65 5.71-1 .95-.12-.6-.85-.21-1.53.15.58 1.76 1.28 1.51-.16.87 0 .32.89 1 1s2-1.81 2.25-.11c.69 0 .34-1 .88-1.13 1.24.24-.74 1.59.21 1.53 1.49.21.26-.61.49-1.16.27 1.2 3.15-.12 2.12 1.09 1.21-.27 2.09-1 3.4-.31-.84-.67-.32-.51-.58-1.56 1.28.44 1.83-.49 3.29.58.69-.53 0-.37.13-1.18 1.69-.49 6.73 1.93 7.07.31 1.73-.29 4.07 1.23 5.57.18 1.17 1.34 3.22 0 5.12 1 .13-.5-.55-.83.1-.89 1.3.15.05.43.61 1.25 2.75-.25.54.46 3.29.58 0-.35-.64-.31-1.08-.39 3.09-.35 3.23.31 5.16.75.8.12.28-1 .52-1.45.79-.36 5.08.85 3.77-.28.87-.87 3.69 2 4.13-.25.77 1.13 2.57.45 1.71-.43a11.73 11.73 0 0 0 6.83.87c-.21-.32-.81-.38-.64-.95a2.22 2.22 0 0 1 2.56.52c.56-.92-1.18-.33-.61-1.26 1.4.06 3.3.6 3.42-.59 1 .65.45 1.32 1.72 1.34.92-.1-1.18-.68.13-1.19.73 2 5.85.73 8.23-.18-1.58-1.64 2.6-1.34 4.63-1.4a1 1 0 0 0 -.66-.45c.93.17 2.38 0 2.9.86 1.31 0-.53-1.38.49-1.16.86 1 3.18.07 2.71.43 1.11.2.91 1 1.3.52 2.26 1.67 6.67-1.1 7.44.34.57-.2.63-.91.89-1.42 1.57 0 2 .7 3.26.88 2.07-1.87 5.83 0 7.6-1.14-.73-.68-1.79-1.14-1.69-1.65.68-.79 1.32.76 2.15.78-.12-.38-.4-.64-1.05-.69a9.17 9.17 0 0 1 3.4-.3c-.05.77 1.68.58.62 1.25.64-.08 3.46.18 1.91-.43.36-.66 1.72.3 1.78.75a1.26 1.26 0 0 0 .87-1.13c1.15.77 2.35-.36 3.34.29.43.13 1.36-.74.45-.85.59-.64 1.18 1 1.73 1.34 1.17.05 1.13-1.09 2.69-.66 0-.3-.43-.27-.72-.36 1.25.14 2.86-1.15 3.68.62 1.18-.37-.36-1.2 1.33-2-1.31 0-1.25.24-2.22-.19 3.41-.63 5.66 2.25 7.95 2.5.59 0 .14-.61-.44-.88 2.13.5 6.18 2.18 5.74.13 2.74 1.12 4.67-.13 8 1.61-.16-.9 2 .05 3-.35-1.49-.69-.42-.8.19-1.78-.06 1.05 2.43.16 3.7.32 3 .36 6.33 1.7 8.81 1.37.54-.26-.1-.51.84-.83 3.28 1.87 5.63-.32 7.89-.52-.23 0 .59 1.08 2.19.49 2.91-1.07 8.22-.07 12.61.79 1.26.12 2.94-1.05 4.11.06-.35-1 1.71.08 1.17-.5 1.08-.21 3.3 1.52 3.73 0 .72 1.86 2.82.81 4.34 1.28-1.5-.46 1-1-.48-1.24a56.58 56.58 0 0 1 9 2.27c1.14-.73 2.71-.94 2.81-1.85.76.14 0 1.31.58 1.55.93.43 1.7-.79 1.44.42.44-.38 2.07-.88.1-.89 1.18-.79 3.19.52 4.11 0a.38.38 0 0 0 -.24-.56c3.14.56 5.26-1.3 10.78-.32.59.1-.38.53.31.62 1.43.51.86-.91 2.28-.39-.22-.9-.51-.39-1.44-.44 1.3-1.74 4.47.62 6.63.88 1.66-.41 1.16-.89 2.07-1.93 3.05 0 6.78.9 11 1.86.43.1 1.29-.22 1.52-.17a12.53 12.53 0 0 1 1.43.64 6.82 6.82 0 0 0 -.7-.57c1.68.78 4.77-3 7.15-1.59 1.26-.17 2.06-.8 3.43-.86 0 .2 1.38 2.84 1.33 2.88.25-.15 1.1.09 1.11.09a1.84 1.84 0 0 0 .42-.25 1 1 0 0 0 .31.32c.61.43 3.71-.37 2.35-1 4.69 1.09 7.6-4 12.42-2 .24-.41-1.36-.85-.27-.92 2.47 2.67 6.54-1.28 9.18.94.44 0 .37-.53.47-.87.63 1.3 1.58.66 3.23 1.18.8 0-.42-1-.61-1.24 1.29-.09 2.08 1.17 3.57 1.5 2.64-.94 5.36-.37 8.6-.16.16-.43.55-.48 1.24-1.08 1.83 1 1.79-.23 2.66-.37 4.85.86 16.22 2.64 21.25.33.45.1 1.71 1 1.81.46.53.18-.07.26-.07.59l11.44 1.3c.69-.61 2 .23 1.24-1.1 3.11 1.59 5.32-.59 8.1 1 .81.19 2.14-.72 1.24-1.1 1.69-.28 3.68 1.62 5.36 2.27.69-.21.61-1.17 1.95-.74a3 3 0 0 0 -1.05-.69c.27-.16 3.7 1.1 2.8 1.75a2.8 2.8 0 0 1 2.59.22c.66-1.08-1.65-.2-1-1.29.37.39 2.74 1 2.28-.39 1.59 1.13 6 1.4 7.26 1.82 2.65 1 4.92.28 8-1.1 0-.3-.43-.27-.71-.37 3.45-.59 3.86 1.39 7.72 1.27a1.78 1.78 0 0 0 -1.42-.72c-.58-.76 2.25.36 2.52.81.72-.57 1.34-.39.9-1.42.74.15.64.87 1.39 1 .55-.1-.11-.39.09-.9 3.12.19 10.95 2.47 10.52-.59 3.69.43 5.81-.73 8.67-.75a.79.79 0 0 1 -.74.51c2.06.31 6.74 2.71 6.74 2.71s8-1.9 9.55 1.43a2.44 2.44 0 0 1 1.51-.16c.22.58 1.08.29.28.92 1.33.18 3.54-.64 5.21.15 1.29-2.06 6.37.27 7.25-1.47.61.63 3.48 2.53 4 .65.31 1.39 6.08.85 2.68-.67.63-.13 2.41 1.35 3.14 2.08 1.27-.17.12-.67.87-1.14.49 1.32.88-.52 2.89.86-.08-.67 1.81-.68 2.08-1.93 1.68 1.32 1.91.56 4.35 1.28.6-1 5-2.51 6.78-.61 4.59-2 10.47-1.59 15.33-.17 2.18.14 4.84-1.48 7.86-.22.47 0 .44-.56.07-.6l23.49-4.37c6.23-.63 10.72 1.86 18.42 3.5 1.09-.69.5-1 .19-1.79 4.36 2 10.42 1.46 13.18-1a1.27 1.27 0 0 0 -.47.86c3.61-.52 8.31-1.1 11.86-2.57 1.39 2.33 5.85 1.24 7.91 2.78 1.95-2 10-1.74 14.25-.56.27-1.49 4.62.1 6.4-.65-.25.56 5.71 1.34 7.41.64.08.52-.34.54-.81.54 3.93 1.35 6.41 1.32 10.27 1.79a1.45 1.45 0 0 1 -.24-1.23c.32 1.08 3.57 1.82 3.3.59.73.06.38.85 1.41.73.71-.85 2.2-.93 2.81-1.87.91.26 1.21.35 2.53.83 1 0-.45-.56.13-1.19 3.44.3 7.3 2.2 8.14.71a2.28 2.28 0 0 0 2.28-.42c0 .31-.06.6-.09.9 2.11-2.23 5.4-.93 9-.72.44 0 .38-.51.47-.86 4.71.83 6.05-.52 9.61.84.49.1.34-.58-.1-.87 3.31.65 6.42-.2 9.54-.12.2-.87-.73-1-.54-1.85.72-.49 1.07.22 1.82.46a1 1 0 0 0 -.68-.66c.2-1 2.43.47 3-.56h1.3a66.35 66.35 0 0 1 8.29 2.9c2.76-1.05 6.71-.15 9.62.84a8.76 8.76 0 0 1 5.37-1.35c.74-1.72 2.54 2.87 3.73.85.43 2.06 3.12.35 3.57 1.51.43 0 .37-.52.47-.87 3.71 1.59 7.09-3.14 10.52-1.41 1.86-1.69 3.52 3.37 6.09 3.16.14-.65-.2-1-1-1 1-.82 4.83.63 1.11.09a1.68 1.68 0 0 1 .23 1.6c.69 0 .34-1 .87-1.12 1 1.79 3.76-2.24 6-2.38-.39.36-.68 2.77-1.47 2.77 4 .28 8.42 1.14 12.65-.11.41.25.87-2 .94-2.53.47-.56 1.31 1.59 2.15 2.57-.11-.32.62-.48 0-.67 2.17.74 3.07-1.28 6.39-.35.59-.11.06-.31-.33-.32 5.07-2.77 13.88 4.27 20.78 1.19 2.74 1 5.8.06 8.47 1-1.23-1.66 4.18 1.27 6-.68-.37.95.69.51.75.06.5.15 0 .53-.44.56a2.57 2.57 0 0 0 1 .69c.16-.36.59-1 2.32-.7-.4-.38-.31-1.09-.18-1.81.61-.91.25 1.08.21 1.52 4.78 1.61 6.88-1.56 9.81-.95.33-.78-.71-.65-1-1a1.88 1.88 0 0 1 2.29-.41c-.18.46-.62-.31-.78.24.06.33.72.26.68.66 1.95-.75 2.63-.68 4.87-.18a2.86 2.86 0 0 0 1.3-1.69c1.66.1-.41.74-.16 1.48 1.78-1.71 3.11-.17 4.4-2.62.45.43.64 1 1.11.09.54.19-.19.37-.1.9 1.21.21.56-1.42 2.31-.69 0-.57-1.23-.3-1.4-.73-.73-1 2.11 1.16 2.58.22.49.14.22.78.24 1.23.36-.14.65-.79.78-.24.55-.08-.11-.39.09-.89.7.19.17 1.18 1.38 1 .88 0-.3-.82-.63-1a4.37 4.37 0 0 1 2.69 2.64c.51-.6 1.81-.43 2-1.32.54.49-.49 1.45 1.31 1.61.28-.82.38.15.84-.83.33.94 1.46.06.64 1 .74.16 1.16 0 1.17-.5a15.65 15.65 0 0 1 1.73 1.35c1.53-.24 2-2.87 3.76-2.11.41-1.29-.76.17-.68-.67 1.57-1.38 4-.16 4.69-2 4.15 1.52 10.81.91 12.3 3.76.5 0 .38-.72.49-1.16a6.58 6.58 0 0 0 3.18 1.86c-2-1.16 2.74-.19 2.93.55.5 0 .38-.72.49-1.16.86.23 1.81 1.46 4 .66.43.09.26.57.27.92.7-.83 4.85 1.15 6.38-.34a22.33 22.33 0 0 1 2.06 1.68 2.16 2.16 0 0 0 .84-.83c-2.78-.22.76-1.42-.85-2.48.72-.37 1.81 1.38 2 2.27a8.22 8.22 0 0 0 2.11-2.21c2.57-.06 5.74 1.21 7.14 3 1.66.23 2.62-.83 4.48.09a3.22 3.22 0 0 0 0-3.31c-.2-.81 1.12 1.73 1.63 2.24.54-.8 2.06-.43 2.31-.69.44.08.27.56.28.92.83.16 1.4.05 1.55-.47.49.14.22.76.24 1.22a1.74 1.74 0 0 0 1.2-.8c.49.65 2.34 1.59 1.88-.14 1.37-.07.31 1.46 1.33 1.62 1.23-.37-1.19-1.22.19-1.78.36.25-.06.89.58 1.55.49-.07.63-.47 1.17-.5.23-.7-1.7 0-1-1 .69.72 1.22-.15 1.81.46-.93-1.16-.08-.84.22-2.08.09 1.7 4.27 1.37 3.3.58.58-.48 1.12 1.38 1.76 1.06.56-.08-.11-.39.1-.89.81-.08 1.46 1.94 1.82.45.42.09.25.57.27.93.44 0 .37-.52.46-.86a7.41 7.41 0 0 0 1.73 1.35c.51-.05.38-.72.5-1.16.42.09.24.57.26.93 1.1-.17.47-.42.51-1.16 1.29.15.72 1.54 2.45 1.41-1-1.63 0-.13 1.58-.76-1 1.1.59-.28.27.91.88-.83 2.11.15 4.1.07 4.92 2.3 10.2-1.18 12.82 1.29 5.14.54 7.82.77 12.87 1.73-.09-.69-1.8-.28-2.56-.53 6.39.25 12.14 1.59 20 1.14 1 0-.44-.56.14-1.19.77.41 1.12 1.1 2.09 1.38.2-.77-1.42-.36-1-1.28a11 11 0 0 1 2.21.27z" fill="url(#a)"/></svg>