<svg height="22.77" viewBox="0 0 1030.98 22.77" width="1030.98" xmlns="http://www.w3.org/2000/svg" xmlns:xlink="http://www.w3.org/1999/xlink"><linearGradient id="a" gradientUnits="userSpaceOnUse" x1="676.8" x2="676.98" y1="5.07" y2="4.89"><stop offset="0" stop-color="#dedede"/><stop offset="1" stop-color="#dadada"/></linearGradient><linearGradient id="b" x1="815.06" x2="815.09" xlink:href="#a" y1="16.82" y2="16.79"/><linearGradient id="c" x1="257.56" x2="774.71" xlink:href="#a" y1="269.53" y2="-247.61"/><linearGradient id="d" x1="745.38" x2="745.5" xlink:href="#a" y1="10.46" y2="10.34"/><linearGradient id="e" x1="316.55" x2="317.87" xlink:href="#a" y1="15.99" y2="14.67"/><linearGradient id="f" x1="223.72" x2="225.57" xlink:href="#a" y1="14.35" y2="12.5"/><path d="m676.71 5h.35s-.16-.06-.35 0z" fill="url(#a)"/><path d="m815.2 16.93a1.25 1.25 0 0 1 -.23-.27c.03.08.08.17.23.27z" fill="url(#b)"/><path d="m1030.9 21.14-.19-10.89h.27l-.17-1.76c-2.78-.48-4.34-2.37-7.46-3.08-.08.46-.15.91.27 1-.41.83-.82-.77-1-1.07-.37.31-1.36 0-1.19.86-.4-.41-.57-1-1.77-.82.47 1.49-.75-.16-1.25 1.51-.63-1-1.84-.45-2.51-.89-.14.69.2 1 1 1.07-.65 1-.83-.76-1.8-.49.21.35.81.41.64 1-2.14-1.48-6.91-2.76-9-2.48.09.38.56.88.7.39 0 1.6-3.78 1.78-5.07 2.37-.28-2.09-6-.45-8.84-.51-.52 0-1-.74-1-.75s-4.06 1.87-5.2.16c.19 1.09-4.94-.12-4.37-.74-1.14-.27-.92.91-2.26.43.26.51 1.14.58 1.77.82-3.43 1-5.76-.78-7.94-2a.91.91 0 0 0 -.83.9c-.8 0 0-1.16-.21-1.65-1.1.85-2 .32-2.69 1-2.45-2.08-6.42-.91-7.61-1.7.28.49-1.36.56-.83.9-1.76.61-1.44-1-3.6-1-.82.15.59 1.14 1 1.4.05.81-2-1.63-3.54-1.64-.91.21.74 1 .18 2-1.89-1.25-.66-1.34-2-2.47-.51.06-.38.78-.49 1.26-1.6-1.39-3.22-2.2-4.74-.77-.22-1.95-1.64 2.48-1.31.63-1.21.94-1.9-2.13-2.72-1-.76-.23-.23.58 0 .84-1.55 1-3.8-1.87-4.24.39.19-1.27-.52-.8-1.93-.71-.58 0-.3-.55-.12-.82-.8-.31-.66.77-1.69.61-1.84 1-3.84-.29-5.68-1-.93.14.6.92.21 1.65-.14-.62-1.74-1.38-1.49.18-.86 0-.32-1-1-1.07s-2 2-2.23.11c-.69 0-.34 1.08-.86 1.23-1.24-.26.73-1.72-.21-1.65-1.49-.24-.26.65-.5 1.25-.26-1.29-3.11.13-2.1-1.18-1.19.29-2.07 1.13-3.36.34.82.73.31.54.57 1.68-1.27-.46-1.81.53-3.27-.63-.67.58 0 .41-.13 1.29-1.67.52-6.66-2.1-7-.34-1.72.31-4-1.33-5.54-.2-1.16-1.45-3.18 0-5.07-1.13-.13.54.55.89-.09 1-1.29-.17-.06-.49-.61-1.36-2.72.26-.53-.51-3.27-.63 0 .38.65.33 1.07.42-3 .38-3.2-.34-5.1-.82-.79-.12-.28 1.14-.53 1.59-.77.39-5-.94-3.72.29-.87.94-3.66-2.1-4.1.26-.77-1.21-2.56-.48-1.69.48a10.78 10.78 0 0 0 -6.78-1c.2.35.81.41.63 1-.85.62-2.06 0-2.53-.57-.55 1 1.16.36.6 1.36-1.38.01-3.31-.54-3.38.75-1-.71-.44-1.44-1.71-1.46-.9.11 1.17.74-.12 1.29-.73-2.19-5.81-.79-8.17.21 1.55 1.74-2.42 0-4.48.08.11.16.24 2.15.52 2.15a5.22 5.22 0 0 1 -2.81-2.35c-1.29 0 .5-.58-.51-.82-.78-1-2.75 2.67-2.74 3-1-.23-.85-1.07-1.23-.55-2.25-1.81-6.6-.23-7.34-1.8-.57.23-.66-1.08-.92-.53-1.56 0-2-.76-3.24-1-2.05 2-5.78 0-7.52 1.24.72.73 1.77 1.23 1.67 1.78-.67.85-1.3-.83-2.14-.85a1 1 0 0 0 1 .75 8.19 8.19 0 0 1 -3.36.33c.05-.84-1.67-.62-.61-1.36-.64.09-3.44-.19-1.9.47-.36.72-1.71-.33-1.77-.82a1.41 1.41 0 0 0 -.86 1.23c-1.13-.84-2.32.39-3.3-.32-.43-.14-1.35.81-.46.93-.58.69-1.16-1.13-1.71-1.46-1.15 0-1.11 1.18-2.66.72 0 .32.43.3.7.4-1.23-.16-2.83 1.25-3.63-.67-1.17.39.34 1.3-1.32 2.15 1.3 0 1.24-.26 2.2.21-3.38.69-5.61-2.43-7.88-2.7-.59 0-.15.66.42.94-2.1-.54-6.11-2.36-5.68-.14-2.72-1.21-4.64.15-8-1.73.16 1-2-.06-3 .37 1.48.75.42.86-.19 1.93.05-1.14-2.42-.18-3.67-.35-3-.38-6.28-1.84-8.74-1.48-.53.28.11.55-.83.9-3.26-2-5.59.34-7.83.56.24 0-.57-1.16-2.16-.53-2.88 1.16-8.15.08-12.5-.86-1.26-.13-2.92 1.15-4.07-.06.34 1-1.7-.09-1.16.54-1.08.23-3.28-1.64-3.7 0-.72-2-2.79-.87-4.31-1.38 1.5.49-1 1.06.48 1.33a50.73 50.73 0 0 1 -8.88-2.46c-1.14.8-2.68 1-2.79 2-.76-.16 0-1.43-.58-1.69-.92-.46-1.67.85-1.43-.45-.42.4-2 1-.1 1-1.16.85-3.15-.57-4.06-.06-.15.42.07.57.39.66-3.2-.73-5.28 1.38-10.85.3-.58-.11.38-.58-.3-.68-1.42-.55-.86 1-2.27.44.23 1 .52.41 1.44.46-1.3 1.89-4.43-.67-6.57-1-1.65.45-1.15 1-2 2.09-3 0-6.72.53-10.92-.51-.42-.11-1.27.25-1.49.18a10.14 10.14 0 0 1 -1.43-.69 8.12 8.12 0 0 0 .69.62c-1.65-.84-4.72-1.71-7.08-3.27-1.28.17-2.06.87-3.44.93.31.26-1.33 1.91-1.27 1.87-.25.16-1.1-.11-1.1-.1a3.76 3.76 0 0 0 -.43.27 1 1 0 0 0 -.31-.34c-.6-.47-3.68.4-2.33 1.08-4.65-1.1-7.55-.61-12.33-2.68-.24.44 1.35.92.26 1-2.44-2.89-6.48.88-9.1-1.51-.44 0-.37.55-.46.93-.63-1.41-1.58-.71-3.21-1.28-.78 0 .43 1 .61 1.36-1.27.08-2.07-1.28-3.54-1.64-2.61 1-5.31.41-8.53.17-.16.47-.55.53-1.23 1.18-1.81-1-1.77.25-2.62.4-4.81-.93-16.1-2.85-21.07-.36-.46-.11-1.7-1.11-1.8-.5-.52-.19.06-.28.06-.64l-11.34-1.4c-.67.65-2-.25-1.22 1.18-3.09-1.71-5.28.64-8-1.08-.79-.22-2.11.77-1.22 1.18-1.68.31-3.65-1.75-5.31-2.45-.69.23-.6 1.26-1.93.79a2.7 2.7 0 0 0 1 .75c-.27.17-3.67-1.19-2.77-1.9a2.55 2.55 0 0 1 -2.57-.24c-.66 1.18 1.63.22 1 1.4-.38-.42-2.72-1.1-2.26.43-1.59-1.23-5.92-1.51-7.21-2-2.67-1.08-4.86-.31-7.93 1.23 0 .31.42.29.7.39-3.41.61-3.81 3.47-7.63 3.61.2.46.73.68 1.41.79.56.81-2.23-.4-2.51-.89-.71.62-1.32.44-.89 1.54-.74-.17-.63-.94-1.37-1.1-.56.08.11.42-.1 1-3.08-.21-10.86-2.67-10.42.64-3.67-.47-5.77.79-8.6.82a.76.76 0 0 1 .73-.55c-2-.34-3.79-2.48-6.68-2.95-3.11-.51-7.94 2.06-9.46-1.55a2.33 2.33 0 0 1 -1.5.19c-.22-.64-1.08-.33-.28-1-1.32-.2-3.5.7-5.16-.16-1.29 2.23-6.32-.3-7.19 1.6-.61-.69-3.45-2.74-4-.71-.31-1.5-6-.93-2.66.73-.61.13-2.38-1.47-3.11-2.25-1.26.17-.11.71-.85 1.22-.5-1.43-.89.56-2.88-.93.09.73-1.79.75-2 2.09-1.67-1.43-1.9-.59-4.31-1.39-.61 1.07-5 2.73-6.73.67-4.62 2.09-10.44.19-15.26-1.38-2.16-.16-4.8 2.61-7.8 1.23a.33.33 0 0 0 -.06.65c-2.69 0-7.89-.51-9.42 1.71-2.26-2.02-10.9-.18-13.9-1.97l-18.42 3.14c-4.32-2.13-10.33-1.58-13.06 1a1.4 1.4 0 0 0 .48-.89c-3.43.54-7.85 1.15-11.31 2.62h-.56c-1.5-2.29-5.73-1.22-7.72-2.85-1.94 2.2-9.89 1.9-14.13.62-.28 1.61-4.59-.12-6.36.69.25-.6-5.66-1.46-7.34-.69-.08-.56.35-.58.8-.58-3.89-1.47-6.35-1.44-10.17-1.94a1.66 1.66 0 0 1 .24 1.33c-.33-1.17-3.54-2-3.27-.64-.73-.07-.38-.92-1.4-.78-.71.91-2.18 1-2.79 2a22.11 22.11 0 0 1 -2.51-.89c-.95 0 .45.61-.13 1.3-3.41-.34-7.24-2.39-8.06-.77-.72-.1-1.2-.46-2.27.44 0-.33.07-.65.1-1-2.1 2.41-5.37 0-9-.22-.43 0-.37.56-.46.93-4.67-.91-6 .57-9.54-.9-.48-.12-.33.62.11.93-3.29-.7-6.37.22-9.46.13-.2.94.73 1.07.54 2-.71.55-1.06-.23-1.81-.49.14.31.27.61.67.71-.22 1.25-2.88-5.88-3.06-4-2.75-1-6.06 5-9.4 3.3-2.74 1.14-6.65.17-9.54-.9-1.72 1.33-4.51-3.85-5.32-4-.74 1.86-2.48 1-3.65 3.24-.44-2.24-3.09-.39-3.54-1.64-.44 0-.37.55-.47.93-3.68-1.72-7.06-.74-10.47-2.62-1.85 1.83-3.44.51-6 .73-.13.7.2 1.06 1 1.08-1 .88-4.79-.69-1.1-.11a1.91 1.91 0 0 1 -.21-1.65c-.68 0-.33 1.07-.86 1.22-1-2-3.93-1.47-6.14-1.56.51.43.81 1 1.74 1.15-4-.31-8.39-1.26-12.6.11-.51-.33-1.11-.6-1-1.4-.49.63-1.34 1.84-2.21 1.19.5.46-.61.66.16.9-2.16-.8-3.05 1.38-6.34.37-.58.12-.05.34.34.36-5 3-13.76-4.64-20.6-1.3-2.72-1.07-5.76-.06-8.4-1.12 1.22 1.79-4.14-1.39-6 .73.38-1-.68-.56-.73-.07-.51-.16 0-.57.43-.61a2.64 2.64 0 0 0 -1-.75c-.16.4-.59 1.13-2.3.76.39.42.31 1.18.18 2-.6 1-.25-1.18-.21-1.65-4.74-1.75-6.81 1.69-9.72 1-.34.85.69.7 1 1.08a1.74 1.74 0 0 1 -2.27.43c.18-.49.62.35.76-.25 0-.36-.7-.29-.66-.71-1.94.81-2.62.74-4.83.19a3.09 3.09 0 0 0 -1.3 1.83c-1.64-.11.41-.8.16-1.62-1.75 1.87-3.07.2-4.35 2.85-.45-.46-.64-1-1.1-.1-.53-.2.19-.4.1-1-1.21-.22-.56 1.55-2.3.76 0 .6 1.22.31 1.4.78.71 1.09-2.1-1.26-2.57-.24-.48-.15-.22-.84-.24-1.33-.35.15-.64.84-.76.26-.56.08.1.42-.09 1-.7-.21-.17-1.28-1.37-1.11-.89 0 .32.91.63 1-.62 0-2.47-1.6-2.68-2.85-.5.65-1.79.46-2 1.43-.54-.54.47-1.58-1.31-1.75-.27.89-.38-.15-.83.9-.32-1-1.44 0-.64-1-.72-.17-1.15 0-1.16.54a15.87 15.87 0 0 1 -1.71-1.46c-1.51.26-2 1.11-3.73.3-.4 1.38.76-.19.67.71-1.55 1.49-3.93.18-4.65 2.17-4.11-1.66-10.71-1-12.18-4.09-.51 0-.38.78-.5 1.26a6.46 6.46 0 0 0 -3.1-1.92c1.95 1.27-2.71.2-2.9-.6-.51 0-.39.78-.5 1.26-.85-.25-1.78-1.57-4-.71-.42-.09-.24-.62-.27-1-.69.9-4.8-1.25-6.32.38a25.75 25.75 0 0 1 -2-1.83 2.34 2.34 0 0 0 -.84.9c2.76.23-.75 1.54.84 2.69-.71.4-1.78-1.49-2-2.47a9 9 0 0 0 -2.1 2.38 9.21 9.21 0 0 1 -7.08-3.26c-1.64-.26-2.59.9-4.43-.1a3.74 3.74 0 0 0 0 3.59c.2.87-1.1-1.87-1.62-2.43-.53.87-2 .46-2.29.75-.42-.08-.25-.61-.27-1-.82-.18-1.39-.06-1.53.5-.47-.14-.23-.82-.23-1.31a1.8 1.8 0 0 0 -1.2.86c-.46-.7-2.3-1.72-1.8.15-1.36.08-.3-1.58-1.31-1.75-1.23.4 1.17 1.33-.19 1.93-.37-.27 0-1-.57-1.68-.5.06-.64.52-1.17.54-.22.76 1.69 0 1 1.07-.68-.78-1.2.17-1.79-.5.91 1.27.07.91-.23 2.26-.08-1.84-4.22-1.49-3.27-.63-.57.53-1.1-1.5-1.73-1.14-.57.09.1.42-.1 1-.81.07-1.46-2.12-1.8-.5-.43-.09-.25-.62-.27-1-.44 0-.37.55-.47.93a6.9 6.9 0 0 0 -1.75-1.49c-.51 0-.38.77-.5 1.25-.42-.1-.25-.62-.27-1-1.09.18-.45.44-.49 1.25-1.29-.17-.72 1.33-2.44 1.47 1 1.76 0 .14-1.56.83 1-1.2-.59.31-.28-1-.81.9-2.08 2.34-4.06 2.41-4.87-2.49-10.1 3.78-12.7 1.09l-10.23-1.27c-6.33-.27-12.02-4.72-19.82-4.23-1 0 .45.6-.13 1.28-.77-.44-1.11-1.19-2.07-1.49-.19.84 1.4.39 1 1.4a16.15 16.15 0 0 1 -3.8-.64l.34 7.78h-.27v2.14c3.93-.06 5.4 2.34 9.08 3.18.06-.46.14-.91-.27-1 .4-.84.8.76 1 1.07.36-.31 1.35 0 1.19-.87.4.42.58 1 1.77.83-.46-1.49.74.16 1.25-1.52.62 1 1.83.45 2.51.89.14-.69-.19-1.05-1-1.07.66-1 .83.76 1.82.5-.22-.35-.83-.42-.66-1 2.16 1.49 6.92 2.76 9 2.48-.1-.38-.57-.87-.7-.39 0-1.6 3.78 1.72 5.08 1.13-.48-3.45 6.73.47 8.82.51.53 0 1 .75 1 .75s4.05-1.86 5.19-.16c-.19-1.09 5 .12 4.37.74 1.14.27.93-.91 2.27-.43-.27-.51-1.14-.58-1.78-.82 3.43-1 5.76.78 7.94 2.06a.93.93 0 0 0 .84-.9c.81 0 0 1.15.2 1.65 1.11-.86 2-.32 2.7-1 2.45 2.07 6.42.9 7.6 1.7-.27-.5 1.36-.56.83-.9 1.77-.61 1.45 1 3.61 1 .82-.14-.59-1.14-1-1.4 0-.81 2 1.63 3.54 1.64.92-.21-.73-1-.17-2 1.88 1.25.65 1.33 2 2.47.51-.05.38-.78.5-1.26 1.58 1.39 3.21 2.2 4.74.78.2 1.94 1.65-.42 1.32 1.43 1.21-.93 1.88.07 2.7-1 1.07.32-.42.66-.13 1.29 1.54-1.13 3.88-.2 4.32-2.52-.18 1.28.54 2.87 2 2.79 1 0-.45-.61.12-1.29.81.32.68 1.31 1.72 1.47 1.84-1 3.81-1.79 5.65-1.1.94-.13-.59-.92-.21-1.65.15.63 1.75 1.38 1.5-.18.86 0 .33 1 1 1.08s2-2 2.23-.12c.69 0 .35-1.07.87-1.23 1.24.26-.73 1.73.22 1.66 1.47.23.26-.66.49-1.26.27 1.3 3.11-.13 2.09 1.18 1.2-.29 2.07-1.12 3.37-.33-.83-.73-.32-.55-.58-1.69 1.27.47 1.82-.53 3.27.63.68-.58 0-.41.13-1.28 1.67-.53 6.67 2.09 7 .33 1.73-.31 4 1.34 5.53.2 1.16 1.45 3.2 0 5.07 1.14.14-.55-.54-.9.1-1 1.3.16 0 .47.61 1.36 2.72-.27.53.5 3.26.63 0-.38-.64-.34-1.07-.43 3.06-.38 3.2.34 5.11.82.79.13.28-1.13.52-1.58.78-.39 5 .93 3.73-.3.88-.94 3.66 2.11 4.11-.27.76 1.22 2.54.49 1.68-.47a10.75 10.75 0 0 0 6.77.95c-.19-.35-.8-.41-.63-1a2.08 2.08 0 0 1 2.54.56c.55-1-1.17-.36-.6-1.36 1.38.06 3.27.64 3.38-.65 1 .71.45 1.44 1.71 1.46.92-.11-1.17-.74.14-1.29.71 2.18 5.79.79 8.15-.2-1.57-1.78 2.57-1.45 4.59-1.52-.13-.3-.26-.61-.67-.72.93.18 2.36 0 2.88.93 1.29 0-.53-1.5.48-1.26.86 1.13 3.15.08 2.69.47 1.1.22.91 1.08 1.29.56 2.24 1.81 6.62-1.19 7.38.37.56-.22.62-1 .87-1.54 1.56 0 2 .76 3.24 1 2.05-2 5.78 0 7.53-1.24-.72-.74-1.77-1.24-1.66-1.79.66-.85 1.29.83 2.12.85a1 1 0 0 0 -1-.75 8.38 8.38 0 0 1 3.37-.33c0 .84 1.66.63.61 1.36.64-.09 3.44.19 1.89-.47.36-.71 1.71.33 1.78.82a1.34 1.34 0 0 0 .85-1.23c1.15.84 2.33-.39 3.31.32.43.14 1.36-.81.45-.93.58-.69 1.18 1.13 1.71 1.46 1.16.05 1.12-1.18 2.68-.72 0-.32-.44-.29-.71-.39 1.24.15 2.82-1.25 3.63.67 1.17-.4-.35-1.3 1.32-2.16-1.3 0-1.23.26-2.2-.21 3.38-.68 5.61 2.44 7.88 2.71.6 0 .14-.66-.43-.95 2.11.54 6.12 2.36 5.69.14 2.71 1.21 4.63-.15 8 1.74-.16-1 2 .06 3-.38-1.48-.75-.42-.86.2-1.93-.07 1.14 2.4.18 3.66.35 3 .39 6.27 1.84 8.73 1.48.54-.28-.1-.55.84-.9 3.26 2 5.58-.34 7.82-.56-.23 0 .58 1.17 2.18.53 2.87-1.16 8.14-.07 12.5.86 1.25.13 2.9-1.14 4.06.06-.35-1 1.71.09 1.16-.54 1.07-.23 3.28 1.65 3.7 0 .71 2 2.79.88 4.3 1.39-1.48-.5 1-1.07-.46-1.34a52 52 0 0 1 8.8 2.29c1.14-.79 2.68-1 2.78-2 .76.15 0 1.42.59 1.68.91.47 1.67-.85 1.42.46.43-.41 2.05-1 .1-1 1.16-.85 3.16.57 4.07.06a.42.42 0 0 0 -.24-.61c3.11.61 5.22-1.41 10.69-.35.58.11-.38.58.31.68 1.42.55.85-1 2.26-.43-.22-1-.51-.42-1.43-.47 1.29-1.89 4.43.67 6.58.95 1.64-.45 1.14-1 2-2.09 3 0 6.72 1 10.91 2 .42.11 1.29-.24 1.5-.18a11.07 11.07 0 0 1 1.42.69 8.24 8.24 0 0 0 -.69-.62c1.66.85 4.73-3.29 7.09-1.72 1.25-.18 2-.87 3.4-.93 0 .22 1.37 3.08 1.32 3.12.25-.16 1.08.1 1.09.1a2.74 2.74 0 0 0 .43-.27.87.87 0 0 0 .3.34c.6.47 3.69-.4 2.33-1.08 4.65 1.18 7.53-4.31 12.31-2.21.24-.44-1.35-.92-.27-1 2.45 2.9 6.49-1.39 9.1 1 .45 0 .37-.57.48-.94.61 1.41 1.56.71 3.19 1.28.8 0-.42-1-.6-1.35 1.27-.09 2.06 1.27 3.54 1.63 2.62-1 5.31-.4 8.52-.17.16-.47.55-.53 1.23-1.18 1.81 1.06 1.77-.25 2.64-.4 4.8.94 16.08 2.86 21.06.36.45.11 1.7 1.11 1.8.5.52.19-.07.28-.07.64l11.38 1.51c.68-.66 2 .25 1.23-1.19 3.09 1.72 5.27-.64 8 1.09.81.21 2.12-.78 1.23-1.19 1.67-.3 3.64 1.75 5.31 2.46.68-.23.6-1.27 1.93-.8a2.74 2.74 0 0 0 -1-.75c.27-.17 3.67 1.19 2.78 1.9a2.55 2.55 0 0 1 2.57.24c.65-1.18-1.64-.22-1-1.4.36.42 2.71 1.1 2.26-.43 1.57 1.23 5.91 1.52 7.19 2 2.63 1.07 4.88.3 7.89-1.2 0-.32-.42-.29-.7-.4 3.42-.64 3.82 1.51 7.65 1.38-.2-.45-.73-.67-1.41-.78-.57-.82 2.23.39 2.5.88.72-.62 1.33-.43.89-1.54.75.16.64.94 1.38 1.11.55-.1-.11-.42.1-1 3.08.21 10.85 2.68 10.42-.64 3.66.47 5.76-.79 8.6-.81a.79.79 0 0 1 -.74.55c2 .34 6.68 2.94 6.68 2.94s7.95-2.06 9.47 1.55a2.26 2.26 0 0 1 1.5-.18c.21.63 1.08.32.27 1 1.32.2 3.51-.69 5.17.16 1.28-2.23 6.31.3 7.19-1.59.6.68 3.46 2.74 4 .7.31 1.51 6 .93 2.66-.72.62-.14 2.39 1.46 3.11 2.25 1.26-.18.12-.72.86-1.23.49 1.43.88-.57 2.87.93-.07-.73 1.79-.74 2.06-2.09 1.67 1.43 1.9.6 4.31 1.39.6-1.07 5-2.73 6.72-.67 4.55-2.15 10.38-1.72 15.2-.18 2.17.15 4.8-1.61 7.79-.24a.33.33 0 0 0 .07-.65l23.3-4.74c6.16-.68 10.61 2 18.25 3.8 1.08-.75.5-1.06.19-1.94 4.32 2.14 10.33 1.58 13.06-1a1.38 1.38 0 0 0 -.46.93c3.57-.56 8.23-1.19 11.75-2.79 1.38 2.53 5.8 1.35 7.84 3 1.94-2.2 9.88-1.89 14.13-.61.27-1.62 4.58.11 6.35-.7-.25.6 5.66 1.45 7.34.69.08.56-.34.58-.8.58 3.89 1.47 6.35 1.44 10.18 1.94a1.66 1.66 0 0 1 -.24-1.33c.32 1.17 3.54 2 3.27.64.73.07.39.92 1.4.79.7-.92 2.18-1 2.79-2a25.12 25.12 0 0 1 2.51.89c1 0-.44-.6.13-1.29 3.41.33 7.24 2.39 8.07.77.73.09 1.2.44 2.26-.45l-.09 1c2.1-2.41 5.36-1 9-.78.43 0 .37-.55.46-.93 4.67.9 6-.56 9.53.91.48.11.33-.63-.1-.94 3.28.7 6.36-.22 9.46-.13.19-.94-.73-1.07-.54-2 .71-.53 1.06.24 1.81.5-.14-.3-.27-.61-.68-.71.2-1.13 2.41.5 3-.61h1.26a63.11 63.11 0 0 1 8.22 3.14c2.73-1.14 6.64-.16 9.53.91a8.08 8.08 0 0 1 5.32-1.46c.74-1.86 2.52 3.11 3.7.92.43 2.23 3.09.38 3.54 1.64.43 0 .37-.56.46-.94 3.68 1.72 7-3.41 10.43-1.53 1.85-1.83 3.5 3.65 6 3.42.14-.7-.2-1.06-1-1.07 1-.89 4.79.68 1.1.1a2 2 0 0 1 .21 1.65c.68 0 .33-1.07.86-1.22 1 1.94 3.73-2.43 5.91-2.58-.39.39-.68 3-1.46 3 4 .31 8.36 1.24 12.54-.12.41.27.86-2.19.93-2.74.47-.61 1.3 1.73 2.14 2.79-.11-.35.61-.52 0-.73 2.15.8 3-1.39 6.33-.38.58-.12.06-.33-.33-.35 5-3 13.77 4.63 20.6 1.3 2.72 1.06 5.75.06 8.4 1.12-1.21-1.8 4.14 1.38 6-.74-.37 1 .68.56.74.07.5.16 0 .57-.44.61a2.71 2.71 0 0 0 1 .75c.16-.4.59-1.13 2.3-.76-.39-.42-.3-1.18-.17-2 .6-1 .24 1.18.2 1.65 4.74 1.75 6.82-1.69 9.73-1 .33-.84-.7-.7-1-1.07a1.75 1.75 0 0 1 2.27-.44c-.18.49-.61-.34-.77.25.05.36.71.29.67.72 1.93-.81 2.61-.74 4.83-.2a3 3 0 0 0 1.29-1.83c1.64.11-.4.8-.15 1.61 1.75-1.86 3.07-.19 4.35-2.84.45.46.63 1 1.1.1.53.2-.18.4-.1 1 1.2.23.56-1.54 2.29-.75 0-.61-1.22-.32-1.39-.79-.72-1.09 2.09 1.26 2.56.24.49.15.22.84.24 1.33.35-.15.64-.85.77-.26.55-.08-.11-.42.09-1 .69.2.17 1.28 1.37 1.1.87 0-.3-.89-.63-1a4.53 4.53 0 0 1 2.67 2.87c.51-.65 1.79-.47 2-1.44.54.54-.48 1.58 1.3 1.75.28-.89.38.16.83-.9.33 1 1.45.06.64 1 .73.17 1.16 0 1.16-.54a15.11 15.11 0 0 1 1.71 1.46c1.52-.26 2-3.11 3.73-2.29.41-1.39-.75.19-.67-.72 1.55-1.5 3.94-.18 4.65-2.16 4.11 1.65 10.71 1 12.19 4.08.5-.05.39-.78.49-1.26a6.42 6.42 0 0 0 3.15 1.85c-2-1.26 2.71-.21 2.9.6.5-.05.38-.78.49-1.26.86.25 1.79 1.58 4 .71.43.1.26.62.27 1 .69-.9 4.81 1.25 6.34-.37a25.24 25.24 0 0 1 2 1.82 2.25 2.25 0 0 0 .83-.9c-2.76-.23.75-1.54-.84-2.69.71-.4 1.79 1.5 2 2.47a8.75 8.75 0 0 0 2.08-2.4 9.17 9.17 0 0 1 7.08 3.27c1.65.25 2.61-.9 4.44.1a3.74 3.74 0 0 0 0-3.59c-.2-.87 1.11 1.88 1.62 2.43.53-.87 2-.46 2.29-.75.43.09.27.61.27 1 .83.17 1.39 0 1.54-.51.49.15.23.83.24 1.32a1.75 1.75 0 0 0 1.19-.86c.48.7 2.32 1.72 1.86-.15 1.36-.08.31 1.58 1.32 1.75 1.22-.4-1.18-1.32.19-1.93.36.27-.06 1 .57 1.68.49-.07.63-.51 1.16-.54.23-.76-1.68 0-1-1.07.7.78 1.21-.17 1.8.49-.92-1.25-.08-.91.22-2.25.08 1.84 4.23 1.49 3.27.63.57-.52 1.11 1.5 1.74 1.15.56-.09-.1-.43.1-1 .8-.08 1.45 2.11 1.8.49.42.1.25.62.27 1 .44 0 .37-.56.46-.93a7.62 7.62 0 0 0 1.71 1.46c.51-.05.38-.78.5-1.26.42.1.24.62.26 1 1.09-.18.46-.45.5-1.26 1.28.17.72 1.67 2.43 1.53-1-1.76 0-.14 1.57-.82-1 1.19.58-.31.27 1 .87-.9 2.09.16 4.06.07 4.88 2.49 10.11-1.28 12.72 1.4a118.68 118.68 0 0 1 12.75 1.87c-.09-.74-1.79-.3-2.54-.57 6.33.27 12 1.72 19.87 1.23 1 0-.44-.6.13-1.28.77.44 1.11 1.19 2.08 1.49.19-.83-1.41-.39-1-1.39a10.1 10.1 0 0 1 2.09.3z" fill="url(#c)"/><path d="m745.34 10.42h.23l-.22-.08s-.01.05-.01.08z" fill="url(#d)"/><path d="m316.75 15.59c0-.2 0-.38-.34-.36-.12 1.75 1.46.5 1.87-.15-1.12-.47-.94.42-1.53.51z" fill="url(#e)"/><path d="m224.89 12.42c.2 1.23-1.64-.1-2.2-.21-.41 1 .48 1 .58 1.69 1.13.27 1.85-.6 1.06.42.93 0 1.09.62 1.77.82.1-1.2-.44-1.09.53-1.57-1.63-.51-.77-.13-1.74-1.15z" fill="url(#f)"/></svg>