<svg height="16.98" viewBox="0 0 592.62 16.98" width="592.62" xmlns="http://www.w3.org/2000/svg" xmlns:xlink="http://www.w3.org/1999/xlink"><linearGradient id="a" gradientUnits="userSpaceOnUse" x1="454.13" x2="454.48" y1=".02" y2=".02"><stop offset="0" stop-color="#bdbdbd"/><stop offset="1" stop-color="#d7dae2"/></linearGradient><linearGradient id="b" x1="592.38" x2="592.62" xlink:href="#a" y1="16.84" y2="16.84"/><linearGradient id="c" x1="522.75" x2="522.99" xlink:href="#a" y1="10.43" y2="10.43"/><linearGradient id="d" x1="93.82" x2="95.7" xlink:href="#a" y1="15.58" y2="15.58"/><linearGradient id="e" x1="0" x2="4.05" xlink:href="#a" y1="13.72" y2="13.72"/><path d="m454.13 0h.35c-.05 0-.16 0-.35 0z" fill="url(#a)"/><path d="m592.62 17a1.64 1.64 0 0 1 -.24-.27.51.51 0 0 0 .24.27z" fill="url(#b)"/><path d="m522.75 10.47h.25l-.22-.08a.24.24 0 0 1 -.03.08z" fill="url(#c)"/><path d="m94.16 15.64c0-.2 0-.38-.33-.36-.12 1.75 1.45.5 1.87-.15-1.12-.47-.94.42-1.54.51z" fill="url(#d)"/><path d="m2.31 12.47c.2 1.23-1.65-.1-2.2-.21-.42 1 .48 1.05.58 1.68 1.12.27 1.85-.59 1.06.43.92 0 1.09.61 1.77.82.09-1.21-.44-1.09.53-1.57-1.69-.51-.78-.13-1.74-1.15z" fill="url(#e)"/></svg>