<svg height="24.23" viewBox="0 0 1031.57 24.23" width="1031.57" xmlns="http://www.w3.org/2000/svg" xmlns:xlink="http://www.w3.org/1999/xlink"><linearGradient id="a" gradientTransform="matrix(-1 0 0 -1 1021.39 612.62)" gradientUnits="userSpaceOnUse" x1="81.77" x2="81.66" y1="608.36" y2="608.36"><stop offset="0" stop-color="#bdbdbd"/><stop offset="1" stop-color="#d7dae2"/></linearGradient><linearGradient id="b" x1="344.19" x2="343.84" xlink:href="#a" y1="611.57" y2="611.57"/><linearGradient id="c" x1="999.09" x2="997.1" xlink:href="#a" y1="606.13" y2="606.13"/><linearGradient id="d" x1="997.1" x2="996.56" xlink:href="#a" y1="605.86" y2="605.86"/><linearGradient id="e" x1="306.68" x2="304.81" xlink:href="#a" y1="609.8" y2="609.8"/><linearGradient id="f" x1="214.97" x2="210.93" xlink:href="#a" y1="605.85" y2="605.85"/><linearGradient id="g" x1="205.82" x2="205.58" xlink:href="#a" y1="594.59" y2="594.59"/><linearGradient id="h" x1="665.79" x2="665.44" xlink:href="#a" y1="594.19" y2="594.19"/><linearGradient id="i" x1="1021.39" x2="-10.18" xlink:href="#a" y1="600.51" y2="600.51"/><linearGradient id="j" x1="800.35" x2="800.02" xlink:href="#a" y1="594.18" y2="594.18"/><linearGradient id="k" x1="862.38" x2="861.97" xlink:href="#a" y1="591.05" y2="591.05"/><linearGradient id="l" x1="861.97" x2="861.55" xlink:href="#a" y1="590.37" y2="590.37"/><linearGradient id="m" x1="704.82" x2="702.94" xlink:href="#a" y1="595.96" y2="595.96"/><path d="m939.62 4.34c.19-.23.11-.17 0 0z" fill="url(#a)"/><path d="m677.2 1.07h.35c-.06-.07-.17-.07-.35 0z" fill="url(#b)"/><path d="m24.29 6.72c-.63-.16-1.28-.32-2-.46 0 .31.35.41.77.45s.84-.01 1.23.01z" fill="url(#c)"/><path d="m24.83 6.8a2.05 2.05 0 0 0 -.54-.08l.22.06z" fill="url(#d)"/><path d="m716.24 2.76c0 .2 0 .39.33.35.15-1.74-1.44-.48-1.86.17 1.11.47.94-.43 1.53-.52z" fill="url(#e)"/><path d="m808.15 8c-.18-1.22 1.64.08 2.19.19.43-1-.46-1.05-.55-1.68-1.13-.26-1.86.61-1.07-.42-.91 0-1.07-.6-1.76-.8-.1 1.21.44 1.09-.54 1.58 1.68.52.77.13 1.73 1.13z" fill="url(#f)"/><path d="m815.81 18.18a1.68 1.68 0 0 1 -.24-.28.56.56 0 0 0 .24.28z" fill="url(#g)"/><path d="m356 18.42h-.35c.01.05.12.05.35 0z" fill="url(#h)"/><path d="m9 20.89c.08-.45.16-.9-.26-1 .42-.84.81.76 1 1.07.38-.32 1.37 0 1.21-.88.4.41.56 1 1.76.81-.45-1.49.75.15 1.28-1.53.6 1 1.82.43 2.49.86.15-.69-.18-1-1-1.06.67-1 .82.75 1.8.48-.21-.35-.81-.4-.63-1 2.13 1.47 6.88-2.31 9-2.6-.09-.39-.56-.88-.69-.39.04-1.65 3.77 1.65 5.04 1.05-.44-3.45 6.73.4 8.83.43.53 0 1 4.72 1 4.73s4.08-1.9 5.2-.21c-.18-1.08 4.95.07 4.37.7 1.13.25.94-.92 2.27-.46-.26-.5-1.13-.57-1.76-.8 3.44-1 5.75-4.27 7.92-3a.94.94 0 0 0 .84-.91c.8 0 0 1.16.19 1.65 1.11-.86 2-.34 2.71-1.08 2.43 2.05 6.41.84 7.59 1.63-.27-.5 1.37-.57.84-.91 1.78-.63 1.44 1 3.6.95.83-.14-.58-1.12-1-1.38 0-.81 2 1.61 3.52 1.6.93-.22-.72-1-.15-2 1.88 1.23.64 1.32 2 2.44.51-.05.4-.78.51-1.26 1.58 1.38 3.2 2.16 4.74.73.19 1.94 1.66-.43 1.32 1.42 1.21-.94 1.88 0 2.7-1.08 1.08.31-.42.66-.14 1.29 1.56-1.15 3.88-.24 4.36-2.56-.21 1.28.5 2.87 1.91 2.77 1 0-.44-.6.14-1.29.81.31.67 1.3 1.7 1.45 1.86-1 3.84-1.82 5.67-1.15.95-.15-.58-.92-.18-1.65.14.63 1.73 1.37 1.5-.19.85 0 .3 1 1 1.06s2-2 2.23-.14c.69 0 .35-1.07.88-1.23 1.23.25-.75 1.73.19 1.65 1.49.22.27-.66.51-1.26.26 1.3 3.12-.16 2.09 1.16 1.2-.3 2.08-1.14 3.37-.37-.82-.72-.31-.54-.56-1.68 1.27.46 1.83-.54 3.27.6.68-.59 0-.41.15-1.28 1.67-.55 6.64 2 7 .26 1.72-.33 4 1.3 5.53.15 1.15 1.44 3.19 0 5.07 1.08.13-.54-.54-.89.1-1 1.29.15.05.48.59 1.36 2.73-.3.53.49 3.27.6 0-.38-.64-.33-1.07-.42 3.06-.41 3.2.3 5.1.76.79.12.29-1.13.55-1.58.77-.4 5 .88 3.72-.34.89-.94 3.65 2.08 4.11-.3.75 1.21 2.55.46 1.7-.49a1.51 1.51 0 0 1 -.49-.39 2.39 2.39 0 0 1 .49.39 10.63 10.63 0 0 0 6.77.88c-.19-.34-.8-.4-.62-1 .63-.46 1.43 2.4 2 4.19 1.39.06 3.21.59 3.34-.68 1 .7.43 1.43 1.7 1.44.9-.11-1.17-.73.14-1.29.7 2.18 5.8.73 8.17-.28-1.55-1.76 2.58-1.47 4.61-1.57-.13-.3-.26-.6-.66-.7.92.17 2.36-.05 2.86.89 1.3 0-.5-1.48.51-1.25.83 1.11 3.14 0 2.68.43 1.1.21.88 1.08 1.28.55 2.23 1.79 6.64-1.26 7.37.3.58-.23.65-1 .91-1.55 1.56 0 2 .74 3.23.93 2.07-2.05 5.79 0 7.55-1.32-.72-.72-1.76-1.22-1.66-1.76.69-.86 1.3.81 2.13.82a1 1 0 0 0 -1-.73 8.35 8.35 0 0 1 3.37-.37c-.06.84 1.66.61.59 1.35.65-.09 3.44.16 1.91-.49.37-.71 1.7.32 1.76.81a1.4 1.4 0 0 0 .87-1.23c1.13.82 2.34-.42 3.31.28.43.13 1.36-.83.46-.94.6-.69 1.17 1.12 1.7 1.45 1.16 0 1.13-1.19 2.67-.75 0-.32-.42-.29-.69-.39 1.23.15 2.84-1.27 3.63.64a1.2 1.2 0 0 0 .23-.12 9.14 9.14 0 0 1 -.76 2.67 26.89 26.89 0 0 0 4.22-1.54 1.71 1.71 0 0 0 .6.32 3.44 3.44 0 0 0 0-.56 5.66 5.66 0 0 1 2.71-.5c.58 0 .15-.66-.42-.94 2.11.52 6.1 2.29 5.69.08 2.71 1.19 4.64-.19 8 1.66-.15-1 2 0 3-.4-1.48-.74-.42-.86.21-1.94-.07 1.14 2.42.16 3.67.31 3 .36 6.25 1.79 8.73 1.4.53-.29-.1-.55.83-.91 3.24 2 5.6-.39 7.85-.63-.24 0 .57 1.16 2.16.5 2.9-1.18 8.16-.15 12.5.74 1.25.12 2.93-1.17 4.07 0-.33-1 1.71.07 1.18-.55 1.07-.24 3.25 1.61 3.69 0 .7 2 2.79.85 4.3 1.35-1.49-.48 1-1.07-.43-1.33a50.47 50.47 0 0 1 8.83 2.37c1.15-.81 2.69-1 2.81-2 .76.14-.06 1.42.56 1.67.92.46 1.69-.86 1.43.45.43-.42 2.06-1 .1-1 1.18-.86 3.16.54 4.07 0 .13-.35 0-.51-.24-.61 3.12.59 5.24-1.46 10.72-.45.58.1-.39.58.3.67 1.41.54.86-1 2.27-.45-.21-1-.51-.41-1.43-.45 1.32-1.9 4.43.63 6.56.88 1.66-.46 1.17-1 2.09-2.1 3-.08 6.71.9 10.89 1.9.42.1 1.28-.26 1.5-.2 1 .3 2.22 1.35.74.06 1.64.83 4.71 1.67 7 3.21 1.27-.2 2.06-.89 3.44-1-.3-.26 1.37-1.92 1.31-1.88.25-.16 1.09.09 1.1.09a2.15 2.15 0 0 0 .42-.28c-.22-.43.55-.44 0 0a1.14 1.14 0 0 0 .31.34c.59.46 3.69-.44 2.34-1.1 4.65 1.13 7.53.61 12.29 2.67.25-.45-1.34-.91-.26-1 2.42 2.87 6.51-.95 9.1 1.42.44 0 .37-.56.47-.93.61 1.39 1.58.69 3.2 1.25.79 0-.42-1.05-.59-1.36 1.27-.1 2.05 1.26 3.52 1.61 2.63-1.05 5.32-.46 8.54-.26.16-.47.55-.53 1.24-1.19 1.8 1 1.77-.27 2.64-.43 4.8.89 16.07 2.7 21.08.16.45.1 1.69 1.09 1.79.48.52.18-.06.28-.07.64 5.07-.4 10.43 3.16 14.53 2.54a4 4 0 0 0 -2.53-.54c-.13-.3-.26-.61-.66-.71.68-.66 2 .23 1.23-1.2 3.08 1.69 5.29-.69 8 1 .79.21 2.13-.79 1.24-1.2 1.68-.32 3.63 1.72 5.29 2.4.68-.23.61-1.26 1.94-.81a2.63 2.63 0 0 0 -1-.73c.27-.18 3.65 1.15 2.75 1.86a2.55 2.55 0 0 1 2.57.22c.67-1.19-1.63-.21-1-1.39.38.41 2.72 1.07 2.27-.45 1.58 1.21 5.91 1.46 7.2 1.91 2.61 1 4.87-3.76 7.91-5.28 0-.32-.42-.29-.7-.39 3.43-.68 3.8 1.46 7.63 1.3-.19-.45-.72-.67-1.4-.77-.56-.81 2.23.37 2.5.86.72-.62 1.33-.45.91-1.55.74.16.62.94 1.36 1.09.56-.09-.1-.42.11-1 3.08.17 10.83 2.56 10.44-.74 3.67.43 5.78 3.15 8.61 3.1a.77.77 0 0 1 -.74.56c2 .31 3.78-1.58 6.66-1.13 3.1.48 8-2.13 9.46 1.45a2.32 2.32 0 0 1 1.5-.19c.21.63 1.07.31.26 1 1.32.19 3.52-.72 5.17.12 1.31-2.24 6.31.24 7.22-1.66.59.67 3.42 2.7 4 .66.3 1.5 6 .87 2.67-.75.62-.14 2.37 1.44 3.09 2.21 1.27-.18.12-.71.87-1.23.48 1.43.89-.57 2.87.9-.08-.72 1.8-.76 2.08-2.11 1.65 1.42 1.89.58 4.3 1.35.61-1.07 5-2.77 6.74-.73 4.58-2.2 10.4 2.17 15.21 3.66 2.16.13 4.82-1.65 7.8-.31a.33.33 0 0 0 .08-.65c2.68 0 7.89.44 9.44-1.8 2.24 2.05 10.91.07 13.87 1.83 6.18-.74 10.65-3.08 18.28-1.38 1.09-.75.51-1.06.21-1.94 4.3 2.1 10.33 1.48 13.09-1.16a1.4 1.4 0 0 0 -.48.93c3.59-.59 8.27-1.26 11.8-2.91 1.35 2.52 5.79 1.3 7.81 3 2-2.21 9.91-2 14.15-.76.3-1.61 4.59.08 6.37-.75-.25.61 5.65 1.4 7.34.62.07.56-.35.58-.81.58 3.88 1.44 6.34 1.38 10.17 1.84a1.6 1.6 0 0 1 -.23-1.32c.31 1.17 3.52 1.93 3.27.6.72.07.37.92 1.39.77.71-.92 2.19-1 2.82-2a25.81 25.81 0 0 1 2.49.87c.95 0-.44-.6.14-1.3 3.42.3 7.22 2.32 8.07.69a2.08 2.08 0 0 0 2.27-.46c0 .32-.07.65-.11 1 2.13-2.43 5.39-1.05 9-.87.44 0 .38-.56.47-.94 4.67.87 6 4.38 9.54 5.82.47.11.33-.63-.09-.93l-.54-.1a.6.6 0 0 1 .54.1c3.27.66 6.36-.29 9.46-.23.2-.94-.72-1.06-.51-2 .71-.54 1 .23 1.79.48-.13-.3-.26-.61-.66-.7.24-1.24 2.88.85 3.08-1 2.74 1 6.06-3.7 9.39-2 2.75-1.17 6.65-.23 9.53.81a8.27 8.27 0 0 1 5.39-1.66c.76-1.86 2.5 3.08 3.69.88.42 2.23 3.09.35 3.53 1.6.43 0 .37-.56.48-.93 3.66 1.68 7.06-3.48 10.45-1.63 1.88-1.85 3.45 3.6 6 3.35.14-.7-.19-1-1-1.06 1-.9 4.78.64 1.1.09a2 2 0 0 1 .19 1.65c.68 0 .34-1.07.87-1.23 1 1.93 3.77-2.48 6-2.63-.42.39-.73 3-1.51 3 4 .28 8.35 1.16 12.56-.23.4.27.88-2.2 1-2.76.46-.6 1.27 1.7 2.1 2.76-.08-.34.63-.52 0-.72 2.15.78 3.07-1.41 6.35-.44.58-.12.06-.33-.33-.35 5.07-3 13.72 4.5 20.6 1.1 2.71 1 5.76 0 8.4 1-1.21-1.79 4.12 1.34 6-.79-.38 1 .68.55.74.06.51.15 0 .57-.44.61a2.49 2.49 0 0 0 1 .74c.16-.4.6-1.14 2.31-.78-.38-.42-.29-1.18-.15-2 .61-1 .23 1.17.18 1.65 4.73 1.7 6.85-1.76 9.75-1.13.35-.85-.69-.69-1-1.06a1.76 1.76 0 0 1 2.28-.46c-.19.49-.61-.34-.77.26 0 .36.71.28.66.71 1.94-.83 2.62-.77 4.84-.24a3.23 3.23 0 0 0 1.31-1.85c1.64.1-.42.81-.18 1.62 1.78-1.88 3.08-.23 4.39-2.89.45.46.63 1.05 1.1.1.53.19-.19.4-.1 1 1.2.2.57-1.56 2.3-.79 0-.49-.77-.39-1.17-.57h.86c.61.27 1.27.46 1.48 0 .49.15.21.83.23 1.33.35-.16.65-.86.77-.27.56-.09-.1-.42.1-1 .69.2.16 1.28 1.36 1.1.88 0-.31-.91-.63-1 .63 0 2.47 1.58 2.66 2.83.51-.66 1.79-.49 2-1.46.53.54-.5 1.59 1.29 1.74.28-.89.37.15.84-.91.31 1 1.44.05.62 1 .73.16 1.15 0 1.17-.56a15.84 15.84 0 0 1 1.65 1.56c1.52-.28 2-1.13 3.73-.34.43-1.39-.76.2-.66-.7 1.57-1.51 3.94-.22 4.68-2.21 4.09 1.61 10.71.89 12.15 4 .51-.06.39-.78.51-1.26a6.25 6.25 0 0 0 3.12 1.89c-1.93-1.24 2.72-.23 2.9.58.51-.07.4-.78.51-1.26.85.23 1.77 1.55 4 .66.42.09.24.62.26 1 .7-.91 4.79 1.2 6.33-.44.87.62 1 .89 2 1.8a2.28 2.28 0 0 0 .84-.9c-2.77-.21.77-1.55-.81-2.68.71-.4 1.77 1.47 1.94 2.45a8.85 8.85 0 0 0 2.12-2.43 9 9 0 0 1 7 3.2c1.64.24 2.61-.92 4.44.06a3.75 3.75 0 0 0 0-3.58c-.19-.87 1.08 1.86 1.59 2.41.54-.88 2-.48 2.3-.78.43.09.25.61.26 1 .82.16 1.39 0 1.54-.52.49.14.22.83.22 1.32a1.85 1.85 0 0 0 1.21-.88c.47.7 2.3 1.7 1.87-.16 1.36-.09.28 1.57 1.29 1.73 1.23-.41-1.16-1.31.21-1.93.37.27-.06 1 .56 1.68.49-.08.64-.52 1.17-.56.23-.76-1.69 0-1-1.06.68.78 1.21-.18 1.79.48-.9-1.25-.07-.91.25-2.26.06 1.85 4.22 1.46 3.27.61.57-.53 1.09 1.48 1.72 1.12.57-.09-.1-.43.11-1 .8-.08 1.43 2.1 1.8.48.42.09.24.61.25 1 .44 0 .38-.56.48-.94a7 7 0 0 0 1.69 1.45c.51-.06.39-.78.51-1.26.43.09.25.61.26 1 1.1-.19.46-.45.51-1.26 1.28.16.7 1.66 2.42 1.51-.94-1.75 0-.15 1.57-.84-1 1.2.6-.32.27 1 .87-.91 2.08.14 4.06 0 4.85 2.45 10.07-.37 12.64 2.28a117.89 117.89 0 0 1 12.76 1.74c-.08-.73-1.79-.29-2.53-.54 6.33.2 12-3.4 19.87-4 1 0-.44-.59.14-1.28.77.43 1.1 1.18 2.06 1.47.21-.84-1.39-.37-1-1.38a10.11 10.11 0 0 1 2.14.24v-11.11c-2.78-.45-4.32-2.32-7.44-3-.08.46-.16.9.26 1-.42.84-.81-.76-1-1.06-.38.31-1.37 0-1.21.87-.4-.4-.56-1-1.76-.8.45 1.48-.75-.15-1.27 1.52-.61-1-1.84-.42-2.5-.86-.15.69.18 1.05 1 1.06-.67 1-.82-.75-1.79-.48.2.35.8.41.62 1-2.13-1.47-6.88-2.69-9-2.39.09.38.56.87.7.38-.05 1.6-3.76-1.68-5.07-1.08-.25-2.09-6-.38-8.83-.42-.52 0-1-.73-1-.75s-4.08 1.92-5.2.22c.18 1.09-4.95-.07-4.37-.7-1.14-.25-.94.92-2.27.46.26.51 1.13.57 1.77.8-3.45 1-5.76 4.27-7.93 3-.47.1-.8-4.66-.84-4.1-.8 0 0 3.85-.19 3.36-1.11.86-2-4.67-2.71-3.93-2.43-2-6.41 4.16-7.59 3.38.27.49-1.37.56-.84.9-1.78.63-1.44-1-3.6-1-.82.15.58 1.13 1 1.38 0 .81-2-1.6-3.52-1.6-.92.22.73-4 .15-3-1.88-1.23-.64 3.67-2 2.55-.51.06-.39.78-.51 1.26-1.58-1.38-3.2-2.16-4.74-.73-.19-1.94-1.66 2.5-1.31.66-1.22.94-1.88-2.12-2.71-1-.77-.22-.23.58 0 .84-1.56 1-3.79-1.84-4.25.43.2-1.28-.51-.8-1.92-.7-.56 0-.32-.49-.14-.77-.81-.32-.67.77-1.7.62-1.86 1-3.84-.25-5.67-.92-.94.14.58.91.19 1.64-.14-.62-1.74-1.36-1.5.2-.86 0-.31-1-1-1.07s-2 2-2.23.14c-.69 0-.35 1.07-.88 1.23-1.24-.24.75-1.72-.19-1.65-1.49-.22-.27.66-.51 1.26-.07-1.21-2.92-1.75-1.92-3.07-1.2.3-2.09 1.13-3.37.36.81.72.31.55.56 1.68-1.27-.45-1.83.54-3.27-.6-.68.58 0 .41-.14 1.29-1.68.54-6.65-2-7-.27-1.73.33-4-1.29-5.54-.15-1.15-1.43-3.19 0-5.06-1.08-.14.55.53.89-.11 1-1.28-.15-.05-.48-.59-1.35-2.73.29-.52-.5-3.27-.6 0 .38.65.33 1.07.41-3.06.41-3.19-.3-5.1-.76-.79-.12-.29 1.13-.54 1.58-.78.4-5-.88-3.73.34-.88.94-3.64-2.07-4.11.3-.75-1.21-2.55-.46-1.69.49a1.73 1.73 0 0 1 .48.39 1.83 1.83 0 0 1 -.48-.39 10.68 10.68 0 0 0 -6.78-.88c.2.35.81.4.62 1a2.06 2.06 0 0 1 -2.53-.54c-.56 1 1.16.34.59 1.35-1.39 0-3.27-.61-3.4.68-1-.69-.43-1.43-1.7-1.44-.9.12 1.17.73-.13 1.29-.7-2.18-5.81-.73-8.18.29 1.54 1.74-2.5 3.5-4.55 3.62.12-.23.26-1.36.57-1.36-.92-.11-2.34 2.11-2.83 1.18-1.29 0 .5-.59-.51-.81-.83-1.12-3.14 0-2.68-.44-1.1-.21-.88-1.08-1.28-.55-2.22-1.79-6.63 3.29-7.32 1.77-.57.23-.65-1.08-.91-.52-1.56 0-2-.73-3.23-.92-2.08 2-5.79 0-7.55 1.31.72.73 1.76 1.22 1.66 1.77-.62.76-1.18-.51-1.89-.78-.76-1.3-1.67-3.95-2.58-3.95.06-.83-1.66-.61-.59-1.35-.65.09-3.44-.16-1.91.49-.37.72-1.7-.32-1.76-.8a1.4 1.4 0 0 0 -.91 1.27c-1.14-.83-2.34.42-3.3-.29-.43-.13-1.37.83-.48.94-.59.69-1.15-1.12-1.69-1.45-1.15 0-1.13 1.2-2.67.75 0 .32.42.29.7.39-1.24-.14-2.85 1.27-3.63-.63-1.18.4.33 1.29-1.35 2.16 1.3 0 1.24-.27 2.2.19-3.39.72-5.59-2.38-7.86-2.63-.58 0-.15.67.42.94-2.11-.52-6.1-2.29-5.69-.08-2.71-1.18-4.64.2-8-1.65.15 1-2 0-3 .39 1.47.75.41.87-.22 1.94.07-1.14-2.41-.16-3.66-.31-3-.36-6.27-1.79-8.74-1.4-.53.29.11.55-.84.91-3.22-2-5.57-2.63-7.81-2.37.11-.15-.68-1.11-2.19-.5-2.9 1.19-8.15.15-12.5-.74-1.26-.12-2.93 1.18-4.07 0 .33 1-1.7-.07-1.17.56-1.08.23-3.26-1.62-3.71 0-.69-2-2.77-.85-4.29-1.35 1.49.49-1 1.08.47 1.34a50.28 50.28 0 0 1 -8.87-2.38c-1.14.81-2.69 1.05-2.81 2.05-.75-.15 0-1.43-.56-1.68-.92-.46-1.69.86-1.43-.44-.43.41-2.06 1-.11 1-1.17.86-3.15-.54-4.07 0-.13.37 0 .54.28.62-3.13-.6-5.26 1.45-10.75.44-.58-.1.39-.58-.3-.67-1.41-.54-.86 1-2.27.45.22 1 .51.42 1.43.45-1.31 1.9-4.43-.63-6.56-.88-1.66.46-1.16 1-2.08 2.1-3 .07-6.72-.89-10.9-1.9-.42-.1-1.28.27-1.5.2-1-.3-2.22-1.35-.73-.06-1.65-.83-4.72-1.67-7-3.21-1.28.19-2.08.89-3.45 1 .3.26-1.37 1.92-1.31 1.89-.24.15-1.09-.1-1.09-.1a2.46 2.46 0 0 0 -.43.28c.22.43-.55.44 0 0a1.44 1.44 0 0 0 -.31-.34c-.6-.46-3.69.44-2.34 1.1-4.65-1.13-7.53-.61-12.29-2.66-.25.44 1.34.9.26 1-2.42-2.87-6.51.95-9.1-1.42-.44 0-.37.56-.47.93-.61-1.39-1.57-.69-3.2-1.24-.78 0 .42 1 .59 1.35-1.27.1-2-1.26-3.52-1.6-2.63 1-5.32.45-8.54.25-.16.48-.55.54-1.24 1.2-1.81-1-1.78.26-2.64.43-2.87-.53-18 1.77-21.07 3.33-.46-.1-1.7-.59-1.8 0-.52-.18.06-.28.07-.64-5.07.41-10.43-3.16-14.53-2.54a4.07 4.07 0 0 0 2.53.55 1 1 0 0 0 .67.7c-.69.66-2-.23-1.24 1.2-3.07-1.69-5.29 2.69-8 1-.79-.2-2.12.79-1.24 1.2-1.68.32-3.62-1.72-5.28-2.4-.69.23-.62 1.27-1.94.81a2.64 2.64 0 0 0 1 .74c-.27.17-3.65-1.15-2.75-1.86a2.59 2.59 0 0 1 -2.6-.36c-.68 1.18 1.63.2 1 1.38-.38-.41-2.71-1.07-2.27.46-1.58-1.22-5.91-1.46-7.19-1.91-2.62-1.05-4.88-.25-7.92 1.28 0 .31.42.28.7.38-3.42.68-3.8-1.46-7.63-1.3.2.46.72.67 1.4.78.55.8-2.23-.38-2.5-.87-.72.63-1.33.45-.91 1.55-.73-.16-.62-.93-1.36-1.09-.56.09.11.42-.11 1-3.08-.18-10.84-2.57-10.43.74-3.67-.43-5.79 5.84-8.62 5.9a.76.76 0 0 1 .74-.56c-2-.32-3.77-2.43-6.65-2.88-3.11-.48-8 2.14-9.46-1.45a2.35 2.35 0 0 1 -1.51.2c-.21-.64-1.07-.32-.26-1-1.32-.19-3.52.72-5.17-.11-1.31 2.23-6.31-.25-7.22 1.66-.59-.68-3.42-2.7-4-.66-.29-1.51-6-.87-2.68.75-.61.13-2.37-1.94-3.08-2.72-1.27.18-.12.72-.88 1.23-.47-1.42-.88.57-2.85-.9.07.73-1.81.76-2.09 2.11-1.65-1.42-1.89-.58-4.29-1.35-.62 1.07-5 2.78-6.75.73-4.57 2.2-10.4 1.83-15.21.34-2.15-.13-4.82 1.66-7.81.31a.33.33 0 0 0 -.06.65c-2.69 0-7.89-5.94-9.45-3.7-2.24-2-10.91-.08-13.87-1.83-6.18.74-10.65 3.09-18.28 1.38-1.09.75-.51 1.06-.21 1.94-4.3-2.09-10.33-1.48-13.09 1.17a1.47 1.47 0 0 0 .48-.94c-3.59.59-8.26-3.74-11.8-2.09-1.35-2.52-5.78-1.29-7.81-2.95-2 2.22-9.92 2-14.15.76-.29 1.61-4.59-.08-6.37.76.26-.61-5.65-1.4-7.34-.63-.07-.56.36-.58.81-.58-3.91-1.47-6.37-1.41-10.2-1.87a1.62 1.62 0 0 1 .23 1.33c-.31-1.17-3.52-1.94-3.26-.61-.73-.07-.38-.92-1.38-.79-.71.92-2.19 1-2.81 2a26.24 26.24 0 0 1 -2.5-.86c-.95 0 .44.59-.14 1.29-3.41-.3-7.22-2.32-8.07-.69a2.11 2.11 0 0 0 -2.27.46c0-.32.07-.64.11-1-2.13 2.44-5.39 1-9 .87-.43 0-.38.56-.47.94-4.67-.86-6 .62-9.54-.81-.47-.12-.33.62.1.92.17 0 .35.06.53.11a.61.61 0 0 1 -.53-.11c-3.28-.66-6.37.29-9.47.23-.21.94.72 1.07.51 2-.71.54-1.05-.23-1.79-.48.13.31.26.61.66.71-.24 1.24-2.87-.86-3.07 1-2.75-1-6.06-.44-9.4-2.1-2.75 1.17-6.65.23-9.53-.81a8.31 8.31 0 0 1 -5.32 1.63c-.76 1.87-2.49 1.07-3.69 3.27-.41-2.23-3.09-.35-3.53-1.6-.44 0-.37.56-.48.93-3.66-1.67-7.06-.66-10.45-2.51-1.88 1.85-3.45.54-6 .79-.14.7.19 1.05 1 1.06-1 .9-4.78-.63-1.1-.09a1.86 1.86 0 0 1 -.19-1.64c-.69 0-.35 1.07-.88 1.22-1-2-3.92-1.44-6.13-1.49.51.42.8 1 1.73 1.12-4-.27-8.38-1.17-12.61.24-.51-.33-1.11-.59-1-1.39-.49.63-1.35 1.85-2.22 1.2.49.47-.61.67.15.9-2.15-.78-3.07 1.41-6.35.44-.58.12-.06.34.33.35-5.07 3-13.71-4.49-20.6-1.1-2.71-1-5.76 0-8.4-1 1.21 1.78-4.12-1.35-6 .79.39-1-.67-.56-.73-.06-.51-.16 0-.57.44-.62a2.68 2.68 0 0 0 -1-.74c-.17.4-.6 1.14-2.31.79.38.41.29 1.17.16 2-.62 1-.24-1.17-.19-1.64-4.73-1.7-6.85 1.75-9.75 1.12-.35.85.69.69 1 1.06a1.76 1.76 0 0 1 -2.28.46c.19-.49.62.34.77-.26 0-.35-.7-.28-.66-.71-1.94.84-2.62.77-4.84.25a3.25 3.25 0 0 0 -1.31 1.84c-1.64-.09.42-.8.18-1.62-1.78 1.88-3.08.23-4.39 2.89-.45-.46-.63-1.05-1.1-.09-.53-.19.19-.4.11-1-1.21-.21-.58 1.55-2.31.78 0 .6 1.22.3 1.39.77.7 1.08-2.08-1.24-2.57-.22-.48-.14-.21-.83-.22-1.32-.35.15-.65.85-.76.26-.57.09.09.42-.11 1-.69-.2-.15-1.28-1.36-1.1-.88 0 .31.91.63 1-.63 0-2.46-1.58-2.66-2.84-.51.66-1.79.49-2 1.46-.53-.54.49-1.58-1.28-1.74-.29.9-.38-.15-.85.91-.31-1-1.44 0-.62-1-.73-.17-1.16 0-1.17.55a17 17 0 0 1 -1.7-1.44c-1.52.27-2 1.12-3.73.33-.42 1.39.76-.2.66.7-1.57 1.51-3.94.23-4.68 2.21-4.1-1.61-10.71.62-12.15-2.46-.51.06-.39.78-.51 1.26a6.35 6.35 0 0 0 -3.12-1.89c1.93 1.25-2.72.23-2.9-.57-.51 0-.39.78-.51 1.26-.85-.24-1.77-1.56-4-.67-.43-.09-.25-.61-.26-1-.71.91-4.8-1.2-6.34.44a24.8 24.8 0 0 1 -2-1.8 2.33 2.33 0 0 0 -.85.91c2.76.2-.76 1.54.82 2.67-.72.41-1.78-1.47-2-2.45a9 9 0 0 0 -2.12 2.37 9 9 0 0 1 -7.05-3.2c-1.64-.25-2.6.92-4.44-.06a3.75 3.75 0 0 0 0 3.58c.19.87-1.07-1.85-1.59-2.41-.54.88-2 .48-2.3.78-.42-.09-.25-.61-.26-1-.82-.16-1.39 0-1.54.53-.48-.15-.21-.84-.22-1.33a1.85 1.85 0 0 0 -1.21.88c-.47-.69-2.3-1.7-1.87.17-1.36.09-.28-1.58-1.29-1.74-1.23.42 1.16 1.31-.21 1.93-.36-.26.06-1-.56-1.67-.49.07-.64.52-1.17.55-.23.76 1.69 0 1 1.06-.69-.77-1.22.18-1.8-.48.9 1.25.07.91-.25 2.26-.06-1.85-4.21-1.45-3.27-.6-.57.53-1.08-1.49-1.72-1.13-.56.1.1.43-.11 1-.81.09-1.43-2.09-1.8-.48-.42-.09-.24-.61-.26-1-.43 0-.37.56-.47.93a6.61 6.61 0 0 0 -1.71-1.41c-.51 0-.39.78-.51 1.25-.42-.08-.25-.61-.26-1-1.1.19-.46.45-.51 1.27-1.28-.21-.7-1.72-2.42-1.52.94 1.75 0 .14-1.57.83 1-1.19-.59.32-.27-1-.87.92-2.08-.13-4.07 0-4.84-2.49-10.06 6.33-12.63 3.67-4.28-.44-6.86-1.73-10.55-2.72l-1.44-.07c-5.65-.35-11-1.45-18.11-.94-1 0 .44.59-.14 1.29-.77-.44-1.1-1.19-2.06-1.48-.2.84 1.4.38 1 1.38-1.61.04-2.65-.86-3.76-1.09v11.93c3.88-.14 5.36 2.29 9 3.09zm821.83-8.89a.31.31 0 0 1 -.29 0zm-608.07 2a3.07 3.07 0 0 0 -.38.83 1 1 0 0 1 .38-.83z" fill="url(#i)"/><path d="m221.37 18.38-.33.09a.26.26 0 0 0 .33-.09z" fill="url(#j)"/><path d="m159.42 21.91c-.07-.19-.15-.42-.23-.67h-.06c-.28.5 0 .59.29.67z" fill="url(#k)"/><path d="m159.42 21.91a2.89 2.89 0 0 0 .3.68c.28-.51-.01-.59-.3-.68z" fill="url(#l)"/><path d="m316.91 16.73c0-.2 0-.39-.33-.36-.14 1.75 1.45.49 1.87-.16-1.12-.47-.95.43-1.54.52z" fill="url(#m)"/></svg>