<svg height="22.77" viewBox="0 0 1030.98 22.77" width="1030.98" xmlns="http://www.w3.org/2000/svg" xmlns:xlink="http://www.w3.org/1999/xlink"><linearGradient id="a" gradientUnits="userSpaceOnUse" x1="354.09" x2="354.09" y1="17.78" y2="17.85"><stop offset="0" stop-color="#bdbdbd"/><stop offset="1" stop-color="#d7dae2"/></linearGradient><linearGradient id="b" x1="215.9" x2="215.9" xlink:href="#a" y1="5.84" y2="6.34"/><linearGradient id="c" x1="674.03" x2="674.03" xlink:href="#a" y1="7.47" y2="7.49"/><linearGradient id="d" x1="672.03" x2="672.03" xlink:href="#a" y1="7.29" y2="7.62"/><linearGradient id="e" x1="515.49" x2="515.49" xlink:href="#a" y1="0" y2="42.48"/><linearGradient id="f" x1="713.64" x2="713.64" xlink:href="#a" y1="6.74" y2="8.76"/><path d="m354.27 17.78h-.35c.08.05.16.05.35 0z" fill="url(#a)"/><path d="m215.78 5.84a1.61 1.61 0 0 1 .23.27c-.01-.11-.08-.17-.23-.27z" fill="url(#b)"/><path d="m674.27 7.47h-.49a2.61 2.61 0 0 0 .49 0z" fill="url(#c)"/><path d="m670.28 7.44h3.5c-.96-.04-2.78-.32-3.5 0z" fill="url(#d)"/><path d="m1028.23 21.39c.19-.84-1.4-.39-1-1.4a16.15 16.15 0 0 1 3.73.64l-.34-7.78h.26v-2.14c-3.87.11-5.38-2.34-9.05-3.18.07 1.79-.05 1.3-.73-.07-1.86.78-.73.32-3 0 1 2.08-6.42-.14-2.75 1.7-.65 1-.83-.76-1.81-.5.21.35.82.42.66 1-6.61-3.76-7.71-1.19-13.4-3.22.5 3.56-6.7-.39-8.8-.44-1.73-1.17-8.5 1.32-10.59-1.33-2.12 1.23-3.6 2.7-8.44-.81-1.43.9-1.16 1.08-1-.75-2.8 1.58-8.23-.79-10.3-.65-.25 2.54-7.09-2-3.46 1.31-.16.92-5-4.39-3.36.33-1.57-1.05-2-4-2.48-1.21-2.15-2.84-5.52 0-6.07-2.21-1.62.46-3.71 1.77-2.56-.24-1.55 1.13-3.88.2-4.33 2.52.19-1.28-.53-2.87-2-2.79-.34 2.61 0 .52-1.83-.18-2.05 2.21-6.82-.2-5.45 2.75-1.37-2.15-1.35 1.39-2.49-.9-2.48 2-2-1-3.1 1.35-1.24-.26.72-1.73-.22-1.66-1.48-.23-.26.66-.49 1.26-2.2-1.79-2.83.06-5.45-.79 2.59 3.94-3.9-.54-2.82 2.34-4.75-.43-8.5-1.22-12.54-.53-1.16-1-5-1.27-5.16-.17-1.3-.16-.06-.47-.61-1.36-2.73.27-.53-.5-3.26-.63 2 2.27-5.6-2.39-4.56 1.19-.79.39-5-.93-3.73.3-.88.94-3.67-2.11-4.11.27-.76-1.22-2.55-.49-1.69.47a10.73 10.73 0 0 0 -6.77-1c1.84 1.42-.86 1.55-1.72.72 1.89 2.5-2.94-.37-3 1.76-1-.71-.45-1.44-1.71-1.46-.92.11 1.16.74-.14 1.29-.72-2.18-5.8-.79-8.15.2 1.56 1.78-2.58 1.45-4.6 1.52 1.44 1.3-1.62.64-2.21-.21-1.29 0 .53 1.5-.48 1.26-2.27-1.15-2.44 0-4-1-7.69-.87-11.65 1.31-19 1.45h-22.07a2.91 2.91 0 0 0 -1.21-.73 2.7 2.7 0 0 0 0 .73h-64.76a6.14 6.14 0 0 0 -3.1 0h-4.36a13.1 13.1 0 0 1 -4.29-1.56 9.41 9.41 0 0 0 -2.5 1.55h-.52a2.7 2.7 0 0 1 -.31-1.33c-.93-.47-1.69.85-1.44-.46-1.08 2.49-5.06-.37-3.93 1.52a6.52 6.52 0 0 0 -3.46.16h-6.82a4.1 4.1 0 0 1 -.72-.48 2.55 2.55 0 0 0 -1.78.48h-4a3 3 0 0 0 -2.76 0h-10.23c-2.2-.46-3.87-.74-3.79-.32a2.11 2.11 0 0 0 -1.86.32h-14.16c-.21-.42-.09-.67.23-.81l-105.14-.76a13.17 13.17 0 0 0 -4.89 0l-45.42-.31c3.48 1.62 6.43-.65 11.73 1.75l-119.84-.16c-.16-.38-.15-.68.54-1.16l-4.17.67a18.41 18.41 0 0 0 -4.61.48l-52.83.01c-3.25-1.18-10.95-1.41-11-.49-1.26-1.16-2.26-.21-3.41.48h-3.08a2.43 2.43 0 0 1 -.2-.14.7.7 0 0 0 0 .14h-5.52c-1.13-.3-2.08-.44-2.47 0h-63.67a5.43 5.43 0 0 0 -3.95 0h-12.95c-1.7-1.31-3-2.35-1.17-.4-1 .89-4.78-.68-1.09-.1-.71-1.21 0-2.28-1.08-.43-.57-1.12-1.72-.14-3 .92h-2.12c.43-3.23-8.36-1.81-11.86-1.22a6.63 6.63 0 0 0 -.62 1.21h-1.71c-.21-.34-.44-.75-.73-1.26.57.73-3.31 1-5.13 1.25h-8.63c-8.91-.93-19-3.5-27.2-1.46.38-1-.67-.56-.74-.07-.53-.54 1.1-.83-.6-1.36-.51 1.28-2.6.17-2.12 2.73-.57-4.85-7.6 0-9.93-.62-.19.47.06.63.36.75h-6.36l-17.67-.13h-.13-1.6a.7.7 0 0 1 .14-.19c-3.82-.94-3.52-.52-4.13.19h-18.63c-1 2.27-1.31-.41-3.65-.67 2 1.26-2.71.21-2.9-.6-1 2.6-1.28-.66-4.49.55-.79-2.42-6.77.57-8.63-2.45a2.18 2.18 0 0 0 -.83.9c2.76.23-.75 1.54.84 2.69-2-.62-2.08-3.91-4.07-.07-3.84.25-13.52-7.78-11.49.22-.85-.78-1.09-3-3.91-1.68-.3-.85-1.19-1.72-1.81-.49-.48-.15-.22-.83-.23-1.32-1.19 1.59-3.15-1.48-3.06 1-1.36.08-.3-1.58-1.32-1.75-1.21.4 1.18 1.32-.18 1.93-.31-.83-.22-2.21-1.74-1.14 2 1.1.87 1-.8.58.92 1.25.09.91-.21 2.25-.07-1.85-4.17-1.5-3.25-.64-.71.37-2.19-2.81-1.85-.18-2.07-2-2 .48-2.07-1.5-.71 2.16-2.35-2.41-2.67.73-.38-1-1.07-1.43-.76.25-1.27-.17-.72-1.67-2.42-1.53-15.52.22-40.34-6.4-52.08-3.25l.2 10.89h-.27l.17 1.76c2.78.48 4.34 2.37 7.46 3.08.08-.46.15-.91-.27-1 .41-.83.82.77 1 1.07.37-.31 1.36 0 1.19-.86.4.41.57 1 1.77.82-.47-1.49.75.16 1.25-1.51.63 1 1.84.45 2.51.89.14-.69-.2-1.05-1-1.07.65-1 .83.76 1.8.49-.21-.35-.81-.41-.64-1 2.14 1.48 6.91 2.76 9 2.48-.09-.38-.56-.88-.7-.39 0-1.6 3.78-1.78 5.07-2.37.28 2.09 6 .45 8.84.51.52 0 1 .74 1 .75s4.06-1.87 5.2-.16c-.19-1.09 4.94.12 4.37.74 1.14.27.92-.91 2.26-.43-.26-.51-1.14-.58-1.77-.82 3.43-1 5.76.78 7.94 2.05a.91.91 0 0 0 .83-.9c.8 0 .05 1.16.21 1.65 1.1-.85 2-.32 2.69-1.05 2.45 2.08 6.42.91 7.61 1.7-.28-.49 1.36-.56.83-.9 1.76-.61 1.44 1 3.6 1 .82-.15-.59-1.14-1-1.4 0-.81 2 1.63 3.54 1.64.91-.21-.74-1-.18-2 1.89 1.25.66 1.34 2 2.47.51-.06.38-.78.49-1.26 1.6 1.39 3.22 2.2 4.74.77.22 1.95 1.64-2.48 1.31-.63 1.21-.94 1.9 2.13 2.72 1 .76.23.23-.58-.05-.84 1.55-.95 3.8 1.87 4.24-.39-.19 1.27.52.8 1.93.71.58 0 .3.55.12.82.8.31.66-.77 1.69-.61 1.84-1 3.84.29 5.68 1 .93-.14-.6-.92-.21-1.65.14.62 1.74 1.38 1.49-.18.86 0 .32 1 1 1.07s2-2 2.23-.11c.69 0 .34-1.08.86-1.23 1.24.26-.73 1.72.21 1.65 1.49.24.26-.65.5-1.25.26 1.29 3.11-.13 2.1 1.18 1.19-.29 2.07-1.13 3.36-.34-.82-.73-.31-.54-.57-1.68 1.27.46 1.81-.53 3.27.63.67-.58 0-.41.13-1.29 1.67-.52 6.66 2.1 7 .34 1.72-.31 4 1.33 5.54.2 1.16 1.45 3.18 0 5.07 1.13.13-.54-.55-.89.09-1 1.29.17.06.49.61 1.36 2.72-.26.53.51 3.27.63 0-.38-.65-.33-1.07-.42 3.05-.38 3.2.34 5.1.82.79.12.28-1.14.53-1.59.77-.39 5 .94 3.72-.29.87-.94 3.66 2.1 4.1-.26.77 1.21 2.56.48 1.69-.48a10.78 10.78 0 0 0 6.78 1c-.2-.35-.81-.41-.63-1 .85-.62 2.06 0 2.53.57.55-1-1.16-.36-.6-1.36 1.39.06 3.27.64 3.39-.65 1 .71.44 1.44 1.71 1.46.9-.11-1.17-.74.12-1.29.73 2.19 5.81.79 8.17-.21-1.55-1.74 2.42 0 4.48-.08-.11-.16-.24-2.15-.52-2.15a5.22 5.22 0 0 1 2.81 2.35c1.29 0-.5.58.51.82.78 1 2.75-2.67 2.74-3 1 .24.85 1.08 1.23.56 2.25 1.81 6.6.23 7.34 1.8.57-.23.66 1.08.92.53 1.56 0 2 .76 3.24.95 2.05-2 5.78 0 7.52-1.24-.72-.73-1.77-1.23-1.67-1.78.67-.85 1.3.83 2.14.85a1 1 0 0 0 -1-.75 8.19 8.19 0 0 1 3.36-.33c-.05.84 1.67.62.61 1.36.64-.09 3.44.19 1.9-.47.36-.72 1.71.33 1.77.82a1.41 1.41 0 0 0 .86-1.23c1.13.84 2.32-.39 3.3.32.43.14 1.35-.81.46-.93.58-.69 1.16 1.13 1.71 1.46 1.15 0 1.11-1.18 2.66-.72 0-.32-.43-.3-.7-.4 1.23.16 2.83-1.25 3.63.67 1.17-.39-.34-1.3 1.32-2.15-1.3 0-1.24.26-2.2-.21 3.38-.69 5.61 2.43 7.88 2.7.59 0 .15-.66-.42-.94 2.1.54 6.11 2.36 5.68.14 2.72 1.21 4.64-.15 8 1.73-.16-1 2 .06 3-.37-1.48-.75-.42-.86.19-1.93-.05 1.14 2.42.18 3.67.35 3 .38 6.28 1.84 8.74 1.48.53-.28-.11-.55.83-.9 3.26 2 5.59-.34 7.83-.56-.24 0 .57 1.16 2.16.53 2.88-1.16 8.15-.08 12.5.86 1.26.13 2.92-1.15 4.07.06-.34-1 1.7.09 1.16-.54 1.08-.23 3.28 1.64 3.7 0 .72 2 2.79.87 4.31 1.38-1.5-.49 1-1.06-.48-1.33a50.73 50.73 0 0 1 8.88 2.46c1.14-.8 2.68-1 2.79-2 .76.16 0 1.43.58 1.69.92.46 1.67-.85 1.43.45.42-.4 2-.95.1-1 1.16-.85 3.15.57 4.06.06.15-.42-.07-.57-.39-.66 3.2.73 5.28-1.38 10.85-.3.58.11-.38.58.3.68 1.42.55.86-1 2.27-.44-.23-1-.52-.41-1.44-.46 1.3-1.89 4.43.67 6.57.95 1.65-.45 1.15-1 2.05-2.09 3 0 6.72-.53 10.92.51.42.11 1.27-.25 1.49-.18a10.14 10.14 0 0 1 1.43.69 8.12 8.12 0 0 0 -.69-.62c1.65.84 4.72 1.71 7.08 3.27 1.28-.17 2.06-.87 3.44-.93-.31-.26 1.33-1.91 1.27-1.87.25-.16 1.1.11 1.1.1a3.76 3.76 0 0 0 .43-.27 1 1 0 0 0 .31.34c.6.47 3.68-.4 2.33-1.08 4.65 1.18 7.52.69 12.3 2.79.24-.44-1.35-.92-.26-1 2.44 2.89 6.48-.88 9.1 1.51.44 0 .37-.55.46-.93.63 1.41 1.58.71 3.21 1.28.78 0-.43-1-.61-1.36 1.27-.08 2.07 1.28 3.54 1.64 2.61-1 5.31-.41 8.53-.17.16-.47.55-.53 1.23-1.18 1.81 1.05 1.77-.25 2.62-.4 4.81.93 16.1 2.85 21.07.36.46.11 1.7 1.11 1.8.5.52.19-.06.28-.06.64l11.34 1.4c.67-.65 2 .25 1.22-1.18 3.09 1.71 5.28-.64 8 1.08.79.22 2.11-.77 1.22-1.18 1.68-.31 3.65 1.75 5.31 2.45.69-.23.6-1.26 1.93-.79a2.7 2.7 0 0 0 -1-.75c.27-.17 3.67 1.19 2.77 1.9a2.55 2.55 0 0 1 2.57.24c.66-1.18-1.63-.22-1-1.4.38.42 2.72 1.1 2.26-.43 1.59 1.23 5.92 1.51 7.21 2 2.63 1.07 4.87.3 7.89-1.21 0-.31-.42-.29-.7-.39 3.41-.64 3.81-3.5 7.64-3.62-.2-.46-.73-.68-1.41-.79-.56-.81 2.23.4 2.51.89.71-.62 1.32-.44.89-1.54.74.17.63.94 1.37 1.1.56-.08-.11-.42.1-1 3.08.21 10.86 2.67 10.42-.64 3.67.47 5.77-.79 8.6-.82a.76.76 0 0 1 -.73.55c2 .34 3.79 2.48 6.68 3 3.11.51 7.94-2.06 9.46 1.55a2.33 2.33 0 0 1 1.5-.19c.22.64 1.08.33.28 1 1.32.2 3.5-.7 5.16.16 1.29-2.23 6.32.3 7.19-1.6.61.69 3.45 2.74 4 .71.31 1.5 6 .93 2.66-.73.61-.13 2.38 1.47 3.11 2.25 1.26-.17.11-.71.85-1.22.5 1.43.89-.56 2.88.93-.09-.73 1.79-.75 2.05-2.09 1.67 1.43 1.9.59 4.31 1.39.61-1.07 5-2.73 6.73-.67 4.55-2.16 10.37-.23 15.19 1.31 2.16.16 4.8-2.61 7.8-1.23a.33.33 0 0 0 .06-.65c2.69 0 7.89.51 9.42-1.71 2.26 2.07 10.9.18 13.88 2l18.44-3.14c4.32 2.13 10.33 1.58 13.06-1a1.4 1.4 0 0 0 -.46.93c3.43-.54 7.85-1.15 11.31-2.62h.56c1.5 2.29 5.73 1.22 7.72 2.85 1.94-2.2 9.89-1.9 14.13-.62.28-1.61 4.59.12 6.36-.69-.25.6 5.66 1.46 7.34.69.08.56-.35.58-.8.58 3.89 1.47 6.35 1.44 10.17 1.94a1.66 1.66 0 0 1 -.24-1.33c.33 1.17 3.54 2 3.27.64.73.07.38.92 1.4.78.71-.91 2.18-1 2.79-2a22.11 22.11 0 0 1 2.51.89c1 0-.45-.61.13-1.3 3.41.34 7.24 2.39 8.06.77.72.1 1.2.46 2.27-.44 0 .33-.07.65-.1 1 2.1-2.41 5.37 0 9 .22.43 0 .37-.56.46-.93 4.67.91 6-.57 9.54.9.48.12.33-.62-.11-.93 3.29.7 6.37-.22 9.46-.13.2-.94-.73-1.07-.54-2 .71-.55 1.06.23 1.81.49-.14-.31-.27-.61-.67-.71.22-1.25 2.88 5.88 3.06 4 2.75 1.05 6.06-5 9.4-3.3 2.74-1.14 6.65-.17 9.54.9 1.72-1.33 4.51 3.85 5.32 4 .74-1.86 2.48-1 3.65-3.24.44 2.24 3.09.39 3.54 1.64.44 0 .37-.55.47-.93 3.68 1.72 7.06.74 10.47 2.62 1.85-1.83 3.44-.51 6-.73.13-.7-.2-1.06-1-1.08 1-.88 4.79.69 1.1.11a1.91 1.91 0 0 1 .21 1.65c.68 0 .33-1.07.86-1.22 1 2 3.93 1.47 6.14 1.56-.51-.43-.81-1-1.74-1.15 4 .31 8.39 1.26 12.6-.11.51.33 1.11.6 1 1.4.49-.63 1.34-1.84 2.21-1.19-.5-.46.61-.66-.16-.9 2.16.8 3.05-1.38 6.34-.37.58-.12 0-.34-.34-.36 5-3 13.76 4.64 20.6 1.3 2.72 1.07 5.76.06 8.4 1.12-1.22-1.79 4.14 1.39 6-.73-.38 1 .68.56.73.07.51.16 0 .57-.43.61a2.64 2.64 0 0 0 1 .75c.16-.4.59-1.13 2.3-.76-.39-.42-.31-1.18-.18-2 .6-1 .25 1.18.21 1.65 4.74 1.75 6.81-1.69 9.72-1 .34-.85-.69-.7-1-1.08a1.74 1.74 0 0 1 2.27-.43c-.18.49-.62-.35-.76.25.05.36.7.29.66.71 1.94-.81 2.62-.74 4.83-.19a3.09 3.09 0 0 0 1.3-1.83c1.64.11-.41.8-.16 1.62 1.75-1.87 3.07-.2 4.35-2.85.45.46.64 1.05 1.1.1.53.2-.19.4-.1 1 1.21.22.56-1.55 2.3-.76 0-.6-1.22-.31-1.4-.78-.71-1.09 2.1 1.26 2.57.24.48.15.22.84.24 1.33.35-.15.64-.84.76-.26.56-.08-.1-.42.09-1 .7.21.17 1.28 1.37 1.11.89 0-.32-.91-.63-1 .62 0 2.47 1.6 2.68 2.85.5-.65 1.79-.46 2-1.43.54.54-.47 1.58 1.31 1.75.27-.89.38.15.83-.9.32 1 1.44.05.64 1 .72.17 1.15 0 1.16-.54a15.87 15.87 0 0 1 1.71 1.46c1.51-.26 2-1.11 3.73-.3.4-1.38-.76.19-.67-.71 1.55-1.49 3.93-.18 4.65-2.17 4.11 1.66 10.71 1 12.18 4.09.51-.05.38-.78.5-1.26a6.46 6.46 0 0 0 3.14 1.93c-2-1.27 2.71-.2 2.9.6.51-.05.39-.78.5-1.26.85.25 1.78 1.57 4 .71.42.09.24.62.27 1 .69-.9 4.8 1.25 6.32-.38a25.75 25.75 0 0 1 2 1.83 2.34 2.34 0 0 0 .84-.9c-2.76-.23.75-1.54-.84-2.69.71-.4 1.78 1.49 2 2.47a9 9 0 0 0 2.09-2.41 9.21 9.21 0 0 1 7.1 3.07c1.64.26 2.59-.9 4.43.1a3.74 3.74 0 0 0 0-3.59c-.2-.87 1.1 1.87 1.62 2.43.53-.87 2-.46 2.29-.75.42.08.25.61.27 1 .82.18 1.39.06 1.53-.5.49.15.22.83.24 1.32a1.8 1.8 0 0 0 1.2-.86c.47.7 2.31 1.72 1.86-.15 1.36-.08.3 1.58 1.31 1.75 1.23-.4-1.17-1.33.19-1.93.37.27 0 1 .57 1.68.5-.06.64-.52 1.17-.54.22-.76-1.69 0-1-1.07.68.78 1.2-.17 1.79.5-.91-1.27-.07-.91.23-2.26.08 1.84 4.22 1.49 3.27.63.57-.53 1.1 1.5 1.73 1.14.57-.09-.1-.42.1-1 .81-.07 1.46 2.12 1.8.5.43.09.25.62.27 1 .44 0 .37-.55.47-.93a6.9 6.9 0 0 0 1.7 1.46c.51-.05.38-.77.5-1.25.42.1.25.62.27 1 1.09-.18.45-.44.49-1.25 1.29.17.72-1.33 2.44-1.47-1-1.76 0-.14 1.56-.83-1 1.2.59-.31.28 1 .86-.9 2.08-2.34 4.06-2.43 4.87 2.49 10.1-3.78 12.7-1.09l10.21 1.39c6.33.27 12 4.72 19.87 4.23 1 0-.45-.6.13-1.28.77.39 1.11 1.14 2.07 1.44z" fill="url(#e)"/><path d="m714.23 7.18c1 .39-.5-1.5-1.53.5 1.12.48.94-.42 1.53-.5z" fill="url(#f)"/></svg>