<svg height="21.56" viewBox="0 0 917.43 21.56" width="917.43" xmlns="http://www.w3.org/2000/svg" xmlns:xlink="http://www.w3.org/1999/xlink"><linearGradient id="a" gradientUnits="userSpaceOnUse" x1=".08" x2=".04" y1="18.36" y2="18.29"><stop offset="0" stop-color="#bdbdbd"/><stop offset="1" stop-color="#d7dae2"/></linearGradient><linearGradient id="b" x1="262.4" x2="262.32" xlink:href="#a" y1="21.59" y2="21.45"/><linearGradient id="c" x1="916.8" x2="916.1" xlink:href="#a" y1="16.69" y2="15.48"/><linearGradient id="d" x1="915.26" x2="915.09" xlink:href="#a" y1="15.97" y2="15.68"/><linearGradient id="e" x1="224.32" x2="223.78" xlink:href="#a" y1="20.05" y2="19.11"/><linearGradient id="f" x1="132.49" x2="130.39" xlink:href="#a" y1="17.43" y2="13.79"/><linearGradient id="g" x1="124.14" x2="123.96" xlink:href="#a" y1="4.7" y2="4.39"/><linearGradient id="h" x1="584" x2="583.92" xlink:href="#a" y1="4.24" y2="4.09"/><linearGradient id="i" x1="718.55" x2="718.5" xlink:href="#a" y1="4.2" y2="4.1"/><linearGradient id="j" x1="780.72" x2="780.36" xlink:href="#a" y1="1.28" y2=".65"/><linearGradient id="k" x1="780.25" x2="779.88" xlink:href="#a" y1=".71" y2=".07"/><linearGradient id="l" x1="622.39" x2="621.91" xlink:href="#a" y1="6.37" y2="5.55"/><path d="m.11 18.25c-.19.23-.11.17 0 0z" fill="url(#a)"/><path d="m262.53 21.52h-.35c.06.05.17.05.35 0z" fill="url(#b)"/><path d="m915.44 15.86c.63.17 1.28.33 2 .47 0-.31-.35-.41-.77-.45s-.84 0-1.23-.02z" fill="url(#c)"/><path d="m914.9 15.79a1.77 1.77 0 0 0 .54.07l-.22-.06z" fill="url(#d)"/><path d="m223.49 19.82c0-.2 0-.38-.33-.35-.14 1.75 1.45.49 1.87-.17-1.11-.46-.95.44-1.54.52z" fill="url(#e)"/><path d="m131.59 14.56c.18 1.22-1.65-.09-2.2-.19-.43 1 .46 1.05.55 1.68 1.13.25 1.86-.61 1.07.41.92 0 1.08.61 1.76.8.11-1.2-.43-1.08.54-1.57-1.67-.49-.77-.12-1.72-1.13z" fill="url(#f)"/><path d="m123.92 4.41a1.68 1.68 0 0 1 .24.28.56.56 0 0 0 -.24-.28z" fill="url(#g)"/><path d="m583.78 4.17h.35c-.06-.05-.13-.05-.35 0z" fill="url(#h)"/><path d="m718.37 4.2.32-.08a.25.25 0 0 0 -.32.08z" fill="url(#i)"/><path d="m780.32.67c.1.17.09.57.28.68.29-.5 0-.59-.28-.68z" fill="url(#j)"/><path d="m780.32.67a2.35 2.35 0 0 0 -.32-.67c-.27.5 0 .59.32.67z" fill="url(#k)"/><path d="m622.83 5.86c1.21.44-.92-1.45-1.54.52 1.11.46.94-.38 1.54-.52z" fill="url(#l)"/></svg>