<svg height="900" viewBox="0 0 867.97 900" width="867.97" xmlns="http://www.w3.org/2000/svg"><path d="m413.15 866c-2.8-.11-5.62-.25-8.38-.41l5.74-96.73c2.11.13 4.27.23 6.41.31zm58.44-1.78-9.7-96.41c2.15-.21 4.31-.45 6.4-.7l11.61 96.2c-2.72.35-5.52.69-8.31.94zm-124.85-6.17c-2.77-.56-5.54-1.15-8.23-1.75l21.19-94.56c2 .46 4.14.91 6.25 1.33zm190.7-5.86-25.1-93.59c2.09-.56 4.18-1.14 6.2-1.72l27 93.07c-2.68.79-5.39 1.55-8.1 2.27zm-255.09-12.69c-2.61-1-5.25-2-7.84-3.06l36.17-89.89c2 .79 4 1.58 6 2.33zm318.14-9.78-39.85-88.32c1.92-.87 3.87-1.77 5.8-2.69l41.63 87.5c-2.52 1.2-5.07 2.38-7.58 3.51zm-378.67-18.94c-2.39-1.39-4.83-2.82-7.22-4.27l50.16-82.91c1.84 1.12 3.7 2.22 5.54 3.28zm437.18-13.39-53.5-80.76c1.78-1.19 3.58-2.4 5.33-3.61l55.11 79.7c-2.27 1.57-4.6 3.14-6.94 4.67zm-492.24-24.64c-2.16-1.77-4.33-3.57-6.45-5.38l62.8-73.79c1.62 1.38 3.28 2.76 4.93 4.11zm544.87-16.62-65.74-71.19c1.58-1.46 3.16-3 4.68-4.41l67.14 69.86c-1.99 1.91-4.03 3.84-6.08 5.74zm-593.12-29.69c-1.84-2.07-3.68-4.19-5.48-6.3l73.72-62.88c1.4 1.64 2.82 3.27 4.23 4.86zm638.49-19.44-76.23-59.82c1.31-1.67 2.62-3.39 3.91-5.09l77.43 58.26c-1.71 2.23-3.43 4.46-5.11 6.65zm-678.73-34c-1.49-2.34-3-4.73-4.4-7.09l82.84-50.27c1.1 1.82 2.24 3.65 3.38 5.46zm715.63-21.78-84.8-46.88c1-1.83 2-3.72 3-5.63l85.8 45.09c-1.32 2.51-2.66 5-4 7.42zm-746.8-37.35c-1.08-2.54-2.16-5.13-3.2-7.71l89.84-36.29c.8 2 1.63 4 2.46 5.9zm774.34-23.76-91.27-32.53c.71-2 1.42-4.05 2.1-6.08l91.92 30.65c-.89 2.66-1.81 5.34-2.75 7.96zm-795.58-39.71c-.66-2.68-1.31-5.42-1.92-8.15l94.52-21.32c.47 2.1 1 4.21 1.48 6.26zm708.14-195.4c-.64-2-1.3-4.08-2-6.1l91.9-30.9c.89 2.65 1.76 5.33 2.59 8zm-598-29.21-89.22-37.91c1.09-2.55 2.22-5.14 3.37-7.7l88.38 39.72c-.88 1.96-1.75 3.94-2.53 5.89zm578.82-18.35c-1-1.92-1.95-3.83-2.93-5.7l85.67-45.27c1.28 2.43 2.57 4.92 3.82 7.41zm-555-27.1-81.93-51.78c1.49-2.35 3-4.72 4.55-7l80.85 53.42c-1.18 1.74-2.35 3.55-3.49 5.36zm528.32-16.73c-1.24-1.71-2.52-3.44-3.81-5.15l77.31-58.41c1.68 2.22 3.36 4.49 5 6.73zm-497.5-24.35-72.57-64.2c1.84-2.08 3.72-4.17 5.6-6.21l71.33 65.64c-1.5 1.57-2.95 3.17-4.36 4.77zm464.13-14.69c-1.51-1.49-3-3-4.6-4.48l67-70c2 1.93 4 3.9 6 5.85zm-427.12-20.94-61.42-74.94c2.16-1.78 4.36-3.54 6.53-5.25l59.88 76.18c-1.64 1.3-3.34 2.65-4.99 4.01zm387.94-12.29c-1.72-1.24-3.48-2.48-5.25-3.7l55-79.79c2.3 1.59 4.61 3.21 6.86 4.83zm-345.77-16.94-48.63-83.81c2.4-1.4 4.85-2.79 7.26-4.12l46.94 84.77c-1.85 1.02-3.73 2.09-5.57 3.16zm301.84-9.57c-1.94-1-3.89-1.91-5.8-2.82l41.44-87.59c2.5 1.18 5 2.42 7.55 3.66zm-255.59-12.49-34.53-90.54c2.61-1 5.26-2 7.88-2.91l32.65 91.23c-2 .71-4.02 1.46-6 2.22zm207.93-6.61c-2-.63-4.09-1.24-6.14-1.83l26.75-93.14c2.67.77 5.38 1.58 8 2.4zm-158.72-7.73-19.43-94.9c2.72-.56 5.49-1.09 8.23-1.6l17.5 95.31c-2.1.38-4.22.79-6.3 1.19zm108.72-3.4c-2.1-.3-4.24-.57-6.35-.82l11.35-96.23c2.77.33 5.57.69 8.32 1.07zm-57.73-2.78-4-96.81c2.77-.12 5.58-.21 8.33-.27l2.08 96.88c-2.15.05-4.31.11-6.45.2z" fill="#ed1b24"/><path d="m454.11 899.58c-3 .17-6.08.31-9.07.42l-3.73-104.83c2.28-.08 4.61-.19 6.93-.32zm62.8-7.9-20.35-102.9c2.3-.46 4.6-.94 6.83-1.42l22.38 102.48c-2.9.63-5.88 1.25-8.86 1.84zm-135.19 6.15c-3-.32-6.08-.67-9.05-1.05l13.15-104.07c2.24.29 4.55.55 6.87.8zm204.92-25.83-36.64-98.32c2.2-.82 4.39-1.66 6.5-2.5l38.6 97.54c-2.77 1.09-5.61 2.18-8.46 3.28zm-276.21 12.41c-2.91-.8-5.86-1.63-8.77-2.49l29.76-100.59c2.22.66 4.47 1.3 6.69 1.91zm341.85-43.16-52-91.1c2-1.13 4-2.31 6-3.49l53.82 90c-2.61 1.58-5.23 3.11-7.82 4.59zm-410 18.41c-2.72-1.24-5.49-2.54-8.22-3.86l45.56-94.49c2.1 1 4.21 2 6.3 3zm469.78-59.26-66-81.55c1.8-1.45 3.61-3 5.37-4.43l67.57 80.24c-2.27 1.92-4.61 3.86-6.94 5.74zm-533.06 23.92c-2.5-1.68-5-3.4-7.5-5.13l60.11-86c1.89 1.32 3.82 2.64 5.73 3.92zm585.5-73.78-78.14-70c1.55-1.74 3.1-3.5 4.59-5.23l79.52 68.41c-1.94 2.28-3.95 4.57-5.97 6.82zm-642.24 28.82c-2.18-2-4.39-4.13-6.55-6.22l73-75.33c1.67 1.62 3.37 3.24 5.05 4.81zm686.07-86.42-88.33-56.65c1.24-1.93 2.49-3.91 3.7-5.88l89.41 54.84c-1.54 2.58-3.11 5.17-4.78 7.69zm-734.9 33c-1.85-2.38-3.69-4.8-5.48-7.2l84.12-62.66c1.38 1.84 2.79 3.7 4.21 5.53zm769-96.9-96.2-41.82c.9-2.07 1.81-4.22 2.7-6.38l97.07 39.8c-1.2 2.84-2.4 5.66-3.59 8.36zm-808.66 36.34c-1.43-2.63-2.86-5.31-4.24-8l93.1-48.33c1.06 2 2.15 4.1 3.25 6.11zm832.05-105-101.69-25.7c.56-2.23 1.11-4.51 1.63-6.77l102.24 23.6c-.72 2.96-1.44 5.94-2.18 8.86zm-861.45 38.77c-1-2.82-2-5.71-2.91-8.58l99.68-32.67c.73 2.21 1.48 4.43 2.23 6.59zm743.14-283.25c-.89-2.12-1.82-4.26-2.76-6.37l95.82-42.68c1.23 2.76 2.44 5.56 3.61 8.33zm-647.51 29.91-100-31.72c.91-2.86 1.86-5.77 2.84-8.64l99.32 33.74c-.75 2.21-1.48 4.43-2.16 6.62zm621.9-79.13c-1.24-2-2.5-3.94-3.75-5.84l87.68-57.58c1.63 2.49 3.27 5 4.88 7.6zm-600.9 27.69-93.56-47.37c1.36-2.68 2.77-5.39 4.19-8.05l92.6 49.28c-1.09 2.01-2.17 4.08-3.23 6.14zm567.65-72.19c-1.52-1.72-3.07-3.46-4.64-5.16l77.33-70.88c2 2.22 4.08 4.49 6.06 6.74zm-538.65 24.82-84.75-61.81c1.77-2.42 3.59-4.87 5.41-7.26l83.54 63.43c-1.4 1.84-2.8 3.72-4.2 5.64zm498.68-63.42c-1.77-1.46-3.6-2.93-5.41-4.37l65-82.29c2.37 1.87 4.74 3.78 7 5.69zm-462.41 21.17-73.87-74.47c2.15-2.13 4.33-4.26 6.5-6.32l72.34 76c-1.65 1.53-3.32 3.16-4.97 4.79zm416.83-53c-2-1.16-4-2.32-6-3.45l51.07-91.62c2.64 1.47 5.29 3 7.88 4.5zm-374.38 17.17-61-85.33c2.45-1.75 4.94-3.5 7.41-5.19l59.27 86.6c-1.89 1.24-3.8 2.58-5.68 3.92zm324.28-41.26c-2.18-.84-4.38-1.66-6.54-2.44l35.68-98.64c2.81 1 5.67 2.08 8.51 3.17zm-276.7 12.75-46.49-94c2.71-1.34 5.46-2.67 8.19-4l44.54 95c-2.08.97-4.18 1.98-6.24 3zm223.42-28.41c-2.25-.46-4.54-.92-6.8-1.34l19.27-103.15c3 .55 6 1.15 8.91 1.76zm-171.85 8-30.67-100.37c2.87-.88 5.8-1.74 8.7-2.56l28.64 100.93c-2.23.61-4.47 1.27-6.67 1.94zm116.77-14.9c-2.29-.1-4.62-.18-6.93-.23l2.4-104.87c3 .07 6.07.17 9.07.3zm-62.49 2.9-14.22-103.9c3-.41 6-.79 8.95-1.14l12.17 104.19c-2.28.27-4.61.56-6.9.85z"/></svg>